%TF.GenerationSoftware,KiCad,Pcbnew,5.1.9-73d0e3b20d~88~ubuntu20.04.1*%
%TF.CreationDate,2021-05-17T23:31:10+02:00*%
%TF.ProjectId,wally,77616c6c-792e-46b6-9963-61645f706362,v1.02*%
%TF.SameCoordinates,Original*%
%TF.FileFunction,Legend,Bot*%
%TF.FilePolarity,Positive*%
%FSLAX46Y46*%
G04 Gerber Fmt 4.6, Leading zero omitted, Abs format (unit mm)*
G04 Created by KiCad (PCBNEW 5.1.9-73d0e3b20d~88~ubuntu20.04.1) date 2021-05-17 23:31:10*
%MOMM*%
%LPD*%
G01*
G04 APERTURE LIST*
%ADD10C,0.150000*%
%ADD11C,0.120000*%
G04 APERTURE END LIST*
D10*
X159181428Y-92892857D02*
X159181428Y-93235714D01*
X159781428Y-93064285D02*
X159181428Y-93064285D01*
X159181428Y-93378571D02*
X159781428Y-93778571D01*
X159181428Y-93778571D02*
X159781428Y-93378571D01*
X162331428Y-93240000D02*
X162045714Y-93040000D01*
X162331428Y-92897142D02*
X161731428Y-92897142D01*
X161731428Y-93125714D01*
X161760000Y-93182857D01*
X161788571Y-93211428D01*
X161845714Y-93240000D01*
X161931428Y-93240000D01*
X161988571Y-93211428D01*
X162017142Y-93182857D01*
X162045714Y-93125714D01*
X162045714Y-92897142D01*
X161731428Y-93440000D02*
X162331428Y-93840000D01*
X161731428Y-93840000D02*
X162331428Y-93440000D01*
X164290000Y-93252857D02*
X164261428Y-93195714D01*
X164261428Y-93110000D01*
X164290000Y-93024285D01*
X164347142Y-92967142D01*
X164404285Y-92938571D01*
X164518571Y-92910000D01*
X164604285Y-92910000D01*
X164718571Y-92938571D01*
X164775714Y-92967142D01*
X164832857Y-93024285D01*
X164861428Y-93110000D01*
X164861428Y-93167142D01*
X164832857Y-93252857D01*
X164804285Y-93281428D01*
X164604285Y-93281428D01*
X164604285Y-93167142D01*
X164861428Y-93538571D02*
X164261428Y-93538571D01*
X164861428Y-93881428D01*
X164261428Y-93881428D01*
X164861428Y-94167142D02*
X164261428Y-94167142D01*
X164261428Y-94310000D01*
X164290000Y-94395714D01*
X164347142Y-94452857D01*
X164404285Y-94481428D01*
X164518571Y-94510000D01*
X164604285Y-94510000D01*
X164718571Y-94481428D01*
X164775714Y-94452857D01*
X164832857Y-94395714D01*
X164861428Y-94310000D01*
X164861428Y-94167142D01*
X167352857Y-92882857D02*
X167381428Y-92968571D01*
X167381428Y-93111428D01*
X167352857Y-93168571D01*
X167324285Y-93197142D01*
X167267142Y-93225714D01*
X167210000Y-93225714D01*
X167152857Y-93197142D01*
X167124285Y-93168571D01*
X167095714Y-93111428D01*
X167067142Y-92997142D01*
X167038571Y-92940000D01*
X167010000Y-92911428D01*
X166952857Y-92882857D01*
X166895714Y-92882857D01*
X166838571Y-92911428D01*
X166810000Y-92940000D01*
X166781428Y-92997142D01*
X166781428Y-93140000D01*
X166810000Y-93225714D01*
X166781428Y-93425714D02*
X167381428Y-93568571D01*
X166952857Y-93682857D01*
X167381428Y-93797142D01*
X166781428Y-93940000D01*
X167324285Y-94511428D02*
X167352857Y-94482857D01*
X167381428Y-94397142D01*
X167381428Y-94340000D01*
X167352857Y-94254285D01*
X167295714Y-94197142D01*
X167238571Y-94168571D01*
X167124285Y-94140000D01*
X167038571Y-94140000D01*
X166924285Y-94168571D01*
X166867142Y-94197142D01*
X166810000Y-94254285D01*
X166781428Y-94340000D01*
X166781428Y-94397142D01*
X166810000Y-94482857D01*
X166838571Y-94511428D01*
X167381428Y-95054285D02*
X167381428Y-94768571D01*
X166781428Y-94768571D01*
X167381428Y-95254285D02*
X166781428Y-95254285D01*
X167381428Y-95597142D02*
X167038571Y-95340000D01*
X166781428Y-95597142D02*
X167124285Y-95254285D01*
X169912857Y-92878571D02*
X169941428Y-92964285D01*
X169941428Y-93107142D01*
X169912857Y-93164285D01*
X169884285Y-93192857D01*
X169827142Y-93221428D01*
X169770000Y-93221428D01*
X169712857Y-93192857D01*
X169684285Y-93164285D01*
X169655714Y-93107142D01*
X169627142Y-92992857D01*
X169598571Y-92935714D01*
X169570000Y-92907142D01*
X169512857Y-92878571D01*
X169455714Y-92878571D01*
X169398571Y-92907142D01*
X169370000Y-92935714D01*
X169341428Y-92992857D01*
X169341428Y-93135714D01*
X169370000Y-93221428D01*
X169341428Y-93421428D02*
X169941428Y-93564285D01*
X169512857Y-93678571D01*
X169941428Y-93792857D01*
X169341428Y-93935714D01*
X169941428Y-94164285D02*
X169341428Y-94164285D01*
X169341428Y-94307142D01*
X169370000Y-94392857D01*
X169427142Y-94450000D01*
X169484285Y-94478571D01*
X169598571Y-94507142D01*
X169684285Y-94507142D01*
X169798571Y-94478571D01*
X169855714Y-94450000D01*
X169912857Y-94392857D01*
X169941428Y-94307142D01*
X169941428Y-94164285D01*
X169941428Y-94764285D02*
X169341428Y-94764285D01*
X169341428Y-95164285D02*
X169341428Y-95278571D01*
X169370000Y-95335714D01*
X169427142Y-95392857D01*
X169541428Y-95421428D01*
X169741428Y-95421428D01*
X169855714Y-95392857D01*
X169912857Y-95335714D01*
X169941428Y-95278571D01*
X169941428Y-95164285D01*
X169912857Y-95107142D01*
X169855714Y-95050000D01*
X169741428Y-95021428D01*
X169541428Y-95021428D01*
X169427142Y-95050000D01*
X169370000Y-95107142D01*
X169341428Y-95164285D01*
X171930000Y-93222857D02*
X171901428Y-93165714D01*
X171901428Y-93080000D01*
X171930000Y-92994285D01*
X171987142Y-92937142D01*
X172044285Y-92908571D01*
X172158571Y-92880000D01*
X172244285Y-92880000D01*
X172358571Y-92908571D01*
X172415714Y-92937142D01*
X172472857Y-92994285D01*
X172501428Y-93080000D01*
X172501428Y-93137142D01*
X172472857Y-93222857D01*
X172444285Y-93251428D01*
X172244285Y-93251428D01*
X172244285Y-93137142D01*
X172501428Y-93508571D02*
X171901428Y-93508571D01*
X172501428Y-93851428D01*
X171901428Y-93851428D01*
X172501428Y-94137142D02*
X171901428Y-94137142D01*
X171901428Y-94280000D01*
X171930000Y-94365714D01*
X171987142Y-94422857D01*
X172044285Y-94451428D01*
X172158571Y-94480000D01*
X172244285Y-94480000D01*
X172358571Y-94451428D01*
X172415714Y-94422857D01*
X172472857Y-94365714D01*
X172501428Y-94280000D01*
X172501428Y-94137142D01*
D11*
%TO.C,J2*%
X128790000Y-107310000D02*
X129990000Y-107310000D01*
X128790000Y-110060000D02*
X128790000Y-107310000D01*
X142340000Y-110060000D02*
X141210000Y-110060000D01*
X127660000Y-107310000D02*
X127660000Y-110060000D01*
X142340000Y-107310000D02*
X142340000Y-110060000D01*
X127660000Y-110060000D02*
X128790000Y-110060000D01*
X141210000Y-110060000D02*
X141210000Y-107310000D01*
X141210000Y-107310000D02*
X140010000Y-107310000D01*
X129990000Y-107310000D02*
X129990000Y-109940000D01*
%TO.C,J3*%
X127660000Y-92690000D02*
X127660000Y-89940000D01*
X127660000Y-89940000D02*
X128790000Y-89940000D01*
X128790000Y-89940000D02*
X128790000Y-92690000D01*
X128790000Y-92690000D02*
X129990000Y-92690000D01*
X141210000Y-92690000D02*
X140010000Y-92690000D01*
X141210000Y-89940000D02*
X141210000Y-92690000D01*
X142340000Y-92690000D02*
X142340000Y-89940000D01*
X142340000Y-89940000D02*
X141210000Y-89940000D01*
%TO.C,J2*%
D10*
X141010714Y-108850000D02*
X140475000Y-108850000D01*
X140367857Y-108885714D01*
X140296428Y-108957142D01*
X140260714Y-109064285D01*
X140260714Y-109135714D01*
X140939285Y-108528571D02*
X140975000Y-108492857D01*
X141010714Y-108421428D01*
X141010714Y-108242857D01*
X140975000Y-108171428D01*
X140939285Y-108135714D01*
X140867857Y-108100000D01*
X140796428Y-108100000D01*
X140689285Y-108135714D01*
X140260714Y-108564285D01*
X140260714Y-108100000D01*
%TO.C,J3*%
X141010714Y-91640000D02*
X140475000Y-91640000D01*
X140367857Y-91675714D01*
X140296428Y-91747142D01*
X140260714Y-91854285D01*
X140260714Y-91925714D01*
X141010714Y-91354285D02*
X141010714Y-90890000D01*
X140725000Y-91140000D01*
X140725000Y-91032857D01*
X140689285Y-90961428D01*
X140653571Y-90925714D01*
X140582142Y-90890000D01*
X140403571Y-90890000D01*
X140332142Y-90925714D01*
X140296428Y-90961428D01*
X140260714Y-91032857D01*
X140260714Y-91247142D01*
X140296428Y-91318571D01*
X140332142Y-91354285D01*
%TD*%
M02*
