%TF.GenerationSoftware,KiCad,Pcbnew,5.1.10-88a1d61d58~90~ubuntu20.04.1*%
%TF.CreationDate,2021-07-31T15:59:24+02:00*%
%TF.ProjectId,wally,77616c6c-792e-46b6-9963-61645f706362,v1.04*%
%TF.SameCoordinates,Original*%
%TF.FileFunction,Copper,L3,Inr*%
%TF.FilePolarity,Positive*%
%FSLAX46Y46*%
G04 Gerber Fmt 4.6, Leading zero omitted, Abs format (unit mm)*
G04 Created by KiCad (PCBNEW 5.1.10-88a1d61d58~90~ubuntu20.04.1) date 2021-07-31 15:59:24*
%MOMM*%
%LPD*%
G01*
G04 APERTURE LIST*
%TA.AperFunction,ComponentPad*%
%ADD10O,1.700000X1.700000*%
%TD*%
%TA.AperFunction,ComponentPad*%
%ADD11R,1.700000X1.700000*%
%TD*%
%TA.AperFunction,ComponentPad*%
%ADD12O,1.600000X1.000000*%
%TD*%
%TA.AperFunction,ComponentPad*%
%ADD13O,2.100000X1.000000*%
%TD*%
%TA.AperFunction,ComponentPad*%
%ADD14R,1.000000X1.000000*%
%TD*%
%TA.AperFunction,ViaPad*%
%ADD15C,0.800000*%
%TD*%
%TA.AperFunction,ViaPad*%
%ADD16C,0.400000*%
%TD*%
%TA.AperFunction,ViaPad*%
%ADD17C,0.750000*%
%TD*%
%TA.AperFunction,ViaPad*%
%ADD18C,0.700000*%
%TD*%
%TA.AperFunction,Conductor*%
%ADD19C,0.500000*%
%TD*%
%TA.AperFunction,Conductor*%
%ADD20C,0.250000*%
%TD*%
%TA.AperFunction,Conductor*%
%ADD21C,0.254000*%
%TD*%
%TA.AperFunction,Conductor*%
%ADD22C,0.100000*%
%TD*%
G04 APERTURE END LIST*
D10*
%TO.N,+3V3*%
%TO.C,J4*%
X151880000Y-91800000D03*
%TO.N,+5V*%
X154420000Y-91800000D03*
%TO.N,boot0*%
X156960000Y-91800000D03*
%TO.N,uart_tx*%
X159500000Y-91800000D03*
%TO.N,uart_rx*%
X162040000Y-91800000D03*
%TO.N,GND*%
X164580000Y-91800000D03*
%TO.N,swclk*%
X167120000Y-91800000D03*
%TO.N,swdio*%
X169660000Y-91800000D03*
D11*
%TO.N,GND*%
X172200000Y-91800000D03*
%TD*%
D12*
%TO.N,Net-(J1-PadSH)*%
%TO.C,J1*%
X172650000Y-95680000D03*
X172650000Y-104320000D03*
D13*
X168470000Y-104320000D03*
X168470000Y-95680000D03*
%TD*%
D14*
%TO.N,hdmi_sh*%
%TO.C,J2*%
X126225000Y-107700000D03*
X126225000Y-109000000D03*
X139775000Y-109000000D03*
X139775000Y-107700000D03*
%TD*%
%TO.N,hdmi_sh*%
%TO.C,J3*%
X126225000Y-92300000D03*
X126225000Y-91000000D03*
X139775000Y-91000000D03*
X139775000Y-92300000D03*
%TD*%
D11*
%TO.N,hdmi_cec*%
%TO.C,J5*%
X142400000Y-107620000D03*
D10*
%TO.N,hdmi_utility*%
X142400000Y-105080000D03*
%TO.N,hdmi_scl*%
X142400000Y-102540000D03*
%TO.N,GND*%
X142400000Y-100000000D03*
%TO.N,hdmi_sda*%
X142400000Y-97460000D03*
%TO.N,hdmi_5v*%
X142400000Y-94920000D03*
%TO.N,hdmi_hpd*%
X142400000Y-92380000D03*
%TD*%
D15*
%TO.N,GND*%
X127500000Y-92300000D03*
X138500000Y-92300000D03*
X127500000Y-107700000D03*
X138500000Y-107700000D03*
X149000000Y-90900000D03*
D16*
X129000000Y-106800000D03*
X136500000Y-106300000D03*
X133500000Y-106300000D03*
X132000000Y-106800000D03*
D15*
X168900000Y-106300000D03*
X174000000Y-105300000D03*
X174000000Y-100000000D03*
D16*
X132000000Y-93700000D03*
X129000000Y-93200000D03*
X130500000Y-93200000D03*
D17*
X166600000Y-104865000D03*
D16*
X133500000Y-93200000D03*
X136500000Y-93200000D03*
D15*
X174000000Y-94700000D03*
X126000000Y-100000000D03*
X126000000Y-97000000D03*
X126000000Y-103000000D03*
X145000000Y-109100000D03*
X148000000Y-109100000D03*
X151000000Y-109100000D03*
X154000000Y-109100000D03*
X156970000Y-109100000D03*
X163880000Y-108787500D03*
X144875000Y-99700000D03*
X143960000Y-91305000D03*
X143960000Y-95745000D03*
D16*
X130500000Y-106300000D03*
D15*
X154340000Y-106690000D03*
X157460000Y-94920000D03*
X165200000Y-106300000D03*
X154340000Y-96800000D03*
D18*
X162280000Y-94225000D03*
D15*
X160450000Y-108787500D03*
X138460000Y-104220000D03*
X171800000Y-109100000D03*
X164948427Y-101388706D03*
X163897152Y-100328365D03*
X165003335Y-98578015D03*
X166600000Y-95145000D03*
X166600000Y-96200000D03*
X166600000Y-103800000D03*
X150100000Y-105000000D03*
X160920000Y-101950000D03*
X140800000Y-103820000D03*
X140800000Y-101240000D03*
X140800000Y-98710000D03*
X140800000Y-96200000D03*
X154900000Y-101749979D03*
X140800000Y-94000000D03*
X140800000Y-106300000D03*
%TO.N,+3V3*%
X161350000Y-96700000D03*
X161350000Y-99675000D03*
X158230000Y-96700000D03*
X158230000Y-99675000D03*
X168900000Y-108200000D03*
X158430000Y-108630000D03*
X150000000Y-100950000D03*
X165200000Y-108200000D03*
X155700000Y-104260000D03*
X148710000Y-97520000D03*
%TO.N,+5V*%
X170710000Y-93200000D03*
D16*
%TO.N,hdmi_hpd*%
X137500000Y-106300000D03*
X137500000Y-93200000D03*
%TO.N,hdmi_5v*%
X137000000Y-106800000D03*
X137000000Y-93700000D03*
%TO.N,hdmi_sda*%
X136000000Y-106800000D03*
X136000000Y-93700000D03*
%TO.N,hdmi_scl*%
X135500000Y-106300000D03*
X135500000Y-93200000D03*
%TO.N,hdmi_utility*%
X135000000Y-106800000D03*
X135000000Y-93700000D03*
%TO.N,hdmi_cec*%
X134500000Y-106300000D03*
X134500000Y-93200000D03*
%TO.N,Net-(J2-Pad12)*%
X134000000Y-106800000D03*
%TO.N,Net-(J2-Pad10)*%
X133000000Y-106800000D03*
%TO.N,Net-(J2-Pad9)*%
X132500000Y-93300000D03*
%TO.N,Net-(J2-Pad7)*%
X131500000Y-93300000D03*
%TO.N,Net-(J2-Pad6)*%
X131000000Y-106800000D03*
%TO.N,Net-(J2-Pad4)*%
X130000000Y-106800000D03*
%TO.N,Net-(J2-Pad3)*%
X129500000Y-93700000D03*
%TO.N,Net-(J2-Pad1)*%
X128500000Y-93700000D03*
D15*
%TO.N,hdmi_5v_in*%
X153800000Y-101100000D03*
X147170000Y-97960000D03*
%TO.N,hdmi_hpd_in*%
X153800000Y-100000000D03*
X149620144Y-96400000D03*
%TO.N,hdmi_5v_en*%
X152512500Y-98060000D03*
X152512500Y-101850000D03*
%TO.N,hdmi_hpd_en*%
X150630002Y-96400000D03*
X153450476Y-102853213D03*
%TD*%
D19*
%TO.N,+5V*%
X155820000Y-93200000D02*
X170710000Y-93200000D01*
X154420000Y-91800000D02*
X155820000Y-93200000D01*
D20*
%TO.N,hdmi_5v_in*%
X153660000Y-101100000D02*
X153800000Y-101100000D01*
X150910000Y-98350000D02*
X153660000Y-101100000D01*
X147170000Y-97960000D02*
X147560000Y-98350000D01*
X147560000Y-98350000D02*
X150910000Y-98350000D01*
%TO.N,hdmi_hpd_in*%
X149620144Y-96423734D02*
X149620144Y-96400000D01*
X153800000Y-100000000D02*
X153196410Y-100000000D01*
X153196410Y-100000000D02*
X149620144Y-96423734D01*
%TD*%
D21*
%TO.N,+3V3*%
X147965000Y-90798061D02*
X147965000Y-91001939D01*
X148004774Y-91201898D01*
X148082795Y-91390256D01*
X148196063Y-91559774D01*
X148340226Y-91703937D01*
X148509744Y-91817205D01*
X148698102Y-91895226D01*
X148898061Y-91935000D01*
X149101939Y-91935000D01*
X149301898Y-91895226D01*
X149490256Y-91817205D01*
X149659774Y-91703937D01*
X149803937Y-91559774D01*
X149917205Y-91390256D01*
X149995226Y-91201898D01*
X150035000Y-91001939D01*
X150035000Y-90798061D01*
X150007538Y-90660000D01*
X150936592Y-90660000D01*
X150879731Y-90702412D01*
X150684822Y-90918645D01*
X150535843Y-91168748D01*
X150438519Y-91443109D01*
X150559186Y-91673000D01*
X151753000Y-91673000D01*
X151753000Y-91653000D01*
X152007000Y-91653000D01*
X152007000Y-91673000D01*
X152027000Y-91673000D01*
X152027000Y-91927000D01*
X152007000Y-91927000D01*
X152007000Y-93120155D01*
X152236890Y-93241476D01*
X152384099Y-93196825D01*
X152646920Y-93071641D01*
X152880269Y-92897588D01*
X153075178Y-92681355D01*
X153144805Y-92564466D01*
X153266525Y-92746632D01*
X153473368Y-92953475D01*
X153716589Y-93115990D01*
X153986842Y-93227932D01*
X154273740Y-93285000D01*
X154566260Y-93285000D01*
X154638960Y-93270539D01*
X155163470Y-93795049D01*
X155191183Y-93828817D01*
X155224951Y-93856530D01*
X155224953Y-93856532D01*
X155273122Y-93896063D01*
X155325941Y-93939411D01*
X155479687Y-94021589D01*
X155595903Y-94056843D01*
X155646509Y-94072195D01*
X155661306Y-94073652D01*
X155776523Y-94085000D01*
X155776531Y-94085000D01*
X155820000Y-94089281D01*
X155863469Y-94085000D01*
X156846715Y-94085000D01*
X156800226Y-94116063D01*
X156656063Y-94260226D01*
X156542795Y-94429744D01*
X156464774Y-94618102D01*
X156425000Y-94818061D01*
X156425000Y-95021939D01*
X156464774Y-95221898D01*
X156542795Y-95410256D01*
X156656063Y-95579774D01*
X156800226Y-95723937D01*
X156969744Y-95837205D01*
X157158102Y-95915226D01*
X157358061Y-95955000D01*
X157561939Y-95955000D01*
X157761898Y-95915226D01*
X157950256Y-95837205D01*
X158119774Y-95723937D01*
X158263937Y-95579774D01*
X158377205Y-95410256D01*
X158455226Y-95221898D01*
X158495000Y-95021939D01*
X158495000Y-94818061D01*
X158455226Y-94618102D01*
X158377205Y-94429744D01*
X158263937Y-94260226D01*
X158119774Y-94116063D01*
X158073285Y-94085000D01*
X161303550Y-94085000D01*
X161295000Y-94127986D01*
X161295000Y-94322014D01*
X161332853Y-94512314D01*
X161407104Y-94691572D01*
X161514901Y-94852901D01*
X161652099Y-94990099D01*
X161813428Y-95097896D01*
X161992686Y-95172147D01*
X162182986Y-95210000D01*
X162377014Y-95210000D01*
X162567314Y-95172147D01*
X162746572Y-95097896D01*
X162828638Y-95043061D01*
X165565000Y-95043061D01*
X165565000Y-95246939D01*
X165604774Y-95446898D01*
X165682795Y-95635256D01*
X165707681Y-95672500D01*
X165682795Y-95709744D01*
X165604774Y-95898102D01*
X165565000Y-96098061D01*
X165565000Y-96301939D01*
X165604774Y-96501898D01*
X165682795Y-96690256D01*
X165796063Y-96859774D01*
X165940226Y-97003937D01*
X166109744Y-97117205D01*
X166298102Y-97195226D01*
X166498061Y-97235000D01*
X166701939Y-97235000D01*
X166901898Y-97195226D01*
X167090256Y-97117205D01*
X167259774Y-97003937D01*
X167403937Y-96859774D01*
X167487411Y-96734846D01*
X167697501Y-96798577D01*
X167864248Y-96815000D01*
X168083096Y-96815000D01*
X168076892Y-96829978D01*
X168040000Y-97015448D01*
X168040000Y-97204552D01*
X168076892Y-97390022D01*
X168149259Y-97564731D01*
X168254319Y-97721964D01*
X168388036Y-97855681D01*
X168545269Y-97960741D01*
X168719978Y-98033108D01*
X168905448Y-98070000D01*
X169094552Y-98070000D01*
X169280022Y-98033108D01*
X169454731Y-97960741D01*
X169611964Y-97855681D01*
X169745681Y-97721964D01*
X169850741Y-97564731D01*
X169923108Y-97390022D01*
X169960000Y-97204552D01*
X169960000Y-97015448D01*
X169923108Y-96829978D01*
X169850741Y-96655269D01*
X169769285Y-96533362D01*
X169826449Y-96486449D01*
X169968284Y-96313623D01*
X170073676Y-96116447D01*
X170138577Y-95902499D01*
X170160491Y-95680000D01*
X170138577Y-95457501D01*
X170073676Y-95243553D01*
X169968284Y-95046377D01*
X169826449Y-94873551D01*
X169653623Y-94731716D01*
X169456447Y-94626324D01*
X169242499Y-94561423D01*
X169075752Y-94545000D01*
X167864248Y-94545000D01*
X167697501Y-94561423D01*
X167495744Y-94622626D01*
X167403937Y-94485226D01*
X167259774Y-94341063D01*
X167090256Y-94227795D01*
X166901898Y-94149774D01*
X166701939Y-94110000D01*
X166498061Y-94110000D01*
X166298102Y-94149774D01*
X166109744Y-94227795D01*
X165940226Y-94341063D01*
X165796063Y-94485226D01*
X165682795Y-94654744D01*
X165604774Y-94843102D01*
X165565000Y-95043061D01*
X162828638Y-95043061D01*
X162907901Y-94990099D01*
X163045099Y-94852901D01*
X163152896Y-94691572D01*
X163227147Y-94512314D01*
X163265000Y-94322014D01*
X163265000Y-94127986D01*
X163256450Y-94085000D01*
X170171546Y-94085000D01*
X170219744Y-94117205D01*
X170408102Y-94195226D01*
X170608061Y-94235000D01*
X170811939Y-94235000D01*
X171011898Y-94195226D01*
X171200256Y-94117205D01*
X171369774Y-94003937D01*
X171513937Y-93859774D01*
X171627205Y-93690256D01*
X171705226Y-93501898D01*
X171745000Y-93301939D01*
X171745000Y-93288072D01*
X173050000Y-93288072D01*
X173174482Y-93275812D01*
X173294180Y-93239502D01*
X173404494Y-93180537D01*
X173501185Y-93101185D01*
X173580537Y-93004494D01*
X173639502Y-92894180D01*
X173675812Y-92774482D01*
X173688072Y-92650000D01*
X173688072Y-91110001D01*
X173794299Y-91196637D01*
X174022806Y-91472856D01*
X174193310Y-91788197D01*
X174299319Y-92130656D01*
X174340000Y-92517712D01*
X174340000Y-93720557D01*
X174301898Y-93704774D01*
X174101939Y-93665000D01*
X173898061Y-93665000D01*
X173698102Y-93704774D01*
X173509744Y-93782795D01*
X173340226Y-93896063D01*
X173196063Y-94040226D01*
X173082795Y-94209744D01*
X173004774Y-94398102D01*
X172975554Y-94545000D01*
X172294248Y-94545000D01*
X172127501Y-94561423D01*
X171913553Y-94626324D01*
X171716377Y-94731716D01*
X171543551Y-94873551D01*
X171401716Y-95046377D01*
X171296324Y-95243553D01*
X171231423Y-95457501D01*
X171209509Y-95680000D01*
X171231423Y-95902499D01*
X171296324Y-96116447D01*
X171401716Y-96313623D01*
X171543551Y-96486449D01*
X171716377Y-96628284D01*
X171913553Y-96733676D01*
X172127501Y-96798577D01*
X172294248Y-96815000D01*
X173005752Y-96815000D01*
X173172499Y-96798577D01*
X173386447Y-96733676D01*
X173583623Y-96628284D01*
X173756449Y-96486449D01*
X173898284Y-96313623D01*
X174003676Y-96116447D01*
X174068577Y-95902499D01*
X174085074Y-95735000D01*
X174101939Y-95735000D01*
X174301898Y-95695226D01*
X174340000Y-95679443D01*
X174340000Y-99020557D01*
X174301898Y-99004774D01*
X174101939Y-98965000D01*
X173898061Y-98965000D01*
X173698102Y-99004774D01*
X173509744Y-99082795D01*
X173340226Y-99196063D01*
X173196063Y-99340226D01*
X173082795Y-99509744D01*
X173004774Y-99698102D01*
X172965000Y-99898061D01*
X172965000Y-100101939D01*
X173004774Y-100301898D01*
X173082795Y-100490256D01*
X173196063Y-100659774D01*
X173340226Y-100803937D01*
X173509744Y-100917205D01*
X173698102Y-100995226D01*
X173898061Y-101035000D01*
X174101939Y-101035000D01*
X174301898Y-100995226D01*
X174340001Y-100979443D01*
X174340001Y-104320557D01*
X174301898Y-104304774D01*
X174101939Y-104265000D01*
X174085074Y-104265000D01*
X174068577Y-104097501D01*
X174003676Y-103883553D01*
X173898284Y-103686377D01*
X173756449Y-103513551D01*
X173583623Y-103371716D01*
X173386447Y-103266324D01*
X173172499Y-103201423D01*
X173005752Y-103185000D01*
X172294248Y-103185000D01*
X172127501Y-103201423D01*
X171913553Y-103266324D01*
X171716377Y-103371716D01*
X171543551Y-103513551D01*
X171401716Y-103686377D01*
X171296324Y-103883553D01*
X171231423Y-104097501D01*
X171209509Y-104320000D01*
X171231423Y-104542499D01*
X171296324Y-104756447D01*
X171401716Y-104953623D01*
X171543551Y-105126449D01*
X171716377Y-105268284D01*
X171913553Y-105373676D01*
X172127501Y-105438577D01*
X172294248Y-105455000D01*
X172975554Y-105455000D01*
X173004774Y-105601898D01*
X173082795Y-105790256D01*
X173196063Y-105959774D01*
X173340226Y-106103937D01*
X173509744Y-106217205D01*
X173698102Y-106295226D01*
X173898061Y-106335000D01*
X174101939Y-106335000D01*
X174301898Y-106295226D01*
X174340001Y-106279443D01*
X174340001Y-107467711D01*
X174301853Y-107856776D01*
X174198238Y-108199964D01*
X174029939Y-108516489D01*
X173803365Y-108794296D01*
X173527146Y-109022805D01*
X173211803Y-109193310D01*
X172869344Y-109299319D01*
X172814483Y-109305085D01*
X172835000Y-109201939D01*
X172835000Y-108998061D01*
X172795226Y-108798102D01*
X172717205Y-108609744D01*
X172603937Y-108440226D01*
X172459774Y-108296063D01*
X172290256Y-108182795D01*
X172101898Y-108104774D01*
X171901939Y-108065000D01*
X171698061Y-108065000D01*
X171498102Y-108104774D01*
X171309744Y-108182795D01*
X171140226Y-108296063D01*
X170996063Y-108440226D01*
X170882795Y-108609744D01*
X170804774Y-108798102D01*
X170765000Y-108998061D01*
X170765000Y-109201939D01*
X170792462Y-109340000D01*
X164755615Y-109340000D01*
X164797205Y-109277756D01*
X164875226Y-109089398D01*
X164915000Y-108889439D01*
X164915000Y-108685561D01*
X164875226Y-108485602D01*
X164797205Y-108297244D01*
X164683937Y-108127726D01*
X164539774Y-107983563D01*
X164370256Y-107870295D01*
X164181898Y-107792274D01*
X163981939Y-107752500D01*
X163778061Y-107752500D01*
X163578102Y-107792274D01*
X163389744Y-107870295D01*
X163220226Y-107983563D01*
X163076063Y-108127726D01*
X162962795Y-108297244D01*
X162884774Y-108485602D01*
X162845000Y-108685561D01*
X162845000Y-108889439D01*
X162884774Y-109089398D01*
X162962795Y-109277756D01*
X163004385Y-109340000D01*
X161325615Y-109340000D01*
X161367205Y-109277756D01*
X161445226Y-109089398D01*
X161485000Y-108889439D01*
X161485000Y-108685561D01*
X161445226Y-108485602D01*
X161367205Y-108297244D01*
X161253937Y-108127726D01*
X161109774Y-107983563D01*
X160940256Y-107870295D01*
X160751898Y-107792274D01*
X160551939Y-107752500D01*
X160348061Y-107752500D01*
X160148102Y-107792274D01*
X159959744Y-107870295D01*
X159790226Y-107983563D01*
X159646063Y-108127726D01*
X159532795Y-108297244D01*
X159454774Y-108485602D01*
X159415000Y-108685561D01*
X159415000Y-108889439D01*
X159454774Y-109089398D01*
X159532795Y-109277756D01*
X159574385Y-109340000D01*
X157977538Y-109340000D01*
X158005000Y-109201939D01*
X158005000Y-108998061D01*
X157965226Y-108798102D01*
X157887205Y-108609744D01*
X157773937Y-108440226D01*
X157629774Y-108296063D01*
X157460256Y-108182795D01*
X157271898Y-108104774D01*
X157071939Y-108065000D01*
X156868061Y-108065000D01*
X156668102Y-108104774D01*
X156479744Y-108182795D01*
X156310226Y-108296063D01*
X156166063Y-108440226D01*
X156052795Y-108609744D01*
X155974774Y-108798102D01*
X155935000Y-108998061D01*
X155935000Y-109201939D01*
X155962462Y-109340000D01*
X155007538Y-109340000D01*
X155035000Y-109201939D01*
X155035000Y-108998061D01*
X154995226Y-108798102D01*
X154917205Y-108609744D01*
X154803937Y-108440226D01*
X154659774Y-108296063D01*
X154490256Y-108182795D01*
X154301898Y-108104774D01*
X154101939Y-108065000D01*
X153898061Y-108065000D01*
X153698102Y-108104774D01*
X153509744Y-108182795D01*
X153340226Y-108296063D01*
X153196063Y-108440226D01*
X153082795Y-108609744D01*
X153004774Y-108798102D01*
X152965000Y-108998061D01*
X152965000Y-109201939D01*
X152992462Y-109340000D01*
X152007538Y-109340000D01*
X152035000Y-109201939D01*
X152035000Y-108998061D01*
X151995226Y-108798102D01*
X151917205Y-108609744D01*
X151803937Y-108440226D01*
X151659774Y-108296063D01*
X151490256Y-108182795D01*
X151301898Y-108104774D01*
X151101939Y-108065000D01*
X150898061Y-108065000D01*
X150698102Y-108104774D01*
X150509744Y-108182795D01*
X150340226Y-108296063D01*
X150196063Y-108440226D01*
X150082795Y-108609744D01*
X150004774Y-108798102D01*
X149965000Y-108998061D01*
X149965000Y-109201939D01*
X149992462Y-109340000D01*
X149007538Y-109340000D01*
X149035000Y-109201939D01*
X149035000Y-108998061D01*
X148995226Y-108798102D01*
X148917205Y-108609744D01*
X148803937Y-108440226D01*
X148659774Y-108296063D01*
X148490256Y-108182795D01*
X148301898Y-108104774D01*
X148101939Y-108065000D01*
X147898061Y-108065000D01*
X147698102Y-108104774D01*
X147509744Y-108182795D01*
X147340226Y-108296063D01*
X147196063Y-108440226D01*
X147082795Y-108609744D01*
X147004774Y-108798102D01*
X146965000Y-108998061D01*
X146965000Y-109201939D01*
X146992462Y-109340000D01*
X146007538Y-109340000D01*
X146035000Y-109201939D01*
X146035000Y-108998061D01*
X145995226Y-108798102D01*
X145917205Y-108609744D01*
X145803937Y-108440226D01*
X145659774Y-108296063D01*
X145490256Y-108182795D01*
X145301898Y-108104774D01*
X145101939Y-108065000D01*
X144898061Y-108065000D01*
X144698102Y-108104774D01*
X144509744Y-108182795D01*
X144340226Y-108296063D01*
X144196063Y-108440226D01*
X144082795Y-108609744D01*
X144004774Y-108798102D01*
X143965000Y-108998061D01*
X143965000Y-109201939D01*
X143992462Y-109340000D01*
X143127000Y-109340000D01*
X143127000Y-109108072D01*
X143250000Y-109108072D01*
X143374482Y-109095812D01*
X143494180Y-109059502D01*
X143604494Y-109000537D01*
X143701185Y-108921185D01*
X143780537Y-108824494D01*
X143839502Y-108714180D01*
X143875812Y-108594482D01*
X143888072Y-108470000D01*
X143888072Y-106770000D01*
X143875812Y-106645518D01*
X143858383Y-106588061D01*
X153305000Y-106588061D01*
X153305000Y-106791939D01*
X153344774Y-106991898D01*
X153422795Y-107180256D01*
X153536063Y-107349774D01*
X153680226Y-107493937D01*
X153849744Y-107607205D01*
X154038102Y-107685226D01*
X154238061Y-107725000D01*
X154441939Y-107725000D01*
X154641898Y-107685226D01*
X154830256Y-107607205D01*
X154999774Y-107493937D01*
X155143937Y-107349774D01*
X155257205Y-107180256D01*
X155335226Y-106991898D01*
X155375000Y-106791939D01*
X155375000Y-106588061D01*
X155335226Y-106388102D01*
X155257205Y-106199744D01*
X155256081Y-106198061D01*
X164165000Y-106198061D01*
X164165000Y-106401939D01*
X164204774Y-106601898D01*
X164282795Y-106790256D01*
X164396063Y-106959774D01*
X164540226Y-107103937D01*
X164709744Y-107217205D01*
X164898102Y-107295226D01*
X165098061Y-107335000D01*
X165301939Y-107335000D01*
X165501898Y-107295226D01*
X165690256Y-107217205D01*
X165859774Y-107103937D01*
X166003937Y-106959774D01*
X166117205Y-106790256D01*
X166195226Y-106601898D01*
X166235000Y-106401939D01*
X166235000Y-106198061D01*
X166195226Y-105998102D01*
X166117205Y-105809744D01*
X166053686Y-105714681D01*
X166121586Y-105760050D01*
X166305394Y-105836186D01*
X166500524Y-105875000D01*
X166699476Y-105875000D01*
X166894606Y-105836186D01*
X167078414Y-105760050D01*
X167243837Y-105649518D01*
X167384518Y-105508837D01*
X167477125Y-105370240D01*
X167483553Y-105373676D01*
X167697501Y-105438577D01*
X167864248Y-105455000D01*
X168301681Y-105455000D01*
X168240226Y-105496063D01*
X168096063Y-105640226D01*
X167982795Y-105809744D01*
X167904774Y-105998102D01*
X167865000Y-106198061D01*
X167865000Y-106401939D01*
X167904774Y-106601898D01*
X167982795Y-106790256D01*
X168096063Y-106959774D01*
X168240226Y-107103937D01*
X168409744Y-107217205D01*
X168598102Y-107295226D01*
X168798061Y-107335000D01*
X169001939Y-107335000D01*
X169201898Y-107295226D01*
X169390256Y-107217205D01*
X169559774Y-107103937D01*
X169703937Y-106959774D01*
X169817205Y-106790256D01*
X169895226Y-106601898D01*
X169935000Y-106401939D01*
X169935000Y-106198061D01*
X169895226Y-105998102D01*
X169817205Y-105809744D01*
X169703937Y-105640226D01*
X169559774Y-105496063D01*
X169401537Y-105390333D01*
X169456447Y-105373676D01*
X169653623Y-105268284D01*
X169826449Y-105126449D01*
X169968284Y-104953623D01*
X170073676Y-104756447D01*
X170138577Y-104542499D01*
X170160491Y-104320000D01*
X170138577Y-104097501D01*
X170073676Y-103883553D01*
X169968284Y-103686377D01*
X169826449Y-103513551D01*
X169769285Y-103466638D01*
X169850741Y-103344731D01*
X169923108Y-103170022D01*
X169960000Y-102984552D01*
X169960000Y-102795448D01*
X169923108Y-102609978D01*
X169850741Y-102435269D01*
X169745681Y-102278036D01*
X169611964Y-102144319D01*
X169454731Y-102039259D01*
X169280022Y-101966892D01*
X169094552Y-101930000D01*
X168905448Y-101930000D01*
X168719978Y-101966892D01*
X168545269Y-102039259D01*
X168388036Y-102144319D01*
X168254319Y-102278036D01*
X168149259Y-102435269D01*
X168076892Y-102609978D01*
X168040000Y-102795448D01*
X168040000Y-102984552D01*
X168076892Y-103170022D01*
X168083096Y-103185000D01*
X167864248Y-103185000D01*
X167697501Y-103201423D01*
X167487411Y-103265154D01*
X167403937Y-103140226D01*
X167259774Y-102996063D01*
X167090256Y-102882795D01*
X166901898Y-102804774D01*
X166701939Y-102765000D01*
X166498061Y-102765000D01*
X166298102Y-102804774D01*
X166109744Y-102882795D01*
X165940226Y-102996063D01*
X165796063Y-103140226D01*
X165682795Y-103309744D01*
X165604774Y-103498102D01*
X165565000Y-103698061D01*
X165565000Y-103901939D01*
X165604774Y-104101898D01*
X165682795Y-104290256D01*
X165726055Y-104355000D01*
X165704950Y-104386586D01*
X165628814Y-104570394D01*
X165590000Y-104765524D01*
X165590000Y-104964476D01*
X165628814Y-105159606D01*
X165704950Y-105343414D01*
X165764338Y-105432295D01*
X165690256Y-105382795D01*
X165501898Y-105304774D01*
X165301939Y-105265000D01*
X165098061Y-105265000D01*
X164898102Y-105304774D01*
X164709744Y-105382795D01*
X164540226Y-105496063D01*
X164396063Y-105640226D01*
X164282795Y-105809744D01*
X164204774Y-105998102D01*
X164165000Y-106198061D01*
X155256081Y-106198061D01*
X155143937Y-106030226D01*
X154999774Y-105886063D01*
X154830256Y-105772795D01*
X154641898Y-105694774D01*
X154441939Y-105655000D01*
X154238061Y-105655000D01*
X154038102Y-105694774D01*
X153849744Y-105772795D01*
X153680226Y-105886063D01*
X153536063Y-106030226D01*
X153422795Y-106199744D01*
X153344774Y-106388102D01*
X153305000Y-106588061D01*
X143858383Y-106588061D01*
X143839502Y-106525820D01*
X143780537Y-106415506D01*
X143701185Y-106318815D01*
X143604494Y-106239463D01*
X143494180Y-106180498D01*
X143421620Y-106158487D01*
X143553475Y-106026632D01*
X143715990Y-105783411D01*
X143827932Y-105513158D01*
X143885000Y-105226260D01*
X143885000Y-104933740D01*
X143877903Y-104898061D01*
X149065000Y-104898061D01*
X149065000Y-105101939D01*
X149104774Y-105301898D01*
X149182795Y-105490256D01*
X149296063Y-105659774D01*
X149440226Y-105803937D01*
X149609744Y-105917205D01*
X149798102Y-105995226D01*
X149998061Y-106035000D01*
X150201939Y-106035000D01*
X150401898Y-105995226D01*
X150590256Y-105917205D01*
X150759774Y-105803937D01*
X150903937Y-105659774D01*
X151017205Y-105490256D01*
X151095226Y-105301898D01*
X151135000Y-105101939D01*
X151135000Y-104898061D01*
X151095226Y-104698102D01*
X151017205Y-104509744D01*
X150903937Y-104340226D01*
X150759774Y-104196063D01*
X150590256Y-104082795D01*
X150401898Y-104004774D01*
X150201939Y-103965000D01*
X149998061Y-103965000D01*
X149798102Y-104004774D01*
X149609744Y-104082795D01*
X149440226Y-104196063D01*
X149296063Y-104340226D01*
X149182795Y-104509744D01*
X149104774Y-104698102D01*
X149065000Y-104898061D01*
X143877903Y-104898061D01*
X143827932Y-104646842D01*
X143715990Y-104376589D01*
X143553475Y-104133368D01*
X143346632Y-103926525D01*
X143172240Y-103810000D01*
X143346632Y-103693475D01*
X143553475Y-103486632D01*
X143715990Y-103243411D01*
X143827932Y-102973158D01*
X143885000Y-102686260D01*
X143885000Y-102393740D01*
X143827932Y-102106842D01*
X143715990Y-101836589D01*
X143553475Y-101593368D01*
X143346632Y-101386525D01*
X143172240Y-101270000D01*
X143346632Y-101153475D01*
X143553475Y-100946632D01*
X143715990Y-100703411D01*
X143827932Y-100433158D01*
X143885000Y-100146260D01*
X143885000Y-100014515D01*
X143957795Y-100190256D01*
X144071063Y-100359774D01*
X144215226Y-100503937D01*
X144384744Y-100617205D01*
X144573102Y-100695226D01*
X144773061Y-100735000D01*
X144976939Y-100735000D01*
X145176898Y-100695226D01*
X145365256Y-100617205D01*
X145534774Y-100503937D01*
X145678937Y-100359774D01*
X145792205Y-100190256D01*
X145870226Y-100001898D01*
X145910000Y-99801939D01*
X145910000Y-99598061D01*
X145870226Y-99398102D01*
X145792205Y-99209744D01*
X145678937Y-99040226D01*
X145534774Y-98896063D01*
X145365256Y-98782795D01*
X145176898Y-98704774D01*
X144976939Y-98665000D01*
X144773061Y-98665000D01*
X144573102Y-98704774D01*
X144384744Y-98782795D01*
X144215226Y-98896063D01*
X144071063Y-99040226D01*
X143957795Y-99209744D01*
X143879774Y-99398102D01*
X143840000Y-99598061D01*
X143840000Y-99627511D01*
X143827932Y-99566842D01*
X143715990Y-99296589D01*
X143553475Y-99053368D01*
X143346632Y-98846525D01*
X143172240Y-98730000D01*
X143346632Y-98613475D01*
X143553475Y-98406632D01*
X143715990Y-98163411D01*
X143827932Y-97893158D01*
X143834913Y-97858061D01*
X146135000Y-97858061D01*
X146135000Y-98061939D01*
X146174774Y-98261898D01*
X146252795Y-98450256D01*
X146366063Y-98619774D01*
X146510226Y-98763937D01*
X146679744Y-98877205D01*
X146868102Y-98955226D01*
X147068061Y-98995000D01*
X147154481Y-98995000D01*
X147267753Y-99055546D01*
X147411014Y-99099003D01*
X147522667Y-99110000D01*
X147522676Y-99110000D01*
X147559999Y-99113676D01*
X147597322Y-99110000D01*
X150595199Y-99110000D01*
X152318509Y-100833310D01*
X152210602Y-100854774D01*
X152022244Y-100932795D01*
X151852726Y-101046063D01*
X151708563Y-101190226D01*
X151595295Y-101359744D01*
X151517274Y-101548102D01*
X151477500Y-101748061D01*
X151477500Y-101951939D01*
X151517274Y-102151898D01*
X151595295Y-102340256D01*
X151708563Y-102509774D01*
X151852726Y-102653937D01*
X152022244Y-102767205D01*
X152210602Y-102845226D01*
X152410561Y-102885000D01*
X152415476Y-102885000D01*
X152415476Y-102955152D01*
X152455250Y-103155111D01*
X152533271Y-103343469D01*
X152646539Y-103512987D01*
X152790702Y-103657150D01*
X152960220Y-103770418D01*
X153148578Y-103848439D01*
X153348537Y-103888213D01*
X153552415Y-103888213D01*
X153752374Y-103848439D01*
X153940732Y-103770418D01*
X154110250Y-103657150D01*
X154254413Y-103512987D01*
X154367681Y-103343469D01*
X154445702Y-103155111D01*
X154485476Y-102955152D01*
X154485476Y-102751274D01*
X154474048Y-102693820D01*
X154598102Y-102745205D01*
X154798061Y-102784979D01*
X155001939Y-102784979D01*
X155201898Y-102745205D01*
X155390256Y-102667184D01*
X155559774Y-102553916D01*
X155703937Y-102409753D01*
X155817205Y-102240235D01*
X155895226Y-102051877D01*
X155935000Y-101851918D01*
X155935000Y-101848061D01*
X159885000Y-101848061D01*
X159885000Y-102051939D01*
X159924774Y-102251898D01*
X160002795Y-102440256D01*
X160116063Y-102609774D01*
X160260226Y-102753937D01*
X160429744Y-102867205D01*
X160618102Y-102945226D01*
X160818061Y-102985000D01*
X161021939Y-102985000D01*
X161221898Y-102945226D01*
X161410256Y-102867205D01*
X161579774Y-102753937D01*
X161723937Y-102609774D01*
X161837205Y-102440256D01*
X161915226Y-102251898D01*
X161955000Y-102051939D01*
X161955000Y-101848061D01*
X161915226Y-101648102D01*
X161837205Y-101459744D01*
X161723937Y-101290226D01*
X161579774Y-101146063D01*
X161410256Y-101032795D01*
X161221898Y-100954774D01*
X161021939Y-100915000D01*
X160818061Y-100915000D01*
X160618102Y-100954774D01*
X160429744Y-101032795D01*
X160260226Y-101146063D01*
X160116063Y-101290226D01*
X160002795Y-101459744D01*
X159924774Y-101648102D01*
X159885000Y-101848061D01*
X155935000Y-101848061D01*
X155935000Y-101648040D01*
X155895226Y-101448081D01*
X155817205Y-101259723D01*
X155703937Y-101090205D01*
X155559774Y-100946042D01*
X155390256Y-100832774D01*
X155201898Y-100754753D01*
X155001939Y-100714979D01*
X154798061Y-100714979D01*
X154763632Y-100721827D01*
X154717205Y-100609744D01*
X154677285Y-100550000D01*
X154717205Y-100490256D01*
X154795226Y-100301898D01*
X154810238Y-100226426D01*
X162862152Y-100226426D01*
X162862152Y-100430304D01*
X162901926Y-100630263D01*
X162979947Y-100818621D01*
X163093215Y-100988139D01*
X163237378Y-101132302D01*
X163406896Y-101245570D01*
X163595254Y-101323591D01*
X163795213Y-101363365D01*
X163913427Y-101363365D01*
X163913427Y-101490645D01*
X163953201Y-101690604D01*
X164031222Y-101878962D01*
X164144490Y-102048480D01*
X164288653Y-102192643D01*
X164458171Y-102305911D01*
X164646529Y-102383932D01*
X164846488Y-102423706D01*
X165050366Y-102423706D01*
X165250325Y-102383932D01*
X165438683Y-102305911D01*
X165608201Y-102192643D01*
X165752364Y-102048480D01*
X165865632Y-101878962D01*
X165943653Y-101690604D01*
X165983427Y-101490645D01*
X165983427Y-101286767D01*
X165943653Y-101086808D01*
X165865632Y-100898450D01*
X165752364Y-100728932D01*
X165608201Y-100584769D01*
X165438683Y-100471501D01*
X165250325Y-100393480D01*
X165050366Y-100353706D01*
X164932152Y-100353706D01*
X164932152Y-100226426D01*
X164892378Y-100026467D01*
X164814357Y-99838109D01*
X164701089Y-99668591D01*
X164556926Y-99524428D01*
X164513432Y-99495366D01*
X164701437Y-99573241D01*
X164901396Y-99613015D01*
X165105274Y-99613015D01*
X165305233Y-99573241D01*
X165493591Y-99495220D01*
X165663109Y-99381952D01*
X165807272Y-99237789D01*
X165920540Y-99068271D01*
X165998561Y-98879913D01*
X166038335Y-98679954D01*
X166038335Y-98476076D01*
X165998561Y-98276117D01*
X165920540Y-98087759D01*
X165807272Y-97918241D01*
X165663109Y-97774078D01*
X165493591Y-97660810D01*
X165305233Y-97582789D01*
X165105274Y-97543015D01*
X164901396Y-97543015D01*
X164701437Y-97582789D01*
X164513079Y-97660810D01*
X164343561Y-97774078D01*
X164199398Y-97918241D01*
X164086130Y-98087759D01*
X164008109Y-98276117D01*
X163968335Y-98476076D01*
X163968335Y-98679954D01*
X164008109Y-98879913D01*
X164086130Y-99068271D01*
X164199398Y-99237789D01*
X164343561Y-99381952D01*
X164387055Y-99411014D01*
X164199050Y-99333139D01*
X163999091Y-99293365D01*
X163795213Y-99293365D01*
X163595254Y-99333139D01*
X163406896Y-99411160D01*
X163237378Y-99524428D01*
X163093215Y-99668591D01*
X162979947Y-99838109D01*
X162901926Y-100026467D01*
X162862152Y-100226426D01*
X154810238Y-100226426D01*
X154835000Y-100101939D01*
X154835000Y-99898061D01*
X154795226Y-99698102D01*
X154717205Y-99509744D01*
X154603937Y-99340226D01*
X154459774Y-99196063D01*
X154290256Y-99082795D01*
X154101898Y-99004774D01*
X153901939Y-98965000D01*
X153698061Y-98965000D01*
X153498102Y-99004774D01*
X153341043Y-99069831D01*
X153150019Y-98878807D01*
X153172274Y-98863937D01*
X153316437Y-98719774D01*
X153429705Y-98550256D01*
X153507726Y-98361898D01*
X153547500Y-98161939D01*
X153547500Y-97958061D01*
X153507726Y-97758102D01*
X153429705Y-97569744D01*
X153316437Y-97400226D01*
X153172274Y-97256063D01*
X153002756Y-97142795D01*
X152814398Y-97064774D01*
X152614439Y-97025000D01*
X152410561Y-97025000D01*
X152210602Y-97064774D01*
X152022244Y-97142795D01*
X151852726Y-97256063D01*
X151708563Y-97400226D01*
X151693693Y-97422481D01*
X151382462Y-97111251D01*
X151433939Y-97059774D01*
X151547207Y-96890256D01*
X151625228Y-96701898D01*
X151625991Y-96698061D01*
X153305000Y-96698061D01*
X153305000Y-96901939D01*
X153344774Y-97101898D01*
X153422795Y-97290256D01*
X153536063Y-97459774D01*
X153680226Y-97603937D01*
X153849744Y-97717205D01*
X154038102Y-97795226D01*
X154238061Y-97835000D01*
X154441939Y-97835000D01*
X154641898Y-97795226D01*
X154830256Y-97717205D01*
X154999774Y-97603937D01*
X155143937Y-97459774D01*
X155257205Y-97290256D01*
X155335226Y-97101898D01*
X155375000Y-96901939D01*
X155375000Y-96698061D01*
X155335226Y-96498102D01*
X155257205Y-96309744D01*
X155143937Y-96140226D01*
X154999774Y-95996063D01*
X154830256Y-95882795D01*
X154641898Y-95804774D01*
X154441939Y-95765000D01*
X154238061Y-95765000D01*
X154038102Y-95804774D01*
X153849744Y-95882795D01*
X153680226Y-95996063D01*
X153536063Y-96140226D01*
X153422795Y-96309744D01*
X153344774Y-96498102D01*
X153305000Y-96698061D01*
X151625991Y-96698061D01*
X151665002Y-96501939D01*
X151665002Y-96298061D01*
X151625228Y-96098102D01*
X151547207Y-95909744D01*
X151433939Y-95740226D01*
X151289776Y-95596063D01*
X151120258Y-95482795D01*
X150931900Y-95404774D01*
X150731941Y-95365000D01*
X150528063Y-95365000D01*
X150328104Y-95404774D01*
X150139746Y-95482795D01*
X150125073Y-95492599D01*
X150110400Y-95482795D01*
X149922042Y-95404774D01*
X149722083Y-95365000D01*
X149518205Y-95365000D01*
X149318246Y-95404774D01*
X149129888Y-95482795D01*
X148960370Y-95596063D01*
X148816207Y-95740226D01*
X148702939Y-95909744D01*
X148624918Y-96098102D01*
X148585144Y-96298061D01*
X148585144Y-96501939D01*
X148624918Y-96701898D01*
X148702939Y-96890256D01*
X148816207Y-97059774D01*
X148960370Y-97203937D01*
X149129888Y-97317205D01*
X149318246Y-97395226D01*
X149518205Y-97435000D01*
X149556609Y-97435000D01*
X149711609Y-97590000D01*
X148137017Y-97590000D01*
X148087205Y-97469744D01*
X147973937Y-97300226D01*
X147829774Y-97156063D01*
X147660256Y-97042795D01*
X147471898Y-96964774D01*
X147271939Y-96925000D01*
X147068061Y-96925000D01*
X146868102Y-96964774D01*
X146679744Y-97042795D01*
X146510226Y-97156063D01*
X146366063Y-97300226D01*
X146252795Y-97469744D01*
X146174774Y-97658102D01*
X146135000Y-97858061D01*
X143834913Y-97858061D01*
X143885000Y-97606260D01*
X143885000Y-97313740D01*
X143827932Y-97026842D01*
X143715990Y-96756589D01*
X143712254Y-96750997D01*
X143858061Y-96780000D01*
X144061939Y-96780000D01*
X144261898Y-96740226D01*
X144450256Y-96662205D01*
X144619774Y-96548937D01*
X144763937Y-96404774D01*
X144877205Y-96235256D01*
X144955226Y-96046898D01*
X144995000Y-95846939D01*
X144995000Y-95643061D01*
X144955226Y-95443102D01*
X144877205Y-95254744D01*
X144763937Y-95085226D01*
X144619774Y-94941063D01*
X144450256Y-94827795D01*
X144261898Y-94749774D01*
X144061939Y-94710000D01*
X143872321Y-94710000D01*
X143827932Y-94486842D01*
X143715990Y-94216589D01*
X143553475Y-93973368D01*
X143346632Y-93766525D01*
X143172240Y-93650000D01*
X143346632Y-93533475D01*
X143553475Y-93326632D01*
X143715990Y-93083411D01*
X143827932Y-92813158D01*
X143885000Y-92526260D01*
X143885000Y-92340000D01*
X144061939Y-92340000D01*
X144261898Y-92300226D01*
X144450256Y-92222205D01*
X144548005Y-92156891D01*
X150438519Y-92156891D01*
X150535843Y-92431252D01*
X150684822Y-92681355D01*
X150879731Y-92897588D01*
X151113080Y-93071641D01*
X151375901Y-93196825D01*
X151523110Y-93241476D01*
X151753000Y-93120155D01*
X151753000Y-91927000D01*
X150559186Y-91927000D01*
X150438519Y-92156891D01*
X144548005Y-92156891D01*
X144619774Y-92108937D01*
X144763937Y-91964774D01*
X144877205Y-91795256D01*
X144955226Y-91606898D01*
X144995000Y-91406939D01*
X144995000Y-91203061D01*
X144955226Y-91003102D01*
X144877205Y-90814744D01*
X144773809Y-90660000D01*
X147992462Y-90660000D01*
X147965000Y-90798061D01*
%TA.AperFunction,Conductor*%
D22*
G36*
X147965000Y-90798061D02*
G01*
X147965000Y-91001939D01*
X148004774Y-91201898D01*
X148082795Y-91390256D01*
X148196063Y-91559774D01*
X148340226Y-91703937D01*
X148509744Y-91817205D01*
X148698102Y-91895226D01*
X148898061Y-91935000D01*
X149101939Y-91935000D01*
X149301898Y-91895226D01*
X149490256Y-91817205D01*
X149659774Y-91703937D01*
X149803937Y-91559774D01*
X149917205Y-91390256D01*
X149995226Y-91201898D01*
X150035000Y-91001939D01*
X150035000Y-90798061D01*
X150007538Y-90660000D01*
X150936592Y-90660000D01*
X150879731Y-90702412D01*
X150684822Y-90918645D01*
X150535843Y-91168748D01*
X150438519Y-91443109D01*
X150559186Y-91673000D01*
X151753000Y-91673000D01*
X151753000Y-91653000D01*
X152007000Y-91653000D01*
X152007000Y-91673000D01*
X152027000Y-91673000D01*
X152027000Y-91927000D01*
X152007000Y-91927000D01*
X152007000Y-93120155D01*
X152236890Y-93241476D01*
X152384099Y-93196825D01*
X152646920Y-93071641D01*
X152880269Y-92897588D01*
X153075178Y-92681355D01*
X153144805Y-92564466D01*
X153266525Y-92746632D01*
X153473368Y-92953475D01*
X153716589Y-93115990D01*
X153986842Y-93227932D01*
X154273740Y-93285000D01*
X154566260Y-93285000D01*
X154638960Y-93270539D01*
X155163470Y-93795049D01*
X155191183Y-93828817D01*
X155224951Y-93856530D01*
X155224953Y-93856532D01*
X155273122Y-93896063D01*
X155325941Y-93939411D01*
X155479687Y-94021589D01*
X155595903Y-94056843D01*
X155646509Y-94072195D01*
X155661306Y-94073652D01*
X155776523Y-94085000D01*
X155776531Y-94085000D01*
X155820000Y-94089281D01*
X155863469Y-94085000D01*
X156846715Y-94085000D01*
X156800226Y-94116063D01*
X156656063Y-94260226D01*
X156542795Y-94429744D01*
X156464774Y-94618102D01*
X156425000Y-94818061D01*
X156425000Y-95021939D01*
X156464774Y-95221898D01*
X156542795Y-95410256D01*
X156656063Y-95579774D01*
X156800226Y-95723937D01*
X156969744Y-95837205D01*
X157158102Y-95915226D01*
X157358061Y-95955000D01*
X157561939Y-95955000D01*
X157761898Y-95915226D01*
X157950256Y-95837205D01*
X158119774Y-95723937D01*
X158263937Y-95579774D01*
X158377205Y-95410256D01*
X158455226Y-95221898D01*
X158495000Y-95021939D01*
X158495000Y-94818061D01*
X158455226Y-94618102D01*
X158377205Y-94429744D01*
X158263937Y-94260226D01*
X158119774Y-94116063D01*
X158073285Y-94085000D01*
X161303550Y-94085000D01*
X161295000Y-94127986D01*
X161295000Y-94322014D01*
X161332853Y-94512314D01*
X161407104Y-94691572D01*
X161514901Y-94852901D01*
X161652099Y-94990099D01*
X161813428Y-95097896D01*
X161992686Y-95172147D01*
X162182986Y-95210000D01*
X162377014Y-95210000D01*
X162567314Y-95172147D01*
X162746572Y-95097896D01*
X162828638Y-95043061D01*
X165565000Y-95043061D01*
X165565000Y-95246939D01*
X165604774Y-95446898D01*
X165682795Y-95635256D01*
X165707681Y-95672500D01*
X165682795Y-95709744D01*
X165604774Y-95898102D01*
X165565000Y-96098061D01*
X165565000Y-96301939D01*
X165604774Y-96501898D01*
X165682795Y-96690256D01*
X165796063Y-96859774D01*
X165940226Y-97003937D01*
X166109744Y-97117205D01*
X166298102Y-97195226D01*
X166498061Y-97235000D01*
X166701939Y-97235000D01*
X166901898Y-97195226D01*
X167090256Y-97117205D01*
X167259774Y-97003937D01*
X167403937Y-96859774D01*
X167487411Y-96734846D01*
X167697501Y-96798577D01*
X167864248Y-96815000D01*
X168083096Y-96815000D01*
X168076892Y-96829978D01*
X168040000Y-97015448D01*
X168040000Y-97204552D01*
X168076892Y-97390022D01*
X168149259Y-97564731D01*
X168254319Y-97721964D01*
X168388036Y-97855681D01*
X168545269Y-97960741D01*
X168719978Y-98033108D01*
X168905448Y-98070000D01*
X169094552Y-98070000D01*
X169280022Y-98033108D01*
X169454731Y-97960741D01*
X169611964Y-97855681D01*
X169745681Y-97721964D01*
X169850741Y-97564731D01*
X169923108Y-97390022D01*
X169960000Y-97204552D01*
X169960000Y-97015448D01*
X169923108Y-96829978D01*
X169850741Y-96655269D01*
X169769285Y-96533362D01*
X169826449Y-96486449D01*
X169968284Y-96313623D01*
X170073676Y-96116447D01*
X170138577Y-95902499D01*
X170160491Y-95680000D01*
X170138577Y-95457501D01*
X170073676Y-95243553D01*
X169968284Y-95046377D01*
X169826449Y-94873551D01*
X169653623Y-94731716D01*
X169456447Y-94626324D01*
X169242499Y-94561423D01*
X169075752Y-94545000D01*
X167864248Y-94545000D01*
X167697501Y-94561423D01*
X167495744Y-94622626D01*
X167403937Y-94485226D01*
X167259774Y-94341063D01*
X167090256Y-94227795D01*
X166901898Y-94149774D01*
X166701939Y-94110000D01*
X166498061Y-94110000D01*
X166298102Y-94149774D01*
X166109744Y-94227795D01*
X165940226Y-94341063D01*
X165796063Y-94485226D01*
X165682795Y-94654744D01*
X165604774Y-94843102D01*
X165565000Y-95043061D01*
X162828638Y-95043061D01*
X162907901Y-94990099D01*
X163045099Y-94852901D01*
X163152896Y-94691572D01*
X163227147Y-94512314D01*
X163265000Y-94322014D01*
X163265000Y-94127986D01*
X163256450Y-94085000D01*
X170171546Y-94085000D01*
X170219744Y-94117205D01*
X170408102Y-94195226D01*
X170608061Y-94235000D01*
X170811939Y-94235000D01*
X171011898Y-94195226D01*
X171200256Y-94117205D01*
X171369774Y-94003937D01*
X171513937Y-93859774D01*
X171627205Y-93690256D01*
X171705226Y-93501898D01*
X171745000Y-93301939D01*
X171745000Y-93288072D01*
X173050000Y-93288072D01*
X173174482Y-93275812D01*
X173294180Y-93239502D01*
X173404494Y-93180537D01*
X173501185Y-93101185D01*
X173580537Y-93004494D01*
X173639502Y-92894180D01*
X173675812Y-92774482D01*
X173688072Y-92650000D01*
X173688072Y-91110001D01*
X173794299Y-91196637D01*
X174022806Y-91472856D01*
X174193310Y-91788197D01*
X174299319Y-92130656D01*
X174340000Y-92517712D01*
X174340000Y-93720557D01*
X174301898Y-93704774D01*
X174101939Y-93665000D01*
X173898061Y-93665000D01*
X173698102Y-93704774D01*
X173509744Y-93782795D01*
X173340226Y-93896063D01*
X173196063Y-94040226D01*
X173082795Y-94209744D01*
X173004774Y-94398102D01*
X172975554Y-94545000D01*
X172294248Y-94545000D01*
X172127501Y-94561423D01*
X171913553Y-94626324D01*
X171716377Y-94731716D01*
X171543551Y-94873551D01*
X171401716Y-95046377D01*
X171296324Y-95243553D01*
X171231423Y-95457501D01*
X171209509Y-95680000D01*
X171231423Y-95902499D01*
X171296324Y-96116447D01*
X171401716Y-96313623D01*
X171543551Y-96486449D01*
X171716377Y-96628284D01*
X171913553Y-96733676D01*
X172127501Y-96798577D01*
X172294248Y-96815000D01*
X173005752Y-96815000D01*
X173172499Y-96798577D01*
X173386447Y-96733676D01*
X173583623Y-96628284D01*
X173756449Y-96486449D01*
X173898284Y-96313623D01*
X174003676Y-96116447D01*
X174068577Y-95902499D01*
X174085074Y-95735000D01*
X174101939Y-95735000D01*
X174301898Y-95695226D01*
X174340000Y-95679443D01*
X174340000Y-99020557D01*
X174301898Y-99004774D01*
X174101939Y-98965000D01*
X173898061Y-98965000D01*
X173698102Y-99004774D01*
X173509744Y-99082795D01*
X173340226Y-99196063D01*
X173196063Y-99340226D01*
X173082795Y-99509744D01*
X173004774Y-99698102D01*
X172965000Y-99898061D01*
X172965000Y-100101939D01*
X173004774Y-100301898D01*
X173082795Y-100490256D01*
X173196063Y-100659774D01*
X173340226Y-100803937D01*
X173509744Y-100917205D01*
X173698102Y-100995226D01*
X173898061Y-101035000D01*
X174101939Y-101035000D01*
X174301898Y-100995226D01*
X174340001Y-100979443D01*
X174340001Y-104320557D01*
X174301898Y-104304774D01*
X174101939Y-104265000D01*
X174085074Y-104265000D01*
X174068577Y-104097501D01*
X174003676Y-103883553D01*
X173898284Y-103686377D01*
X173756449Y-103513551D01*
X173583623Y-103371716D01*
X173386447Y-103266324D01*
X173172499Y-103201423D01*
X173005752Y-103185000D01*
X172294248Y-103185000D01*
X172127501Y-103201423D01*
X171913553Y-103266324D01*
X171716377Y-103371716D01*
X171543551Y-103513551D01*
X171401716Y-103686377D01*
X171296324Y-103883553D01*
X171231423Y-104097501D01*
X171209509Y-104320000D01*
X171231423Y-104542499D01*
X171296324Y-104756447D01*
X171401716Y-104953623D01*
X171543551Y-105126449D01*
X171716377Y-105268284D01*
X171913553Y-105373676D01*
X172127501Y-105438577D01*
X172294248Y-105455000D01*
X172975554Y-105455000D01*
X173004774Y-105601898D01*
X173082795Y-105790256D01*
X173196063Y-105959774D01*
X173340226Y-106103937D01*
X173509744Y-106217205D01*
X173698102Y-106295226D01*
X173898061Y-106335000D01*
X174101939Y-106335000D01*
X174301898Y-106295226D01*
X174340001Y-106279443D01*
X174340001Y-107467711D01*
X174301853Y-107856776D01*
X174198238Y-108199964D01*
X174029939Y-108516489D01*
X173803365Y-108794296D01*
X173527146Y-109022805D01*
X173211803Y-109193310D01*
X172869344Y-109299319D01*
X172814483Y-109305085D01*
X172835000Y-109201939D01*
X172835000Y-108998061D01*
X172795226Y-108798102D01*
X172717205Y-108609744D01*
X172603937Y-108440226D01*
X172459774Y-108296063D01*
X172290256Y-108182795D01*
X172101898Y-108104774D01*
X171901939Y-108065000D01*
X171698061Y-108065000D01*
X171498102Y-108104774D01*
X171309744Y-108182795D01*
X171140226Y-108296063D01*
X170996063Y-108440226D01*
X170882795Y-108609744D01*
X170804774Y-108798102D01*
X170765000Y-108998061D01*
X170765000Y-109201939D01*
X170792462Y-109340000D01*
X164755615Y-109340000D01*
X164797205Y-109277756D01*
X164875226Y-109089398D01*
X164915000Y-108889439D01*
X164915000Y-108685561D01*
X164875226Y-108485602D01*
X164797205Y-108297244D01*
X164683937Y-108127726D01*
X164539774Y-107983563D01*
X164370256Y-107870295D01*
X164181898Y-107792274D01*
X163981939Y-107752500D01*
X163778061Y-107752500D01*
X163578102Y-107792274D01*
X163389744Y-107870295D01*
X163220226Y-107983563D01*
X163076063Y-108127726D01*
X162962795Y-108297244D01*
X162884774Y-108485602D01*
X162845000Y-108685561D01*
X162845000Y-108889439D01*
X162884774Y-109089398D01*
X162962795Y-109277756D01*
X163004385Y-109340000D01*
X161325615Y-109340000D01*
X161367205Y-109277756D01*
X161445226Y-109089398D01*
X161485000Y-108889439D01*
X161485000Y-108685561D01*
X161445226Y-108485602D01*
X161367205Y-108297244D01*
X161253937Y-108127726D01*
X161109774Y-107983563D01*
X160940256Y-107870295D01*
X160751898Y-107792274D01*
X160551939Y-107752500D01*
X160348061Y-107752500D01*
X160148102Y-107792274D01*
X159959744Y-107870295D01*
X159790226Y-107983563D01*
X159646063Y-108127726D01*
X159532795Y-108297244D01*
X159454774Y-108485602D01*
X159415000Y-108685561D01*
X159415000Y-108889439D01*
X159454774Y-109089398D01*
X159532795Y-109277756D01*
X159574385Y-109340000D01*
X157977538Y-109340000D01*
X158005000Y-109201939D01*
X158005000Y-108998061D01*
X157965226Y-108798102D01*
X157887205Y-108609744D01*
X157773937Y-108440226D01*
X157629774Y-108296063D01*
X157460256Y-108182795D01*
X157271898Y-108104774D01*
X157071939Y-108065000D01*
X156868061Y-108065000D01*
X156668102Y-108104774D01*
X156479744Y-108182795D01*
X156310226Y-108296063D01*
X156166063Y-108440226D01*
X156052795Y-108609744D01*
X155974774Y-108798102D01*
X155935000Y-108998061D01*
X155935000Y-109201939D01*
X155962462Y-109340000D01*
X155007538Y-109340000D01*
X155035000Y-109201939D01*
X155035000Y-108998061D01*
X154995226Y-108798102D01*
X154917205Y-108609744D01*
X154803937Y-108440226D01*
X154659774Y-108296063D01*
X154490256Y-108182795D01*
X154301898Y-108104774D01*
X154101939Y-108065000D01*
X153898061Y-108065000D01*
X153698102Y-108104774D01*
X153509744Y-108182795D01*
X153340226Y-108296063D01*
X153196063Y-108440226D01*
X153082795Y-108609744D01*
X153004774Y-108798102D01*
X152965000Y-108998061D01*
X152965000Y-109201939D01*
X152992462Y-109340000D01*
X152007538Y-109340000D01*
X152035000Y-109201939D01*
X152035000Y-108998061D01*
X151995226Y-108798102D01*
X151917205Y-108609744D01*
X151803937Y-108440226D01*
X151659774Y-108296063D01*
X151490256Y-108182795D01*
X151301898Y-108104774D01*
X151101939Y-108065000D01*
X150898061Y-108065000D01*
X150698102Y-108104774D01*
X150509744Y-108182795D01*
X150340226Y-108296063D01*
X150196063Y-108440226D01*
X150082795Y-108609744D01*
X150004774Y-108798102D01*
X149965000Y-108998061D01*
X149965000Y-109201939D01*
X149992462Y-109340000D01*
X149007538Y-109340000D01*
X149035000Y-109201939D01*
X149035000Y-108998061D01*
X148995226Y-108798102D01*
X148917205Y-108609744D01*
X148803937Y-108440226D01*
X148659774Y-108296063D01*
X148490256Y-108182795D01*
X148301898Y-108104774D01*
X148101939Y-108065000D01*
X147898061Y-108065000D01*
X147698102Y-108104774D01*
X147509744Y-108182795D01*
X147340226Y-108296063D01*
X147196063Y-108440226D01*
X147082795Y-108609744D01*
X147004774Y-108798102D01*
X146965000Y-108998061D01*
X146965000Y-109201939D01*
X146992462Y-109340000D01*
X146007538Y-109340000D01*
X146035000Y-109201939D01*
X146035000Y-108998061D01*
X145995226Y-108798102D01*
X145917205Y-108609744D01*
X145803937Y-108440226D01*
X145659774Y-108296063D01*
X145490256Y-108182795D01*
X145301898Y-108104774D01*
X145101939Y-108065000D01*
X144898061Y-108065000D01*
X144698102Y-108104774D01*
X144509744Y-108182795D01*
X144340226Y-108296063D01*
X144196063Y-108440226D01*
X144082795Y-108609744D01*
X144004774Y-108798102D01*
X143965000Y-108998061D01*
X143965000Y-109201939D01*
X143992462Y-109340000D01*
X143127000Y-109340000D01*
X143127000Y-109108072D01*
X143250000Y-109108072D01*
X143374482Y-109095812D01*
X143494180Y-109059502D01*
X143604494Y-109000537D01*
X143701185Y-108921185D01*
X143780537Y-108824494D01*
X143839502Y-108714180D01*
X143875812Y-108594482D01*
X143888072Y-108470000D01*
X143888072Y-106770000D01*
X143875812Y-106645518D01*
X143858383Y-106588061D01*
X153305000Y-106588061D01*
X153305000Y-106791939D01*
X153344774Y-106991898D01*
X153422795Y-107180256D01*
X153536063Y-107349774D01*
X153680226Y-107493937D01*
X153849744Y-107607205D01*
X154038102Y-107685226D01*
X154238061Y-107725000D01*
X154441939Y-107725000D01*
X154641898Y-107685226D01*
X154830256Y-107607205D01*
X154999774Y-107493937D01*
X155143937Y-107349774D01*
X155257205Y-107180256D01*
X155335226Y-106991898D01*
X155375000Y-106791939D01*
X155375000Y-106588061D01*
X155335226Y-106388102D01*
X155257205Y-106199744D01*
X155256081Y-106198061D01*
X164165000Y-106198061D01*
X164165000Y-106401939D01*
X164204774Y-106601898D01*
X164282795Y-106790256D01*
X164396063Y-106959774D01*
X164540226Y-107103937D01*
X164709744Y-107217205D01*
X164898102Y-107295226D01*
X165098061Y-107335000D01*
X165301939Y-107335000D01*
X165501898Y-107295226D01*
X165690256Y-107217205D01*
X165859774Y-107103937D01*
X166003937Y-106959774D01*
X166117205Y-106790256D01*
X166195226Y-106601898D01*
X166235000Y-106401939D01*
X166235000Y-106198061D01*
X166195226Y-105998102D01*
X166117205Y-105809744D01*
X166053686Y-105714681D01*
X166121586Y-105760050D01*
X166305394Y-105836186D01*
X166500524Y-105875000D01*
X166699476Y-105875000D01*
X166894606Y-105836186D01*
X167078414Y-105760050D01*
X167243837Y-105649518D01*
X167384518Y-105508837D01*
X167477125Y-105370240D01*
X167483553Y-105373676D01*
X167697501Y-105438577D01*
X167864248Y-105455000D01*
X168301681Y-105455000D01*
X168240226Y-105496063D01*
X168096063Y-105640226D01*
X167982795Y-105809744D01*
X167904774Y-105998102D01*
X167865000Y-106198061D01*
X167865000Y-106401939D01*
X167904774Y-106601898D01*
X167982795Y-106790256D01*
X168096063Y-106959774D01*
X168240226Y-107103937D01*
X168409744Y-107217205D01*
X168598102Y-107295226D01*
X168798061Y-107335000D01*
X169001939Y-107335000D01*
X169201898Y-107295226D01*
X169390256Y-107217205D01*
X169559774Y-107103937D01*
X169703937Y-106959774D01*
X169817205Y-106790256D01*
X169895226Y-106601898D01*
X169935000Y-106401939D01*
X169935000Y-106198061D01*
X169895226Y-105998102D01*
X169817205Y-105809744D01*
X169703937Y-105640226D01*
X169559774Y-105496063D01*
X169401537Y-105390333D01*
X169456447Y-105373676D01*
X169653623Y-105268284D01*
X169826449Y-105126449D01*
X169968284Y-104953623D01*
X170073676Y-104756447D01*
X170138577Y-104542499D01*
X170160491Y-104320000D01*
X170138577Y-104097501D01*
X170073676Y-103883553D01*
X169968284Y-103686377D01*
X169826449Y-103513551D01*
X169769285Y-103466638D01*
X169850741Y-103344731D01*
X169923108Y-103170022D01*
X169960000Y-102984552D01*
X169960000Y-102795448D01*
X169923108Y-102609978D01*
X169850741Y-102435269D01*
X169745681Y-102278036D01*
X169611964Y-102144319D01*
X169454731Y-102039259D01*
X169280022Y-101966892D01*
X169094552Y-101930000D01*
X168905448Y-101930000D01*
X168719978Y-101966892D01*
X168545269Y-102039259D01*
X168388036Y-102144319D01*
X168254319Y-102278036D01*
X168149259Y-102435269D01*
X168076892Y-102609978D01*
X168040000Y-102795448D01*
X168040000Y-102984552D01*
X168076892Y-103170022D01*
X168083096Y-103185000D01*
X167864248Y-103185000D01*
X167697501Y-103201423D01*
X167487411Y-103265154D01*
X167403937Y-103140226D01*
X167259774Y-102996063D01*
X167090256Y-102882795D01*
X166901898Y-102804774D01*
X166701939Y-102765000D01*
X166498061Y-102765000D01*
X166298102Y-102804774D01*
X166109744Y-102882795D01*
X165940226Y-102996063D01*
X165796063Y-103140226D01*
X165682795Y-103309744D01*
X165604774Y-103498102D01*
X165565000Y-103698061D01*
X165565000Y-103901939D01*
X165604774Y-104101898D01*
X165682795Y-104290256D01*
X165726055Y-104355000D01*
X165704950Y-104386586D01*
X165628814Y-104570394D01*
X165590000Y-104765524D01*
X165590000Y-104964476D01*
X165628814Y-105159606D01*
X165704950Y-105343414D01*
X165764338Y-105432295D01*
X165690256Y-105382795D01*
X165501898Y-105304774D01*
X165301939Y-105265000D01*
X165098061Y-105265000D01*
X164898102Y-105304774D01*
X164709744Y-105382795D01*
X164540226Y-105496063D01*
X164396063Y-105640226D01*
X164282795Y-105809744D01*
X164204774Y-105998102D01*
X164165000Y-106198061D01*
X155256081Y-106198061D01*
X155143937Y-106030226D01*
X154999774Y-105886063D01*
X154830256Y-105772795D01*
X154641898Y-105694774D01*
X154441939Y-105655000D01*
X154238061Y-105655000D01*
X154038102Y-105694774D01*
X153849744Y-105772795D01*
X153680226Y-105886063D01*
X153536063Y-106030226D01*
X153422795Y-106199744D01*
X153344774Y-106388102D01*
X153305000Y-106588061D01*
X143858383Y-106588061D01*
X143839502Y-106525820D01*
X143780537Y-106415506D01*
X143701185Y-106318815D01*
X143604494Y-106239463D01*
X143494180Y-106180498D01*
X143421620Y-106158487D01*
X143553475Y-106026632D01*
X143715990Y-105783411D01*
X143827932Y-105513158D01*
X143885000Y-105226260D01*
X143885000Y-104933740D01*
X143877903Y-104898061D01*
X149065000Y-104898061D01*
X149065000Y-105101939D01*
X149104774Y-105301898D01*
X149182795Y-105490256D01*
X149296063Y-105659774D01*
X149440226Y-105803937D01*
X149609744Y-105917205D01*
X149798102Y-105995226D01*
X149998061Y-106035000D01*
X150201939Y-106035000D01*
X150401898Y-105995226D01*
X150590256Y-105917205D01*
X150759774Y-105803937D01*
X150903937Y-105659774D01*
X151017205Y-105490256D01*
X151095226Y-105301898D01*
X151135000Y-105101939D01*
X151135000Y-104898061D01*
X151095226Y-104698102D01*
X151017205Y-104509744D01*
X150903937Y-104340226D01*
X150759774Y-104196063D01*
X150590256Y-104082795D01*
X150401898Y-104004774D01*
X150201939Y-103965000D01*
X149998061Y-103965000D01*
X149798102Y-104004774D01*
X149609744Y-104082795D01*
X149440226Y-104196063D01*
X149296063Y-104340226D01*
X149182795Y-104509744D01*
X149104774Y-104698102D01*
X149065000Y-104898061D01*
X143877903Y-104898061D01*
X143827932Y-104646842D01*
X143715990Y-104376589D01*
X143553475Y-104133368D01*
X143346632Y-103926525D01*
X143172240Y-103810000D01*
X143346632Y-103693475D01*
X143553475Y-103486632D01*
X143715990Y-103243411D01*
X143827932Y-102973158D01*
X143885000Y-102686260D01*
X143885000Y-102393740D01*
X143827932Y-102106842D01*
X143715990Y-101836589D01*
X143553475Y-101593368D01*
X143346632Y-101386525D01*
X143172240Y-101270000D01*
X143346632Y-101153475D01*
X143553475Y-100946632D01*
X143715990Y-100703411D01*
X143827932Y-100433158D01*
X143885000Y-100146260D01*
X143885000Y-100014515D01*
X143957795Y-100190256D01*
X144071063Y-100359774D01*
X144215226Y-100503937D01*
X144384744Y-100617205D01*
X144573102Y-100695226D01*
X144773061Y-100735000D01*
X144976939Y-100735000D01*
X145176898Y-100695226D01*
X145365256Y-100617205D01*
X145534774Y-100503937D01*
X145678937Y-100359774D01*
X145792205Y-100190256D01*
X145870226Y-100001898D01*
X145910000Y-99801939D01*
X145910000Y-99598061D01*
X145870226Y-99398102D01*
X145792205Y-99209744D01*
X145678937Y-99040226D01*
X145534774Y-98896063D01*
X145365256Y-98782795D01*
X145176898Y-98704774D01*
X144976939Y-98665000D01*
X144773061Y-98665000D01*
X144573102Y-98704774D01*
X144384744Y-98782795D01*
X144215226Y-98896063D01*
X144071063Y-99040226D01*
X143957795Y-99209744D01*
X143879774Y-99398102D01*
X143840000Y-99598061D01*
X143840000Y-99627511D01*
X143827932Y-99566842D01*
X143715990Y-99296589D01*
X143553475Y-99053368D01*
X143346632Y-98846525D01*
X143172240Y-98730000D01*
X143346632Y-98613475D01*
X143553475Y-98406632D01*
X143715990Y-98163411D01*
X143827932Y-97893158D01*
X143834913Y-97858061D01*
X146135000Y-97858061D01*
X146135000Y-98061939D01*
X146174774Y-98261898D01*
X146252795Y-98450256D01*
X146366063Y-98619774D01*
X146510226Y-98763937D01*
X146679744Y-98877205D01*
X146868102Y-98955226D01*
X147068061Y-98995000D01*
X147154481Y-98995000D01*
X147267753Y-99055546D01*
X147411014Y-99099003D01*
X147522667Y-99110000D01*
X147522676Y-99110000D01*
X147559999Y-99113676D01*
X147597322Y-99110000D01*
X150595199Y-99110000D01*
X152318509Y-100833310D01*
X152210602Y-100854774D01*
X152022244Y-100932795D01*
X151852726Y-101046063D01*
X151708563Y-101190226D01*
X151595295Y-101359744D01*
X151517274Y-101548102D01*
X151477500Y-101748061D01*
X151477500Y-101951939D01*
X151517274Y-102151898D01*
X151595295Y-102340256D01*
X151708563Y-102509774D01*
X151852726Y-102653937D01*
X152022244Y-102767205D01*
X152210602Y-102845226D01*
X152410561Y-102885000D01*
X152415476Y-102885000D01*
X152415476Y-102955152D01*
X152455250Y-103155111D01*
X152533271Y-103343469D01*
X152646539Y-103512987D01*
X152790702Y-103657150D01*
X152960220Y-103770418D01*
X153148578Y-103848439D01*
X153348537Y-103888213D01*
X153552415Y-103888213D01*
X153752374Y-103848439D01*
X153940732Y-103770418D01*
X154110250Y-103657150D01*
X154254413Y-103512987D01*
X154367681Y-103343469D01*
X154445702Y-103155111D01*
X154485476Y-102955152D01*
X154485476Y-102751274D01*
X154474048Y-102693820D01*
X154598102Y-102745205D01*
X154798061Y-102784979D01*
X155001939Y-102784979D01*
X155201898Y-102745205D01*
X155390256Y-102667184D01*
X155559774Y-102553916D01*
X155703937Y-102409753D01*
X155817205Y-102240235D01*
X155895226Y-102051877D01*
X155935000Y-101851918D01*
X155935000Y-101848061D01*
X159885000Y-101848061D01*
X159885000Y-102051939D01*
X159924774Y-102251898D01*
X160002795Y-102440256D01*
X160116063Y-102609774D01*
X160260226Y-102753937D01*
X160429744Y-102867205D01*
X160618102Y-102945226D01*
X160818061Y-102985000D01*
X161021939Y-102985000D01*
X161221898Y-102945226D01*
X161410256Y-102867205D01*
X161579774Y-102753937D01*
X161723937Y-102609774D01*
X161837205Y-102440256D01*
X161915226Y-102251898D01*
X161955000Y-102051939D01*
X161955000Y-101848061D01*
X161915226Y-101648102D01*
X161837205Y-101459744D01*
X161723937Y-101290226D01*
X161579774Y-101146063D01*
X161410256Y-101032795D01*
X161221898Y-100954774D01*
X161021939Y-100915000D01*
X160818061Y-100915000D01*
X160618102Y-100954774D01*
X160429744Y-101032795D01*
X160260226Y-101146063D01*
X160116063Y-101290226D01*
X160002795Y-101459744D01*
X159924774Y-101648102D01*
X159885000Y-101848061D01*
X155935000Y-101848061D01*
X155935000Y-101648040D01*
X155895226Y-101448081D01*
X155817205Y-101259723D01*
X155703937Y-101090205D01*
X155559774Y-100946042D01*
X155390256Y-100832774D01*
X155201898Y-100754753D01*
X155001939Y-100714979D01*
X154798061Y-100714979D01*
X154763632Y-100721827D01*
X154717205Y-100609744D01*
X154677285Y-100550000D01*
X154717205Y-100490256D01*
X154795226Y-100301898D01*
X154810238Y-100226426D01*
X162862152Y-100226426D01*
X162862152Y-100430304D01*
X162901926Y-100630263D01*
X162979947Y-100818621D01*
X163093215Y-100988139D01*
X163237378Y-101132302D01*
X163406896Y-101245570D01*
X163595254Y-101323591D01*
X163795213Y-101363365D01*
X163913427Y-101363365D01*
X163913427Y-101490645D01*
X163953201Y-101690604D01*
X164031222Y-101878962D01*
X164144490Y-102048480D01*
X164288653Y-102192643D01*
X164458171Y-102305911D01*
X164646529Y-102383932D01*
X164846488Y-102423706D01*
X165050366Y-102423706D01*
X165250325Y-102383932D01*
X165438683Y-102305911D01*
X165608201Y-102192643D01*
X165752364Y-102048480D01*
X165865632Y-101878962D01*
X165943653Y-101690604D01*
X165983427Y-101490645D01*
X165983427Y-101286767D01*
X165943653Y-101086808D01*
X165865632Y-100898450D01*
X165752364Y-100728932D01*
X165608201Y-100584769D01*
X165438683Y-100471501D01*
X165250325Y-100393480D01*
X165050366Y-100353706D01*
X164932152Y-100353706D01*
X164932152Y-100226426D01*
X164892378Y-100026467D01*
X164814357Y-99838109D01*
X164701089Y-99668591D01*
X164556926Y-99524428D01*
X164513432Y-99495366D01*
X164701437Y-99573241D01*
X164901396Y-99613015D01*
X165105274Y-99613015D01*
X165305233Y-99573241D01*
X165493591Y-99495220D01*
X165663109Y-99381952D01*
X165807272Y-99237789D01*
X165920540Y-99068271D01*
X165998561Y-98879913D01*
X166038335Y-98679954D01*
X166038335Y-98476076D01*
X165998561Y-98276117D01*
X165920540Y-98087759D01*
X165807272Y-97918241D01*
X165663109Y-97774078D01*
X165493591Y-97660810D01*
X165305233Y-97582789D01*
X165105274Y-97543015D01*
X164901396Y-97543015D01*
X164701437Y-97582789D01*
X164513079Y-97660810D01*
X164343561Y-97774078D01*
X164199398Y-97918241D01*
X164086130Y-98087759D01*
X164008109Y-98276117D01*
X163968335Y-98476076D01*
X163968335Y-98679954D01*
X164008109Y-98879913D01*
X164086130Y-99068271D01*
X164199398Y-99237789D01*
X164343561Y-99381952D01*
X164387055Y-99411014D01*
X164199050Y-99333139D01*
X163999091Y-99293365D01*
X163795213Y-99293365D01*
X163595254Y-99333139D01*
X163406896Y-99411160D01*
X163237378Y-99524428D01*
X163093215Y-99668591D01*
X162979947Y-99838109D01*
X162901926Y-100026467D01*
X162862152Y-100226426D01*
X154810238Y-100226426D01*
X154835000Y-100101939D01*
X154835000Y-99898061D01*
X154795226Y-99698102D01*
X154717205Y-99509744D01*
X154603937Y-99340226D01*
X154459774Y-99196063D01*
X154290256Y-99082795D01*
X154101898Y-99004774D01*
X153901939Y-98965000D01*
X153698061Y-98965000D01*
X153498102Y-99004774D01*
X153341043Y-99069831D01*
X153150019Y-98878807D01*
X153172274Y-98863937D01*
X153316437Y-98719774D01*
X153429705Y-98550256D01*
X153507726Y-98361898D01*
X153547500Y-98161939D01*
X153547500Y-97958061D01*
X153507726Y-97758102D01*
X153429705Y-97569744D01*
X153316437Y-97400226D01*
X153172274Y-97256063D01*
X153002756Y-97142795D01*
X152814398Y-97064774D01*
X152614439Y-97025000D01*
X152410561Y-97025000D01*
X152210602Y-97064774D01*
X152022244Y-97142795D01*
X151852726Y-97256063D01*
X151708563Y-97400226D01*
X151693693Y-97422481D01*
X151382462Y-97111251D01*
X151433939Y-97059774D01*
X151547207Y-96890256D01*
X151625228Y-96701898D01*
X151625991Y-96698061D01*
X153305000Y-96698061D01*
X153305000Y-96901939D01*
X153344774Y-97101898D01*
X153422795Y-97290256D01*
X153536063Y-97459774D01*
X153680226Y-97603937D01*
X153849744Y-97717205D01*
X154038102Y-97795226D01*
X154238061Y-97835000D01*
X154441939Y-97835000D01*
X154641898Y-97795226D01*
X154830256Y-97717205D01*
X154999774Y-97603937D01*
X155143937Y-97459774D01*
X155257205Y-97290256D01*
X155335226Y-97101898D01*
X155375000Y-96901939D01*
X155375000Y-96698061D01*
X155335226Y-96498102D01*
X155257205Y-96309744D01*
X155143937Y-96140226D01*
X154999774Y-95996063D01*
X154830256Y-95882795D01*
X154641898Y-95804774D01*
X154441939Y-95765000D01*
X154238061Y-95765000D01*
X154038102Y-95804774D01*
X153849744Y-95882795D01*
X153680226Y-95996063D01*
X153536063Y-96140226D01*
X153422795Y-96309744D01*
X153344774Y-96498102D01*
X153305000Y-96698061D01*
X151625991Y-96698061D01*
X151665002Y-96501939D01*
X151665002Y-96298061D01*
X151625228Y-96098102D01*
X151547207Y-95909744D01*
X151433939Y-95740226D01*
X151289776Y-95596063D01*
X151120258Y-95482795D01*
X150931900Y-95404774D01*
X150731941Y-95365000D01*
X150528063Y-95365000D01*
X150328104Y-95404774D01*
X150139746Y-95482795D01*
X150125073Y-95492599D01*
X150110400Y-95482795D01*
X149922042Y-95404774D01*
X149722083Y-95365000D01*
X149518205Y-95365000D01*
X149318246Y-95404774D01*
X149129888Y-95482795D01*
X148960370Y-95596063D01*
X148816207Y-95740226D01*
X148702939Y-95909744D01*
X148624918Y-96098102D01*
X148585144Y-96298061D01*
X148585144Y-96501939D01*
X148624918Y-96701898D01*
X148702939Y-96890256D01*
X148816207Y-97059774D01*
X148960370Y-97203937D01*
X149129888Y-97317205D01*
X149318246Y-97395226D01*
X149518205Y-97435000D01*
X149556609Y-97435000D01*
X149711609Y-97590000D01*
X148137017Y-97590000D01*
X148087205Y-97469744D01*
X147973937Y-97300226D01*
X147829774Y-97156063D01*
X147660256Y-97042795D01*
X147471898Y-96964774D01*
X147271939Y-96925000D01*
X147068061Y-96925000D01*
X146868102Y-96964774D01*
X146679744Y-97042795D01*
X146510226Y-97156063D01*
X146366063Y-97300226D01*
X146252795Y-97469744D01*
X146174774Y-97658102D01*
X146135000Y-97858061D01*
X143834913Y-97858061D01*
X143885000Y-97606260D01*
X143885000Y-97313740D01*
X143827932Y-97026842D01*
X143715990Y-96756589D01*
X143712254Y-96750997D01*
X143858061Y-96780000D01*
X144061939Y-96780000D01*
X144261898Y-96740226D01*
X144450256Y-96662205D01*
X144619774Y-96548937D01*
X144763937Y-96404774D01*
X144877205Y-96235256D01*
X144955226Y-96046898D01*
X144995000Y-95846939D01*
X144995000Y-95643061D01*
X144955226Y-95443102D01*
X144877205Y-95254744D01*
X144763937Y-95085226D01*
X144619774Y-94941063D01*
X144450256Y-94827795D01*
X144261898Y-94749774D01*
X144061939Y-94710000D01*
X143872321Y-94710000D01*
X143827932Y-94486842D01*
X143715990Y-94216589D01*
X143553475Y-93973368D01*
X143346632Y-93766525D01*
X143172240Y-93650000D01*
X143346632Y-93533475D01*
X143553475Y-93326632D01*
X143715990Y-93083411D01*
X143827932Y-92813158D01*
X143885000Y-92526260D01*
X143885000Y-92340000D01*
X144061939Y-92340000D01*
X144261898Y-92300226D01*
X144450256Y-92222205D01*
X144548005Y-92156891D01*
X150438519Y-92156891D01*
X150535843Y-92431252D01*
X150684822Y-92681355D01*
X150879731Y-92897588D01*
X151113080Y-93071641D01*
X151375901Y-93196825D01*
X151523110Y-93241476D01*
X151753000Y-93120155D01*
X151753000Y-91927000D01*
X150559186Y-91927000D01*
X150438519Y-92156891D01*
X144548005Y-92156891D01*
X144619774Y-92108937D01*
X144763937Y-91964774D01*
X144877205Y-91795256D01*
X144955226Y-91606898D01*
X144995000Y-91406939D01*
X144995000Y-91203061D01*
X144955226Y-91003102D01*
X144877205Y-90814744D01*
X144773809Y-90660000D01*
X147992462Y-90660000D01*
X147965000Y-90798061D01*
G37*
%TD.AperFunction*%
%TD*%
D21*
%TO.N,GND*%
X138636928Y-91500000D02*
X138649188Y-91624482D01*
X138656929Y-91650000D01*
X138649188Y-91675518D01*
X138636928Y-91800000D01*
X138636928Y-92800000D01*
X138649188Y-92924482D01*
X138685498Y-93044180D01*
X138744463Y-93154494D01*
X138823815Y-93251185D01*
X138920506Y-93330537D01*
X139030820Y-93389502D01*
X139150518Y-93425812D01*
X139275000Y-93438072D01*
X140275000Y-93438072D01*
X140399482Y-93425812D01*
X140519180Y-93389502D01*
X140629494Y-93330537D01*
X140726185Y-93251185D01*
X140805537Y-93154494D01*
X140864502Y-93044180D01*
X140900812Y-92924482D01*
X140913072Y-92800000D01*
X140913072Y-91800000D01*
X140900812Y-91675518D01*
X140893071Y-91650000D01*
X140900812Y-91624482D01*
X140913072Y-91500000D01*
X140913072Y-90660000D01*
X142123000Y-90660000D01*
X142123000Y-90921006D01*
X141966842Y-90952068D01*
X141696589Y-91064010D01*
X141453368Y-91226525D01*
X141246525Y-91433368D01*
X141084010Y-91676589D01*
X140972068Y-91946842D01*
X140915000Y-92233740D01*
X140915000Y-92526260D01*
X140972068Y-92813158D01*
X141084010Y-93083411D01*
X141246525Y-93326632D01*
X141453368Y-93533475D01*
X141627760Y-93650000D01*
X141453368Y-93766525D01*
X141246525Y-93973368D01*
X141084010Y-94216589D01*
X140972068Y-94486842D01*
X140915000Y-94773740D01*
X140915000Y-95066260D01*
X140972068Y-95353158D01*
X141084010Y-95623411D01*
X141246525Y-95866632D01*
X141453368Y-96073475D01*
X141627760Y-96190000D01*
X141453368Y-96306525D01*
X141246525Y-96513368D01*
X141084010Y-96756589D01*
X140972068Y-97026842D01*
X140915000Y-97313740D01*
X140915000Y-97606260D01*
X140972068Y-97893158D01*
X141084010Y-98163411D01*
X141246525Y-98406632D01*
X141453368Y-98613475D01*
X141635534Y-98735195D01*
X141518645Y-98804822D01*
X141302412Y-98999731D01*
X141128359Y-99233080D01*
X141003175Y-99495901D01*
X140958524Y-99643110D01*
X141079845Y-99873000D01*
X142123000Y-99873000D01*
X142123000Y-100127000D01*
X141079845Y-100127000D01*
X140958524Y-100356890D01*
X141003175Y-100504099D01*
X141128359Y-100766920D01*
X141302412Y-101000269D01*
X141518645Y-101195178D01*
X141635534Y-101264805D01*
X141453368Y-101386525D01*
X141246525Y-101593368D01*
X141084010Y-101836589D01*
X140972068Y-102106842D01*
X140915000Y-102393740D01*
X140915000Y-102686260D01*
X140972068Y-102973158D01*
X141084010Y-103243411D01*
X141246525Y-103486632D01*
X141453368Y-103693475D01*
X141627760Y-103810000D01*
X141453368Y-103926525D01*
X141246525Y-104133368D01*
X141084010Y-104376589D01*
X140972068Y-104646842D01*
X140915000Y-104933740D01*
X140915000Y-105226260D01*
X140972068Y-105513158D01*
X141084010Y-105783411D01*
X141246525Y-106026632D01*
X141378380Y-106158487D01*
X141305820Y-106180498D01*
X141195506Y-106239463D01*
X141098815Y-106318815D01*
X141019463Y-106415506D01*
X140960498Y-106525820D01*
X140924188Y-106645518D01*
X140911928Y-106770000D01*
X140911928Y-107188384D01*
X140900812Y-107075518D01*
X140864502Y-106955820D01*
X140805537Y-106845506D01*
X140726185Y-106748815D01*
X140629494Y-106669463D01*
X140519180Y-106610498D01*
X140399482Y-106574188D01*
X140275000Y-106561928D01*
X139275000Y-106561928D01*
X139150518Y-106574188D01*
X139030820Y-106610498D01*
X138920506Y-106669463D01*
X138823815Y-106748815D01*
X138744463Y-106845506D01*
X138685498Y-106955820D01*
X138649188Y-107075518D01*
X138636928Y-107200000D01*
X138636928Y-108200000D01*
X138649188Y-108324482D01*
X138656929Y-108350000D01*
X138649188Y-108375518D01*
X138636928Y-108500000D01*
X138636928Y-109340000D01*
X127363072Y-109340000D01*
X127363072Y-108500000D01*
X127350812Y-108375518D01*
X127343071Y-108350000D01*
X127350812Y-108324482D01*
X127363072Y-108200000D01*
X127363072Y-107200000D01*
X127350812Y-107075518D01*
X127314502Y-106955820D01*
X127255537Y-106845506D01*
X127176185Y-106748815D01*
X127138345Y-106717760D01*
X129165000Y-106717760D01*
X129165000Y-106882240D01*
X129197089Y-107043560D01*
X129260033Y-107195521D01*
X129351413Y-107332281D01*
X129467719Y-107448587D01*
X129604479Y-107539967D01*
X129756440Y-107602911D01*
X129917760Y-107635000D01*
X130082240Y-107635000D01*
X130243560Y-107602911D01*
X130395521Y-107539967D01*
X130500000Y-107470156D01*
X130604479Y-107539967D01*
X130756440Y-107602911D01*
X130917760Y-107635000D01*
X131082240Y-107635000D01*
X131243560Y-107602911D01*
X131395521Y-107539967D01*
X131532281Y-107448587D01*
X131648587Y-107332281D01*
X131739967Y-107195521D01*
X131802911Y-107043560D01*
X131835000Y-106882240D01*
X131835000Y-106717760D01*
X132165000Y-106717760D01*
X132165000Y-106882240D01*
X132197089Y-107043560D01*
X132260033Y-107195521D01*
X132351413Y-107332281D01*
X132467719Y-107448587D01*
X132604479Y-107539967D01*
X132756440Y-107602911D01*
X132917760Y-107635000D01*
X133082240Y-107635000D01*
X133243560Y-107602911D01*
X133395521Y-107539967D01*
X133500000Y-107470156D01*
X133604479Y-107539967D01*
X133756440Y-107602911D01*
X133917760Y-107635000D01*
X134082240Y-107635000D01*
X134243560Y-107602911D01*
X134395521Y-107539967D01*
X134500000Y-107470156D01*
X134604479Y-107539967D01*
X134756440Y-107602911D01*
X134917760Y-107635000D01*
X135082240Y-107635000D01*
X135243560Y-107602911D01*
X135395521Y-107539967D01*
X135500000Y-107470156D01*
X135604479Y-107539967D01*
X135756440Y-107602911D01*
X135917760Y-107635000D01*
X136082240Y-107635000D01*
X136243560Y-107602911D01*
X136395521Y-107539967D01*
X136500000Y-107470156D01*
X136604479Y-107539967D01*
X136756440Y-107602911D01*
X136917760Y-107635000D01*
X137082240Y-107635000D01*
X137243560Y-107602911D01*
X137395521Y-107539967D01*
X137532281Y-107448587D01*
X137648587Y-107332281D01*
X137739967Y-107195521D01*
X137785528Y-107085528D01*
X137895521Y-107039967D01*
X138032281Y-106948587D01*
X138148587Y-106832281D01*
X138239967Y-106695521D01*
X138302911Y-106543560D01*
X138335000Y-106382240D01*
X138335000Y-106217760D01*
X138302911Y-106056440D01*
X138239967Y-105904479D01*
X138148587Y-105767719D01*
X138032281Y-105651413D01*
X137895521Y-105560033D01*
X137743560Y-105497089D01*
X137582240Y-105465000D01*
X137417760Y-105465000D01*
X137256440Y-105497089D01*
X137104479Y-105560033D01*
X136967719Y-105651413D01*
X136851413Y-105767719D01*
X136760033Y-105904479D01*
X136714472Y-106014472D01*
X136604479Y-106060033D01*
X136500000Y-106129844D01*
X136395521Y-106060033D01*
X136285528Y-106014472D01*
X136239967Y-105904479D01*
X136148587Y-105767719D01*
X136032281Y-105651413D01*
X135895521Y-105560033D01*
X135743560Y-105497089D01*
X135582240Y-105465000D01*
X135417760Y-105465000D01*
X135256440Y-105497089D01*
X135104479Y-105560033D01*
X135000000Y-105629844D01*
X134895521Y-105560033D01*
X134743560Y-105497089D01*
X134582240Y-105465000D01*
X134417760Y-105465000D01*
X134256440Y-105497089D01*
X134104479Y-105560033D01*
X133967719Y-105651413D01*
X133851413Y-105767719D01*
X133760033Y-105904479D01*
X133714472Y-106014472D01*
X133604479Y-106060033D01*
X133500000Y-106129844D01*
X133395521Y-106060033D01*
X133243560Y-105997089D01*
X133082240Y-105965000D01*
X132917760Y-105965000D01*
X132756440Y-105997089D01*
X132604479Y-106060033D01*
X132467719Y-106151413D01*
X132351413Y-106267719D01*
X132260033Y-106404479D01*
X132197089Y-106556440D01*
X132165000Y-106717760D01*
X131835000Y-106717760D01*
X131802911Y-106556440D01*
X131739967Y-106404479D01*
X131648587Y-106267719D01*
X131532281Y-106151413D01*
X131395521Y-106060033D01*
X131243560Y-105997089D01*
X131082240Y-105965000D01*
X130917760Y-105965000D01*
X130756440Y-105997089D01*
X130604479Y-106060033D01*
X130500000Y-106129844D01*
X130395521Y-106060033D01*
X130243560Y-105997089D01*
X130082240Y-105965000D01*
X129917760Y-105965000D01*
X129756440Y-105997089D01*
X129604479Y-106060033D01*
X129467719Y-106151413D01*
X129351413Y-106267719D01*
X129260033Y-106404479D01*
X129197089Y-106556440D01*
X129165000Y-106717760D01*
X127138345Y-106717760D01*
X127079494Y-106669463D01*
X126969180Y-106610498D01*
X126849482Y-106574188D01*
X126725000Y-106561928D01*
X125725000Y-106561928D01*
X125660000Y-106568330D01*
X125660000Y-93617760D01*
X127665000Y-93617760D01*
X127665000Y-93782240D01*
X127697089Y-93943560D01*
X127760033Y-94095521D01*
X127851413Y-94232281D01*
X127967719Y-94348587D01*
X128104479Y-94439967D01*
X128256440Y-94502911D01*
X128417760Y-94535000D01*
X128582240Y-94535000D01*
X128743560Y-94502911D01*
X128895521Y-94439967D01*
X129000000Y-94370156D01*
X129104479Y-94439967D01*
X129256440Y-94502911D01*
X129417760Y-94535000D01*
X129582240Y-94535000D01*
X129743560Y-94502911D01*
X129895521Y-94439967D01*
X130032281Y-94348587D01*
X130148587Y-94232281D01*
X130239967Y-94095521D01*
X130302911Y-93943560D01*
X130335000Y-93782240D01*
X130335000Y-93617760D01*
X130302911Y-93456440D01*
X130239967Y-93304479D01*
X130182024Y-93217760D01*
X130665000Y-93217760D01*
X130665000Y-93382240D01*
X130697089Y-93543560D01*
X130760033Y-93695521D01*
X130851413Y-93832281D01*
X130967719Y-93948587D01*
X131104479Y-94039967D01*
X131256440Y-94102911D01*
X131417760Y-94135000D01*
X131582240Y-94135000D01*
X131743560Y-94102911D01*
X131895521Y-94039967D01*
X132000000Y-93970156D01*
X132104479Y-94039967D01*
X132256440Y-94102911D01*
X132417760Y-94135000D01*
X132582240Y-94135000D01*
X132743560Y-94102911D01*
X132895521Y-94039967D01*
X133032281Y-93948587D01*
X133148587Y-93832281D01*
X133239967Y-93695521D01*
X133302911Y-93543560D01*
X133335000Y-93382240D01*
X133335000Y-93217760D01*
X133315109Y-93117760D01*
X133665000Y-93117760D01*
X133665000Y-93282240D01*
X133697089Y-93443560D01*
X133760033Y-93595521D01*
X133851413Y-93732281D01*
X133967719Y-93848587D01*
X134104479Y-93939967D01*
X134214472Y-93985528D01*
X134260033Y-94095521D01*
X134351413Y-94232281D01*
X134467719Y-94348587D01*
X134604479Y-94439967D01*
X134756440Y-94502911D01*
X134917760Y-94535000D01*
X135082240Y-94535000D01*
X135243560Y-94502911D01*
X135395521Y-94439967D01*
X135500000Y-94370156D01*
X135604479Y-94439967D01*
X135756440Y-94502911D01*
X135917760Y-94535000D01*
X136082240Y-94535000D01*
X136243560Y-94502911D01*
X136395521Y-94439967D01*
X136500000Y-94370156D01*
X136604479Y-94439967D01*
X136756440Y-94502911D01*
X136917760Y-94535000D01*
X137082240Y-94535000D01*
X137243560Y-94502911D01*
X137395521Y-94439967D01*
X137532281Y-94348587D01*
X137648587Y-94232281D01*
X137739967Y-94095521D01*
X137785528Y-93985528D01*
X137895521Y-93939967D01*
X138032281Y-93848587D01*
X138148587Y-93732281D01*
X138239967Y-93595521D01*
X138302911Y-93443560D01*
X138335000Y-93282240D01*
X138335000Y-93117760D01*
X138302911Y-92956440D01*
X138239967Y-92804479D01*
X138148587Y-92667719D01*
X138032281Y-92551413D01*
X137895521Y-92460033D01*
X137743560Y-92397089D01*
X137582240Y-92365000D01*
X137417760Y-92365000D01*
X137256440Y-92397089D01*
X137104479Y-92460033D01*
X136967719Y-92551413D01*
X136851413Y-92667719D01*
X136760033Y-92804479D01*
X136714472Y-92914472D01*
X136604479Y-92960033D01*
X136500000Y-93029844D01*
X136395521Y-92960033D01*
X136285528Y-92914472D01*
X136239967Y-92804479D01*
X136148587Y-92667719D01*
X136032281Y-92551413D01*
X135895521Y-92460033D01*
X135743560Y-92397089D01*
X135582240Y-92365000D01*
X135417760Y-92365000D01*
X135256440Y-92397089D01*
X135104479Y-92460033D01*
X135000000Y-92529844D01*
X134895521Y-92460033D01*
X134743560Y-92397089D01*
X134582240Y-92365000D01*
X134417760Y-92365000D01*
X134256440Y-92397089D01*
X134104479Y-92460033D01*
X133967719Y-92551413D01*
X133851413Y-92667719D01*
X133760033Y-92804479D01*
X133697089Y-92956440D01*
X133665000Y-93117760D01*
X133315109Y-93117760D01*
X133302911Y-93056440D01*
X133239967Y-92904479D01*
X133148587Y-92767719D01*
X133032281Y-92651413D01*
X132895521Y-92560033D01*
X132743560Y-92497089D01*
X132582240Y-92465000D01*
X132417760Y-92465000D01*
X132256440Y-92497089D01*
X132104479Y-92560033D01*
X132000000Y-92629844D01*
X131895521Y-92560033D01*
X131743560Y-92497089D01*
X131582240Y-92465000D01*
X131417760Y-92465000D01*
X131256440Y-92497089D01*
X131104479Y-92560033D01*
X130967719Y-92651413D01*
X130851413Y-92767719D01*
X130760033Y-92904479D01*
X130697089Y-93056440D01*
X130665000Y-93217760D01*
X130182024Y-93217760D01*
X130148587Y-93167719D01*
X130032281Y-93051413D01*
X129895521Y-92960033D01*
X129743560Y-92897089D01*
X129582240Y-92865000D01*
X129417760Y-92865000D01*
X129256440Y-92897089D01*
X129104479Y-92960033D01*
X129000000Y-93029844D01*
X128895521Y-92960033D01*
X128743560Y-92897089D01*
X128582240Y-92865000D01*
X128417760Y-92865000D01*
X128256440Y-92897089D01*
X128104479Y-92960033D01*
X127967719Y-93051413D01*
X127851413Y-93167719D01*
X127760033Y-93304479D01*
X127697089Y-93456440D01*
X127665000Y-93617760D01*
X125660000Y-93617760D01*
X125660000Y-93431670D01*
X125725000Y-93438072D01*
X126725000Y-93438072D01*
X126849482Y-93425812D01*
X126969180Y-93389502D01*
X127079494Y-93330537D01*
X127176185Y-93251185D01*
X127255537Y-93154494D01*
X127314502Y-93044180D01*
X127350812Y-92924482D01*
X127363072Y-92800000D01*
X127363072Y-91800000D01*
X127350812Y-91675518D01*
X127343071Y-91650000D01*
X127350812Y-91624482D01*
X127363072Y-91500000D01*
X127363072Y-90660000D01*
X138636928Y-90660000D01*
X138636928Y-91500000D01*
%TA.AperFunction,Conductor*%
D22*
G36*
X138636928Y-91500000D02*
G01*
X138649188Y-91624482D01*
X138656929Y-91650000D01*
X138649188Y-91675518D01*
X138636928Y-91800000D01*
X138636928Y-92800000D01*
X138649188Y-92924482D01*
X138685498Y-93044180D01*
X138744463Y-93154494D01*
X138823815Y-93251185D01*
X138920506Y-93330537D01*
X139030820Y-93389502D01*
X139150518Y-93425812D01*
X139275000Y-93438072D01*
X140275000Y-93438072D01*
X140399482Y-93425812D01*
X140519180Y-93389502D01*
X140629494Y-93330537D01*
X140726185Y-93251185D01*
X140805537Y-93154494D01*
X140864502Y-93044180D01*
X140900812Y-92924482D01*
X140913072Y-92800000D01*
X140913072Y-91800000D01*
X140900812Y-91675518D01*
X140893071Y-91650000D01*
X140900812Y-91624482D01*
X140913072Y-91500000D01*
X140913072Y-90660000D01*
X142123000Y-90660000D01*
X142123000Y-90921006D01*
X141966842Y-90952068D01*
X141696589Y-91064010D01*
X141453368Y-91226525D01*
X141246525Y-91433368D01*
X141084010Y-91676589D01*
X140972068Y-91946842D01*
X140915000Y-92233740D01*
X140915000Y-92526260D01*
X140972068Y-92813158D01*
X141084010Y-93083411D01*
X141246525Y-93326632D01*
X141453368Y-93533475D01*
X141627760Y-93650000D01*
X141453368Y-93766525D01*
X141246525Y-93973368D01*
X141084010Y-94216589D01*
X140972068Y-94486842D01*
X140915000Y-94773740D01*
X140915000Y-95066260D01*
X140972068Y-95353158D01*
X141084010Y-95623411D01*
X141246525Y-95866632D01*
X141453368Y-96073475D01*
X141627760Y-96190000D01*
X141453368Y-96306525D01*
X141246525Y-96513368D01*
X141084010Y-96756589D01*
X140972068Y-97026842D01*
X140915000Y-97313740D01*
X140915000Y-97606260D01*
X140972068Y-97893158D01*
X141084010Y-98163411D01*
X141246525Y-98406632D01*
X141453368Y-98613475D01*
X141635534Y-98735195D01*
X141518645Y-98804822D01*
X141302412Y-98999731D01*
X141128359Y-99233080D01*
X141003175Y-99495901D01*
X140958524Y-99643110D01*
X141079845Y-99873000D01*
X142123000Y-99873000D01*
X142123000Y-100127000D01*
X141079845Y-100127000D01*
X140958524Y-100356890D01*
X141003175Y-100504099D01*
X141128359Y-100766920D01*
X141302412Y-101000269D01*
X141518645Y-101195178D01*
X141635534Y-101264805D01*
X141453368Y-101386525D01*
X141246525Y-101593368D01*
X141084010Y-101836589D01*
X140972068Y-102106842D01*
X140915000Y-102393740D01*
X140915000Y-102686260D01*
X140972068Y-102973158D01*
X141084010Y-103243411D01*
X141246525Y-103486632D01*
X141453368Y-103693475D01*
X141627760Y-103810000D01*
X141453368Y-103926525D01*
X141246525Y-104133368D01*
X141084010Y-104376589D01*
X140972068Y-104646842D01*
X140915000Y-104933740D01*
X140915000Y-105226260D01*
X140972068Y-105513158D01*
X141084010Y-105783411D01*
X141246525Y-106026632D01*
X141378380Y-106158487D01*
X141305820Y-106180498D01*
X141195506Y-106239463D01*
X141098815Y-106318815D01*
X141019463Y-106415506D01*
X140960498Y-106525820D01*
X140924188Y-106645518D01*
X140911928Y-106770000D01*
X140911928Y-107188384D01*
X140900812Y-107075518D01*
X140864502Y-106955820D01*
X140805537Y-106845506D01*
X140726185Y-106748815D01*
X140629494Y-106669463D01*
X140519180Y-106610498D01*
X140399482Y-106574188D01*
X140275000Y-106561928D01*
X139275000Y-106561928D01*
X139150518Y-106574188D01*
X139030820Y-106610498D01*
X138920506Y-106669463D01*
X138823815Y-106748815D01*
X138744463Y-106845506D01*
X138685498Y-106955820D01*
X138649188Y-107075518D01*
X138636928Y-107200000D01*
X138636928Y-108200000D01*
X138649188Y-108324482D01*
X138656929Y-108350000D01*
X138649188Y-108375518D01*
X138636928Y-108500000D01*
X138636928Y-109340000D01*
X127363072Y-109340000D01*
X127363072Y-108500000D01*
X127350812Y-108375518D01*
X127343071Y-108350000D01*
X127350812Y-108324482D01*
X127363072Y-108200000D01*
X127363072Y-107200000D01*
X127350812Y-107075518D01*
X127314502Y-106955820D01*
X127255537Y-106845506D01*
X127176185Y-106748815D01*
X127138345Y-106717760D01*
X129165000Y-106717760D01*
X129165000Y-106882240D01*
X129197089Y-107043560D01*
X129260033Y-107195521D01*
X129351413Y-107332281D01*
X129467719Y-107448587D01*
X129604479Y-107539967D01*
X129756440Y-107602911D01*
X129917760Y-107635000D01*
X130082240Y-107635000D01*
X130243560Y-107602911D01*
X130395521Y-107539967D01*
X130500000Y-107470156D01*
X130604479Y-107539967D01*
X130756440Y-107602911D01*
X130917760Y-107635000D01*
X131082240Y-107635000D01*
X131243560Y-107602911D01*
X131395521Y-107539967D01*
X131532281Y-107448587D01*
X131648587Y-107332281D01*
X131739967Y-107195521D01*
X131802911Y-107043560D01*
X131835000Y-106882240D01*
X131835000Y-106717760D01*
X132165000Y-106717760D01*
X132165000Y-106882240D01*
X132197089Y-107043560D01*
X132260033Y-107195521D01*
X132351413Y-107332281D01*
X132467719Y-107448587D01*
X132604479Y-107539967D01*
X132756440Y-107602911D01*
X132917760Y-107635000D01*
X133082240Y-107635000D01*
X133243560Y-107602911D01*
X133395521Y-107539967D01*
X133500000Y-107470156D01*
X133604479Y-107539967D01*
X133756440Y-107602911D01*
X133917760Y-107635000D01*
X134082240Y-107635000D01*
X134243560Y-107602911D01*
X134395521Y-107539967D01*
X134500000Y-107470156D01*
X134604479Y-107539967D01*
X134756440Y-107602911D01*
X134917760Y-107635000D01*
X135082240Y-107635000D01*
X135243560Y-107602911D01*
X135395521Y-107539967D01*
X135500000Y-107470156D01*
X135604479Y-107539967D01*
X135756440Y-107602911D01*
X135917760Y-107635000D01*
X136082240Y-107635000D01*
X136243560Y-107602911D01*
X136395521Y-107539967D01*
X136500000Y-107470156D01*
X136604479Y-107539967D01*
X136756440Y-107602911D01*
X136917760Y-107635000D01*
X137082240Y-107635000D01*
X137243560Y-107602911D01*
X137395521Y-107539967D01*
X137532281Y-107448587D01*
X137648587Y-107332281D01*
X137739967Y-107195521D01*
X137785528Y-107085528D01*
X137895521Y-107039967D01*
X138032281Y-106948587D01*
X138148587Y-106832281D01*
X138239967Y-106695521D01*
X138302911Y-106543560D01*
X138335000Y-106382240D01*
X138335000Y-106217760D01*
X138302911Y-106056440D01*
X138239967Y-105904479D01*
X138148587Y-105767719D01*
X138032281Y-105651413D01*
X137895521Y-105560033D01*
X137743560Y-105497089D01*
X137582240Y-105465000D01*
X137417760Y-105465000D01*
X137256440Y-105497089D01*
X137104479Y-105560033D01*
X136967719Y-105651413D01*
X136851413Y-105767719D01*
X136760033Y-105904479D01*
X136714472Y-106014472D01*
X136604479Y-106060033D01*
X136500000Y-106129844D01*
X136395521Y-106060033D01*
X136285528Y-106014472D01*
X136239967Y-105904479D01*
X136148587Y-105767719D01*
X136032281Y-105651413D01*
X135895521Y-105560033D01*
X135743560Y-105497089D01*
X135582240Y-105465000D01*
X135417760Y-105465000D01*
X135256440Y-105497089D01*
X135104479Y-105560033D01*
X135000000Y-105629844D01*
X134895521Y-105560033D01*
X134743560Y-105497089D01*
X134582240Y-105465000D01*
X134417760Y-105465000D01*
X134256440Y-105497089D01*
X134104479Y-105560033D01*
X133967719Y-105651413D01*
X133851413Y-105767719D01*
X133760033Y-105904479D01*
X133714472Y-106014472D01*
X133604479Y-106060033D01*
X133500000Y-106129844D01*
X133395521Y-106060033D01*
X133243560Y-105997089D01*
X133082240Y-105965000D01*
X132917760Y-105965000D01*
X132756440Y-105997089D01*
X132604479Y-106060033D01*
X132467719Y-106151413D01*
X132351413Y-106267719D01*
X132260033Y-106404479D01*
X132197089Y-106556440D01*
X132165000Y-106717760D01*
X131835000Y-106717760D01*
X131802911Y-106556440D01*
X131739967Y-106404479D01*
X131648587Y-106267719D01*
X131532281Y-106151413D01*
X131395521Y-106060033D01*
X131243560Y-105997089D01*
X131082240Y-105965000D01*
X130917760Y-105965000D01*
X130756440Y-105997089D01*
X130604479Y-106060033D01*
X130500000Y-106129844D01*
X130395521Y-106060033D01*
X130243560Y-105997089D01*
X130082240Y-105965000D01*
X129917760Y-105965000D01*
X129756440Y-105997089D01*
X129604479Y-106060033D01*
X129467719Y-106151413D01*
X129351413Y-106267719D01*
X129260033Y-106404479D01*
X129197089Y-106556440D01*
X129165000Y-106717760D01*
X127138345Y-106717760D01*
X127079494Y-106669463D01*
X126969180Y-106610498D01*
X126849482Y-106574188D01*
X126725000Y-106561928D01*
X125725000Y-106561928D01*
X125660000Y-106568330D01*
X125660000Y-93617760D01*
X127665000Y-93617760D01*
X127665000Y-93782240D01*
X127697089Y-93943560D01*
X127760033Y-94095521D01*
X127851413Y-94232281D01*
X127967719Y-94348587D01*
X128104479Y-94439967D01*
X128256440Y-94502911D01*
X128417760Y-94535000D01*
X128582240Y-94535000D01*
X128743560Y-94502911D01*
X128895521Y-94439967D01*
X129000000Y-94370156D01*
X129104479Y-94439967D01*
X129256440Y-94502911D01*
X129417760Y-94535000D01*
X129582240Y-94535000D01*
X129743560Y-94502911D01*
X129895521Y-94439967D01*
X130032281Y-94348587D01*
X130148587Y-94232281D01*
X130239967Y-94095521D01*
X130302911Y-93943560D01*
X130335000Y-93782240D01*
X130335000Y-93617760D01*
X130302911Y-93456440D01*
X130239967Y-93304479D01*
X130182024Y-93217760D01*
X130665000Y-93217760D01*
X130665000Y-93382240D01*
X130697089Y-93543560D01*
X130760033Y-93695521D01*
X130851413Y-93832281D01*
X130967719Y-93948587D01*
X131104479Y-94039967D01*
X131256440Y-94102911D01*
X131417760Y-94135000D01*
X131582240Y-94135000D01*
X131743560Y-94102911D01*
X131895521Y-94039967D01*
X132000000Y-93970156D01*
X132104479Y-94039967D01*
X132256440Y-94102911D01*
X132417760Y-94135000D01*
X132582240Y-94135000D01*
X132743560Y-94102911D01*
X132895521Y-94039967D01*
X133032281Y-93948587D01*
X133148587Y-93832281D01*
X133239967Y-93695521D01*
X133302911Y-93543560D01*
X133335000Y-93382240D01*
X133335000Y-93217760D01*
X133315109Y-93117760D01*
X133665000Y-93117760D01*
X133665000Y-93282240D01*
X133697089Y-93443560D01*
X133760033Y-93595521D01*
X133851413Y-93732281D01*
X133967719Y-93848587D01*
X134104479Y-93939967D01*
X134214472Y-93985528D01*
X134260033Y-94095521D01*
X134351413Y-94232281D01*
X134467719Y-94348587D01*
X134604479Y-94439967D01*
X134756440Y-94502911D01*
X134917760Y-94535000D01*
X135082240Y-94535000D01*
X135243560Y-94502911D01*
X135395521Y-94439967D01*
X135500000Y-94370156D01*
X135604479Y-94439967D01*
X135756440Y-94502911D01*
X135917760Y-94535000D01*
X136082240Y-94535000D01*
X136243560Y-94502911D01*
X136395521Y-94439967D01*
X136500000Y-94370156D01*
X136604479Y-94439967D01*
X136756440Y-94502911D01*
X136917760Y-94535000D01*
X137082240Y-94535000D01*
X137243560Y-94502911D01*
X137395521Y-94439967D01*
X137532281Y-94348587D01*
X137648587Y-94232281D01*
X137739967Y-94095521D01*
X137785528Y-93985528D01*
X137895521Y-93939967D01*
X138032281Y-93848587D01*
X138148587Y-93732281D01*
X138239967Y-93595521D01*
X138302911Y-93443560D01*
X138335000Y-93282240D01*
X138335000Y-93117760D01*
X138302911Y-92956440D01*
X138239967Y-92804479D01*
X138148587Y-92667719D01*
X138032281Y-92551413D01*
X137895521Y-92460033D01*
X137743560Y-92397089D01*
X137582240Y-92365000D01*
X137417760Y-92365000D01*
X137256440Y-92397089D01*
X137104479Y-92460033D01*
X136967719Y-92551413D01*
X136851413Y-92667719D01*
X136760033Y-92804479D01*
X136714472Y-92914472D01*
X136604479Y-92960033D01*
X136500000Y-93029844D01*
X136395521Y-92960033D01*
X136285528Y-92914472D01*
X136239967Y-92804479D01*
X136148587Y-92667719D01*
X136032281Y-92551413D01*
X135895521Y-92460033D01*
X135743560Y-92397089D01*
X135582240Y-92365000D01*
X135417760Y-92365000D01*
X135256440Y-92397089D01*
X135104479Y-92460033D01*
X135000000Y-92529844D01*
X134895521Y-92460033D01*
X134743560Y-92397089D01*
X134582240Y-92365000D01*
X134417760Y-92365000D01*
X134256440Y-92397089D01*
X134104479Y-92460033D01*
X133967719Y-92551413D01*
X133851413Y-92667719D01*
X133760033Y-92804479D01*
X133697089Y-92956440D01*
X133665000Y-93117760D01*
X133315109Y-93117760D01*
X133302911Y-93056440D01*
X133239967Y-92904479D01*
X133148587Y-92767719D01*
X133032281Y-92651413D01*
X132895521Y-92560033D01*
X132743560Y-92497089D01*
X132582240Y-92465000D01*
X132417760Y-92465000D01*
X132256440Y-92497089D01*
X132104479Y-92560033D01*
X132000000Y-92629844D01*
X131895521Y-92560033D01*
X131743560Y-92497089D01*
X131582240Y-92465000D01*
X131417760Y-92465000D01*
X131256440Y-92497089D01*
X131104479Y-92560033D01*
X130967719Y-92651413D01*
X130851413Y-92767719D01*
X130760033Y-92904479D01*
X130697089Y-93056440D01*
X130665000Y-93217760D01*
X130182024Y-93217760D01*
X130148587Y-93167719D01*
X130032281Y-93051413D01*
X129895521Y-92960033D01*
X129743560Y-92897089D01*
X129582240Y-92865000D01*
X129417760Y-92865000D01*
X129256440Y-92897089D01*
X129104479Y-92960033D01*
X129000000Y-93029844D01*
X128895521Y-92960033D01*
X128743560Y-92897089D01*
X128582240Y-92865000D01*
X128417760Y-92865000D01*
X128256440Y-92897089D01*
X128104479Y-92960033D01*
X127967719Y-93051413D01*
X127851413Y-93167719D01*
X127760033Y-93304479D01*
X127697089Y-93456440D01*
X127665000Y-93617760D01*
X125660000Y-93617760D01*
X125660000Y-93431670D01*
X125725000Y-93438072D01*
X126725000Y-93438072D01*
X126849482Y-93425812D01*
X126969180Y-93389502D01*
X127079494Y-93330537D01*
X127176185Y-93251185D01*
X127255537Y-93154494D01*
X127314502Y-93044180D01*
X127350812Y-92924482D01*
X127363072Y-92800000D01*
X127363072Y-91800000D01*
X127350812Y-91675518D01*
X127343071Y-91650000D01*
X127350812Y-91624482D01*
X127363072Y-91500000D01*
X127363072Y-90660000D01*
X138636928Y-90660000D01*
X138636928Y-91500000D01*
G37*
%TD.AperFunction*%
%TD*%
M02*
