%TF.GenerationSoftware,KiCad,Pcbnew,5.1.9-73d0e3b20d~88~ubuntu20.04.1*%
%TF.CreationDate,2021-04-24T16:55:14+02:00*%
%TF.ProjectId,wally,77616c6c-792e-46b6-9963-61645f706362,v1.01*%
%TF.SameCoordinates,Original*%
%TF.FileFunction,Copper,L1,Top*%
%TF.FilePolarity,Positive*%
%FSLAX46Y46*%
G04 Gerber Fmt 4.6, Leading zero omitted, Abs format (unit mm)*
G04 Created by KiCad (PCBNEW 5.1.9-73d0e3b20d~88~ubuntu20.04.1) date 2021-04-24 16:55:14*
%MOMM*%
%LPD*%
G01*
G04 APERTURE LIST*
%TA.AperFunction,ComponentPad*%
%ADD10O,1.600000X1.000000*%
%TD*%
%TA.AperFunction,ComponentPad*%
%ADD11O,2.100000X1.000000*%
%TD*%
%TA.AperFunction,SMDPad,CuDef*%
%ADD12R,1.450000X0.300000*%
%TD*%
%TA.AperFunction,SMDPad,CuDef*%
%ADD13R,1.450000X0.600000*%
%TD*%
%TA.AperFunction,SMDPad,CuDef*%
%ADD14R,0.900000X0.800000*%
%TD*%
%TA.AperFunction,SMDPad,CuDef*%
%ADD15R,0.600000X2.600000*%
%TD*%
%TA.AperFunction,SMDPad,CuDef*%
%ADD16R,0.500000X2.800000*%
%TD*%
%TA.AperFunction,ComponentPad*%
%ADD17R,1.000000X1.000000*%
%TD*%
%TA.AperFunction,ComponentPad*%
%ADD18O,1.000000X1.000000*%
%TD*%
%TA.AperFunction,SMDPad,CuDef*%
%ADD19R,0.700000X0.600000*%
%TD*%
%TA.AperFunction,ComponentPad*%
%ADD20R,1.700000X1.700000*%
%TD*%
%TA.AperFunction,ComponentPad*%
%ADD21O,1.700000X1.700000*%
%TD*%
%TA.AperFunction,SMDPad,CuDef*%
%ADD22R,1.000000X0.700000*%
%TD*%
%TA.AperFunction,ViaPad*%
%ADD23C,0.400000*%
%TD*%
%TA.AperFunction,ViaPad*%
%ADD24C,0.800000*%
%TD*%
%TA.AperFunction,ViaPad*%
%ADD25C,0.700000*%
%TD*%
%TA.AperFunction,ViaPad*%
%ADD26C,0.750000*%
%TD*%
%TA.AperFunction,ViaPad*%
%ADD27C,0.600000*%
%TD*%
%TA.AperFunction,Conductor*%
%ADD28C,0.200000*%
%TD*%
%TA.AperFunction,Conductor*%
%ADD29C,0.250000*%
%TD*%
%TA.AperFunction,Conductor*%
%ADD30C,0.500000*%
%TD*%
%TA.AperFunction,Conductor*%
%ADD31C,0.400000*%
%TD*%
G04 APERTURE END LIST*
D10*
%TO.P,J1,S3*%
%TO.N,N/C*%
X172650000Y-95680000D03*
%TO.P,J1,S4*%
X172650000Y-104320000D03*
D11*
%TO.P,J1,S1*%
X168470000Y-104320000D03*
%TO.P,J1,S2*%
X168470000Y-95680000D03*
D12*
%TO.P,J1,A6*%
%TO.N,usb_dp*%
X167555000Y-100250000D03*
%TO.P,J1,B5*%
%TO.N,Net-(J1-PadB5)*%
X167555000Y-98250000D03*
%TO.P,J1,A8*%
%TO.N,N/C*%
X167555000Y-98750000D03*
%TO.P,J1,B6*%
%TO.N,usb_dp*%
X167555000Y-99250000D03*
%TO.P,J1,A7*%
%TO.N,usb_dm*%
X167555000Y-99750000D03*
%TO.P,J1,B7*%
X167555000Y-100750000D03*
%TO.P,J1,A5*%
%TO.N,Net-(J1-PadA5)*%
X167555000Y-101250000D03*
%TO.P,J1,B8*%
%TO.N,N/C*%
X167555000Y-101750000D03*
D13*
%TO.P,J1,A12*%
%TO.N,GND*%
X167555000Y-96750000D03*
%TO.P,J1,B4*%
%TO.N,+5V*%
X167555000Y-97550000D03*
%TO.P,J1,A4*%
X167555000Y-102450000D03*
%TO.P,J1,A1*%
%TO.N,GND*%
X167555000Y-103250000D03*
%TO.P,J1,B12*%
X167555000Y-103250000D03*
%TO.P,J1,B9*%
%TO.N,+5V*%
X167555000Y-102450000D03*
%TO.P,J1,A9*%
X167555000Y-97550000D03*
%TO.P,J1,B1*%
%TO.N,GND*%
X167555000Y-96750000D03*
%TD*%
D14*
%TO.P,Q4,1*%
%TO.N,+3V3*%
X158840000Y-107080000D03*
%TO.P,Q4,2*%
%TO.N,hdmi_cec_in*%
X158840000Y-105180000D03*
%TO.P,Q4,3*%
%TO.N,hdmi_cec*%
X156840000Y-106130000D03*
%TD*%
%TO.P,R4,1*%
%TO.N,+3V3*%
%TA.AperFunction,SMDPad,CuDef*%
G36*
G01*
X152375000Y-100370000D02*
X152745000Y-100370000D01*
G75*
G02*
X152880000Y-100505000I0J-135000D01*
G01*
X152880000Y-100775000D01*
G75*
G02*
X152745000Y-100910000I-135000J0D01*
G01*
X152375000Y-100910000D01*
G75*
G02*
X152240000Y-100775000I0J135000D01*
G01*
X152240000Y-100505000D01*
G75*
G02*
X152375000Y-100370000I135000J0D01*
G01*
G37*
%TD.AperFunction*%
%TO.P,R4,2*%
%TO.N,i2c_scl*%
%TA.AperFunction,SMDPad,CuDef*%
G36*
G01*
X152375000Y-101390000D02*
X152745000Y-101390000D01*
G75*
G02*
X152880000Y-101525000I0J-135000D01*
G01*
X152880000Y-101795000D01*
G75*
G02*
X152745000Y-101930000I-135000J0D01*
G01*
X152375000Y-101930000D01*
G75*
G02*
X152240000Y-101795000I0J135000D01*
G01*
X152240000Y-101525000D01*
G75*
G02*
X152375000Y-101390000I135000J0D01*
G01*
G37*
%TD.AperFunction*%
%TD*%
D15*
%TO.P,J2,SH*%
%TO.N,GND*%
X141775000Y-108700000D03*
X128225000Y-108700000D03*
D16*
%TO.P,J2,19*%
%TO.N,hdmi_hpd*%
X139500000Y-108600000D03*
%TO.P,J2,17*%
%TO.N,GND*%
X138500000Y-108600000D03*
%TO.P,J2,15*%
%TO.N,hdmi_scl*%
X137500000Y-108600000D03*
%TO.P,J2,13*%
%TO.N,hdmi_cec*%
X136500000Y-108600000D03*
%TO.P,J2,11*%
%TO.N,GND*%
X135500000Y-108600000D03*
%TO.P,J2,9*%
%TO.N,Net-(J2-Pad9)*%
X134500000Y-108600000D03*
%TO.P,J2,7*%
%TO.N,Net-(J2-Pad7)*%
X133500000Y-108600000D03*
%TO.P,J2,5*%
%TO.N,GND*%
X132500000Y-108600000D03*
%TO.P,J2,3*%
%TO.N,Net-(J2-Pad3)*%
X131500000Y-108600000D03*
%TO.P,J2,1*%
%TO.N,Net-(J2-Pad1)*%
X130500000Y-108600000D03*
%TD*%
%TO.P,J3,2*%
%TO.N,GND*%
X131000000Y-91400000D03*
%TO.P,J3,4*%
%TO.N,Net-(J2-Pad4)*%
X132000000Y-91400000D03*
%TO.P,J3,6*%
%TO.N,Net-(J2-Pad6)*%
X133000000Y-91400000D03*
%TO.P,J3,8*%
%TO.N,GND*%
X134000000Y-91400000D03*
%TO.P,J3,10*%
%TO.N,Net-(J2-Pad10)*%
X135000000Y-91400000D03*
%TO.P,J3,12*%
%TO.N,Net-(J2-Pad12)*%
X136000000Y-91400000D03*
%TO.P,J3,14*%
%TO.N,hdmi_utility*%
X137000000Y-91400000D03*
%TO.P,J3,16*%
%TO.N,hdmi_sda*%
X138000000Y-91400000D03*
%TO.P,J3,18*%
%TO.N,hdmi_5v*%
X139000000Y-91400000D03*
D15*
%TO.P,J3,SH*%
%TO.N,GND*%
X128225000Y-91300000D03*
X141775000Y-91300000D03*
%TD*%
%TO.P,C4,2*%
%TO.N,+5V*%
%TA.AperFunction,SMDPad,CuDef*%
G36*
G01*
X172275000Y-107640000D02*
X171325000Y-107640000D01*
G75*
G02*
X171075000Y-107390000I0J250000D01*
G01*
X171075000Y-106890000D01*
G75*
G02*
X171325000Y-106640000I250000J0D01*
G01*
X172275000Y-106640000D01*
G75*
G02*
X172525000Y-106890000I0J-250000D01*
G01*
X172525000Y-107390000D01*
G75*
G02*
X172275000Y-107640000I-250000J0D01*
G01*
G37*
%TD.AperFunction*%
%TO.P,C4,1*%
%TO.N,GND*%
%TA.AperFunction,SMDPad,CuDef*%
G36*
G01*
X172275000Y-109540000D02*
X171325000Y-109540000D01*
G75*
G02*
X171075000Y-109290000I0J250000D01*
G01*
X171075000Y-108790000D01*
G75*
G02*
X171325000Y-108540000I250000J0D01*
G01*
X172275000Y-108540000D01*
G75*
G02*
X172525000Y-108790000I0J-250000D01*
G01*
X172525000Y-109290000D01*
G75*
G02*
X172275000Y-109540000I-250000J0D01*
G01*
G37*
%TD.AperFunction*%
%TD*%
%TO.P,C5,1*%
%TO.N,+3V3*%
%TA.AperFunction,SMDPad,CuDef*%
G36*
G01*
X166815000Y-109540000D02*
X165865000Y-109540000D01*
G75*
G02*
X165615000Y-109290000I0J250000D01*
G01*
X165615000Y-108790000D01*
G75*
G02*
X165865000Y-108540000I250000J0D01*
G01*
X166815000Y-108540000D01*
G75*
G02*
X167065000Y-108790000I0J-250000D01*
G01*
X167065000Y-109290000D01*
G75*
G02*
X166815000Y-109540000I-250000J0D01*
G01*
G37*
%TD.AperFunction*%
%TO.P,C5,2*%
%TO.N,GND*%
%TA.AperFunction,SMDPad,CuDef*%
G36*
G01*
X166815000Y-107640000D02*
X165865000Y-107640000D01*
G75*
G02*
X165615000Y-107390000I0J250000D01*
G01*
X165615000Y-106890000D01*
G75*
G02*
X165865000Y-106640000I250000J0D01*
G01*
X166815000Y-106640000D01*
G75*
G02*
X167065000Y-106890000I0J-250000D01*
G01*
X167065000Y-107390000D01*
G75*
G02*
X166815000Y-107640000I-250000J0D01*
G01*
G37*
%TD.AperFunction*%
%TD*%
%TO.P,U1,20*%
%TO.N,swclk*%
%TA.AperFunction,SMDPad,CuDef*%
G36*
G01*
X163025000Y-97175000D02*
X163025000Y-96975000D01*
G75*
G02*
X163125000Y-96875000I100000J0D01*
G01*
X164400000Y-96875000D01*
G75*
G02*
X164500000Y-96975000I0J-100000D01*
G01*
X164500000Y-97175000D01*
G75*
G02*
X164400000Y-97275000I-100000J0D01*
G01*
X163125000Y-97275000D01*
G75*
G02*
X163025000Y-97175000I0J100000D01*
G01*
G37*
%TD.AperFunction*%
%TO.P,U1,19*%
%TO.N,swdio*%
%TA.AperFunction,SMDPad,CuDef*%
G36*
G01*
X163025000Y-97825000D02*
X163025000Y-97625000D01*
G75*
G02*
X163125000Y-97525000I100000J0D01*
G01*
X164400000Y-97525000D01*
G75*
G02*
X164500000Y-97625000I0J-100000D01*
G01*
X164500000Y-97825000D01*
G75*
G02*
X164400000Y-97925000I-100000J0D01*
G01*
X163125000Y-97925000D01*
G75*
G02*
X163025000Y-97825000I0J100000D01*
G01*
G37*
%TD.AperFunction*%
%TO.P,U1,18*%
%TO.N,usb_dp*%
%TA.AperFunction,SMDPad,CuDef*%
G36*
G01*
X163025000Y-98475000D02*
X163025000Y-98275000D01*
G75*
G02*
X163125000Y-98175000I100000J0D01*
G01*
X164400000Y-98175000D01*
G75*
G02*
X164500000Y-98275000I0J-100000D01*
G01*
X164500000Y-98475000D01*
G75*
G02*
X164400000Y-98575000I-100000J0D01*
G01*
X163125000Y-98575000D01*
G75*
G02*
X163025000Y-98475000I0J100000D01*
G01*
G37*
%TD.AperFunction*%
%TO.P,U1,17*%
%TO.N,usb_dm*%
%TA.AperFunction,SMDPad,CuDef*%
G36*
G01*
X163025000Y-99125000D02*
X163025000Y-98925000D01*
G75*
G02*
X163125000Y-98825000I100000J0D01*
G01*
X164400000Y-98825000D01*
G75*
G02*
X164500000Y-98925000I0J-100000D01*
G01*
X164500000Y-99125000D01*
G75*
G02*
X164400000Y-99225000I-100000J0D01*
G01*
X163125000Y-99225000D01*
G75*
G02*
X163025000Y-99125000I0J100000D01*
G01*
G37*
%TD.AperFunction*%
%TO.P,U1,16*%
%TO.N,+3V3*%
%TA.AperFunction,SMDPad,CuDef*%
G36*
G01*
X163025000Y-99775000D02*
X163025000Y-99575000D01*
G75*
G02*
X163125000Y-99475000I100000J0D01*
G01*
X164400000Y-99475000D01*
G75*
G02*
X164500000Y-99575000I0J-100000D01*
G01*
X164500000Y-99775000D01*
G75*
G02*
X164400000Y-99875000I-100000J0D01*
G01*
X163125000Y-99875000D01*
G75*
G02*
X163025000Y-99775000I0J100000D01*
G01*
G37*
%TD.AperFunction*%
%TO.P,U1,15*%
%TO.N,GND*%
%TA.AperFunction,SMDPad,CuDef*%
G36*
G01*
X163025000Y-100425000D02*
X163025000Y-100225000D01*
G75*
G02*
X163125000Y-100125000I100000J0D01*
G01*
X164400000Y-100125000D01*
G75*
G02*
X164500000Y-100225000I0J-100000D01*
G01*
X164500000Y-100425000D01*
G75*
G02*
X164400000Y-100525000I-100000J0D01*
G01*
X163125000Y-100525000D01*
G75*
G02*
X163025000Y-100425000I0J100000D01*
G01*
G37*
%TD.AperFunction*%
%TO.P,U1,14*%
%TO.N,N/C*%
%TA.AperFunction,SMDPad,CuDef*%
G36*
G01*
X163025000Y-101075000D02*
X163025000Y-100875000D01*
G75*
G02*
X163125000Y-100775000I100000J0D01*
G01*
X164400000Y-100775000D01*
G75*
G02*
X164500000Y-100875000I0J-100000D01*
G01*
X164500000Y-101075000D01*
G75*
G02*
X164400000Y-101175000I-100000J0D01*
G01*
X163125000Y-101175000D01*
G75*
G02*
X163025000Y-101075000I0J100000D01*
G01*
G37*
%TD.AperFunction*%
%TO.P,U1,13*%
%TO.N,Net-(R12-Pad1)*%
%TA.AperFunction,SMDPad,CuDef*%
G36*
G01*
X163025000Y-101725000D02*
X163025000Y-101525000D01*
G75*
G02*
X163125000Y-101425000I100000J0D01*
G01*
X164400000Y-101425000D01*
G75*
G02*
X164500000Y-101525000I0J-100000D01*
G01*
X164500000Y-101725000D01*
G75*
G02*
X164400000Y-101825000I-100000J0D01*
G01*
X163125000Y-101825000D01*
G75*
G02*
X163025000Y-101725000I0J100000D01*
G01*
G37*
%TD.AperFunction*%
%TO.P,U1,12*%
%TO.N,Net-(R8-Pad1)*%
%TA.AperFunction,SMDPad,CuDef*%
G36*
G01*
X163025000Y-102375000D02*
X163025000Y-102175000D01*
G75*
G02*
X163125000Y-102075000I100000J0D01*
G01*
X164400000Y-102075000D01*
G75*
G02*
X164500000Y-102175000I0J-100000D01*
G01*
X164500000Y-102375000D01*
G75*
G02*
X164400000Y-102475000I-100000J0D01*
G01*
X163125000Y-102475000D01*
G75*
G02*
X163025000Y-102375000I0J100000D01*
G01*
G37*
%TD.AperFunction*%
%TO.P,U1,11*%
%TO.N,hdmi_cec_in*%
%TA.AperFunction,SMDPad,CuDef*%
G36*
G01*
X163025000Y-103025000D02*
X163025000Y-102825000D01*
G75*
G02*
X163125000Y-102725000I100000J0D01*
G01*
X164400000Y-102725000D01*
G75*
G02*
X164500000Y-102825000I0J-100000D01*
G01*
X164500000Y-103025000D01*
G75*
G02*
X164400000Y-103125000I-100000J0D01*
G01*
X163125000Y-103125000D01*
G75*
G02*
X163025000Y-103025000I0J100000D01*
G01*
G37*
%TD.AperFunction*%
%TO.P,U1,10*%
%TO.N,hdmi_5v_en*%
%TA.AperFunction,SMDPad,CuDef*%
G36*
G01*
X157300000Y-103025000D02*
X157300000Y-102825000D01*
G75*
G02*
X157400000Y-102725000I100000J0D01*
G01*
X158675000Y-102725000D01*
G75*
G02*
X158775000Y-102825000I0J-100000D01*
G01*
X158775000Y-103025000D01*
G75*
G02*
X158675000Y-103125000I-100000J0D01*
G01*
X157400000Y-103125000D01*
G75*
G02*
X157300000Y-103025000I0J100000D01*
G01*
G37*
%TD.AperFunction*%
%TO.P,U1,9*%
%TO.N,uart_rx*%
%TA.AperFunction,SMDPad,CuDef*%
G36*
G01*
X157300000Y-102375000D02*
X157300000Y-102175000D01*
G75*
G02*
X157400000Y-102075000I100000J0D01*
G01*
X158675000Y-102075000D01*
G75*
G02*
X158775000Y-102175000I0J-100000D01*
G01*
X158775000Y-102375000D01*
G75*
G02*
X158675000Y-102475000I-100000J0D01*
G01*
X157400000Y-102475000D01*
G75*
G02*
X157300000Y-102375000I0J100000D01*
G01*
G37*
%TD.AperFunction*%
%TO.P,U1,8*%
%TO.N,uart_tx*%
%TA.AperFunction,SMDPad,CuDef*%
G36*
G01*
X157300000Y-101725000D02*
X157300000Y-101525000D01*
G75*
G02*
X157400000Y-101425000I100000J0D01*
G01*
X158675000Y-101425000D01*
G75*
G02*
X158775000Y-101525000I0J-100000D01*
G01*
X158775000Y-101725000D01*
G75*
G02*
X158675000Y-101825000I-100000J0D01*
G01*
X157400000Y-101825000D01*
G75*
G02*
X157300000Y-101725000I0J100000D01*
G01*
G37*
%TD.AperFunction*%
%TO.P,U1,7*%
%TO.N,hdmi_hpd_in*%
%TA.AperFunction,SMDPad,CuDef*%
G36*
G01*
X157300000Y-101075000D02*
X157300000Y-100875000D01*
G75*
G02*
X157400000Y-100775000I100000J0D01*
G01*
X158675000Y-100775000D01*
G75*
G02*
X158775000Y-100875000I0J-100000D01*
G01*
X158775000Y-101075000D01*
G75*
G02*
X158675000Y-101175000I-100000J0D01*
G01*
X157400000Y-101175000D01*
G75*
G02*
X157300000Y-101075000I0J100000D01*
G01*
G37*
%TD.AperFunction*%
%TO.P,U1,6*%
%TO.N,hdmi_5v_in*%
%TA.AperFunction,SMDPad,CuDef*%
G36*
G01*
X157300000Y-100425000D02*
X157300000Y-100225000D01*
G75*
G02*
X157400000Y-100125000I100000J0D01*
G01*
X158675000Y-100125000D01*
G75*
G02*
X158775000Y-100225000I0J-100000D01*
G01*
X158775000Y-100425000D01*
G75*
G02*
X158675000Y-100525000I-100000J0D01*
G01*
X157400000Y-100525000D01*
G75*
G02*
X157300000Y-100425000I0J100000D01*
G01*
G37*
%TD.AperFunction*%
%TO.P,U1,5*%
%TO.N,+3V3*%
%TA.AperFunction,SMDPad,CuDef*%
G36*
G01*
X157300000Y-99775000D02*
X157300000Y-99575000D01*
G75*
G02*
X157400000Y-99475000I100000J0D01*
G01*
X158675000Y-99475000D01*
G75*
G02*
X158775000Y-99575000I0J-100000D01*
G01*
X158775000Y-99775000D01*
G75*
G02*
X158675000Y-99875000I-100000J0D01*
G01*
X157400000Y-99875000D01*
G75*
G02*
X157300000Y-99775000I0J100000D01*
G01*
G37*
%TD.AperFunction*%
%TO.P,U1,4*%
%TO.N,Net-(C1-Pad2)*%
%TA.AperFunction,SMDPad,CuDef*%
G36*
G01*
X157300000Y-99125000D02*
X157300000Y-98925000D01*
G75*
G02*
X157400000Y-98825000I100000J0D01*
G01*
X158675000Y-98825000D01*
G75*
G02*
X158775000Y-98925000I0J-100000D01*
G01*
X158775000Y-99125000D01*
G75*
G02*
X158675000Y-99225000I-100000J0D01*
G01*
X157400000Y-99225000D01*
G75*
G02*
X157300000Y-99125000I0J100000D01*
G01*
G37*
%TD.AperFunction*%
%TO.P,U1,3*%
%TO.N,i2c_scl*%
%TA.AperFunction,SMDPad,CuDef*%
G36*
G01*
X157300000Y-98475000D02*
X157300000Y-98275000D01*
G75*
G02*
X157400000Y-98175000I100000J0D01*
G01*
X158675000Y-98175000D01*
G75*
G02*
X158775000Y-98275000I0J-100000D01*
G01*
X158775000Y-98475000D01*
G75*
G02*
X158675000Y-98575000I-100000J0D01*
G01*
X157400000Y-98575000D01*
G75*
G02*
X157300000Y-98475000I0J100000D01*
G01*
G37*
%TD.AperFunction*%
%TO.P,U1,2*%
%TO.N,i2c_sda*%
%TA.AperFunction,SMDPad,CuDef*%
G36*
G01*
X157300000Y-97825000D02*
X157300000Y-97625000D01*
G75*
G02*
X157400000Y-97525000I100000J0D01*
G01*
X158675000Y-97525000D01*
G75*
G02*
X158775000Y-97625000I0J-100000D01*
G01*
X158775000Y-97825000D01*
G75*
G02*
X158675000Y-97925000I-100000J0D01*
G01*
X157400000Y-97925000D01*
G75*
G02*
X157300000Y-97825000I0J100000D01*
G01*
G37*
%TD.AperFunction*%
%TO.P,U1,1*%
%TO.N,hdmi_hpd_en*%
%TA.AperFunction,SMDPad,CuDef*%
G36*
G01*
X157300000Y-97175000D02*
X157300000Y-96975000D01*
G75*
G02*
X157400000Y-96875000I100000J0D01*
G01*
X158675000Y-96875000D01*
G75*
G02*
X158775000Y-96975000I0J-100000D01*
G01*
X158775000Y-97175000D01*
G75*
G02*
X158675000Y-97275000I-100000J0D01*
G01*
X157400000Y-97275000D01*
G75*
G02*
X157300000Y-97175000I0J100000D01*
G01*
G37*
%TD.AperFunction*%
%TD*%
D14*
%TO.P,U2,3*%
%TO.N,+5V*%
X170070000Y-108090000D03*
%TO.P,U2,2*%
%TO.N,+3V3*%
X168070000Y-109040000D03*
%TO.P,U2,1*%
%TO.N,GND*%
X168070000Y-107140000D03*
%TD*%
D17*
%TO.P,J5,1*%
%TO.N,+5V*%
X140830000Y-104447000D03*
D18*
%TO.P,J5,2*%
%TO.N,GND*%
X140830000Y-103177000D03*
%TO.P,J5,3*%
%TO.N,hdmi_cec*%
X140830000Y-101907000D03*
%TO.P,J5,4*%
%TO.N,hdmi_utility*%
X140830000Y-100637000D03*
%TO.P,J5,5*%
%TO.N,hdmi_scl*%
X140830000Y-99367000D03*
%TO.P,J5,6*%
%TO.N,hdmi_sda*%
X140830000Y-98097000D03*
%TO.P,J5,7*%
%TO.N,hdmi_5v*%
X140830000Y-96827000D03*
%TO.P,J5,8*%
%TO.N,hdmi_hpd*%
X140830000Y-95557000D03*
%TD*%
%TO.P,C1,1*%
%TO.N,GND*%
%TA.AperFunction,SMDPad,CuDef*%
G36*
G01*
X156740000Y-100265000D02*
X156400000Y-100265000D01*
G75*
G02*
X156260000Y-100125000I0J140000D01*
G01*
X156260000Y-99845000D01*
G75*
G02*
X156400000Y-99705000I140000J0D01*
G01*
X156740000Y-99705000D01*
G75*
G02*
X156880000Y-99845000I0J-140000D01*
G01*
X156880000Y-100125000D01*
G75*
G02*
X156740000Y-100265000I-140000J0D01*
G01*
G37*
%TD.AperFunction*%
%TO.P,C1,2*%
%TO.N,Net-(C1-Pad2)*%
%TA.AperFunction,SMDPad,CuDef*%
G36*
G01*
X156740000Y-99305000D02*
X156400000Y-99305000D01*
G75*
G02*
X156260000Y-99165000I0J140000D01*
G01*
X156260000Y-98885000D01*
G75*
G02*
X156400000Y-98745000I140000J0D01*
G01*
X156740000Y-98745000D01*
G75*
G02*
X156880000Y-98885000I0J-140000D01*
G01*
X156880000Y-99165000D01*
G75*
G02*
X156740000Y-99305000I-140000J0D01*
G01*
G37*
%TD.AperFunction*%
%TD*%
%TO.P,C2,2*%
%TO.N,+3V3*%
%TA.AperFunction,SMDPad,CuDef*%
G36*
G01*
X159160000Y-95770000D02*
X159500000Y-95770000D01*
G75*
G02*
X159640000Y-95910000I0J-140000D01*
G01*
X159640000Y-96190000D01*
G75*
G02*
X159500000Y-96330000I-140000J0D01*
G01*
X159160000Y-96330000D01*
G75*
G02*
X159020000Y-96190000I0J140000D01*
G01*
X159020000Y-95910000D01*
G75*
G02*
X159160000Y-95770000I140000J0D01*
G01*
G37*
%TD.AperFunction*%
%TO.P,C2,1*%
%TO.N,GND*%
%TA.AperFunction,SMDPad,CuDef*%
G36*
G01*
X159160000Y-94810000D02*
X159500000Y-94810000D01*
G75*
G02*
X159640000Y-94950000I0J-140000D01*
G01*
X159640000Y-95230000D01*
G75*
G02*
X159500000Y-95370000I-140000J0D01*
G01*
X159160000Y-95370000D01*
G75*
G02*
X159020000Y-95230000I0J140000D01*
G01*
X159020000Y-94950000D01*
G75*
G02*
X159160000Y-94810000I140000J0D01*
G01*
G37*
%TD.AperFunction*%
%TD*%
%TO.P,C3,1*%
%TO.N,GND*%
%TA.AperFunction,SMDPad,CuDef*%
G36*
G01*
X162300000Y-94810000D02*
X162640000Y-94810000D01*
G75*
G02*
X162780000Y-94950000I0J-140000D01*
G01*
X162780000Y-95230000D01*
G75*
G02*
X162640000Y-95370000I-140000J0D01*
G01*
X162300000Y-95370000D01*
G75*
G02*
X162160000Y-95230000I0J140000D01*
G01*
X162160000Y-94950000D01*
G75*
G02*
X162300000Y-94810000I140000J0D01*
G01*
G37*
%TD.AperFunction*%
%TO.P,C3,2*%
%TO.N,+3V3*%
%TA.AperFunction,SMDPad,CuDef*%
G36*
G01*
X162300000Y-95770000D02*
X162640000Y-95770000D01*
G75*
G02*
X162780000Y-95910000I0J-140000D01*
G01*
X162780000Y-96190000D01*
G75*
G02*
X162640000Y-96330000I-140000J0D01*
G01*
X162300000Y-96330000D01*
G75*
G02*
X162160000Y-96190000I0J140000D01*
G01*
X162160000Y-95910000D01*
G75*
G02*
X162300000Y-95770000I140000J0D01*
G01*
G37*
%TD.AperFunction*%
%TD*%
%TO.P,R1,2*%
%TO.N,Net-(J1-PadA5)*%
%TA.AperFunction,SMDPad,CuDef*%
G36*
G01*
X166015000Y-104150000D02*
X165645000Y-104150000D01*
G75*
G02*
X165510000Y-104015000I0J135000D01*
G01*
X165510000Y-103745000D01*
G75*
G02*
X165645000Y-103610000I135000J0D01*
G01*
X166015000Y-103610000D01*
G75*
G02*
X166150000Y-103745000I0J-135000D01*
G01*
X166150000Y-104015000D01*
G75*
G02*
X166015000Y-104150000I-135000J0D01*
G01*
G37*
%TD.AperFunction*%
%TO.P,R1,1*%
%TO.N,GND*%
%TA.AperFunction,SMDPad,CuDef*%
G36*
G01*
X166015000Y-105170000D02*
X165645000Y-105170000D01*
G75*
G02*
X165510000Y-105035000I0J135000D01*
G01*
X165510000Y-104765000D01*
G75*
G02*
X165645000Y-104630000I135000J0D01*
G01*
X166015000Y-104630000D01*
G75*
G02*
X166150000Y-104765000I0J-135000D01*
G01*
X166150000Y-105035000D01*
G75*
G02*
X166015000Y-105170000I-135000J0D01*
G01*
G37*
%TD.AperFunction*%
%TD*%
%TO.P,R2,1*%
%TO.N,GND*%
%TA.AperFunction,SMDPad,CuDef*%
G36*
G01*
X165645000Y-94830000D02*
X166015000Y-94830000D01*
G75*
G02*
X166150000Y-94965000I0J-135000D01*
G01*
X166150000Y-95235000D01*
G75*
G02*
X166015000Y-95370000I-135000J0D01*
G01*
X165645000Y-95370000D01*
G75*
G02*
X165510000Y-95235000I0J135000D01*
G01*
X165510000Y-94965000D01*
G75*
G02*
X165645000Y-94830000I135000J0D01*
G01*
G37*
%TD.AperFunction*%
%TO.P,R2,2*%
%TO.N,Net-(J1-PadB5)*%
%TA.AperFunction,SMDPad,CuDef*%
G36*
G01*
X165645000Y-95850000D02*
X166015000Y-95850000D01*
G75*
G02*
X166150000Y-95985000I0J-135000D01*
G01*
X166150000Y-96255000D01*
G75*
G02*
X166015000Y-96390000I-135000J0D01*
G01*
X165645000Y-96390000D01*
G75*
G02*
X165510000Y-96255000I0J135000D01*
G01*
X165510000Y-95985000D01*
G75*
G02*
X165645000Y-95850000I135000J0D01*
G01*
G37*
%TD.AperFunction*%
%TD*%
%TO.P,R3,2*%
%TO.N,GND*%
%TA.AperFunction,SMDPad,CuDef*%
G36*
G01*
X158222500Y-95330000D02*
X157852500Y-95330000D01*
G75*
G02*
X157717500Y-95195000I0J135000D01*
G01*
X157717500Y-94925000D01*
G75*
G02*
X157852500Y-94790000I135000J0D01*
G01*
X158222500Y-94790000D01*
G75*
G02*
X158357500Y-94925000I0J-135000D01*
G01*
X158357500Y-95195000D01*
G75*
G02*
X158222500Y-95330000I-135000J0D01*
G01*
G37*
%TD.AperFunction*%
%TO.P,R3,1*%
%TO.N,hdmi_hpd_en*%
%TA.AperFunction,SMDPad,CuDef*%
G36*
G01*
X158222500Y-96350000D02*
X157852500Y-96350000D01*
G75*
G02*
X157717500Y-96215000I0J135000D01*
G01*
X157717500Y-95945000D01*
G75*
G02*
X157852500Y-95810000I135000J0D01*
G01*
X158222500Y-95810000D01*
G75*
G02*
X158357500Y-95945000I0J-135000D01*
G01*
X158357500Y-96215000D01*
G75*
G02*
X158222500Y-96350000I-135000J0D01*
G01*
G37*
%TD.AperFunction*%
%TD*%
%TO.P,R6,2*%
%TO.N,hdmi_scl*%
%TA.AperFunction,SMDPad,CuDef*%
G36*
G01*
X145640000Y-103355000D02*
X145640000Y-103725000D01*
G75*
G02*
X145505000Y-103860000I-135000J0D01*
G01*
X145235000Y-103860000D01*
G75*
G02*
X145100000Y-103725000I0J135000D01*
G01*
X145100000Y-103355000D01*
G75*
G02*
X145235000Y-103220000I135000J0D01*
G01*
X145505000Y-103220000D01*
G75*
G02*
X145640000Y-103355000I0J-135000D01*
G01*
G37*
%TD.AperFunction*%
%TO.P,R6,1*%
%TO.N,+5V*%
%TA.AperFunction,SMDPad,CuDef*%
G36*
G01*
X146660000Y-103355000D02*
X146660000Y-103725000D01*
G75*
G02*
X146525000Y-103860000I-135000J0D01*
G01*
X146255000Y-103860000D01*
G75*
G02*
X146120000Y-103725000I0J135000D01*
G01*
X146120000Y-103355000D01*
G75*
G02*
X146255000Y-103220000I135000J0D01*
G01*
X146525000Y-103220000D01*
G75*
G02*
X146660000Y-103355000I0J-135000D01*
G01*
G37*
%TD.AperFunction*%
%TD*%
%TO.P,R7,1*%
%TO.N,+5V*%
%TA.AperFunction,SMDPad,CuDef*%
G36*
G01*
X146660000Y-106275000D02*
X146660000Y-106645000D01*
G75*
G02*
X146525000Y-106780000I-135000J0D01*
G01*
X146255000Y-106780000D01*
G75*
G02*
X146120000Y-106645000I0J135000D01*
G01*
X146120000Y-106275000D01*
G75*
G02*
X146255000Y-106140000I135000J0D01*
G01*
X146525000Y-106140000D01*
G75*
G02*
X146660000Y-106275000I0J-135000D01*
G01*
G37*
%TD.AperFunction*%
%TO.P,R7,2*%
%TO.N,hdmi_sda*%
%TA.AperFunction,SMDPad,CuDef*%
G36*
G01*
X145640000Y-106275000D02*
X145640000Y-106645000D01*
G75*
G02*
X145505000Y-106780000I-135000J0D01*
G01*
X145235000Y-106780000D01*
G75*
G02*
X145100000Y-106645000I0J135000D01*
G01*
X145100000Y-106275000D01*
G75*
G02*
X145235000Y-106140000I135000J0D01*
G01*
X145505000Y-106140000D01*
G75*
G02*
X145640000Y-106275000I0J-135000D01*
G01*
G37*
%TD.AperFunction*%
%TD*%
%TO.P,R10,2*%
%TO.N,hdmi_5v_in*%
%TA.AperFunction,SMDPad,CuDef*%
G36*
G01*
X146100000Y-96470000D02*
X146100000Y-96100000D01*
G75*
G02*
X146235000Y-95965000I135000J0D01*
G01*
X146505000Y-95965000D01*
G75*
G02*
X146640000Y-96100000I0J-135000D01*
G01*
X146640000Y-96470000D01*
G75*
G02*
X146505000Y-96605000I-135000J0D01*
G01*
X146235000Y-96605000D01*
G75*
G02*
X146100000Y-96470000I0J135000D01*
G01*
G37*
%TD.AperFunction*%
%TO.P,R10,1*%
%TO.N,hdmi_5v*%
%TA.AperFunction,SMDPad,CuDef*%
G36*
G01*
X145080000Y-96470000D02*
X145080000Y-96100000D01*
G75*
G02*
X145215000Y-95965000I135000J0D01*
G01*
X145485000Y-95965000D01*
G75*
G02*
X145620000Y-96100000I0J-135000D01*
G01*
X145620000Y-96470000D01*
G75*
G02*
X145485000Y-96605000I-135000J0D01*
G01*
X145215000Y-96605000D01*
G75*
G02*
X145080000Y-96470000I0J135000D01*
G01*
G37*
%TD.AperFunction*%
%TD*%
%TO.P,R11,1*%
%TO.N,hdmi_5v_in*%
%TA.AperFunction,SMDPad,CuDef*%
G36*
G01*
X146640000Y-97080000D02*
X146640000Y-97450000D01*
G75*
G02*
X146505000Y-97585000I-135000J0D01*
G01*
X146235000Y-97585000D01*
G75*
G02*
X146100000Y-97450000I0J135000D01*
G01*
X146100000Y-97080000D01*
G75*
G02*
X146235000Y-96945000I135000J0D01*
G01*
X146505000Y-96945000D01*
G75*
G02*
X146640000Y-97080000I0J-135000D01*
G01*
G37*
%TD.AperFunction*%
%TO.P,R11,2*%
%TO.N,GND*%
%TA.AperFunction,SMDPad,CuDef*%
G36*
G01*
X145620000Y-97080000D02*
X145620000Y-97450000D01*
G75*
G02*
X145485000Y-97585000I-135000J0D01*
G01*
X145215000Y-97585000D01*
G75*
G02*
X145080000Y-97450000I0J135000D01*
G01*
X145080000Y-97080000D01*
G75*
G02*
X145215000Y-96945000I135000J0D01*
G01*
X145485000Y-96945000D01*
G75*
G02*
X145620000Y-97080000I0J-135000D01*
G01*
G37*
%TD.AperFunction*%
%TD*%
%TO.P,R14,1*%
%TO.N,+3V3*%
%TA.AperFunction,SMDPad,CuDef*%
G36*
G01*
X160225000Y-106910000D02*
X159855000Y-106910000D01*
G75*
G02*
X159720000Y-106775000I0J135000D01*
G01*
X159720000Y-106505000D01*
G75*
G02*
X159855000Y-106370000I135000J0D01*
G01*
X160225000Y-106370000D01*
G75*
G02*
X160360000Y-106505000I0J-135000D01*
G01*
X160360000Y-106775000D01*
G75*
G02*
X160225000Y-106910000I-135000J0D01*
G01*
G37*
%TD.AperFunction*%
%TO.P,R14,2*%
%TO.N,hdmi_cec_in*%
%TA.AperFunction,SMDPad,CuDef*%
G36*
G01*
X160225000Y-105890000D02*
X159855000Y-105890000D01*
G75*
G02*
X159720000Y-105755000I0J135000D01*
G01*
X159720000Y-105485000D01*
G75*
G02*
X159855000Y-105350000I135000J0D01*
G01*
X160225000Y-105350000D01*
G75*
G02*
X160360000Y-105485000I0J-135000D01*
G01*
X160360000Y-105755000D01*
G75*
G02*
X160225000Y-105890000I-135000J0D01*
G01*
G37*
%TD.AperFunction*%
%TD*%
%TO.P,R15,2*%
%TO.N,hdmi_hpd_in*%
%TA.AperFunction,SMDPad,CuDef*%
G36*
G01*
X146100000Y-93555000D02*
X146100000Y-93185000D01*
G75*
G02*
X146235000Y-93050000I135000J0D01*
G01*
X146505000Y-93050000D01*
G75*
G02*
X146640000Y-93185000I0J-135000D01*
G01*
X146640000Y-93555000D01*
G75*
G02*
X146505000Y-93690000I-135000J0D01*
G01*
X146235000Y-93690000D01*
G75*
G02*
X146100000Y-93555000I0J135000D01*
G01*
G37*
%TD.AperFunction*%
%TO.P,R15,1*%
%TO.N,hdmi_hpd*%
%TA.AperFunction,SMDPad,CuDef*%
G36*
G01*
X145080000Y-93555000D02*
X145080000Y-93185000D01*
G75*
G02*
X145215000Y-93050000I135000J0D01*
G01*
X145485000Y-93050000D01*
G75*
G02*
X145620000Y-93185000I0J-135000D01*
G01*
X145620000Y-93555000D01*
G75*
G02*
X145485000Y-93690000I-135000J0D01*
G01*
X145215000Y-93690000D01*
G75*
G02*
X145080000Y-93555000I0J135000D01*
G01*
G37*
%TD.AperFunction*%
%TD*%
%TO.P,R16,1*%
%TO.N,hdmi_hpd_in*%
%TA.AperFunction,SMDPad,CuDef*%
G36*
G01*
X146640000Y-92215000D02*
X146640000Y-92585000D01*
G75*
G02*
X146505000Y-92720000I-135000J0D01*
G01*
X146235000Y-92720000D01*
G75*
G02*
X146100000Y-92585000I0J135000D01*
G01*
X146100000Y-92215000D01*
G75*
G02*
X146235000Y-92080000I135000J0D01*
G01*
X146505000Y-92080000D01*
G75*
G02*
X146640000Y-92215000I0J-135000D01*
G01*
G37*
%TD.AperFunction*%
%TO.P,R16,2*%
%TO.N,GND*%
%TA.AperFunction,SMDPad,CuDef*%
G36*
G01*
X145620000Y-92215000D02*
X145620000Y-92585000D01*
G75*
G02*
X145485000Y-92720000I-135000J0D01*
G01*
X145215000Y-92720000D01*
G75*
G02*
X145080000Y-92585000I0J135000D01*
G01*
X145080000Y-92215000D01*
G75*
G02*
X145215000Y-92080000I135000J0D01*
G01*
X145485000Y-92080000D01*
G75*
G02*
X145620000Y-92215000I0J-135000D01*
G01*
G37*
%TD.AperFunction*%
%TD*%
D19*
%TO.P,D2,2*%
%TO.N,GND*%
X165600000Y-97700000D03*
%TO.P,D2,1*%
%TO.N,usb_dp*%
X165600000Y-99100000D03*
%TD*%
%TO.P,D3,1*%
%TO.N,usb_dm*%
X165600000Y-100900000D03*
%TO.P,D3,2*%
%TO.N,GND*%
X165600000Y-102300000D03*
%TD*%
%TO.P,D4,1*%
%TO.N,GND*%
%TA.AperFunction,SMDPad,CuDef*%
G36*
G01*
X168970000Y-105647500D02*
X168970000Y-105992500D01*
G75*
G02*
X168822500Y-106140000I-147500J0D01*
G01*
X168527500Y-106140000D01*
G75*
G02*
X168380000Y-105992500I0J147500D01*
G01*
X168380000Y-105647500D01*
G75*
G02*
X168527500Y-105500000I147500J0D01*
G01*
X168822500Y-105500000D01*
G75*
G02*
X168970000Y-105647500I0J-147500D01*
G01*
G37*
%TD.AperFunction*%
%TO.P,D4,2*%
%TO.N,Net-(D4-Pad2)*%
%TA.AperFunction,SMDPad,CuDef*%
G36*
G01*
X168000000Y-105647500D02*
X168000000Y-105992500D01*
G75*
G02*
X167852500Y-106140000I-147500J0D01*
G01*
X167557500Y-106140000D01*
G75*
G02*
X167410000Y-105992500I0J147500D01*
G01*
X167410000Y-105647500D01*
G75*
G02*
X167557500Y-105500000I147500J0D01*
G01*
X167852500Y-105500000D01*
G75*
G02*
X168000000Y-105647500I0J-147500D01*
G01*
G37*
%TD.AperFunction*%
%TD*%
%TO.P,R8,1*%
%TO.N,Net-(R8-Pad1)*%
%TA.AperFunction,SMDPad,CuDef*%
G36*
G01*
X165510000Y-106005000D02*
X165510000Y-105635000D01*
G75*
G02*
X165645000Y-105500000I135000J0D01*
G01*
X165915000Y-105500000D01*
G75*
G02*
X166050000Y-105635000I0J-135000D01*
G01*
X166050000Y-106005000D01*
G75*
G02*
X165915000Y-106140000I-135000J0D01*
G01*
X165645000Y-106140000D01*
G75*
G02*
X165510000Y-106005000I0J135000D01*
G01*
G37*
%TD.AperFunction*%
%TO.P,R8,2*%
%TO.N,Net-(D4-Pad2)*%
%TA.AperFunction,SMDPad,CuDef*%
G36*
G01*
X166530000Y-106005000D02*
X166530000Y-105635000D01*
G75*
G02*
X166665000Y-105500000I135000J0D01*
G01*
X166935000Y-105500000D01*
G75*
G02*
X167070000Y-105635000I0J-135000D01*
G01*
X167070000Y-106005000D01*
G75*
G02*
X166935000Y-106140000I-135000J0D01*
G01*
X166665000Y-106140000D01*
G75*
G02*
X166530000Y-106005000I0J135000D01*
G01*
G37*
%TD.AperFunction*%
%TD*%
%TO.P,D6,1*%
%TO.N,GND*%
%TA.AperFunction,SMDPad,CuDef*%
G36*
G01*
X168980000Y-93997500D02*
X168980000Y-94342500D01*
G75*
G02*
X168832500Y-94490000I-147500J0D01*
G01*
X168537500Y-94490000D01*
G75*
G02*
X168390000Y-94342500I0J147500D01*
G01*
X168390000Y-93997500D01*
G75*
G02*
X168537500Y-93850000I147500J0D01*
G01*
X168832500Y-93850000D01*
G75*
G02*
X168980000Y-93997500I0J-147500D01*
G01*
G37*
%TD.AperFunction*%
%TO.P,D6,2*%
%TO.N,Net-(D6-Pad2)*%
%TA.AperFunction,SMDPad,CuDef*%
G36*
G01*
X168010000Y-93997500D02*
X168010000Y-94342500D01*
G75*
G02*
X167862500Y-94490000I-147500J0D01*
G01*
X167567500Y-94490000D01*
G75*
G02*
X167420000Y-94342500I0J147500D01*
G01*
X167420000Y-93997500D01*
G75*
G02*
X167567500Y-93850000I147500J0D01*
G01*
X167862500Y-93850000D01*
G75*
G02*
X168010000Y-93997500I0J-147500D01*
G01*
G37*
%TD.AperFunction*%
%TD*%
%TO.P,R12,1*%
%TO.N,Net-(R12-Pad1)*%
%TA.AperFunction,SMDPad,CuDef*%
G36*
G01*
X165510000Y-94355000D02*
X165510000Y-93985000D01*
G75*
G02*
X165645000Y-93850000I135000J0D01*
G01*
X165915000Y-93850000D01*
G75*
G02*
X166050000Y-93985000I0J-135000D01*
G01*
X166050000Y-94355000D01*
G75*
G02*
X165915000Y-94490000I-135000J0D01*
G01*
X165645000Y-94490000D01*
G75*
G02*
X165510000Y-94355000I0J135000D01*
G01*
G37*
%TD.AperFunction*%
%TO.P,R12,2*%
%TO.N,Net-(D6-Pad2)*%
%TA.AperFunction,SMDPad,CuDef*%
G36*
G01*
X166530000Y-94355000D02*
X166530000Y-93985000D01*
G75*
G02*
X166665000Y-93850000I135000J0D01*
G01*
X166935000Y-93850000D01*
G75*
G02*
X167070000Y-93985000I0J-135000D01*
G01*
X167070000Y-94355000D01*
G75*
G02*
X166935000Y-94490000I-135000J0D01*
G01*
X166665000Y-94490000D01*
G75*
G02*
X166530000Y-94355000I0J135000D01*
G01*
G37*
%TD.AperFunction*%
%TD*%
%TO.P,D5,2*%
%TO.N,GND*%
X173510000Y-108790000D03*
%TO.P,D5,1*%
%TO.N,+5V*%
X173510000Y-107390000D03*
%TD*%
D20*
%TO.P,J4,1*%
%TO.N,GND*%
X172200000Y-91800000D03*
D21*
%TO.P,J4,2*%
%TO.N,swdio*%
X169660000Y-91800000D03*
%TO.P,J4,3*%
%TO.N,swclk*%
X167120000Y-91800000D03*
%TO.P,J4,4*%
%TO.N,GND*%
X164580000Y-91800000D03*
%TO.P,J4,5*%
%TO.N,uart_rx*%
X162040000Y-91800000D03*
%TO.P,J4,6*%
%TO.N,uart_tx*%
X159500000Y-91800000D03*
%TD*%
D19*
%TO.P,D1,1*%
%TO.N,hdmi_hpd*%
X138540000Y-104296000D03*
%TO.P,D1,2*%
%TO.N,GND*%
X138540000Y-102896000D03*
%TD*%
%TO.P,D7,1*%
%TO.N,hdmi_5v*%
X137110000Y-104296000D03*
%TO.P,D7,2*%
%TO.N,GND*%
X137110000Y-102896000D03*
%TD*%
%TO.P,D8,2*%
%TO.N,GND*%
X134240000Y-102896000D03*
%TO.P,D8,1*%
%TO.N,hdmi_scl*%
X134240000Y-104296000D03*
%TD*%
%TO.P,D9,1*%
%TO.N,hdmi_sda*%
X135680000Y-104296000D03*
%TO.P,D9,2*%
%TO.N,GND*%
X135680000Y-102896000D03*
%TD*%
%TO.P,D10,2*%
%TO.N,GND*%
X132810000Y-102896000D03*
%TO.P,D10,1*%
%TO.N,hdmi_cec*%
X132810000Y-104296000D03*
%TD*%
D22*
%TO.P,Q1,1*%
%TO.N,+3V3*%
X151300000Y-100950000D03*
%TO.P,Q1,2*%
%TO.N,i2c_sda*%
X151300000Y-100000000D03*
%TO.P,Q1,3*%
%TO.N,+3V3*%
X151300000Y-99050000D03*
%TO.P,Q1,4*%
%TO.N,hdmi_sda*%
X148700000Y-99050000D03*
%TO.P,Q1,6*%
%TO.N,hdmi_scl*%
X148700000Y-100950000D03*
%TO.P,Q1,5*%
%TO.N,i2c_scl*%
X148700000Y-100000000D03*
%TD*%
%TO.P,R5,2*%
%TO.N,i2c_sda*%
%TA.AperFunction,SMDPad,CuDef*%
G36*
G01*
X152745000Y-98610000D02*
X152375000Y-98610000D01*
G75*
G02*
X152240000Y-98475000I0J135000D01*
G01*
X152240000Y-98205000D01*
G75*
G02*
X152375000Y-98070000I135000J0D01*
G01*
X152745000Y-98070000D01*
G75*
G02*
X152880000Y-98205000I0J-135000D01*
G01*
X152880000Y-98475000D01*
G75*
G02*
X152745000Y-98610000I-135000J0D01*
G01*
G37*
%TD.AperFunction*%
%TO.P,R5,1*%
%TO.N,+3V3*%
%TA.AperFunction,SMDPad,CuDef*%
G36*
G01*
X152745000Y-99630000D02*
X152375000Y-99630000D01*
G75*
G02*
X152240000Y-99495000I0J135000D01*
G01*
X152240000Y-99225000D01*
G75*
G02*
X152375000Y-99090000I135000J0D01*
G01*
X152745000Y-99090000D01*
G75*
G02*
X152880000Y-99225000I0J-135000D01*
G01*
X152880000Y-99495000D01*
G75*
G02*
X152745000Y-99630000I-135000J0D01*
G01*
G37*
%TD.AperFunction*%
%TD*%
%TO.P,R9,1*%
%TO.N,Net-(R9-Pad1)*%
%TA.AperFunction,SMDPad,CuDef*%
G36*
G01*
X146640000Y-94165000D02*
X146640000Y-94535000D01*
G75*
G02*
X146505000Y-94670000I-135000J0D01*
G01*
X146235000Y-94670000D01*
G75*
G02*
X146100000Y-94535000I0J135000D01*
G01*
X146100000Y-94165000D01*
G75*
G02*
X146235000Y-94030000I135000J0D01*
G01*
X146505000Y-94030000D01*
G75*
G02*
X146640000Y-94165000I0J-135000D01*
G01*
G37*
%TD.AperFunction*%
%TO.P,R9,2*%
%TO.N,hdmi_hpd*%
%TA.AperFunction,SMDPad,CuDef*%
G36*
G01*
X145620000Y-94165000D02*
X145620000Y-94535000D01*
G75*
G02*
X145485000Y-94670000I-135000J0D01*
G01*
X145215000Y-94670000D01*
G75*
G02*
X145080000Y-94535000I0J135000D01*
G01*
X145080000Y-94165000D01*
G75*
G02*
X145215000Y-94030000I135000J0D01*
G01*
X145485000Y-94030000D01*
G75*
G02*
X145620000Y-94165000I0J-135000D01*
G01*
G37*
%TD.AperFunction*%
%TD*%
%TO.P,R17,2*%
%TO.N,hdmi_sda*%
%TA.AperFunction,SMDPad,CuDef*%
G36*
G01*
X145640000Y-105305000D02*
X145640000Y-105675000D01*
G75*
G02*
X145505000Y-105810000I-135000J0D01*
G01*
X145235000Y-105810000D01*
G75*
G02*
X145100000Y-105675000I0J135000D01*
G01*
X145100000Y-105305000D01*
G75*
G02*
X145235000Y-105170000I135000J0D01*
G01*
X145505000Y-105170000D01*
G75*
G02*
X145640000Y-105305000I0J-135000D01*
G01*
G37*
%TD.AperFunction*%
%TO.P,R17,1*%
%TO.N,Net-(R17-Pad1)*%
%TA.AperFunction,SMDPad,CuDef*%
G36*
G01*
X146660000Y-105305000D02*
X146660000Y-105675000D01*
G75*
G02*
X146525000Y-105810000I-135000J0D01*
G01*
X146255000Y-105810000D01*
G75*
G02*
X146120000Y-105675000I0J135000D01*
G01*
X146120000Y-105305000D01*
G75*
G02*
X146255000Y-105170000I135000J0D01*
G01*
X146525000Y-105170000D01*
G75*
G02*
X146660000Y-105305000I0J-135000D01*
G01*
G37*
%TD.AperFunction*%
%TD*%
%TO.P,R18,1*%
%TO.N,Net-(R18-Pad1)*%
%TA.AperFunction,SMDPad,CuDef*%
G36*
G01*
X146660000Y-104325000D02*
X146660000Y-104695000D01*
G75*
G02*
X146525000Y-104830000I-135000J0D01*
G01*
X146255000Y-104830000D01*
G75*
G02*
X146120000Y-104695000I0J135000D01*
G01*
X146120000Y-104325000D01*
G75*
G02*
X146255000Y-104190000I135000J0D01*
G01*
X146525000Y-104190000D01*
G75*
G02*
X146660000Y-104325000I0J-135000D01*
G01*
G37*
%TD.AperFunction*%
%TO.P,R18,2*%
%TO.N,hdmi_scl*%
%TA.AperFunction,SMDPad,CuDef*%
G36*
G01*
X145640000Y-104325000D02*
X145640000Y-104695000D01*
G75*
G02*
X145505000Y-104830000I-135000J0D01*
G01*
X145235000Y-104830000D01*
G75*
G02*
X145100000Y-104695000I0J135000D01*
G01*
X145100000Y-104325000D01*
G75*
G02*
X145235000Y-104190000I135000J0D01*
G01*
X145505000Y-104190000D01*
G75*
G02*
X145640000Y-104325000I0J-135000D01*
G01*
G37*
%TD.AperFunction*%
%TD*%
%TO.P,C6,1*%
%TO.N,GND*%
%TA.AperFunction,SMDPad,CuDef*%
G36*
G01*
X153840000Y-96600000D02*
X153500000Y-96600000D01*
G75*
G02*
X153360000Y-96460000I0J140000D01*
G01*
X153360000Y-96180000D01*
G75*
G02*
X153500000Y-96040000I140000J0D01*
G01*
X153840000Y-96040000D01*
G75*
G02*
X153980000Y-96180000I0J-140000D01*
G01*
X153980000Y-96460000D01*
G75*
G02*
X153840000Y-96600000I-140000J0D01*
G01*
G37*
%TD.AperFunction*%
%TO.P,C6,2*%
%TO.N,+5V*%
%TA.AperFunction,SMDPad,CuDef*%
G36*
G01*
X153840000Y-95640000D02*
X153500000Y-95640000D01*
G75*
G02*
X153360000Y-95500000I0J140000D01*
G01*
X153360000Y-95220000D01*
G75*
G02*
X153500000Y-95080000I140000J0D01*
G01*
X153840000Y-95080000D01*
G75*
G02*
X153980000Y-95220000I0J-140000D01*
G01*
X153980000Y-95500000D01*
G75*
G02*
X153840000Y-95640000I-140000J0D01*
G01*
G37*
%TD.AperFunction*%
%TD*%
%TO.P,C7,2*%
%TO.N,+5V*%
%TA.AperFunction,SMDPad,CuDef*%
G36*
G01*
X153830000Y-105450000D02*
X153490000Y-105450000D01*
G75*
G02*
X153350000Y-105310000I0J140000D01*
G01*
X153350000Y-105030000D01*
G75*
G02*
X153490000Y-104890000I140000J0D01*
G01*
X153830000Y-104890000D01*
G75*
G02*
X153970000Y-105030000I0J-140000D01*
G01*
X153970000Y-105310000D01*
G75*
G02*
X153830000Y-105450000I-140000J0D01*
G01*
G37*
%TD.AperFunction*%
%TO.P,C7,1*%
%TO.N,GND*%
%TA.AperFunction,SMDPad,CuDef*%
G36*
G01*
X153830000Y-106410000D02*
X153490000Y-106410000D01*
G75*
G02*
X153350000Y-106270000I0J140000D01*
G01*
X153350000Y-105990000D01*
G75*
G02*
X153490000Y-105850000I140000J0D01*
G01*
X153830000Y-105850000D01*
G75*
G02*
X153970000Y-105990000I0J-140000D01*
G01*
X153970000Y-106270000D01*
G75*
G02*
X153830000Y-106410000I-140000J0D01*
G01*
G37*
%TD.AperFunction*%
%TD*%
%TO.P,U3,8*%
%TO.N,N/C*%
%TA.AperFunction,SMDPad,CuDef*%
G36*
G01*
X148690000Y-95875000D02*
X148690000Y-96075000D01*
G75*
G02*
X148590000Y-96175000I-100000J0D01*
G01*
X147165000Y-96175000D01*
G75*
G02*
X147065000Y-96075000I0J100000D01*
G01*
X147065000Y-95875000D01*
G75*
G02*
X147165000Y-95775000I100000J0D01*
G01*
X148590000Y-95775000D01*
G75*
G02*
X148690000Y-95875000I0J-100000D01*
G01*
G37*
%TD.AperFunction*%
%TO.P,U3,7*%
%TO.N,hdmi_5v*%
%TA.AperFunction,SMDPad,CuDef*%
G36*
G01*
X148690000Y-95225000D02*
X148690000Y-95425000D01*
G75*
G02*
X148590000Y-95525000I-100000J0D01*
G01*
X147165000Y-95525000D01*
G75*
G02*
X147065000Y-95425000I0J100000D01*
G01*
X147065000Y-95225000D01*
G75*
G02*
X147165000Y-95125000I100000J0D01*
G01*
X148590000Y-95125000D01*
G75*
G02*
X148690000Y-95225000I0J-100000D01*
G01*
G37*
%TD.AperFunction*%
%TO.P,U3,6*%
%TO.N,Net-(R9-Pad1)*%
%TA.AperFunction,SMDPad,CuDef*%
G36*
G01*
X148690000Y-94575000D02*
X148690000Y-94775000D01*
G75*
G02*
X148590000Y-94875000I-100000J0D01*
G01*
X147165000Y-94875000D01*
G75*
G02*
X147065000Y-94775000I0J100000D01*
G01*
X147065000Y-94575000D01*
G75*
G02*
X147165000Y-94475000I100000J0D01*
G01*
X148590000Y-94475000D01*
G75*
G02*
X148690000Y-94575000I0J-100000D01*
G01*
G37*
%TD.AperFunction*%
%TO.P,U3,5*%
%TO.N,N/C*%
%TA.AperFunction,SMDPad,CuDef*%
G36*
G01*
X148690000Y-93925000D02*
X148690000Y-94125000D01*
G75*
G02*
X148590000Y-94225000I-100000J0D01*
G01*
X147165000Y-94225000D01*
G75*
G02*
X147065000Y-94125000I0J100000D01*
G01*
X147065000Y-93925000D01*
G75*
G02*
X147165000Y-93825000I100000J0D01*
G01*
X148590000Y-93825000D01*
G75*
G02*
X148690000Y-93925000I0J-100000D01*
G01*
G37*
%TD.AperFunction*%
%TO.P,U3,4*%
%TO.N,hdmi_hpd_en*%
%TA.AperFunction,SMDPad,CuDef*%
G36*
G01*
X152915000Y-93925000D02*
X152915000Y-94125000D01*
G75*
G02*
X152815000Y-94225000I-100000J0D01*
G01*
X151390000Y-94225000D01*
G75*
G02*
X151290000Y-94125000I0J100000D01*
G01*
X151290000Y-93925000D01*
G75*
G02*
X151390000Y-93825000I100000J0D01*
G01*
X152815000Y-93825000D01*
G75*
G02*
X152915000Y-93925000I0J-100000D01*
G01*
G37*
%TD.AperFunction*%
%TO.P,U3,3*%
%TO.N,hdmi_5v_en*%
%TA.AperFunction,SMDPad,CuDef*%
G36*
G01*
X152915000Y-94575000D02*
X152915000Y-94775000D01*
G75*
G02*
X152815000Y-94875000I-100000J0D01*
G01*
X151390000Y-94875000D01*
G75*
G02*
X151290000Y-94775000I0J100000D01*
G01*
X151290000Y-94575000D01*
G75*
G02*
X151390000Y-94475000I100000J0D01*
G01*
X152815000Y-94475000D01*
G75*
G02*
X152915000Y-94575000I0J-100000D01*
G01*
G37*
%TD.AperFunction*%
%TO.P,U3,2*%
%TO.N,+5V*%
%TA.AperFunction,SMDPad,CuDef*%
G36*
G01*
X152915000Y-95225000D02*
X152915000Y-95425000D01*
G75*
G02*
X152815000Y-95525000I-100000J0D01*
G01*
X151390000Y-95525000D01*
G75*
G02*
X151290000Y-95425000I0J100000D01*
G01*
X151290000Y-95225000D01*
G75*
G02*
X151390000Y-95125000I100000J0D01*
G01*
X152815000Y-95125000D01*
G75*
G02*
X152915000Y-95225000I0J-100000D01*
G01*
G37*
%TD.AperFunction*%
%TO.P,U3,1*%
%TO.N,GND*%
%TA.AperFunction,SMDPad,CuDef*%
G36*
G01*
X152915000Y-95875000D02*
X152915000Y-96075000D01*
G75*
G02*
X152815000Y-96175000I-100000J0D01*
G01*
X151390000Y-96175000D01*
G75*
G02*
X151290000Y-96075000I0J100000D01*
G01*
X151290000Y-95875000D01*
G75*
G02*
X151390000Y-95775000I100000J0D01*
G01*
X152815000Y-95775000D01*
G75*
G02*
X152915000Y-95875000I0J-100000D01*
G01*
G37*
%TD.AperFunction*%
%TD*%
%TO.P,U4,1*%
%TO.N,GND*%
%TA.AperFunction,SMDPad,CuDef*%
G36*
G01*
X152925000Y-105875000D02*
X152925000Y-106075000D01*
G75*
G02*
X152825000Y-106175000I-100000J0D01*
G01*
X151400000Y-106175000D01*
G75*
G02*
X151300000Y-106075000I0J100000D01*
G01*
X151300000Y-105875000D01*
G75*
G02*
X151400000Y-105775000I100000J0D01*
G01*
X152825000Y-105775000D01*
G75*
G02*
X152925000Y-105875000I0J-100000D01*
G01*
G37*
%TD.AperFunction*%
%TO.P,U4,2*%
%TO.N,+5V*%
%TA.AperFunction,SMDPad,CuDef*%
G36*
G01*
X152925000Y-105225000D02*
X152925000Y-105425000D01*
G75*
G02*
X152825000Y-105525000I-100000J0D01*
G01*
X151400000Y-105525000D01*
G75*
G02*
X151300000Y-105425000I0J100000D01*
G01*
X151300000Y-105225000D01*
G75*
G02*
X151400000Y-105125000I100000J0D01*
G01*
X152825000Y-105125000D01*
G75*
G02*
X152925000Y-105225000I0J-100000D01*
G01*
G37*
%TD.AperFunction*%
%TO.P,U4,3*%
%TO.N,hdmi_5v_en*%
%TA.AperFunction,SMDPad,CuDef*%
G36*
G01*
X152925000Y-104575000D02*
X152925000Y-104775000D01*
G75*
G02*
X152825000Y-104875000I-100000J0D01*
G01*
X151400000Y-104875000D01*
G75*
G02*
X151300000Y-104775000I0J100000D01*
G01*
X151300000Y-104575000D01*
G75*
G02*
X151400000Y-104475000I100000J0D01*
G01*
X152825000Y-104475000D01*
G75*
G02*
X152925000Y-104575000I0J-100000D01*
G01*
G37*
%TD.AperFunction*%
%TO.P,U4,4*%
%TA.AperFunction,SMDPad,CuDef*%
G36*
G01*
X152925000Y-103925000D02*
X152925000Y-104125000D01*
G75*
G02*
X152825000Y-104225000I-100000J0D01*
G01*
X151400000Y-104225000D01*
G75*
G02*
X151300000Y-104125000I0J100000D01*
G01*
X151300000Y-103925000D01*
G75*
G02*
X151400000Y-103825000I100000J0D01*
G01*
X152825000Y-103825000D01*
G75*
G02*
X152925000Y-103925000I0J-100000D01*
G01*
G37*
%TD.AperFunction*%
%TO.P,U4,5*%
%TO.N,N/C*%
%TA.AperFunction,SMDPad,CuDef*%
G36*
G01*
X148700000Y-103925000D02*
X148700000Y-104125000D01*
G75*
G02*
X148600000Y-104225000I-100000J0D01*
G01*
X147175000Y-104225000D01*
G75*
G02*
X147075000Y-104125000I0J100000D01*
G01*
X147075000Y-103925000D01*
G75*
G02*
X147175000Y-103825000I100000J0D01*
G01*
X148600000Y-103825000D01*
G75*
G02*
X148700000Y-103925000I0J-100000D01*
G01*
G37*
%TD.AperFunction*%
%TO.P,U4,6*%
%TO.N,Net-(R18-Pad1)*%
%TA.AperFunction,SMDPad,CuDef*%
G36*
G01*
X148700000Y-104575000D02*
X148700000Y-104775000D01*
G75*
G02*
X148600000Y-104875000I-100000J0D01*
G01*
X147175000Y-104875000D01*
G75*
G02*
X147075000Y-104775000I0J100000D01*
G01*
X147075000Y-104575000D01*
G75*
G02*
X147175000Y-104475000I100000J0D01*
G01*
X148600000Y-104475000D01*
G75*
G02*
X148700000Y-104575000I0J-100000D01*
G01*
G37*
%TD.AperFunction*%
%TO.P,U4,7*%
%TO.N,Net-(R17-Pad1)*%
%TA.AperFunction,SMDPad,CuDef*%
G36*
G01*
X148700000Y-105225000D02*
X148700000Y-105425000D01*
G75*
G02*
X148600000Y-105525000I-100000J0D01*
G01*
X147175000Y-105525000D01*
G75*
G02*
X147075000Y-105425000I0J100000D01*
G01*
X147075000Y-105225000D01*
G75*
G02*
X147175000Y-105125000I100000J0D01*
G01*
X148600000Y-105125000D01*
G75*
G02*
X148700000Y-105225000I0J-100000D01*
G01*
G37*
%TD.AperFunction*%
%TO.P,U4,8*%
%TO.N,N/C*%
%TA.AperFunction,SMDPad,CuDef*%
G36*
G01*
X148700000Y-105875000D02*
X148700000Y-106075000D01*
G75*
G02*
X148600000Y-106175000I-100000J0D01*
G01*
X147175000Y-106175000D01*
G75*
G02*
X147075000Y-106075000I0J100000D01*
G01*
X147075000Y-105875000D01*
G75*
G02*
X147175000Y-105775000I100000J0D01*
G01*
X148600000Y-105775000D01*
G75*
G02*
X148700000Y-105875000I0J-100000D01*
G01*
G37*
%TD.AperFunction*%
%TD*%
%TO.P,C8,1*%
%TO.N,hdmi_5v*%
%TA.AperFunction,SMDPad,CuDef*%
G36*
G01*
X146620000Y-95155000D02*
X146620000Y-95495000D01*
G75*
G02*
X146480000Y-95635000I-140000J0D01*
G01*
X146200000Y-95635000D01*
G75*
G02*
X146060000Y-95495000I0J140000D01*
G01*
X146060000Y-95155000D01*
G75*
G02*
X146200000Y-95015000I140000J0D01*
G01*
X146480000Y-95015000D01*
G75*
G02*
X146620000Y-95155000I0J-140000D01*
G01*
G37*
%TD.AperFunction*%
%TO.P,C8,2*%
%TO.N,GND*%
%TA.AperFunction,SMDPad,CuDef*%
G36*
G01*
X145660000Y-95155000D02*
X145660000Y-95495000D01*
G75*
G02*
X145520000Y-95635000I-140000J0D01*
G01*
X145240000Y-95635000D01*
G75*
G02*
X145100000Y-95495000I0J140000D01*
G01*
X145100000Y-95155000D01*
G75*
G02*
X145240000Y-95015000I140000J0D01*
G01*
X145520000Y-95015000D01*
G75*
G02*
X145660000Y-95155000I0J-140000D01*
G01*
G37*
%TD.AperFunction*%
%TD*%
D23*
%TO.N,GND*%
X131000000Y-106800000D03*
X138500000Y-106300000D03*
X135500000Y-106300000D03*
X134000000Y-106800000D03*
D24*
X144500000Y-92400000D03*
X156570000Y-100860000D03*
D25*
X170530000Y-109040000D03*
D24*
X169120000Y-107140000D03*
X159330000Y-94200000D03*
X158037500Y-94200000D03*
X174000000Y-102000000D03*
X174000000Y-98000000D03*
D25*
X162470000Y-94200000D03*
D23*
X134000000Y-93700000D03*
X131000000Y-93700000D03*
X132500000Y-106300000D03*
X132500000Y-93200000D03*
D24*
X141775000Y-93200000D03*
X128225000Y-93200000D03*
X128225000Y-106800000D03*
X141775000Y-106800000D03*
D26*
X166850000Y-95850000D03*
X166850000Y-104150000D03*
D27*
X165600000Y-96900000D03*
X165600000Y-103100000D03*
D26*
X166720000Y-104900000D03*
X166720000Y-95100000D03*
D24*
X169570000Y-105820000D03*
X169580000Y-94170000D03*
X165020000Y-107140000D03*
D23*
X135500000Y-93200000D03*
X138500000Y-93200000D03*
D24*
X174000000Y-106000000D03*
X174000000Y-94000000D03*
X126000000Y-100000000D03*
X126000000Y-97000000D03*
X126000000Y-94000000D03*
X126000000Y-103000000D03*
X126000000Y-106000000D03*
X150000000Y-91000000D03*
X153000000Y-91000000D03*
X156000000Y-91000000D03*
X144000000Y-109000000D03*
X147000000Y-109000000D03*
X150000000Y-109000000D03*
X153000000Y-109000000D03*
X156000000Y-109000000D03*
X159020000Y-109000000D03*
X162000000Y-109000000D03*
D25*
X162470000Y-100520000D03*
D24*
X154560000Y-106130000D03*
X144500000Y-97265000D03*
D25*
X154530000Y-96320000D03*
D24*
X147000000Y-91000000D03*
X144000000Y-91000000D03*
X144500000Y-95325000D03*
D25*
%TO.N,+3V3*%
X152560000Y-100000000D03*
X162470000Y-96890000D03*
X159330000Y-96890000D03*
D24*
X165020000Y-109040000D03*
D25*
X159330000Y-99480000D03*
X162470000Y-99480000D03*
D24*
X160960000Y-106640000D03*
%TO.N,+5V*%
X170710000Y-93260000D03*
D25*
X154530000Y-95360000D03*
D24*
X146390000Y-102620000D03*
D23*
%TO.N,hdmi_hpd*%
X139500000Y-106300000D03*
X139500000Y-93200000D03*
%TO.N,hdmi_5v*%
X139000000Y-106800000D03*
X139000000Y-93700000D03*
%TO.N,hdmi_sda*%
X138000000Y-106800000D03*
X138000000Y-93700000D03*
D24*
X146080000Y-100540000D03*
X147600000Y-99050000D03*
D23*
%TO.N,hdmi_scl*%
X137500000Y-106300000D03*
X137500000Y-93200000D03*
%TO.N,hdmi_utility*%
X137000000Y-93700000D03*
%TO.N,hdmi_cec*%
X136500000Y-106300000D03*
X136500000Y-93200000D03*
%TO.N,Net-(J2-Pad12)*%
X136000000Y-93700000D03*
%TO.N,Net-(J2-Pad10)*%
X135000000Y-93700000D03*
%TO.N,Net-(J2-Pad9)*%
X134500000Y-106300000D03*
%TO.N,Net-(J2-Pad7)*%
X133500000Y-106300000D03*
%TO.N,Net-(J2-Pad6)*%
X133000000Y-93700000D03*
%TO.N,Net-(J2-Pad4)*%
X132000000Y-93700000D03*
%TO.N,Net-(J2-Pad3)*%
X131500000Y-106300000D03*
%TO.N,Net-(J2-Pad1)*%
X130500000Y-106300000D03*
D24*
%TO.N,hdmi_5v_en*%
X155400000Y-99100000D03*
X155400000Y-97000000D03*
D25*
%TO.N,Net-(R12-Pad1)*%
X164975010Y-94170000D03*
X162480000Y-101620000D03*
%TD*%
D28*
%TO.N,GND*%
X134000000Y-93700000D02*
X134000000Y-91400000D01*
X131000000Y-93700000D02*
X131000000Y-91400000D01*
X138500000Y-106300000D02*
X138500000Y-108600000D01*
X132500000Y-108600000D02*
X132500000Y-106300000D01*
X128200000Y-108675000D02*
X128225000Y-108700000D01*
D29*
X165600000Y-97700000D02*
X165600000Y-96900000D01*
X165600000Y-102300000D02*
X165600000Y-103100000D01*
D30*
X166850000Y-96045000D02*
X166850000Y-95850000D01*
X167555000Y-96750000D02*
X166850000Y-96045000D01*
X166850000Y-103955000D02*
X166850000Y-104150000D01*
X167555000Y-103250000D02*
X166850000Y-103955000D01*
D29*
X165830000Y-104900000D02*
X166720000Y-104900000D01*
X158037500Y-94200000D02*
X158037500Y-95060000D01*
D31*
X159330000Y-94200000D02*
X159330000Y-95090000D01*
D29*
X168675000Y-105820000D02*
X169570000Y-105820000D01*
X165830000Y-95100000D02*
X166720000Y-95100000D01*
X168685000Y-94170000D02*
X169580000Y-94170000D01*
D30*
X166340000Y-107140000D02*
X168070000Y-107140000D01*
X165020000Y-107140000D02*
X166340000Y-107140000D01*
X168070000Y-107140000D02*
X169120000Y-107140000D01*
X172050000Y-108790000D02*
X171800000Y-109040000D01*
D31*
X173510000Y-108790000D02*
X172050000Y-108790000D01*
X171800000Y-109040000D02*
X170530000Y-109040000D01*
X162470000Y-95090000D02*
X162470000Y-94200000D01*
D30*
X166720000Y-95720000D02*
X166850000Y-95850000D01*
X166720000Y-95100000D02*
X166720000Y-95720000D01*
X166720000Y-104280000D02*
X166850000Y-104150000D01*
X166720000Y-104900000D02*
X166720000Y-104280000D01*
D29*
X141775000Y-91300000D02*
X141775000Y-93200000D01*
X128225000Y-91300000D02*
X128225000Y-93200000D01*
X128225000Y-108700000D02*
X128225000Y-106800000D01*
X141775000Y-108700000D02*
X141775000Y-106800000D01*
D28*
X135500000Y-106300000D02*
X135500000Y-108600000D01*
D30*
X132810000Y-102896000D02*
X134240000Y-102896000D01*
X134240000Y-102896000D02*
X135680000Y-102896000D01*
X135680000Y-102896000D02*
X137110000Y-102896000D01*
X137110000Y-102896000D02*
X138540000Y-102896000D01*
X138821000Y-103177000D02*
X138540000Y-102896000D01*
X140830000Y-103177000D02*
X138821000Y-103177000D01*
D29*
X153325000Y-95975000D02*
X153670000Y-96320000D01*
X152102500Y-95975000D02*
X153325000Y-95975000D01*
X153505000Y-105975000D02*
X153660000Y-106130000D01*
X152112500Y-105975000D02*
X153505000Y-105975000D01*
X154560000Y-106130000D02*
X153660000Y-106130000D01*
X156570000Y-99985000D02*
X156570000Y-100860000D01*
X145350000Y-97265000D02*
X144500000Y-97265000D01*
X145380000Y-95325000D02*
X144500000Y-95325000D01*
X154530000Y-96320000D02*
X153670000Y-96320000D01*
X145350000Y-92400000D02*
X144500000Y-92400000D01*
D31*
X162665000Y-100325000D02*
X162470000Y-100520000D01*
X163762500Y-100325000D02*
X162665000Y-100325000D01*
D29*
%TO.N,Net-(C1-Pad2)*%
X158037500Y-99025000D02*
X156570000Y-99025000D01*
D30*
%TO.N,+3V3*%
X166340000Y-109040000D02*
X168070000Y-109040000D01*
X165020000Y-109040000D02*
X166340000Y-109040000D01*
D31*
X162470000Y-96050000D02*
X162470000Y-96890000D01*
X159330000Y-96050000D02*
X159330000Y-96890000D01*
D29*
X152250000Y-100950000D02*
X152560000Y-100640000D01*
X151300000Y-100950000D02*
X152250000Y-100950000D01*
X159280000Y-106640000D02*
X158840000Y-107080000D01*
X160040000Y-106640000D02*
X159280000Y-106640000D01*
X160960000Y-106640000D02*
X160040000Y-106640000D01*
X152250000Y-99050000D02*
X152560000Y-99360000D01*
X151300000Y-99050000D02*
X152250000Y-99050000D01*
X152560000Y-99360000D02*
X152560000Y-100000000D01*
X152560000Y-100640000D02*
X152560000Y-100000000D01*
D31*
X162470000Y-96890000D02*
X162470000Y-99480000D01*
X162665000Y-99675000D02*
X162470000Y-99480000D01*
X163762500Y-99675000D02*
X162665000Y-99675000D01*
X159330000Y-99480000D02*
X159330000Y-96890000D01*
X159135000Y-99675000D02*
X159330000Y-99480000D01*
X158037500Y-99675000D02*
X159135000Y-99675000D01*
%TO.N,+5V*%
X172050000Y-107390000D02*
X171800000Y-107140000D01*
X173510000Y-107390000D02*
X172050000Y-107390000D01*
D29*
X170000000Y-99030000D02*
X170000000Y-100000000D01*
X168520000Y-97550000D02*
X170000000Y-99030000D01*
X167555000Y-97550000D02*
X168520000Y-97550000D01*
D31*
X170490000Y-100000000D02*
X170000000Y-100000000D01*
X170710000Y-100220000D02*
X170490000Y-100000000D01*
X170710000Y-104820000D02*
X170710000Y-100220000D01*
X171800000Y-105910000D02*
X170710000Y-104820000D01*
X171800000Y-107140000D02*
X171800000Y-105910000D01*
D29*
X170000000Y-100970000D02*
X170000000Y-100000000D01*
X168520000Y-102450000D02*
X170000000Y-100970000D01*
X167555000Y-102450000D02*
X168520000Y-102450000D01*
X170010000Y-108150000D02*
X170070000Y-108090000D01*
X170000000Y-99950000D02*
X170000000Y-100000000D01*
D31*
X170710000Y-99780000D02*
X170490000Y-100000000D01*
X170710000Y-93260000D02*
X170710000Y-99780000D01*
X153635000Y-95325000D02*
X153670000Y-95360000D01*
X152102500Y-95325000D02*
X153635000Y-95325000D01*
X151045000Y-105325000D02*
X152112500Y-105325000D01*
D29*
X146390000Y-103540000D02*
X146470000Y-103460000D01*
X149840000Y-106530000D02*
X151045000Y-105325000D01*
X146460000Y-106530000D02*
X149840000Y-106530000D01*
X146390000Y-106460000D02*
X146460000Y-106530000D01*
D31*
X153505000Y-105325000D02*
X153660000Y-105170000D01*
X152112500Y-105325000D02*
X153505000Y-105325000D01*
X157430000Y-105170000D02*
X153660000Y-105170000D01*
X157870000Y-105610000D02*
X157430000Y-105170000D01*
X157870000Y-107640000D02*
X157870000Y-105610000D01*
X158320000Y-108090000D02*
X157870000Y-107640000D01*
X170070000Y-108090000D02*
X158320000Y-108090000D01*
X170070000Y-107430000D02*
X170070000Y-108090000D01*
X170360000Y-107140000D02*
X170070000Y-107430000D01*
X171800000Y-107140000D02*
X170360000Y-107140000D01*
D29*
X146390000Y-103540000D02*
X146390000Y-102620000D01*
D31*
X148340000Y-102620000D02*
X151045000Y-105325000D01*
X146390000Y-102620000D02*
X148340000Y-102620000D01*
X154530000Y-95360000D02*
X153670000Y-95360000D01*
D29*
%TO.N,Net-(J1-PadB5)*%
X166390000Y-96680000D02*
X165830000Y-96120000D01*
X166390000Y-98070000D02*
X166390000Y-96680000D01*
X166570000Y-98250000D02*
X166390000Y-98070000D01*
X167555000Y-98250000D02*
X166570000Y-98250000D01*
%TO.N,usb_dp*%
X165700000Y-99250000D02*
X165600000Y-99150000D01*
X164875000Y-98375000D02*
X165600000Y-99100000D01*
X163662500Y-98375000D02*
X164875000Y-98375000D01*
X165750000Y-99250000D02*
X165600000Y-99100000D01*
X167555000Y-99250000D02*
X165750000Y-99250000D01*
X168680000Y-100085002D02*
X168515002Y-100250000D01*
X168515002Y-100250000D02*
X167555000Y-100250000D01*
X168680000Y-99414998D02*
X168680000Y-100085002D01*
X168515002Y-99250000D02*
X168680000Y-99414998D01*
X167555000Y-99250000D02*
X168515002Y-99250000D01*
%TO.N,usb_dm*%
X165750000Y-100750000D02*
X165600000Y-100900000D01*
X167555000Y-100750000D02*
X165750000Y-100750000D01*
X164900000Y-100200000D02*
X165600000Y-100900000D01*
X164900000Y-99200000D02*
X164900000Y-100200000D01*
X164725000Y-99025000D02*
X164900000Y-99200000D01*
X163762500Y-99025000D02*
X164725000Y-99025000D01*
X166580000Y-100750000D02*
X167555000Y-100750000D01*
X166460000Y-100630000D02*
X166580000Y-100750000D01*
X166460000Y-99884998D02*
X166460000Y-100630000D01*
X166594998Y-99750000D02*
X166460000Y-99884998D01*
X167555000Y-99750000D02*
X166594998Y-99750000D01*
%TO.N,Net-(J1-PadA5)*%
X166400000Y-103310000D02*
X165850000Y-103860000D01*
X166400000Y-101430000D02*
X166400000Y-103310000D01*
X166580000Y-101250000D02*
X166400000Y-101430000D01*
X165850000Y-103860000D02*
X165850000Y-103890000D01*
X167555000Y-101250000D02*
X166580000Y-101250000D01*
D28*
%TO.N,hdmi_hpd*%
X139500000Y-106300000D02*
X139500000Y-108600000D01*
X139500000Y-94227000D02*
X139500000Y-93200000D01*
X139500000Y-94227000D02*
X140830000Y-95557000D01*
X139500000Y-105256000D02*
X138540000Y-104296000D01*
X139500000Y-106300000D02*
X139500000Y-105256000D01*
D29*
X142213000Y-95557000D02*
X140830000Y-95557000D01*
X143420000Y-94350000D02*
X142213000Y-95557000D01*
X145350000Y-94350000D02*
X143420000Y-94350000D01*
X145350000Y-93370000D02*
X145350000Y-94350000D01*
D28*
%TO.N,hdmi_5v*%
X139000000Y-93700000D02*
X139000000Y-91400000D01*
X139000000Y-94997000D02*
X140830000Y-96827000D01*
X139000000Y-93700000D02*
X139000000Y-94997000D01*
X137336000Y-104296000D02*
X137110000Y-104296000D01*
X139000000Y-105960000D02*
X137336000Y-104296000D01*
X139000000Y-106800000D02*
X139000000Y-105960000D01*
D29*
X147877500Y-95325000D02*
X146340000Y-95325000D01*
X146370000Y-95355000D02*
X146340000Y-95325000D01*
X142033000Y-96827000D02*
X140830000Y-96827000D01*
X146340000Y-95325000D02*
X146340000Y-95317374D01*
X145395000Y-96285000D02*
X145350000Y-96285000D01*
X146340000Y-95340000D02*
X145395000Y-96285000D01*
X146340000Y-95325000D02*
X146340000Y-95340000D01*
X142575000Y-96285000D02*
X142033000Y-96827000D01*
X145350000Y-96285000D02*
X142575000Y-96285000D01*
D28*
%TO.N,hdmi_sda*%
X138000000Y-93700000D02*
X138000000Y-91400000D01*
X138000000Y-95267000D02*
X138000000Y-93700000D01*
X138000000Y-95267000D02*
X140830000Y-98097000D01*
X136354000Y-104970000D02*
X135680000Y-104296000D01*
X137010000Y-104970000D02*
X136354000Y-104970000D01*
X138000000Y-105960000D02*
X137010000Y-104970000D01*
X138000000Y-106800000D02*
X138000000Y-105960000D01*
D29*
X145370000Y-105490000D02*
X145370000Y-106460000D01*
X148700000Y-99050000D02*
X147600000Y-99050000D01*
X146647000Y-98097000D02*
X147600000Y-99050000D01*
X140830000Y-98097000D02*
X146647000Y-98097000D01*
X144580000Y-102040000D02*
X146080000Y-100540000D01*
X144580000Y-104700000D02*
X144580000Y-102040000D01*
X145370000Y-105490000D02*
X144580000Y-104700000D01*
D28*
%TO.N,hdmi_scl*%
X137500000Y-106300000D02*
X137500000Y-108600000D01*
X137500000Y-93200000D02*
X137500000Y-96037000D01*
X137500000Y-96037000D02*
X140830000Y-99367000D01*
X135093989Y-105399989D02*
X134240000Y-104546000D01*
X136599989Y-105399989D02*
X135093989Y-105399989D01*
X137500000Y-106300000D02*
X136599989Y-105399989D01*
D29*
X145370000Y-104510000D02*
X145370000Y-103540000D01*
X146367000Y-99367000D02*
X147950000Y-100950000D01*
X147950000Y-100950000D02*
X148700000Y-100950000D01*
X140830000Y-99367000D02*
X146367000Y-99367000D01*
X145370000Y-102410000D02*
X145370000Y-103540000D01*
X147100000Y-101800000D02*
X145980000Y-101800000D01*
X145980000Y-101800000D02*
X145370000Y-102410000D01*
X147950000Y-100950000D02*
X147100000Y-101800000D01*
D28*
%TO.N,hdmi_utility*%
X137000000Y-93700000D02*
X137000000Y-91400000D01*
X137000000Y-93700000D02*
X137000000Y-96807000D01*
X137000000Y-96807000D02*
X140830000Y-100637000D01*
%TO.N,hdmi_cec*%
X136500000Y-106300000D02*
X136500000Y-108600000D01*
X136500000Y-93200000D02*
X136500000Y-97577000D01*
X136500000Y-97577000D02*
X140830000Y-101907000D01*
X134063999Y-105799999D02*
X132810000Y-104546000D01*
X135999999Y-105799999D02*
X134063999Y-105799999D01*
X136500000Y-106300000D02*
X135999999Y-105799999D01*
D29*
X144973264Y-107133264D02*
X155836736Y-107133264D01*
X155836736Y-107133264D02*
X156840000Y-106130000D01*
X143890000Y-106050000D02*
X144973264Y-107133264D01*
X143890000Y-103220000D02*
X143890000Y-106050000D01*
X142577000Y-101907000D02*
X143890000Y-103220000D01*
X140830000Y-101907000D02*
X142577000Y-101907000D01*
D28*
%TO.N,Net-(J2-Pad12)*%
X136000000Y-93700000D02*
X136000000Y-91400000D01*
%TO.N,Net-(J2-Pad10)*%
X135000000Y-93700000D02*
X135000000Y-91400000D01*
%TO.N,Net-(J2-Pad9)*%
X134500000Y-106300000D02*
X134500000Y-108600000D01*
%TO.N,Net-(J2-Pad7)*%
X133500000Y-106300000D02*
X133500000Y-108600000D01*
%TO.N,Net-(J2-Pad6)*%
X133000000Y-93700000D02*
X133000000Y-91400000D01*
%TO.N,Net-(J2-Pad4)*%
X132000000Y-91400000D02*
X132000000Y-91500000D01*
X132000000Y-91400000D02*
X132000000Y-93700000D01*
%TO.N,Net-(J2-Pad3)*%
X131500000Y-108600000D02*
X131500000Y-106300000D01*
%TO.N,Net-(J2-Pad1)*%
X130500000Y-106300000D02*
X130500000Y-108600000D01*
D29*
%TO.N,swclk*%
X167120000Y-91800000D02*
X166480000Y-91800000D01*
X164368588Y-92975001D02*
X165944999Y-92975001D01*
X163762500Y-93581089D02*
X164368588Y-92975001D01*
X165944999Y-92975001D02*
X167120000Y-91800000D01*
X163762500Y-97075000D02*
X163762500Y-93581089D01*
%TO.N,uart_tx*%
X161100000Y-93400000D02*
X159500000Y-91800000D01*
X160255000Y-101625000D02*
X161100000Y-100780000D01*
X161100000Y-100780000D02*
X161100000Y-93400000D01*
X158037500Y-101625000D02*
X160255000Y-101625000D01*
%TO.N,swdio*%
X168030000Y-93430000D02*
X169660000Y-91800000D01*
X164550000Y-93430000D02*
X168030000Y-93430000D01*
X164270000Y-93710000D02*
X164550000Y-93430000D01*
X164270000Y-94500000D02*
X164270000Y-93710000D01*
X164910000Y-95140000D02*
X164270000Y-94500000D01*
X164910000Y-97560000D02*
X164910000Y-95140000D01*
X164745000Y-97725000D02*
X164910000Y-97560000D01*
X163762500Y-97725000D02*
X164745000Y-97725000D01*
%TO.N,uart_rx*%
X161680000Y-93320000D02*
X162040000Y-92960000D01*
X161680000Y-100990000D02*
X161680000Y-93320000D01*
X160395000Y-102275000D02*
X161680000Y-100990000D01*
X162040000Y-92960000D02*
X162040000Y-91800000D01*
X158037500Y-102275000D02*
X160395000Y-102275000D01*
%TO.N,hdmi_cec_in*%
X159280000Y-105620000D02*
X158840000Y-105180000D01*
X160040000Y-105620000D02*
X159280000Y-105620000D01*
X161095000Y-102925000D02*
X158840000Y-105180000D01*
X163762500Y-102925000D02*
X161095000Y-102925000D01*
%TO.N,i2c_scl*%
X149890000Y-101270000D02*
X150280000Y-101660000D01*
X149890000Y-100430000D02*
X149890000Y-101270000D01*
X152360000Y-101660000D02*
X152500000Y-101800000D01*
X150280000Y-101660000D02*
X152360000Y-101660000D01*
X149460000Y-100000000D02*
X149890000Y-100430000D01*
X148700000Y-100000000D02*
X149460000Y-100000000D01*
X153110000Y-101660000D02*
X152560000Y-101660000D01*
X153480000Y-101290000D02*
X153110000Y-101660000D01*
X153480000Y-98870000D02*
X153480000Y-101290000D01*
X153975000Y-98375000D02*
X153480000Y-98870000D01*
X158037500Y-98375000D02*
X153975000Y-98375000D01*
%TO.N,i2c_sda*%
X153815000Y-97725000D02*
X158037500Y-97725000D01*
X153200000Y-98340000D02*
X153815000Y-97725000D01*
X150490000Y-98340000D02*
X153200000Y-98340000D01*
X150360000Y-98470000D02*
X150490000Y-98340000D01*
X150360000Y-99790000D02*
X150360000Y-98470000D01*
X150570000Y-100000000D02*
X150360000Y-99790000D01*
X151300000Y-100000000D02*
X150570000Y-100000000D01*
%TO.N,hdmi_5v_in*%
X146370000Y-97265000D02*
X146330000Y-97265000D01*
X146370000Y-96285000D02*
X146370000Y-97265000D01*
X159679002Y-100325000D02*
X158037500Y-100325000D01*
X160055001Y-93835001D02*
X160055001Y-99949001D01*
X159660000Y-93440000D02*
X160055001Y-93835001D01*
X150610000Y-93440000D02*
X159660000Y-93440000D01*
X160055001Y-99949001D02*
X159679002Y-100325000D01*
X150000000Y-96060000D02*
X150000000Y-94050000D01*
X148795000Y-97265000D02*
X150000000Y-96060000D01*
X150000000Y-94050000D02*
X150610000Y-93440000D01*
X146370000Y-97265000D02*
X148795000Y-97265000D01*
%TO.N,hdmi_hpd_in*%
X146370000Y-92400000D02*
X146370000Y-93370000D01*
X160600000Y-100270000D02*
X159895000Y-100975000D01*
X160600000Y-93630000D02*
X160600000Y-100270000D01*
X159895000Y-100975000D02*
X158037500Y-100975000D01*
X159945001Y-92975001D02*
X160600000Y-93630000D01*
X146764999Y-92975001D02*
X159945001Y-92975001D01*
X146370000Y-93370000D02*
X146764999Y-92975001D01*
%TO.N,Net-(R8-Pad1)*%
X165240000Y-105820000D02*
X165780000Y-105820000D01*
X164880000Y-105460000D02*
X165240000Y-105820000D01*
X164880000Y-102430000D02*
X164880000Y-105460000D01*
X164725000Y-102275000D02*
X164880000Y-102430000D01*
X163762500Y-102275000D02*
X164725000Y-102275000D01*
%TO.N,Net-(D4-Pad2)*%
X166800000Y-105820000D02*
X167705000Y-105820000D01*
%TO.N,Net-(D6-Pad2)*%
X166800000Y-94170000D02*
X167715000Y-94170000D01*
%TO.N,hdmi_5v_en*%
X152112500Y-104025000D02*
X152112500Y-104675000D01*
X155400000Y-95126998D02*
X155400000Y-97000000D01*
X154948002Y-94675000D02*
X155400000Y-95126998D01*
X152102500Y-94675000D02*
X154948002Y-94675000D01*
X158037500Y-102925000D02*
X157025000Y-102925000D01*
X157025000Y-102925000D02*
X155925000Y-104025000D01*
X156510000Y-102410000D02*
X157025000Y-102925000D01*
X155400000Y-101300000D02*
X156510000Y-102410000D01*
X155400000Y-99100000D02*
X155400000Y-101300000D01*
X155925000Y-104025000D02*
X152112500Y-104025000D01*
%TO.N,hdmi_hpd_en*%
X158037500Y-96080000D02*
X158037500Y-97075000D01*
X155165000Y-94025000D02*
X157220000Y-96080000D01*
X157220000Y-96080000D02*
X158037500Y-96080000D01*
X152102500Y-94025000D02*
X155165000Y-94025000D01*
%TO.N,Net-(R12-Pad1)*%
X165780000Y-94170000D02*
X164975010Y-94170000D01*
X162485000Y-101625000D02*
X162480000Y-101620000D01*
X163762500Y-101625000D02*
X162485000Y-101625000D01*
%TO.N,Net-(R9-Pad1)*%
X146695000Y-94675000D02*
X146370000Y-94350000D01*
X147877500Y-94675000D02*
X146695000Y-94675000D01*
%TO.N,Net-(R17-Pad1)*%
X146555000Y-105325000D02*
X146390000Y-105490000D01*
X147887500Y-105325000D02*
X146555000Y-105325000D01*
%TO.N,Net-(R18-Pad1)*%
X146555000Y-104675000D02*
X146390000Y-104510000D01*
X147887500Y-104675000D02*
X146555000Y-104675000D01*
%TD*%
M02*
