M48
; DRILL file {KiCad 5.1.9-73d0e3b20d~88~ubuntu20.04.1} date Sat Apr 10 19:31:32 2021
; FORMAT={-:-/ absolute / inch / decimal}
; #@! TF.CreationDate,2021-04-10T19:31:32+02:00
; #@! TF.GenerationSoftware,Kicad,Pcbnew,5.1.9-73d0e3b20d~88~ubuntu20.04.1
; #@! TF.FileFunction,Plated,1,4,PTH
FMAT,2
INCH
T1C0.0098
T2C0.0157
T3C0.0236
T4C0.0394
T5C0.0512
%
G90
G05
T1
X5.0915Y-3.7835
X5.1112Y-3.6772
X5.1112Y-3.7992
X5.1112Y-4.0906
X5.1112Y-4.1969
X5.1309Y-3.7835
X5.1506Y-3.7992
X5.1703Y-3.6772
X5.1703Y-3.7835
X5.1703Y-4.0906
X5.1703Y-4.1969
X5.19Y-3.7992
X5.2096Y-3.7835
X5.2293Y-3.6772
X5.2293Y-3.7992
X5.2293Y-4.0906
X5.2293Y-4.1969
X5.249Y-3.7835
X5.2687Y-3.7992
X5.2884Y-3.6772
X5.2884Y-3.7835
X5.2884Y-4.0906
X5.2884Y-4.1969
X5.3081Y-3.7992
X5.3278Y-3.7835
X5.3474Y-3.7992
X5.3494Y-4.2126
X5.3494Y-4.2992
X5.3671Y-3.7835
X5.3868Y-3.7992
X5.3868Y-4.2126
X5.4065Y-3.6772
X5.4065Y-3.7835
X5.4065Y-4.0906
X5.4065Y-4.1969
X5.4242Y-4.2992
X5.4262Y-3.7992
X5.4459Y-3.7835
X5.4516Y-4.248
X6.1528Y-3.9242
T2
X4.9606Y-3.5827
X4.9606Y-4.2913
X5.0Y-3.3858
X5.0Y-4.4882
X5.0394Y-3.7992
X5.0394Y-4.0748
X5.1181Y-3.3858
X5.1181Y-3.5039
X5.1181Y-4.3701
X5.1181Y-4.4882
X5.2362Y-3.3858
X5.2362Y-3.5039
X5.2362Y-4.3701
X5.2362Y-4.4882
X5.3543Y-3.3858
X5.3543Y-3.5039
X5.3543Y-4.4882
X5.3866Y-4.3791
X5.4724Y-3.3858
X5.4724Y-3.5039
X5.4724Y-4.4882
X5.4921Y-3.7402
X5.4921Y-4.1339
X5.5512Y-3.7795
X5.5906Y-3.3858
X5.5906Y-4.4882
X5.6366Y-3.9764
X5.7043Y-4.1283
X5.7087Y-4.3307
X5.7087Y-4.4882
X5.7803Y-3.976
X5.7803Y-4.0811
X5.7874Y-4.2126
X5.8268Y-4.4882
X5.9449Y-4.4882
X5.9843Y-4.2126
X5.9969Y-3.827
X5.9969Y-3.9449
X6.0236Y-3.622
X6.039Y-4.0472
X6.063Y-4.4882
X6.0756Y-4.1969
X6.076Y-4.1063
X6.1008Y-4.2843
X6.1488Y-4.1043
X6.178Y-4.3161
X6.1811Y-4.4882
X6.2004Y-4.0425
X6.2598Y-3.878
X6.2846Y-3.9242
X6.2846Y-3.9626
X6.2921Y-4.1043
X6.3386Y-4.4882
X6.3583Y-4.1732
X6.378Y-3.7008
X6.4567Y-3.3858
X6.472Y-3.9544
X6.4724Y-3.9201
X6.4776Y-3.4909
X6.4776Y-3.6524
X6.5098Y-3.7354
X6.5102Y-4.1386
X6.5276Y-4.4528
X6.5445Y-3.4949
X6.5445Y-3.8091
X6.5449Y-4.0646
X6.5748Y-3.3858
X6.5748Y-4.4882
X6.6669Y-4.2835
X6.6693Y-3.9366
X6.6902Y-3.4909
X6.6929Y-3.3858
X6.6929Y-4.4882
X6.8504Y-3.5433
X6.8504Y-3.6614
X6.8504Y-3.8583
X6.8504Y-3.937
X6.8504Y-4.0157
X6.8504Y-4.2126
X6.8504Y-4.3307
T4
X5.7074Y-3.4173
X5.7074Y-3.5173
X5.8074Y-3.4173
X5.8074Y-3.5173
X5.9074Y-3.4173
X5.9074Y-3.5173
X6.0074Y-3.4173
X6.0074Y-3.5173
X6.1074Y-3.4173
X6.1074Y-3.5173
X6.2074Y-3.4173
X6.2074Y-3.5173
X6.3074Y-3.4173
X6.3074Y-3.5173
T5
X4.9695Y-3.498
X4.9695Y-4.376
X4.9931Y-3.6909
X4.9931Y-4.1831
X5.564Y-3.6909
X5.564Y-4.1831
X5.5876Y-3.498
X5.5876Y-4.376
T3
G00X6.611Y-3.7669
M15
G01X6.6543Y-3.7669
M16
G05
G00X6.611Y-4.1071
M15
G01X6.6543Y-4.1071
M16
G05
G00X6.7854Y-3.7669
M15
G01X6.8091Y-3.7669
M16
G05
G00X6.7854Y-4.1071
M15
G01X6.8091Y-4.1071
M16
G05
T0
M30
