%TF.GenerationSoftware,KiCad,Pcbnew,5.1.9-73d0e3b20d~88~ubuntu20.04.1*%
%TF.CreationDate,2021-04-10T19:31:35+02:00*%
%TF.ProjectId,wally,77616c6c-792e-46b6-9963-61645f706362,v1.00*%
%TF.SameCoordinates,Original*%
%TF.FileFunction,Copper,L3,Inr*%
%TF.FilePolarity,Positive*%
%FSLAX46Y46*%
G04 Gerber Fmt 4.6, Leading zero omitted, Abs format (unit mm)*
G04 Created by KiCad (PCBNEW 5.1.9-73d0e3b20d~88~ubuntu20.04.1) date 2021-04-10 19:31:35*
%MOMM*%
%LPD*%
G01*
G04 APERTURE LIST*
%TA.AperFunction,ComponentPad*%
%ADD10O,1.600000X1.000000*%
%TD*%
%TA.AperFunction,ComponentPad*%
%ADD11O,2.100000X1.000000*%
%TD*%
%TA.AperFunction,ComponentPad*%
%ADD12C,1.950000*%
%TD*%
%TA.AperFunction,ComponentPad*%
%ADD13O,1.700000X1.700000*%
%TD*%
%TA.AperFunction,ComponentPad*%
%ADD14R,1.700000X1.700000*%
%TD*%
%TA.AperFunction,ViaPad*%
%ADD15C,0.400000*%
%TD*%
%TA.AperFunction,ViaPad*%
%ADD16C,0.800000*%
%TD*%
%TA.AperFunction,ViaPad*%
%ADD17C,0.600000*%
%TD*%
%TA.AperFunction,Conductor*%
%ADD18C,0.250000*%
%TD*%
%TA.AperFunction,Conductor*%
%ADD19C,0.200000*%
%TD*%
%TA.AperFunction,Conductor*%
%ADD20C,0.254000*%
%TD*%
%TA.AperFunction,Conductor*%
%ADD21C,0.100000*%
%TD*%
G04 APERTURE END LIST*
D10*
%TO.N,Net-(J1-PadS1)*%
%TO.C,J1*%
X172650000Y-95680000D03*
X172650000Y-104320000D03*
D11*
X168470000Y-104320000D03*
X168470000Y-95680000D03*
%TD*%
D12*
%TO.N,N/C*%
%TO.C,J2*%
X141325000Y-106250000D03*
X126825000Y-106250000D03*
X141925000Y-111150000D03*
X126225000Y-111150000D03*
%TD*%
%TO.N,N/C*%
%TO.C,J3*%
X141325000Y-93750000D03*
X126825000Y-93750000D03*
X141925000Y-88850000D03*
X126225000Y-88850000D03*
%TD*%
D13*
%TO.N,hdmi_utility*%
%TO.C,J4*%
X144968000Y-89340000D03*
%TO.N,hdmi_cec*%
X144968000Y-86800000D03*
%TO.N,hdmi_sda*%
X147508000Y-89340000D03*
%TO.N,hdmi_scl*%
X147508000Y-86800000D03*
%TO.N,hdmi_hpd*%
X150048000Y-89340000D03*
%TO.N,hdmi_5v*%
X150048000Y-86800000D03*
%TO.N,uart_tx*%
X152588000Y-89340000D03*
%TO.N,uart_rx*%
X152588000Y-86800000D03*
%TO.N,swdio*%
X155128000Y-89340000D03*
%TO.N,swclk*%
X155128000Y-86800000D03*
%TO.N,GND*%
X157668000Y-89340000D03*
X157668000Y-86800000D03*
%TO.N,+3V3*%
X160208000Y-89340000D03*
D14*
%TO.N,+5V*%
X160208000Y-86800000D03*
%TD*%
D15*
%TO.N,GND*%
X129825000Y-93400000D03*
X131325000Y-93400000D03*
X132825000Y-93400000D03*
X134325000Y-93400000D03*
X137325000Y-93400000D03*
X129825000Y-103900000D03*
X131325000Y-103900000D03*
X132825000Y-103900000D03*
X134325000Y-103900000D03*
X137325000Y-106600000D03*
D16*
X143170000Y-101000000D03*
X152320000Y-97205000D03*
X154960000Y-108820000D03*
X166230000Y-96750000D03*
X166230000Y-88770000D03*
D15*
X137325000Y-96100000D03*
X131325000Y-96100000D03*
X132825000Y-96500000D03*
X129825000Y-96500000D03*
D16*
X164530000Y-88670000D03*
X169930000Y-88670000D03*
D15*
X129825000Y-106600000D03*
X131325000Y-106600000D03*
X132825000Y-106600000D03*
X134325000Y-106600000D03*
X137325000Y-103900000D03*
D16*
X156180000Y-104250000D03*
X136820000Y-111230000D03*
D15*
X134325000Y-96100000D03*
D16*
X166240000Y-103240000D03*
X165350000Y-94880000D03*
X165360000Y-105120000D03*
D17*
X159630000Y-100650000D03*
D16*
X156920000Y-109630000D03*
X153390000Y-102800000D03*
X174000000Y-100000000D03*
X174000000Y-110000000D03*
X174000000Y-107000000D03*
X174000000Y-102000000D03*
X174000000Y-98000000D03*
X174000000Y-93000000D03*
X174000000Y-90000000D03*
X170000000Y-86000000D03*
X167000000Y-86000000D03*
X164000000Y-86000000D03*
X170000000Y-114000000D03*
X167000000Y-114000000D03*
X161000000Y-114000000D03*
X157000000Y-114000000D03*
X154000000Y-114000000D03*
X151000000Y-114000000D03*
X148000000Y-114000000D03*
X145000000Y-114000000D03*
X142000000Y-114000000D03*
X139000000Y-114000000D03*
X136000000Y-114000000D03*
X133000000Y-114000000D03*
X130000000Y-114000000D03*
X127000000Y-114000000D03*
X127000000Y-86000000D03*
X130000000Y-86000000D03*
X133000000Y-86000000D03*
X136000000Y-86000000D03*
X139000000Y-86000000D03*
X142000000Y-86000000D03*
X126000000Y-109000000D03*
X126000000Y-91000000D03*
X136000000Y-89000000D03*
X133000000Y-89000000D03*
X133000000Y-111000000D03*
X141000000Y-96000000D03*
X162000000Y-94000000D03*
X153000000Y-92000000D03*
X152000000Y-107000000D03*
X147000000Y-107000000D03*
X145000000Y-110000000D03*
X128000000Y-103500000D03*
X128000000Y-96500000D03*
X139500000Y-105000000D03*
X139500000Y-95000000D03*
X130000000Y-111000000D03*
X130000000Y-89000000D03*
X139000000Y-89000000D03*
X157490000Y-102680000D03*
X159000000Y-98500000D03*
X161500000Y-106000000D03*
D17*
X164388051Y-100441949D03*
D16*
%TO.N,+3V3*%
X164530000Y-92770000D03*
X144890002Y-104860000D03*
X159820000Y-104250000D03*
D17*
X159630000Y-99675000D03*
D16*
X152320000Y-100200000D03*
D15*
X156280000Y-99675000D03*
D16*
X165800000Y-113100000D03*
X169340000Y-108800000D03*
%TO.N,+5V*%
X169400000Y-99990000D03*
D17*
X164400000Y-99570000D03*
D15*
%TO.N,hdmi_hpd*%
X138325000Y-96100000D03*
X138470000Y-107900000D03*
%TO.N,hdmi_5v*%
X137825000Y-96500000D03*
X137775000Y-109200000D03*
%TO.N,hdmi_sda*%
X136825000Y-96500000D03*
X136825000Y-107000000D03*
%TO.N,hdmi_scl*%
X136325000Y-96100000D03*
X135875000Y-107000000D03*
%TO.N,hdmi_utility*%
X135825000Y-96500000D03*
%TO.N,hdmi_cec*%
X135325000Y-96100000D03*
X135875000Y-109200000D03*
%TO.N,Net-(J2-Pad12)*%
X134825000Y-96500000D03*
%TO.N,Net-(J2-Pad10)*%
X133825000Y-96500000D03*
%TO.N,Net-(J2-Pad9)*%
X133325000Y-96100000D03*
%TO.N,Net-(J2-Pad7)*%
X132325000Y-96100000D03*
%TO.N,Net-(J2-Pad6)*%
X131825000Y-96500000D03*
%TO.N,Net-(J2-Pad4)*%
X130825000Y-96500000D03*
%TO.N,Net-(J2-Pad3)*%
X130325000Y-96100000D03*
%TO.N,Net-(J2-Pad1)*%
X129325000Y-96100000D03*
D16*
%TO.N,hdmi_5v_in*%
X146820000Y-100990002D03*
X146820000Y-103660000D03*
%TO.N,boot*%
X154330000Y-104300000D03*
X154320000Y-106600000D03*
%TD*%
D18*
%TO.N,+5V*%
X164830000Y-100000000D02*
X164400000Y-99570000D01*
X169390000Y-100000000D02*
X164830000Y-100000000D01*
X169400000Y-99990000D02*
X169390000Y-100000000D01*
D19*
%TO.N,Net-(J1-PadS1)*%
X168495000Y-95680000D02*
X172675000Y-95680000D01*
X172675000Y-95680000D02*
X172675000Y-104320000D01*
X172675000Y-104320000D02*
X168495000Y-104320000D01*
D18*
%TO.N,hdmi_5v_in*%
X146820000Y-100990002D02*
X146820000Y-103660000D01*
%TO.N,boot*%
X154320000Y-104310000D02*
X154330000Y-104300000D01*
X154320000Y-106600000D02*
X154320000Y-104310000D01*
%TD*%
D20*
%TO.N,+3V3*%
X163004774Y-85698102D02*
X162965000Y-85898061D01*
X162965000Y-86101939D01*
X163004774Y-86301898D01*
X163082795Y-86490256D01*
X163196063Y-86659774D01*
X163340226Y-86803937D01*
X163509744Y-86917205D01*
X163698102Y-86995226D01*
X163898061Y-87035000D01*
X164101939Y-87035000D01*
X164301898Y-86995226D01*
X164490256Y-86917205D01*
X164659774Y-86803937D01*
X164803937Y-86659774D01*
X164917205Y-86490256D01*
X164995226Y-86301898D01*
X165035000Y-86101939D01*
X165035000Y-85898061D01*
X164995226Y-85698102D01*
X164979444Y-85660000D01*
X166020556Y-85660000D01*
X166004774Y-85698102D01*
X165965000Y-85898061D01*
X165965000Y-86101939D01*
X166004774Y-86301898D01*
X166082795Y-86490256D01*
X166196063Y-86659774D01*
X166340226Y-86803937D01*
X166509744Y-86917205D01*
X166698102Y-86995226D01*
X166898061Y-87035000D01*
X167101939Y-87035000D01*
X167301898Y-86995226D01*
X167490256Y-86917205D01*
X167659774Y-86803937D01*
X167803937Y-86659774D01*
X167917205Y-86490256D01*
X167995226Y-86301898D01*
X168035000Y-86101939D01*
X168035000Y-85898061D01*
X167995226Y-85698102D01*
X167979444Y-85660000D01*
X169020556Y-85660000D01*
X169004774Y-85698102D01*
X168965000Y-85898061D01*
X168965000Y-86101939D01*
X169004774Y-86301898D01*
X169082795Y-86490256D01*
X169196063Y-86659774D01*
X169340226Y-86803937D01*
X169509744Y-86917205D01*
X169698102Y-86995226D01*
X169898061Y-87035000D01*
X170101939Y-87035000D01*
X170301898Y-86995226D01*
X170490256Y-86917205D01*
X170659774Y-86803937D01*
X170803937Y-86659774D01*
X170917205Y-86490256D01*
X170995226Y-86301898D01*
X171035000Y-86101939D01*
X171035000Y-85898061D01*
X170995226Y-85698102D01*
X170979444Y-85660000D01*
X172467721Y-85660000D01*
X172856775Y-85698147D01*
X173199967Y-85801763D01*
X173516489Y-85970062D01*
X173794299Y-86196637D01*
X174022806Y-86472856D01*
X174193310Y-86788197D01*
X174299319Y-87130656D01*
X174340000Y-87517712D01*
X174340000Y-89020557D01*
X174301898Y-89004774D01*
X174101939Y-88965000D01*
X173898061Y-88965000D01*
X173698102Y-89004774D01*
X173509744Y-89082795D01*
X173340226Y-89196063D01*
X173196063Y-89340226D01*
X173082795Y-89509744D01*
X173004774Y-89698102D01*
X172965000Y-89898061D01*
X172965000Y-90101939D01*
X173004774Y-90301898D01*
X173082795Y-90490256D01*
X173196063Y-90659774D01*
X173340226Y-90803937D01*
X173509744Y-90917205D01*
X173698102Y-90995226D01*
X173898061Y-91035000D01*
X174101939Y-91035000D01*
X174301898Y-90995226D01*
X174340000Y-90979443D01*
X174340000Y-92020557D01*
X174301898Y-92004774D01*
X174101939Y-91965000D01*
X173898061Y-91965000D01*
X173698102Y-92004774D01*
X173509744Y-92082795D01*
X173340226Y-92196063D01*
X173196063Y-92340226D01*
X173082795Y-92509744D01*
X173004774Y-92698102D01*
X172965000Y-92898061D01*
X172965000Y-93101939D01*
X173004774Y-93301898D01*
X173082795Y-93490256D01*
X173196063Y-93659774D01*
X173340226Y-93803937D01*
X173509744Y-93917205D01*
X173698102Y-93995226D01*
X173898061Y-94035000D01*
X174101939Y-94035000D01*
X174301898Y-93995226D01*
X174340000Y-93979443D01*
X174340000Y-97020557D01*
X174301898Y-97004774D01*
X174101939Y-96965000D01*
X173898061Y-96965000D01*
X173698102Y-97004774D01*
X173509744Y-97082795D01*
X173410000Y-97149442D01*
X173410000Y-96721087D01*
X173583623Y-96628284D01*
X173756449Y-96486449D01*
X173898284Y-96313623D01*
X174003676Y-96116447D01*
X174068577Y-95902499D01*
X174090491Y-95680000D01*
X174068577Y-95457501D01*
X174003676Y-95243553D01*
X173898284Y-95046377D01*
X173756449Y-94873551D01*
X173583623Y-94731716D01*
X173386447Y-94626324D01*
X173172499Y-94561423D01*
X173005752Y-94545000D01*
X172294248Y-94545000D01*
X172127501Y-94561423D01*
X171913553Y-94626324D01*
X171716377Y-94731716D01*
X171543551Y-94873551D01*
X171484914Y-94945000D01*
X169885086Y-94945000D01*
X169826449Y-94873551D01*
X169653623Y-94731716D01*
X169456447Y-94626324D01*
X169242499Y-94561423D01*
X169075752Y-94545000D01*
X167864248Y-94545000D01*
X167697501Y-94561423D01*
X167483553Y-94626324D01*
X167286377Y-94731716D01*
X167113551Y-94873551D01*
X166971716Y-95046377D01*
X166866324Y-95243553D01*
X166801423Y-95457501D01*
X166779509Y-95680000D01*
X166799792Y-95885939D01*
X166720256Y-95832795D01*
X166531898Y-95754774D01*
X166331939Y-95715000D01*
X166128061Y-95715000D01*
X165928102Y-95754774D01*
X165864054Y-95781304D01*
X166009774Y-95683937D01*
X166153937Y-95539774D01*
X166267205Y-95370256D01*
X166345226Y-95181898D01*
X166385000Y-94981939D01*
X166385000Y-94778061D01*
X166345226Y-94578102D01*
X166267205Y-94389744D01*
X166153937Y-94220226D01*
X166009774Y-94076063D01*
X165840256Y-93962795D01*
X165651898Y-93884774D01*
X165451939Y-93845000D01*
X165248061Y-93845000D01*
X165048102Y-93884774D01*
X164859744Y-93962795D01*
X164690226Y-94076063D01*
X164546063Y-94220226D01*
X164432795Y-94389744D01*
X164354774Y-94578102D01*
X164315000Y-94778061D01*
X164315000Y-94981939D01*
X164354774Y-95181898D01*
X164432795Y-95370256D01*
X164546063Y-95539774D01*
X164690226Y-95683937D01*
X164859744Y-95797205D01*
X165048102Y-95875226D01*
X165248061Y-95915000D01*
X165451939Y-95915000D01*
X165651898Y-95875226D01*
X165715946Y-95848696D01*
X165570226Y-95946063D01*
X165426063Y-96090226D01*
X165312795Y-96259744D01*
X165234774Y-96448102D01*
X165195000Y-96648061D01*
X165195000Y-96851939D01*
X165234774Y-97051898D01*
X165312795Y-97240256D01*
X165426063Y-97409774D01*
X165570226Y-97553937D01*
X165739744Y-97667205D01*
X165928102Y-97745226D01*
X166128061Y-97785000D01*
X166331939Y-97785000D01*
X166531898Y-97745226D01*
X166720256Y-97667205D01*
X166889774Y-97553937D01*
X167033937Y-97409774D01*
X167147205Y-97240256D01*
X167225226Y-97051898D01*
X167265000Y-96851939D01*
X167265000Y-96648061D01*
X167256128Y-96603459D01*
X167286377Y-96628284D01*
X167483553Y-96733676D01*
X167697501Y-96798577D01*
X167864248Y-96815000D01*
X168083096Y-96815000D01*
X168076892Y-96829978D01*
X168040000Y-97015448D01*
X168040000Y-97204552D01*
X168076892Y-97390022D01*
X168149259Y-97564731D01*
X168254319Y-97721964D01*
X168388036Y-97855681D01*
X168545269Y-97960741D01*
X168719978Y-98033108D01*
X168905448Y-98070000D01*
X169094552Y-98070000D01*
X169280022Y-98033108D01*
X169454731Y-97960741D01*
X169611964Y-97855681D01*
X169745681Y-97721964D01*
X169850741Y-97564731D01*
X169923108Y-97390022D01*
X169960000Y-97204552D01*
X169960000Y-97015448D01*
X169923108Y-96829978D01*
X169850741Y-96655269D01*
X169769285Y-96533362D01*
X169826449Y-96486449D01*
X169885086Y-96415000D01*
X171484914Y-96415000D01*
X171543551Y-96486449D01*
X171716377Y-96628284D01*
X171913553Y-96733676D01*
X171940000Y-96741699D01*
X171940001Y-103258301D01*
X171913553Y-103266324D01*
X171716377Y-103371716D01*
X171543551Y-103513551D01*
X171484914Y-103585000D01*
X169885086Y-103585000D01*
X169826449Y-103513551D01*
X169769285Y-103466638D01*
X169850741Y-103344731D01*
X169923108Y-103170022D01*
X169960000Y-102984552D01*
X169960000Y-102795448D01*
X169923108Y-102609978D01*
X169850741Y-102435269D01*
X169745681Y-102278036D01*
X169611964Y-102144319D01*
X169454731Y-102039259D01*
X169280022Y-101966892D01*
X169094552Y-101930000D01*
X168905448Y-101930000D01*
X168719978Y-101966892D01*
X168545269Y-102039259D01*
X168388036Y-102144319D01*
X168254319Y-102278036D01*
X168149259Y-102435269D01*
X168076892Y-102609978D01*
X168040000Y-102795448D01*
X168040000Y-102984552D01*
X168076892Y-103170022D01*
X168083096Y-103185000D01*
X167864248Y-103185000D01*
X167697501Y-103201423D01*
X167483553Y-103266324D01*
X167286377Y-103371716D01*
X167265702Y-103388684D01*
X167275000Y-103341939D01*
X167275000Y-103138061D01*
X167235226Y-102938102D01*
X167157205Y-102749744D01*
X167043937Y-102580226D01*
X166899774Y-102436063D01*
X166730256Y-102322795D01*
X166541898Y-102244774D01*
X166341939Y-102205000D01*
X166138061Y-102205000D01*
X165938102Y-102244774D01*
X165749744Y-102322795D01*
X165580226Y-102436063D01*
X165436063Y-102580226D01*
X165322795Y-102749744D01*
X165244774Y-102938102D01*
X165205000Y-103138061D01*
X165205000Y-103341939D01*
X165244774Y-103541898D01*
X165322795Y-103730256D01*
X165436063Y-103899774D01*
X165580226Y-104043937D01*
X165749744Y-104157205D01*
X165938102Y-104235226D01*
X166138061Y-104275000D01*
X166341939Y-104275000D01*
X166541898Y-104235226D01*
X166730256Y-104157205D01*
X166800142Y-104110509D01*
X166779509Y-104320000D01*
X166801423Y-104542499D01*
X166866324Y-104756447D01*
X166971716Y-104953623D01*
X167113551Y-105126449D01*
X167286377Y-105268284D01*
X167483553Y-105373676D01*
X167697501Y-105438577D01*
X167864248Y-105455000D01*
X169075752Y-105455000D01*
X169242499Y-105438577D01*
X169456447Y-105373676D01*
X169653623Y-105268284D01*
X169826449Y-105126449D01*
X169885086Y-105055000D01*
X171484914Y-105055000D01*
X171543551Y-105126449D01*
X171716377Y-105268284D01*
X171913553Y-105373676D01*
X172127501Y-105438577D01*
X172294248Y-105455000D01*
X173005752Y-105455000D01*
X173172499Y-105438577D01*
X173386447Y-105373676D01*
X173583623Y-105268284D01*
X173756449Y-105126449D01*
X173898284Y-104953623D01*
X174003676Y-104756447D01*
X174068577Y-104542499D01*
X174090491Y-104320000D01*
X174068577Y-104097501D01*
X174003676Y-103883553D01*
X173898284Y-103686377D01*
X173756449Y-103513551D01*
X173583623Y-103371716D01*
X173410000Y-103278913D01*
X173410000Y-102850558D01*
X173509744Y-102917205D01*
X173698102Y-102995226D01*
X173898061Y-103035000D01*
X174101939Y-103035000D01*
X174301898Y-102995226D01*
X174340001Y-102979443D01*
X174340001Y-106020557D01*
X174301898Y-106004774D01*
X174101939Y-105965000D01*
X173898061Y-105965000D01*
X173698102Y-106004774D01*
X173509744Y-106082795D01*
X173340226Y-106196063D01*
X173196063Y-106340226D01*
X173082795Y-106509744D01*
X173004774Y-106698102D01*
X172965000Y-106898061D01*
X172965000Y-107101939D01*
X173004774Y-107301898D01*
X173082795Y-107490256D01*
X173196063Y-107659774D01*
X173340226Y-107803937D01*
X173509744Y-107917205D01*
X173698102Y-107995226D01*
X173898061Y-108035000D01*
X174101939Y-108035000D01*
X174301898Y-107995226D01*
X174340001Y-107979443D01*
X174340001Y-109020557D01*
X174301898Y-109004774D01*
X174101939Y-108965000D01*
X173898061Y-108965000D01*
X173698102Y-109004774D01*
X173509744Y-109082795D01*
X173340226Y-109196063D01*
X173196063Y-109340226D01*
X173082795Y-109509744D01*
X173004774Y-109698102D01*
X172965000Y-109898061D01*
X172965000Y-110101939D01*
X173004774Y-110301898D01*
X173082795Y-110490256D01*
X173196063Y-110659774D01*
X173340226Y-110803937D01*
X173509744Y-110917205D01*
X173698102Y-110995226D01*
X173898061Y-111035000D01*
X174101939Y-111035000D01*
X174301898Y-110995226D01*
X174340001Y-110979443D01*
X174340001Y-112467711D01*
X174301853Y-112856776D01*
X174198238Y-113199964D01*
X174029939Y-113516489D01*
X173803365Y-113794296D01*
X173527146Y-114022805D01*
X173211803Y-114193310D01*
X172869344Y-114299319D01*
X172482288Y-114340000D01*
X170979444Y-114340000D01*
X170995226Y-114301898D01*
X171035000Y-114101939D01*
X171035000Y-113898061D01*
X170995226Y-113698102D01*
X170917205Y-113509744D01*
X170803937Y-113340226D01*
X170659774Y-113196063D01*
X170490256Y-113082795D01*
X170301898Y-113004774D01*
X170101939Y-112965000D01*
X169898061Y-112965000D01*
X169698102Y-113004774D01*
X169509744Y-113082795D01*
X169340226Y-113196063D01*
X169196063Y-113340226D01*
X169082795Y-113509744D01*
X169004774Y-113698102D01*
X168965000Y-113898061D01*
X168965000Y-114101939D01*
X169004774Y-114301898D01*
X169020556Y-114340000D01*
X167979444Y-114340000D01*
X167995226Y-114301898D01*
X168035000Y-114101939D01*
X168035000Y-113898061D01*
X167995226Y-113698102D01*
X167917205Y-113509744D01*
X167803937Y-113340226D01*
X167659774Y-113196063D01*
X167490256Y-113082795D01*
X167301898Y-113004774D01*
X167101939Y-112965000D01*
X166898061Y-112965000D01*
X166698102Y-113004774D01*
X166509744Y-113082795D01*
X166340226Y-113196063D01*
X166196063Y-113340226D01*
X166082795Y-113509744D01*
X166004774Y-113698102D01*
X165965000Y-113898061D01*
X165965000Y-114101939D01*
X166004774Y-114301898D01*
X166020556Y-114340000D01*
X161979444Y-114340000D01*
X161995226Y-114301898D01*
X162035000Y-114101939D01*
X162035000Y-113898061D01*
X161995226Y-113698102D01*
X161917205Y-113509744D01*
X161803937Y-113340226D01*
X161659774Y-113196063D01*
X161490256Y-113082795D01*
X161301898Y-113004774D01*
X161101939Y-112965000D01*
X160898061Y-112965000D01*
X160698102Y-113004774D01*
X160509744Y-113082795D01*
X160340226Y-113196063D01*
X160196063Y-113340226D01*
X160082795Y-113509744D01*
X160004774Y-113698102D01*
X159965000Y-113898061D01*
X159965000Y-114101939D01*
X160004774Y-114301898D01*
X160020556Y-114340000D01*
X157979444Y-114340000D01*
X157995226Y-114301898D01*
X158035000Y-114101939D01*
X158035000Y-113898061D01*
X157995226Y-113698102D01*
X157917205Y-113509744D01*
X157803937Y-113340226D01*
X157659774Y-113196063D01*
X157490256Y-113082795D01*
X157301898Y-113004774D01*
X157101939Y-112965000D01*
X156898061Y-112965000D01*
X156698102Y-113004774D01*
X156509744Y-113082795D01*
X156340226Y-113196063D01*
X156196063Y-113340226D01*
X156082795Y-113509744D01*
X156004774Y-113698102D01*
X155965000Y-113898061D01*
X155965000Y-114101939D01*
X156004774Y-114301898D01*
X156020556Y-114340000D01*
X154979444Y-114340000D01*
X154995226Y-114301898D01*
X155035000Y-114101939D01*
X155035000Y-113898061D01*
X154995226Y-113698102D01*
X154917205Y-113509744D01*
X154803937Y-113340226D01*
X154659774Y-113196063D01*
X154490256Y-113082795D01*
X154301898Y-113004774D01*
X154101939Y-112965000D01*
X153898061Y-112965000D01*
X153698102Y-113004774D01*
X153509744Y-113082795D01*
X153340226Y-113196063D01*
X153196063Y-113340226D01*
X153082795Y-113509744D01*
X153004774Y-113698102D01*
X152965000Y-113898061D01*
X152965000Y-114101939D01*
X153004774Y-114301898D01*
X153020556Y-114340000D01*
X151979444Y-114340000D01*
X151995226Y-114301898D01*
X152035000Y-114101939D01*
X152035000Y-113898061D01*
X151995226Y-113698102D01*
X151917205Y-113509744D01*
X151803937Y-113340226D01*
X151659774Y-113196063D01*
X151490256Y-113082795D01*
X151301898Y-113004774D01*
X151101939Y-112965000D01*
X150898061Y-112965000D01*
X150698102Y-113004774D01*
X150509744Y-113082795D01*
X150340226Y-113196063D01*
X150196063Y-113340226D01*
X150082795Y-113509744D01*
X150004774Y-113698102D01*
X149965000Y-113898061D01*
X149965000Y-114101939D01*
X150004774Y-114301898D01*
X150020556Y-114340000D01*
X148979444Y-114340000D01*
X148995226Y-114301898D01*
X149035000Y-114101939D01*
X149035000Y-113898061D01*
X148995226Y-113698102D01*
X148917205Y-113509744D01*
X148803937Y-113340226D01*
X148659774Y-113196063D01*
X148490256Y-113082795D01*
X148301898Y-113004774D01*
X148101939Y-112965000D01*
X147898061Y-112965000D01*
X147698102Y-113004774D01*
X147509744Y-113082795D01*
X147340226Y-113196063D01*
X147196063Y-113340226D01*
X147082795Y-113509744D01*
X147004774Y-113698102D01*
X146965000Y-113898061D01*
X146965000Y-114101939D01*
X147004774Y-114301898D01*
X147020556Y-114340000D01*
X145979444Y-114340000D01*
X145995226Y-114301898D01*
X146035000Y-114101939D01*
X146035000Y-113898061D01*
X145995226Y-113698102D01*
X145917205Y-113509744D01*
X145803937Y-113340226D01*
X145659774Y-113196063D01*
X145490256Y-113082795D01*
X145301898Y-113004774D01*
X145101939Y-112965000D01*
X144898061Y-112965000D01*
X144698102Y-113004774D01*
X144509744Y-113082795D01*
X144340226Y-113196063D01*
X144196063Y-113340226D01*
X144127000Y-113443586D01*
X144127000Y-110556414D01*
X144196063Y-110659774D01*
X144340226Y-110803937D01*
X144509744Y-110917205D01*
X144698102Y-110995226D01*
X144898061Y-111035000D01*
X145101939Y-111035000D01*
X145301898Y-110995226D01*
X145490256Y-110917205D01*
X145659774Y-110803937D01*
X145803937Y-110659774D01*
X145917205Y-110490256D01*
X145995226Y-110301898D01*
X146035000Y-110101939D01*
X146035000Y-109898061D01*
X145995226Y-109698102D01*
X145917205Y-109509744D01*
X145803937Y-109340226D01*
X145659774Y-109196063D01*
X145490256Y-109082795D01*
X145301898Y-109004774D01*
X145101939Y-108965000D01*
X144898061Y-108965000D01*
X144698102Y-109004774D01*
X144509744Y-109082795D01*
X144340226Y-109196063D01*
X144196063Y-109340226D01*
X144127000Y-109443586D01*
X144127000Y-108718061D01*
X153925000Y-108718061D01*
X153925000Y-108921939D01*
X153964774Y-109121898D01*
X154042795Y-109310256D01*
X154156063Y-109479774D01*
X154300226Y-109623937D01*
X154469744Y-109737205D01*
X154658102Y-109815226D01*
X154858061Y-109855000D01*
X155061939Y-109855000D01*
X155261898Y-109815226D01*
X155450256Y-109737205D01*
X155619774Y-109623937D01*
X155715650Y-109528061D01*
X155885000Y-109528061D01*
X155885000Y-109731939D01*
X155924774Y-109931898D01*
X156002795Y-110120256D01*
X156116063Y-110289774D01*
X156260226Y-110433937D01*
X156429744Y-110547205D01*
X156618102Y-110625226D01*
X156818061Y-110665000D01*
X157021939Y-110665000D01*
X157221898Y-110625226D01*
X157410256Y-110547205D01*
X157579774Y-110433937D01*
X157723937Y-110289774D01*
X157837205Y-110120256D01*
X157915226Y-109931898D01*
X157955000Y-109731939D01*
X157955000Y-109528061D01*
X157915226Y-109328102D01*
X157837205Y-109139744D01*
X157723937Y-108970226D01*
X157579774Y-108826063D01*
X157410256Y-108712795D01*
X157221898Y-108634774D01*
X157021939Y-108595000D01*
X156818061Y-108595000D01*
X156618102Y-108634774D01*
X156429744Y-108712795D01*
X156260226Y-108826063D01*
X156116063Y-108970226D01*
X156002795Y-109139744D01*
X155924774Y-109328102D01*
X155885000Y-109528061D01*
X155715650Y-109528061D01*
X155763937Y-109479774D01*
X155877205Y-109310256D01*
X155955226Y-109121898D01*
X155995000Y-108921939D01*
X155995000Y-108718061D01*
X155955226Y-108518102D01*
X155877205Y-108329744D01*
X155763937Y-108160226D01*
X155619774Y-108016063D01*
X155450256Y-107902795D01*
X155261898Y-107824774D01*
X155061939Y-107785000D01*
X154858061Y-107785000D01*
X154658102Y-107824774D01*
X154469744Y-107902795D01*
X154300226Y-108016063D01*
X154156063Y-108160226D01*
X154042795Y-108329744D01*
X153964774Y-108518102D01*
X153925000Y-108718061D01*
X144127000Y-108718061D01*
X144127000Y-106898061D01*
X145965000Y-106898061D01*
X145965000Y-107101939D01*
X146004774Y-107301898D01*
X146082795Y-107490256D01*
X146196063Y-107659774D01*
X146340226Y-107803937D01*
X146509744Y-107917205D01*
X146698102Y-107995226D01*
X146898061Y-108035000D01*
X147101939Y-108035000D01*
X147301898Y-107995226D01*
X147490256Y-107917205D01*
X147659774Y-107803937D01*
X147803937Y-107659774D01*
X147917205Y-107490256D01*
X147995226Y-107301898D01*
X148035000Y-107101939D01*
X148035000Y-106898061D01*
X150965000Y-106898061D01*
X150965000Y-107101939D01*
X151004774Y-107301898D01*
X151082795Y-107490256D01*
X151196063Y-107659774D01*
X151340226Y-107803937D01*
X151509744Y-107917205D01*
X151698102Y-107995226D01*
X151898061Y-108035000D01*
X152101939Y-108035000D01*
X152301898Y-107995226D01*
X152490256Y-107917205D01*
X152659774Y-107803937D01*
X152803937Y-107659774D01*
X152917205Y-107490256D01*
X152995226Y-107301898D01*
X153035000Y-107101939D01*
X153035000Y-106898061D01*
X152995226Y-106698102D01*
X152917205Y-106509744D01*
X152803937Y-106340226D01*
X152659774Y-106196063D01*
X152490256Y-106082795D01*
X152301898Y-106004774D01*
X152101939Y-105965000D01*
X151898061Y-105965000D01*
X151698102Y-106004774D01*
X151509744Y-106082795D01*
X151340226Y-106196063D01*
X151196063Y-106340226D01*
X151082795Y-106509744D01*
X151004774Y-106698102D01*
X150965000Y-106898061D01*
X148035000Y-106898061D01*
X147995226Y-106698102D01*
X147917205Y-106509744D01*
X147803937Y-106340226D01*
X147659774Y-106196063D01*
X147490256Y-106082795D01*
X147301898Y-106004774D01*
X147101939Y-105965000D01*
X146898061Y-105965000D01*
X146698102Y-106004774D01*
X146509744Y-106082795D01*
X146340226Y-106196063D01*
X146196063Y-106340226D01*
X146082795Y-106509744D01*
X146004774Y-106698102D01*
X145965000Y-106898061D01*
X144127000Y-106898061D01*
X144127000Y-101394183D01*
X144165226Y-101301898D01*
X144205000Y-101101939D01*
X144205000Y-100898061D01*
X144203012Y-100888063D01*
X145785000Y-100888063D01*
X145785000Y-101091941D01*
X145824774Y-101291900D01*
X145902795Y-101480258D01*
X146016063Y-101649776D01*
X146060000Y-101693713D01*
X146060001Y-102956288D01*
X146016063Y-103000226D01*
X145902795Y-103169744D01*
X145824774Y-103358102D01*
X145785000Y-103558061D01*
X145785000Y-103761939D01*
X145824774Y-103961898D01*
X145902795Y-104150256D01*
X146016063Y-104319774D01*
X146160226Y-104463937D01*
X146329744Y-104577205D01*
X146518102Y-104655226D01*
X146718061Y-104695000D01*
X146921939Y-104695000D01*
X147121898Y-104655226D01*
X147310256Y-104577205D01*
X147479774Y-104463937D01*
X147623937Y-104319774D01*
X147737205Y-104150256D01*
X147815226Y-103961898D01*
X147855000Y-103761939D01*
X147855000Y-103558061D01*
X147815226Y-103358102D01*
X147737205Y-103169744D01*
X147623937Y-103000226D01*
X147580000Y-102956289D01*
X147580000Y-102698061D01*
X152355000Y-102698061D01*
X152355000Y-102901939D01*
X152394774Y-103101898D01*
X152472795Y-103290256D01*
X152586063Y-103459774D01*
X152730226Y-103603937D01*
X152899744Y-103717205D01*
X153088102Y-103795226D01*
X153288061Y-103835000D01*
X153402334Y-103835000D01*
X153334774Y-103998102D01*
X153295000Y-104198061D01*
X153295000Y-104401939D01*
X153334774Y-104601898D01*
X153412795Y-104790256D01*
X153526063Y-104959774D01*
X153560001Y-104993712D01*
X153560000Y-105896289D01*
X153516063Y-105940226D01*
X153402795Y-106109744D01*
X153324774Y-106298102D01*
X153285000Y-106498061D01*
X153285000Y-106701939D01*
X153324774Y-106901898D01*
X153402795Y-107090256D01*
X153516063Y-107259774D01*
X153660226Y-107403937D01*
X153829744Y-107517205D01*
X154018102Y-107595226D01*
X154218061Y-107635000D01*
X154421939Y-107635000D01*
X154621898Y-107595226D01*
X154810256Y-107517205D01*
X154979774Y-107403937D01*
X155123937Y-107259774D01*
X155237205Y-107090256D01*
X155315226Y-106901898D01*
X155355000Y-106701939D01*
X155355000Y-106498061D01*
X155315226Y-106298102D01*
X155237205Y-106109744D01*
X155123937Y-105940226D01*
X155081772Y-105898061D01*
X160465000Y-105898061D01*
X160465000Y-106101939D01*
X160504774Y-106301898D01*
X160582795Y-106490256D01*
X160696063Y-106659774D01*
X160840226Y-106803937D01*
X161009744Y-106917205D01*
X161198102Y-106995226D01*
X161398061Y-107035000D01*
X161601939Y-107035000D01*
X161801898Y-106995226D01*
X161990256Y-106917205D01*
X162159774Y-106803937D01*
X162303937Y-106659774D01*
X162417205Y-106490256D01*
X162495226Y-106301898D01*
X162535000Y-106101939D01*
X162535000Y-105898061D01*
X162495226Y-105698102D01*
X162417205Y-105509744D01*
X162303937Y-105340226D01*
X162159774Y-105196063D01*
X161990256Y-105082795D01*
X161833976Y-105018061D01*
X164325000Y-105018061D01*
X164325000Y-105221939D01*
X164364774Y-105421898D01*
X164442795Y-105610256D01*
X164556063Y-105779774D01*
X164700226Y-105923937D01*
X164869744Y-106037205D01*
X165058102Y-106115226D01*
X165258061Y-106155000D01*
X165461939Y-106155000D01*
X165661898Y-106115226D01*
X165850256Y-106037205D01*
X166019774Y-105923937D01*
X166163937Y-105779774D01*
X166277205Y-105610256D01*
X166355226Y-105421898D01*
X166395000Y-105221939D01*
X166395000Y-105018061D01*
X166355226Y-104818102D01*
X166277205Y-104629744D01*
X166163937Y-104460226D01*
X166019774Y-104316063D01*
X165850256Y-104202795D01*
X165661898Y-104124774D01*
X165461939Y-104085000D01*
X165258061Y-104085000D01*
X165058102Y-104124774D01*
X164869744Y-104202795D01*
X164700226Y-104316063D01*
X164556063Y-104460226D01*
X164442795Y-104629744D01*
X164364774Y-104818102D01*
X164325000Y-105018061D01*
X161833976Y-105018061D01*
X161801898Y-105004774D01*
X161601939Y-104965000D01*
X161398061Y-104965000D01*
X161198102Y-105004774D01*
X161009744Y-105082795D01*
X160840226Y-105196063D01*
X160696063Y-105340226D01*
X160582795Y-105509744D01*
X160504774Y-105698102D01*
X160465000Y-105898061D01*
X155081772Y-105898061D01*
X155080000Y-105896289D01*
X155080000Y-105013711D01*
X155133937Y-104959774D01*
X155247205Y-104790256D01*
X155265956Y-104744987D01*
X155376063Y-104909774D01*
X155520226Y-105053937D01*
X155689744Y-105167205D01*
X155878102Y-105245226D01*
X156078061Y-105285000D01*
X156281939Y-105285000D01*
X156481898Y-105245226D01*
X156670256Y-105167205D01*
X156839774Y-105053937D01*
X156983937Y-104909774D01*
X157097205Y-104740256D01*
X157175226Y-104551898D01*
X157215000Y-104351939D01*
X157215000Y-104148061D01*
X157175226Y-103948102D01*
X157097205Y-103759744D01*
X156983937Y-103590226D01*
X156973139Y-103579428D01*
X156999744Y-103597205D01*
X157188102Y-103675226D01*
X157388061Y-103715000D01*
X157591939Y-103715000D01*
X157791898Y-103675226D01*
X157980256Y-103597205D01*
X158149774Y-103483937D01*
X158293937Y-103339774D01*
X158407205Y-103170256D01*
X158485226Y-102981898D01*
X158525000Y-102781939D01*
X158525000Y-102578061D01*
X158485226Y-102378102D01*
X158407205Y-102189744D01*
X158293937Y-102020226D01*
X158149774Y-101876063D01*
X157980256Y-101762795D01*
X157791898Y-101684774D01*
X157591939Y-101645000D01*
X157388061Y-101645000D01*
X157188102Y-101684774D01*
X156999744Y-101762795D01*
X156830226Y-101876063D01*
X156686063Y-102020226D01*
X156572795Y-102189744D01*
X156494774Y-102378102D01*
X156455000Y-102578061D01*
X156455000Y-102781939D01*
X156494774Y-102981898D01*
X156572795Y-103170256D01*
X156686063Y-103339774D01*
X156696861Y-103350572D01*
X156670256Y-103332795D01*
X156481898Y-103254774D01*
X156281939Y-103215000D01*
X156078061Y-103215000D01*
X155878102Y-103254774D01*
X155689744Y-103332795D01*
X155520226Y-103446063D01*
X155376063Y-103590226D01*
X155262795Y-103759744D01*
X155244044Y-103805013D01*
X155133937Y-103640226D01*
X154989774Y-103496063D01*
X154820256Y-103382795D01*
X154631898Y-103304774D01*
X154431939Y-103265000D01*
X154317666Y-103265000D01*
X154385226Y-103101898D01*
X154425000Y-102901939D01*
X154425000Y-102698061D01*
X154385226Y-102498102D01*
X154307205Y-102309744D01*
X154193937Y-102140226D01*
X154049774Y-101996063D01*
X153880256Y-101882795D01*
X153691898Y-101804774D01*
X153491939Y-101765000D01*
X153288061Y-101765000D01*
X153088102Y-101804774D01*
X152899744Y-101882795D01*
X152730226Y-101996063D01*
X152586063Y-102140226D01*
X152472795Y-102309744D01*
X152394774Y-102498102D01*
X152355000Y-102698061D01*
X147580000Y-102698061D01*
X147580000Y-101693713D01*
X147623937Y-101649776D01*
X147737205Y-101480258D01*
X147815226Y-101291900D01*
X147855000Y-101091941D01*
X147855000Y-100888063D01*
X147815226Y-100688104D01*
X147761298Y-100557911D01*
X158695000Y-100557911D01*
X158695000Y-100742089D01*
X158730932Y-100922729D01*
X158801414Y-101092889D01*
X158903738Y-101246028D01*
X159033972Y-101376262D01*
X159187111Y-101478586D01*
X159357271Y-101549068D01*
X159537911Y-101585000D01*
X159722089Y-101585000D01*
X159902729Y-101549068D01*
X160072889Y-101478586D01*
X160226028Y-101376262D01*
X160356262Y-101246028D01*
X160458586Y-101092889D01*
X160529068Y-100922729D01*
X160565000Y-100742089D01*
X160565000Y-100557911D01*
X160529068Y-100377271D01*
X160517715Y-100349860D01*
X163453051Y-100349860D01*
X163453051Y-100534038D01*
X163488983Y-100714678D01*
X163559465Y-100884838D01*
X163661789Y-101037977D01*
X163792023Y-101168211D01*
X163945162Y-101270535D01*
X164115322Y-101341017D01*
X164295962Y-101376949D01*
X164480140Y-101376949D01*
X164660780Y-101341017D01*
X164830940Y-101270535D01*
X164984079Y-101168211D01*
X165114313Y-101037977D01*
X165216637Y-100884838D01*
X165268346Y-100760000D01*
X168706289Y-100760000D01*
X168740226Y-100793937D01*
X168909744Y-100907205D01*
X169098102Y-100985226D01*
X169298061Y-101025000D01*
X169501939Y-101025000D01*
X169701898Y-100985226D01*
X169890256Y-100907205D01*
X170059774Y-100793937D01*
X170203937Y-100649774D01*
X170317205Y-100480256D01*
X170395226Y-100291898D01*
X170435000Y-100091939D01*
X170435000Y-99888061D01*
X170395226Y-99688102D01*
X170317205Y-99499744D01*
X170203937Y-99330226D01*
X170059774Y-99186063D01*
X169890256Y-99072795D01*
X169701898Y-98994774D01*
X169501939Y-98955000D01*
X169298061Y-98955000D01*
X169098102Y-98994774D01*
X168909744Y-99072795D01*
X168740226Y-99186063D01*
X168686289Y-99240000D01*
X165275346Y-99240000D01*
X165228586Y-99127111D01*
X165126262Y-98973972D01*
X164996028Y-98843738D01*
X164842889Y-98741414D01*
X164672729Y-98670932D01*
X164492089Y-98635000D01*
X164307911Y-98635000D01*
X164127271Y-98670932D01*
X163957111Y-98741414D01*
X163803972Y-98843738D01*
X163673738Y-98973972D01*
X163571414Y-99127111D01*
X163500932Y-99297271D01*
X163465000Y-99477911D01*
X163465000Y-99662089D01*
X163500932Y-99842729D01*
X163563305Y-99993313D01*
X163559465Y-99999060D01*
X163488983Y-100169220D01*
X163453051Y-100349860D01*
X160517715Y-100349860D01*
X160458586Y-100207111D01*
X160356262Y-100053972D01*
X160226028Y-99923738D01*
X160072889Y-99821414D01*
X159902729Y-99750932D01*
X159722089Y-99715000D01*
X159537911Y-99715000D01*
X159357271Y-99750932D01*
X159187111Y-99821414D01*
X159033972Y-99923738D01*
X158903738Y-100053972D01*
X158801414Y-100207111D01*
X158730932Y-100377271D01*
X158695000Y-100557911D01*
X147761298Y-100557911D01*
X147737205Y-100499746D01*
X147623937Y-100330228D01*
X147479774Y-100186065D01*
X147310256Y-100072797D01*
X147121898Y-99994776D01*
X146921939Y-99955002D01*
X146718061Y-99955002D01*
X146518102Y-99994776D01*
X146329744Y-100072797D01*
X146160226Y-100186065D01*
X146016063Y-100330228D01*
X145902795Y-100499746D01*
X145824774Y-100688104D01*
X145785000Y-100888063D01*
X144203012Y-100888063D01*
X144165226Y-100698102D01*
X144127000Y-100605817D01*
X144127000Y-98398061D01*
X157965000Y-98398061D01*
X157965000Y-98601939D01*
X158004774Y-98801898D01*
X158082795Y-98990256D01*
X158196063Y-99159774D01*
X158340226Y-99303937D01*
X158509744Y-99417205D01*
X158698102Y-99495226D01*
X158898061Y-99535000D01*
X159101939Y-99535000D01*
X159301898Y-99495226D01*
X159490256Y-99417205D01*
X159659774Y-99303937D01*
X159803937Y-99159774D01*
X159917205Y-98990256D01*
X159995226Y-98801898D01*
X160035000Y-98601939D01*
X160035000Y-98398061D01*
X159995226Y-98198102D01*
X159917205Y-98009744D01*
X159803937Y-97840226D01*
X159659774Y-97696063D01*
X159490256Y-97582795D01*
X159301898Y-97504774D01*
X159101939Y-97465000D01*
X158898061Y-97465000D01*
X158698102Y-97504774D01*
X158509744Y-97582795D01*
X158340226Y-97696063D01*
X158196063Y-97840226D01*
X158082795Y-98009744D01*
X158004774Y-98198102D01*
X157965000Y-98398061D01*
X144127000Y-98398061D01*
X144127000Y-97103061D01*
X151285000Y-97103061D01*
X151285000Y-97306939D01*
X151324774Y-97506898D01*
X151402795Y-97695256D01*
X151516063Y-97864774D01*
X151660226Y-98008937D01*
X151829744Y-98122205D01*
X152018102Y-98200226D01*
X152218061Y-98240000D01*
X152421939Y-98240000D01*
X152621898Y-98200226D01*
X152810256Y-98122205D01*
X152979774Y-98008937D01*
X153123937Y-97864774D01*
X153237205Y-97695256D01*
X153315226Y-97506898D01*
X153355000Y-97306939D01*
X153355000Y-97103061D01*
X153315226Y-96903102D01*
X153237205Y-96714744D01*
X153123937Y-96545226D01*
X152979774Y-96401063D01*
X152810256Y-96287795D01*
X152621898Y-96209774D01*
X152421939Y-96170000D01*
X152218061Y-96170000D01*
X152018102Y-96209774D01*
X151829744Y-96287795D01*
X151660226Y-96401063D01*
X151516063Y-96545226D01*
X151402795Y-96714744D01*
X151324774Y-96903102D01*
X151285000Y-97103061D01*
X144127000Y-97103061D01*
X144127000Y-93898061D01*
X160965000Y-93898061D01*
X160965000Y-94101939D01*
X161004774Y-94301898D01*
X161082795Y-94490256D01*
X161196063Y-94659774D01*
X161340226Y-94803937D01*
X161509744Y-94917205D01*
X161698102Y-94995226D01*
X161898061Y-95035000D01*
X162101939Y-95035000D01*
X162301898Y-94995226D01*
X162490256Y-94917205D01*
X162659774Y-94803937D01*
X162803937Y-94659774D01*
X162917205Y-94490256D01*
X162995226Y-94301898D01*
X163035000Y-94101939D01*
X163035000Y-93898061D01*
X162995226Y-93698102D01*
X162917205Y-93509744D01*
X162803937Y-93340226D01*
X162659774Y-93196063D01*
X162490256Y-93082795D01*
X162301898Y-93004774D01*
X162101939Y-92965000D01*
X161898061Y-92965000D01*
X161698102Y-93004774D01*
X161509744Y-93082795D01*
X161340226Y-93196063D01*
X161196063Y-93340226D01*
X161082795Y-93509744D01*
X161004774Y-93698102D01*
X160965000Y-93898061D01*
X144127000Y-93898061D01*
X144127000Y-91898061D01*
X151965000Y-91898061D01*
X151965000Y-92101939D01*
X152004774Y-92301898D01*
X152082795Y-92490256D01*
X152196063Y-92659774D01*
X152340226Y-92803937D01*
X152509744Y-92917205D01*
X152698102Y-92995226D01*
X152898061Y-93035000D01*
X153101939Y-93035000D01*
X153301898Y-92995226D01*
X153490256Y-92917205D01*
X153659774Y-92803937D01*
X153803937Y-92659774D01*
X153917205Y-92490256D01*
X153995226Y-92301898D01*
X154035000Y-92101939D01*
X154035000Y-91898061D01*
X153995226Y-91698102D01*
X153917205Y-91509744D01*
X153803937Y-91340226D01*
X153659774Y-91196063D01*
X153490256Y-91082795D01*
X153301898Y-91004774D01*
X153101939Y-90965000D01*
X152898061Y-90965000D01*
X152698102Y-91004774D01*
X152509744Y-91082795D01*
X152340226Y-91196063D01*
X152196063Y-91340226D01*
X152082795Y-91509744D01*
X152004774Y-91698102D01*
X151965000Y-91898061D01*
X144127000Y-91898061D01*
X144127000Y-90564056D01*
X144264589Y-90655990D01*
X144534842Y-90767932D01*
X144821740Y-90825000D01*
X145114260Y-90825000D01*
X145401158Y-90767932D01*
X145671411Y-90655990D01*
X145914632Y-90493475D01*
X146121475Y-90286632D01*
X146238000Y-90112240D01*
X146354525Y-90286632D01*
X146561368Y-90493475D01*
X146804589Y-90655990D01*
X147074842Y-90767932D01*
X147361740Y-90825000D01*
X147654260Y-90825000D01*
X147941158Y-90767932D01*
X148211411Y-90655990D01*
X148454632Y-90493475D01*
X148661475Y-90286632D01*
X148778000Y-90112240D01*
X148894525Y-90286632D01*
X149101368Y-90493475D01*
X149344589Y-90655990D01*
X149614842Y-90767932D01*
X149901740Y-90825000D01*
X150194260Y-90825000D01*
X150481158Y-90767932D01*
X150751411Y-90655990D01*
X150994632Y-90493475D01*
X151201475Y-90286632D01*
X151318000Y-90112240D01*
X151434525Y-90286632D01*
X151641368Y-90493475D01*
X151884589Y-90655990D01*
X152154842Y-90767932D01*
X152441740Y-90825000D01*
X152734260Y-90825000D01*
X153021158Y-90767932D01*
X153291411Y-90655990D01*
X153534632Y-90493475D01*
X153741475Y-90286632D01*
X153858000Y-90112240D01*
X153974525Y-90286632D01*
X154181368Y-90493475D01*
X154424589Y-90655990D01*
X154694842Y-90767932D01*
X154981740Y-90825000D01*
X155274260Y-90825000D01*
X155561158Y-90767932D01*
X155831411Y-90655990D01*
X156074632Y-90493475D01*
X156281475Y-90286632D01*
X156398000Y-90112240D01*
X156514525Y-90286632D01*
X156721368Y-90493475D01*
X156964589Y-90655990D01*
X157234842Y-90767932D01*
X157521740Y-90825000D01*
X157814260Y-90825000D01*
X158101158Y-90767932D01*
X158371411Y-90655990D01*
X158614632Y-90493475D01*
X158821475Y-90286632D01*
X158943195Y-90104466D01*
X159012822Y-90221355D01*
X159207731Y-90437588D01*
X159441080Y-90611641D01*
X159703901Y-90736825D01*
X159851110Y-90781476D01*
X160081000Y-90660155D01*
X160081000Y-89467000D01*
X160335000Y-89467000D01*
X160335000Y-90660155D01*
X160564890Y-90781476D01*
X160712099Y-90736825D01*
X160974920Y-90611641D01*
X161208269Y-90437588D01*
X161403178Y-90221355D01*
X161552157Y-89971252D01*
X161649481Y-89696891D01*
X161528814Y-89467000D01*
X160335000Y-89467000D01*
X160081000Y-89467000D01*
X160061000Y-89467000D01*
X160061000Y-89213000D01*
X160081000Y-89213000D01*
X160081000Y-89193000D01*
X160335000Y-89193000D01*
X160335000Y-89213000D01*
X161528814Y-89213000D01*
X161649481Y-88983109D01*
X161552157Y-88708748D01*
X161468354Y-88568061D01*
X163495000Y-88568061D01*
X163495000Y-88771939D01*
X163534774Y-88971898D01*
X163612795Y-89160256D01*
X163726063Y-89329774D01*
X163870226Y-89473937D01*
X164039744Y-89587205D01*
X164228102Y-89665226D01*
X164428061Y-89705000D01*
X164631939Y-89705000D01*
X164831898Y-89665226D01*
X165020256Y-89587205D01*
X165189774Y-89473937D01*
X165333937Y-89329774D01*
X165346591Y-89310836D01*
X165426063Y-89429774D01*
X165570226Y-89573937D01*
X165739744Y-89687205D01*
X165928102Y-89765226D01*
X166128061Y-89805000D01*
X166331939Y-89805000D01*
X166531898Y-89765226D01*
X166720256Y-89687205D01*
X166889774Y-89573937D01*
X167033937Y-89429774D01*
X167147205Y-89260256D01*
X167225226Y-89071898D01*
X167265000Y-88871939D01*
X167265000Y-88668061D01*
X167245109Y-88568061D01*
X168895000Y-88568061D01*
X168895000Y-88771939D01*
X168934774Y-88971898D01*
X169012795Y-89160256D01*
X169126063Y-89329774D01*
X169270226Y-89473937D01*
X169439744Y-89587205D01*
X169628102Y-89665226D01*
X169828061Y-89705000D01*
X170031939Y-89705000D01*
X170231898Y-89665226D01*
X170420256Y-89587205D01*
X170589774Y-89473937D01*
X170733937Y-89329774D01*
X170847205Y-89160256D01*
X170925226Y-88971898D01*
X170965000Y-88771939D01*
X170965000Y-88568061D01*
X170925226Y-88368102D01*
X170847205Y-88179744D01*
X170733937Y-88010226D01*
X170589774Y-87866063D01*
X170420256Y-87752795D01*
X170231898Y-87674774D01*
X170031939Y-87635000D01*
X169828061Y-87635000D01*
X169628102Y-87674774D01*
X169439744Y-87752795D01*
X169270226Y-87866063D01*
X169126063Y-88010226D01*
X169012795Y-88179744D01*
X168934774Y-88368102D01*
X168895000Y-88568061D01*
X167245109Y-88568061D01*
X167225226Y-88468102D01*
X167147205Y-88279744D01*
X167033937Y-88110226D01*
X166889774Y-87966063D01*
X166720256Y-87852795D01*
X166531898Y-87774774D01*
X166331939Y-87735000D01*
X166128061Y-87735000D01*
X165928102Y-87774774D01*
X165739744Y-87852795D01*
X165570226Y-87966063D01*
X165426063Y-88110226D01*
X165413409Y-88129164D01*
X165333937Y-88010226D01*
X165189774Y-87866063D01*
X165020256Y-87752795D01*
X164831898Y-87674774D01*
X164631939Y-87635000D01*
X164428061Y-87635000D01*
X164228102Y-87674774D01*
X164039744Y-87752795D01*
X163870226Y-87866063D01*
X163726063Y-88010226D01*
X163612795Y-88179744D01*
X163534774Y-88368102D01*
X163495000Y-88568061D01*
X161468354Y-88568061D01*
X161403178Y-88458645D01*
X161226374Y-88262498D01*
X161302180Y-88239502D01*
X161412494Y-88180537D01*
X161509185Y-88101185D01*
X161588537Y-88004494D01*
X161647502Y-87894180D01*
X161683812Y-87774482D01*
X161696072Y-87650000D01*
X161696072Y-85950000D01*
X161683812Y-85825518D01*
X161647502Y-85705820D01*
X161623010Y-85660000D01*
X163020556Y-85660000D01*
X163004774Y-85698102D01*
%TA.AperFunction,Conductor*%
D21*
G36*
X163004774Y-85698102D02*
G01*
X162965000Y-85898061D01*
X162965000Y-86101939D01*
X163004774Y-86301898D01*
X163082795Y-86490256D01*
X163196063Y-86659774D01*
X163340226Y-86803937D01*
X163509744Y-86917205D01*
X163698102Y-86995226D01*
X163898061Y-87035000D01*
X164101939Y-87035000D01*
X164301898Y-86995226D01*
X164490256Y-86917205D01*
X164659774Y-86803937D01*
X164803937Y-86659774D01*
X164917205Y-86490256D01*
X164995226Y-86301898D01*
X165035000Y-86101939D01*
X165035000Y-85898061D01*
X164995226Y-85698102D01*
X164979444Y-85660000D01*
X166020556Y-85660000D01*
X166004774Y-85698102D01*
X165965000Y-85898061D01*
X165965000Y-86101939D01*
X166004774Y-86301898D01*
X166082795Y-86490256D01*
X166196063Y-86659774D01*
X166340226Y-86803937D01*
X166509744Y-86917205D01*
X166698102Y-86995226D01*
X166898061Y-87035000D01*
X167101939Y-87035000D01*
X167301898Y-86995226D01*
X167490256Y-86917205D01*
X167659774Y-86803937D01*
X167803937Y-86659774D01*
X167917205Y-86490256D01*
X167995226Y-86301898D01*
X168035000Y-86101939D01*
X168035000Y-85898061D01*
X167995226Y-85698102D01*
X167979444Y-85660000D01*
X169020556Y-85660000D01*
X169004774Y-85698102D01*
X168965000Y-85898061D01*
X168965000Y-86101939D01*
X169004774Y-86301898D01*
X169082795Y-86490256D01*
X169196063Y-86659774D01*
X169340226Y-86803937D01*
X169509744Y-86917205D01*
X169698102Y-86995226D01*
X169898061Y-87035000D01*
X170101939Y-87035000D01*
X170301898Y-86995226D01*
X170490256Y-86917205D01*
X170659774Y-86803937D01*
X170803937Y-86659774D01*
X170917205Y-86490256D01*
X170995226Y-86301898D01*
X171035000Y-86101939D01*
X171035000Y-85898061D01*
X170995226Y-85698102D01*
X170979444Y-85660000D01*
X172467721Y-85660000D01*
X172856775Y-85698147D01*
X173199967Y-85801763D01*
X173516489Y-85970062D01*
X173794299Y-86196637D01*
X174022806Y-86472856D01*
X174193310Y-86788197D01*
X174299319Y-87130656D01*
X174340000Y-87517712D01*
X174340000Y-89020557D01*
X174301898Y-89004774D01*
X174101939Y-88965000D01*
X173898061Y-88965000D01*
X173698102Y-89004774D01*
X173509744Y-89082795D01*
X173340226Y-89196063D01*
X173196063Y-89340226D01*
X173082795Y-89509744D01*
X173004774Y-89698102D01*
X172965000Y-89898061D01*
X172965000Y-90101939D01*
X173004774Y-90301898D01*
X173082795Y-90490256D01*
X173196063Y-90659774D01*
X173340226Y-90803937D01*
X173509744Y-90917205D01*
X173698102Y-90995226D01*
X173898061Y-91035000D01*
X174101939Y-91035000D01*
X174301898Y-90995226D01*
X174340000Y-90979443D01*
X174340000Y-92020557D01*
X174301898Y-92004774D01*
X174101939Y-91965000D01*
X173898061Y-91965000D01*
X173698102Y-92004774D01*
X173509744Y-92082795D01*
X173340226Y-92196063D01*
X173196063Y-92340226D01*
X173082795Y-92509744D01*
X173004774Y-92698102D01*
X172965000Y-92898061D01*
X172965000Y-93101939D01*
X173004774Y-93301898D01*
X173082795Y-93490256D01*
X173196063Y-93659774D01*
X173340226Y-93803937D01*
X173509744Y-93917205D01*
X173698102Y-93995226D01*
X173898061Y-94035000D01*
X174101939Y-94035000D01*
X174301898Y-93995226D01*
X174340000Y-93979443D01*
X174340000Y-97020557D01*
X174301898Y-97004774D01*
X174101939Y-96965000D01*
X173898061Y-96965000D01*
X173698102Y-97004774D01*
X173509744Y-97082795D01*
X173410000Y-97149442D01*
X173410000Y-96721087D01*
X173583623Y-96628284D01*
X173756449Y-96486449D01*
X173898284Y-96313623D01*
X174003676Y-96116447D01*
X174068577Y-95902499D01*
X174090491Y-95680000D01*
X174068577Y-95457501D01*
X174003676Y-95243553D01*
X173898284Y-95046377D01*
X173756449Y-94873551D01*
X173583623Y-94731716D01*
X173386447Y-94626324D01*
X173172499Y-94561423D01*
X173005752Y-94545000D01*
X172294248Y-94545000D01*
X172127501Y-94561423D01*
X171913553Y-94626324D01*
X171716377Y-94731716D01*
X171543551Y-94873551D01*
X171484914Y-94945000D01*
X169885086Y-94945000D01*
X169826449Y-94873551D01*
X169653623Y-94731716D01*
X169456447Y-94626324D01*
X169242499Y-94561423D01*
X169075752Y-94545000D01*
X167864248Y-94545000D01*
X167697501Y-94561423D01*
X167483553Y-94626324D01*
X167286377Y-94731716D01*
X167113551Y-94873551D01*
X166971716Y-95046377D01*
X166866324Y-95243553D01*
X166801423Y-95457501D01*
X166779509Y-95680000D01*
X166799792Y-95885939D01*
X166720256Y-95832795D01*
X166531898Y-95754774D01*
X166331939Y-95715000D01*
X166128061Y-95715000D01*
X165928102Y-95754774D01*
X165864054Y-95781304D01*
X166009774Y-95683937D01*
X166153937Y-95539774D01*
X166267205Y-95370256D01*
X166345226Y-95181898D01*
X166385000Y-94981939D01*
X166385000Y-94778061D01*
X166345226Y-94578102D01*
X166267205Y-94389744D01*
X166153937Y-94220226D01*
X166009774Y-94076063D01*
X165840256Y-93962795D01*
X165651898Y-93884774D01*
X165451939Y-93845000D01*
X165248061Y-93845000D01*
X165048102Y-93884774D01*
X164859744Y-93962795D01*
X164690226Y-94076063D01*
X164546063Y-94220226D01*
X164432795Y-94389744D01*
X164354774Y-94578102D01*
X164315000Y-94778061D01*
X164315000Y-94981939D01*
X164354774Y-95181898D01*
X164432795Y-95370256D01*
X164546063Y-95539774D01*
X164690226Y-95683937D01*
X164859744Y-95797205D01*
X165048102Y-95875226D01*
X165248061Y-95915000D01*
X165451939Y-95915000D01*
X165651898Y-95875226D01*
X165715946Y-95848696D01*
X165570226Y-95946063D01*
X165426063Y-96090226D01*
X165312795Y-96259744D01*
X165234774Y-96448102D01*
X165195000Y-96648061D01*
X165195000Y-96851939D01*
X165234774Y-97051898D01*
X165312795Y-97240256D01*
X165426063Y-97409774D01*
X165570226Y-97553937D01*
X165739744Y-97667205D01*
X165928102Y-97745226D01*
X166128061Y-97785000D01*
X166331939Y-97785000D01*
X166531898Y-97745226D01*
X166720256Y-97667205D01*
X166889774Y-97553937D01*
X167033937Y-97409774D01*
X167147205Y-97240256D01*
X167225226Y-97051898D01*
X167265000Y-96851939D01*
X167265000Y-96648061D01*
X167256128Y-96603459D01*
X167286377Y-96628284D01*
X167483553Y-96733676D01*
X167697501Y-96798577D01*
X167864248Y-96815000D01*
X168083096Y-96815000D01*
X168076892Y-96829978D01*
X168040000Y-97015448D01*
X168040000Y-97204552D01*
X168076892Y-97390022D01*
X168149259Y-97564731D01*
X168254319Y-97721964D01*
X168388036Y-97855681D01*
X168545269Y-97960741D01*
X168719978Y-98033108D01*
X168905448Y-98070000D01*
X169094552Y-98070000D01*
X169280022Y-98033108D01*
X169454731Y-97960741D01*
X169611964Y-97855681D01*
X169745681Y-97721964D01*
X169850741Y-97564731D01*
X169923108Y-97390022D01*
X169960000Y-97204552D01*
X169960000Y-97015448D01*
X169923108Y-96829978D01*
X169850741Y-96655269D01*
X169769285Y-96533362D01*
X169826449Y-96486449D01*
X169885086Y-96415000D01*
X171484914Y-96415000D01*
X171543551Y-96486449D01*
X171716377Y-96628284D01*
X171913553Y-96733676D01*
X171940000Y-96741699D01*
X171940001Y-103258301D01*
X171913553Y-103266324D01*
X171716377Y-103371716D01*
X171543551Y-103513551D01*
X171484914Y-103585000D01*
X169885086Y-103585000D01*
X169826449Y-103513551D01*
X169769285Y-103466638D01*
X169850741Y-103344731D01*
X169923108Y-103170022D01*
X169960000Y-102984552D01*
X169960000Y-102795448D01*
X169923108Y-102609978D01*
X169850741Y-102435269D01*
X169745681Y-102278036D01*
X169611964Y-102144319D01*
X169454731Y-102039259D01*
X169280022Y-101966892D01*
X169094552Y-101930000D01*
X168905448Y-101930000D01*
X168719978Y-101966892D01*
X168545269Y-102039259D01*
X168388036Y-102144319D01*
X168254319Y-102278036D01*
X168149259Y-102435269D01*
X168076892Y-102609978D01*
X168040000Y-102795448D01*
X168040000Y-102984552D01*
X168076892Y-103170022D01*
X168083096Y-103185000D01*
X167864248Y-103185000D01*
X167697501Y-103201423D01*
X167483553Y-103266324D01*
X167286377Y-103371716D01*
X167265702Y-103388684D01*
X167275000Y-103341939D01*
X167275000Y-103138061D01*
X167235226Y-102938102D01*
X167157205Y-102749744D01*
X167043937Y-102580226D01*
X166899774Y-102436063D01*
X166730256Y-102322795D01*
X166541898Y-102244774D01*
X166341939Y-102205000D01*
X166138061Y-102205000D01*
X165938102Y-102244774D01*
X165749744Y-102322795D01*
X165580226Y-102436063D01*
X165436063Y-102580226D01*
X165322795Y-102749744D01*
X165244774Y-102938102D01*
X165205000Y-103138061D01*
X165205000Y-103341939D01*
X165244774Y-103541898D01*
X165322795Y-103730256D01*
X165436063Y-103899774D01*
X165580226Y-104043937D01*
X165749744Y-104157205D01*
X165938102Y-104235226D01*
X166138061Y-104275000D01*
X166341939Y-104275000D01*
X166541898Y-104235226D01*
X166730256Y-104157205D01*
X166800142Y-104110509D01*
X166779509Y-104320000D01*
X166801423Y-104542499D01*
X166866324Y-104756447D01*
X166971716Y-104953623D01*
X167113551Y-105126449D01*
X167286377Y-105268284D01*
X167483553Y-105373676D01*
X167697501Y-105438577D01*
X167864248Y-105455000D01*
X169075752Y-105455000D01*
X169242499Y-105438577D01*
X169456447Y-105373676D01*
X169653623Y-105268284D01*
X169826449Y-105126449D01*
X169885086Y-105055000D01*
X171484914Y-105055000D01*
X171543551Y-105126449D01*
X171716377Y-105268284D01*
X171913553Y-105373676D01*
X172127501Y-105438577D01*
X172294248Y-105455000D01*
X173005752Y-105455000D01*
X173172499Y-105438577D01*
X173386447Y-105373676D01*
X173583623Y-105268284D01*
X173756449Y-105126449D01*
X173898284Y-104953623D01*
X174003676Y-104756447D01*
X174068577Y-104542499D01*
X174090491Y-104320000D01*
X174068577Y-104097501D01*
X174003676Y-103883553D01*
X173898284Y-103686377D01*
X173756449Y-103513551D01*
X173583623Y-103371716D01*
X173410000Y-103278913D01*
X173410000Y-102850558D01*
X173509744Y-102917205D01*
X173698102Y-102995226D01*
X173898061Y-103035000D01*
X174101939Y-103035000D01*
X174301898Y-102995226D01*
X174340001Y-102979443D01*
X174340001Y-106020557D01*
X174301898Y-106004774D01*
X174101939Y-105965000D01*
X173898061Y-105965000D01*
X173698102Y-106004774D01*
X173509744Y-106082795D01*
X173340226Y-106196063D01*
X173196063Y-106340226D01*
X173082795Y-106509744D01*
X173004774Y-106698102D01*
X172965000Y-106898061D01*
X172965000Y-107101939D01*
X173004774Y-107301898D01*
X173082795Y-107490256D01*
X173196063Y-107659774D01*
X173340226Y-107803937D01*
X173509744Y-107917205D01*
X173698102Y-107995226D01*
X173898061Y-108035000D01*
X174101939Y-108035000D01*
X174301898Y-107995226D01*
X174340001Y-107979443D01*
X174340001Y-109020557D01*
X174301898Y-109004774D01*
X174101939Y-108965000D01*
X173898061Y-108965000D01*
X173698102Y-109004774D01*
X173509744Y-109082795D01*
X173340226Y-109196063D01*
X173196063Y-109340226D01*
X173082795Y-109509744D01*
X173004774Y-109698102D01*
X172965000Y-109898061D01*
X172965000Y-110101939D01*
X173004774Y-110301898D01*
X173082795Y-110490256D01*
X173196063Y-110659774D01*
X173340226Y-110803937D01*
X173509744Y-110917205D01*
X173698102Y-110995226D01*
X173898061Y-111035000D01*
X174101939Y-111035000D01*
X174301898Y-110995226D01*
X174340001Y-110979443D01*
X174340001Y-112467711D01*
X174301853Y-112856776D01*
X174198238Y-113199964D01*
X174029939Y-113516489D01*
X173803365Y-113794296D01*
X173527146Y-114022805D01*
X173211803Y-114193310D01*
X172869344Y-114299319D01*
X172482288Y-114340000D01*
X170979444Y-114340000D01*
X170995226Y-114301898D01*
X171035000Y-114101939D01*
X171035000Y-113898061D01*
X170995226Y-113698102D01*
X170917205Y-113509744D01*
X170803937Y-113340226D01*
X170659774Y-113196063D01*
X170490256Y-113082795D01*
X170301898Y-113004774D01*
X170101939Y-112965000D01*
X169898061Y-112965000D01*
X169698102Y-113004774D01*
X169509744Y-113082795D01*
X169340226Y-113196063D01*
X169196063Y-113340226D01*
X169082795Y-113509744D01*
X169004774Y-113698102D01*
X168965000Y-113898061D01*
X168965000Y-114101939D01*
X169004774Y-114301898D01*
X169020556Y-114340000D01*
X167979444Y-114340000D01*
X167995226Y-114301898D01*
X168035000Y-114101939D01*
X168035000Y-113898061D01*
X167995226Y-113698102D01*
X167917205Y-113509744D01*
X167803937Y-113340226D01*
X167659774Y-113196063D01*
X167490256Y-113082795D01*
X167301898Y-113004774D01*
X167101939Y-112965000D01*
X166898061Y-112965000D01*
X166698102Y-113004774D01*
X166509744Y-113082795D01*
X166340226Y-113196063D01*
X166196063Y-113340226D01*
X166082795Y-113509744D01*
X166004774Y-113698102D01*
X165965000Y-113898061D01*
X165965000Y-114101939D01*
X166004774Y-114301898D01*
X166020556Y-114340000D01*
X161979444Y-114340000D01*
X161995226Y-114301898D01*
X162035000Y-114101939D01*
X162035000Y-113898061D01*
X161995226Y-113698102D01*
X161917205Y-113509744D01*
X161803937Y-113340226D01*
X161659774Y-113196063D01*
X161490256Y-113082795D01*
X161301898Y-113004774D01*
X161101939Y-112965000D01*
X160898061Y-112965000D01*
X160698102Y-113004774D01*
X160509744Y-113082795D01*
X160340226Y-113196063D01*
X160196063Y-113340226D01*
X160082795Y-113509744D01*
X160004774Y-113698102D01*
X159965000Y-113898061D01*
X159965000Y-114101939D01*
X160004774Y-114301898D01*
X160020556Y-114340000D01*
X157979444Y-114340000D01*
X157995226Y-114301898D01*
X158035000Y-114101939D01*
X158035000Y-113898061D01*
X157995226Y-113698102D01*
X157917205Y-113509744D01*
X157803937Y-113340226D01*
X157659774Y-113196063D01*
X157490256Y-113082795D01*
X157301898Y-113004774D01*
X157101939Y-112965000D01*
X156898061Y-112965000D01*
X156698102Y-113004774D01*
X156509744Y-113082795D01*
X156340226Y-113196063D01*
X156196063Y-113340226D01*
X156082795Y-113509744D01*
X156004774Y-113698102D01*
X155965000Y-113898061D01*
X155965000Y-114101939D01*
X156004774Y-114301898D01*
X156020556Y-114340000D01*
X154979444Y-114340000D01*
X154995226Y-114301898D01*
X155035000Y-114101939D01*
X155035000Y-113898061D01*
X154995226Y-113698102D01*
X154917205Y-113509744D01*
X154803937Y-113340226D01*
X154659774Y-113196063D01*
X154490256Y-113082795D01*
X154301898Y-113004774D01*
X154101939Y-112965000D01*
X153898061Y-112965000D01*
X153698102Y-113004774D01*
X153509744Y-113082795D01*
X153340226Y-113196063D01*
X153196063Y-113340226D01*
X153082795Y-113509744D01*
X153004774Y-113698102D01*
X152965000Y-113898061D01*
X152965000Y-114101939D01*
X153004774Y-114301898D01*
X153020556Y-114340000D01*
X151979444Y-114340000D01*
X151995226Y-114301898D01*
X152035000Y-114101939D01*
X152035000Y-113898061D01*
X151995226Y-113698102D01*
X151917205Y-113509744D01*
X151803937Y-113340226D01*
X151659774Y-113196063D01*
X151490256Y-113082795D01*
X151301898Y-113004774D01*
X151101939Y-112965000D01*
X150898061Y-112965000D01*
X150698102Y-113004774D01*
X150509744Y-113082795D01*
X150340226Y-113196063D01*
X150196063Y-113340226D01*
X150082795Y-113509744D01*
X150004774Y-113698102D01*
X149965000Y-113898061D01*
X149965000Y-114101939D01*
X150004774Y-114301898D01*
X150020556Y-114340000D01*
X148979444Y-114340000D01*
X148995226Y-114301898D01*
X149035000Y-114101939D01*
X149035000Y-113898061D01*
X148995226Y-113698102D01*
X148917205Y-113509744D01*
X148803937Y-113340226D01*
X148659774Y-113196063D01*
X148490256Y-113082795D01*
X148301898Y-113004774D01*
X148101939Y-112965000D01*
X147898061Y-112965000D01*
X147698102Y-113004774D01*
X147509744Y-113082795D01*
X147340226Y-113196063D01*
X147196063Y-113340226D01*
X147082795Y-113509744D01*
X147004774Y-113698102D01*
X146965000Y-113898061D01*
X146965000Y-114101939D01*
X147004774Y-114301898D01*
X147020556Y-114340000D01*
X145979444Y-114340000D01*
X145995226Y-114301898D01*
X146035000Y-114101939D01*
X146035000Y-113898061D01*
X145995226Y-113698102D01*
X145917205Y-113509744D01*
X145803937Y-113340226D01*
X145659774Y-113196063D01*
X145490256Y-113082795D01*
X145301898Y-113004774D01*
X145101939Y-112965000D01*
X144898061Y-112965000D01*
X144698102Y-113004774D01*
X144509744Y-113082795D01*
X144340226Y-113196063D01*
X144196063Y-113340226D01*
X144127000Y-113443586D01*
X144127000Y-110556414D01*
X144196063Y-110659774D01*
X144340226Y-110803937D01*
X144509744Y-110917205D01*
X144698102Y-110995226D01*
X144898061Y-111035000D01*
X145101939Y-111035000D01*
X145301898Y-110995226D01*
X145490256Y-110917205D01*
X145659774Y-110803937D01*
X145803937Y-110659774D01*
X145917205Y-110490256D01*
X145995226Y-110301898D01*
X146035000Y-110101939D01*
X146035000Y-109898061D01*
X145995226Y-109698102D01*
X145917205Y-109509744D01*
X145803937Y-109340226D01*
X145659774Y-109196063D01*
X145490256Y-109082795D01*
X145301898Y-109004774D01*
X145101939Y-108965000D01*
X144898061Y-108965000D01*
X144698102Y-109004774D01*
X144509744Y-109082795D01*
X144340226Y-109196063D01*
X144196063Y-109340226D01*
X144127000Y-109443586D01*
X144127000Y-108718061D01*
X153925000Y-108718061D01*
X153925000Y-108921939D01*
X153964774Y-109121898D01*
X154042795Y-109310256D01*
X154156063Y-109479774D01*
X154300226Y-109623937D01*
X154469744Y-109737205D01*
X154658102Y-109815226D01*
X154858061Y-109855000D01*
X155061939Y-109855000D01*
X155261898Y-109815226D01*
X155450256Y-109737205D01*
X155619774Y-109623937D01*
X155715650Y-109528061D01*
X155885000Y-109528061D01*
X155885000Y-109731939D01*
X155924774Y-109931898D01*
X156002795Y-110120256D01*
X156116063Y-110289774D01*
X156260226Y-110433937D01*
X156429744Y-110547205D01*
X156618102Y-110625226D01*
X156818061Y-110665000D01*
X157021939Y-110665000D01*
X157221898Y-110625226D01*
X157410256Y-110547205D01*
X157579774Y-110433937D01*
X157723937Y-110289774D01*
X157837205Y-110120256D01*
X157915226Y-109931898D01*
X157955000Y-109731939D01*
X157955000Y-109528061D01*
X157915226Y-109328102D01*
X157837205Y-109139744D01*
X157723937Y-108970226D01*
X157579774Y-108826063D01*
X157410256Y-108712795D01*
X157221898Y-108634774D01*
X157021939Y-108595000D01*
X156818061Y-108595000D01*
X156618102Y-108634774D01*
X156429744Y-108712795D01*
X156260226Y-108826063D01*
X156116063Y-108970226D01*
X156002795Y-109139744D01*
X155924774Y-109328102D01*
X155885000Y-109528061D01*
X155715650Y-109528061D01*
X155763937Y-109479774D01*
X155877205Y-109310256D01*
X155955226Y-109121898D01*
X155995000Y-108921939D01*
X155995000Y-108718061D01*
X155955226Y-108518102D01*
X155877205Y-108329744D01*
X155763937Y-108160226D01*
X155619774Y-108016063D01*
X155450256Y-107902795D01*
X155261898Y-107824774D01*
X155061939Y-107785000D01*
X154858061Y-107785000D01*
X154658102Y-107824774D01*
X154469744Y-107902795D01*
X154300226Y-108016063D01*
X154156063Y-108160226D01*
X154042795Y-108329744D01*
X153964774Y-108518102D01*
X153925000Y-108718061D01*
X144127000Y-108718061D01*
X144127000Y-106898061D01*
X145965000Y-106898061D01*
X145965000Y-107101939D01*
X146004774Y-107301898D01*
X146082795Y-107490256D01*
X146196063Y-107659774D01*
X146340226Y-107803937D01*
X146509744Y-107917205D01*
X146698102Y-107995226D01*
X146898061Y-108035000D01*
X147101939Y-108035000D01*
X147301898Y-107995226D01*
X147490256Y-107917205D01*
X147659774Y-107803937D01*
X147803937Y-107659774D01*
X147917205Y-107490256D01*
X147995226Y-107301898D01*
X148035000Y-107101939D01*
X148035000Y-106898061D01*
X150965000Y-106898061D01*
X150965000Y-107101939D01*
X151004774Y-107301898D01*
X151082795Y-107490256D01*
X151196063Y-107659774D01*
X151340226Y-107803937D01*
X151509744Y-107917205D01*
X151698102Y-107995226D01*
X151898061Y-108035000D01*
X152101939Y-108035000D01*
X152301898Y-107995226D01*
X152490256Y-107917205D01*
X152659774Y-107803937D01*
X152803937Y-107659774D01*
X152917205Y-107490256D01*
X152995226Y-107301898D01*
X153035000Y-107101939D01*
X153035000Y-106898061D01*
X152995226Y-106698102D01*
X152917205Y-106509744D01*
X152803937Y-106340226D01*
X152659774Y-106196063D01*
X152490256Y-106082795D01*
X152301898Y-106004774D01*
X152101939Y-105965000D01*
X151898061Y-105965000D01*
X151698102Y-106004774D01*
X151509744Y-106082795D01*
X151340226Y-106196063D01*
X151196063Y-106340226D01*
X151082795Y-106509744D01*
X151004774Y-106698102D01*
X150965000Y-106898061D01*
X148035000Y-106898061D01*
X147995226Y-106698102D01*
X147917205Y-106509744D01*
X147803937Y-106340226D01*
X147659774Y-106196063D01*
X147490256Y-106082795D01*
X147301898Y-106004774D01*
X147101939Y-105965000D01*
X146898061Y-105965000D01*
X146698102Y-106004774D01*
X146509744Y-106082795D01*
X146340226Y-106196063D01*
X146196063Y-106340226D01*
X146082795Y-106509744D01*
X146004774Y-106698102D01*
X145965000Y-106898061D01*
X144127000Y-106898061D01*
X144127000Y-101394183D01*
X144165226Y-101301898D01*
X144205000Y-101101939D01*
X144205000Y-100898061D01*
X144203012Y-100888063D01*
X145785000Y-100888063D01*
X145785000Y-101091941D01*
X145824774Y-101291900D01*
X145902795Y-101480258D01*
X146016063Y-101649776D01*
X146060000Y-101693713D01*
X146060001Y-102956288D01*
X146016063Y-103000226D01*
X145902795Y-103169744D01*
X145824774Y-103358102D01*
X145785000Y-103558061D01*
X145785000Y-103761939D01*
X145824774Y-103961898D01*
X145902795Y-104150256D01*
X146016063Y-104319774D01*
X146160226Y-104463937D01*
X146329744Y-104577205D01*
X146518102Y-104655226D01*
X146718061Y-104695000D01*
X146921939Y-104695000D01*
X147121898Y-104655226D01*
X147310256Y-104577205D01*
X147479774Y-104463937D01*
X147623937Y-104319774D01*
X147737205Y-104150256D01*
X147815226Y-103961898D01*
X147855000Y-103761939D01*
X147855000Y-103558061D01*
X147815226Y-103358102D01*
X147737205Y-103169744D01*
X147623937Y-103000226D01*
X147580000Y-102956289D01*
X147580000Y-102698061D01*
X152355000Y-102698061D01*
X152355000Y-102901939D01*
X152394774Y-103101898D01*
X152472795Y-103290256D01*
X152586063Y-103459774D01*
X152730226Y-103603937D01*
X152899744Y-103717205D01*
X153088102Y-103795226D01*
X153288061Y-103835000D01*
X153402334Y-103835000D01*
X153334774Y-103998102D01*
X153295000Y-104198061D01*
X153295000Y-104401939D01*
X153334774Y-104601898D01*
X153412795Y-104790256D01*
X153526063Y-104959774D01*
X153560001Y-104993712D01*
X153560000Y-105896289D01*
X153516063Y-105940226D01*
X153402795Y-106109744D01*
X153324774Y-106298102D01*
X153285000Y-106498061D01*
X153285000Y-106701939D01*
X153324774Y-106901898D01*
X153402795Y-107090256D01*
X153516063Y-107259774D01*
X153660226Y-107403937D01*
X153829744Y-107517205D01*
X154018102Y-107595226D01*
X154218061Y-107635000D01*
X154421939Y-107635000D01*
X154621898Y-107595226D01*
X154810256Y-107517205D01*
X154979774Y-107403937D01*
X155123937Y-107259774D01*
X155237205Y-107090256D01*
X155315226Y-106901898D01*
X155355000Y-106701939D01*
X155355000Y-106498061D01*
X155315226Y-106298102D01*
X155237205Y-106109744D01*
X155123937Y-105940226D01*
X155081772Y-105898061D01*
X160465000Y-105898061D01*
X160465000Y-106101939D01*
X160504774Y-106301898D01*
X160582795Y-106490256D01*
X160696063Y-106659774D01*
X160840226Y-106803937D01*
X161009744Y-106917205D01*
X161198102Y-106995226D01*
X161398061Y-107035000D01*
X161601939Y-107035000D01*
X161801898Y-106995226D01*
X161990256Y-106917205D01*
X162159774Y-106803937D01*
X162303937Y-106659774D01*
X162417205Y-106490256D01*
X162495226Y-106301898D01*
X162535000Y-106101939D01*
X162535000Y-105898061D01*
X162495226Y-105698102D01*
X162417205Y-105509744D01*
X162303937Y-105340226D01*
X162159774Y-105196063D01*
X161990256Y-105082795D01*
X161833976Y-105018061D01*
X164325000Y-105018061D01*
X164325000Y-105221939D01*
X164364774Y-105421898D01*
X164442795Y-105610256D01*
X164556063Y-105779774D01*
X164700226Y-105923937D01*
X164869744Y-106037205D01*
X165058102Y-106115226D01*
X165258061Y-106155000D01*
X165461939Y-106155000D01*
X165661898Y-106115226D01*
X165850256Y-106037205D01*
X166019774Y-105923937D01*
X166163937Y-105779774D01*
X166277205Y-105610256D01*
X166355226Y-105421898D01*
X166395000Y-105221939D01*
X166395000Y-105018061D01*
X166355226Y-104818102D01*
X166277205Y-104629744D01*
X166163937Y-104460226D01*
X166019774Y-104316063D01*
X165850256Y-104202795D01*
X165661898Y-104124774D01*
X165461939Y-104085000D01*
X165258061Y-104085000D01*
X165058102Y-104124774D01*
X164869744Y-104202795D01*
X164700226Y-104316063D01*
X164556063Y-104460226D01*
X164442795Y-104629744D01*
X164364774Y-104818102D01*
X164325000Y-105018061D01*
X161833976Y-105018061D01*
X161801898Y-105004774D01*
X161601939Y-104965000D01*
X161398061Y-104965000D01*
X161198102Y-105004774D01*
X161009744Y-105082795D01*
X160840226Y-105196063D01*
X160696063Y-105340226D01*
X160582795Y-105509744D01*
X160504774Y-105698102D01*
X160465000Y-105898061D01*
X155081772Y-105898061D01*
X155080000Y-105896289D01*
X155080000Y-105013711D01*
X155133937Y-104959774D01*
X155247205Y-104790256D01*
X155265956Y-104744987D01*
X155376063Y-104909774D01*
X155520226Y-105053937D01*
X155689744Y-105167205D01*
X155878102Y-105245226D01*
X156078061Y-105285000D01*
X156281939Y-105285000D01*
X156481898Y-105245226D01*
X156670256Y-105167205D01*
X156839774Y-105053937D01*
X156983937Y-104909774D01*
X157097205Y-104740256D01*
X157175226Y-104551898D01*
X157215000Y-104351939D01*
X157215000Y-104148061D01*
X157175226Y-103948102D01*
X157097205Y-103759744D01*
X156983937Y-103590226D01*
X156973139Y-103579428D01*
X156999744Y-103597205D01*
X157188102Y-103675226D01*
X157388061Y-103715000D01*
X157591939Y-103715000D01*
X157791898Y-103675226D01*
X157980256Y-103597205D01*
X158149774Y-103483937D01*
X158293937Y-103339774D01*
X158407205Y-103170256D01*
X158485226Y-102981898D01*
X158525000Y-102781939D01*
X158525000Y-102578061D01*
X158485226Y-102378102D01*
X158407205Y-102189744D01*
X158293937Y-102020226D01*
X158149774Y-101876063D01*
X157980256Y-101762795D01*
X157791898Y-101684774D01*
X157591939Y-101645000D01*
X157388061Y-101645000D01*
X157188102Y-101684774D01*
X156999744Y-101762795D01*
X156830226Y-101876063D01*
X156686063Y-102020226D01*
X156572795Y-102189744D01*
X156494774Y-102378102D01*
X156455000Y-102578061D01*
X156455000Y-102781939D01*
X156494774Y-102981898D01*
X156572795Y-103170256D01*
X156686063Y-103339774D01*
X156696861Y-103350572D01*
X156670256Y-103332795D01*
X156481898Y-103254774D01*
X156281939Y-103215000D01*
X156078061Y-103215000D01*
X155878102Y-103254774D01*
X155689744Y-103332795D01*
X155520226Y-103446063D01*
X155376063Y-103590226D01*
X155262795Y-103759744D01*
X155244044Y-103805013D01*
X155133937Y-103640226D01*
X154989774Y-103496063D01*
X154820256Y-103382795D01*
X154631898Y-103304774D01*
X154431939Y-103265000D01*
X154317666Y-103265000D01*
X154385226Y-103101898D01*
X154425000Y-102901939D01*
X154425000Y-102698061D01*
X154385226Y-102498102D01*
X154307205Y-102309744D01*
X154193937Y-102140226D01*
X154049774Y-101996063D01*
X153880256Y-101882795D01*
X153691898Y-101804774D01*
X153491939Y-101765000D01*
X153288061Y-101765000D01*
X153088102Y-101804774D01*
X152899744Y-101882795D01*
X152730226Y-101996063D01*
X152586063Y-102140226D01*
X152472795Y-102309744D01*
X152394774Y-102498102D01*
X152355000Y-102698061D01*
X147580000Y-102698061D01*
X147580000Y-101693713D01*
X147623937Y-101649776D01*
X147737205Y-101480258D01*
X147815226Y-101291900D01*
X147855000Y-101091941D01*
X147855000Y-100888063D01*
X147815226Y-100688104D01*
X147761298Y-100557911D01*
X158695000Y-100557911D01*
X158695000Y-100742089D01*
X158730932Y-100922729D01*
X158801414Y-101092889D01*
X158903738Y-101246028D01*
X159033972Y-101376262D01*
X159187111Y-101478586D01*
X159357271Y-101549068D01*
X159537911Y-101585000D01*
X159722089Y-101585000D01*
X159902729Y-101549068D01*
X160072889Y-101478586D01*
X160226028Y-101376262D01*
X160356262Y-101246028D01*
X160458586Y-101092889D01*
X160529068Y-100922729D01*
X160565000Y-100742089D01*
X160565000Y-100557911D01*
X160529068Y-100377271D01*
X160517715Y-100349860D01*
X163453051Y-100349860D01*
X163453051Y-100534038D01*
X163488983Y-100714678D01*
X163559465Y-100884838D01*
X163661789Y-101037977D01*
X163792023Y-101168211D01*
X163945162Y-101270535D01*
X164115322Y-101341017D01*
X164295962Y-101376949D01*
X164480140Y-101376949D01*
X164660780Y-101341017D01*
X164830940Y-101270535D01*
X164984079Y-101168211D01*
X165114313Y-101037977D01*
X165216637Y-100884838D01*
X165268346Y-100760000D01*
X168706289Y-100760000D01*
X168740226Y-100793937D01*
X168909744Y-100907205D01*
X169098102Y-100985226D01*
X169298061Y-101025000D01*
X169501939Y-101025000D01*
X169701898Y-100985226D01*
X169890256Y-100907205D01*
X170059774Y-100793937D01*
X170203937Y-100649774D01*
X170317205Y-100480256D01*
X170395226Y-100291898D01*
X170435000Y-100091939D01*
X170435000Y-99888061D01*
X170395226Y-99688102D01*
X170317205Y-99499744D01*
X170203937Y-99330226D01*
X170059774Y-99186063D01*
X169890256Y-99072795D01*
X169701898Y-98994774D01*
X169501939Y-98955000D01*
X169298061Y-98955000D01*
X169098102Y-98994774D01*
X168909744Y-99072795D01*
X168740226Y-99186063D01*
X168686289Y-99240000D01*
X165275346Y-99240000D01*
X165228586Y-99127111D01*
X165126262Y-98973972D01*
X164996028Y-98843738D01*
X164842889Y-98741414D01*
X164672729Y-98670932D01*
X164492089Y-98635000D01*
X164307911Y-98635000D01*
X164127271Y-98670932D01*
X163957111Y-98741414D01*
X163803972Y-98843738D01*
X163673738Y-98973972D01*
X163571414Y-99127111D01*
X163500932Y-99297271D01*
X163465000Y-99477911D01*
X163465000Y-99662089D01*
X163500932Y-99842729D01*
X163563305Y-99993313D01*
X163559465Y-99999060D01*
X163488983Y-100169220D01*
X163453051Y-100349860D01*
X160517715Y-100349860D01*
X160458586Y-100207111D01*
X160356262Y-100053972D01*
X160226028Y-99923738D01*
X160072889Y-99821414D01*
X159902729Y-99750932D01*
X159722089Y-99715000D01*
X159537911Y-99715000D01*
X159357271Y-99750932D01*
X159187111Y-99821414D01*
X159033972Y-99923738D01*
X158903738Y-100053972D01*
X158801414Y-100207111D01*
X158730932Y-100377271D01*
X158695000Y-100557911D01*
X147761298Y-100557911D01*
X147737205Y-100499746D01*
X147623937Y-100330228D01*
X147479774Y-100186065D01*
X147310256Y-100072797D01*
X147121898Y-99994776D01*
X146921939Y-99955002D01*
X146718061Y-99955002D01*
X146518102Y-99994776D01*
X146329744Y-100072797D01*
X146160226Y-100186065D01*
X146016063Y-100330228D01*
X145902795Y-100499746D01*
X145824774Y-100688104D01*
X145785000Y-100888063D01*
X144203012Y-100888063D01*
X144165226Y-100698102D01*
X144127000Y-100605817D01*
X144127000Y-98398061D01*
X157965000Y-98398061D01*
X157965000Y-98601939D01*
X158004774Y-98801898D01*
X158082795Y-98990256D01*
X158196063Y-99159774D01*
X158340226Y-99303937D01*
X158509744Y-99417205D01*
X158698102Y-99495226D01*
X158898061Y-99535000D01*
X159101939Y-99535000D01*
X159301898Y-99495226D01*
X159490256Y-99417205D01*
X159659774Y-99303937D01*
X159803937Y-99159774D01*
X159917205Y-98990256D01*
X159995226Y-98801898D01*
X160035000Y-98601939D01*
X160035000Y-98398061D01*
X159995226Y-98198102D01*
X159917205Y-98009744D01*
X159803937Y-97840226D01*
X159659774Y-97696063D01*
X159490256Y-97582795D01*
X159301898Y-97504774D01*
X159101939Y-97465000D01*
X158898061Y-97465000D01*
X158698102Y-97504774D01*
X158509744Y-97582795D01*
X158340226Y-97696063D01*
X158196063Y-97840226D01*
X158082795Y-98009744D01*
X158004774Y-98198102D01*
X157965000Y-98398061D01*
X144127000Y-98398061D01*
X144127000Y-97103061D01*
X151285000Y-97103061D01*
X151285000Y-97306939D01*
X151324774Y-97506898D01*
X151402795Y-97695256D01*
X151516063Y-97864774D01*
X151660226Y-98008937D01*
X151829744Y-98122205D01*
X152018102Y-98200226D01*
X152218061Y-98240000D01*
X152421939Y-98240000D01*
X152621898Y-98200226D01*
X152810256Y-98122205D01*
X152979774Y-98008937D01*
X153123937Y-97864774D01*
X153237205Y-97695256D01*
X153315226Y-97506898D01*
X153355000Y-97306939D01*
X153355000Y-97103061D01*
X153315226Y-96903102D01*
X153237205Y-96714744D01*
X153123937Y-96545226D01*
X152979774Y-96401063D01*
X152810256Y-96287795D01*
X152621898Y-96209774D01*
X152421939Y-96170000D01*
X152218061Y-96170000D01*
X152018102Y-96209774D01*
X151829744Y-96287795D01*
X151660226Y-96401063D01*
X151516063Y-96545226D01*
X151402795Y-96714744D01*
X151324774Y-96903102D01*
X151285000Y-97103061D01*
X144127000Y-97103061D01*
X144127000Y-93898061D01*
X160965000Y-93898061D01*
X160965000Y-94101939D01*
X161004774Y-94301898D01*
X161082795Y-94490256D01*
X161196063Y-94659774D01*
X161340226Y-94803937D01*
X161509744Y-94917205D01*
X161698102Y-94995226D01*
X161898061Y-95035000D01*
X162101939Y-95035000D01*
X162301898Y-94995226D01*
X162490256Y-94917205D01*
X162659774Y-94803937D01*
X162803937Y-94659774D01*
X162917205Y-94490256D01*
X162995226Y-94301898D01*
X163035000Y-94101939D01*
X163035000Y-93898061D01*
X162995226Y-93698102D01*
X162917205Y-93509744D01*
X162803937Y-93340226D01*
X162659774Y-93196063D01*
X162490256Y-93082795D01*
X162301898Y-93004774D01*
X162101939Y-92965000D01*
X161898061Y-92965000D01*
X161698102Y-93004774D01*
X161509744Y-93082795D01*
X161340226Y-93196063D01*
X161196063Y-93340226D01*
X161082795Y-93509744D01*
X161004774Y-93698102D01*
X160965000Y-93898061D01*
X144127000Y-93898061D01*
X144127000Y-91898061D01*
X151965000Y-91898061D01*
X151965000Y-92101939D01*
X152004774Y-92301898D01*
X152082795Y-92490256D01*
X152196063Y-92659774D01*
X152340226Y-92803937D01*
X152509744Y-92917205D01*
X152698102Y-92995226D01*
X152898061Y-93035000D01*
X153101939Y-93035000D01*
X153301898Y-92995226D01*
X153490256Y-92917205D01*
X153659774Y-92803937D01*
X153803937Y-92659774D01*
X153917205Y-92490256D01*
X153995226Y-92301898D01*
X154035000Y-92101939D01*
X154035000Y-91898061D01*
X153995226Y-91698102D01*
X153917205Y-91509744D01*
X153803937Y-91340226D01*
X153659774Y-91196063D01*
X153490256Y-91082795D01*
X153301898Y-91004774D01*
X153101939Y-90965000D01*
X152898061Y-90965000D01*
X152698102Y-91004774D01*
X152509744Y-91082795D01*
X152340226Y-91196063D01*
X152196063Y-91340226D01*
X152082795Y-91509744D01*
X152004774Y-91698102D01*
X151965000Y-91898061D01*
X144127000Y-91898061D01*
X144127000Y-90564056D01*
X144264589Y-90655990D01*
X144534842Y-90767932D01*
X144821740Y-90825000D01*
X145114260Y-90825000D01*
X145401158Y-90767932D01*
X145671411Y-90655990D01*
X145914632Y-90493475D01*
X146121475Y-90286632D01*
X146238000Y-90112240D01*
X146354525Y-90286632D01*
X146561368Y-90493475D01*
X146804589Y-90655990D01*
X147074842Y-90767932D01*
X147361740Y-90825000D01*
X147654260Y-90825000D01*
X147941158Y-90767932D01*
X148211411Y-90655990D01*
X148454632Y-90493475D01*
X148661475Y-90286632D01*
X148778000Y-90112240D01*
X148894525Y-90286632D01*
X149101368Y-90493475D01*
X149344589Y-90655990D01*
X149614842Y-90767932D01*
X149901740Y-90825000D01*
X150194260Y-90825000D01*
X150481158Y-90767932D01*
X150751411Y-90655990D01*
X150994632Y-90493475D01*
X151201475Y-90286632D01*
X151318000Y-90112240D01*
X151434525Y-90286632D01*
X151641368Y-90493475D01*
X151884589Y-90655990D01*
X152154842Y-90767932D01*
X152441740Y-90825000D01*
X152734260Y-90825000D01*
X153021158Y-90767932D01*
X153291411Y-90655990D01*
X153534632Y-90493475D01*
X153741475Y-90286632D01*
X153858000Y-90112240D01*
X153974525Y-90286632D01*
X154181368Y-90493475D01*
X154424589Y-90655990D01*
X154694842Y-90767932D01*
X154981740Y-90825000D01*
X155274260Y-90825000D01*
X155561158Y-90767932D01*
X155831411Y-90655990D01*
X156074632Y-90493475D01*
X156281475Y-90286632D01*
X156398000Y-90112240D01*
X156514525Y-90286632D01*
X156721368Y-90493475D01*
X156964589Y-90655990D01*
X157234842Y-90767932D01*
X157521740Y-90825000D01*
X157814260Y-90825000D01*
X158101158Y-90767932D01*
X158371411Y-90655990D01*
X158614632Y-90493475D01*
X158821475Y-90286632D01*
X158943195Y-90104466D01*
X159012822Y-90221355D01*
X159207731Y-90437588D01*
X159441080Y-90611641D01*
X159703901Y-90736825D01*
X159851110Y-90781476D01*
X160081000Y-90660155D01*
X160081000Y-89467000D01*
X160335000Y-89467000D01*
X160335000Y-90660155D01*
X160564890Y-90781476D01*
X160712099Y-90736825D01*
X160974920Y-90611641D01*
X161208269Y-90437588D01*
X161403178Y-90221355D01*
X161552157Y-89971252D01*
X161649481Y-89696891D01*
X161528814Y-89467000D01*
X160335000Y-89467000D01*
X160081000Y-89467000D01*
X160061000Y-89467000D01*
X160061000Y-89213000D01*
X160081000Y-89213000D01*
X160081000Y-89193000D01*
X160335000Y-89193000D01*
X160335000Y-89213000D01*
X161528814Y-89213000D01*
X161649481Y-88983109D01*
X161552157Y-88708748D01*
X161468354Y-88568061D01*
X163495000Y-88568061D01*
X163495000Y-88771939D01*
X163534774Y-88971898D01*
X163612795Y-89160256D01*
X163726063Y-89329774D01*
X163870226Y-89473937D01*
X164039744Y-89587205D01*
X164228102Y-89665226D01*
X164428061Y-89705000D01*
X164631939Y-89705000D01*
X164831898Y-89665226D01*
X165020256Y-89587205D01*
X165189774Y-89473937D01*
X165333937Y-89329774D01*
X165346591Y-89310836D01*
X165426063Y-89429774D01*
X165570226Y-89573937D01*
X165739744Y-89687205D01*
X165928102Y-89765226D01*
X166128061Y-89805000D01*
X166331939Y-89805000D01*
X166531898Y-89765226D01*
X166720256Y-89687205D01*
X166889774Y-89573937D01*
X167033937Y-89429774D01*
X167147205Y-89260256D01*
X167225226Y-89071898D01*
X167265000Y-88871939D01*
X167265000Y-88668061D01*
X167245109Y-88568061D01*
X168895000Y-88568061D01*
X168895000Y-88771939D01*
X168934774Y-88971898D01*
X169012795Y-89160256D01*
X169126063Y-89329774D01*
X169270226Y-89473937D01*
X169439744Y-89587205D01*
X169628102Y-89665226D01*
X169828061Y-89705000D01*
X170031939Y-89705000D01*
X170231898Y-89665226D01*
X170420256Y-89587205D01*
X170589774Y-89473937D01*
X170733937Y-89329774D01*
X170847205Y-89160256D01*
X170925226Y-88971898D01*
X170965000Y-88771939D01*
X170965000Y-88568061D01*
X170925226Y-88368102D01*
X170847205Y-88179744D01*
X170733937Y-88010226D01*
X170589774Y-87866063D01*
X170420256Y-87752795D01*
X170231898Y-87674774D01*
X170031939Y-87635000D01*
X169828061Y-87635000D01*
X169628102Y-87674774D01*
X169439744Y-87752795D01*
X169270226Y-87866063D01*
X169126063Y-88010226D01*
X169012795Y-88179744D01*
X168934774Y-88368102D01*
X168895000Y-88568061D01*
X167245109Y-88568061D01*
X167225226Y-88468102D01*
X167147205Y-88279744D01*
X167033937Y-88110226D01*
X166889774Y-87966063D01*
X166720256Y-87852795D01*
X166531898Y-87774774D01*
X166331939Y-87735000D01*
X166128061Y-87735000D01*
X165928102Y-87774774D01*
X165739744Y-87852795D01*
X165570226Y-87966063D01*
X165426063Y-88110226D01*
X165413409Y-88129164D01*
X165333937Y-88010226D01*
X165189774Y-87866063D01*
X165020256Y-87752795D01*
X164831898Y-87674774D01*
X164631939Y-87635000D01*
X164428061Y-87635000D01*
X164228102Y-87674774D01*
X164039744Y-87752795D01*
X163870226Y-87866063D01*
X163726063Y-88010226D01*
X163612795Y-88179744D01*
X163534774Y-88368102D01*
X163495000Y-88568061D01*
X161468354Y-88568061D01*
X161403178Y-88458645D01*
X161226374Y-88262498D01*
X161302180Y-88239502D01*
X161412494Y-88180537D01*
X161509185Y-88101185D01*
X161588537Y-88004494D01*
X161647502Y-87894180D01*
X161683812Y-87774482D01*
X161696072Y-87650000D01*
X161696072Y-85950000D01*
X161683812Y-85825518D01*
X161647502Y-85705820D01*
X161623010Y-85660000D01*
X163020556Y-85660000D01*
X163004774Y-85698102D01*
G37*
%TD.AperFunction*%
%TD*%
D20*
%TO.N,GND*%
X142873000Y-87547103D02*
X142687621Y-87423237D01*
X142394620Y-87301871D01*
X142083571Y-87240000D01*
X141766429Y-87240000D01*
X141455380Y-87301871D01*
X141162379Y-87423237D01*
X140898685Y-87599431D01*
X140674431Y-87823685D01*
X140498237Y-88087379D01*
X140376871Y-88380380D01*
X140315000Y-88691429D01*
X140315000Y-89008571D01*
X140376871Y-89319620D01*
X140498237Y-89612621D01*
X140674431Y-89876315D01*
X140898685Y-90100569D01*
X141162379Y-90276763D01*
X141455380Y-90398129D01*
X141766429Y-90460000D01*
X142083571Y-90460000D01*
X142394620Y-90398129D01*
X142687621Y-90276763D01*
X142873000Y-90152897D01*
X142873000Y-93280069D01*
X142751763Y-92987379D01*
X142575569Y-92723685D01*
X142351315Y-92499431D01*
X142087621Y-92323237D01*
X141794620Y-92201871D01*
X141483571Y-92140000D01*
X141166429Y-92140000D01*
X140855380Y-92201871D01*
X140562379Y-92323237D01*
X140298685Y-92499431D01*
X140074431Y-92723685D01*
X139898237Y-92987379D01*
X139776871Y-93280380D01*
X139715000Y-93591429D01*
X139715000Y-93908571D01*
X139776871Y-94219620D01*
X139898237Y-94512621D01*
X140074431Y-94776315D01*
X140298685Y-95000569D01*
X140562379Y-95176763D01*
X140855380Y-95298129D01*
X141166429Y-95360000D01*
X141483571Y-95360000D01*
X141794620Y-95298129D01*
X142087621Y-95176763D01*
X142351315Y-95000569D01*
X142575569Y-94776315D01*
X142751763Y-94512621D01*
X142873000Y-94219931D01*
X142873000Y-105780069D01*
X142751763Y-105487379D01*
X142575569Y-105223685D01*
X142351315Y-104999431D01*
X142087621Y-104823237D01*
X141794620Y-104701871D01*
X141483571Y-104640000D01*
X141166429Y-104640000D01*
X140855380Y-104701871D01*
X140562379Y-104823237D01*
X140298685Y-104999431D01*
X140074431Y-105223685D01*
X139898237Y-105487379D01*
X139776871Y-105780380D01*
X139715000Y-106091429D01*
X139715000Y-106408571D01*
X139776871Y-106719620D01*
X139898237Y-107012621D01*
X140074431Y-107276315D01*
X140298685Y-107500569D01*
X140562379Y-107676763D01*
X140855380Y-107798129D01*
X141166429Y-107860000D01*
X141483571Y-107860000D01*
X141794620Y-107798129D01*
X142087621Y-107676763D01*
X142351315Y-107500569D01*
X142575569Y-107276315D01*
X142751763Y-107012621D01*
X142873000Y-106719931D01*
X142873000Y-109847103D01*
X142687621Y-109723237D01*
X142394620Y-109601871D01*
X142083571Y-109540000D01*
X141766429Y-109540000D01*
X141455380Y-109601871D01*
X141162379Y-109723237D01*
X140898685Y-109899431D01*
X140674431Y-110123685D01*
X140498237Y-110387379D01*
X140376871Y-110680380D01*
X140315000Y-110991429D01*
X140315000Y-111308571D01*
X140376871Y-111619620D01*
X140498237Y-111912621D01*
X140674431Y-112176315D01*
X140898685Y-112400569D01*
X141162379Y-112576763D01*
X141455380Y-112698129D01*
X141766429Y-112760000D01*
X142083571Y-112760000D01*
X142394620Y-112698129D01*
X142687621Y-112576763D01*
X142873000Y-112452897D01*
X142873000Y-114340000D01*
X127532279Y-114340000D01*
X127143224Y-114301853D01*
X126800036Y-114198238D01*
X126483511Y-114029939D01*
X126205704Y-113803365D01*
X125977195Y-113527146D01*
X125806690Y-113211803D01*
X125700681Y-112869344D01*
X125679377Y-112666647D01*
X125755380Y-112698129D01*
X126066429Y-112760000D01*
X126383571Y-112760000D01*
X126694620Y-112698129D01*
X126987621Y-112576763D01*
X127251315Y-112400569D01*
X127475569Y-112176315D01*
X127651763Y-111912621D01*
X127773129Y-111619620D01*
X127835000Y-111308571D01*
X127835000Y-110991429D01*
X127773129Y-110680380D01*
X127651763Y-110387379D01*
X127475569Y-110123685D01*
X127251315Y-109899431D01*
X126987621Y-109723237D01*
X126694620Y-109601871D01*
X126383571Y-109540000D01*
X126066429Y-109540000D01*
X125755380Y-109601871D01*
X125660000Y-109641379D01*
X125660000Y-109117760D01*
X135040000Y-109117760D01*
X135040000Y-109282240D01*
X135072089Y-109443560D01*
X135135033Y-109595521D01*
X135226413Y-109732281D01*
X135342719Y-109848587D01*
X135479479Y-109939967D01*
X135631440Y-110002911D01*
X135792760Y-110035000D01*
X135957240Y-110035000D01*
X136118560Y-110002911D01*
X136270521Y-109939967D01*
X136407281Y-109848587D01*
X136523587Y-109732281D01*
X136614967Y-109595521D01*
X136677911Y-109443560D01*
X136710000Y-109282240D01*
X136710000Y-109117760D01*
X136940000Y-109117760D01*
X136940000Y-109282240D01*
X136972089Y-109443560D01*
X137035033Y-109595521D01*
X137126413Y-109732281D01*
X137242719Y-109848587D01*
X137379479Y-109939967D01*
X137531440Y-110002911D01*
X137692760Y-110035000D01*
X137857240Y-110035000D01*
X138018560Y-110002911D01*
X138170521Y-109939967D01*
X138307281Y-109848587D01*
X138423587Y-109732281D01*
X138514967Y-109595521D01*
X138577911Y-109443560D01*
X138610000Y-109282240D01*
X138610000Y-109117760D01*
X138577911Y-108956440D01*
X138514967Y-108804479D01*
X138468543Y-108735000D01*
X138552240Y-108735000D01*
X138713560Y-108702911D01*
X138865521Y-108639967D01*
X139002281Y-108548587D01*
X139118587Y-108432281D01*
X139209967Y-108295521D01*
X139272911Y-108143560D01*
X139305000Y-107982240D01*
X139305000Y-107817760D01*
X139272911Y-107656440D01*
X139209967Y-107504479D01*
X139118587Y-107367719D01*
X139002281Y-107251413D01*
X138865521Y-107160033D01*
X138713560Y-107097089D01*
X138552240Y-107065000D01*
X138387760Y-107065000D01*
X138226440Y-107097089D01*
X138074479Y-107160033D01*
X137937719Y-107251413D01*
X137821413Y-107367719D01*
X137730033Y-107504479D01*
X137667089Y-107656440D01*
X137635000Y-107817760D01*
X137635000Y-107982240D01*
X137667089Y-108143560D01*
X137730033Y-108295521D01*
X137776457Y-108365000D01*
X137692760Y-108365000D01*
X137531440Y-108397089D01*
X137379479Y-108460033D01*
X137242719Y-108551413D01*
X137126413Y-108667719D01*
X137035033Y-108804479D01*
X136972089Y-108956440D01*
X136940000Y-109117760D01*
X136710000Y-109117760D01*
X136677911Y-108956440D01*
X136614967Y-108804479D01*
X136523587Y-108667719D01*
X136407281Y-108551413D01*
X136270521Y-108460033D01*
X136118560Y-108397089D01*
X135957240Y-108365000D01*
X135792760Y-108365000D01*
X135631440Y-108397089D01*
X135479479Y-108460033D01*
X135342719Y-108551413D01*
X135226413Y-108667719D01*
X135135033Y-108804479D01*
X135072089Y-108956440D01*
X135040000Y-109117760D01*
X125660000Y-109117760D01*
X125660000Y-107361884D01*
X125798685Y-107500569D01*
X126062379Y-107676763D01*
X126355380Y-107798129D01*
X126666429Y-107860000D01*
X126983571Y-107860000D01*
X127294620Y-107798129D01*
X127587621Y-107676763D01*
X127851315Y-107500569D01*
X128075569Y-107276315D01*
X128251763Y-107012621D01*
X128291056Y-106917760D01*
X135040000Y-106917760D01*
X135040000Y-107082240D01*
X135072089Y-107243560D01*
X135135033Y-107395521D01*
X135226413Y-107532281D01*
X135342719Y-107648587D01*
X135479479Y-107739967D01*
X135631440Y-107802911D01*
X135792760Y-107835000D01*
X135957240Y-107835000D01*
X136118560Y-107802911D01*
X136270521Y-107739967D01*
X136350000Y-107686861D01*
X136429479Y-107739967D01*
X136581440Y-107802911D01*
X136742760Y-107835000D01*
X136907240Y-107835000D01*
X137068560Y-107802911D01*
X137220521Y-107739967D01*
X137357281Y-107648587D01*
X137473587Y-107532281D01*
X137564967Y-107395521D01*
X137627911Y-107243560D01*
X137660000Y-107082240D01*
X137660000Y-106917760D01*
X137627911Y-106756440D01*
X137564967Y-106604479D01*
X137473587Y-106467719D01*
X137357281Y-106351413D01*
X137220521Y-106260033D01*
X137068560Y-106197089D01*
X136907240Y-106165000D01*
X136742760Y-106165000D01*
X136581440Y-106197089D01*
X136429479Y-106260033D01*
X136350000Y-106313139D01*
X136270521Y-106260033D01*
X136118560Y-106197089D01*
X135957240Y-106165000D01*
X135792760Y-106165000D01*
X135631440Y-106197089D01*
X135479479Y-106260033D01*
X135342719Y-106351413D01*
X135226413Y-106467719D01*
X135135033Y-106604479D01*
X135072089Y-106756440D01*
X135040000Y-106917760D01*
X128291056Y-106917760D01*
X128373129Y-106719620D01*
X128435000Y-106408571D01*
X128435000Y-106091429D01*
X128373129Y-105780380D01*
X128251763Y-105487379D01*
X128075569Y-105223685D01*
X127851315Y-104999431D01*
X127587621Y-104823237D01*
X127294620Y-104701871D01*
X126983571Y-104640000D01*
X126666429Y-104640000D01*
X126355380Y-104701871D01*
X126062379Y-104823237D01*
X125798685Y-104999431D01*
X125660000Y-105138116D01*
X125660000Y-96017760D01*
X128490000Y-96017760D01*
X128490000Y-96182240D01*
X128522089Y-96343560D01*
X128585033Y-96495521D01*
X128676413Y-96632281D01*
X128792719Y-96748587D01*
X128929479Y-96839967D01*
X129081440Y-96902911D01*
X129242760Y-96935000D01*
X129407240Y-96935000D01*
X129568560Y-96902911D01*
X129720521Y-96839967D01*
X129825000Y-96770156D01*
X129929479Y-96839967D01*
X130081440Y-96902911D01*
X130091278Y-96904868D01*
X130176413Y-97032281D01*
X130292719Y-97148587D01*
X130429479Y-97239967D01*
X130581440Y-97302911D01*
X130742760Y-97335000D01*
X130907240Y-97335000D01*
X131068560Y-97302911D01*
X131220521Y-97239967D01*
X131325000Y-97170156D01*
X131429479Y-97239967D01*
X131581440Y-97302911D01*
X131742760Y-97335000D01*
X131907240Y-97335000D01*
X132068560Y-97302911D01*
X132220521Y-97239967D01*
X132357281Y-97148587D01*
X132473587Y-97032281D01*
X132558722Y-96904868D01*
X132568560Y-96902911D01*
X132720521Y-96839967D01*
X132825000Y-96770156D01*
X132929479Y-96839967D01*
X133081440Y-96902911D01*
X133091278Y-96904868D01*
X133176413Y-97032281D01*
X133292719Y-97148587D01*
X133429479Y-97239967D01*
X133581440Y-97302911D01*
X133742760Y-97335000D01*
X133907240Y-97335000D01*
X134068560Y-97302911D01*
X134220521Y-97239967D01*
X134325000Y-97170156D01*
X134429479Y-97239967D01*
X134581440Y-97302911D01*
X134742760Y-97335000D01*
X134907240Y-97335000D01*
X135068560Y-97302911D01*
X135220521Y-97239967D01*
X135325000Y-97170156D01*
X135429479Y-97239967D01*
X135581440Y-97302911D01*
X135742760Y-97335000D01*
X135907240Y-97335000D01*
X136068560Y-97302911D01*
X136220521Y-97239967D01*
X136325000Y-97170156D01*
X136429479Y-97239967D01*
X136581440Y-97302911D01*
X136742760Y-97335000D01*
X136907240Y-97335000D01*
X137068560Y-97302911D01*
X137220521Y-97239967D01*
X137325000Y-97170156D01*
X137429479Y-97239967D01*
X137581440Y-97302911D01*
X137742760Y-97335000D01*
X137907240Y-97335000D01*
X138068560Y-97302911D01*
X138220521Y-97239967D01*
X138357281Y-97148587D01*
X138473587Y-97032281D01*
X138558722Y-96904868D01*
X138568560Y-96902911D01*
X138720521Y-96839967D01*
X138857281Y-96748587D01*
X138973587Y-96632281D01*
X139064967Y-96495521D01*
X139127911Y-96343560D01*
X139160000Y-96182240D01*
X139160000Y-96017760D01*
X139127911Y-95856440D01*
X139064967Y-95704479D01*
X138973587Y-95567719D01*
X138857281Y-95451413D01*
X138720521Y-95360033D01*
X138568560Y-95297089D01*
X138407240Y-95265000D01*
X138242760Y-95265000D01*
X138081440Y-95297089D01*
X137929479Y-95360033D01*
X137792719Y-95451413D01*
X137676413Y-95567719D01*
X137591278Y-95695132D01*
X137581440Y-95697089D01*
X137429479Y-95760033D01*
X137325000Y-95829844D01*
X137220521Y-95760033D01*
X137068560Y-95697089D01*
X137058722Y-95695132D01*
X136973587Y-95567719D01*
X136857281Y-95451413D01*
X136720521Y-95360033D01*
X136568560Y-95297089D01*
X136407240Y-95265000D01*
X136242760Y-95265000D01*
X136081440Y-95297089D01*
X135929479Y-95360033D01*
X135825000Y-95429844D01*
X135720521Y-95360033D01*
X135568560Y-95297089D01*
X135407240Y-95265000D01*
X135242760Y-95265000D01*
X135081440Y-95297089D01*
X134929479Y-95360033D01*
X134792719Y-95451413D01*
X134676413Y-95567719D01*
X134591278Y-95695132D01*
X134581440Y-95697089D01*
X134429479Y-95760033D01*
X134325000Y-95829844D01*
X134220521Y-95760033D01*
X134068560Y-95697089D01*
X134058722Y-95695132D01*
X133973587Y-95567719D01*
X133857281Y-95451413D01*
X133720521Y-95360033D01*
X133568560Y-95297089D01*
X133407240Y-95265000D01*
X133242760Y-95265000D01*
X133081440Y-95297089D01*
X132929479Y-95360033D01*
X132825000Y-95429844D01*
X132720521Y-95360033D01*
X132568560Y-95297089D01*
X132407240Y-95265000D01*
X132242760Y-95265000D01*
X132081440Y-95297089D01*
X131929479Y-95360033D01*
X131792719Y-95451413D01*
X131676413Y-95567719D01*
X131591278Y-95695132D01*
X131581440Y-95697089D01*
X131429479Y-95760033D01*
X131325000Y-95829844D01*
X131220521Y-95760033D01*
X131068560Y-95697089D01*
X131058722Y-95695132D01*
X130973587Y-95567719D01*
X130857281Y-95451413D01*
X130720521Y-95360033D01*
X130568560Y-95297089D01*
X130407240Y-95265000D01*
X130242760Y-95265000D01*
X130081440Y-95297089D01*
X129929479Y-95360033D01*
X129825000Y-95429844D01*
X129720521Y-95360033D01*
X129568560Y-95297089D01*
X129407240Y-95265000D01*
X129242760Y-95265000D01*
X129081440Y-95297089D01*
X128929479Y-95360033D01*
X128792719Y-95451413D01*
X128676413Y-95567719D01*
X128585033Y-95704479D01*
X128522089Y-95856440D01*
X128490000Y-96017760D01*
X125660000Y-96017760D01*
X125660000Y-94861884D01*
X125798685Y-95000569D01*
X126062379Y-95176763D01*
X126355380Y-95298129D01*
X126666429Y-95360000D01*
X126983571Y-95360000D01*
X127294620Y-95298129D01*
X127587621Y-95176763D01*
X127851315Y-95000569D01*
X128075569Y-94776315D01*
X128251763Y-94512621D01*
X128373129Y-94219620D01*
X128435000Y-93908571D01*
X128435000Y-93591429D01*
X128373129Y-93280380D01*
X128251763Y-92987379D01*
X128075569Y-92723685D01*
X127851315Y-92499431D01*
X127587621Y-92323237D01*
X127294620Y-92201871D01*
X126983571Y-92140000D01*
X126666429Y-92140000D01*
X126355380Y-92201871D01*
X126062379Y-92323237D01*
X125798685Y-92499431D01*
X125660000Y-92638116D01*
X125660000Y-90358621D01*
X125755380Y-90398129D01*
X126066429Y-90460000D01*
X126383571Y-90460000D01*
X126694620Y-90398129D01*
X126987621Y-90276763D01*
X127251315Y-90100569D01*
X127475569Y-89876315D01*
X127651763Y-89612621D01*
X127773129Y-89319620D01*
X127835000Y-89008571D01*
X127835000Y-88691429D01*
X127773129Y-88380380D01*
X127651763Y-88087379D01*
X127475569Y-87823685D01*
X127251315Y-87599431D01*
X126987621Y-87423237D01*
X126694620Y-87301871D01*
X126383571Y-87240000D01*
X126066429Y-87240000D01*
X125755380Y-87301871D01*
X125679510Y-87333298D01*
X125698147Y-87143225D01*
X125801763Y-86800033D01*
X125970062Y-86483511D01*
X126196637Y-86205701D01*
X126472856Y-85977194D01*
X126788197Y-85806690D01*
X127130656Y-85700681D01*
X127517712Y-85660000D01*
X142873000Y-85660000D01*
X142873000Y-87547103D01*
%TA.AperFunction,Conductor*%
D21*
G36*
X142873000Y-87547103D02*
G01*
X142687621Y-87423237D01*
X142394620Y-87301871D01*
X142083571Y-87240000D01*
X141766429Y-87240000D01*
X141455380Y-87301871D01*
X141162379Y-87423237D01*
X140898685Y-87599431D01*
X140674431Y-87823685D01*
X140498237Y-88087379D01*
X140376871Y-88380380D01*
X140315000Y-88691429D01*
X140315000Y-89008571D01*
X140376871Y-89319620D01*
X140498237Y-89612621D01*
X140674431Y-89876315D01*
X140898685Y-90100569D01*
X141162379Y-90276763D01*
X141455380Y-90398129D01*
X141766429Y-90460000D01*
X142083571Y-90460000D01*
X142394620Y-90398129D01*
X142687621Y-90276763D01*
X142873000Y-90152897D01*
X142873000Y-93280069D01*
X142751763Y-92987379D01*
X142575569Y-92723685D01*
X142351315Y-92499431D01*
X142087621Y-92323237D01*
X141794620Y-92201871D01*
X141483571Y-92140000D01*
X141166429Y-92140000D01*
X140855380Y-92201871D01*
X140562379Y-92323237D01*
X140298685Y-92499431D01*
X140074431Y-92723685D01*
X139898237Y-92987379D01*
X139776871Y-93280380D01*
X139715000Y-93591429D01*
X139715000Y-93908571D01*
X139776871Y-94219620D01*
X139898237Y-94512621D01*
X140074431Y-94776315D01*
X140298685Y-95000569D01*
X140562379Y-95176763D01*
X140855380Y-95298129D01*
X141166429Y-95360000D01*
X141483571Y-95360000D01*
X141794620Y-95298129D01*
X142087621Y-95176763D01*
X142351315Y-95000569D01*
X142575569Y-94776315D01*
X142751763Y-94512621D01*
X142873000Y-94219931D01*
X142873000Y-105780069D01*
X142751763Y-105487379D01*
X142575569Y-105223685D01*
X142351315Y-104999431D01*
X142087621Y-104823237D01*
X141794620Y-104701871D01*
X141483571Y-104640000D01*
X141166429Y-104640000D01*
X140855380Y-104701871D01*
X140562379Y-104823237D01*
X140298685Y-104999431D01*
X140074431Y-105223685D01*
X139898237Y-105487379D01*
X139776871Y-105780380D01*
X139715000Y-106091429D01*
X139715000Y-106408571D01*
X139776871Y-106719620D01*
X139898237Y-107012621D01*
X140074431Y-107276315D01*
X140298685Y-107500569D01*
X140562379Y-107676763D01*
X140855380Y-107798129D01*
X141166429Y-107860000D01*
X141483571Y-107860000D01*
X141794620Y-107798129D01*
X142087621Y-107676763D01*
X142351315Y-107500569D01*
X142575569Y-107276315D01*
X142751763Y-107012621D01*
X142873000Y-106719931D01*
X142873000Y-109847103D01*
X142687621Y-109723237D01*
X142394620Y-109601871D01*
X142083571Y-109540000D01*
X141766429Y-109540000D01*
X141455380Y-109601871D01*
X141162379Y-109723237D01*
X140898685Y-109899431D01*
X140674431Y-110123685D01*
X140498237Y-110387379D01*
X140376871Y-110680380D01*
X140315000Y-110991429D01*
X140315000Y-111308571D01*
X140376871Y-111619620D01*
X140498237Y-111912621D01*
X140674431Y-112176315D01*
X140898685Y-112400569D01*
X141162379Y-112576763D01*
X141455380Y-112698129D01*
X141766429Y-112760000D01*
X142083571Y-112760000D01*
X142394620Y-112698129D01*
X142687621Y-112576763D01*
X142873000Y-112452897D01*
X142873000Y-114340000D01*
X127532279Y-114340000D01*
X127143224Y-114301853D01*
X126800036Y-114198238D01*
X126483511Y-114029939D01*
X126205704Y-113803365D01*
X125977195Y-113527146D01*
X125806690Y-113211803D01*
X125700681Y-112869344D01*
X125679377Y-112666647D01*
X125755380Y-112698129D01*
X126066429Y-112760000D01*
X126383571Y-112760000D01*
X126694620Y-112698129D01*
X126987621Y-112576763D01*
X127251315Y-112400569D01*
X127475569Y-112176315D01*
X127651763Y-111912621D01*
X127773129Y-111619620D01*
X127835000Y-111308571D01*
X127835000Y-110991429D01*
X127773129Y-110680380D01*
X127651763Y-110387379D01*
X127475569Y-110123685D01*
X127251315Y-109899431D01*
X126987621Y-109723237D01*
X126694620Y-109601871D01*
X126383571Y-109540000D01*
X126066429Y-109540000D01*
X125755380Y-109601871D01*
X125660000Y-109641379D01*
X125660000Y-109117760D01*
X135040000Y-109117760D01*
X135040000Y-109282240D01*
X135072089Y-109443560D01*
X135135033Y-109595521D01*
X135226413Y-109732281D01*
X135342719Y-109848587D01*
X135479479Y-109939967D01*
X135631440Y-110002911D01*
X135792760Y-110035000D01*
X135957240Y-110035000D01*
X136118560Y-110002911D01*
X136270521Y-109939967D01*
X136407281Y-109848587D01*
X136523587Y-109732281D01*
X136614967Y-109595521D01*
X136677911Y-109443560D01*
X136710000Y-109282240D01*
X136710000Y-109117760D01*
X136940000Y-109117760D01*
X136940000Y-109282240D01*
X136972089Y-109443560D01*
X137035033Y-109595521D01*
X137126413Y-109732281D01*
X137242719Y-109848587D01*
X137379479Y-109939967D01*
X137531440Y-110002911D01*
X137692760Y-110035000D01*
X137857240Y-110035000D01*
X138018560Y-110002911D01*
X138170521Y-109939967D01*
X138307281Y-109848587D01*
X138423587Y-109732281D01*
X138514967Y-109595521D01*
X138577911Y-109443560D01*
X138610000Y-109282240D01*
X138610000Y-109117760D01*
X138577911Y-108956440D01*
X138514967Y-108804479D01*
X138468543Y-108735000D01*
X138552240Y-108735000D01*
X138713560Y-108702911D01*
X138865521Y-108639967D01*
X139002281Y-108548587D01*
X139118587Y-108432281D01*
X139209967Y-108295521D01*
X139272911Y-108143560D01*
X139305000Y-107982240D01*
X139305000Y-107817760D01*
X139272911Y-107656440D01*
X139209967Y-107504479D01*
X139118587Y-107367719D01*
X139002281Y-107251413D01*
X138865521Y-107160033D01*
X138713560Y-107097089D01*
X138552240Y-107065000D01*
X138387760Y-107065000D01*
X138226440Y-107097089D01*
X138074479Y-107160033D01*
X137937719Y-107251413D01*
X137821413Y-107367719D01*
X137730033Y-107504479D01*
X137667089Y-107656440D01*
X137635000Y-107817760D01*
X137635000Y-107982240D01*
X137667089Y-108143560D01*
X137730033Y-108295521D01*
X137776457Y-108365000D01*
X137692760Y-108365000D01*
X137531440Y-108397089D01*
X137379479Y-108460033D01*
X137242719Y-108551413D01*
X137126413Y-108667719D01*
X137035033Y-108804479D01*
X136972089Y-108956440D01*
X136940000Y-109117760D01*
X136710000Y-109117760D01*
X136677911Y-108956440D01*
X136614967Y-108804479D01*
X136523587Y-108667719D01*
X136407281Y-108551413D01*
X136270521Y-108460033D01*
X136118560Y-108397089D01*
X135957240Y-108365000D01*
X135792760Y-108365000D01*
X135631440Y-108397089D01*
X135479479Y-108460033D01*
X135342719Y-108551413D01*
X135226413Y-108667719D01*
X135135033Y-108804479D01*
X135072089Y-108956440D01*
X135040000Y-109117760D01*
X125660000Y-109117760D01*
X125660000Y-107361884D01*
X125798685Y-107500569D01*
X126062379Y-107676763D01*
X126355380Y-107798129D01*
X126666429Y-107860000D01*
X126983571Y-107860000D01*
X127294620Y-107798129D01*
X127587621Y-107676763D01*
X127851315Y-107500569D01*
X128075569Y-107276315D01*
X128251763Y-107012621D01*
X128291056Y-106917760D01*
X135040000Y-106917760D01*
X135040000Y-107082240D01*
X135072089Y-107243560D01*
X135135033Y-107395521D01*
X135226413Y-107532281D01*
X135342719Y-107648587D01*
X135479479Y-107739967D01*
X135631440Y-107802911D01*
X135792760Y-107835000D01*
X135957240Y-107835000D01*
X136118560Y-107802911D01*
X136270521Y-107739967D01*
X136350000Y-107686861D01*
X136429479Y-107739967D01*
X136581440Y-107802911D01*
X136742760Y-107835000D01*
X136907240Y-107835000D01*
X137068560Y-107802911D01*
X137220521Y-107739967D01*
X137357281Y-107648587D01*
X137473587Y-107532281D01*
X137564967Y-107395521D01*
X137627911Y-107243560D01*
X137660000Y-107082240D01*
X137660000Y-106917760D01*
X137627911Y-106756440D01*
X137564967Y-106604479D01*
X137473587Y-106467719D01*
X137357281Y-106351413D01*
X137220521Y-106260033D01*
X137068560Y-106197089D01*
X136907240Y-106165000D01*
X136742760Y-106165000D01*
X136581440Y-106197089D01*
X136429479Y-106260033D01*
X136350000Y-106313139D01*
X136270521Y-106260033D01*
X136118560Y-106197089D01*
X135957240Y-106165000D01*
X135792760Y-106165000D01*
X135631440Y-106197089D01*
X135479479Y-106260033D01*
X135342719Y-106351413D01*
X135226413Y-106467719D01*
X135135033Y-106604479D01*
X135072089Y-106756440D01*
X135040000Y-106917760D01*
X128291056Y-106917760D01*
X128373129Y-106719620D01*
X128435000Y-106408571D01*
X128435000Y-106091429D01*
X128373129Y-105780380D01*
X128251763Y-105487379D01*
X128075569Y-105223685D01*
X127851315Y-104999431D01*
X127587621Y-104823237D01*
X127294620Y-104701871D01*
X126983571Y-104640000D01*
X126666429Y-104640000D01*
X126355380Y-104701871D01*
X126062379Y-104823237D01*
X125798685Y-104999431D01*
X125660000Y-105138116D01*
X125660000Y-96017760D01*
X128490000Y-96017760D01*
X128490000Y-96182240D01*
X128522089Y-96343560D01*
X128585033Y-96495521D01*
X128676413Y-96632281D01*
X128792719Y-96748587D01*
X128929479Y-96839967D01*
X129081440Y-96902911D01*
X129242760Y-96935000D01*
X129407240Y-96935000D01*
X129568560Y-96902911D01*
X129720521Y-96839967D01*
X129825000Y-96770156D01*
X129929479Y-96839967D01*
X130081440Y-96902911D01*
X130091278Y-96904868D01*
X130176413Y-97032281D01*
X130292719Y-97148587D01*
X130429479Y-97239967D01*
X130581440Y-97302911D01*
X130742760Y-97335000D01*
X130907240Y-97335000D01*
X131068560Y-97302911D01*
X131220521Y-97239967D01*
X131325000Y-97170156D01*
X131429479Y-97239967D01*
X131581440Y-97302911D01*
X131742760Y-97335000D01*
X131907240Y-97335000D01*
X132068560Y-97302911D01*
X132220521Y-97239967D01*
X132357281Y-97148587D01*
X132473587Y-97032281D01*
X132558722Y-96904868D01*
X132568560Y-96902911D01*
X132720521Y-96839967D01*
X132825000Y-96770156D01*
X132929479Y-96839967D01*
X133081440Y-96902911D01*
X133091278Y-96904868D01*
X133176413Y-97032281D01*
X133292719Y-97148587D01*
X133429479Y-97239967D01*
X133581440Y-97302911D01*
X133742760Y-97335000D01*
X133907240Y-97335000D01*
X134068560Y-97302911D01*
X134220521Y-97239967D01*
X134325000Y-97170156D01*
X134429479Y-97239967D01*
X134581440Y-97302911D01*
X134742760Y-97335000D01*
X134907240Y-97335000D01*
X135068560Y-97302911D01*
X135220521Y-97239967D01*
X135325000Y-97170156D01*
X135429479Y-97239967D01*
X135581440Y-97302911D01*
X135742760Y-97335000D01*
X135907240Y-97335000D01*
X136068560Y-97302911D01*
X136220521Y-97239967D01*
X136325000Y-97170156D01*
X136429479Y-97239967D01*
X136581440Y-97302911D01*
X136742760Y-97335000D01*
X136907240Y-97335000D01*
X137068560Y-97302911D01*
X137220521Y-97239967D01*
X137325000Y-97170156D01*
X137429479Y-97239967D01*
X137581440Y-97302911D01*
X137742760Y-97335000D01*
X137907240Y-97335000D01*
X138068560Y-97302911D01*
X138220521Y-97239967D01*
X138357281Y-97148587D01*
X138473587Y-97032281D01*
X138558722Y-96904868D01*
X138568560Y-96902911D01*
X138720521Y-96839967D01*
X138857281Y-96748587D01*
X138973587Y-96632281D01*
X139064967Y-96495521D01*
X139127911Y-96343560D01*
X139160000Y-96182240D01*
X139160000Y-96017760D01*
X139127911Y-95856440D01*
X139064967Y-95704479D01*
X138973587Y-95567719D01*
X138857281Y-95451413D01*
X138720521Y-95360033D01*
X138568560Y-95297089D01*
X138407240Y-95265000D01*
X138242760Y-95265000D01*
X138081440Y-95297089D01*
X137929479Y-95360033D01*
X137792719Y-95451413D01*
X137676413Y-95567719D01*
X137591278Y-95695132D01*
X137581440Y-95697089D01*
X137429479Y-95760033D01*
X137325000Y-95829844D01*
X137220521Y-95760033D01*
X137068560Y-95697089D01*
X137058722Y-95695132D01*
X136973587Y-95567719D01*
X136857281Y-95451413D01*
X136720521Y-95360033D01*
X136568560Y-95297089D01*
X136407240Y-95265000D01*
X136242760Y-95265000D01*
X136081440Y-95297089D01*
X135929479Y-95360033D01*
X135825000Y-95429844D01*
X135720521Y-95360033D01*
X135568560Y-95297089D01*
X135407240Y-95265000D01*
X135242760Y-95265000D01*
X135081440Y-95297089D01*
X134929479Y-95360033D01*
X134792719Y-95451413D01*
X134676413Y-95567719D01*
X134591278Y-95695132D01*
X134581440Y-95697089D01*
X134429479Y-95760033D01*
X134325000Y-95829844D01*
X134220521Y-95760033D01*
X134068560Y-95697089D01*
X134058722Y-95695132D01*
X133973587Y-95567719D01*
X133857281Y-95451413D01*
X133720521Y-95360033D01*
X133568560Y-95297089D01*
X133407240Y-95265000D01*
X133242760Y-95265000D01*
X133081440Y-95297089D01*
X132929479Y-95360033D01*
X132825000Y-95429844D01*
X132720521Y-95360033D01*
X132568560Y-95297089D01*
X132407240Y-95265000D01*
X132242760Y-95265000D01*
X132081440Y-95297089D01*
X131929479Y-95360033D01*
X131792719Y-95451413D01*
X131676413Y-95567719D01*
X131591278Y-95695132D01*
X131581440Y-95697089D01*
X131429479Y-95760033D01*
X131325000Y-95829844D01*
X131220521Y-95760033D01*
X131068560Y-95697089D01*
X131058722Y-95695132D01*
X130973587Y-95567719D01*
X130857281Y-95451413D01*
X130720521Y-95360033D01*
X130568560Y-95297089D01*
X130407240Y-95265000D01*
X130242760Y-95265000D01*
X130081440Y-95297089D01*
X129929479Y-95360033D01*
X129825000Y-95429844D01*
X129720521Y-95360033D01*
X129568560Y-95297089D01*
X129407240Y-95265000D01*
X129242760Y-95265000D01*
X129081440Y-95297089D01*
X128929479Y-95360033D01*
X128792719Y-95451413D01*
X128676413Y-95567719D01*
X128585033Y-95704479D01*
X128522089Y-95856440D01*
X128490000Y-96017760D01*
X125660000Y-96017760D01*
X125660000Y-94861884D01*
X125798685Y-95000569D01*
X126062379Y-95176763D01*
X126355380Y-95298129D01*
X126666429Y-95360000D01*
X126983571Y-95360000D01*
X127294620Y-95298129D01*
X127587621Y-95176763D01*
X127851315Y-95000569D01*
X128075569Y-94776315D01*
X128251763Y-94512621D01*
X128373129Y-94219620D01*
X128435000Y-93908571D01*
X128435000Y-93591429D01*
X128373129Y-93280380D01*
X128251763Y-92987379D01*
X128075569Y-92723685D01*
X127851315Y-92499431D01*
X127587621Y-92323237D01*
X127294620Y-92201871D01*
X126983571Y-92140000D01*
X126666429Y-92140000D01*
X126355380Y-92201871D01*
X126062379Y-92323237D01*
X125798685Y-92499431D01*
X125660000Y-92638116D01*
X125660000Y-90358621D01*
X125755380Y-90398129D01*
X126066429Y-90460000D01*
X126383571Y-90460000D01*
X126694620Y-90398129D01*
X126987621Y-90276763D01*
X127251315Y-90100569D01*
X127475569Y-89876315D01*
X127651763Y-89612621D01*
X127773129Y-89319620D01*
X127835000Y-89008571D01*
X127835000Y-88691429D01*
X127773129Y-88380380D01*
X127651763Y-88087379D01*
X127475569Y-87823685D01*
X127251315Y-87599431D01*
X126987621Y-87423237D01*
X126694620Y-87301871D01*
X126383571Y-87240000D01*
X126066429Y-87240000D01*
X125755380Y-87301871D01*
X125679510Y-87333298D01*
X125698147Y-87143225D01*
X125801763Y-86800033D01*
X125970062Y-86483511D01*
X126196637Y-86205701D01*
X126472856Y-85977194D01*
X126788197Y-85806690D01*
X127130656Y-85700681D01*
X127517712Y-85660000D01*
X142873000Y-85660000D01*
X142873000Y-87547103D01*
G37*
%TD.AperFunction*%
%TD*%
M02*
