M48
; DRILL file {KiCad 5.1.9-73d0e3b20d~88~ubuntu20.04.1} date Sat Jun  5 19:28:34 2021
; FORMAT={-:-/ absolute / inch / decimal}
; #@! TF.CreationDate,2021-06-05T19:28:34+02:00
; #@! TF.GenerationSoftware,Kicad,Pcbnew,5.1.9-73d0e3b20d~88~ubuntu20.04.1
; #@! TF.FileFunction,Plated,1,4,PTH
FMAT,2
INCH
T1C0.0098
T2C0.0118
T3C0.0157
T4C0.0236
T5C0.0394
%
G90
G05
T1
X5.0591Y-3.689
X5.0787Y-3.6693
X5.0787Y-4.2047
X5.0984Y-3.689
X5.1181Y-4.2047
X5.1378Y-3.6693
X5.1378Y-4.185
X5.1575Y-4.2047
X5.1772Y-3.6732
X5.1969Y-3.689
X5.1969Y-4.2047
X5.2165Y-3.6732
X5.2362Y-4.2047
X5.2559Y-3.6693
X5.2559Y-4.185
X5.2756Y-4.2047
X5.2953Y-3.6693
X5.2953Y-4.185
X5.315Y-3.689
X5.315Y-4.2047
X5.3346Y-3.6693
X5.3346Y-4.185
X5.3543Y-3.689
X5.3543Y-4.2047
X5.374Y-3.6693
X5.374Y-4.185
X5.3937Y-3.689
X5.3937Y-4.2047
X5.4134Y-3.6693
X5.4134Y-4.185
T2
X6.5197Y-3.9909
X6.5201Y-3.8831
T3
X4.9606Y-3.8189
X4.9606Y-3.937
X4.9606Y-4.0551
X4.9695Y-3.6693
X4.9695Y-4.2047
X5.503Y-3.6693
X5.503Y-4.2047
X5.6776Y-3.9677
X5.6874Y-3.886
X5.6878Y-3.5947
X5.6878Y-3.7695
X5.7087Y-4.2953
X5.8268Y-4.2953
X5.8732Y-3.624
X5.8803Y-3.839
X5.8807Y-3.937
X5.8807Y-3.9961
X5.8807Y-4.2323
X5.9449Y-3.5827
X5.9449Y-4.2953
X5.974Y-3.7018
X6.0165Y-3.624
X6.0236Y-3.8386
X6.0236Y-3.9252
X6.028Y-4.2035
X6.063Y-3.5827
X6.063Y-3.8386
X6.063Y-3.9252
X6.063Y-4.2953
X6.0744Y-3.7785
X6.0992Y-4.1409
X6.1098Y-4.0067
X6.1685Y-3.7272
X6.1768Y-3.5823
X6.1799Y-4.2953
X6.1835Y-4.2449
X6.2295Y-3.8146
X6.2295Y-3.9165
X6.3531Y-3.8146
X6.3531Y-3.924
X6.4142Y-3.7291
X6.4563Y-4.222
X6.4567Y-3.9498
X6.4567Y-4.2807
X6.4969Y-4.1866
X6.4969Y-4.2614
X6.5638Y-3.7441
X6.5638Y-4.1299
X6.5689Y-3.7736
X6.5689Y-4.1004
X6.6484Y-3.6929
X6.6579Y-4.2618
X6.6583Y-4.1866
X6.7138Y-4.2614
X6.8504Y-3.7008
X6.8504Y-3.8583
X6.8504Y-4.0157
T5
X5.6063Y-3.637
X5.6063Y-3.737
X5.6063Y-3.837
X5.6063Y-3.937
X5.6063Y-4.037
X5.6063Y-4.137
X5.6063Y-4.237
X6.2795Y-3.6142
X6.3795Y-3.6142
X6.4795Y-3.6142
X6.5795Y-3.6142
X6.6795Y-3.6142
X6.7795Y-3.6142
T4
G00X6.611Y-3.7669
M15
G01X6.6543Y-3.7669
M16
G05
G00X6.611Y-4.1071
M15
G01X6.6543Y-4.1071
M16
G05
G00X6.7854Y-3.7669
M15
G01X6.8091Y-3.7669
M16
G05
G00X6.7854Y-4.1071
M15
G01X6.8091Y-4.1071
M16
G05
T0
M30
