M48
; DRILL file {KiCad 5.1.10-88a1d61d58~90~ubuntu20.04.1} date Sat Jul 31 15:59:22 2021
; FORMAT={-:-/ absolute / inch / decimal}
; #@! TF.CreationDate,2021-07-31T15:59:22+02:00
; #@! TF.GenerationSoftware,Kicad,Pcbnew,5.1.10-88a1d61d58~90~ubuntu20.04.1
; #@! TF.FileFunction,Plated,1,4,PTH
FMAT,2
INCH
T1C0.0098
T2C0.0157
T3C0.0197
T4C0.0236
T5C0.0394
%
G90
G05
T1
X5.0591Y-3.689
X5.0787Y-3.6693
X5.0787Y-4.2047
X5.0984Y-3.689
X5.1181Y-4.2047
X5.1378Y-3.6693
X5.1378Y-4.185
X5.1575Y-4.2047
X5.1772Y-3.6732
X5.1969Y-3.689
X5.1969Y-4.2047
X5.2165Y-3.6732
X5.2362Y-4.2047
X5.2559Y-3.6693
X5.2559Y-4.185
X5.2756Y-4.2047
X5.2953Y-3.6693
X5.2953Y-4.185
X5.315Y-3.689
X5.315Y-4.2047
X5.3346Y-3.6693
X5.3346Y-4.185
X5.3543Y-3.689
X5.3543Y-4.2047
X5.374Y-3.6693
X5.374Y-4.185
X5.3937Y-3.689
X5.3937Y-4.2047
X5.4134Y-3.6693
X5.4134Y-4.185
T2
X4.9606Y-3.8189
X4.9606Y-3.937
X4.9606Y-4.0551
X5.0197Y-3.6339
X5.0197Y-4.2402
X5.4512Y-4.1031
X5.4528Y-3.6339
X5.4528Y-4.2402
X5.5433Y-3.7008
X5.5433Y-3.7874
X5.5433Y-3.8862
X5.5433Y-3.9858
X5.5433Y-4.0874
X5.5433Y-4.185
X5.6677Y-3.5947
X5.6677Y-3.7695
X5.7037Y-3.9252
X5.7087Y-4.2953
X5.7941Y-3.8567
X5.8268Y-4.2953
X5.8547Y-3.8394
X5.8661Y-3.5787
X5.8906Y-3.7953
X5.9055Y-3.9744
X5.9094Y-4.1339
X5.9303Y-3.7953
X5.9449Y-4.2953
X6.0044Y-3.8606
X6.0044Y-4.0098
X6.0414Y-4.0493
X6.0551Y-3.937
X6.0551Y-3.9803
X6.063Y-4.2953
X6.0764Y-3.811
X6.0764Y-4.2004
X6.0984Y-4.0059
X6.1299Y-4.1047
X6.1799Y-4.2953
X6.1992Y-3.737
X6.2295Y-3.8071
X6.2295Y-3.9242
X6.2374Y-4.2768
X6.3169Y-4.283
X6.3354Y-4.0138
X6.3524Y-3.8071
X6.3524Y-3.9242
X6.389Y-3.7096
X6.452Y-4.283
X6.4526Y-3.9499
X6.494Y-3.9917
X6.4962Y-3.881
X6.5039Y-4.185
X6.5039Y-4.2598
X6.5591Y-3.7459
X6.5591Y-3.7874
X6.5591Y-4.0866
X6.5591Y-4.1285
X6.6496Y-4.185
X6.6496Y-4.2598
X6.7209Y-3.6693
X6.7638Y-4.2953
X6.8504Y-3.7283
X6.8504Y-3.937
X6.8504Y-4.1457
T3
X4.9695Y-3.5827
X4.9695Y-3.6339
X4.9695Y-4.2402
X4.9695Y-4.2913
X5.503Y-3.5827
X5.503Y-3.6339
X5.503Y-4.2402
X5.503Y-4.2913
T5
X5.6063Y-3.637
X5.6063Y-3.737
X5.6063Y-3.837
X5.6063Y-3.937
X5.6063Y-4.037
X5.6063Y-4.137
X5.6063Y-4.237
X5.9795Y-3.6142
X6.0795Y-3.6142
X6.1795Y-3.6142
X6.2795Y-3.6142
X6.3795Y-3.6142
X6.4795Y-3.6142
X6.5795Y-3.6142
X6.6795Y-3.6142
X6.7795Y-3.6142
T4
G00X6.611Y-3.7669
M15
G01X6.6543Y-3.7669
M16
G05
G00X6.611Y-4.1071
M15
G01X6.6543Y-4.1071
M16
G05
G00X6.7854Y-3.7669
M15
G01X6.8091Y-3.7669
M16
G05
G00X6.7854Y-4.1071
M15
G01X6.8091Y-4.1071
M16
G05
T0
M30
