%TF.GenerationSoftware,KiCad,Pcbnew,5.1.9-73d0e3b20d~88~ubuntu20.04.1*%
%TF.CreationDate,2021-06-05T19:28:38+02:00*%
%TF.ProjectId,wally,77616c6c-792e-46b6-9963-61645f706362,v1.03*%
%TF.SameCoordinates,Original*%
%TF.FileFunction,Legend,Top*%
%TF.FilePolarity,Positive*%
%FSLAX46Y46*%
G04 Gerber Fmt 4.6, Leading zero omitted, Abs format (unit mm)*
G04 Created by KiCad (PCBNEW 5.1.9-73d0e3b20d~88~ubuntu20.04.1) date 2021-06-05 19:28:38*
%MOMM*%
%LPD*%
G01*
G04 APERTURE LIST*
%ADD10C,0.187500*%
%ADD11C,0.300000*%
%ADD12C,0.120000*%
%ADD13C,0.150000*%
G04 APERTURE END LIST*
D10*
X170589285Y-103464285D02*
X171125000Y-103464285D01*
X171232142Y-103500000D01*
X171303571Y-103571428D01*
X171339285Y-103678571D01*
X171339285Y-103750000D01*
X171339285Y-102750000D02*
X171339285Y-103107142D01*
X170589285Y-103107142D01*
X171267857Y-102071428D02*
X171303571Y-102107142D01*
X171339285Y-102214285D01*
X171339285Y-102285714D01*
X171303571Y-102392857D01*
X171232142Y-102464285D01*
X171160714Y-102500000D01*
X171017857Y-102535714D01*
X170910714Y-102535714D01*
X170767857Y-102500000D01*
X170696428Y-102464285D01*
X170625000Y-102392857D01*
X170589285Y-102285714D01*
X170589285Y-102214285D01*
X170625000Y-102107142D01*
X170660714Y-102071428D01*
X170589285Y-101535714D02*
X171125000Y-101535714D01*
X171232142Y-101571428D01*
X171303571Y-101642857D01*
X171339285Y-101750000D01*
X171339285Y-101821428D01*
X171339285Y-100821428D02*
X171339285Y-101178571D01*
X170589285Y-101178571D01*
X171267857Y-100142857D02*
X171303571Y-100178571D01*
X171339285Y-100285714D01*
X171339285Y-100357142D01*
X171303571Y-100464285D01*
X171232142Y-100535714D01*
X171160714Y-100571428D01*
X171017857Y-100607142D01*
X170910714Y-100607142D01*
X170767857Y-100571428D01*
X170696428Y-100535714D01*
X170625000Y-100464285D01*
X170589285Y-100357142D01*
X170589285Y-100285714D01*
X170625000Y-100178571D01*
X170660714Y-100142857D01*
X170589285Y-99607142D02*
X171125000Y-99607142D01*
X171232142Y-99642857D01*
X171303571Y-99714285D01*
X171339285Y-99821428D01*
X171339285Y-99892857D01*
X171339285Y-98892857D02*
X171339285Y-99250000D01*
X170589285Y-99250000D01*
X171267857Y-98214285D02*
X171303571Y-98250000D01*
X171339285Y-98357142D01*
X171339285Y-98428571D01*
X171303571Y-98535714D01*
X171232142Y-98607142D01*
X171160714Y-98642857D01*
X171017857Y-98678571D01*
X170910714Y-98678571D01*
X170767857Y-98642857D01*
X170696428Y-98607142D01*
X170625000Y-98535714D01*
X170589285Y-98428571D01*
X170589285Y-98357142D01*
X170625000Y-98250000D01*
X170660714Y-98214285D01*
X170589285Y-97678571D02*
X171125000Y-97678571D01*
X171232142Y-97714285D01*
X171303571Y-97785714D01*
X171339285Y-97892857D01*
X171339285Y-97964285D01*
X171339285Y-96964285D02*
X171339285Y-97321428D01*
X170589285Y-97321428D01*
X171267857Y-96285714D02*
X171303571Y-96321428D01*
X171339285Y-96428571D01*
X171339285Y-96500000D01*
X171303571Y-96607142D01*
X171232142Y-96678571D01*
X171160714Y-96714285D01*
X171017857Y-96750000D01*
X170910714Y-96750000D01*
X170767857Y-96714285D01*
X170696428Y-96678571D01*
X170625000Y-96607142D01*
X170589285Y-96500000D01*
X170589285Y-96428571D01*
X170625000Y-96321428D01*
X170660714Y-96285714D01*
D11*
X126500000Y-100678571D02*
X126785714Y-101678571D01*
X127071428Y-100964285D01*
X127357142Y-101678571D01*
X127642857Y-100678571D01*
X128071428Y-100678571D02*
X128357142Y-101678571D01*
X128642857Y-100964285D01*
X128928571Y-101678571D01*
X129214285Y-100678571D01*
X129642857Y-100678571D02*
X129928571Y-101678571D01*
X130214285Y-100964285D01*
X130500000Y-101678571D01*
X130785714Y-100678571D01*
X131357142Y-101535714D02*
X131428571Y-101607142D01*
X131357142Y-101678571D01*
X131285714Y-101607142D01*
X131357142Y-101535714D01*
X131357142Y-101678571D01*
X132000000Y-100321428D02*
X132071428Y-100250000D01*
X132214285Y-100178571D01*
X132571428Y-100178571D01*
X132714285Y-100250000D01*
X132785714Y-100321428D01*
X132857142Y-100464285D01*
X132857142Y-100607142D01*
X132785714Y-100821428D01*
X131928571Y-101678571D01*
X132857142Y-101678571D01*
X133500000Y-101107142D02*
X134642857Y-101107142D01*
X135642857Y-100178571D02*
X135785714Y-100178571D01*
X135928571Y-100250000D01*
X136000000Y-100321428D01*
X136071428Y-100464285D01*
X136142857Y-100750000D01*
X136142857Y-101107142D01*
X136071428Y-101392857D01*
X136000000Y-101535714D01*
X135928571Y-101607142D01*
X135785714Y-101678571D01*
X135642857Y-101678571D01*
X135500000Y-101607142D01*
X135428571Y-101535714D01*
X135357142Y-101392857D01*
X135285714Y-101107142D01*
X135285714Y-100750000D01*
X135357142Y-100464285D01*
X135428571Y-100321428D01*
X135500000Y-100250000D01*
X135642857Y-100178571D01*
X136785714Y-101535714D02*
X136857142Y-101607142D01*
X136785714Y-101678571D01*
X136714285Y-101607142D01*
X136785714Y-101535714D01*
X136785714Y-101678571D01*
X138142857Y-101678571D02*
X138142857Y-100178571D01*
X138142857Y-101607142D02*
X138000000Y-101678571D01*
X137714285Y-101678571D01*
X137571428Y-101607142D01*
X137500000Y-101535714D01*
X137428571Y-101392857D01*
X137428571Y-100964285D01*
X137500000Y-100821428D01*
X137571428Y-100750000D01*
X137714285Y-100678571D01*
X138000000Y-100678571D01*
X138142857Y-100750000D01*
X138857142Y-101678571D02*
X138857142Y-100178571D01*
X139000000Y-101107142D02*
X139428571Y-101678571D01*
X139428571Y-100678571D02*
X138857142Y-101250000D01*
X126678571Y-97178571D02*
X127035714Y-98678571D01*
X127321428Y-97607142D01*
X127607142Y-98678571D01*
X127964285Y-97178571D01*
X129178571Y-98678571D02*
X129178571Y-97892857D01*
X129107142Y-97750000D01*
X128964285Y-97678571D01*
X128678571Y-97678571D01*
X128535714Y-97750000D01*
X129178571Y-98607142D02*
X129035714Y-98678571D01*
X128678571Y-98678571D01*
X128535714Y-98607142D01*
X128464285Y-98464285D01*
X128464285Y-98321428D01*
X128535714Y-98178571D01*
X128678571Y-98107142D01*
X129035714Y-98107142D01*
X129178571Y-98035714D01*
X130107142Y-98678571D02*
X129964285Y-98607142D01*
X129892857Y-98464285D01*
X129892857Y-97178571D01*
X130892857Y-98678571D02*
X130750000Y-98607142D01*
X130678571Y-98464285D01*
X130678571Y-97178571D01*
X131321428Y-97678571D02*
X131678571Y-98678571D01*
X132035714Y-97678571D02*
X131678571Y-98678571D01*
X131535714Y-99035714D01*
X131464285Y-99107142D01*
X131321428Y-99178571D01*
X133607142Y-97678571D02*
X133964285Y-98678571D01*
X134321428Y-97678571D01*
X135678571Y-98678571D02*
X134821428Y-98678571D01*
X135250000Y-98678571D02*
X135250000Y-97178571D01*
X135107142Y-97392857D01*
X134964285Y-97535714D01*
X134821428Y-97607142D01*
X136321428Y-98535714D02*
X136392857Y-98607142D01*
X136321428Y-98678571D01*
X136250000Y-98607142D01*
X136321428Y-98535714D01*
X136321428Y-98678571D01*
X137321428Y-97178571D02*
X137464285Y-97178571D01*
X137607142Y-97250000D01*
X137678571Y-97321428D01*
X137750000Y-97464285D01*
X137821428Y-97750000D01*
X137821428Y-98107142D01*
X137750000Y-98392857D01*
X137678571Y-98535714D01*
X137607142Y-98607142D01*
X137464285Y-98678571D01*
X137321428Y-98678571D01*
X137178571Y-98607142D01*
X137107142Y-98535714D01*
X137035714Y-98392857D01*
X136964285Y-98107142D01*
X136964285Y-97750000D01*
X137035714Y-97464285D01*
X137107142Y-97321428D01*
X137178571Y-97250000D01*
X137321428Y-97178571D01*
X138321428Y-97178571D02*
X139250000Y-97178571D01*
X138750000Y-97750000D01*
X138964285Y-97750000D01*
X139107142Y-97821428D01*
X139178571Y-97892857D01*
X139250000Y-98035714D01*
X139250000Y-98392857D01*
X139178571Y-98535714D01*
X139107142Y-98607142D01*
X138964285Y-98678571D01*
X138535714Y-98678571D01*
X138392857Y-98607142D01*
X138321428Y-98535714D01*
D12*
%TO.C,J1*%
X173600000Y-104700000D02*
X175500000Y-104700000D01*
X169700000Y-104700000D02*
X171700000Y-104700000D01*
X173600000Y-95300000D02*
X175500000Y-95300000D01*
X169700000Y-95300000D02*
X171700000Y-95300000D01*
X175500000Y-104700000D02*
X175500000Y-95300000D01*
%TO.C,Q4*%
X156350000Y-105290000D02*
X157810000Y-105290000D01*
X156350000Y-108450000D02*
X158510000Y-108450000D01*
X156350000Y-108450000D02*
X156350000Y-107520000D01*
X156350000Y-105290000D02*
X156350000Y-106220000D01*
%TO.C,J2*%
X140340000Y-110060000D02*
X139210000Y-110060000D01*
X140340000Y-107310000D02*
X140340000Y-110060000D01*
X139210000Y-110060000D02*
X139210000Y-107310000D01*
X139210000Y-107310000D02*
X138010000Y-107310000D01*
X126790000Y-107310000D02*
X127990000Y-107310000D01*
X126790000Y-110060000D02*
X126790000Y-107310000D01*
X125660000Y-110060000D02*
X126790000Y-110060000D01*
X125660000Y-107310000D02*
X125660000Y-110060000D01*
%TO.C,J3*%
X127990000Y-92690000D02*
X127990000Y-90060000D01*
X139210000Y-92690000D02*
X138010000Y-92690000D01*
X139210000Y-89940000D02*
X139210000Y-92690000D01*
X125660000Y-89940000D02*
X126790000Y-89940000D01*
X140340000Y-92690000D02*
X140340000Y-89940000D01*
X125660000Y-92690000D02*
X125660000Y-89940000D01*
X140340000Y-89940000D02*
X139210000Y-89940000D01*
X126790000Y-89940000D02*
X126790000Y-92690000D01*
X126790000Y-92690000D02*
X127990000Y-92690000D01*
%TO.C,C4*%
X171065000Y-107551252D02*
X171065000Y-107028748D01*
X172535000Y-107551252D02*
X172535000Y-107028748D01*
%TO.C,C5*%
X167075000Y-107551252D02*
X167075000Y-107028748D01*
X165605000Y-107551252D02*
X165605000Y-107028748D01*
%TO.C,U1*%
X159800000Y-103385000D02*
X162000000Y-103385000D01*
X159800000Y-103385000D02*
X157600000Y-103385000D01*
X159800000Y-96615000D02*
X162000000Y-96615000D01*
X159800000Y-96615000D02*
X156200000Y-96615000D01*
%TO.C,U2*%
X169830000Y-108870000D02*
X169830000Y-107940000D01*
X169830000Y-105710000D02*
X169830000Y-106640000D01*
X169830000Y-105710000D02*
X167670000Y-105710000D01*
X169830000Y-108870000D02*
X168370000Y-108870000D01*
%TO.C,D2*%
X166200000Y-98030000D02*
X166200000Y-99880000D01*
X165000000Y-98030000D02*
X165000000Y-99880000D01*
X165000000Y-99880000D02*
X166200000Y-99880000D01*
%TO.C,D3*%
X166200000Y-100120000D02*
X165000000Y-100120000D01*
X166200000Y-101970000D02*
X166200000Y-100120000D01*
X165000000Y-101970000D02*
X165000000Y-100120000D01*
%TO.C,D5*%
X174110000Y-106140000D02*
X172910000Y-106140000D01*
X174110000Y-107990000D02*
X174110000Y-106140000D01*
X172910000Y-107990000D02*
X172910000Y-106140000D01*
%TO.C,J4*%
X158170000Y-90470000D02*
X158170000Y-93130000D01*
X170930000Y-90470000D02*
X158170000Y-90470000D01*
X170930000Y-93130000D02*
X158170000Y-93130000D01*
X170930000Y-90470000D02*
X170930000Y-93130000D01*
X172200000Y-90470000D02*
X173530000Y-90470000D01*
X173530000Y-90470000D02*
X173530000Y-91800000D01*
%TO.C,D1*%
X135940000Y-104746000D02*
X137140000Y-104746000D01*
X135940000Y-102896000D02*
X135940000Y-104746000D01*
X137140000Y-102896000D02*
X137140000Y-104746000D01*
%TO.C,D7*%
X134510000Y-104746000D02*
X135710000Y-104746000D01*
X134510000Y-102896000D02*
X134510000Y-104746000D01*
X135710000Y-102896000D02*
X135710000Y-104746000D01*
%TO.C,D8*%
X132840000Y-102896000D02*
X132840000Y-104746000D01*
X131640000Y-102896000D02*
X131640000Y-104746000D01*
X131640000Y-104746000D02*
X132840000Y-104746000D01*
%TO.C,D9*%
X133080000Y-104746000D02*
X134280000Y-104746000D01*
X133080000Y-102896000D02*
X133080000Y-104746000D01*
X134280000Y-102896000D02*
X134280000Y-104746000D01*
%TO.C,D10*%
X131410000Y-102896000D02*
X131410000Y-104746000D01*
X130210000Y-102896000D02*
X130210000Y-104746000D01*
X130210000Y-104746000D02*
X131410000Y-104746000D01*
%TO.C,U3*%
X151000000Y-93390000D02*
X149500000Y-93390000D01*
X151000000Y-93390000D02*
X152500000Y-93390000D01*
X151000000Y-96610000D02*
X149500000Y-96610000D01*
X151000000Y-96610000D02*
X153925000Y-96610000D01*
%TO.C,U4*%
X151000000Y-106610000D02*
X153925000Y-106610000D01*
X151000000Y-106610000D02*
X149500000Y-106610000D01*
X151000000Y-103390000D02*
X152500000Y-103390000D01*
X151000000Y-103390000D02*
X149500000Y-103390000D01*
%TO.C,C1*%
X154680000Y-100085580D02*
X154680000Y-99804420D01*
X155700000Y-100085580D02*
X155700000Y-99804420D01*
%TO.C,C2*%
X157314420Y-96260000D02*
X157595580Y-96260000D01*
X157314420Y-95240000D02*
X157595580Y-95240000D01*
%TO.C,C3*%
X162285580Y-96260000D02*
X162004420Y-96260000D01*
X162285580Y-95240000D02*
X162004420Y-95240000D01*
%TO.C,C6*%
X150869420Y-98020000D02*
X151150580Y-98020000D01*
X150869420Y-97000000D02*
X151150580Y-97000000D01*
%TO.C,C7*%
X150859420Y-108010000D02*
X151140580Y-108010000D01*
X150859420Y-106990000D02*
X151140580Y-106990000D01*
%TO.C,C8*%
X146430580Y-95235000D02*
X146149420Y-95235000D01*
X146430580Y-96255000D02*
X146149420Y-96255000D01*
%TO.C,D4*%
X163655000Y-107995000D02*
X161370000Y-107995000D01*
X163655000Y-109465000D02*
X163655000Y-107995000D01*
X161370000Y-109465000D02*
X163655000Y-109465000D01*
%TO.C,D6*%
X161370000Y-107975000D02*
X163655000Y-107975000D01*
X163655000Y-107975000D02*
X163655000Y-106505000D01*
X163655000Y-106505000D02*
X161370000Y-106505000D01*
%TO.C,R1*%
X166072500Y-104277258D02*
X166072500Y-103802742D01*
X165027500Y-104277258D02*
X165027500Y-103802742D01*
%TO.C,R2*%
X166092500Y-95732742D02*
X166092500Y-96207258D01*
X165047500Y-95732742D02*
X165047500Y-96207258D01*
%TO.C,R3*%
X151237258Y-92572500D02*
X150762742Y-92572500D01*
X151237258Y-91527500D02*
X150762742Y-91527500D01*
%TO.C,R8*%
X162407258Y-104782500D02*
X161932742Y-104782500D01*
X162407258Y-103737500D02*
X161932742Y-103737500D01*
%TO.C,R9*%
X146527258Y-94777500D02*
X146052742Y-94777500D01*
X146527258Y-93732500D02*
X146052742Y-93732500D01*
%TO.C,R10*%
X146052742Y-96702500D02*
X146527258Y-96702500D01*
X146052742Y-97747500D02*
X146527258Y-97747500D01*
%TO.C,R11*%
X146527258Y-98182500D02*
X146052742Y-98182500D01*
X146527258Y-99227500D02*
X146052742Y-99227500D01*
%TO.C,R12*%
X162407258Y-106272500D02*
X161932742Y-106272500D01*
X162407258Y-105227500D02*
X161932742Y-105227500D01*
%TO.C,R14*%
X160102500Y-107107258D02*
X160102500Y-106632742D01*
X159057500Y-107107258D02*
X159057500Y-106632742D01*
%TO.C,R15*%
X146052742Y-92252500D02*
X146527258Y-92252500D01*
X146052742Y-93297500D02*
X146527258Y-93297500D01*
%TO.C,R16*%
X146527258Y-90782500D02*
X146052742Y-90782500D01*
X146527258Y-91827500D02*
X146052742Y-91827500D01*
%TO.C,R17*%
X146557258Y-106262500D02*
X146082742Y-106262500D01*
X146557258Y-105217500D02*
X146082742Y-105217500D01*
%TO.C,R18*%
X146557258Y-103727500D02*
X146082742Y-103727500D01*
X146557258Y-104772500D02*
X146082742Y-104772500D01*
%TO.C,D11*%
X149515000Y-100735000D02*
X151800000Y-100735000D01*
X149515000Y-99265000D02*
X149515000Y-100735000D01*
X151800000Y-99265000D02*
X149515000Y-99265000D01*
%TO.C,J5*%
X143730000Y-108950000D02*
X142400000Y-108950000D01*
X143730000Y-107620000D02*
X143730000Y-108950000D01*
X143730000Y-106350000D02*
X141070000Y-106350000D01*
X141070000Y-106350000D02*
X141070000Y-91050000D01*
X143730000Y-106350000D02*
X143730000Y-91050000D01*
X143730000Y-91050000D02*
X141070000Y-91050000D01*
%TO.C,R4*%
X150762742Y-102022500D02*
X151237258Y-102022500D01*
X150762742Y-100977500D02*
X151237258Y-100977500D01*
%TO.C,D12*%
X154225000Y-105035000D02*
X156510000Y-105035000D01*
X154225000Y-103565000D02*
X154225000Y-105035000D01*
X156510000Y-103565000D02*
X154225000Y-103565000D01*
%TO.C,R5*%
X158937258Y-103777500D02*
X158462742Y-103777500D01*
X158937258Y-104822500D02*
X158462742Y-104822500D01*
%TO.C,J1*%
D13*
X171340000Y-93719285D02*
X171340000Y-94255000D01*
X171304285Y-94362142D01*
X171232857Y-94433571D01*
X171125714Y-94469285D01*
X171054285Y-94469285D01*
X172090000Y-94469285D02*
X171661428Y-94469285D01*
X171875714Y-94469285D02*
X171875714Y-93719285D01*
X171804285Y-93826428D01*
X171732857Y-93897857D01*
X171661428Y-93933571D01*
%TO.C,Q4*%
X155280714Y-106941428D02*
X155245000Y-107012857D01*
X155173571Y-107084285D01*
X155066428Y-107191428D01*
X155030714Y-107262857D01*
X155030714Y-107334285D01*
X155209285Y-107298571D02*
X155173571Y-107370000D01*
X155102142Y-107441428D01*
X154959285Y-107477142D01*
X154709285Y-107477142D01*
X154566428Y-107441428D01*
X154495000Y-107370000D01*
X154459285Y-107298571D01*
X154459285Y-107155714D01*
X154495000Y-107084285D01*
X154566428Y-107012857D01*
X154709285Y-106977142D01*
X154959285Y-106977142D01*
X155102142Y-107012857D01*
X155173571Y-107084285D01*
X155209285Y-107155714D01*
X155209285Y-107298571D01*
X154709285Y-106334285D02*
X155209285Y-106334285D01*
X154423571Y-106512857D02*
X154959285Y-106691428D01*
X154959285Y-106227142D01*
%TO.C,J2*%
X138189285Y-108850000D02*
X138725000Y-108850000D01*
X138832142Y-108885714D01*
X138903571Y-108957142D01*
X138939285Y-109064285D01*
X138939285Y-109135714D01*
X138260714Y-108528571D02*
X138225000Y-108492857D01*
X138189285Y-108421428D01*
X138189285Y-108242857D01*
X138225000Y-108171428D01*
X138260714Y-108135714D01*
X138332142Y-108100000D01*
X138403571Y-108100000D01*
X138510714Y-108135714D01*
X138939285Y-108564285D01*
X138939285Y-108100000D01*
%TO.C,J3*%
X138189285Y-91640000D02*
X138725000Y-91640000D01*
X138832142Y-91675714D01*
X138903571Y-91747142D01*
X138939285Y-91854285D01*
X138939285Y-91925714D01*
X138189285Y-91354285D02*
X138189285Y-90890000D01*
X138475000Y-91140000D01*
X138475000Y-91032857D01*
X138510714Y-90961428D01*
X138546428Y-90925714D01*
X138617857Y-90890000D01*
X138796428Y-90890000D01*
X138867857Y-90925714D01*
X138903571Y-90961428D01*
X138939285Y-91032857D01*
X138939285Y-91247142D01*
X138903571Y-91318571D01*
X138867857Y-91354285D01*
%TO.C,C4*%
X171675000Y-109777857D02*
X171639285Y-109813571D01*
X171532142Y-109849285D01*
X171460714Y-109849285D01*
X171353571Y-109813571D01*
X171282142Y-109742142D01*
X171246428Y-109670714D01*
X171210714Y-109527857D01*
X171210714Y-109420714D01*
X171246428Y-109277857D01*
X171282142Y-109206428D01*
X171353571Y-109135000D01*
X171460714Y-109099285D01*
X171532142Y-109099285D01*
X171639285Y-109135000D01*
X171675000Y-109170714D01*
X172317857Y-109349285D02*
X172317857Y-109849285D01*
X172139285Y-109063571D02*
X171960714Y-109599285D01*
X172425000Y-109599285D01*
%TO.C,C5*%
X166225000Y-109737857D02*
X166189285Y-109773571D01*
X166082142Y-109809285D01*
X166010714Y-109809285D01*
X165903571Y-109773571D01*
X165832142Y-109702142D01*
X165796428Y-109630714D01*
X165760714Y-109487857D01*
X165760714Y-109380714D01*
X165796428Y-109237857D01*
X165832142Y-109166428D01*
X165903571Y-109095000D01*
X166010714Y-109059285D01*
X166082142Y-109059285D01*
X166189285Y-109095000D01*
X166225000Y-109130714D01*
X166903571Y-109059285D02*
X166546428Y-109059285D01*
X166510714Y-109416428D01*
X166546428Y-109380714D01*
X166617857Y-109345000D01*
X166796428Y-109345000D01*
X166867857Y-109380714D01*
X166903571Y-109416428D01*
X166939285Y-109487857D01*
X166939285Y-109666428D01*
X166903571Y-109737857D01*
X166867857Y-109773571D01*
X166796428Y-109809285D01*
X166617857Y-109809285D01*
X166546428Y-109773571D01*
X166510714Y-109737857D01*
%TO.C,U1*%
X159228571Y-95589285D02*
X159228571Y-96196428D01*
X159264285Y-96267857D01*
X159300000Y-96303571D01*
X159371428Y-96339285D01*
X159514285Y-96339285D01*
X159585714Y-96303571D01*
X159621428Y-96267857D01*
X159657142Y-96196428D01*
X159657142Y-95589285D01*
X160407142Y-96339285D02*
X159978571Y-96339285D01*
X160192857Y-96339285D02*
X160192857Y-95589285D01*
X160121428Y-95696428D01*
X160050000Y-95767857D01*
X159978571Y-95803571D01*
%TO.C,U2*%
X168478571Y-109089285D02*
X168478571Y-109696428D01*
X168514285Y-109767857D01*
X168550000Y-109803571D01*
X168621428Y-109839285D01*
X168764285Y-109839285D01*
X168835714Y-109803571D01*
X168871428Y-109767857D01*
X168907142Y-109696428D01*
X168907142Y-109089285D01*
X169228571Y-109160714D02*
X169264285Y-109125000D01*
X169335714Y-109089285D01*
X169514285Y-109089285D01*
X169585714Y-109125000D01*
X169621428Y-109160714D01*
X169657142Y-109232142D01*
X169657142Y-109303571D01*
X169621428Y-109410714D01*
X169192857Y-109839285D01*
X169657142Y-109839285D01*
%TO.C,D2*%
X164749285Y-99283571D02*
X163999285Y-99283571D01*
X163999285Y-99105000D01*
X164035000Y-98997857D01*
X164106428Y-98926428D01*
X164177857Y-98890714D01*
X164320714Y-98855000D01*
X164427857Y-98855000D01*
X164570714Y-98890714D01*
X164642142Y-98926428D01*
X164713571Y-98997857D01*
X164749285Y-99105000D01*
X164749285Y-99283571D01*
X164070714Y-98569285D02*
X164035000Y-98533571D01*
X163999285Y-98462142D01*
X163999285Y-98283571D01*
X164035000Y-98212142D01*
X164070714Y-98176428D01*
X164142142Y-98140714D01*
X164213571Y-98140714D01*
X164320714Y-98176428D01*
X164749285Y-98605000D01*
X164749285Y-98140714D01*
%TO.C,D3*%
X164749285Y-101823571D02*
X163999285Y-101823571D01*
X163999285Y-101645000D01*
X164035000Y-101537857D01*
X164106428Y-101466428D01*
X164177857Y-101430714D01*
X164320714Y-101395000D01*
X164427857Y-101395000D01*
X164570714Y-101430714D01*
X164642142Y-101466428D01*
X164713571Y-101537857D01*
X164749285Y-101645000D01*
X164749285Y-101823571D01*
X163999285Y-101145000D02*
X163999285Y-100680714D01*
X164285000Y-100930714D01*
X164285000Y-100823571D01*
X164320714Y-100752142D01*
X164356428Y-100716428D01*
X164427857Y-100680714D01*
X164606428Y-100680714D01*
X164677857Y-100716428D01*
X164713571Y-100752142D01*
X164749285Y-100823571D01*
X164749285Y-101037857D01*
X164713571Y-101109285D01*
X164677857Y-101145000D01*
%TO.C,D5*%
X172946428Y-109409285D02*
X172946428Y-108659285D01*
X173125000Y-108659285D01*
X173232142Y-108695000D01*
X173303571Y-108766428D01*
X173339285Y-108837857D01*
X173375000Y-108980714D01*
X173375000Y-109087857D01*
X173339285Y-109230714D01*
X173303571Y-109302142D01*
X173232142Y-109373571D01*
X173125000Y-109409285D01*
X172946428Y-109409285D01*
X174053571Y-108659285D02*
X173696428Y-108659285D01*
X173660714Y-109016428D01*
X173696428Y-108980714D01*
X173767857Y-108945000D01*
X173946428Y-108945000D01*
X174017857Y-108980714D01*
X174053571Y-109016428D01*
X174089285Y-109087857D01*
X174089285Y-109266428D01*
X174053571Y-109337857D01*
X174017857Y-109373571D01*
X173946428Y-109409285D01*
X173767857Y-109409285D01*
X173696428Y-109373571D01*
X173660714Y-109337857D01*
%TO.C,J4*%
X156820000Y-91399285D02*
X156820000Y-91935000D01*
X156784285Y-92042142D01*
X156712857Y-92113571D01*
X156605714Y-92149285D01*
X156534285Y-92149285D01*
X157498571Y-91649285D02*
X157498571Y-92149285D01*
X157320000Y-91363571D02*
X157141428Y-91899285D01*
X157605714Y-91899285D01*
%TO.C,D1*%
X136839285Y-106853571D02*
X136089285Y-106853571D01*
X136089285Y-106675000D01*
X136125000Y-106567857D01*
X136196428Y-106496428D01*
X136267857Y-106460714D01*
X136410714Y-106425000D01*
X136517857Y-106425000D01*
X136660714Y-106460714D01*
X136732142Y-106496428D01*
X136803571Y-106567857D01*
X136839285Y-106675000D01*
X136839285Y-106853571D01*
X136839285Y-105710714D02*
X136839285Y-106139285D01*
X136839285Y-105925000D02*
X136089285Y-105925000D01*
X136196428Y-105996428D01*
X136267857Y-106067857D01*
X136303571Y-106139285D01*
%TO.C,D7*%
X135359285Y-106853571D02*
X134609285Y-106853571D01*
X134609285Y-106675000D01*
X134645000Y-106567857D01*
X134716428Y-106496428D01*
X134787857Y-106460714D01*
X134930714Y-106425000D01*
X135037857Y-106425000D01*
X135180714Y-106460714D01*
X135252142Y-106496428D01*
X135323571Y-106567857D01*
X135359285Y-106675000D01*
X135359285Y-106853571D01*
X134609285Y-106175000D02*
X134609285Y-105675000D01*
X135359285Y-105996428D01*
%TO.C,D8*%
X132589285Y-106853571D02*
X131839285Y-106853571D01*
X131839285Y-106675000D01*
X131875000Y-106567857D01*
X131946428Y-106496428D01*
X132017857Y-106460714D01*
X132160714Y-106425000D01*
X132267857Y-106425000D01*
X132410714Y-106460714D01*
X132482142Y-106496428D01*
X132553571Y-106567857D01*
X132589285Y-106675000D01*
X132589285Y-106853571D01*
X132160714Y-105996428D02*
X132125000Y-106067857D01*
X132089285Y-106103571D01*
X132017857Y-106139285D01*
X131982142Y-106139285D01*
X131910714Y-106103571D01*
X131875000Y-106067857D01*
X131839285Y-105996428D01*
X131839285Y-105853571D01*
X131875000Y-105782142D01*
X131910714Y-105746428D01*
X131982142Y-105710714D01*
X132017857Y-105710714D01*
X132089285Y-105746428D01*
X132125000Y-105782142D01*
X132160714Y-105853571D01*
X132160714Y-105996428D01*
X132196428Y-106067857D01*
X132232142Y-106103571D01*
X132303571Y-106139285D01*
X132446428Y-106139285D01*
X132517857Y-106103571D01*
X132553571Y-106067857D01*
X132589285Y-105996428D01*
X132589285Y-105853571D01*
X132553571Y-105782142D01*
X132517857Y-105746428D01*
X132446428Y-105710714D01*
X132303571Y-105710714D01*
X132232142Y-105746428D01*
X132196428Y-105782142D01*
X132160714Y-105853571D01*
%TO.C,D9*%
X134019285Y-106853571D02*
X133269285Y-106853571D01*
X133269285Y-106675000D01*
X133305000Y-106567857D01*
X133376428Y-106496428D01*
X133447857Y-106460714D01*
X133590714Y-106425000D01*
X133697857Y-106425000D01*
X133840714Y-106460714D01*
X133912142Y-106496428D01*
X133983571Y-106567857D01*
X134019285Y-106675000D01*
X134019285Y-106853571D01*
X134019285Y-106067857D02*
X134019285Y-105925000D01*
X133983571Y-105853571D01*
X133947857Y-105817857D01*
X133840714Y-105746428D01*
X133697857Y-105710714D01*
X133412142Y-105710714D01*
X133340714Y-105746428D01*
X133305000Y-105782142D01*
X133269285Y-105853571D01*
X133269285Y-105996428D01*
X133305000Y-106067857D01*
X133340714Y-106103571D01*
X133412142Y-106139285D01*
X133590714Y-106139285D01*
X133662142Y-106103571D01*
X133697857Y-106067857D01*
X133733571Y-105996428D01*
X133733571Y-105853571D01*
X133697857Y-105782142D01*
X133662142Y-105746428D01*
X133590714Y-105710714D01*
%TO.C,D10*%
X131149285Y-106860714D02*
X130399285Y-106860714D01*
X130399285Y-106682142D01*
X130435000Y-106575000D01*
X130506428Y-106503571D01*
X130577857Y-106467857D01*
X130720714Y-106432142D01*
X130827857Y-106432142D01*
X130970714Y-106467857D01*
X131042142Y-106503571D01*
X131113571Y-106575000D01*
X131149285Y-106682142D01*
X131149285Y-106860714D01*
X131149285Y-105717857D02*
X131149285Y-106146428D01*
X131149285Y-105932142D02*
X130399285Y-105932142D01*
X130506428Y-106003571D01*
X130577857Y-106075000D01*
X130613571Y-106146428D01*
X130399285Y-105253571D02*
X130399285Y-105182142D01*
X130435000Y-105110714D01*
X130470714Y-105075000D01*
X130542142Y-105039285D01*
X130685000Y-105003571D01*
X130863571Y-105003571D01*
X131006428Y-105039285D01*
X131077857Y-105075000D01*
X131113571Y-105110714D01*
X131149285Y-105182142D01*
X131149285Y-105253571D01*
X131113571Y-105325000D01*
X131077857Y-105360714D01*
X131006428Y-105396428D01*
X130863571Y-105432142D01*
X130685000Y-105432142D01*
X130542142Y-105396428D01*
X130470714Y-105360714D01*
X130435000Y-105325000D01*
X130399285Y-105253571D01*
%TO.C,U3*%
X154248571Y-94589285D02*
X154248571Y-95196428D01*
X154284285Y-95267857D01*
X154320000Y-95303571D01*
X154391428Y-95339285D01*
X154534285Y-95339285D01*
X154605714Y-95303571D01*
X154641428Y-95267857D01*
X154677142Y-95196428D01*
X154677142Y-94589285D01*
X154962857Y-94589285D02*
X155427142Y-94589285D01*
X155177142Y-94875000D01*
X155284285Y-94875000D01*
X155355714Y-94910714D01*
X155391428Y-94946428D01*
X155427142Y-95017857D01*
X155427142Y-95196428D01*
X155391428Y-95267857D01*
X155355714Y-95303571D01*
X155284285Y-95339285D01*
X155070000Y-95339285D01*
X154998571Y-95303571D01*
X154962857Y-95267857D01*
%TO.C,U4*%
X152888571Y-106929285D02*
X152888571Y-107536428D01*
X152924285Y-107607857D01*
X152960000Y-107643571D01*
X153031428Y-107679285D01*
X153174285Y-107679285D01*
X153245714Y-107643571D01*
X153281428Y-107607857D01*
X153317142Y-107536428D01*
X153317142Y-106929285D01*
X153995714Y-107179285D02*
X153995714Y-107679285D01*
X153817142Y-106893571D02*
X153638571Y-107429285D01*
X154102857Y-107429285D01*
%TO.C,C1*%
X153595000Y-100197857D02*
X153559285Y-100233571D01*
X153452142Y-100269285D01*
X153380714Y-100269285D01*
X153273571Y-100233571D01*
X153202142Y-100162142D01*
X153166428Y-100090714D01*
X153130714Y-99947857D01*
X153130714Y-99840714D01*
X153166428Y-99697857D01*
X153202142Y-99626428D01*
X153273571Y-99555000D01*
X153380714Y-99519285D01*
X153452142Y-99519285D01*
X153559285Y-99555000D01*
X153595000Y-99590714D01*
X154309285Y-100269285D02*
X153880714Y-100269285D01*
X154095000Y-100269285D02*
X154095000Y-99519285D01*
X154023571Y-99626428D01*
X153952142Y-99697857D01*
X153880714Y-99733571D01*
%TO.C,C2*%
X157345000Y-94677857D02*
X157309285Y-94713571D01*
X157202142Y-94749285D01*
X157130714Y-94749285D01*
X157023571Y-94713571D01*
X156952142Y-94642142D01*
X156916428Y-94570714D01*
X156880714Y-94427857D01*
X156880714Y-94320714D01*
X156916428Y-94177857D01*
X156952142Y-94106428D01*
X157023571Y-94035000D01*
X157130714Y-93999285D01*
X157202142Y-93999285D01*
X157309285Y-94035000D01*
X157345000Y-94070714D01*
X157630714Y-94070714D02*
X157666428Y-94035000D01*
X157737857Y-93999285D01*
X157916428Y-93999285D01*
X157987857Y-94035000D01*
X158023571Y-94070714D01*
X158059285Y-94142142D01*
X158059285Y-94213571D01*
X158023571Y-94320714D01*
X157595000Y-94749285D01*
X158059285Y-94749285D01*
%TO.C,C3*%
X162025000Y-94697857D02*
X161989285Y-94733571D01*
X161882142Y-94769285D01*
X161810714Y-94769285D01*
X161703571Y-94733571D01*
X161632142Y-94662142D01*
X161596428Y-94590714D01*
X161560714Y-94447857D01*
X161560714Y-94340714D01*
X161596428Y-94197857D01*
X161632142Y-94126428D01*
X161703571Y-94055000D01*
X161810714Y-94019285D01*
X161882142Y-94019285D01*
X161989285Y-94055000D01*
X162025000Y-94090714D01*
X162275000Y-94019285D02*
X162739285Y-94019285D01*
X162489285Y-94305000D01*
X162596428Y-94305000D01*
X162667857Y-94340714D01*
X162703571Y-94376428D01*
X162739285Y-94447857D01*
X162739285Y-94626428D01*
X162703571Y-94697857D01*
X162667857Y-94733571D01*
X162596428Y-94769285D01*
X162382142Y-94769285D01*
X162310714Y-94733571D01*
X162275000Y-94697857D01*
%TO.C,C6*%
X153015000Y-97777857D02*
X152979285Y-97813571D01*
X152872142Y-97849285D01*
X152800714Y-97849285D01*
X152693571Y-97813571D01*
X152622142Y-97742142D01*
X152586428Y-97670714D01*
X152550714Y-97527857D01*
X152550714Y-97420714D01*
X152586428Y-97277857D01*
X152622142Y-97206428D01*
X152693571Y-97135000D01*
X152800714Y-97099285D01*
X152872142Y-97099285D01*
X152979285Y-97135000D01*
X153015000Y-97170714D01*
X153657857Y-97099285D02*
X153515000Y-97099285D01*
X153443571Y-97135000D01*
X153407857Y-97170714D01*
X153336428Y-97277857D01*
X153300714Y-97420714D01*
X153300714Y-97706428D01*
X153336428Y-97777857D01*
X153372142Y-97813571D01*
X153443571Y-97849285D01*
X153586428Y-97849285D01*
X153657857Y-97813571D01*
X153693571Y-97777857D01*
X153729285Y-97706428D01*
X153729285Y-97527857D01*
X153693571Y-97456428D01*
X153657857Y-97420714D01*
X153586428Y-97385000D01*
X153443571Y-97385000D01*
X153372142Y-97420714D01*
X153336428Y-97456428D01*
X153300714Y-97527857D01*
%TO.C,C7*%
X148615000Y-107757857D02*
X148579285Y-107793571D01*
X148472142Y-107829285D01*
X148400714Y-107829285D01*
X148293571Y-107793571D01*
X148222142Y-107722142D01*
X148186428Y-107650714D01*
X148150714Y-107507857D01*
X148150714Y-107400714D01*
X148186428Y-107257857D01*
X148222142Y-107186428D01*
X148293571Y-107115000D01*
X148400714Y-107079285D01*
X148472142Y-107079285D01*
X148579285Y-107115000D01*
X148615000Y-107150714D01*
X148865000Y-107079285D02*
X149365000Y-107079285D01*
X149043571Y-107829285D01*
%TO.C,C8*%
X144557857Y-95865000D02*
X144593571Y-95900714D01*
X144629285Y-96007857D01*
X144629285Y-96079285D01*
X144593571Y-96186428D01*
X144522142Y-96257857D01*
X144450714Y-96293571D01*
X144307857Y-96329285D01*
X144200714Y-96329285D01*
X144057857Y-96293571D01*
X143986428Y-96257857D01*
X143915000Y-96186428D01*
X143879285Y-96079285D01*
X143879285Y-96007857D01*
X143915000Y-95900714D01*
X143950714Y-95865000D01*
X144200714Y-95436428D02*
X144165000Y-95507857D01*
X144129285Y-95543571D01*
X144057857Y-95579285D01*
X144022142Y-95579285D01*
X143950714Y-95543571D01*
X143915000Y-95507857D01*
X143879285Y-95436428D01*
X143879285Y-95293571D01*
X143915000Y-95222142D01*
X143950714Y-95186428D01*
X144022142Y-95150714D01*
X144057857Y-95150714D01*
X144129285Y-95186428D01*
X144165000Y-95222142D01*
X144200714Y-95293571D01*
X144200714Y-95436428D01*
X144236428Y-95507857D01*
X144272142Y-95543571D01*
X144343571Y-95579285D01*
X144486428Y-95579285D01*
X144557857Y-95543571D01*
X144593571Y-95507857D01*
X144629285Y-95436428D01*
X144629285Y-95293571D01*
X144593571Y-95222142D01*
X144557857Y-95186428D01*
X144486428Y-95150714D01*
X144343571Y-95150714D01*
X144272142Y-95186428D01*
X144236428Y-95222142D01*
X144200714Y-95293571D01*
%TO.C,D4*%
X163936428Y-109409285D02*
X163936428Y-108659285D01*
X164115000Y-108659285D01*
X164222142Y-108695000D01*
X164293571Y-108766428D01*
X164329285Y-108837857D01*
X164365000Y-108980714D01*
X164365000Y-109087857D01*
X164329285Y-109230714D01*
X164293571Y-109302142D01*
X164222142Y-109373571D01*
X164115000Y-109409285D01*
X163936428Y-109409285D01*
X165007857Y-108909285D02*
X165007857Y-109409285D01*
X164829285Y-108623571D02*
X164650714Y-109159285D01*
X165115000Y-109159285D01*
%TO.C,D6*%
X163936428Y-107959285D02*
X163936428Y-107209285D01*
X164115000Y-107209285D01*
X164222142Y-107245000D01*
X164293571Y-107316428D01*
X164329285Y-107387857D01*
X164365000Y-107530714D01*
X164365000Y-107637857D01*
X164329285Y-107780714D01*
X164293571Y-107852142D01*
X164222142Y-107923571D01*
X164115000Y-107959285D01*
X163936428Y-107959285D01*
X165007857Y-107209285D02*
X164865000Y-107209285D01*
X164793571Y-107245000D01*
X164757857Y-107280714D01*
X164686428Y-107387857D01*
X164650714Y-107530714D01*
X164650714Y-107816428D01*
X164686428Y-107887857D01*
X164722142Y-107923571D01*
X164793571Y-107959285D01*
X164936428Y-107959285D01*
X165007857Y-107923571D01*
X165043571Y-107887857D01*
X165079285Y-107816428D01*
X165079285Y-107637857D01*
X165043571Y-107566428D01*
X165007857Y-107530714D01*
X164936428Y-107495000D01*
X164793571Y-107495000D01*
X164722142Y-107530714D01*
X164686428Y-107566428D01*
X164650714Y-107637857D01*
%TO.C,R1*%
X164619285Y-102885000D02*
X164262142Y-103135000D01*
X164619285Y-103313571D02*
X163869285Y-103313571D01*
X163869285Y-103027857D01*
X163905000Y-102956428D01*
X163940714Y-102920714D01*
X164012142Y-102885000D01*
X164119285Y-102885000D01*
X164190714Y-102920714D01*
X164226428Y-102956428D01*
X164262142Y-103027857D01*
X164262142Y-103313571D01*
X164619285Y-102170714D02*
X164619285Y-102599285D01*
X164619285Y-102385000D02*
X163869285Y-102385000D01*
X163976428Y-102456428D01*
X164047857Y-102527857D01*
X164083571Y-102599285D01*
%TO.C,R2*%
X164619285Y-96105000D02*
X164262142Y-96355000D01*
X164619285Y-96533571D02*
X163869285Y-96533571D01*
X163869285Y-96247857D01*
X163905000Y-96176428D01*
X163940714Y-96140714D01*
X164012142Y-96105000D01*
X164119285Y-96105000D01*
X164190714Y-96140714D01*
X164226428Y-96176428D01*
X164262142Y-96247857D01*
X164262142Y-96533571D01*
X163940714Y-95819285D02*
X163905000Y-95783571D01*
X163869285Y-95712142D01*
X163869285Y-95533571D01*
X163905000Y-95462142D01*
X163940714Y-95426428D01*
X164012142Y-95390714D01*
X164083571Y-95390714D01*
X164190714Y-95426428D01*
X164619285Y-95855000D01*
X164619285Y-95390714D01*
%TO.C,R3*%
X152985000Y-92389285D02*
X152735000Y-92032142D01*
X152556428Y-92389285D02*
X152556428Y-91639285D01*
X152842142Y-91639285D01*
X152913571Y-91675000D01*
X152949285Y-91710714D01*
X152985000Y-91782142D01*
X152985000Y-91889285D01*
X152949285Y-91960714D01*
X152913571Y-91996428D01*
X152842142Y-92032142D01*
X152556428Y-92032142D01*
X153235000Y-91639285D02*
X153699285Y-91639285D01*
X153449285Y-91925000D01*
X153556428Y-91925000D01*
X153627857Y-91960714D01*
X153663571Y-91996428D01*
X153699285Y-92067857D01*
X153699285Y-92246428D01*
X153663571Y-92317857D01*
X153627857Y-92353571D01*
X153556428Y-92389285D01*
X153342142Y-92389285D01*
X153270714Y-92353571D01*
X153235000Y-92317857D01*
%TO.C,R8*%
X164619285Y-104355000D02*
X164262142Y-104605000D01*
X164619285Y-104783571D02*
X163869285Y-104783571D01*
X163869285Y-104497857D01*
X163905000Y-104426428D01*
X163940714Y-104390714D01*
X164012142Y-104355000D01*
X164119285Y-104355000D01*
X164190714Y-104390714D01*
X164226428Y-104426428D01*
X164262142Y-104497857D01*
X164262142Y-104783571D01*
X164190714Y-103926428D02*
X164155000Y-103997857D01*
X164119285Y-104033571D01*
X164047857Y-104069285D01*
X164012142Y-104069285D01*
X163940714Y-104033571D01*
X163905000Y-103997857D01*
X163869285Y-103926428D01*
X163869285Y-103783571D01*
X163905000Y-103712142D01*
X163940714Y-103676428D01*
X164012142Y-103640714D01*
X164047857Y-103640714D01*
X164119285Y-103676428D01*
X164155000Y-103712142D01*
X164190714Y-103783571D01*
X164190714Y-103926428D01*
X164226428Y-103997857D01*
X164262142Y-104033571D01*
X164333571Y-104069285D01*
X164476428Y-104069285D01*
X164547857Y-104033571D01*
X164583571Y-103997857D01*
X164619285Y-103926428D01*
X164619285Y-103783571D01*
X164583571Y-103712142D01*
X164547857Y-103676428D01*
X164476428Y-103640714D01*
X164333571Y-103640714D01*
X164262142Y-103676428D01*
X164226428Y-103712142D01*
X164190714Y-103783571D01*
%TO.C,R9*%
X144619285Y-94375000D02*
X144262142Y-94625000D01*
X144619285Y-94803571D02*
X143869285Y-94803571D01*
X143869285Y-94517857D01*
X143905000Y-94446428D01*
X143940714Y-94410714D01*
X144012142Y-94375000D01*
X144119285Y-94375000D01*
X144190714Y-94410714D01*
X144226428Y-94446428D01*
X144262142Y-94517857D01*
X144262142Y-94803571D01*
X144619285Y-94017857D02*
X144619285Y-93875000D01*
X144583571Y-93803571D01*
X144547857Y-93767857D01*
X144440714Y-93696428D01*
X144297857Y-93660714D01*
X144012142Y-93660714D01*
X143940714Y-93696428D01*
X143905000Y-93732142D01*
X143869285Y-93803571D01*
X143869285Y-93946428D01*
X143905000Y-94017857D01*
X143940714Y-94053571D01*
X144012142Y-94089285D01*
X144190714Y-94089285D01*
X144262142Y-94053571D01*
X144297857Y-94017857D01*
X144333571Y-93946428D01*
X144333571Y-93803571D01*
X144297857Y-93732142D01*
X144262142Y-93696428D01*
X144190714Y-93660714D01*
%TO.C,R10*%
X144609285Y-98162142D02*
X144252142Y-98412142D01*
X144609285Y-98590714D02*
X143859285Y-98590714D01*
X143859285Y-98305000D01*
X143895000Y-98233571D01*
X143930714Y-98197857D01*
X144002142Y-98162142D01*
X144109285Y-98162142D01*
X144180714Y-98197857D01*
X144216428Y-98233571D01*
X144252142Y-98305000D01*
X144252142Y-98590714D01*
X144609285Y-97447857D02*
X144609285Y-97876428D01*
X144609285Y-97662142D02*
X143859285Y-97662142D01*
X143966428Y-97733571D01*
X144037857Y-97805000D01*
X144073571Y-97876428D01*
X143859285Y-96983571D02*
X143859285Y-96912142D01*
X143895000Y-96840714D01*
X143930714Y-96805000D01*
X144002142Y-96769285D01*
X144145000Y-96733571D01*
X144323571Y-96733571D01*
X144466428Y-96769285D01*
X144537857Y-96805000D01*
X144573571Y-96840714D01*
X144609285Y-96912142D01*
X144609285Y-96983571D01*
X144573571Y-97055000D01*
X144537857Y-97090714D01*
X144466428Y-97126428D01*
X144323571Y-97162142D01*
X144145000Y-97162142D01*
X144002142Y-97126428D01*
X143930714Y-97090714D01*
X143895000Y-97055000D01*
X143859285Y-96983571D01*
%TO.C,R11*%
X148297857Y-99039285D02*
X148047857Y-98682142D01*
X147869285Y-99039285D02*
X147869285Y-98289285D01*
X148155000Y-98289285D01*
X148226428Y-98325000D01*
X148262142Y-98360714D01*
X148297857Y-98432142D01*
X148297857Y-98539285D01*
X148262142Y-98610714D01*
X148226428Y-98646428D01*
X148155000Y-98682142D01*
X147869285Y-98682142D01*
X149012142Y-99039285D02*
X148583571Y-99039285D01*
X148797857Y-99039285D02*
X148797857Y-98289285D01*
X148726428Y-98396428D01*
X148655000Y-98467857D01*
X148583571Y-98503571D01*
X149726428Y-99039285D02*
X149297857Y-99039285D01*
X149512142Y-99039285D02*
X149512142Y-98289285D01*
X149440714Y-98396428D01*
X149369285Y-98467857D01*
X149297857Y-98503571D01*
%TO.C,R12*%
X164639285Y-106402142D02*
X164282142Y-106652142D01*
X164639285Y-106830714D02*
X163889285Y-106830714D01*
X163889285Y-106545000D01*
X163925000Y-106473571D01*
X163960714Y-106437857D01*
X164032142Y-106402142D01*
X164139285Y-106402142D01*
X164210714Y-106437857D01*
X164246428Y-106473571D01*
X164282142Y-106545000D01*
X164282142Y-106830714D01*
X164639285Y-105687857D02*
X164639285Y-106116428D01*
X164639285Y-105902142D02*
X163889285Y-105902142D01*
X163996428Y-105973571D01*
X164067857Y-106045000D01*
X164103571Y-106116428D01*
X163960714Y-105402142D02*
X163925000Y-105366428D01*
X163889285Y-105295000D01*
X163889285Y-105116428D01*
X163925000Y-105045000D01*
X163960714Y-105009285D01*
X164032142Y-104973571D01*
X164103571Y-104973571D01*
X164210714Y-105009285D01*
X164639285Y-105437857D01*
X164639285Y-104973571D01*
%TO.C,R14*%
X159187857Y-109309285D02*
X158937857Y-108952142D01*
X158759285Y-109309285D02*
X158759285Y-108559285D01*
X159045000Y-108559285D01*
X159116428Y-108595000D01*
X159152142Y-108630714D01*
X159187857Y-108702142D01*
X159187857Y-108809285D01*
X159152142Y-108880714D01*
X159116428Y-108916428D01*
X159045000Y-108952142D01*
X158759285Y-108952142D01*
X159902142Y-109309285D02*
X159473571Y-109309285D01*
X159687857Y-109309285D02*
X159687857Y-108559285D01*
X159616428Y-108666428D01*
X159545000Y-108737857D01*
X159473571Y-108773571D01*
X160545000Y-108809285D02*
X160545000Y-109309285D01*
X160366428Y-108523571D02*
X160187857Y-109059285D01*
X160652142Y-109059285D01*
%TO.C,R15*%
X144569285Y-92402142D02*
X144212142Y-92652142D01*
X144569285Y-92830714D02*
X143819285Y-92830714D01*
X143819285Y-92545000D01*
X143855000Y-92473571D01*
X143890714Y-92437857D01*
X143962142Y-92402142D01*
X144069285Y-92402142D01*
X144140714Y-92437857D01*
X144176428Y-92473571D01*
X144212142Y-92545000D01*
X144212142Y-92830714D01*
X144569285Y-91687857D02*
X144569285Y-92116428D01*
X144569285Y-91902142D02*
X143819285Y-91902142D01*
X143926428Y-91973571D01*
X143997857Y-92045000D01*
X144033571Y-92116428D01*
X143819285Y-91009285D02*
X143819285Y-91366428D01*
X144176428Y-91402142D01*
X144140714Y-91366428D01*
X144105000Y-91295000D01*
X144105000Y-91116428D01*
X144140714Y-91045000D01*
X144176428Y-91009285D01*
X144247857Y-90973571D01*
X144426428Y-90973571D01*
X144497857Y-91009285D01*
X144533571Y-91045000D01*
X144569285Y-91116428D01*
X144569285Y-91295000D01*
X144533571Y-91366428D01*
X144497857Y-91402142D01*
%TO.C,R16*%
X148267857Y-91369285D02*
X148017857Y-91012142D01*
X147839285Y-91369285D02*
X147839285Y-90619285D01*
X148125000Y-90619285D01*
X148196428Y-90655000D01*
X148232142Y-90690714D01*
X148267857Y-90762142D01*
X148267857Y-90869285D01*
X148232142Y-90940714D01*
X148196428Y-90976428D01*
X148125000Y-91012142D01*
X147839285Y-91012142D01*
X148982142Y-91369285D02*
X148553571Y-91369285D01*
X148767857Y-91369285D02*
X148767857Y-90619285D01*
X148696428Y-90726428D01*
X148625000Y-90797857D01*
X148553571Y-90833571D01*
X149625000Y-90619285D02*
X149482142Y-90619285D01*
X149410714Y-90655000D01*
X149375000Y-90690714D01*
X149303571Y-90797857D01*
X149267857Y-90940714D01*
X149267857Y-91226428D01*
X149303571Y-91297857D01*
X149339285Y-91333571D01*
X149410714Y-91369285D01*
X149553571Y-91369285D01*
X149625000Y-91333571D01*
X149660714Y-91297857D01*
X149696428Y-91226428D01*
X149696428Y-91047857D01*
X149660714Y-90976428D01*
X149625000Y-90940714D01*
X149553571Y-90905000D01*
X149410714Y-90905000D01*
X149339285Y-90940714D01*
X149303571Y-90976428D01*
X149267857Y-91047857D01*
%TO.C,R17*%
X145837857Y-107339285D02*
X145587857Y-106982142D01*
X145409285Y-107339285D02*
X145409285Y-106589285D01*
X145695000Y-106589285D01*
X145766428Y-106625000D01*
X145802142Y-106660714D01*
X145837857Y-106732142D01*
X145837857Y-106839285D01*
X145802142Y-106910714D01*
X145766428Y-106946428D01*
X145695000Y-106982142D01*
X145409285Y-106982142D01*
X146552142Y-107339285D02*
X146123571Y-107339285D01*
X146337857Y-107339285D02*
X146337857Y-106589285D01*
X146266428Y-106696428D01*
X146195000Y-106767857D01*
X146123571Y-106803571D01*
X146802142Y-106589285D02*
X147302142Y-106589285D01*
X146980714Y-107339285D01*
%TO.C,R18*%
X145847857Y-103389285D02*
X145597857Y-103032142D01*
X145419285Y-103389285D02*
X145419285Y-102639285D01*
X145705000Y-102639285D01*
X145776428Y-102675000D01*
X145812142Y-102710714D01*
X145847857Y-102782142D01*
X145847857Y-102889285D01*
X145812142Y-102960714D01*
X145776428Y-102996428D01*
X145705000Y-103032142D01*
X145419285Y-103032142D01*
X146562142Y-103389285D02*
X146133571Y-103389285D01*
X146347857Y-103389285D02*
X146347857Y-102639285D01*
X146276428Y-102746428D01*
X146205000Y-102817857D01*
X146133571Y-102853571D01*
X146990714Y-102960714D02*
X146919285Y-102925000D01*
X146883571Y-102889285D01*
X146847857Y-102817857D01*
X146847857Y-102782142D01*
X146883571Y-102710714D01*
X146919285Y-102675000D01*
X146990714Y-102639285D01*
X147133571Y-102639285D01*
X147205000Y-102675000D01*
X147240714Y-102710714D01*
X147276428Y-102782142D01*
X147276428Y-102817857D01*
X147240714Y-102889285D01*
X147205000Y-102925000D01*
X147133571Y-102960714D01*
X146990714Y-102960714D01*
X146919285Y-102996428D01*
X146883571Y-103032142D01*
X146847857Y-103103571D01*
X146847857Y-103246428D01*
X146883571Y-103317857D01*
X146919285Y-103353571D01*
X146990714Y-103389285D01*
X147133571Y-103389285D01*
X147205000Y-103353571D01*
X147240714Y-103317857D01*
X147276428Y-103246428D01*
X147276428Y-103103571D01*
X147240714Y-103032142D01*
X147205000Y-102996428D01*
X147133571Y-102960714D01*
%TO.C,D11*%
X147169285Y-100689285D02*
X147169285Y-99939285D01*
X147347857Y-99939285D01*
X147455000Y-99975000D01*
X147526428Y-100046428D01*
X147562142Y-100117857D01*
X147597857Y-100260714D01*
X147597857Y-100367857D01*
X147562142Y-100510714D01*
X147526428Y-100582142D01*
X147455000Y-100653571D01*
X147347857Y-100689285D01*
X147169285Y-100689285D01*
X148312142Y-100689285D02*
X147883571Y-100689285D01*
X148097857Y-100689285D02*
X148097857Y-99939285D01*
X148026428Y-100046428D01*
X147955000Y-100117857D01*
X147883571Y-100153571D01*
X149026428Y-100689285D02*
X148597857Y-100689285D01*
X148812142Y-100689285D02*
X148812142Y-99939285D01*
X148740714Y-100046428D01*
X148669285Y-100117857D01*
X148597857Y-100153571D01*
%TO.C,J5*%
X144890000Y-108029285D02*
X144890000Y-108565000D01*
X144854285Y-108672142D01*
X144782857Y-108743571D01*
X144675714Y-108779285D01*
X144604285Y-108779285D01*
X145604285Y-108029285D02*
X145247142Y-108029285D01*
X145211428Y-108386428D01*
X145247142Y-108350714D01*
X145318571Y-108315000D01*
X145497142Y-108315000D01*
X145568571Y-108350714D01*
X145604285Y-108386428D01*
X145640000Y-108457857D01*
X145640000Y-108636428D01*
X145604285Y-108707857D01*
X145568571Y-108743571D01*
X145497142Y-108779285D01*
X145318571Y-108779285D01*
X145247142Y-108743571D01*
X145211428Y-108707857D01*
%TO.C,R4*%
X148075000Y-101999285D02*
X147825000Y-101642142D01*
X147646428Y-101999285D02*
X147646428Y-101249285D01*
X147932142Y-101249285D01*
X148003571Y-101285000D01*
X148039285Y-101320714D01*
X148075000Y-101392142D01*
X148075000Y-101499285D01*
X148039285Y-101570714D01*
X148003571Y-101606428D01*
X147932142Y-101642142D01*
X147646428Y-101642142D01*
X148717857Y-101499285D02*
X148717857Y-101999285D01*
X148539285Y-101213571D02*
X148360714Y-101749285D01*
X148825000Y-101749285D01*
%TO.C,D12*%
X154279285Y-103120714D02*
X153529285Y-103120714D01*
X153529285Y-102942142D01*
X153565000Y-102835000D01*
X153636428Y-102763571D01*
X153707857Y-102727857D01*
X153850714Y-102692142D01*
X153957857Y-102692142D01*
X154100714Y-102727857D01*
X154172142Y-102763571D01*
X154243571Y-102835000D01*
X154279285Y-102942142D01*
X154279285Y-103120714D01*
X154279285Y-101977857D02*
X154279285Y-102406428D01*
X154279285Y-102192142D02*
X153529285Y-102192142D01*
X153636428Y-102263571D01*
X153707857Y-102335000D01*
X153743571Y-102406428D01*
X153600714Y-101692142D02*
X153565000Y-101656428D01*
X153529285Y-101585000D01*
X153529285Y-101406428D01*
X153565000Y-101335000D01*
X153600714Y-101299285D01*
X153672142Y-101263571D01*
X153743571Y-101263571D01*
X153850714Y-101299285D01*
X154279285Y-101727857D01*
X154279285Y-101263571D01*
%TO.C,R5*%
X155329285Y-102725000D02*
X154972142Y-102975000D01*
X155329285Y-103153571D02*
X154579285Y-103153571D01*
X154579285Y-102867857D01*
X154615000Y-102796428D01*
X154650714Y-102760714D01*
X154722142Y-102725000D01*
X154829285Y-102725000D01*
X154900714Y-102760714D01*
X154936428Y-102796428D01*
X154972142Y-102867857D01*
X154972142Y-103153571D01*
X154579285Y-102046428D02*
X154579285Y-102403571D01*
X154936428Y-102439285D01*
X154900714Y-102403571D01*
X154865000Y-102332142D01*
X154865000Y-102153571D01*
X154900714Y-102082142D01*
X154936428Y-102046428D01*
X155007857Y-102010714D01*
X155186428Y-102010714D01*
X155257857Y-102046428D01*
X155293571Y-102082142D01*
X155329285Y-102153571D01*
X155329285Y-102332142D01*
X155293571Y-102403571D01*
X155257857Y-102439285D01*
%TD*%
M02*
