%TF.GenerationSoftware,KiCad,Pcbnew,5.1.9-73d0e3b20d~88~ubuntu20.04.1*%
%TF.CreationDate,2021-04-10T19:31:35+02:00*%
%TF.ProjectId,wally,77616c6c-792e-46b6-9963-61645f706362,v1.00*%
%TF.SameCoordinates,Original*%
%TF.FileFunction,Soldermask,Top*%
%TF.FilePolarity,Negative*%
%FSLAX46Y46*%
G04 Gerber Fmt 4.6, Leading zero omitted, Abs format (unit mm)*
G04 Created by KiCad (PCBNEW 5.1.9-73d0e3b20d~88~ubuntu20.04.1) date 2021-04-10 19:31:35*
%MOMM*%
%LPD*%
G01*
G04 APERTURE LIST*
%ADD10R,1.060000X0.650000*%
%ADD11O,1.600000X1.000000*%
%ADD12C,0.650000*%
%ADD13O,2.100000X1.000000*%
%ADD14R,1.450000X0.300000*%
%ADD15R,1.450000X0.600000*%
%ADD16C,1.950000*%
%ADD17R,0.300000X1.900000*%
%ADD18R,0.800000X0.900000*%
%ADD19R,0.900000X0.800000*%
%ADD20R,0.650000X1.060000*%
%ADD21R,1.500000X2.000000*%
%ADD22O,1.700000X1.700000*%
%ADD23R,1.700000X1.700000*%
G04 APERTURE END LIST*
D10*
%TO.C,U3*%
X165500000Y-100000000D03*
X165500000Y-99050000D03*
X165500000Y-100950000D03*
X163300000Y-100950000D03*
X163300000Y-100000000D03*
X163300000Y-99050000D03*
%TD*%
D11*
%TO.C,J1*%
X172650000Y-95680000D03*
D12*
X169000000Y-97110000D03*
D11*
X172650000Y-104320000D03*
D12*
X169000000Y-102890000D03*
D13*
X168470000Y-104320000D03*
X168470000Y-95680000D03*
D14*
X167555000Y-100250000D03*
X167555000Y-98250000D03*
X167555000Y-98750000D03*
X167555000Y-99250000D03*
X167555000Y-99750000D03*
X167555000Y-100750000D03*
X167555000Y-101250000D03*
X167555000Y-101750000D03*
D15*
X167555000Y-96750000D03*
X167555000Y-97550000D03*
X167555000Y-102450000D03*
X167555000Y-103250000D03*
X167555000Y-103250000D03*
X167555000Y-102450000D03*
X167555000Y-97550000D03*
X167555000Y-96750000D03*
%TD*%
D16*
%TO.C,J2*%
X141325000Y-106250000D03*
X126825000Y-106250000D03*
X141925000Y-111150000D03*
X126225000Y-111150000D03*
%TD*%
D17*
%TO.C,J3*%
X129325000Y-94750000D03*
X129825000Y-94750000D03*
X130325000Y-94750000D03*
X130825000Y-94750000D03*
X131325000Y-94750000D03*
X131825000Y-94750000D03*
X132325000Y-94750000D03*
X132825000Y-94750000D03*
X133325000Y-94750000D03*
X133825000Y-94750000D03*
X134325000Y-94750000D03*
X134825000Y-94750000D03*
X135325000Y-94750000D03*
X135825000Y-94750000D03*
X136325000Y-94750000D03*
X136825000Y-94750000D03*
X137325000Y-94750000D03*
X137825000Y-94750000D03*
X138325000Y-94750000D03*
D16*
X141325000Y-93750000D03*
X126825000Y-93750000D03*
X141925000Y-88850000D03*
X126225000Y-88850000D03*
%TD*%
%TO.C,C2*%
G36*
G01*
X153640000Y-102205000D02*
X153140000Y-102205000D01*
G75*
G02*
X152915000Y-101980000I0J225000D01*
G01*
X152915000Y-101530000D01*
G75*
G02*
X153140000Y-101305000I225000J0D01*
G01*
X153640000Y-101305000D01*
G75*
G02*
X153865000Y-101530000I0J-225000D01*
G01*
X153865000Y-101980000D01*
G75*
G02*
X153640000Y-102205000I-225000J0D01*
G01*
G37*
G36*
G01*
X153640000Y-100655000D02*
X153140000Y-100655000D01*
G75*
G02*
X152915000Y-100430000I0J225000D01*
G01*
X152915000Y-99980000D01*
G75*
G02*
X153140000Y-99755000I225000J0D01*
G01*
X153640000Y-99755000D01*
G75*
G02*
X153865000Y-99980000I0J-225000D01*
G01*
X153865000Y-100430000D01*
G75*
G02*
X153640000Y-100655000I-225000J0D01*
G01*
G37*
%TD*%
%TO.C,C1*%
G36*
G01*
X153140000Y-98305000D02*
X153640000Y-98305000D01*
G75*
G02*
X153865000Y-98530000I0J-225000D01*
G01*
X153865000Y-98980000D01*
G75*
G02*
X153640000Y-99205000I-225000J0D01*
G01*
X153140000Y-99205000D01*
G75*
G02*
X152915000Y-98980000I0J225000D01*
G01*
X152915000Y-98530000D01*
G75*
G02*
X153140000Y-98305000I225000J0D01*
G01*
G37*
G36*
G01*
X153140000Y-96755000D02*
X153640000Y-96755000D01*
G75*
G02*
X153865000Y-96980000I0J-225000D01*
G01*
X153865000Y-97430000D01*
G75*
G02*
X153640000Y-97655000I-225000J0D01*
G01*
X153140000Y-97655000D01*
G75*
G02*
X152915000Y-97430000I0J225000D01*
G01*
X152915000Y-96980000D01*
G75*
G02*
X153140000Y-96755000I225000J0D01*
G01*
G37*
%TD*%
%TO.C,R3*%
G36*
G01*
X157725000Y-109225000D02*
X158275000Y-109225000D01*
G75*
G02*
X158475000Y-109425000I0J-200000D01*
G01*
X158475000Y-109825000D01*
G75*
G02*
X158275000Y-110025000I-200000J0D01*
G01*
X157725000Y-110025000D01*
G75*
G02*
X157525000Y-109825000I0J200000D01*
G01*
X157525000Y-109425000D01*
G75*
G02*
X157725000Y-109225000I200000J0D01*
G01*
G37*
G36*
G01*
X157725000Y-107575000D02*
X158275000Y-107575000D01*
G75*
G02*
X158475000Y-107775000I0J-200000D01*
G01*
X158475000Y-108175000D01*
G75*
G02*
X158275000Y-108375000I-200000J0D01*
G01*
X157725000Y-108375000D01*
G75*
G02*
X157525000Y-108175000I0J200000D01*
G01*
X157525000Y-107775000D01*
G75*
G02*
X157725000Y-107575000I200000J0D01*
G01*
G37*
%TD*%
%TO.C,R8*%
G36*
G01*
X147775000Y-94775000D02*
X147775000Y-94225000D01*
G75*
G02*
X147975000Y-94025000I200000J0D01*
G01*
X148375000Y-94025000D01*
G75*
G02*
X148575000Y-94225000I0J-200000D01*
G01*
X148575000Y-94775000D01*
G75*
G02*
X148375000Y-94975000I-200000J0D01*
G01*
X147975000Y-94975000D01*
G75*
G02*
X147775000Y-94775000I0J200000D01*
G01*
G37*
G36*
G01*
X149425000Y-94775000D02*
X149425000Y-94225000D01*
G75*
G02*
X149625000Y-94025000I200000J0D01*
G01*
X150025000Y-94025000D01*
G75*
G02*
X150225000Y-94225000I0J-200000D01*
G01*
X150225000Y-94775000D01*
G75*
G02*
X150025000Y-94975000I-200000J0D01*
G01*
X149625000Y-94975000D01*
G75*
G02*
X149425000Y-94775000I0J200000D01*
G01*
G37*
%TD*%
%TO.C,R14*%
G36*
G01*
X143740000Y-107475000D02*
X143740000Y-106925000D01*
G75*
G02*
X143940000Y-106725000I200000J0D01*
G01*
X144340000Y-106725000D01*
G75*
G02*
X144540000Y-106925000I0J-200000D01*
G01*
X144540000Y-107475000D01*
G75*
G02*
X144340000Y-107675000I-200000J0D01*
G01*
X143940000Y-107675000D01*
G75*
G02*
X143740000Y-107475000I0J200000D01*
G01*
G37*
G36*
G01*
X145390000Y-107475000D02*
X145390000Y-106925000D01*
G75*
G02*
X145590000Y-106725000I200000J0D01*
G01*
X145990000Y-106725000D01*
G75*
G02*
X146190000Y-106925000I0J-200000D01*
G01*
X146190000Y-107475000D01*
G75*
G02*
X145990000Y-107675000I-200000J0D01*
G01*
X145590000Y-107675000D01*
G75*
G02*
X145390000Y-107475000I0J200000D01*
G01*
G37*
%TD*%
D18*
%TO.C,Q4*%
X144050000Y-105700000D03*
X145950000Y-105700000D03*
X145000000Y-103700000D03*
%TD*%
%TO.C,Q3*%
X149460000Y-111650000D03*
X148510000Y-109650000D03*
X150410000Y-109650000D03*
%TD*%
%TO.C,C3*%
G36*
G01*
X158325000Y-104500000D02*
X158325000Y-104000000D01*
G75*
G02*
X158550000Y-103775000I225000J0D01*
G01*
X159000000Y-103775000D01*
G75*
G02*
X159225000Y-104000000I0J-225000D01*
G01*
X159225000Y-104500000D01*
G75*
G02*
X159000000Y-104725000I-225000J0D01*
G01*
X158550000Y-104725000D01*
G75*
G02*
X158325000Y-104500000I0J225000D01*
G01*
G37*
G36*
G01*
X156775000Y-104500000D02*
X156775000Y-104000000D01*
G75*
G02*
X157000000Y-103775000I225000J0D01*
G01*
X157450000Y-103775000D01*
G75*
G02*
X157675000Y-104000000I0J-225000D01*
G01*
X157675000Y-104500000D01*
G75*
G02*
X157450000Y-104725000I-225000J0D01*
G01*
X157000000Y-104725000D01*
G75*
G02*
X156775000Y-104500000I0J225000D01*
G01*
G37*
%TD*%
%TO.C,C4*%
G36*
G01*
X169455000Y-91170000D02*
X170405000Y-91170000D01*
G75*
G02*
X170655000Y-91420000I0J-250000D01*
G01*
X170655000Y-91920000D01*
G75*
G02*
X170405000Y-92170000I-250000J0D01*
G01*
X169455000Y-92170000D01*
G75*
G02*
X169205000Y-91920000I0J250000D01*
G01*
X169205000Y-91420000D01*
G75*
G02*
X169455000Y-91170000I250000J0D01*
G01*
G37*
G36*
G01*
X169455000Y-89270000D02*
X170405000Y-89270000D01*
G75*
G02*
X170655000Y-89520000I0J-250000D01*
G01*
X170655000Y-90020000D01*
G75*
G02*
X170405000Y-90270000I-250000J0D01*
G01*
X169455000Y-90270000D01*
G75*
G02*
X169205000Y-90020000I0J250000D01*
G01*
X169205000Y-89520000D01*
G75*
G02*
X169455000Y-89270000I250000J0D01*
G01*
G37*
%TD*%
%TO.C,C5*%
G36*
G01*
X165005000Y-92170000D02*
X164055000Y-92170000D01*
G75*
G02*
X163805000Y-91920000I0J250000D01*
G01*
X163805000Y-91420000D01*
G75*
G02*
X164055000Y-91170000I250000J0D01*
G01*
X165005000Y-91170000D01*
G75*
G02*
X165255000Y-91420000I0J-250000D01*
G01*
X165255000Y-91920000D01*
G75*
G02*
X165005000Y-92170000I-250000J0D01*
G01*
G37*
G36*
G01*
X165005000Y-90270000D02*
X164055000Y-90270000D01*
G75*
G02*
X163805000Y-90020000I0J250000D01*
G01*
X163805000Y-89520000D01*
G75*
G02*
X164055000Y-89270000I250000J0D01*
G01*
X165005000Y-89270000D01*
G75*
G02*
X165255000Y-89520000I0J-250000D01*
G01*
X165255000Y-90020000D01*
G75*
G02*
X165005000Y-90270000I-250000J0D01*
G01*
G37*
%TD*%
%TO.C,Q1*%
X149000000Y-98000000D03*
X148050000Y-96000000D03*
X149950000Y-96000000D03*
%TD*%
%TO.C,Q2*%
X145950000Y-96000000D03*
X144050000Y-96000000D03*
X145000000Y-98000000D03*
%TD*%
%TO.C,R1*%
G36*
G01*
X165635000Y-104515000D02*
X165085000Y-104515000D01*
G75*
G02*
X164885000Y-104315000I0J200000D01*
G01*
X164885000Y-103915000D01*
G75*
G02*
X165085000Y-103715000I200000J0D01*
G01*
X165635000Y-103715000D01*
G75*
G02*
X165835000Y-103915000I0J-200000D01*
G01*
X165835000Y-104315000D01*
G75*
G02*
X165635000Y-104515000I-200000J0D01*
G01*
G37*
G36*
G01*
X165635000Y-102865000D02*
X165085000Y-102865000D01*
G75*
G02*
X164885000Y-102665000I0J200000D01*
G01*
X164885000Y-102265000D01*
G75*
G02*
X165085000Y-102065000I200000J0D01*
G01*
X165635000Y-102065000D01*
G75*
G02*
X165835000Y-102265000I0J-200000D01*
G01*
X165835000Y-102665000D01*
G75*
G02*
X165635000Y-102865000I-200000J0D01*
G01*
G37*
%TD*%
%TO.C,R2*%
G36*
G01*
X165075000Y-97125000D02*
X165625000Y-97125000D01*
G75*
G02*
X165825000Y-97325000I0J-200000D01*
G01*
X165825000Y-97725000D01*
G75*
G02*
X165625000Y-97925000I-200000J0D01*
G01*
X165075000Y-97925000D01*
G75*
G02*
X164875000Y-97725000I0J200000D01*
G01*
X164875000Y-97325000D01*
G75*
G02*
X165075000Y-97125000I200000J0D01*
G01*
G37*
G36*
G01*
X165075000Y-95475000D02*
X165625000Y-95475000D01*
G75*
G02*
X165825000Y-95675000I0J-200000D01*
G01*
X165825000Y-96075000D01*
G75*
G02*
X165625000Y-96275000I-200000J0D01*
G01*
X165075000Y-96275000D01*
G75*
G02*
X164875000Y-96075000I0J200000D01*
G01*
X164875000Y-95675000D01*
G75*
G02*
X165075000Y-95475000I200000J0D01*
G01*
G37*
%TD*%
%TO.C,R4*%
G36*
G01*
X149425000Y-103625000D02*
X149975000Y-103625000D01*
G75*
G02*
X150175000Y-103825000I0J-200000D01*
G01*
X150175000Y-104225000D01*
G75*
G02*
X149975000Y-104425000I-200000J0D01*
G01*
X149425000Y-104425000D01*
G75*
G02*
X149225000Y-104225000I0J200000D01*
G01*
X149225000Y-103825000D01*
G75*
G02*
X149425000Y-103625000I200000J0D01*
G01*
G37*
G36*
G01*
X149425000Y-101975000D02*
X149975000Y-101975000D01*
G75*
G02*
X150175000Y-102175000I0J-200000D01*
G01*
X150175000Y-102575000D01*
G75*
G02*
X149975000Y-102775000I-200000J0D01*
G01*
X149425000Y-102775000D01*
G75*
G02*
X149225000Y-102575000I0J200000D01*
G01*
X149225000Y-102175000D01*
G75*
G02*
X149425000Y-101975000I200000J0D01*
G01*
G37*
%TD*%
%TO.C,R5*%
G36*
G01*
X147925000Y-103625000D02*
X148475000Y-103625000D01*
G75*
G02*
X148675000Y-103825000I0J-200000D01*
G01*
X148675000Y-104225000D01*
G75*
G02*
X148475000Y-104425000I-200000J0D01*
G01*
X147925000Y-104425000D01*
G75*
G02*
X147725000Y-104225000I0J200000D01*
G01*
X147725000Y-103825000D01*
G75*
G02*
X147925000Y-103625000I200000J0D01*
G01*
G37*
G36*
G01*
X147925000Y-101975000D02*
X148475000Y-101975000D01*
G75*
G02*
X148675000Y-102175000I0J-200000D01*
G01*
X148675000Y-102575000D01*
G75*
G02*
X148475000Y-102775000I-200000J0D01*
G01*
X147925000Y-102775000D01*
G75*
G02*
X147725000Y-102575000I0J200000D01*
G01*
X147725000Y-102175000D01*
G75*
G02*
X147925000Y-101975000I200000J0D01*
G01*
G37*
%TD*%
%TO.C,R6*%
G36*
G01*
X149425000Y-98975000D02*
X149975000Y-98975000D01*
G75*
G02*
X150175000Y-99175000I0J-200000D01*
G01*
X150175000Y-99575000D01*
G75*
G02*
X149975000Y-99775000I-200000J0D01*
G01*
X149425000Y-99775000D01*
G75*
G02*
X149225000Y-99575000I0J200000D01*
G01*
X149225000Y-99175000D01*
G75*
G02*
X149425000Y-98975000I200000J0D01*
G01*
G37*
G36*
G01*
X149425000Y-100625000D02*
X149975000Y-100625000D01*
G75*
G02*
X150175000Y-100825000I0J-200000D01*
G01*
X150175000Y-101225000D01*
G75*
G02*
X149975000Y-101425000I-200000J0D01*
G01*
X149425000Y-101425000D01*
G75*
G02*
X149225000Y-101225000I0J200000D01*
G01*
X149225000Y-100825000D01*
G75*
G02*
X149425000Y-100625000I200000J0D01*
G01*
G37*
%TD*%
%TO.C,R7*%
G36*
G01*
X147925000Y-98975000D02*
X148475000Y-98975000D01*
G75*
G02*
X148675000Y-99175000I0J-200000D01*
G01*
X148675000Y-99575000D01*
G75*
G02*
X148475000Y-99775000I-200000J0D01*
G01*
X147925000Y-99775000D01*
G75*
G02*
X147725000Y-99575000I0J200000D01*
G01*
X147725000Y-99175000D01*
G75*
G02*
X147925000Y-98975000I200000J0D01*
G01*
G37*
G36*
G01*
X147925000Y-100625000D02*
X148475000Y-100625000D01*
G75*
G02*
X148675000Y-100825000I0J-200000D01*
G01*
X148675000Y-101225000D01*
G75*
G02*
X148475000Y-101425000I-200000J0D01*
G01*
X147925000Y-101425000D01*
G75*
G02*
X147725000Y-101225000I0J200000D01*
G01*
X147725000Y-100825000D01*
G75*
G02*
X147925000Y-100625000I200000J0D01*
G01*
G37*
%TD*%
%TO.C,R9*%
G36*
G01*
X152235000Y-110225000D02*
X151685000Y-110225000D01*
G75*
G02*
X151485000Y-110025000I0J200000D01*
G01*
X151485000Y-109625000D01*
G75*
G02*
X151685000Y-109425000I200000J0D01*
G01*
X152235000Y-109425000D01*
G75*
G02*
X152435000Y-109625000I0J-200000D01*
G01*
X152435000Y-110025000D01*
G75*
G02*
X152235000Y-110225000I-200000J0D01*
G01*
G37*
G36*
G01*
X152235000Y-111875000D02*
X151685000Y-111875000D01*
G75*
G02*
X151485000Y-111675000I0J200000D01*
G01*
X151485000Y-111275000D01*
G75*
G02*
X151685000Y-111075000I200000J0D01*
G01*
X152235000Y-111075000D01*
G75*
G02*
X152435000Y-111275000I0J-200000D01*
G01*
X152435000Y-111675000D01*
G75*
G02*
X152235000Y-111875000I-200000J0D01*
G01*
G37*
%TD*%
%TO.C,R10*%
G36*
G01*
X145425000Y-99775000D02*
X145425000Y-99225000D01*
G75*
G02*
X145625000Y-99025000I200000J0D01*
G01*
X146025000Y-99025000D01*
G75*
G02*
X146225000Y-99225000I0J-200000D01*
G01*
X146225000Y-99775000D01*
G75*
G02*
X146025000Y-99975000I-200000J0D01*
G01*
X145625000Y-99975000D01*
G75*
G02*
X145425000Y-99775000I0J200000D01*
G01*
G37*
G36*
G01*
X143775000Y-99775000D02*
X143775000Y-99225000D01*
G75*
G02*
X143975000Y-99025000I200000J0D01*
G01*
X144375000Y-99025000D01*
G75*
G02*
X144575000Y-99225000I0J-200000D01*
G01*
X144575000Y-99775000D01*
G75*
G02*
X144375000Y-99975000I-200000J0D01*
G01*
X143975000Y-99975000D01*
G75*
G02*
X143775000Y-99775000I0J200000D01*
G01*
G37*
%TD*%
%TO.C,R11*%
G36*
G01*
X144575000Y-100725000D02*
X144575000Y-101275000D01*
G75*
G02*
X144375000Y-101475000I-200000J0D01*
G01*
X143975000Y-101475000D01*
G75*
G02*
X143775000Y-101275000I0J200000D01*
G01*
X143775000Y-100725000D01*
G75*
G02*
X143975000Y-100525000I200000J0D01*
G01*
X144375000Y-100525000D01*
G75*
G02*
X144575000Y-100725000I0J-200000D01*
G01*
G37*
G36*
G01*
X146225000Y-100725000D02*
X146225000Y-101275000D01*
G75*
G02*
X146025000Y-101475000I-200000J0D01*
G01*
X145625000Y-101475000D01*
G75*
G02*
X145425000Y-101275000I0J200000D01*
G01*
X145425000Y-100725000D01*
G75*
G02*
X145625000Y-100525000I200000J0D01*
G01*
X146025000Y-100525000D01*
G75*
G02*
X146225000Y-100725000I0J-200000D01*
G01*
G37*
%TD*%
%TO.C,R12*%
G36*
G01*
X143775000Y-94775000D02*
X143775000Y-94225000D01*
G75*
G02*
X143975000Y-94025000I200000J0D01*
G01*
X144375000Y-94025000D01*
G75*
G02*
X144575000Y-94225000I0J-200000D01*
G01*
X144575000Y-94775000D01*
G75*
G02*
X144375000Y-94975000I-200000J0D01*
G01*
X143975000Y-94975000D01*
G75*
G02*
X143775000Y-94775000I0J200000D01*
G01*
G37*
G36*
G01*
X145425000Y-94775000D02*
X145425000Y-94225000D01*
G75*
G02*
X145625000Y-94025000I200000J0D01*
G01*
X146025000Y-94025000D01*
G75*
G02*
X146225000Y-94225000I0J-200000D01*
G01*
X146225000Y-94775000D01*
G75*
G02*
X146025000Y-94975000I-200000J0D01*
G01*
X145625000Y-94975000D01*
G75*
G02*
X145425000Y-94775000I0J200000D01*
G01*
G37*
%TD*%
%TO.C,R13*%
G36*
G01*
X146685000Y-109425000D02*
X147235000Y-109425000D01*
G75*
G02*
X147435000Y-109625000I0J-200000D01*
G01*
X147435000Y-110025000D01*
G75*
G02*
X147235000Y-110225000I-200000J0D01*
G01*
X146685000Y-110225000D01*
G75*
G02*
X146485000Y-110025000I0J200000D01*
G01*
X146485000Y-109625000D01*
G75*
G02*
X146685000Y-109425000I200000J0D01*
G01*
G37*
G36*
G01*
X146685000Y-111075000D02*
X147235000Y-111075000D01*
G75*
G02*
X147435000Y-111275000I0J-200000D01*
G01*
X147435000Y-111675000D01*
G75*
G02*
X147235000Y-111875000I-200000J0D01*
G01*
X146685000Y-111875000D01*
G75*
G02*
X146485000Y-111675000I0J200000D01*
G01*
X146485000Y-111275000D01*
G75*
G02*
X146685000Y-111075000I200000J0D01*
G01*
G37*
%TD*%
%TO.C,R15*%
G36*
G01*
X153185000Y-109425000D02*
X153735000Y-109425000D01*
G75*
G02*
X153935000Y-109625000I0J-200000D01*
G01*
X153935000Y-110025000D01*
G75*
G02*
X153735000Y-110225000I-200000J0D01*
G01*
X153185000Y-110225000D01*
G75*
G02*
X152985000Y-110025000I0J200000D01*
G01*
X152985000Y-109625000D01*
G75*
G02*
X153185000Y-109425000I200000J0D01*
G01*
G37*
G36*
G01*
X153185000Y-111075000D02*
X153735000Y-111075000D01*
G75*
G02*
X153935000Y-111275000I0J-200000D01*
G01*
X153935000Y-111675000D01*
G75*
G02*
X153735000Y-111875000I-200000J0D01*
G01*
X153185000Y-111875000D01*
G75*
G02*
X152985000Y-111675000I0J200000D01*
G01*
X152985000Y-111275000D01*
G75*
G02*
X153185000Y-111075000I200000J0D01*
G01*
G37*
%TD*%
%TO.C,R16*%
G36*
G01*
X155235000Y-110225000D02*
X154685000Y-110225000D01*
G75*
G02*
X154485000Y-110025000I0J200000D01*
G01*
X154485000Y-109625000D01*
G75*
G02*
X154685000Y-109425000I200000J0D01*
G01*
X155235000Y-109425000D01*
G75*
G02*
X155435000Y-109625000I0J-200000D01*
G01*
X155435000Y-110025000D01*
G75*
G02*
X155235000Y-110225000I-200000J0D01*
G01*
G37*
G36*
G01*
X155235000Y-111875000D02*
X154685000Y-111875000D01*
G75*
G02*
X154485000Y-111675000I0J200000D01*
G01*
X154485000Y-111275000D01*
G75*
G02*
X154685000Y-111075000I200000J0D01*
G01*
X155235000Y-111075000D01*
G75*
G02*
X155435000Y-111275000I0J-200000D01*
G01*
X155435000Y-111675000D01*
G75*
G02*
X155235000Y-111875000I-200000J0D01*
G01*
G37*
%TD*%
%TO.C,U1*%
G36*
G01*
X160125000Y-97175000D02*
X160125000Y-96975000D01*
G75*
G02*
X160225000Y-96875000I100000J0D01*
G01*
X161500000Y-96875000D01*
G75*
G02*
X161600000Y-96975000I0J-100000D01*
G01*
X161600000Y-97175000D01*
G75*
G02*
X161500000Y-97275000I-100000J0D01*
G01*
X160225000Y-97275000D01*
G75*
G02*
X160125000Y-97175000I0J100000D01*
G01*
G37*
G36*
G01*
X160125000Y-97825000D02*
X160125000Y-97625000D01*
G75*
G02*
X160225000Y-97525000I100000J0D01*
G01*
X161500000Y-97525000D01*
G75*
G02*
X161600000Y-97625000I0J-100000D01*
G01*
X161600000Y-97825000D01*
G75*
G02*
X161500000Y-97925000I-100000J0D01*
G01*
X160225000Y-97925000D01*
G75*
G02*
X160125000Y-97825000I0J100000D01*
G01*
G37*
G36*
G01*
X160125000Y-98475000D02*
X160125000Y-98275000D01*
G75*
G02*
X160225000Y-98175000I100000J0D01*
G01*
X161500000Y-98175000D01*
G75*
G02*
X161600000Y-98275000I0J-100000D01*
G01*
X161600000Y-98475000D01*
G75*
G02*
X161500000Y-98575000I-100000J0D01*
G01*
X160225000Y-98575000D01*
G75*
G02*
X160125000Y-98475000I0J100000D01*
G01*
G37*
G36*
G01*
X160125000Y-99125000D02*
X160125000Y-98925000D01*
G75*
G02*
X160225000Y-98825000I100000J0D01*
G01*
X161500000Y-98825000D01*
G75*
G02*
X161600000Y-98925000I0J-100000D01*
G01*
X161600000Y-99125000D01*
G75*
G02*
X161500000Y-99225000I-100000J0D01*
G01*
X160225000Y-99225000D01*
G75*
G02*
X160125000Y-99125000I0J100000D01*
G01*
G37*
G36*
G01*
X160125000Y-99775000D02*
X160125000Y-99575000D01*
G75*
G02*
X160225000Y-99475000I100000J0D01*
G01*
X161500000Y-99475000D01*
G75*
G02*
X161600000Y-99575000I0J-100000D01*
G01*
X161600000Y-99775000D01*
G75*
G02*
X161500000Y-99875000I-100000J0D01*
G01*
X160225000Y-99875000D01*
G75*
G02*
X160125000Y-99775000I0J100000D01*
G01*
G37*
G36*
G01*
X160125000Y-100425000D02*
X160125000Y-100225000D01*
G75*
G02*
X160225000Y-100125000I100000J0D01*
G01*
X161500000Y-100125000D01*
G75*
G02*
X161600000Y-100225000I0J-100000D01*
G01*
X161600000Y-100425000D01*
G75*
G02*
X161500000Y-100525000I-100000J0D01*
G01*
X160225000Y-100525000D01*
G75*
G02*
X160125000Y-100425000I0J100000D01*
G01*
G37*
G36*
G01*
X160125000Y-101075000D02*
X160125000Y-100875000D01*
G75*
G02*
X160225000Y-100775000I100000J0D01*
G01*
X161500000Y-100775000D01*
G75*
G02*
X161600000Y-100875000I0J-100000D01*
G01*
X161600000Y-101075000D01*
G75*
G02*
X161500000Y-101175000I-100000J0D01*
G01*
X160225000Y-101175000D01*
G75*
G02*
X160125000Y-101075000I0J100000D01*
G01*
G37*
G36*
G01*
X160125000Y-101725000D02*
X160125000Y-101525000D01*
G75*
G02*
X160225000Y-101425000I100000J0D01*
G01*
X161500000Y-101425000D01*
G75*
G02*
X161600000Y-101525000I0J-100000D01*
G01*
X161600000Y-101725000D01*
G75*
G02*
X161500000Y-101825000I-100000J0D01*
G01*
X160225000Y-101825000D01*
G75*
G02*
X160125000Y-101725000I0J100000D01*
G01*
G37*
G36*
G01*
X160125000Y-102375000D02*
X160125000Y-102175000D01*
G75*
G02*
X160225000Y-102075000I100000J0D01*
G01*
X161500000Y-102075000D01*
G75*
G02*
X161600000Y-102175000I0J-100000D01*
G01*
X161600000Y-102375000D01*
G75*
G02*
X161500000Y-102475000I-100000J0D01*
G01*
X160225000Y-102475000D01*
G75*
G02*
X160125000Y-102375000I0J100000D01*
G01*
G37*
G36*
G01*
X160125000Y-103025000D02*
X160125000Y-102825000D01*
G75*
G02*
X160225000Y-102725000I100000J0D01*
G01*
X161500000Y-102725000D01*
G75*
G02*
X161600000Y-102825000I0J-100000D01*
G01*
X161600000Y-103025000D01*
G75*
G02*
X161500000Y-103125000I-100000J0D01*
G01*
X160225000Y-103125000D01*
G75*
G02*
X160125000Y-103025000I0J100000D01*
G01*
G37*
G36*
G01*
X154400000Y-103025000D02*
X154400000Y-102825000D01*
G75*
G02*
X154500000Y-102725000I100000J0D01*
G01*
X155775000Y-102725000D01*
G75*
G02*
X155875000Y-102825000I0J-100000D01*
G01*
X155875000Y-103025000D01*
G75*
G02*
X155775000Y-103125000I-100000J0D01*
G01*
X154500000Y-103125000D01*
G75*
G02*
X154400000Y-103025000I0J100000D01*
G01*
G37*
G36*
G01*
X154400000Y-102375000D02*
X154400000Y-102175000D01*
G75*
G02*
X154500000Y-102075000I100000J0D01*
G01*
X155775000Y-102075000D01*
G75*
G02*
X155875000Y-102175000I0J-100000D01*
G01*
X155875000Y-102375000D01*
G75*
G02*
X155775000Y-102475000I-100000J0D01*
G01*
X154500000Y-102475000D01*
G75*
G02*
X154400000Y-102375000I0J100000D01*
G01*
G37*
G36*
G01*
X154400000Y-101725000D02*
X154400000Y-101525000D01*
G75*
G02*
X154500000Y-101425000I100000J0D01*
G01*
X155775000Y-101425000D01*
G75*
G02*
X155875000Y-101525000I0J-100000D01*
G01*
X155875000Y-101725000D01*
G75*
G02*
X155775000Y-101825000I-100000J0D01*
G01*
X154500000Y-101825000D01*
G75*
G02*
X154400000Y-101725000I0J100000D01*
G01*
G37*
G36*
G01*
X154400000Y-101075000D02*
X154400000Y-100875000D01*
G75*
G02*
X154500000Y-100775000I100000J0D01*
G01*
X155775000Y-100775000D01*
G75*
G02*
X155875000Y-100875000I0J-100000D01*
G01*
X155875000Y-101075000D01*
G75*
G02*
X155775000Y-101175000I-100000J0D01*
G01*
X154500000Y-101175000D01*
G75*
G02*
X154400000Y-101075000I0J100000D01*
G01*
G37*
G36*
G01*
X154400000Y-100425000D02*
X154400000Y-100225000D01*
G75*
G02*
X154500000Y-100125000I100000J0D01*
G01*
X155775000Y-100125000D01*
G75*
G02*
X155875000Y-100225000I0J-100000D01*
G01*
X155875000Y-100425000D01*
G75*
G02*
X155775000Y-100525000I-100000J0D01*
G01*
X154500000Y-100525000D01*
G75*
G02*
X154400000Y-100425000I0J100000D01*
G01*
G37*
G36*
G01*
X154400000Y-99775000D02*
X154400000Y-99575000D01*
G75*
G02*
X154500000Y-99475000I100000J0D01*
G01*
X155775000Y-99475000D01*
G75*
G02*
X155875000Y-99575000I0J-100000D01*
G01*
X155875000Y-99775000D01*
G75*
G02*
X155775000Y-99875000I-100000J0D01*
G01*
X154500000Y-99875000D01*
G75*
G02*
X154400000Y-99775000I0J100000D01*
G01*
G37*
G36*
G01*
X154400000Y-99125000D02*
X154400000Y-98925000D01*
G75*
G02*
X154500000Y-98825000I100000J0D01*
G01*
X155775000Y-98825000D01*
G75*
G02*
X155875000Y-98925000I0J-100000D01*
G01*
X155875000Y-99125000D01*
G75*
G02*
X155775000Y-99225000I-100000J0D01*
G01*
X154500000Y-99225000D01*
G75*
G02*
X154400000Y-99125000I0J100000D01*
G01*
G37*
G36*
G01*
X154400000Y-98475000D02*
X154400000Y-98275000D01*
G75*
G02*
X154500000Y-98175000I100000J0D01*
G01*
X155775000Y-98175000D01*
G75*
G02*
X155875000Y-98275000I0J-100000D01*
G01*
X155875000Y-98475000D01*
G75*
G02*
X155775000Y-98575000I-100000J0D01*
G01*
X154500000Y-98575000D01*
G75*
G02*
X154400000Y-98475000I0J100000D01*
G01*
G37*
G36*
G01*
X154400000Y-97825000D02*
X154400000Y-97625000D01*
G75*
G02*
X154500000Y-97525000I100000J0D01*
G01*
X155775000Y-97525000D01*
G75*
G02*
X155875000Y-97625000I0J-100000D01*
G01*
X155875000Y-97825000D01*
G75*
G02*
X155775000Y-97925000I-100000J0D01*
G01*
X154500000Y-97925000D01*
G75*
G02*
X154400000Y-97825000I0J100000D01*
G01*
G37*
G36*
G01*
X154400000Y-97175000D02*
X154400000Y-96975000D01*
G75*
G02*
X154500000Y-96875000I100000J0D01*
G01*
X155775000Y-96875000D01*
G75*
G02*
X155875000Y-96975000I0J-100000D01*
G01*
X155875000Y-97175000D01*
G75*
G02*
X155775000Y-97275000I-100000J0D01*
G01*
X154500000Y-97275000D01*
G75*
G02*
X154400000Y-97175000I0J100000D01*
G01*
G37*
%TD*%
D19*
%TO.C,U2*%
X168230000Y-90720000D03*
X166230000Y-91670000D03*
X166230000Y-89770000D03*
%TD*%
D20*
%TO.C,D1*%
X136825000Y-107900000D03*
X135875000Y-107900000D03*
X137775000Y-107900000D03*
X137775000Y-110100000D03*
X136825000Y-110100000D03*
X135875000Y-110100000D03*
%TD*%
%TO.C,D2*%
G36*
G01*
X164330000Y-113356250D02*
X164330000Y-112843750D01*
G75*
G02*
X164548750Y-112625000I218750J0D01*
G01*
X164986250Y-112625000D01*
G75*
G02*
X165205000Y-112843750I0J-218750D01*
G01*
X165205000Y-113356250D01*
G75*
G02*
X164986250Y-113575000I-218750J0D01*
G01*
X164548750Y-113575000D01*
G75*
G02*
X164330000Y-113356250I0J218750D01*
G01*
G37*
G36*
G01*
X162755000Y-113356250D02*
X162755000Y-112843750D01*
G75*
G02*
X162973750Y-112625000I218750J0D01*
G01*
X163411250Y-112625000D01*
G75*
G02*
X163630000Y-112843750I0J-218750D01*
G01*
X163630000Y-113356250D01*
G75*
G02*
X163411250Y-113575000I-218750J0D01*
G01*
X162973750Y-113575000D01*
G75*
G02*
X162755000Y-113356250I0J218750D01*
G01*
G37*
%TD*%
%TO.C,R17*%
G36*
G01*
X163555000Y-111315000D02*
X163555000Y-111865000D01*
G75*
G02*
X163355000Y-112065000I-200000J0D01*
G01*
X162955000Y-112065000D01*
G75*
G02*
X162755000Y-111865000I0J200000D01*
G01*
X162755000Y-111315000D01*
G75*
G02*
X162955000Y-111115000I200000J0D01*
G01*
X163355000Y-111115000D01*
G75*
G02*
X163555000Y-111315000I0J-200000D01*
G01*
G37*
G36*
G01*
X165205000Y-111315000D02*
X165205000Y-111865000D01*
G75*
G02*
X165005000Y-112065000I-200000J0D01*
G01*
X164605000Y-112065000D01*
G75*
G02*
X164405000Y-111865000I0J200000D01*
G01*
X164405000Y-111315000D01*
G75*
G02*
X164605000Y-111115000I200000J0D01*
G01*
X165005000Y-111115000D01*
G75*
G02*
X165205000Y-111315000I0J-200000D01*
G01*
G37*
%TD*%
D21*
%TO.C,SW1*%
X160000000Y-108800000D03*
X168000000Y-108800000D03*
%TD*%
D22*
%TO.C,J4*%
X144968000Y-89340000D03*
X144968000Y-86800000D03*
X147508000Y-89340000D03*
X147508000Y-86800000D03*
X150048000Y-89340000D03*
X150048000Y-86800000D03*
X152588000Y-89340000D03*
X152588000Y-86800000D03*
X155128000Y-89340000D03*
X155128000Y-86800000D03*
X157668000Y-89340000D03*
X157668000Y-86800000D03*
X160208000Y-89340000D03*
D23*
X160208000Y-86800000D03*
%TD*%
M02*
