%TF.GenerationSoftware,KiCad,Pcbnew,5.1.10-88a1d61d58~90~ubuntu20.04.1*%
%TF.CreationDate,2021-07-31T15:59:24+02:00*%
%TF.ProjectId,wally,77616c6c-792e-46b6-9963-61645f706362,v1.04*%
%TF.SameCoordinates,Original*%
%TF.FileFunction,Legend,Top*%
%TF.FilePolarity,Positive*%
%FSLAX46Y46*%
G04 Gerber Fmt 4.6, Leading zero omitted, Abs format (unit mm)*
G04 Created by KiCad (PCBNEW 5.1.10-88a1d61d58~90~ubuntu20.04.1) date 2021-07-31 15:59:24*
%MOMM*%
%LPD*%
G01*
G04 APERTURE LIST*
%ADD10C,0.187500*%
%ADD11C,0.300000*%
%ADD12C,0.120000*%
%ADD13C,0.150000*%
G04 APERTURE END LIST*
D10*
X171139285Y-103384285D02*
X171675000Y-103384285D01*
X171782142Y-103420000D01*
X171853571Y-103491428D01*
X171889285Y-103598571D01*
X171889285Y-103670000D01*
X171889285Y-102670000D02*
X171889285Y-103027142D01*
X171139285Y-103027142D01*
X171817857Y-101991428D02*
X171853571Y-102027142D01*
X171889285Y-102134285D01*
X171889285Y-102205714D01*
X171853571Y-102312857D01*
X171782142Y-102384285D01*
X171710714Y-102420000D01*
X171567857Y-102455714D01*
X171460714Y-102455714D01*
X171317857Y-102420000D01*
X171246428Y-102384285D01*
X171175000Y-102312857D01*
X171139285Y-102205714D01*
X171139285Y-102134285D01*
X171175000Y-102027142D01*
X171210714Y-101991428D01*
X171139285Y-101455714D02*
X171675000Y-101455714D01*
X171782142Y-101491428D01*
X171853571Y-101562857D01*
X171889285Y-101670000D01*
X171889285Y-101741428D01*
X171889285Y-100741428D02*
X171889285Y-101098571D01*
X171139285Y-101098571D01*
X171817857Y-100062857D02*
X171853571Y-100098571D01*
X171889285Y-100205714D01*
X171889285Y-100277142D01*
X171853571Y-100384285D01*
X171782142Y-100455714D01*
X171710714Y-100491428D01*
X171567857Y-100527142D01*
X171460714Y-100527142D01*
X171317857Y-100491428D01*
X171246428Y-100455714D01*
X171175000Y-100384285D01*
X171139285Y-100277142D01*
X171139285Y-100205714D01*
X171175000Y-100098571D01*
X171210714Y-100062857D01*
X171139285Y-99527142D02*
X171675000Y-99527142D01*
X171782142Y-99562857D01*
X171853571Y-99634285D01*
X171889285Y-99741428D01*
X171889285Y-99812857D01*
X171889285Y-98812857D02*
X171889285Y-99170000D01*
X171139285Y-99170000D01*
X171817857Y-98134285D02*
X171853571Y-98170000D01*
X171889285Y-98277142D01*
X171889285Y-98348571D01*
X171853571Y-98455714D01*
X171782142Y-98527142D01*
X171710714Y-98562857D01*
X171567857Y-98598571D01*
X171460714Y-98598571D01*
X171317857Y-98562857D01*
X171246428Y-98527142D01*
X171175000Y-98455714D01*
X171139285Y-98348571D01*
X171139285Y-98277142D01*
X171175000Y-98170000D01*
X171210714Y-98134285D01*
X171139285Y-97598571D02*
X171675000Y-97598571D01*
X171782142Y-97634285D01*
X171853571Y-97705714D01*
X171889285Y-97812857D01*
X171889285Y-97884285D01*
X171889285Y-96884285D02*
X171889285Y-97241428D01*
X171139285Y-97241428D01*
X171817857Y-96205714D02*
X171853571Y-96241428D01*
X171889285Y-96348571D01*
X171889285Y-96420000D01*
X171853571Y-96527142D01*
X171782142Y-96598571D01*
X171710714Y-96634285D01*
X171567857Y-96670000D01*
X171460714Y-96670000D01*
X171317857Y-96634285D01*
X171246428Y-96598571D01*
X171175000Y-96527142D01*
X171139285Y-96420000D01*
X171139285Y-96348571D01*
X171175000Y-96241428D01*
X171210714Y-96205714D01*
D11*
X126500000Y-100678571D02*
X126785714Y-101678571D01*
X127071428Y-100964285D01*
X127357142Y-101678571D01*
X127642857Y-100678571D01*
X128071428Y-100678571D02*
X128357142Y-101678571D01*
X128642857Y-100964285D01*
X128928571Y-101678571D01*
X129214285Y-100678571D01*
X129642857Y-100678571D02*
X129928571Y-101678571D01*
X130214285Y-100964285D01*
X130500000Y-101678571D01*
X130785714Y-100678571D01*
X131357142Y-101535714D02*
X131428571Y-101607142D01*
X131357142Y-101678571D01*
X131285714Y-101607142D01*
X131357142Y-101535714D01*
X131357142Y-101678571D01*
X132000000Y-100321428D02*
X132071428Y-100250000D01*
X132214285Y-100178571D01*
X132571428Y-100178571D01*
X132714285Y-100250000D01*
X132785714Y-100321428D01*
X132857142Y-100464285D01*
X132857142Y-100607142D01*
X132785714Y-100821428D01*
X131928571Y-101678571D01*
X132857142Y-101678571D01*
X133500000Y-101107142D02*
X134642857Y-101107142D01*
X135642857Y-100178571D02*
X135785714Y-100178571D01*
X135928571Y-100250000D01*
X136000000Y-100321428D01*
X136071428Y-100464285D01*
X136142857Y-100750000D01*
X136142857Y-101107142D01*
X136071428Y-101392857D01*
X136000000Y-101535714D01*
X135928571Y-101607142D01*
X135785714Y-101678571D01*
X135642857Y-101678571D01*
X135500000Y-101607142D01*
X135428571Y-101535714D01*
X135357142Y-101392857D01*
X135285714Y-101107142D01*
X135285714Y-100750000D01*
X135357142Y-100464285D01*
X135428571Y-100321428D01*
X135500000Y-100250000D01*
X135642857Y-100178571D01*
X136785714Y-101535714D02*
X136857142Y-101607142D01*
X136785714Y-101678571D01*
X136714285Y-101607142D01*
X136785714Y-101535714D01*
X136785714Y-101678571D01*
X138142857Y-101678571D02*
X138142857Y-100178571D01*
X138142857Y-101607142D02*
X138000000Y-101678571D01*
X137714285Y-101678571D01*
X137571428Y-101607142D01*
X137500000Y-101535714D01*
X137428571Y-101392857D01*
X137428571Y-100964285D01*
X137500000Y-100821428D01*
X137571428Y-100750000D01*
X137714285Y-100678571D01*
X138000000Y-100678571D01*
X138142857Y-100750000D01*
X138857142Y-101678571D02*
X138857142Y-100178571D01*
X139000000Y-101107142D02*
X139428571Y-101678571D01*
X139428571Y-100678571D02*
X138857142Y-101250000D01*
X126678571Y-97178571D02*
X127035714Y-98678571D01*
X127321428Y-97607142D01*
X127607142Y-98678571D01*
X127964285Y-97178571D01*
X129178571Y-98678571D02*
X129178571Y-97892857D01*
X129107142Y-97750000D01*
X128964285Y-97678571D01*
X128678571Y-97678571D01*
X128535714Y-97750000D01*
X129178571Y-98607142D02*
X129035714Y-98678571D01*
X128678571Y-98678571D01*
X128535714Y-98607142D01*
X128464285Y-98464285D01*
X128464285Y-98321428D01*
X128535714Y-98178571D01*
X128678571Y-98107142D01*
X129035714Y-98107142D01*
X129178571Y-98035714D01*
X130107142Y-98678571D02*
X129964285Y-98607142D01*
X129892857Y-98464285D01*
X129892857Y-97178571D01*
X130892857Y-98678571D02*
X130750000Y-98607142D01*
X130678571Y-98464285D01*
X130678571Y-97178571D01*
X131321428Y-97678571D02*
X131678571Y-98678571D01*
X132035714Y-97678571D02*
X131678571Y-98678571D01*
X131535714Y-99035714D01*
X131464285Y-99107142D01*
X131321428Y-99178571D01*
X133607142Y-97678571D02*
X133964285Y-98678571D01*
X134321428Y-97678571D01*
X135678571Y-98678571D02*
X134821428Y-98678571D01*
X135250000Y-98678571D02*
X135250000Y-97178571D01*
X135107142Y-97392857D01*
X134964285Y-97535714D01*
X134821428Y-97607142D01*
X136321428Y-98535714D02*
X136392857Y-98607142D01*
X136321428Y-98678571D01*
X136250000Y-98607142D01*
X136321428Y-98535714D01*
X136321428Y-98678571D01*
X137321428Y-97178571D02*
X137464285Y-97178571D01*
X137607142Y-97250000D01*
X137678571Y-97321428D01*
X137750000Y-97464285D01*
X137821428Y-97750000D01*
X137821428Y-98107142D01*
X137750000Y-98392857D01*
X137678571Y-98535714D01*
X137607142Y-98607142D01*
X137464285Y-98678571D01*
X137321428Y-98678571D01*
X137178571Y-98607142D01*
X137107142Y-98535714D01*
X137035714Y-98392857D01*
X136964285Y-98107142D01*
X136964285Y-97750000D01*
X137035714Y-97464285D01*
X137107142Y-97321428D01*
X137178571Y-97250000D01*
X137321428Y-97178571D01*
X139107142Y-97678571D02*
X139107142Y-98678571D01*
X138750000Y-97107142D02*
X138392857Y-98178571D01*
X139321428Y-98178571D01*
D12*
%TO.C,J4*%
X173530000Y-90470000D02*
X173530000Y-91800000D01*
X172200000Y-90470000D02*
X173530000Y-90470000D01*
X170930000Y-90470000D02*
X170930000Y-93130000D01*
X170930000Y-93130000D02*
X150550000Y-93130000D01*
X170930000Y-90470000D02*
X150550000Y-90470000D01*
X150550000Y-90470000D02*
X150550000Y-93130000D01*
%TO.C,J1*%
X173600000Y-104700000D02*
X175500000Y-104700000D01*
X169700000Y-104700000D02*
X171700000Y-104700000D01*
X173600000Y-95300000D02*
X175500000Y-95300000D01*
X169700000Y-95300000D02*
X171700000Y-95300000D01*
X175500000Y-104700000D02*
X175500000Y-95300000D01*
%TO.C,J2*%
X125660000Y-109890000D02*
X125660000Y-107140000D01*
X125660000Y-107140000D02*
X126790000Y-107140000D01*
X126790000Y-107140000D02*
X126790000Y-109890000D01*
X126790000Y-109890000D02*
X127990000Y-109890000D01*
X139210000Y-109890000D02*
X138010000Y-109890000D01*
X139210000Y-107140000D02*
X139210000Y-109890000D01*
X140340000Y-109890000D02*
X140340000Y-107140000D01*
X140340000Y-107140000D02*
X139210000Y-107140000D01*
X127990000Y-109890000D02*
X127990000Y-107260000D01*
%TO.C,J3*%
X127990000Y-90110000D02*
X127990000Y-92740000D01*
X139210000Y-90110000D02*
X138010000Y-90110000D01*
X139210000Y-92860000D02*
X139210000Y-90110000D01*
X125660000Y-92860000D02*
X126790000Y-92860000D01*
X140340000Y-90110000D02*
X140340000Y-92860000D01*
X125660000Y-90110000D02*
X125660000Y-92860000D01*
X140340000Y-92860000D02*
X139210000Y-92860000D01*
X126790000Y-92860000D02*
X126790000Y-90110000D01*
X126790000Y-90110000D02*
X127990000Y-90110000D01*
%TO.C,R17*%
X145937258Y-106262500D02*
X145462742Y-106262500D01*
X145937258Y-105217500D02*
X145462742Y-105217500D01*
%TO.C,Q4*%
X156670000Y-105200000D02*
X158130000Y-105200000D01*
X156670000Y-108360000D02*
X158830000Y-108360000D01*
X156670000Y-108360000D02*
X156670000Y-107430000D01*
X156670000Y-105200000D02*
X156670000Y-106130000D01*
%TO.C,C4*%
X171065000Y-107511252D02*
X171065000Y-106988748D01*
X172535000Y-107511252D02*
X172535000Y-106988748D01*
%TO.C,C5*%
X167075000Y-107511252D02*
X167075000Y-106988748D01*
X165605000Y-107511252D02*
X165605000Y-106988748D01*
%TO.C,U1*%
X159800000Y-103385000D02*
X162000000Y-103385000D01*
X159800000Y-103385000D02*
X157600000Y-103385000D01*
X159800000Y-96615000D02*
X162000000Y-96615000D01*
X159800000Y-96615000D02*
X156200000Y-96615000D01*
%TO.C,U2*%
X169830000Y-108830000D02*
X169830000Y-107900000D01*
X169830000Y-105670000D02*
X169830000Y-106600000D01*
X169830000Y-105670000D02*
X167670000Y-105670000D01*
X169830000Y-108830000D02*
X168370000Y-108830000D01*
%TO.C,D3*%
X166200000Y-98030000D02*
X166200000Y-99880000D01*
X165000000Y-98030000D02*
X165000000Y-99880000D01*
X165000000Y-99880000D02*
X166200000Y-99880000D01*
%TO.C,D4*%
X166200000Y-100120000D02*
X165000000Y-100120000D01*
X166200000Y-101970000D02*
X166200000Y-100120000D01*
X165000000Y-101970000D02*
X165000000Y-100120000D01*
%TO.C,D5*%
X174110000Y-106100000D02*
X172910000Y-106100000D01*
X174110000Y-107950000D02*
X174110000Y-106100000D01*
X172910000Y-107950000D02*
X172910000Y-106100000D01*
%TO.C,D6*%
X135940000Y-104350000D02*
X137140000Y-104350000D01*
X135940000Y-102500000D02*
X135940000Y-104350000D01*
X137140000Y-102500000D02*
X137140000Y-104350000D01*
%TO.C,D7*%
X134510000Y-104350000D02*
X135710000Y-104350000D01*
X134510000Y-102500000D02*
X134510000Y-104350000D01*
X135710000Y-102500000D02*
X135710000Y-104350000D01*
%TO.C,D9*%
X132840000Y-102500000D02*
X132840000Y-104350000D01*
X131640000Y-102500000D02*
X131640000Y-104350000D01*
X131640000Y-104350000D02*
X132840000Y-104350000D01*
%TO.C,D8*%
X133080000Y-104350000D02*
X134280000Y-104350000D01*
X133080000Y-102500000D02*
X133080000Y-104350000D01*
X134280000Y-102500000D02*
X134280000Y-104350000D01*
%TO.C,D10*%
X131400000Y-102500000D02*
X131400000Y-104350000D01*
X130200000Y-102500000D02*
X130200000Y-104350000D01*
X130200000Y-104350000D02*
X131400000Y-104350000D01*
%TO.C,U3*%
X150400000Y-93390000D02*
X148900000Y-93390000D01*
X150400000Y-93390000D02*
X151900000Y-93390000D01*
X150400000Y-96610000D02*
X148900000Y-96610000D01*
X150400000Y-96610000D02*
X153325000Y-96610000D01*
%TO.C,U4*%
X150400000Y-106610000D02*
X153325000Y-106610000D01*
X150400000Y-106610000D02*
X148900000Y-106610000D01*
X150400000Y-103390000D02*
X151900000Y-103390000D01*
X150400000Y-103390000D02*
X148900000Y-103390000D01*
%TO.C,C1*%
X154390000Y-100140580D02*
X154390000Y-99859420D01*
X155410000Y-100140580D02*
X155410000Y-99859420D01*
%TO.C,C2*%
X157760000Y-94859420D02*
X157760000Y-95140580D01*
X158780000Y-94859420D02*
X158780000Y-95140580D01*
%TO.C,C3*%
X161860000Y-94859420D02*
X161860000Y-95140580D01*
X160840000Y-94859420D02*
X160840000Y-95140580D01*
%TO.C,C6*%
X154850000Y-95140580D02*
X154850000Y-94859420D01*
X153830000Y-95140580D02*
X153830000Y-94859420D01*
%TO.C,C7*%
X154850000Y-105140580D02*
X154850000Y-104859420D01*
X153830000Y-105140580D02*
X153830000Y-104859420D01*
%TO.C,C8*%
X145840580Y-95235000D02*
X145559420Y-95235000D01*
X145840580Y-96255000D02*
X145559420Y-96255000D01*
%TO.C,D2*%
X163655000Y-109485000D02*
X163655000Y-107200000D01*
X162185000Y-109485000D02*
X163655000Y-109485000D01*
X162185000Y-107200000D02*
X162185000Y-109485000D01*
%TO.C,D1*%
X160685000Y-107200000D02*
X160685000Y-109485000D01*
X160685000Y-109485000D02*
X162155000Y-109485000D01*
X162155000Y-109485000D02*
X162155000Y-107200000D01*
%TO.C,R1*%
X166072500Y-104277258D02*
X166072500Y-103802742D01*
X165027500Y-104277258D02*
X165027500Y-103802742D01*
%TO.C,R2*%
X166092500Y-95732742D02*
X166092500Y-96207258D01*
X165047500Y-95732742D02*
X165047500Y-96207258D01*
%TO.C,R3*%
X156237500Y-95237258D02*
X156237500Y-94762742D01*
X157282500Y-95237258D02*
X157282500Y-94762742D01*
%TO.C,R8*%
X163442500Y-104772742D02*
X163442500Y-105247258D01*
X162397500Y-104772742D02*
X162397500Y-105247258D01*
%TO.C,R9*%
X145937258Y-94777500D02*
X145462742Y-94777500D01*
X145937258Y-93732500D02*
X145462742Y-93732500D01*
%TO.C,R10*%
X145462742Y-96702500D02*
X145937258Y-96702500D01*
X145462742Y-97747500D02*
X145937258Y-97747500D01*
%TO.C,R11*%
X145937258Y-98177500D02*
X145462742Y-98177500D01*
X145937258Y-99222500D02*
X145462742Y-99222500D01*
%TO.C,R12*%
X161942500Y-104772742D02*
X161942500Y-105247258D01*
X160897500Y-104772742D02*
X160897500Y-105247258D01*
%TO.C,R14*%
X157192742Y-104782500D02*
X157667258Y-104782500D01*
X157192742Y-103737500D02*
X157667258Y-103737500D01*
%TO.C,R15*%
X145462742Y-92252500D02*
X145937258Y-92252500D01*
X145462742Y-93297500D02*
X145937258Y-93297500D01*
%TO.C,R16*%
X145937258Y-90782500D02*
X145462742Y-90782500D01*
X145937258Y-91827500D02*
X145462742Y-91827500D01*
%TO.C,R18*%
X145937258Y-103727500D02*
X145462742Y-103727500D01*
X145937258Y-104772500D02*
X145462742Y-104772500D01*
%TO.C,J5*%
X143730000Y-108950000D02*
X142400000Y-108950000D01*
X143730000Y-107620000D02*
X143730000Y-108950000D01*
X143730000Y-106350000D02*
X141070000Y-106350000D01*
X141070000Y-106350000D02*
X141070000Y-91050000D01*
X143730000Y-106350000D02*
X143730000Y-91050000D01*
X143730000Y-91050000D02*
X141070000Y-91050000D01*
%TO.C,Q1*%
X151250000Y-98400000D02*
X148650000Y-98400000D01*
X151250000Y-101600000D02*
X149550000Y-101600000D01*
%TO.C,R4*%
X150162742Y-103002500D02*
X150637258Y-103002500D01*
X150162742Y-101957500D02*
X150637258Y-101957500D01*
%TO.C,R5*%
X150162742Y-96997500D02*
X150637258Y-96997500D01*
X150162742Y-98042500D02*
X150637258Y-98042500D01*
%TO.C,R6*%
X145462742Y-107772500D02*
X145937258Y-107772500D01*
X145462742Y-106727500D02*
X145937258Y-106727500D01*
%TO.C,R7*%
X145462742Y-102227500D02*
X145937258Y-102227500D01*
X145462742Y-103272500D02*
X145937258Y-103272500D01*
%TO.C,D11*%
X128760000Y-104350000D02*
X129960000Y-104350000D01*
X128760000Y-102500000D02*
X128760000Y-104350000D01*
X129960000Y-102500000D02*
X129960000Y-104350000D01*
%TO.C,J4*%
D13*
X173000000Y-93399285D02*
X173000000Y-93935000D01*
X172964285Y-94042142D01*
X172892857Y-94113571D01*
X172785714Y-94149285D01*
X172714285Y-94149285D01*
X173678571Y-93649285D02*
X173678571Y-94149285D01*
X173500000Y-93363571D02*
X173321428Y-93899285D01*
X173785714Y-93899285D01*
%TO.C,J1*%
X170470000Y-94369285D02*
X170470000Y-94905000D01*
X170434285Y-95012142D01*
X170362857Y-95083571D01*
X170255714Y-95119285D01*
X170184285Y-95119285D01*
X171220000Y-95119285D02*
X170791428Y-95119285D01*
X171005714Y-95119285D02*
X171005714Y-94369285D01*
X170934285Y-94476428D01*
X170862857Y-94547857D01*
X170791428Y-94583571D01*
%TO.C,J2*%
X138089285Y-108850000D02*
X138625000Y-108850000D01*
X138732142Y-108885714D01*
X138803571Y-108957142D01*
X138839285Y-109064285D01*
X138839285Y-109135714D01*
X138160714Y-108528571D02*
X138125000Y-108492857D01*
X138089285Y-108421428D01*
X138089285Y-108242857D01*
X138125000Y-108171428D01*
X138160714Y-108135714D01*
X138232142Y-108100000D01*
X138303571Y-108100000D01*
X138410714Y-108135714D01*
X138839285Y-108564285D01*
X138839285Y-108100000D01*
%TO.C,J3*%
X138099285Y-91650000D02*
X138635000Y-91650000D01*
X138742142Y-91685714D01*
X138813571Y-91757142D01*
X138849285Y-91864285D01*
X138849285Y-91935714D01*
X138099285Y-91364285D02*
X138099285Y-90900000D01*
X138385000Y-91150000D01*
X138385000Y-91042857D01*
X138420714Y-90971428D01*
X138456428Y-90935714D01*
X138527857Y-90900000D01*
X138706428Y-90900000D01*
X138777857Y-90935714D01*
X138813571Y-90971428D01*
X138849285Y-91042857D01*
X138849285Y-91257142D01*
X138813571Y-91328571D01*
X138777857Y-91364285D01*
%TO.C,R17*%
X145217857Y-108839285D02*
X144967857Y-108482142D01*
X144789285Y-108839285D02*
X144789285Y-108089285D01*
X145075000Y-108089285D01*
X145146428Y-108125000D01*
X145182142Y-108160714D01*
X145217857Y-108232142D01*
X145217857Y-108339285D01*
X145182142Y-108410714D01*
X145146428Y-108446428D01*
X145075000Y-108482142D01*
X144789285Y-108482142D01*
X145932142Y-108839285D02*
X145503571Y-108839285D01*
X145717857Y-108839285D02*
X145717857Y-108089285D01*
X145646428Y-108196428D01*
X145575000Y-108267857D01*
X145503571Y-108303571D01*
X146182142Y-108089285D02*
X146682142Y-108089285D01*
X146360714Y-108839285D01*
%TO.C,Q4*%
X156160714Y-108651428D02*
X156125000Y-108722857D01*
X156053571Y-108794285D01*
X155946428Y-108901428D01*
X155910714Y-108972857D01*
X155910714Y-109044285D01*
X156089285Y-109008571D02*
X156053571Y-109080000D01*
X155982142Y-109151428D01*
X155839285Y-109187142D01*
X155589285Y-109187142D01*
X155446428Y-109151428D01*
X155375000Y-109080000D01*
X155339285Y-109008571D01*
X155339285Y-108865714D01*
X155375000Y-108794285D01*
X155446428Y-108722857D01*
X155589285Y-108687142D01*
X155839285Y-108687142D01*
X155982142Y-108722857D01*
X156053571Y-108794285D01*
X156089285Y-108865714D01*
X156089285Y-109008571D01*
X155589285Y-108044285D02*
X156089285Y-108044285D01*
X155303571Y-108222857D02*
X155839285Y-108401428D01*
X155839285Y-107937142D01*
%TO.C,C4*%
X171675000Y-109737857D02*
X171639285Y-109773571D01*
X171532142Y-109809285D01*
X171460714Y-109809285D01*
X171353571Y-109773571D01*
X171282142Y-109702142D01*
X171246428Y-109630714D01*
X171210714Y-109487857D01*
X171210714Y-109380714D01*
X171246428Y-109237857D01*
X171282142Y-109166428D01*
X171353571Y-109095000D01*
X171460714Y-109059285D01*
X171532142Y-109059285D01*
X171639285Y-109095000D01*
X171675000Y-109130714D01*
X172317857Y-109309285D02*
X172317857Y-109809285D01*
X172139285Y-109023571D02*
X171960714Y-109559285D01*
X172425000Y-109559285D01*
%TO.C,C5*%
X166225000Y-109697857D02*
X166189285Y-109733571D01*
X166082142Y-109769285D01*
X166010714Y-109769285D01*
X165903571Y-109733571D01*
X165832142Y-109662142D01*
X165796428Y-109590714D01*
X165760714Y-109447857D01*
X165760714Y-109340714D01*
X165796428Y-109197857D01*
X165832142Y-109126428D01*
X165903571Y-109055000D01*
X166010714Y-109019285D01*
X166082142Y-109019285D01*
X166189285Y-109055000D01*
X166225000Y-109090714D01*
X166903571Y-109019285D02*
X166546428Y-109019285D01*
X166510714Y-109376428D01*
X166546428Y-109340714D01*
X166617857Y-109305000D01*
X166796428Y-109305000D01*
X166867857Y-109340714D01*
X166903571Y-109376428D01*
X166939285Y-109447857D01*
X166939285Y-109626428D01*
X166903571Y-109697857D01*
X166867857Y-109733571D01*
X166796428Y-109769285D01*
X166617857Y-109769285D01*
X166546428Y-109733571D01*
X166510714Y-109697857D01*
%TO.C,U1*%
X162428571Y-95589285D02*
X162428571Y-96196428D01*
X162464285Y-96267857D01*
X162500000Y-96303571D01*
X162571428Y-96339285D01*
X162714285Y-96339285D01*
X162785714Y-96303571D01*
X162821428Y-96267857D01*
X162857142Y-96196428D01*
X162857142Y-95589285D01*
X163607142Y-96339285D02*
X163178571Y-96339285D01*
X163392857Y-96339285D02*
X163392857Y-95589285D01*
X163321428Y-95696428D01*
X163250000Y-95767857D01*
X163178571Y-95803571D01*
%TO.C,U2*%
X168478571Y-109049285D02*
X168478571Y-109656428D01*
X168514285Y-109727857D01*
X168550000Y-109763571D01*
X168621428Y-109799285D01*
X168764285Y-109799285D01*
X168835714Y-109763571D01*
X168871428Y-109727857D01*
X168907142Y-109656428D01*
X168907142Y-109049285D01*
X169228571Y-109120714D02*
X169264285Y-109085000D01*
X169335714Y-109049285D01*
X169514285Y-109049285D01*
X169585714Y-109085000D01*
X169621428Y-109120714D01*
X169657142Y-109192142D01*
X169657142Y-109263571D01*
X169621428Y-109370714D01*
X169192857Y-109799285D01*
X169657142Y-109799285D01*
%TO.C,D3*%
X164749285Y-99283571D02*
X163999285Y-99283571D01*
X163999285Y-99105000D01*
X164035000Y-98997857D01*
X164106428Y-98926428D01*
X164177857Y-98890714D01*
X164320714Y-98855000D01*
X164427857Y-98855000D01*
X164570714Y-98890714D01*
X164642142Y-98926428D01*
X164713571Y-98997857D01*
X164749285Y-99105000D01*
X164749285Y-99283571D01*
X163999285Y-98605000D02*
X163999285Y-98140714D01*
X164285000Y-98390714D01*
X164285000Y-98283571D01*
X164320714Y-98212142D01*
X164356428Y-98176428D01*
X164427857Y-98140714D01*
X164606428Y-98140714D01*
X164677857Y-98176428D01*
X164713571Y-98212142D01*
X164749285Y-98283571D01*
X164749285Y-98497857D01*
X164713571Y-98569285D01*
X164677857Y-98605000D01*
%TO.C,D4*%
X164749285Y-101823571D02*
X163999285Y-101823571D01*
X163999285Y-101645000D01*
X164035000Y-101537857D01*
X164106428Y-101466428D01*
X164177857Y-101430714D01*
X164320714Y-101395000D01*
X164427857Y-101395000D01*
X164570714Y-101430714D01*
X164642142Y-101466428D01*
X164713571Y-101537857D01*
X164749285Y-101645000D01*
X164749285Y-101823571D01*
X164249285Y-100752142D02*
X164749285Y-100752142D01*
X163963571Y-100930714D02*
X164499285Y-101109285D01*
X164499285Y-100645000D01*
%TO.C,D5*%
X172946428Y-109369285D02*
X172946428Y-108619285D01*
X173125000Y-108619285D01*
X173232142Y-108655000D01*
X173303571Y-108726428D01*
X173339285Y-108797857D01*
X173375000Y-108940714D01*
X173375000Y-109047857D01*
X173339285Y-109190714D01*
X173303571Y-109262142D01*
X173232142Y-109333571D01*
X173125000Y-109369285D01*
X172946428Y-109369285D01*
X174053571Y-108619285D02*
X173696428Y-108619285D01*
X173660714Y-108976428D01*
X173696428Y-108940714D01*
X173767857Y-108905000D01*
X173946428Y-108905000D01*
X174017857Y-108940714D01*
X174053571Y-108976428D01*
X174089285Y-109047857D01*
X174089285Y-109226428D01*
X174053571Y-109297857D01*
X174017857Y-109333571D01*
X173946428Y-109369285D01*
X173767857Y-109369285D01*
X173696428Y-109333571D01*
X173660714Y-109297857D01*
%TO.C,D6*%
X136839285Y-106457571D02*
X136089285Y-106457571D01*
X136089285Y-106279000D01*
X136125000Y-106171857D01*
X136196428Y-106100428D01*
X136267857Y-106064714D01*
X136410714Y-106029000D01*
X136517857Y-106029000D01*
X136660714Y-106064714D01*
X136732142Y-106100428D01*
X136803571Y-106171857D01*
X136839285Y-106279000D01*
X136839285Y-106457571D01*
X136089285Y-105386142D02*
X136089285Y-105529000D01*
X136125000Y-105600428D01*
X136160714Y-105636142D01*
X136267857Y-105707571D01*
X136410714Y-105743285D01*
X136696428Y-105743285D01*
X136767857Y-105707571D01*
X136803571Y-105671857D01*
X136839285Y-105600428D01*
X136839285Y-105457571D01*
X136803571Y-105386142D01*
X136767857Y-105350428D01*
X136696428Y-105314714D01*
X136517857Y-105314714D01*
X136446428Y-105350428D01*
X136410714Y-105386142D01*
X136375000Y-105457571D01*
X136375000Y-105600428D01*
X136410714Y-105671857D01*
X136446428Y-105707571D01*
X136517857Y-105743285D01*
%TO.C,D7*%
X135359285Y-106457571D02*
X134609285Y-106457571D01*
X134609285Y-106279000D01*
X134645000Y-106171857D01*
X134716428Y-106100428D01*
X134787857Y-106064714D01*
X134930714Y-106029000D01*
X135037857Y-106029000D01*
X135180714Y-106064714D01*
X135252142Y-106100428D01*
X135323571Y-106171857D01*
X135359285Y-106279000D01*
X135359285Y-106457571D01*
X134609285Y-105779000D02*
X134609285Y-105279000D01*
X135359285Y-105600428D01*
%TO.C,D9*%
X132589285Y-106457571D02*
X131839285Y-106457571D01*
X131839285Y-106279000D01*
X131875000Y-106171857D01*
X131946428Y-106100428D01*
X132017857Y-106064714D01*
X132160714Y-106029000D01*
X132267857Y-106029000D01*
X132410714Y-106064714D01*
X132482142Y-106100428D01*
X132553571Y-106171857D01*
X132589285Y-106279000D01*
X132589285Y-106457571D01*
X132589285Y-105671857D02*
X132589285Y-105529000D01*
X132553571Y-105457571D01*
X132517857Y-105421857D01*
X132410714Y-105350428D01*
X132267857Y-105314714D01*
X131982142Y-105314714D01*
X131910714Y-105350428D01*
X131875000Y-105386142D01*
X131839285Y-105457571D01*
X131839285Y-105600428D01*
X131875000Y-105671857D01*
X131910714Y-105707571D01*
X131982142Y-105743285D01*
X132160714Y-105743285D01*
X132232142Y-105707571D01*
X132267857Y-105671857D01*
X132303571Y-105600428D01*
X132303571Y-105457571D01*
X132267857Y-105386142D01*
X132232142Y-105350428D01*
X132160714Y-105314714D01*
%TO.C,D8*%
X134019285Y-106457571D02*
X133269285Y-106457571D01*
X133269285Y-106279000D01*
X133305000Y-106171857D01*
X133376428Y-106100428D01*
X133447857Y-106064714D01*
X133590714Y-106029000D01*
X133697857Y-106029000D01*
X133840714Y-106064714D01*
X133912142Y-106100428D01*
X133983571Y-106171857D01*
X134019285Y-106279000D01*
X134019285Y-106457571D01*
X133590714Y-105600428D02*
X133555000Y-105671857D01*
X133519285Y-105707571D01*
X133447857Y-105743285D01*
X133412142Y-105743285D01*
X133340714Y-105707571D01*
X133305000Y-105671857D01*
X133269285Y-105600428D01*
X133269285Y-105457571D01*
X133305000Y-105386142D01*
X133340714Y-105350428D01*
X133412142Y-105314714D01*
X133447857Y-105314714D01*
X133519285Y-105350428D01*
X133555000Y-105386142D01*
X133590714Y-105457571D01*
X133590714Y-105600428D01*
X133626428Y-105671857D01*
X133662142Y-105707571D01*
X133733571Y-105743285D01*
X133876428Y-105743285D01*
X133947857Y-105707571D01*
X133983571Y-105671857D01*
X134019285Y-105600428D01*
X134019285Y-105457571D01*
X133983571Y-105386142D01*
X133947857Y-105350428D01*
X133876428Y-105314714D01*
X133733571Y-105314714D01*
X133662142Y-105350428D01*
X133626428Y-105386142D01*
X133590714Y-105457571D01*
%TO.C,D10*%
X131139285Y-106464714D02*
X130389285Y-106464714D01*
X130389285Y-106286142D01*
X130425000Y-106179000D01*
X130496428Y-106107571D01*
X130567857Y-106071857D01*
X130710714Y-106036142D01*
X130817857Y-106036142D01*
X130960714Y-106071857D01*
X131032142Y-106107571D01*
X131103571Y-106179000D01*
X131139285Y-106286142D01*
X131139285Y-106464714D01*
X131139285Y-105321857D02*
X131139285Y-105750428D01*
X131139285Y-105536142D02*
X130389285Y-105536142D01*
X130496428Y-105607571D01*
X130567857Y-105679000D01*
X130603571Y-105750428D01*
X130389285Y-104857571D02*
X130389285Y-104786142D01*
X130425000Y-104714714D01*
X130460714Y-104679000D01*
X130532142Y-104643285D01*
X130675000Y-104607571D01*
X130853571Y-104607571D01*
X130996428Y-104643285D01*
X131067857Y-104679000D01*
X131103571Y-104714714D01*
X131139285Y-104786142D01*
X131139285Y-104857571D01*
X131103571Y-104929000D01*
X131067857Y-104964714D01*
X130996428Y-105000428D01*
X130853571Y-105036142D01*
X130675000Y-105036142D01*
X130532142Y-105000428D01*
X130460714Y-104964714D01*
X130425000Y-104929000D01*
X130389285Y-104857571D01*
%TO.C,U3*%
X149499285Y-93151428D02*
X150106428Y-93151428D01*
X150177857Y-93115714D01*
X150213571Y-93080000D01*
X150249285Y-93008571D01*
X150249285Y-92865714D01*
X150213571Y-92794285D01*
X150177857Y-92758571D01*
X150106428Y-92722857D01*
X149499285Y-92722857D01*
X149499285Y-92437142D02*
X149499285Y-91972857D01*
X149785000Y-92222857D01*
X149785000Y-92115714D01*
X149820714Y-92044285D01*
X149856428Y-92008571D01*
X149927857Y-91972857D01*
X150106428Y-91972857D01*
X150177857Y-92008571D01*
X150213571Y-92044285D01*
X150249285Y-92115714D01*
X150249285Y-92330000D01*
X150213571Y-92401428D01*
X150177857Y-92437142D01*
%TO.C,U4*%
X149828571Y-106849285D02*
X149828571Y-107456428D01*
X149864285Y-107527857D01*
X149900000Y-107563571D01*
X149971428Y-107599285D01*
X150114285Y-107599285D01*
X150185714Y-107563571D01*
X150221428Y-107527857D01*
X150257142Y-107456428D01*
X150257142Y-106849285D01*
X150935714Y-107099285D02*
X150935714Y-107599285D01*
X150757142Y-106813571D02*
X150578571Y-107349285D01*
X151042857Y-107349285D01*
%TO.C,C1*%
X154785000Y-98407857D02*
X154749285Y-98443571D01*
X154642142Y-98479285D01*
X154570714Y-98479285D01*
X154463571Y-98443571D01*
X154392142Y-98372142D01*
X154356428Y-98300714D01*
X154320714Y-98157857D01*
X154320714Y-98050714D01*
X154356428Y-97907857D01*
X154392142Y-97836428D01*
X154463571Y-97765000D01*
X154570714Y-97729285D01*
X154642142Y-97729285D01*
X154749285Y-97765000D01*
X154785000Y-97800714D01*
X155499285Y-98479285D02*
X155070714Y-98479285D01*
X155285000Y-98479285D02*
X155285000Y-97729285D01*
X155213571Y-97836428D01*
X155142142Y-97907857D01*
X155070714Y-97943571D01*
%TO.C,C2*%
X159877857Y-95140000D02*
X159913571Y-95175714D01*
X159949285Y-95282857D01*
X159949285Y-95354285D01*
X159913571Y-95461428D01*
X159842142Y-95532857D01*
X159770714Y-95568571D01*
X159627857Y-95604285D01*
X159520714Y-95604285D01*
X159377857Y-95568571D01*
X159306428Y-95532857D01*
X159235000Y-95461428D01*
X159199285Y-95354285D01*
X159199285Y-95282857D01*
X159235000Y-95175714D01*
X159270714Y-95140000D01*
X159270714Y-94854285D02*
X159235000Y-94818571D01*
X159199285Y-94747142D01*
X159199285Y-94568571D01*
X159235000Y-94497142D01*
X159270714Y-94461428D01*
X159342142Y-94425714D01*
X159413571Y-94425714D01*
X159520714Y-94461428D01*
X159949285Y-94890000D01*
X159949285Y-94425714D01*
%TO.C,C3*%
X162867857Y-94725000D02*
X162903571Y-94760714D01*
X162939285Y-94867857D01*
X162939285Y-94939285D01*
X162903571Y-95046428D01*
X162832142Y-95117857D01*
X162760714Y-95153571D01*
X162617857Y-95189285D01*
X162510714Y-95189285D01*
X162367857Y-95153571D01*
X162296428Y-95117857D01*
X162225000Y-95046428D01*
X162189285Y-94939285D01*
X162189285Y-94867857D01*
X162225000Y-94760714D01*
X162260714Y-94725000D01*
X162189285Y-94475000D02*
X162189285Y-94010714D01*
X162475000Y-94260714D01*
X162475000Y-94153571D01*
X162510714Y-94082142D01*
X162546428Y-94046428D01*
X162617857Y-94010714D01*
X162796428Y-94010714D01*
X162867857Y-94046428D01*
X162903571Y-94082142D01*
X162939285Y-94153571D01*
X162939285Y-94367857D01*
X162903571Y-94439285D01*
X162867857Y-94475000D01*
%TO.C,C6*%
X154215000Y-97257857D02*
X154179285Y-97293571D01*
X154072142Y-97329285D01*
X154000714Y-97329285D01*
X153893571Y-97293571D01*
X153822142Y-97222142D01*
X153786428Y-97150714D01*
X153750714Y-97007857D01*
X153750714Y-96900714D01*
X153786428Y-96757857D01*
X153822142Y-96686428D01*
X153893571Y-96615000D01*
X154000714Y-96579285D01*
X154072142Y-96579285D01*
X154179285Y-96615000D01*
X154215000Y-96650714D01*
X154857857Y-96579285D02*
X154715000Y-96579285D01*
X154643571Y-96615000D01*
X154607857Y-96650714D01*
X154536428Y-96757857D01*
X154500714Y-96900714D01*
X154500714Y-97186428D01*
X154536428Y-97257857D01*
X154572142Y-97293571D01*
X154643571Y-97329285D01*
X154786428Y-97329285D01*
X154857857Y-97293571D01*
X154893571Y-97257857D01*
X154929285Y-97186428D01*
X154929285Y-97007857D01*
X154893571Y-96936428D01*
X154857857Y-96900714D01*
X154786428Y-96865000D01*
X154643571Y-96865000D01*
X154572142Y-96900714D01*
X154536428Y-96936428D01*
X154500714Y-97007857D01*
%TO.C,C7*%
X154597857Y-107445000D02*
X154633571Y-107480714D01*
X154669285Y-107587857D01*
X154669285Y-107659285D01*
X154633571Y-107766428D01*
X154562142Y-107837857D01*
X154490714Y-107873571D01*
X154347857Y-107909285D01*
X154240714Y-107909285D01*
X154097857Y-107873571D01*
X154026428Y-107837857D01*
X153955000Y-107766428D01*
X153919285Y-107659285D01*
X153919285Y-107587857D01*
X153955000Y-107480714D01*
X153990714Y-107445000D01*
X153919285Y-107195000D02*
X153919285Y-106695000D01*
X154669285Y-107016428D01*
%TO.C,C8*%
X147815000Y-97487857D02*
X147779285Y-97523571D01*
X147672142Y-97559285D01*
X147600714Y-97559285D01*
X147493571Y-97523571D01*
X147422142Y-97452142D01*
X147386428Y-97380714D01*
X147350714Y-97237857D01*
X147350714Y-97130714D01*
X147386428Y-96987857D01*
X147422142Y-96916428D01*
X147493571Y-96845000D01*
X147600714Y-96809285D01*
X147672142Y-96809285D01*
X147779285Y-96845000D01*
X147815000Y-96880714D01*
X148243571Y-97130714D02*
X148172142Y-97095000D01*
X148136428Y-97059285D01*
X148100714Y-96987857D01*
X148100714Y-96952142D01*
X148136428Y-96880714D01*
X148172142Y-96845000D01*
X148243571Y-96809285D01*
X148386428Y-96809285D01*
X148457857Y-96845000D01*
X148493571Y-96880714D01*
X148529285Y-96952142D01*
X148529285Y-96987857D01*
X148493571Y-97059285D01*
X148457857Y-97095000D01*
X148386428Y-97130714D01*
X148243571Y-97130714D01*
X148172142Y-97166428D01*
X148136428Y-97202142D01*
X148100714Y-97273571D01*
X148100714Y-97416428D01*
X148136428Y-97487857D01*
X148172142Y-97523571D01*
X148243571Y-97559285D01*
X148386428Y-97559285D01*
X148457857Y-97523571D01*
X148493571Y-97487857D01*
X148529285Y-97416428D01*
X148529285Y-97273571D01*
X148493571Y-97202142D01*
X148457857Y-97166428D01*
X148386428Y-97130714D01*
%TO.C,D2*%
X164639285Y-108553571D02*
X163889285Y-108553571D01*
X163889285Y-108375000D01*
X163925000Y-108267857D01*
X163996428Y-108196428D01*
X164067857Y-108160714D01*
X164210714Y-108125000D01*
X164317857Y-108125000D01*
X164460714Y-108160714D01*
X164532142Y-108196428D01*
X164603571Y-108267857D01*
X164639285Y-108375000D01*
X164639285Y-108553571D01*
X163960714Y-107839285D02*
X163925000Y-107803571D01*
X163889285Y-107732142D01*
X163889285Y-107553571D01*
X163925000Y-107482142D01*
X163960714Y-107446428D01*
X164032142Y-107410714D01*
X164103571Y-107410714D01*
X164210714Y-107446428D01*
X164639285Y-107875000D01*
X164639285Y-107410714D01*
%TO.C,D1*%
X160539285Y-108553571D02*
X159789285Y-108553571D01*
X159789285Y-108375000D01*
X159825000Y-108267857D01*
X159896428Y-108196428D01*
X159967857Y-108160714D01*
X160110714Y-108125000D01*
X160217857Y-108125000D01*
X160360714Y-108160714D01*
X160432142Y-108196428D01*
X160503571Y-108267857D01*
X160539285Y-108375000D01*
X160539285Y-108553571D01*
X160539285Y-107410714D02*
X160539285Y-107839285D01*
X160539285Y-107625000D02*
X159789285Y-107625000D01*
X159896428Y-107696428D01*
X159967857Y-107767857D01*
X160003571Y-107839285D01*
%TO.C,R1*%
X164739285Y-103225000D02*
X164382142Y-103475000D01*
X164739285Y-103653571D02*
X163989285Y-103653571D01*
X163989285Y-103367857D01*
X164025000Y-103296428D01*
X164060714Y-103260714D01*
X164132142Y-103225000D01*
X164239285Y-103225000D01*
X164310714Y-103260714D01*
X164346428Y-103296428D01*
X164382142Y-103367857D01*
X164382142Y-103653571D01*
X164739285Y-102510714D02*
X164739285Y-102939285D01*
X164739285Y-102725000D02*
X163989285Y-102725000D01*
X164096428Y-102796428D01*
X164167857Y-102867857D01*
X164203571Y-102939285D01*
%TO.C,R2*%
X164619285Y-96105000D02*
X164262142Y-96355000D01*
X164619285Y-96533571D02*
X163869285Y-96533571D01*
X163869285Y-96247857D01*
X163905000Y-96176428D01*
X163940714Y-96140714D01*
X164012142Y-96105000D01*
X164119285Y-96105000D01*
X164190714Y-96140714D01*
X164226428Y-96176428D01*
X164262142Y-96247857D01*
X164262142Y-96533571D01*
X163940714Y-95819285D02*
X163905000Y-95783571D01*
X163869285Y-95712142D01*
X163869285Y-95533571D01*
X163905000Y-95462142D01*
X163940714Y-95426428D01*
X164012142Y-95390714D01*
X164083571Y-95390714D01*
X164190714Y-95426428D01*
X164619285Y-95855000D01*
X164619285Y-95390714D01*
%TO.C,R3*%
X155939285Y-95125000D02*
X155582142Y-95375000D01*
X155939285Y-95553571D02*
X155189285Y-95553571D01*
X155189285Y-95267857D01*
X155225000Y-95196428D01*
X155260714Y-95160714D01*
X155332142Y-95125000D01*
X155439285Y-95125000D01*
X155510714Y-95160714D01*
X155546428Y-95196428D01*
X155582142Y-95267857D01*
X155582142Y-95553571D01*
X155189285Y-94875000D02*
X155189285Y-94410714D01*
X155475000Y-94660714D01*
X155475000Y-94553571D01*
X155510714Y-94482142D01*
X155546428Y-94446428D01*
X155617857Y-94410714D01*
X155796428Y-94410714D01*
X155867857Y-94446428D01*
X155903571Y-94482142D01*
X155939285Y-94553571D01*
X155939285Y-94767857D01*
X155903571Y-94839285D01*
X155867857Y-94875000D01*
%TO.C,R8*%
X164539285Y-105625000D02*
X164182142Y-105875000D01*
X164539285Y-106053571D02*
X163789285Y-106053571D01*
X163789285Y-105767857D01*
X163825000Y-105696428D01*
X163860714Y-105660714D01*
X163932142Y-105625000D01*
X164039285Y-105625000D01*
X164110714Y-105660714D01*
X164146428Y-105696428D01*
X164182142Y-105767857D01*
X164182142Y-106053571D01*
X164110714Y-105196428D02*
X164075000Y-105267857D01*
X164039285Y-105303571D01*
X163967857Y-105339285D01*
X163932142Y-105339285D01*
X163860714Y-105303571D01*
X163825000Y-105267857D01*
X163789285Y-105196428D01*
X163789285Y-105053571D01*
X163825000Y-104982142D01*
X163860714Y-104946428D01*
X163932142Y-104910714D01*
X163967857Y-104910714D01*
X164039285Y-104946428D01*
X164075000Y-104982142D01*
X164110714Y-105053571D01*
X164110714Y-105196428D01*
X164146428Y-105267857D01*
X164182142Y-105303571D01*
X164253571Y-105339285D01*
X164396428Y-105339285D01*
X164467857Y-105303571D01*
X164503571Y-105267857D01*
X164539285Y-105196428D01*
X164539285Y-105053571D01*
X164503571Y-104982142D01*
X164467857Y-104946428D01*
X164396428Y-104910714D01*
X164253571Y-104910714D01*
X164182142Y-104946428D01*
X164146428Y-104982142D01*
X164110714Y-105053571D01*
%TO.C,R9*%
X147795000Y-93319285D02*
X147545000Y-92962142D01*
X147366428Y-93319285D02*
X147366428Y-92569285D01*
X147652142Y-92569285D01*
X147723571Y-92605000D01*
X147759285Y-92640714D01*
X147795000Y-92712142D01*
X147795000Y-92819285D01*
X147759285Y-92890714D01*
X147723571Y-92926428D01*
X147652142Y-92962142D01*
X147366428Y-92962142D01*
X148152142Y-93319285D02*
X148295000Y-93319285D01*
X148366428Y-93283571D01*
X148402142Y-93247857D01*
X148473571Y-93140714D01*
X148509285Y-92997857D01*
X148509285Y-92712142D01*
X148473571Y-92640714D01*
X148437857Y-92605000D01*
X148366428Y-92569285D01*
X148223571Y-92569285D01*
X148152142Y-92605000D01*
X148116428Y-92640714D01*
X148080714Y-92712142D01*
X148080714Y-92890714D01*
X148116428Y-92962142D01*
X148152142Y-92997857D01*
X148223571Y-93033571D01*
X148366428Y-93033571D01*
X148437857Y-92997857D01*
X148473571Y-92962142D01*
X148509285Y-92890714D01*
%TO.C,R10*%
X148099285Y-99392142D02*
X147742142Y-99642142D01*
X148099285Y-99820714D02*
X147349285Y-99820714D01*
X147349285Y-99535000D01*
X147385000Y-99463571D01*
X147420714Y-99427857D01*
X147492142Y-99392142D01*
X147599285Y-99392142D01*
X147670714Y-99427857D01*
X147706428Y-99463571D01*
X147742142Y-99535000D01*
X147742142Y-99820714D01*
X148099285Y-98677857D02*
X148099285Y-99106428D01*
X148099285Y-98892142D02*
X147349285Y-98892142D01*
X147456428Y-98963571D01*
X147527857Y-99035000D01*
X147563571Y-99106428D01*
X147349285Y-98213571D02*
X147349285Y-98142142D01*
X147385000Y-98070714D01*
X147420714Y-98035000D01*
X147492142Y-97999285D01*
X147635000Y-97963571D01*
X147813571Y-97963571D01*
X147956428Y-97999285D01*
X148027857Y-98035000D01*
X148063571Y-98070714D01*
X148099285Y-98142142D01*
X148099285Y-98213571D01*
X148063571Y-98285000D01*
X148027857Y-98320714D01*
X147956428Y-98356428D01*
X147813571Y-98392142D01*
X147635000Y-98392142D01*
X147492142Y-98356428D01*
X147420714Y-98320714D01*
X147385000Y-98285000D01*
X147349285Y-98213571D01*
%TO.C,R11*%
X145227857Y-100299285D02*
X144977857Y-99942142D01*
X144799285Y-100299285D02*
X144799285Y-99549285D01*
X145085000Y-99549285D01*
X145156428Y-99585000D01*
X145192142Y-99620714D01*
X145227857Y-99692142D01*
X145227857Y-99799285D01*
X145192142Y-99870714D01*
X145156428Y-99906428D01*
X145085000Y-99942142D01*
X144799285Y-99942142D01*
X145942142Y-100299285D02*
X145513571Y-100299285D01*
X145727857Y-100299285D02*
X145727857Y-99549285D01*
X145656428Y-99656428D01*
X145585000Y-99727857D01*
X145513571Y-99763571D01*
X146656428Y-100299285D02*
X146227857Y-100299285D01*
X146442142Y-100299285D02*
X146442142Y-99549285D01*
X146370714Y-99656428D01*
X146299285Y-99727857D01*
X146227857Y-99763571D01*
%TO.C,R12*%
X160539285Y-105682142D02*
X160182142Y-105932142D01*
X160539285Y-106110714D02*
X159789285Y-106110714D01*
X159789285Y-105825000D01*
X159825000Y-105753571D01*
X159860714Y-105717857D01*
X159932142Y-105682142D01*
X160039285Y-105682142D01*
X160110714Y-105717857D01*
X160146428Y-105753571D01*
X160182142Y-105825000D01*
X160182142Y-106110714D01*
X160539285Y-104967857D02*
X160539285Y-105396428D01*
X160539285Y-105182142D02*
X159789285Y-105182142D01*
X159896428Y-105253571D01*
X159967857Y-105325000D01*
X160003571Y-105396428D01*
X159860714Y-104682142D02*
X159825000Y-104646428D01*
X159789285Y-104575000D01*
X159789285Y-104396428D01*
X159825000Y-104325000D01*
X159860714Y-104289285D01*
X159932142Y-104253571D01*
X160003571Y-104253571D01*
X160110714Y-104289285D01*
X160539285Y-104717857D01*
X160539285Y-104253571D01*
%TO.C,R14*%
X155889285Y-104692142D02*
X155532142Y-104942142D01*
X155889285Y-105120714D02*
X155139285Y-105120714D01*
X155139285Y-104835000D01*
X155175000Y-104763571D01*
X155210714Y-104727857D01*
X155282142Y-104692142D01*
X155389285Y-104692142D01*
X155460714Y-104727857D01*
X155496428Y-104763571D01*
X155532142Y-104835000D01*
X155532142Y-105120714D01*
X155889285Y-103977857D02*
X155889285Y-104406428D01*
X155889285Y-104192142D02*
X155139285Y-104192142D01*
X155246428Y-104263571D01*
X155317857Y-104335000D01*
X155353571Y-104406428D01*
X155389285Y-103335000D02*
X155889285Y-103335000D01*
X155103571Y-103513571D02*
X155639285Y-103692142D01*
X155639285Y-103227857D01*
%TO.C,R15*%
X147787857Y-92289285D02*
X147537857Y-91932142D01*
X147359285Y-92289285D02*
X147359285Y-91539285D01*
X147645000Y-91539285D01*
X147716428Y-91575000D01*
X147752142Y-91610714D01*
X147787857Y-91682142D01*
X147787857Y-91789285D01*
X147752142Y-91860714D01*
X147716428Y-91896428D01*
X147645000Y-91932142D01*
X147359285Y-91932142D01*
X148502142Y-92289285D02*
X148073571Y-92289285D01*
X148287857Y-92289285D02*
X148287857Y-91539285D01*
X148216428Y-91646428D01*
X148145000Y-91717857D01*
X148073571Y-91753571D01*
X149180714Y-91539285D02*
X148823571Y-91539285D01*
X148787857Y-91896428D01*
X148823571Y-91860714D01*
X148895000Y-91825000D01*
X149073571Y-91825000D01*
X149145000Y-91860714D01*
X149180714Y-91896428D01*
X149216428Y-91967857D01*
X149216428Y-92146428D01*
X149180714Y-92217857D01*
X149145000Y-92253571D01*
X149073571Y-92289285D01*
X148895000Y-92289285D01*
X148823571Y-92253571D01*
X148787857Y-92217857D01*
%TO.C,R16*%
X147797857Y-91209285D02*
X147547857Y-90852142D01*
X147369285Y-91209285D02*
X147369285Y-90459285D01*
X147655000Y-90459285D01*
X147726428Y-90495000D01*
X147762142Y-90530714D01*
X147797857Y-90602142D01*
X147797857Y-90709285D01*
X147762142Y-90780714D01*
X147726428Y-90816428D01*
X147655000Y-90852142D01*
X147369285Y-90852142D01*
X148512142Y-91209285D02*
X148083571Y-91209285D01*
X148297857Y-91209285D02*
X148297857Y-90459285D01*
X148226428Y-90566428D01*
X148155000Y-90637857D01*
X148083571Y-90673571D01*
X149155000Y-90459285D02*
X149012142Y-90459285D01*
X148940714Y-90495000D01*
X148905000Y-90530714D01*
X148833571Y-90637857D01*
X148797857Y-90780714D01*
X148797857Y-91066428D01*
X148833571Y-91137857D01*
X148869285Y-91173571D01*
X148940714Y-91209285D01*
X149083571Y-91209285D01*
X149155000Y-91173571D01*
X149190714Y-91137857D01*
X149226428Y-91066428D01*
X149226428Y-90887857D01*
X149190714Y-90816428D01*
X149155000Y-90780714D01*
X149083571Y-90745000D01*
X148940714Y-90745000D01*
X148869285Y-90780714D01*
X148833571Y-90816428D01*
X148797857Y-90887857D01*
%TO.C,R18*%
X145217857Y-101909285D02*
X144967857Y-101552142D01*
X144789285Y-101909285D02*
X144789285Y-101159285D01*
X145075000Y-101159285D01*
X145146428Y-101195000D01*
X145182142Y-101230714D01*
X145217857Y-101302142D01*
X145217857Y-101409285D01*
X145182142Y-101480714D01*
X145146428Y-101516428D01*
X145075000Y-101552142D01*
X144789285Y-101552142D01*
X145932142Y-101909285D02*
X145503571Y-101909285D01*
X145717857Y-101909285D02*
X145717857Y-101159285D01*
X145646428Y-101266428D01*
X145575000Y-101337857D01*
X145503571Y-101373571D01*
X146360714Y-101480714D02*
X146289285Y-101445000D01*
X146253571Y-101409285D01*
X146217857Y-101337857D01*
X146217857Y-101302142D01*
X146253571Y-101230714D01*
X146289285Y-101195000D01*
X146360714Y-101159285D01*
X146503571Y-101159285D01*
X146575000Y-101195000D01*
X146610714Y-101230714D01*
X146646428Y-101302142D01*
X146646428Y-101337857D01*
X146610714Y-101409285D01*
X146575000Y-101445000D01*
X146503571Y-101480714D01*
X146360714Y-101480714D01*
X146289285Y-101516428D01*
X146253571Y-101552142D01*
X146217857Y-101623571D01*
X146217857Y-101766428D01*
X146253571Y-101837857D01*
X146289285Y-101873571D01*
X146360714Y-101909285D01*
X146503571Y-101909285D01*
X146575000Y-101873571D01*
X146610714Y-101837857D01*
X146646428Y-101766428D01*
X146646428Y-101623571D01*
X146610714Y-101552142D01*
X146575000Y-101516428D01*
X146503571Y-101480714D01*
%TO.C,J5*%
X139949285Y-106250000D02*
X140485000Y-106250000D01*
X140592142Y-106285714D01*
X140663571Y-106357142D01*
X140699285Y-106464285D01*
X140699285Y-106535714D01*
X139949285Y-105535714D02*
X139949285Y-105892857D01*
X140306428Y-105928571D01*
X140270714Y-105892857D01*
X140235000Y-105821428D01*
X140235000Y-105642857D01*
X140270714Y-105571428D01*
X140306428Y-105535714D01*
X140377857Y-105500000D01*
X140556428Y-105500000D01*
X140627857Y-105535714D01*
X140663571Y-105571428D01*
X140699285Y-105642857D01*
X140699285Y-105821428D01*
X140663571Y-105892857D01*
X140627857Y-105928571D01*
%TO.C,Q1*%
X153510714Y-100071428D02*
X153475000Y-100142857D01*
X153403571Y-100214285D01*
X153296428Y-100321428D01*
X153260714Y-100392857D01*
X153260714Y-100464285D01*
X153439285Y-100428571D02*
X153403571Y-100500000D01*
X153332142Y-100571428D01*
X153189285Y-100607142D01*
X152939285Y-100607142D01*
X152796428Y-100571428D01*
X152725000Y-100500000D01*
X152689285Y-100428571D01*
X152689285Y-100285714D01*
X152725000Y-100214285D01*
X152796428Y-100142857D01*
X152939285Y-100107142D01*
X153189285Y-100107142D01*
X153332142Y-100142857D01*
X153403571Y-100214285D01*
X153439285Y-100285714D01*
X153439285Y-100428571D01*
X153439285Y-99392857D02*
X153439285Y-99821428D01*
X153439285Y-99607142D02*
X152689285Y-99607142D01*
X152796428Y-99678571D01*
X152867857Y-99750000D01*
X152903571Y-99821428D01*
%TO.C,R4*%
X152575000Y-102839285D02*
X152325000Y-102482142D01*
X152146428Y-102839285D02*
X152146428Y-102089285D01*
X152432142Y-102089285D01*
X152503571Y-102125000D01*
X152539285Y-102160714D01*
X152575000Y-102232142D01*
X152575000Y-102339285D01*
X152539285Y-102410714D01*
X152503571Y-102446428D01*
X152432142Y-102482142D01*
X152146428Y-102482142D01*
X153217857Y-102339285D02*
X153217857Y-102839285D01*
X153039285Y-102053571D02*
X152860714Y-102589285D01*
X153325000Y-102589285D01*
%TO.C,R5*%
X152575000Y-97839285D02*
X152325000Y-97482142D01*
X152146428Y-97839285D02*
X152146428Y-97089285D01*
X152432142Y-97089285D01*
X152503571Y-97125000D01*
X152539285Y-97160714D01*
X152575000Y-97232142D01*
X152575000Y-97339285D01*
X152539285Y-97410714D01*
X152503571Y-97446428D01*
X152432142Y-97482142D01*
X152146428Y-97482142D01*
X153253571Y-97089285D02*
X152896428Y-97089285D01*
X152860714Y-97446428D01*
X152896428Y-97410714D01*
X152967857Y-97375000D01*
X153146428Y-97375000D01*
X153217857Y-97410714D01*
X153253571Y-97446428D01*
X153289285Y-97517857D01*
X153289285Y-97696428D01*
X153253571Y-97767857D01*
X153217857Y-97803571D01*
X153146428Y-97839285D01*
X152967857Y-97839285D01*
X152896428Y-97803571D01*
X152860714Y-97767857D01*
%TO.C,R6*%
X147705000Y-107589285D02*
X147455000Y-107232142D01*
X147276428Y-107589285D02*
X147276428Y-106839285D01*
X147562142Y-106839285D01*
X147633571Y-106875000D01*
X147669285Y-106910714D01*
X147705000Y-106982142D01*
X147705000Y-107089285D01*
X147669285Y-107160714D01*
X147633571Y-107196428D01*
X147562142Y-107232142D01*
X147276428Y-107232142D01*
X148347857Y-106839285D02*
X148205000Y-106839285D01*
X148133571Y-106875000D01*
X148097857Y-106910714D01*
X148026428Y-107017857D01*
X147990714Y-107160714D01*
X147990714Y-107446428D01*
X148026428Y-107517857D01*
X148062142Y-107553571D01*
X148133571Y-107589285D01*
X148276428Y-107589285D01*
X148347857Y-107553571D01*
X148383571Y-107517857D01*
X148419285Y-107446428D01*
X148419285Y-107267857D01*
X148383571Y-107196428D01*
X148347857Y-107160714D01*
X148276428Y-107125000D01*
X148133571Y-107125000D01*
X148062142Y-107160714D01*
X148026428Y-107196428D01*
X147990714Y-107267857D01*
%TO.C,R7*%
X147703000Y-103079285D02*
X147453000Y-102722142D01*
X147274428Y-103079285D02*
X147274428Y-102329285D01*
X147560142Y-102329285D01*
X147631571Y-102365000D01*
X147667285Y-102400714D01*
X147703000Y-102472142D01*
X147703000Y-102579285D01*
X147667285Y-102650714D01*
X147631571Y-102686428D01*
X147560142Y-102722142D01*
X147274428Y-102722142D01*
X147953000Y-102329285D02*
X148453000Y-102329285D01*
X148131571Y-103079285D01*
%TO.C,D11*%
X129699285Y-106440714D02*
X128949285Y-106440714D01*
X128949285Y-106262142D01*
X128985000Y-106155000D01*
X129056428Y-106083571D01*
X129127857Y-106047857D01*
X129270714Y-106012142D01*
X129377857Y-106012142D01*
X129520714Y-106047857D01*
X129592142Y-106083571D01*
X129663571Y-106155000D01*
X129699285Y-106262142D01*
X129699285Y-106440714D01*
X129699285Y-105297857D02*
X129699285Y-105726428D01*
X129699285Y-105512142D02*
X128949285Y-105512142D01*
X129056428Y-105583571D01*
X129127857Y-105655000D01*
X129163571Y-105726428D01*
X129699285Y-104583571D02*
X129699285Y-105012142D01*
X129699285Y-104797857D02*
X128949285Y-104797857D01*
X129056428Y-104869285D01*
X129127857Y-104940714D01*
X129163571Y-105012142D01*
%TD*%
M02*
