%TF.GenerationSoftware,KiCad,Pcbnew,5.1.9-73d0e3b20d~88~ubuntu20.04.1*%
%TF.CreationDate,2021-05-17T23:31:09+02:00*%
%TF.ProjectId,wally,77616c6c-792e-46b6-9963-61645f706362,v1.02*%
%TF.SameCoordinates,Original*%
%TF.FileFunction,Copper,L2,Inr*%
%TF.FilePolarity,Positive*%
%FSLAX46Y46*%
G04 Gerber Fmt 4.6, Leading zero omitted, Abs format (unit mm)*
G04 Created by KiCad (PCBNEW 5.1.9-73d0e3b20d~88~ubuntu20.04.1) date 2021-05-17 23:31:09*
%MOMM*%
%LPD*%
G01*
G04 APERTURE LIST*
%TA.AperFunction,ComponentPad*%
%ADD10O,1.600000X1.000000*%
%TD*%
%TA.AperFunction,ComponentPad*%
%ADD11O,2.100000X1.000000*%
%TD*%
%TA.AperFunction,ComponentPad*%
%ADD12R,1.000000X1.000000*%
%TD*%
%TA.AperFunction,ComponentPad*%
%ADD13O,1.000000X1.000000*%
%TD*%
%TA.AperFunction,ComponentPad*%
%ADD14R,1.700000X1.700000*%
%TD*%
%TA.AperFunction,ComponentPad*%
%ADD15O,1.700000X1.700000*%
%TD*%
%TA.AperFunction,ViaPad*%
%ADD16C,0.400000*%
%TD*%
%TA.AperFunction,ViaPad*%
%ADD17C,0.800000*%
%TD*%
%TA.AperFunction,ViaPad*%
%ADD18C,0.700000*%
%TD*%
%TA.AperFunction,ViaPad*%
%ADD19C,0.750000*%
%TD*%
%TA.AperFunction,ViaPad*%
%ADD20C,0.600000*%
%TD*%
%TA.AperFunction,Conductor*%
%ADD21C,0.200000*%
%TD*%
%TA.AperFunction,Conductor*%
%ADD22C,0.254000*%
%TD*%
%TA.AperFunction,Conductor*%
%ADD23C,0.100000*%
%TD*%
G04 APERTURE END LIST*
D10*
%TO.N,N/C*%
%TO.C,J1*%
X172650000Y-95680000D03*
X172650000Y-104320000D03*
D11*
X168470000Y-104320000D03*
X168470000Y-95680000D03*
%TD*%
D12*
%TO.N,+5V*%
%TO.C,J5*%
X140830000Y-104447000D03*
D13*
%TO.N,GND*%
X140830000Y-103177000D03*
%TO.N,hdmi_cec*%
X140830000Y-101907000D03*
%TO.N,hdmi_utility*%
X140830000Y-100637000D03*
%TO.N,hdmi_scl*%
X140830000Y-99367000D03*
%TO.N,hdmi_sda*%
X140830000Y-98097000D03*
%TO.N,hdmi_5v*%
X140830000Y-96827000D03*
%TO.N,hdmi_hpd*%
X140830000Y-95557000D03*
%TD*%
D14*
%TO.N,GND*%
%TO.C,J4*%
X172200000Y-91800000D03*
D15*
%TO.N,swdio*%
X169660000Y-91800000D03*
%TO.N,swclk*%
X167120000Y-91800000D03*
%TO.N,GND*%
X164580000Y-91800000D03*
%TO.N,uart_rx*%
X162040000Y-91800000D03*
%TO.N,uart_tx*%
X159500000Y-91800000D03*
%TD*%
D16*
%TO.N,GND*%
X131000000Y-106800000D03*
X138500000Y-106300000D03*
X135500000Y-106300000D03*
X134000000Y-106800000D03*
D17*
X155190000Y-101770000D03*
D18*
X170530000Y-108240000D03*
D17*
X169120000Y-106340000D03*
X156680000Y-94670000D03*
X148180000Y-92050000D03*
X174000000Y-102000000D03*
X174000000Y-98000000D03*
D18*
X162920000Y-94720000D03*
D16*
X134000000Y-93700000D03*
X131000000Y-93200000D03*
X132500000Y-93200000D03*
D17*
X141775000Y-93200000D03*
X128225000Y-93200000D03*
X128225000Y-106800000D03*
X141775000Y-106800000D03*
D19*
X166850000Y-95850000D03*
X166850000Y-104150000D03*
D20*
X165600000Y-101370000D03*
D19*
X166720000Y-104900000D03*
X166720000Y-95100000D03*
D17*
X163990000Y-107240000D03*
X165020000Y-106340000D03*
D16*
X135500000Y-93200000D03*
X138500000Y-93200000D03*
D17*
X174000000Y-94000000D03*
X126000000Y-100000000D03*
X126000000Y-97000000D03*
X126000000Y-94000000D03*
X126000000Y-103000000D03*
X126000000Y-106000000D03*
X150000000Y-91000000D03*
X153000000Y-91000000D03*
X156000000Y-91000000D03*
X144000000Y-109000000D03*
X147000000Y-109000000D03*
X150000000Y-109000000D03*
X153000000Y-109000000D03*
X156000000Y-109000000D03*
X159020000Y-109000000D03*
X164000000Y-108730000D03*
X152110000Y-106770000D03*
X143460000Y-98705000D03*
D18*
X154960000Y-96315000D03*
D17*
X143470000Y-91305000D03*
X143470000Y-95745000D03*
D16*
X132500000Y-106300000D03*
D17*
X164000000Y-100325000D03*
D20*
X165610000Y-98629952D03*
D18*
%TO.N,+3V3*%
X161370000Y-96890000D03*
X158230000Y-96890000D03*
D17*
X165020000Y-108240000D03*
D18*
X158230000Y-99480000D03*
X153648557Y-100043166D03*
X161370000Y-99669996D03*
D17*
X147140000Y-107230000D03*
X147140000Y-102760012D03*
X169110000Y-108250000D03*
X156380000Y-106600000D03*
D18*
%TO.N,+5V*%
X154960000Y-94765000D03*
D17*
X168870000Y-93800002D03*
X147140000Y-101720000D03*
D16*
%TO.N,hdmi_hpd*%
X139500000Y-106300000D03*
X139500000Y-93200000D03*
%TO.N,hdmi_5v*%
X139000000Y-106800000D03*
X139000000Y-93700000D03*
%TO.N,hdmi_sda*%
X138000000Y-106800000D03*
X138000000Y-93700000D03*
D17*
X142380000Y-101380000D03*
D16*
%TO.N,hdmi_scl*%
X137500000Y-106300000D03*
X137500000Y-93200000D03*
%TO.N,hdmi_utility*%
X137000000Y-106800000D03*
X137000000Y-93700000D03*
%TO.N,hdmi_cec*%
X136500000Y-106300000D03*
X136500000Y-93200000D03*
%TO.N,Net-(J2-Pad12)*%
X136000000Y-106800000D03*
%TO.N,Net-(J2-Pad10)*%
X135000000Y-106800000D03*
%TO.N,Net-(J2-Pad9)*%
X134500000Y-93300000D03*
%TO.N,Net-(J2-Pad7)*%
X133500000Y-93300000D03*
%TO.N,Net-(J2-Pad6)*%
X133000000Y-106800000D03*
%TO.N,Net-(J2-Pad4)*%
X132000000Y-106800000D03*
%TO.N,Net-(J2-Pad3)*%
X131500000Y-93700000D03*
%TO.N,Net-(J2-Pad1)*%
X130500000Y-93700000D03*
D17*
%TO.N,hdmi_5v_en*%
X150000000Y-102120000D03*
X150000000Y-97870000D03*
%TO.N,hdmi_hpd_en*%
X151820000Y-92050000D03*
D18*
X150740000Y-94025000D03*
%TD*%
D21*
%TO.N,GND*%
X135500000Y-93940002D02*
X135500000Y-93200000D01*
X134000000Y-93950000D02*
X134000000Y-93700000D01*
X134000000Y-106800000D02*
X134000000Y-106059998D01*
X132500000Y-106050000D02*
X132500000Y-106300000D01*
X134000000Y-106059998D02*
X134000000Y-105900000D01*
X132500000Y-105950000D02*
X132500000Y-106050000D01*
X132500000Y-105950000D02*
X132500000Y-105900000D01*
X135500000Y-105900000D02*
X135500000Y-106300000D01*
X138500000Y-105900000D02*
X138500000Y-106300000D01*
X138250000Y-105650000D02*
X138500000Y-105900000D01*
X135750000Y-105650000D02*
X138250000Y-105650000D01*
X135500000Y-105900000D02*
X135750000Y-105650000D01*
X132500000Y-93200000D02*
X132500000Y-94200000D01*
X134000000Y-94200000D02*
X134000000Y-93950000D01*
X133850000Y-94350000D02*
X134000000Y-94200000D01*
X132650000Y-94350000D02*
X133850000Y-94350000D01*
X132500000Y-94200000D02*
X132650000Y-94350000D01*
X135500000Y-94150000D02*
X135500000Y-93940002D01*
X135500000Y-94200000D02*
X135500000Y-94150000D01*
X135350000Y-94350000D02*
X135500000Y-94200000D01*
X134150000Y-94350000D02*
X135350000Y-94350000D01*
X134000000Y-94200000D02*
X134150000Y-94350000D01*
X135650000Y-94350000D02*
X135500000Y-94200000D01*
X138350000Y-94350000D02*
X135650000Y-94350000D01*
X138500000Y-94200000D02*
X138350000Y-94350000D01*
X138500000Y-93200000D02*
X138500000Y-94200000D01*
X132630000Y-105650000D02*
X133750000Y-105650000D01*
X132500000Y-105780000D02*
X132630000Y-105650000D01*
X133750000Y-105650000D02*
X134000000Y-105900000D01*
X132500000Y-105900000D02*
X132500000Y-105780000D01*
X132500000Y-105770000D02*
X132500000Y-105900000D01*
X132380000Y-105650000D02*
X132500000Y-105770000D01*
X131000000Y-105770000D02*
X131120000Y-105650000D01*
X131120000Y-105650000D02*
X132380000Y-105650000D01*
X131000000Y-106800000D02*
X131000000Y-105770000D01*
X135500000Y-105800000D02*
X135500000Y-105900000D01*
X135350000Y-105650000D02*
X135500000Y-105800000D01*
X134250000Y-105650000D02*
X135350000Y-105650000D01*
X134000000Y-105900000D02*
X134250000Y-105650000D01*
X132350000Y-94350000D02*
X132500000Y-94200000D01*
X131000000Y-94200000D02*
X131150000Y-94350000D01*
X131150000Y-94350000D02*
X132350000Y-94350000D01*
X131000000Y-93200000D02*
X131000000Y-94200000D01*
%TD*%
D22*
%TO.N,GND*%
X158346525Y-90853368D02*
X158184010Y-91096589D01*
X158072068Y-91366842D01*
X158015000Y-91653740D01*
X158015000Y-91946260D01*
X158072068Y-92233158D01*
X158184010Y-92503411D01*
X158346525Y-92746632D01*
X158553368Y-92953475D01*
X158796589Y-93115990D01*
X159066842Y-93227932D01*
X159353740Y-93285000D01*
X159646260Y-93285000D01*
X159933158Y-93227932D01*
X160203411Y-93115990D01*
X160446632Y-92953475D01*
X160653475Y-92746632D01*
X160770000Y-92572240D01*
X160886525Y-92746632D01*
X161093368Y-92953475D01*
X161336589Y-93115990D01*
X161606842Y-93227932D01*
X161893740Y-93285000D01*
X162186260Y-93285000D01*
X162473158Y-93227932D01*
X162743411Y-93115990D01*
X162986632Y-92953475D01*
X163193475Y-92746632D01*
X163315195Y-92564466D01*
X163384822Y-92681355D01*
X163579731Y-92897588D01*
X163813080Y-93071641D01*
X164075901Y-93196825D01*
X164223110Y-93241476D01*
X164453000Y-93120155D01*
X164453000Y-91927000D01*
X164433000Y-91927000D01*
X164433000Y-91673000D01*
X164453000Y-91673000D01*
X164453000Y-91653000D01*
X164707000Y-91653000D01*
X164707000Y-91673000D01*
X164727000Y-91673000D01*
X164727000Y-91927000D01*
X164707000Y-91927000D01*
X164707000Y-93120155D01*
X164936890Y-93241476D01*
X165084099Y-93196825D01*
X165346920Y-93071641D01*
X165580269Y-92897588D01*
X165775178Y-92681355D01*
X165844805Y-92564466D01*
X165966525Y-92746632D01*
X166173368Y-92953475D01*
X166416589Y-93115990D01*
X166686842Y-93227932D01*
X166973740Y-93285000D01*
X167266260Y-93285000D01*
X167553158Y-93227932D01*
X167823411Y-93115990D01*
X168066632Y-92953475D01*
X168273475Y-92746632D01*
X168390000Y-92572240D01*
X168506525Y-92746632D01*
X168565675Y-92805782D01*
X168379744Y-92882797D01*
X168210226Y-92996065D01*
X168066063Y-93140228D01*
X167952795Y-93309746D01*
X167874774Y-93498104D01*
X167835000Y-93698063D01*
X167835000Y-93901941D01*
X167874774Y-94101900D01*
X167952795Y-94290258D01*
X168066063Y-94459776D01*
X168151287Y-94545000D01*
X167864248Y-94545000D01*
X167697501Y-94561423D01*
X167483553Y-94626324D01*
X167286377Y-94731716D01*
X167113551Y-94873551D01*
X166971716Y-95046377D01*
X166866324Y-95243553D01*
X166801423Y-95457501D01*
X166779509Y-95680000D01*
X166801423Y-95902499D01*
X166866324Y-96116447D01*
X166971716Y-96313623D01*
X167113551Y-96486449D01*
X167286377Y-96628284D01*
X167483553Y-96733676D01*
X167697501Y-96798577D01*
X167864248Y-96815000D01*
X168083096Y-96815000D01*
X168076892Y-96829978D01*
X168040000Y-97015448D01*
X168040000Y-97204552D01*
X168076892Y-97390022D01*
X168149259Y-97564731D01*
X168254319Y-97721964D01*
X168388036Y-97855681D01*
X168545269Y-97960741D01*
X168719978Y-98033108D01*
X168905448Y-98070000D01*
X169094552Y-98070000D01*
X169280022Y-98033108D01*
X169454731Y-97960741D01*
X169611964Y-97855681D01*
X169745681Y-97721964D01*
X169850741Y-97564731D01*
X169923108Y-97390022D01*
X169960000Y-97204552D01*
X169960000Y-97015448D01*
X169923108Y-96829978D01*
X169850741Y-96655269D01*
X169769285Y-96533362D01*
X169826449Y-96486449D01*
X169968284Y-96313623D01*
X170073676Y-96116447D01*
X170138577Y-95902499D01*
X170160491Y-95680000D01*
X171209509Y-95680000D01*
X171231423Y-95902499D01*
X171296324Y-96116447D01*
X171401716Y-96313623D01*
X171543551Y-96486449D01*
X171716377Y-96628284D01*
X171913553Y-96733676D01*
X172127501Y-96798577D01*
X172294248Y-96815000D01*
X173005752Y-96815000D01*
X173172499Y-96798577D01*
X173386447Y-96733676D01*
X173583623Y-96628284D01*
X173756449Y-96486449D01*
X173898284Y-96313623D01*
X174003676Y-96116447D01*
X174068577Y-95902499D01*
X174090491Y-95680000D01*
X174068577Y-95457501D01*
X174003676Y-95243553D01*
X173898284Y-95046377D01*
X173756449Y-94873551D01*
X173583623Y-94731716D01*
X173386447Y-94626324D01*
X173172499Y-94561423D01*
X173005752Y-94545000D01*
X172294248Y-94545000D01*
X172127501Y-94561423D01*
X171913553Y-94626324D01*
X171716377Y-94731716D01*
X171543551Y-94873551D01*
X171401716Y-95046377D01*
X171296324Y-95243553D01*
X171231423Y-95457501D01*
X171209509Y-95680000D01*
X170160491Y-95680000D01*
X170138577Y-95457501D01*
X170073676Y-95243553D01*
X169968284Y-95046377D01*
X169826449Y-94873551D01*
X169653623Y-94731716D01*
X169478573Y-94638150D01*
X169529774Y-94603939D01*
X169673937Y-94459776D01*
X169787205Y-94290258D01*
X169865226Y-94101900D01*
X169905000Y-93901941D01*
X169905000Y-93698063D01*
X169865226Y-93498104D01*
X169787205Y-93309746D01*
X169770670Y-93285000D01*
X169806260Y-93285000D01*
X170093158Y-93227932D01*
X170363411Y-93115990D01*
X170606632Y-92953475D01*
X170738487Y-92821620D01*
X170760498Y-92894180D01*
X170819463Y-93004494D01*
X170898815Y-93101185D01*
X170995506Y-93180537D01*
X171105820Y-93239502D01*
X171225518Y-93275812D01*
X171350000Y-93288072D01*
X171914250Y-93285000D01*
X172073000Y-93126250D01*
X172073000Y-91927000D01*
X172327000Y-91927000D01*
X172327000Y-93126250D01*
X172485750Y-93285000D01*
X173050000Y-93288072D01*
X173174482Y-93275812D01*
X173294180Y-93239502D01*
X173404494Y-93180537D01*
X173501185Y-93101185D01*
X173580537Y-93004494D01*
X173639502Y-92894180D01*
X173675812Y-92774482D01*
X173688072Y-92650000D01*
X173685000Y-92085750D01*
X173526250Y-91927000D01*
X172327000Y-91927000D01*
X172073000Y-91927000D01*
X172053000Y-91927000D01*
X172053000Y-91673000D01*
X172073000Y-91673000D01*
X172073000Y-91653000D01*
X172327000Y-91653000D01*
X172327000Y-91673000D01*
X173526250Y-91673000D01*
X173685000Y-91514250D01*
X173687205Y-91109294D01*
X173794299Y-91196637D01*
X174022806Y-91472856D01*
X174193310Y-91788197D01*
X174299319Y-92130656D01*
X174340000Y-92517712D01*
X174340001Y-107467711D01*
X174301853Y-107856776D01*
X174198238Y-108199964D01*
X174029939Y-108516489D01*
X173803365Y-108794296D01*
X173527146Y-109022805D01*
X173211803Y-109193310D01*
X172869344Y-109299319D01*
X172482288Y-109340000D01*
X127532279Y-109340000D01*
X127143224Y-109301853D01*
X126800036Y-109198238D01*
X126483511Y-109029939D01*
X126205704Y-108803365D01*
X125977195Y-108527146D01*
X125806690Y-108211803D01*
X125700681Y-107869344D01*
X125660000Y-107482288D01*
X125660000Y-106717760D01*
X131165000Y-106717760D01*
X131165000Y-106882240D01*
X131197089Y-107043560D01*
X131260033Y-107195521D01*
X131351413Y-107332281D01*
X131467719Y-107448587D01*
X131604479Y-107539967D01*
X131756440Y-107602911D01*
X131917760Y-107635000D01*
X132082240Y-107635000D01*
X132243560Y-107602911D01*
X132395521Y-107539967D01*
X132500000Y-107470156D01*
X132604479Y-107539967D01*
X132756440Y-107602911D01*
X132917760Y-107635000D01*
X133082240Y-107635000D01*
X133243560Y-107602911D01*
X133395521Y-107539967D01*
X133532281Y-107448587D01*
X133648587Y-107332281D01*
X133739967Y-107195521D01*
X133802911Y-107043560D01*
X133835000Y-106882240D01*
X133835000Y-106717760D01*
X134165000Y-106717760D01*
X134165000Y-106882240D01*
X134197089Y-107043560D01*
X134260033Y-107195521D01*
X134351413Y-107332281D01*
X134467719Y-107448587D01*
X134604479Y-107539967D01*
X134756440Y-107602911D01*
X134917760Y-107635000D01*
X135082240Y-107635000D01*
X135243560Y-107602911D01*
X135395521Y-107539967D01*
X135500000Y-107470156D01*
X135604479Y-107539967D01*
X135756440Y-107602911D01*
X135917760Y-107635000D01*
X136082240Y-107635000D01*
X136243560Y-107602911D01*
X136395521Y-107539967D01*
X136500000Y-107470156D01*
X136604479Y-107539967D01*
X136756440Y-107602911D01*
X136917760Y-107635000D01*
X137082240Y-107635000D01*
X137243560Y-107602911D01*
X137395521Y-107539967D01*
X137500000Y-107470156D01*
X137604479Y-107539967D01*
X137756440Y-107602911D01*
X137917760Y-107635000D01*
X138082240Y-107635000D01*
X138243560Y-107602911D01*
X138395521Y-107539967D01*
X138500000Y-107470156D01*
X138604479Y-107539967D01*
X138756440Y-107602911D01*
X138917760Y-107635000D01*
X139082240Y-107635000D01*
X139243560Y-107602911D01*
X139395521Y-107539967D01*
X139532281Y-107448587D01*
X139648587Y-107332281D01*
X139739967Y-107195521D01*
X139767910Y-107128061D01*
X146105000Y-107128061D01*
X146105000Y-107331939D01*
X146144774Y-107531898D01*
X146222795Y-107720256D01*
X146336063Y-107889774D01*
X146480226Y-108033937D01*
X146649744Y-108147205D01*
X146838102Y-108225226D01*
X147038061Y-108265000D01*
X147241939Y-108265000D01*
X147441898Y-108225226D01*
X147630256Y-108147205D01*
X147643941Y-108138061D01*
X163985000Y-108138061D01*
X163985000Y-108341939D01*
X164024774Y-108541898D01*
X164102795Y-108730256D01*
X164216063Y-108899774D01*
X164360226Y-109043937D01*
X164529744Y-109157205D01*
X164718102Y-109235226D01*
X164918061Y-109275000D01*
X165121939Y-109275000D01*
X165321898Y-109235226D01*
X165510256Y-109157205D01*
X165679774Y-109043937D01*
X165823937Y-108899774D01*
X165937205Y-108730256D01*
X166015226Y-108541898D01*
X166055000Y-108341939D01*
X166055000Y-108148061D01*
X168075000Y-108148061D01*
X168075000Y-108351939D01*
X168114774Y-108551898D01*
X168192795Y-108740256D01*
X168306063Y-108909774D01*
X168450226Y-109053937D01*
X168619744Y-109167205D01*
X168808102Y-109245226D01*
X169008061Y-109285000D01*
X169211939Y-109285000D01*
X169411898Y-109245226D01*
X169600256Y-109167205D01*
X169769774Y-109053937D01*
X169913937Y-108909774D01*
X170027205Y-108740256D01*
X170105226Y-108551898D01*
X170145000Y-108351939D01*
X170145000Y-108148061D01*
X170105226Y-107948102D01*
X170027205Y-107759744D01*
X169913937Y-107590226D01*
X169769774Y-107446063D01*
X169600256Y-107332795D01*
X169411898Y-107254774D01*
X169211939Y-107215000D01*
X169008061Y-107215000D01*
X168808102Y-107254774D01*
X168619744Y-107332795D01*
X168450226Y-107446063D01*
X168306063Y-107590226D01*
X168192795Y-107759744D01*
X168114774Y-107948102D01*
X168075000Y-108148061D01*
X166055000Y-108148061D01*
X166055000Y-108138061D01*
X166015226Y-107938102D01*
X165937205Y-107749744D01*
X165823937Y-107580226D01*
X165679774Y-107436063D01*
X165510256Y-107322795D01*
X165321898Y-107244774D01*
X165121939Y-107205000D01*
X164918061Y-107205000D01*
X164718102Y-107244774D01*
X164529744Y-107322795D01*
X164360226Y-107436063D01*
X164216063Y-107580226D01*
X164102795Y-107749744D01*
X164024774Y-107938102D01*
X163985000Y-108138061D01*
X147643941Y-108138061D01*
X147799774Y-108033937D01*
X147943937Y-107889774D01*
X148057205Y-107720256D01*
X148135226Y-107531898D01*
X148175000Y-107331939D01*
X148175000Y-107128061D01*
X148135226Y-106928102D01*
X148057205Y-106739744D01*
X147943937Y-106570226D01*
X147871772Y-106498061D01*
X155345000Y-106498061D01*
X155345000Y-106701939D01*
X155384774Y-106901898D01*
X155462795Y-107090256D01*
X155576063Y-107259774D01*
X155720226Y-107403937D01*
X155889744Y-107517205D01*
X156078102Y-107595226D01*
X156278061Y-107635000D01*
X156481939Y-107635000D01*
X156681898Y-107595226D01*
X156870256Y-107517205D01*
X157039774Y-107403937D01*
X157183937Y-107259774D01*
X157297205Y-107090256D01*
X157375226Y-106901898D01*
X157415000Y-106701939D01*
X157415000Y-106498061D01*
X157375226Y-106298102D01*
X157297205Y-106109744D01*
X157183937Y-105940226D01*
X157039774Y-105796063D01*
X156870256Y-105682795D01*
X156681898Y-105604774D01*
X156481939Y-105565000D01*
X156278061Y-105565000D01*
X156078102Y-105604774D01*
X155889744Y-105682795D01*
X155720226Y-105796063D01*
X155576063Y-105940226D01*
X155462795Y-106109744D01*
X155384774Y-106298102D01*
X155345000Y-106498061D01*
X147871772Y-106498061D01*
X147799774Y-106426063D01*
X147630256Y-106312795D01*
X147441898Y-106234774D01*
X147241939Y-106195000D01*
X147038061Y-106195000D01*
X146838102Y-106234774D01*
X146649744Y-106312795D01*
X146480226Y-106426063D01*
X146336063Y-106570226D01*
X146222795Y-106739744D01*
X146144774Y-106928102D01*
X146105000Y-107128061D01*
X139767910Y-107128061D01*
X139785528Y-107085528D01*
X139895521Y-107039967D01*
X140032281Y-106948587D01*
X140148587Y-106832281D01*
X140239967Y-106695521D01*
X140302911Y-106543560D01*
X140335000Y-106382240D01*
X140335000Y-106217760D01*
X140302911Y-106056440D01*
X140239967Y-105904479D01*
X140148587Y-105767719D01*
X140032281Y-105651413D01*
X139895521Y-105560033D01*
X139743560Y-105497089D01*
X139582240Y-105465000D01*
X139417760Y-105465000D01*
X139256440Y-105497089D01*
X139104479Y-105560033D01*
X138967719Y-105651413D01*
X138851413Y-105767719D01*
X138760033Y-105904479D01*
X138714472Y-106014472D01*
X138604479Y-106060033D01*
X138500000Y-106129844D01*
X138395521Y-106060033D01*
X138285528Y-106014472D01*
X138239967Y-105904479D01*
X138148587Y-105767719D01*
X138032281Y-105651413D01*
X137895521Y-105560033D01*
X137743560Y-105497089D01*
X137582240Y-105465000D01*
X137417760Y-105465000D01*
X137256440Y-105497089D01*
X137104479Y-105560033D01*
X137000000Y-105629844D01*
X136895521Y-105560033D01*
X136743560Y-105497089D01*
X136582240Y-105465000D01*
X136417760Y-105465000D01*
X136256440Y-105497089D01*
X136104479Y-105560033D01*
X135967719Y-105651413D01*
X135851413Y-105767719D01*
X135760033Y-105904479D01*
X135714472Y-106014472D01*
X135604479Y-106060033D01*
X135500000Y-106129844D01*
X135395521Y-106060033D01*
X135243560Y-105997089D01*
X135082240Y-105965000D01*
X134917760Y-105965000D01*
X134756440Y-105997089D01*
X134604479Y-106060033D01*
X134467719Y-106151413D01*
X134351413Y-106267719D01*
X134260033Y-106404479D01*
X134197089Y-106556440D01*
X134165000Y-106717760D01*
X133835000Y-106717760D01*
X133802911Y-106556440D01*
X133739967Y-106404479D01*
X133648587Y-106267719D01*
X133532281Y-106151413D01*
X133395521Y-106060033D01*
X133243560Y-105997089D01*
X133082240Y-105965000D01*
X132917760Y-105965000D01*
X132756440Y-105997089D01*
X132604479Y-106060033D01*
X132500000Y-106129844D01*
X132395521Y-106060033D01*
X132243560Y-105997089D01*
X132082240Y-105965000D01*
X131917760Y-105965000D01*
X131756440Y-105997089D01*
X131604479Y-106060033D01*
X131467719Y-106151413D01*
X131351413Y-106267719D01*
X131260033Y-106404479D01*
X131197089Y-106556440D01*
X131165000Y-106717760D01*
X125660000Y-106717760D01*
X125660000Y-103947000D01*
X139691928Y-103947000D01*
X139691928Y-104947000D01*
X139704188Y-105071482D01*
X139740498Y-105191180D01*
X139799463Y-105301494D01*
X139878815Y-105398185D01*
X139975506Y-105477537D01*
X140085820Y-105536502D01*
X140205518Y-105572812D01*
X140330000Y-105585072D01*
X141330000Y-105585072D01*
X141454482Y-105572812D01*
X141574180Y-105536502D01*
X141684494Y-105477537D01*
X141781185Y-105398185D01*
X141860537Y-105301494D01*
X141919502Y-105191180D01*
X141955812Y-105071482D01*
X141968072Y-104947000D01*
X141968072Y-104320000D01*
X166779509Y-104320000D01*
X166801423Y-104542499D01*
X166866324Y-104756447D01*
X166971716Y-104953623D01*
X167113551Y-105126449D01*
X167286377Y-105268284D01*
X167483553Y-105373676D01*
X167697501Y-105438577D01*
X167864248Y-105455000D01*
X169075752Y-105455000D01*
X169242499Y-105438577D01*
X169456447Y-105373676D01*
X169653623Y-105268284D01*
X169826449Y-105126449D01*
X169968284Y-104953623D01*
X170073676Y-104756447D01*
X170138577Y-104542499D01*
X170160491Y-104320000D01*
X171209509Y-104320000D01*
X171231423Y-104542499D01*
X171296324Y-104756447D01*
X171401716Y-104953623D01*
X171543551Y-105126449D01*
X171716377Y-105268284D01*
X171913553Y-105373676D01*
X172127501Y-105438577D01*
X172294248Y-105455000D01*
X173005752Y-105455000D01*
X173172499Y-105438577D01*
X173386447Y-105373676D01*
X173583623Y-105268284D01*
X173756449Y-105126449D01*
X173898284Y-104953623D01*
X174003676Y-104756447D01*
X174068577Y-104542499D01*
X174090491Y-104320000D01*
X174068577Y-104097501D01*
X174003676Y-103883553D01*
X173898284Y-103686377D01*
X173756449Y-103513551D01*
X173583623Y-103371716D01*
X173386447Y-103266324D01*
X173172499Y-103201423D01*
X173005752Y-103185000D01*
X172294248Y-103185000D01*
X172127501Y-103201423D01*
X171913553Y-103266324D01*
X171716377Y-103371716D01*
X171543551Y-103513551D01*
X171401716Y-103686377D01*
X171296324Y-103883553D01*
X171231423Y-104097501D01*
X171209509Y-104320000D01*
X170160491Y-104320000D01*
X170138577Y-104097501D01*
X170073676Y-103883553D01*
X169968284Y-103686377D01*
X169826449Y-103513551D01*
X169769285Y-103466638D01*
X169850741Y-103344731D01*
X169923108Y-103170022D01*
X169960000Y-102984552D01*
X169960000Y-102795448D01*
X169923108Y-102609978D01*
X169850741Y-102435269D01*
X169745681Y-102278036D01*
X169611964Y-102144319D01*
X169454731Y-102039259D01*
X169280022Y-101966892D01*
X169094552Y-101930000D01*
X168905448Y-101930000D01*
X168719978Y-101966892D01*
X168545269Y-102039259D01*
X168388036Y-102144319D01*
X168254319Y-102278036D01*
X168149259Y-102435269D01*
X168076892Y-102609978D01*
X168040000Y-102795448D01*
X168040000Y-102984552D01*
X168076892Y-103170022D01*
X168083096Y-103185000D01*
X167864248Y-103185000D01*
X167697501Y-103201423D01*
X167483553Y-103266324D01*
X167286377Y-103371716D01*
X167113551Y-103513551D01*
X166971716Y-103686377D01*
X166866324Y-103883553D01*
X166801423Y-104097501D01*
X166779509Y-104320000D01*
X141968072Y-104320000D01*
X141968072Y-103947000D01*
X141955812Y-103822518D01*
X141919502Y-103702820D01*
X141871930Y-103613820D01*
X141907446Y-103533864D01*
X141924119Y-103478874D01*
X141797954Y-103304000D01*
X140957000Y-103304000D01*
X140957000Y-103308928D01*
X140703000Y-103308928D01*
X140703000Y-103304000D01*
X139862046Y-103304000D01*
X139735881Y-103478874D01*
X139752554Y-103533864D01*
X139788070Y-103613820D01*
X139740498Y-103702820D01*
X139704188Y-103822518D01*
X139691928Y-103947000D01*
X125660000Y-103947000D01*
X125660000Y-95445212D01*
X139695000Y-95445212D01*
X139695000Y-95668788D01*
X139738617Y-95888067D01*
X139824176Y-96094624D01*
X139889241Y-96192000D01*
X139824176Y-96289376D01*
X139738617Y-96495933D01*
X139695000Y-96715212D01*
X139695000Y-96938788D01*
X139738617Y-97158067D01*
X139824176Y-97364624D01*
X139889241Y-97462000D01*
X139824176Y-97559376D01*
X139738617Y-97765933D01*
X139695000Y-97985212D01*
X139695000Y-98208788D01*
X139738617Y-98428067D01*
X139824176Y-98634624D01*
X139889241Y-98732000D01*
X139824176Y-98829376D01*
X139738617Y-99035933D01*
X139695000Y-99255212D01*
X139695000Y-99478788D01*
X139738617Y-99698067D01*
X139824176Y-99904624D01*
X139889241Y-100002000D01*
X139824176Y-100099376D01*
X139738617Y-100305933D01*
X139695000Y-100525212D01*
X139695000Y-100748788D01*
X139738617Y-100968067D01*
X139824176Y-101174624D01*
X139889241Y-101272000D01*
X139824176Y-101369376D01*
X139738617Y-101575933D01*
X139695000Y-101795212D01*
X139695000Y-102018788D01*
X139738617Y-102238067D01*
X139824176Y-102444624D01*
X139892353Y-102546658D01*
X139842877Y-102616794D01*
X139752554Y-102820136D01*
X139735881Y-102875126D01*
X139862046Y-103050000D01*
X140703000Y-103050000D01*
X140703000Y-103038974D01*
X140718212Y-103042000D01*
X140941788Y-103042000D01*
X140957000Y-103038974D01*
X140957000Y-103050000D01*
X141797954Y-103050000D01*
X141924119Y-102875126D01*
X141907446Y-102820136D01*
X141817123Y-102616794D01*
X141767647Y-102546658D01*
X141835824Y-102444624D01*
X141895841Y-102299731D01*
X142078102Y-102375226D01*
X142278061Y-102415000D01*
X142481939Y-102415000D01*
X142681898Y-102375226D01*
X142870256Y-102297205D01*
X143039774Y-102183937D01*
X143183937Y-102039774D01*
X143297205Y-101870256D01*
X143375226Y-101681898D01*
X143387923Y-101618061D01*
X146105000Y-101618061D01*
X146105000Y-101821939D01*
X146144774Y-102021898D01*
X146222795Y-102210256D01*
X146242673Y-102240006D01*
X146222795Y-102269756D01*
X146144774Y-102458114D01*
X146105000Y-102658073D01*
X146105000Y-102861951D01*
X146144774Y-103061910D01*
X146222795Y-103250268D01*
X146336063Y-103419786D01*
X146480226Y-103563949D01*
X146649744Y-103677217D01*
X146838102Y-103755238D01*
X147038061Y-103795012D01*
X147241939Y-103795012D01*
X147441898Y-103755238D01*
X147630256Y-103677217D01*
X147799774Y-103563949D01*
X147943937Y-103419786D01*
X148057205Y-103250268D01*
X148135226Y-103061910D01*
X148175000Y-102861951D01*
X148175000Y-102658073D01*
X148135226Y-102458114D01*
X148057205Y-102269756D01*
X148037327Y-102240006D01*
X148057205Y-102210256D01*
X148135226Y-102021898D01*
X148135989Y-102018061D01*
X148965000Y-102018061D01*
X148965000Y-102221939D01*
X149004774Y-102421898D01*
X149082795Y-102610256D01*
X149196063Y-102779774D01*
X149340226Y-102923937D01*
X149509744Y-103037205D01*
X149698102Y-103115226D01*
X149898061Y-103155000D01*
X150101939Y-103155000D01*
X150301898Y-103115226D01*
X150490256Y-103037205D01*
X150659774Y-102923937D01*
X150803937Y-102779774D01*
X150917205Y-102610256D01*
X150995226Y-102421898D01*
X151035000Y-102221939D01*
X151035000Y-102018061D01*
X150995226Y-101818102D01*
X150917205Y-101629744D01*
X150803937Y-101460226D01*
X150659774Y-101316063D01*
X150490256Y-101202795D01*
X150301898Y-101124774D01*
X150101939Y-101085000D01*
X149898061Y-101085000D01*
X149698102Y-101124774D01*
X149509744Y-101202795D01*
X149340226Y-101316063D01*
X149196063Y-101460226D01*
X149082795Y-101629744D01*
X149004774Y-101818102D01*
X148965000Y-102018061D01*
X148135989Y-102018061D01*
X148175000Y-101821939D01*
X148175000Y-101618061D01*
X148135226Y-101418102D01*
X148057205Y-101229744D01*
X147943937Y-101060226D01*
X147799774Y-100916063D01*
X147630256Y-100802795D01*
X147441898Y-100724774D01*
X147241939Y-100685000D01*
X147038061Y-100685000D01*
X146838102Y-100724774D01*
X146649744Y-100802795D01*
X146480226Y-100916063D01*
X146336063Y-101060226D01*
X146222795Y-101229744D01*
X146144774Y-101418102D01*
X146105000Y-101618061D01*
X143387923Y-101618061D01*
X143415000Y-101481939D01*
X143415000Y-101278061D01*
X143375226Y-101078102D01*
X143297205Y-100889744D01*
X143183937Y-100720226D01*
X143039774Y-100576063D01*
X142870256Y-100462795D01*
X142681898Y-100384774D01*
X142481939Y-100345000D01*
X142278061Y-100345000D01*
X142078102Y-100384774D01*
X141947801Y-100438747D01*
X141921383Y-100305933D01*
X141835824Y-100099376D01*
X141770759Y-100002000D01*
X141808075Y-99946152D01*
X152663557Y-99946152D01*
X152663557Y-100140180D01*
X152701410Y-100330480D01*
X152775661Y-100509738D01*
X152883458Y-100671067D01*
X153020656Y-100808265D01*
X153181985Y-100916062D01*
X153361243Y-100990313D01*
X153551543Y-101028166D01*
X153745571Y-101028166D01*
X153935871Y-100990313D01*
X154115129Y-100916062D01*
X154276458Y-100808265D01*
X154413656Y-100671067D01*
X154521453Y-100509738D01*
X154595704Y-100330480D01*
X154633557Y-100140180D01*
X154633557Y-99946152D01*
X154595704Y-99755852D01*
X154521453Y-99576594D01*
X154413656Y-99415265D01*
X154381377Y-99382986D01*
X157245000Y-99382986D01*
X157245000Y-99577014D01*
X157282853Y-99767314D01*
X157357104Y-99946572D01*
X157464901Y-100107901D01*
X157602099Y-100245099D01*
X157763428Y-100352896D01*
X157942686Y-100427147D01*
X158132986Y-100465000D01*
X158327014Y-100465000D01*
X158517314Y-100427147D01*
X158696572Y-100352896D01*
X158857901Y-100245099D01*
X158995099Y-100107901D01*
X159102896Y-99946572D01*
X159177147Y-99767314D01*
X159215000Y-99577014D01*
X159215000Y-99572982D01*
X160385000Y-99572982D01*
X160385000Y-99767010D01*
X160422853Y-99957310D01*
X160497104Y-100136568D01*
X160604901Y-100297897D01*
X160742099Y-100435095D01*
X160903428Y-100542892D01*
X161082686Y-100617143D01*
X161272986Y-100654996D01*
X161467014Y-100654996D01*
X161657314Y-100617143D01*
X161836572Y-100542892D01*
X161997901Y-100435095D01*
X162135099Y-100297897D01*
X162242896Y-100136568D01*
X162317147Y-99957310D01*
X162355000Y-99767010D01*
X162355000Y-99572982D01*
X162317147Y-99382682D01*
X162242896Y-99203424D01*
X162135099Y-99042095D01*
X161997901Y-98904897D01*
X161836572Y-98797100D01*
X161657314Y-98722849D01*
X161467014Y-98684996D01*
X161272986Y-98684996D01*
X161082686Y-98722849D01*
X160903428Y-98797100D01*
X160742099Y-98904897D01*
X160604901Y-99042095D01*
X160497104Y-99203424D01*
X160422853Y-99382682D01*
X160385000Y-99572982D01*
X159215000Y-99572982D01*
X159215000Y-99382986D01*
X159177147Y-99192686D01*
X159102896Y-99013428D01*
X158995099Y-98852099D01*
X158857901Y-98714901D01*
X158696572Y-98607104D01*
X158517314Y-98532853D01*
X158327014Y-98495000D01*
X158132986Y-98495000D01*
X157942686Y-98532853D01*
X157763428Y-98607104D01*
X157602099Y-98714901D01*
X157464901Y-98852099D01*
X157357104Y-99013428D01*
X157282853Y-99192686D01*
X157245000Y-99382986D01*
X154381377Y-99382986D01*
X154276458Y-99278067D01*
X154115129Y-99170270D01*
X153935871Y-99096019D01*
X153745571Y-99058166D01*
X153551543Y-99058166D01*
X153361243Y-99096019D01*
X153181985Y-99170270D01*
X153020656Y-99278067D01*
X152883458Y-99415265D01*
X152775661Y-99576594D01*
X152701410Y-99755852D01*
X152663557Y-99946152D01*
X141808075Y-99946152D01*
X141835824Y-99904624D01*
X141921383Y-99698067D01*
X141965000Y-99478788D01*
X141965000Y-99255212D01*
X141921383Y-99035933D01*
X141835824Y-98829376D01*
X141770759Y-98732000D01*
X141835824Y-98634624D01*
X141921383Y-98428067D01*
X141965000Y-98208788D01*
X141965000Y-97985212D01*
X141921807Y-97768061D01*
X148965000Y-97768061D01*
X148965000Y-97971939D01*
X149004774Y-98171898D01*
X149082795Y-98360256D01*
X149196063Y-98529774D01*
X149340226Y-98673937D01*
X149509744Y-98787205D01*
X149698102Y-98865226D01*
X149898061Y-98905000D01*
X150101939Y-98905000D01*
X150301898Y-98865226D01*
X150490256Y-98787205D01*
X150659774Y-98673937D01*
X150803937Y-98529774D01*
X150917205Y-98360256D01*
X150995226Y-98171898D01*
X151035000Y-97971939D01*
X151035000Y-97768061D01*
X150995226Y-97568102D01*
X150917205Y-97379744D01*
X150803937Y-97210226D01*
X150659774Y-97066063D01*
X150490256Y-96952795D01*
X150301898Y-96874774D01*
X150101939Y-96835000D01*
X149898061Y-96835000D01*
X149698102Y-96874774D01*
X149509744Y-96952795D01*
X149340226Y-97066063D01*
X149196063Y-97210226D01*
X149082795Y-97379744D01*
X149004774Y-97568102D01*
X148965000Y-97768061D01*
X141921807Y-97768061D01*
X141921383Y-97765933D01*
X141835824Y-97559376D01*
X141770759Y-97462000D01*
X141835824Y-97364624D01*
X141921383Y-97158067D01*
X141965000Y-96938788D01*
X141965000Y-96792986D01*
X157245000Y-96792986D01*
X157245000Y-96987014D01*
X157282853Y-97177314D01*
X157357104Y-97356572D01*
X157464901Y-97517901D01*
X157602099Y-97655099D01*
X157763428Y-97762896D01*
X157942686Y-97837147D01*
X158132986Y-97875000D01*
X158327014Y-97875000D01*
X158517314Y-97837147D01*
X158696572Y-97762896D01*
X158857901Y-97655099D01*
X158995099Y-97517901D01*
X159102896Y-97356572D01*
X159177147Y-97177314D01*
X159215000Y-96987014D01*
X159215000Y-96792986D01*
X160385000Y-96792986D01*
X160385000Y-96987014D01*
X160422853Y-97177314D01*
X160497104Y-97356572D01*
X160604901Y-97517901D01*
X160742099Y-97655099D01*
X160903428Y-97762896D01*
X161082686Y-97837147D01*
X161272986Y-97875000D01*
X161467014Y-97875000D01*
X161657314Y-97837147D01*
X161836572Y-97762896D01*
X161997901Y-97655099D01*
X162135099Y-97517901D01*
X162242896Y-97356572D01*
X162317147Y-97177314D01*
X162355000Y-96987014D01*
X162355000Y-96792986D01*
X162317147Y-96602686D01*
X162242896Y-96423428D01*
X162135099Y-96262099D01*
X161997901Y-96124901D01*
X161836572Y-96017104D01*
X161657314Y-95942853D01*
X161467014Y-95905000D01*
X161272986Y-95905000D01*
X161082686Y-95942853D01*
X160903428Y-96017104D01*
X160742099Y-96124901D01*
X160604901Y-96262099D01*
X160497104Y-96423428D01*
X160422853Y-96602686D01*
X160385000Y-96792986D01*
X159215000Y-96792986D01*
X159177147Y-96602686D01*
X159102896Y-96423428D01*
X158995099Y-96262099D01*
X158857901Y-96124901D01*
X158696572Y-96017104D01*
X158517314Y-95942853D01*
X158327014Y-95905000D01*
X158132986Y-95905000D01*
X157942686Y-95942853D01*
X157763428Y-96017104D01*
X157602099Y-96124901D01*
X157464901Y-96262099D01*
X157357104Y-96423428D01*
X157282853Y-96602686D01*
X157245000Y-96792986D01*
X141965000Y-96792986D01*
X141965000Y-96715212D01*
X141921383Y-96495933D01*
X141835824Y-96289376D01*
X141770759Y-96192000D01*
X141835824Y-96094624D01*
X141921383Y-95888067D01*
X141965000Y-95668788D01*
X141965000Y-95445212D01*
X141921383Y-95225933D01*
X141835824Y-95019376D01*
X141711612Y-94833480D01*
X141553520Y-94675388D01*
X141367624Y-94551176D01*
X141161067Y-94465617D01*
X140941788Y-94422000D01*
X140718212Y-94422000D01*
X140498933Y-94465617D01*
X140292376Y-94551176D01*
X140106480Y-94675388D01*
X139948388Y-94833480D01*
X139824176Y-95019376D01*
X139738617Y-95225933D01*
X139695000Y-95445212D01*
X125660000Y-95445212D01*
X125660000Y-93617760D01*
X129665000Y-93617760D01*
X129665000Y-93782240D01*
X129697089Y-93943560D01*
X129760033Y-94095521D01*
X129851413Y-94232281D01*
X129967719Y-94348587D01*
X130104479Y-94439967D01*
X130256440Y-94502911D01*
X130417760Y-94535000D01*
X130582240Y-94535000D01*
X130743560Y-94502911D01*
X130895521Y-94439967D01*
X131000000Y-94370156D01*
X131104479Y-94439967D01*
X131256440Y-94502911D01*
X131417760Y-94535000D01*
X131582240Y-94535000D01*
X131743560Y-94502911D01*
X131895521Y-94439967D01*
X132032281Y-94348587D01*
X132148587Y-94232281D01*
X132239967Y-94095521D01*
X132302911Y-93943560D01*
X132335000Y-93782240D01*
X132335000Y-93617760D01*
X132302911Y-93456440D01*
X132239967Y-93304479D01*
X132182024Y-93217760D01*
X132665000Y-93217760D01*
X132665000Y-93382240D01*
X132697089Y-93543560D01*
X132760033Y-93695521D01*
X132851413Y-93832281D01*
X132967719Y-93948587D01*
X133104479Y-94039967D01*
X133256440Y-94102911D01*
X133417760Y-94135000D01*
X133582240Y-94135000D01*
X133743560Y-94102911D01*
X133895521Y-94039967D01*
X134000000Y-93970156D01*
X134104479Y-94039967D01*
X134256440Y-94102911D01*
X134417760Y-94135000D01*
X134582240Y-94135000D01*
X134743560Y-94102911D01*
X134895521Y-94039967D01*
X135032281Y-93948587D01*
X135148587Y-93832281D01*
X135239967Y-93695521D01*
X135302911Y-93543560D01*
X135335000Y-93382240D01*
X135335000Y-93217760D01*
X135315109Y-93117760D01*
X135665000Y-93117760D01*
X135665000Y-93282240D01*
X135697089Y-93443560D01*
X135760033Y-93595521D01*
X135851413Y-93732281D01*
X135967719Y-93848587D01*
X136104479Y-93939967D01*
X136214472Y-93985528D01*
X136260033Y-94095521D01*
X136351413Y-94232281D01*
X136467719Y-94348587D01*
X136604479Y-94439967D01*
X136756440Y-94502911D01*
X136917760Y-94535000D01*
X137082240Y-94535000D01*
X137243560Y-94502911D01*
X137395521Y-94439967D01*
X137500000Y-94370156D01*
X137604479Y-94439967D01*
X137756440Y-94502911D01*
X137917760Y-94535000D01*
X138082240Y-94535000D01*
X138243560Y-94502911D01*
X138395521Y-94439967D01*
X138500000Y-94370156D01*
X138604479Y-94439967D01*
X138756440Y-94502911D01*
X138917760Y-94535000D01*
X139082240Y-94535000D01*
X139243560Y-94502911D01*
X139395521Y-94439967D01*
X139532281Y-94348587D01*
X139648587Y-94232281D01*
X139739967Y-94095521D01*
X139785528Y-93985528D01*
X139895521Y-93939967D01*
X139913451Y-93927986D01*
X149755000Y-93927986D01*
X149755000Y-94122014D01*
X149792853Y-94312314D01*
X149867104Y-94491572D01*
X149974901Y-94652901D01*
X150112099Y-94790099D01*
X150273428Y-94897896D01*
X150452686Y-94972147D01*
X150642986Y-95010000D01*
X150837014Y-95010000D01*
X151027314Y-94972147D01*
X151206572Y-94897896D01*
X151367901Y-94790099D01*
X151490014Y-94667986D01*
X153975000Y-94667986D01*
X153975000Y-94862014D01*
X154012853Y-95052314D01*
X154087104Y-95231572D01*
X154194901Y-95392901D01*
X154332099Y-95530099D01*
X154493428Y-95637896D01*
X154672686Y-95712147D01*
X154862986Y-95750000D01*
X155057014Y-95750000D01*
X155247314Y-95712147D01*
X155426572Y-95637896D01*
X155587901Y-95530099D01*
X155725099Y-95392901D01*
X155832896Y-95231572D01*
X155907147Y-95052314D01*
X155945000Y-94862014D01*
X155945000Y-94667986D01*
X155907147Y-94477686D01*
X155832896Y-94298428D01*
X155725099Y-94137099D01*
X155587901Y-93999901D01*
X155426572Y-93892104D01*
X155247314Y-93817853D01*
X155057014Y-93780000D01*
X154862986Y-93780000D01*
X154672686Y-93817853D01*
X154493428Y-93892104D01*
X154332099Y-93999901D01*
X154194901Y-94137099D01*
X154087104Y-94298428D01*
X154012853Y-94477686D01*
X153975000Y-94667986D01*
X151490014Y-94667986D01*
X151505099Y-94652901D01*
X151612896Y-94491572D01*
X151687147Y-94312314D01*
X151725000Y-94122014D01*
X151725000Y-93927986D01*
X151687147Y-93737686D01*
X151612896Y-93558428D01*
X151505099Y-93397099D01*
X151367901Y-93259901D01*
X151206572Y-93152104D01*
X151027314Y-93077853D01*
X150837014Y-93040000D01*
X150642986Y-93040000D01*
X150452686Y-93077853D01*
X150273428Y-93152104D01*
X150112099Y-93259901D01*
X149974901Y-93397099D01*
X149867104Y-93558428D01*
X149792853Y-93737686D01*
X149755000Y-93927986D01*
X139913451Y-93927986D01*
X140032281Y-93848587D01*
X140148587Y-93732281D01*
X140239967Y-93595521D01*
X140302911Y-93443560D01*
X140335000Y-93282240D01*
X140335000Y-93117760D01*
X140302911Y-92956440D01*
X140239967Y-92804479D01*
X140148587Y-92667719D01*
X140032281Y-92551413D01*
X139895521Y-92460033D01*
X139743560Y-92397089D01*
X139582240Y-92365000D01*
X139417760Y-92365000D01*
X139256440Y-92397089D01*
X139104479Y-92460033D01*
X138967719Y-92551413D01*
X138851413Y-92667719D01*
X138760033Y-92804479D01*
X138714472Y-92914472D01*
X138604479Y-92960033D01*
X138500000Y-93029844D01*
X138395521Y-92960033D01*
X138285528Y-92914472D01*
X138239967Y-92804479D01*
X138148587Y-92667719D01*
X138032281Y-92551413D01*
X137895521Y-92460033D01*
X137743560Y-92397089D01*
X137582240Y-92365000D01*
X137417760Y-92365000D01*
X137256440Y-92397089D01*
X137104479Y-92460033D01*
X137000000Y-92529844D01*
X136895521Y-92460033D01*
X136743560Y-92397089D01*
X136582240Y-92365000D01*
X136417760Y-92365000D01*
X136256440Y-92397089D01*
X136104479Y-92460033D01*
X135967719Y-92551413D01*
X135851413Y-92667719D01*
X135760033Y-92804479D01*
X135697089Y-92956440D01*
X135665000Y-93117760D01*
X135315109Y-93117760D01*
X135302911Y-93056440D01*
X135239967Y-92904479D01*
X135148587Y-92767719D01*
X135032281Y-92651413D01*
X134895521Y-92560033D01*
X134743560Y-92497089D01*
X134582240Y-92465000D01*
X134417760Y-92465000D01*
X134256440Y-92497089D01*
X134104479Y-92560033D01*
X134000000Y-92629844D01*
X133895521Y-92560033D01*
X133743560Y-92497089D01*
X133582240Y-92465000D01*
X133417760Y-92465000D01*
X133256440Y-92497089D01*
X133104479Y-92560033D01*
X132967719Y-92651413D01*
X132851413Y-92767719D01*
X132760033Y-92904479D01*
X132697089Y-93056440D01*
X132665000Y-93217760D01*
X132182024Y-93217760D01*
X132148587Y-93167719D01*
X132032281Y-93051413D01*
X131895521Y-92960033D01*
X131743560Y-92897089D01*
X131582240Y-92865000D01*
X131417760Y-92865000D01*
X131256440Y-92897089D01*
X131104479Y-92960033D01*
X131000000Y-93029844D01*
X130895521Y-92960033D01*
X130743560Y-92897089D01*
X130582240Y-92865000D01*
X130417760Y-92865000D01*
X130256440Y-92897089D01*
X130104479Y-92960033D01*
X129967719Y-93051413D01*
X129851413Y-93167719D01*
X129760033Y-93304479D01*
X129697089Y-93456440D01*
X129665000Y-93617760D01*
X125660000Y-93617760D01*
X125660000Y-92532279D01*
X125698147Y-92143225D01*
X125757070Y-91948061D01*
X150785000Y-91948061D01*
X150785000Y-92151939D01*
X150824774Y-92351898D01*
X150902795Y-92540256D01*
X151016063Y-92709774D01*
X151160226Y-92853937D01*
X151329744Y-92967205D01*
X151518102Y-93045226D01*
X151718061Y-93085000D01*
X151921939Y-93085000D01*
X152121898Y-93045226D01*
X152310256Y-92967205D01*
X152479774Y-92853937D01*
X152623937Y-92709774D01*
X152737205Y-92540256D01*
X152815226Y-92351898D01*
X152855000Y-92151939D01*
X152855000Y-91948061D01*
X152815226Y-91748102D01*
X152737205Y-91559744D01*
X152623937Y-91390226D01*
X152479774Y-91246063D01*
X152310256Y-91132795D01*
X152121898Y-91054774D01*
X151921939Y-91015000D01*
X151718061Y-91015000D01*
X151518102Y-91054774D01*
X151329744Y-91132795D01*
X151160226Y-91246063D01*
X151016063Y-91390226D01*
X150902795Y-91559744D01*
X150824774Y-91748102D01*
X150785000Y-91948061D01*
X125757070Y-91948061D01*
X125801763Y-91800033D01*
X125970062Y-91483511D01*
X126196637Y-91205701D01*
X126472856Y-90977194D01*
X126788197Y-90806690D01*
X127130656Y-90700681D01*
X127517712Y-90660000D01*
X158539893Y-90660000D01*
X158346525Y-90853368D01*
%TA.AperFunction,Conductor*%
D23*
G36*
X158346525Y-90853368D02*
G01*
X158184010Y-91096589D01*
X158072068Y-91366842D01*
X158015000Y-91653740D01*
X158015000Y-91946260D01*
X158072068Y-92233158D01*
X158184010Y-92503411D01*
X158346525Y-92746632D01*
X158553368Y-92953475D01*
X158796589Y-93115990D01*
X159066842Y-93227932D01*
X159353740Y-93285000D01*
X159646260Y-93285000D01*
X159933158Y-93227932D01*
X160203411Y-93115990D01*
X160446632Y-92953475D01*
X160653475Y-92746632D01*
X160770000Y-92572240D01*
X160886525Y-92746632D01*
X161093368Y-92953475D01*
X161336589Y-93115990D01*
X161606842Y-93227932D01*
X161893740Y-93285000D01*
X162186260Y-93285000D01*
X162473158Y-93227932D01*
X162743411Y-93115990D01*
X162986632Y-92953475D01*
X163193475Y-92746632D01*
X163315195Y-92564466D01*
X163384822Y-92681355D01*
X163579731Y-92897588D01*
X163813080Y-93071641D01*
X164075901Y-93196825D01*
X164223110Y-93241476D01*
X164453000Y-93120155D01*
X164453000Y-91927000D01*
X164433000Y-91927000D01*
X164433000Y-91673000D01*
X164453000Y-91673000D01*
X164453000Y-91653000D01*
X164707000Y-91653000D01*
X164707000Y-91673000D01*
X164727000Y-91673000D01*
X164727000Y-91927000D01*
X164707000Y-91927000D01*
X164707000Y-93120155D01*
X164936890Y-93241476D01*
X165084099Y-93196825D01*
X165346920Y-93071641D01*
X165580269Y-92897588D01*
X165775178Y-92681355D01*
X165844805Y-92564466D01*
X165966525Y-92746632D01*
X166173368Y-92953475D01*
X166416589Y-93115990D01*
X166686842Y-93227932D01*
X166973740Y-93285000D01*
X167266260Y-93285000D01*
X167553158Y-93227932D01*
X167823411Y-93115990D01*
X168066632Y-92953475D01*
X168273475Y-92746632D01*
X168390000Y-92572240D01*
X168506525Y-92746632D01*
X168565675Y-92805782D01*
X168379744Y-92882797D01*
X168210226Y-92996065D01*
X168066063Y-93140228D01*
X167952795Y-93309746D01*
X167874774Y-93498104D01*
X167835000Y-93698063D01*
X167835000Y-93901941D01*
X167874774Y-94101900D01*
X167952795Y-94290258D01*
X168066063Y-94459776D01*
X168151287Y-94545000D01*
X167864248Y-94545000D01*
X167697501Y-94561423D01*
X167483553Y-94626324D01*
X167286377Y-94731716D01*
X167113551Y-94873551D01*
X166971716Y-95046377D01*
X166866324Y-95243553D01*
X166801423Y-95457501D01*
X166779509Y-95680000D01*
X166801423Y-95902499D01*
X166866324Y-96116447D01*
X166971716Y-96313623D01*
X167113551Y-96486449D01*
X167286377Y-96628284D01*
X167483553Y-96733676D01*
X167697501Y-96798577D01*
X167864248Y-96815000D01*
X168083096Y-96815000D01*
X168076892Y-96829978D01*
X168040000Y-97015448D01*
X168040000Y-97204552D01*
X168076892Y-97390022D01*
X168149259Y-97564731D01*
X168254319Y-97721964D01*
X168388036Y-97855681D01*
X168545269Y-97960741D01*
X168719978Y-98033108D01*
X168905448Y-98070000D01*
X169094552Y-98070000D01*
X169280022Y-98033108D01*
X169454731Y-97960741D01*
X169611964Y-97855681D01*
X169745681Y-97721964D01*
X169850741Y-97564731D01*
X169923108Y-97390022D01*
X169960000Y-97204552D01*
X169960000Y-97015448D01*
X169923108Y-96829978D01*
X169850741Y-96655269D01*
X169769285Y-96533362D01*
X169826449Y-96486449D01*
X169968284Y-96313623D01*
X170073676Y-96116447D01*
X170138577Y-95902499D01*
X170160491Y-95680000D01*
X171209509Y-95680000D01*
X171231423Y-95902499D01*
X171296324Y-96116447D01*
X171401716Y-96313623D01*
X171543551Y-96486449D01*
X171716377Y-96628284D01*
X171913553Y-96733676D01*
X172127501Y-96798577D01*
X172294248Y-96815000D01*
X173005752Y-96815000D01*
X173172499Y-96798577D01*
X173386447Y-96733676D01*
X173583623Y-96628284D01*
X173756449Y-96486449D01*
X173898284Y-96313623D01*
X174003676Y-96116447D01*
X174068577Y-95902499D01*
X174090491Y-95680000D01*
X174068577Y-95457501D01*
X174003676Y-95243553D01*
X173898284Y-95046377D01*
X173756449Y-94873551D01*
X173583623Y-94731716D01*
X173386447Y-94626324D01*
X173172499Y-94561423D01*
X173005752Y-94545000D01*
X172294248Y-94545000D01*
X172127501Y-94561423D01*
X171913553Y-94626324D01*
X171716377Y-94731716D01*
X171543551Y-94873551D01*
X171401716Y-95046377D01*
X171296324Y-95243553D01*
X171231423Y-95457501D01*
X171209509Y-95680000D01*
X170160491Y-95680000D01*
X170138577Y-95457501D01*
X170073676Y-95243553D01*
X169968284Y-95046377D01*
X169826449Y-94873551D01*
X169653623Y-94731716D01*
X169478573Y-94638150D01*
X169529774Y-94603939D01*
X169673937Y-94459776D01*
X169787205Y-94290258D01*
X169865226Y-94101900D01*
X169905000Y-93901941D01*
X169905000Y-93698063D01*
X169865226Y-93498104D01*
X169787205Y-93309746D01*
X169770670Y-93285000D01*
X169806260Y-93285000D01*
X170093158Y-93227932D01*
X170363411Y-93115990D01*
X170606632Y-92953475D01*
X170738487Y-92821620D01*
X170760498Y-92894180D01*
X170819463Y-93004494D01*
X170898815Y-93101185D01*
X170995506Y-93180537D01*
X171105820Y-93239502D01*
X171225518Y-93275812D01*
X171350000Y-93288072D01*
X171914250Y-93285000D01*
X172073000Y-93126250D01*
X172073000Y-91927000D01*
X172327000Y-91927000D01*
X172327000Y-93126250D01*
X172485750Y-93285000D01*
X173050000Y-93288072D01*
X173174482Y-93275812D01*
X173294180Y-93239502D01*
X173404494Y-93180537D01*
X173501185Y-93101185D01*
X173580537Y-93004494D01*
X173639502Y-92894180D01*
X173675812Y-92774482D01*
X173688072Y-92650000D01*
X173685000Y-92085750D01*
X173526250Y-91927000D01*
X172327000Y-91927000D01*
X172073000Y-91927000D01*
X172053000Y-91927000D01*
X172053000Y-91673000D01*
X172073000Y-91673000D01*
X172073000Y-91653000D01*
X172327000Y-91653000D01*
X172327000Y-91673000D01*
X173526250Y-91673000D01*
X173685000Y-91514250D01*
X173687205Y-91109294D01*
X173794299Y-91196637D01*
X174022806Y-91472856D01*
X174193310Y-91788197D01*
X174299319Y-92130656D01*
X174340000Y-92517712D01*
X174340001Y-107467711D01*
X174301853Y-107856776D01*
X174198238Y-108199964D01*
X174029939Y-108516489D01*
X173803365Y-108794296D01*
X173527146Y-109022805D01*
X173211803Y-109193310D01*
X172869344Y-109299319D01*
X172482288Y-109340000D01*
X127532279Y-109340000D01*
X127143224Y-109301853D01*
X126800036Y-109198238D01*
X126483511Y-109029939D01*
X126205704Y-108803365D01*
X125977195Y-108527146D01*
X125806690Y-108211803D01*
X125700681Y-107869344D01*
X125660000Y-107482288D01*
X125660000Y-106717760D01*
X131165000Y-106717760D01*
X131165000Y-106882240D01*
X131197089Y-107043560D01*
X131260033Y-107195521D01*
X131351413Y-107332281D01*
X131467719Y-107448587D01*
X131604479Y-107539967D01*
X131756440Y-107602911D01*
X131917760Y-107635000D01*
X132082240Y-107635000D01*
X132243560Y-107602911D01*
X132395521Y-107539967D01*
X132500000Y-107470156D01*
X132604479Y-107539967D01*
X132756440Y-107602911D01*
X132917760Y-107635000D01*
X133082240Y-107635000D01*
X133243560Y-107602911D01*
X133395521Y-107539967D01*
X133532281Y-107448587D01*
X133648587Y-107332281D01*
X133739967Y-107195521D01*
X133802911Y-107043560D01*
X133835000Y-106882240D01*
X133835000Y-106717760D01*
X134165000Y-106717760D01*
X134165000Y-106882240D01*
X134197089Y-107043560D01*
X134260033Y-107195521D01*
X134351413Y-107332281D01*
X134467719Y-107448587D01*
X134604479Y-107539967D01*
X134756440Y-107602911D01*
X134917760Y-107635000D01*
X135082240Y-107635000D01*
X135243560Y-107602911D01*
X135395521Y-107539967D01*
X135500000Y-107470156D01*
X135604479Y-107539967D01*
X135756440Y-107602911D01*
X135917760Y-107635000D01*
X136082240Y-107635000D01*
X136243560Y-107602911D01*
X136395521Y-107539967D01*
X136500000Y-107470156D01*
X136604479Y-107539967D01*
X136756440Y-107602911D01*
X136917760Y-107635000D01*
X137082240Y-107635000D01*
X137243560Y-107602911D01*
X137395521Y-107539967D01*
X137500000Y-107470156D01*
X137604479Y-107539967D01*
X137756440Y-107602911D01*
X137917760Y-107635000D01*
X138082240Y-107635000D01*
X138243560Y-107602911D01*
X138395521Y-107539967D01*
X138500000Y-107470156D01*
X138604479Y-107539967D01*
X138756440Y-107602911D01*
X138917760Y-107635000D01*
X139082240Y-107635000D01*
X139243560Y-107602911D01*
X139395521Y-107539967D01*
X139532281Y-107448587D01*
X139648587Y-107332281D01*
X139739967Y-107195521D01*
X139767910Y-107128061D01*
X146105000Y-107128061D01*
X146105000Y-107331939D01*
X146144774Y-107531898D01*
X146222795Y-107720256D01*
X146336063Y-107889774D01*
X146480226Y-108033937D01*
X146649744Y-108147205D01*
X146838102Y-108225226D01*
X147038061Y-108265000D01*
X147241939Y-108265000D01*
X147441898Y-108225226D01*
X147630256Y-108147205D01*
X147643941Y-108138061D01*
X163985000Y-108138061D01*
X163985000Y-108341939D01*
X164024774Y-108541898D01*
X164102795Y-108730256D01*
X164216063Y-108899774D01*
X164360226Y-109043937D01*
X164529744Y-109157205D01*
X164718102Y-109235226D01*
X164918061Y-109275000D01*
X165121939Y-109275000D01*
X165321898Y-109235226D01*
X165510256Y-109157205D01*
X165679774Y-109043937D01*
X165823937Y-108899774D01*
X165937205Y-108730256D01*
X166015226Y-108541898D01*
X166055000Y-108341939D01*
X166055000Y-108148061D01*
X168075000Y-108148061D01*
X168075000Y-108351939D01*
X168114774Y-108551898D01*
X168192795Y-108740256D01*
X168306063Y-108909774D01*
X168450226Y-109053937D01*
X168619744Y-109167205D01*
X168808102Y-109245226D01*
X169008061Y-109285000D01*
X169211939Y-109285000D01*
X169411898Y-109245226D01*
X169600256Y-109167205D01*
X169769774Y-109053937D01*
X169913937Y-108909774D01*
X170027205Y-108740256D01*
X170105226Y-108551898D01*
X170145000Y-108351939D01*
X170145000Y-108148061D01*
X170105226Y-107948102D01*
X170027205Y-107759744D01*
X169913937Y-107590226D01*
X169769774Y-107446063D01*
X169600256Y-107332795D01*
X169411898Y-107254774D01*
X169211939Y-107215000D01*
X169008061Y-107215000D01*
X168808102Y-107254774D01*
X168619744Y-107332795D01*
X168450226Y-107446063D01*
X168306063Y-107590226D01*
X168192795Y-107759744D01*
X168114774Y-107948102D01*
X168075000Y-108148061D01*
X166055000Y-108148061D01*
X166055000Y-108138061D01*
X166015226Y-107938102D01*
X165937205Y-107749744D01*
X165823937Y-107580226D01*
X165679774Y-107436063D01*
X165510256Y-107322795D01*
X165321898Y-107244774D01*
X165121939Y-107205000D01*
X164918061Y-107205000D01*
X164718102Y-107244774D01*
X164529744Y-107322795D01*
X164360226Y-107436063D01*
X164216063Y-107580226D01*
X164102795Y-107749744D01*
X164024774Y-107938102D01*
X163985000Y-108138061D01*
X147643941Y-108138061D01*
X147799774Y-108033937D01*
X147943937Y-107889774D01*
X148057205Y-107720256D01*
X148135226Y-107531898D01*
X148175000Y-107331939D01*
X148175000Y-107128061D01*
X148135226Y-106928102D01*
X148057205Y-106739744D01*
X147943937Y-106570226D01*
X147871772Y-106498061D01*
X155345000Y-106498061D01*
X155345000Y-106701939D01*
X155384774Y-106901898D01*
X155462795Y-107090256D01*
X155576063Y-107259774D01*
X155720226Y-107403937D01*
X155889744Y-107517205D01*
X156078102Y-107595226D01*
X156278061Y-107635000D01*
X156481939Y-107635000D01*
X156681898Y-107595226D01*
X156870256Y-107517205D01*
X157039774Y-107403937D01*
X157183937Y-107259774D01*
X157297205Y-107090256D01*
X157375226Y-106901898D01*
X157415000Y-106701939D01*
X157415000Y-106498061D01*
X157375226Y-106298102D01*
X157297205Y-106109744D01*
X157183937Y-105940226D01*
X157039774Y-105796063D01*
X156870256Y-105682795D01*
X156681898Y-105604774D01*
X156481939Y-105565000D01*
X156278061Y-105565000D01*
X156078102Y-105604774D01*
X155889744Y-105682795D01*
X155720226Y-105796063D01*
X155576063Y-105940226D01*
X155462795Y-106109744D01*
X155384774Y-106298102D01*
X155345000Y-106498061D01*
X147871772Y-106498061D01*
X147799774Y-106426063D01*
X147630256Y-106312795D01*
X147441898Y-106234774D01*
X147241939Y-106195000D01*
X147038061Y-106195000D01*
X146838102Y-106234774D01*
X146649744Y-106312795D01*
X146480226Y-106426063D01*
X146336063Y-106570226D01*
X146222795Y-106739744D01*
X146144774Y-106928102D01*
X146105000Y-107128061D01*
X139767910Y-107128061D01*
X139785528Y-107085528D01*
X139895521Y-107039967D01*
X140032281Y-106948587D01*
X140148587Y-106832281D01*
X140239967Y-106695521D01*
X140302911Y-106543560D01*
X140335000Y-106382240D01*
X140335000Y-106217760D01*
X140302911Y-106056440D01*
X140239967Y-105904479D01*
X140148587Y-105767719D01*
X140032281Y-105651413D01*
X139895521Y-105560033D01*
X139743560Y-105497089D01*
X139582240Y-105465000D01*
X139417760Y-105465000D01*
X139256440Y-105497089D01*
X139104479Y-105560033D01*
X138967719Y-105651413D01*
X138851413Y-105767719D01*
X138760033Y-105904479D01*
X138714472Y-106014472D01*
X138604479Y-106060033D01*
X138500000Y-106129844D01*
X138395521Y-106060033D01*
X138285528Y-106014472D01*
X138239967Y-105904479D01*
X138148587Y-105767719D01*
X138032281Y-105651413D01*
X137895521Y-105560033D01*
X137743560Y-105497089D01*
X137582240Y-105465000D01*
X137417760Y-105465000D01*
X137256440Y-105497089D01*
X137104479Y-105560033D01*
X137000000Y-105629844D01*
X136895521Y-105560033D01*
X136743560Y-105497089D01*
X136582240Y-105465000D01*
X136417760Y-105465000D01*
X136256440Y-105497089D01*
X136104479Y-105560033D01*
X135967719Y-105651413D01*
X135851413Y-105767719D01*
X135760033Y-105904479D01*
X135714472Y-106014472D01*
X135604479Y-106060033D01*
X135500000Y-106129844D01*
X135395521Y-106060033D01*
X135243560Y-105997089D01*
X135082240Y-105965000D01*
X134917760Y-105965000D01*
X134756440Y-105997089D01*
X134604479Y-106060033D01*
X134467719Y-106151413D01*
X134351413Y-106267719D01*
X134260033Y-106404479D01*
X134197089Y-106556440D01*
X134165000Y-106717760D01*
X133835000Y-106717760D01*
X133802911Y-106556440D01*
X133739967Y-106404479D01*
X133648587Y-106267719D01*
X133532281Y-106151413D01*
X133395521Y-106060033D01*
X133243560Y-105997089D01*
X133082240Y-105965000D01*
X132917760Y-105965000D01*
X132756440Y-105997089D01*
X132604479Y-106060033D01*
X132500000Y-106129844D01*
X132395521Y-106060033D01*
X132243560Y-105997089D01*
X132082240Y-105965000D01*
X131917760Y-105965000D01*
X131756440Y-105997089D01*
X131604479Y-106060033D01*
X131467719Y-106151413D01*
X131351413Y-106267719D01*
X131260033Y-106404479D01*
X131197089Y-106556440D01*
X131165000Y-106717760D01*
X125660000Y-106717760D01*
X125660000Y-103947000D01*
X139691928Y-103947000D01*
X139691928Y-104947000D01*
X139704188Y-105071482D01*
X139740498Y-105191180D01*
X139799463Y-105301494D01*
X139878815Y-105398185D01*
X139975506Y-105477537D01*
X140085820Y-105536502D01*
X140205518Y-105572812D01*
X140330000Y-105585072D01*
X141330000Y-105585072D01*
X141454482Y-105572812D01*
X141574180Y-105536502D01*
X141684494Y-105477537D01*
X141781185Y-105398185D01*
X141860537Y-105301494D01*
X141919502Y-105191180D01*
X141955812Y-105071482D01*
X141968072Y-104947000D01*
X141968072Y-104320000D01*
X166779509Y-104320000D01*
X166801423Y-104542499D01*
X166866324Y-104756447D01*
X166971716Y-104953623D01*
X167113551Y-105126449D01*
X167286377Y-105268284D01*
X167483553Y-105373676D01*
X167697501Y-105438577D01*
X167864248Y-105455000D01*
X169075752Y-105455000D01*
X169242499Y-105438577D01*
X169456447Y-105373676D01*
X169653623Y-105268284D01*
X169826449Y-105126449D01*
X169968284Y-104953623D01*
X170073676Y-104756447D01*
X170138577Y-104542499D01*
X170160491Y-104320000D01*
X171209509Y-104320000D01*
X171231423Y-104542499D01*
X171296324Y-104756447D01*
X171401716Y-104953623D01*
X171543551Y-105126449D01*
X171716377Y-105268284D01*
X171913553Y-105373676D01*
X172127501Y-105438577D01*
X172294248Y-105455000D01*
X173005752Y-105455000D01*
X173172499Y-105438577D01*
X173386447Y-105373676D01*
X173583623Y-105268284D01*
X173756449Y-105126449D01*
X173898284Y-104953623D01*
X174003676Y-104756447D01*
X174068577Y-104542499D01*
X174090491Y-104320000D01*
X174068577Y-104097501D01*
X174003676Y-103883553D01*
X173898284Y-103686377D01*
X173756449Y-103513551D01*
X173583623Y-103371716D01*
X173386447Y-103266324D01*
X173172499Y-103201423D01*
X173005752Y-103185000D01*
X172294248Y-103185000D01*
X172127501Y-103201423D01*
X171913553Y-103266324D01*
X171716377Y-103371716D01*
X171543551Y-103513551D01*
X171401716Y-103686377D01*
X171296324Y-103883553D01*
X171231423Y-104097501D01*
X171209509Y-104320000D01*
X170160491Y-104320000D01*
X170138577Y-104097501D01*
X170073676Y-103883553D01*
X169968284Y-103686377D01*
X169826449Y-103513551D01*
X169769285Y-103466638D01*
X169850741Y-103344731D01*
X169923108Y-103170022D01*
X169960000Y-102984552D01*
X169960000Y-102795448D01*
X169923108Y-102609978D01*
X169850741Y-102435269D01*
X169745681Y-102278036D01*
X169611964Y-102144319D01*
X169454731Y-102039259D01*
X169280022Y-101966892D01*
X169094552Y-101930000D01*
X168905448Y-101930000D01*
X168719978Y-101966892D01*
X168545269Y-102039259D01*
X168388036Y-102144319D01*
X168254319Y-102278036D01*
X168149259Y-102435269D01*
X168076892Y-102609978D01*
X168040000Y-102795448D01*
X168040000Y-102984552D01*
X168076892Y-103170022D01*
X168083096Y-103185000D01*
X167864248Y-103185000D01*
X167697501Y-103201423D01*
X167483553Y-103266324D01*
X167286377Y-103371716D01*
X167113551Y-103513551D01*
X166971716Y-103686377D01*
X166866324Y-103883553D01*
X166801423Y-104097501D01*
X166779509Y-104320000D01*
X141968072Y-104320000D01*
X141968072Y-103947000D01*
X141955812Y-103822518D01*
X141919502Y-103702820D01*
X141871930Y-103613820D01*
X141907446Y-103533864D01*
X141924119Y-103478874D01*
X141797954Y-103304000D01*
X140957000Y-103304000D01*
X140957000Y-103308928D01*
X140703000Y-103308928D01*
X140703000Y-103304000D01*
X139862046Y-103304000D01*
X139735881Y-103478874D01*
X139752554Y-103533864D01*
X139788070Y-103613820D01*
X139740498Y-103702820D01*
X139704188Y-103822518D01*
X139691928Y-103947000D01*
X125660000Y-103947000D01*
X125660000Y-95445212D01*
X139695000Y-95445212D01*
X139695000Y-95668788D01*
X139738617Y-95888067D01*
X139824176Y-96094624D01*
X139889241Y-96192000D01*
X139824176Y-96289376D01*
X139738617Y-96495933D01*
X139695000Y-96715212D01*
X139695000Y-96938788D01*
X139738617Y-97158067D01*
X139824176Y-97364624D01*
X139889241Y-97462000D01*
X139824176Y-97559376D01*
X139738617Y-97765933D01*
X139695000Y-97985212D01*
X139695000Y-98208788D01*
X139738617Y-98428067D01*
X139824176Y-98634624D01*
X139889241Y-98732000D01*
X139824176Y-98829376D01*
X139738617Y-99035933D01*
X139695000Y-99255212D01*
X139695000Y-99478788D01*
X139738617Y-99698067D01*
X139824176Y-99904624D01*
X139889241Y-100002000D01*
X139824176Y-100099376D01*
X139738617Y-100305933D01*
X139695000Y-100525212D01*
X139695000Y-100748788D01*
X139738617Y-100968067D01*
X139824176Y-101174624D01*
X139889241Y-101272000D01*
X139824176Y-101369376D01*
X139738617Y-101575933D01*
X139695000Y-101795212D01*
X139695000Y-102018788D01*
X139738617Y-102238067D01*
X139824176Y-102444624D01*
X139892353Y-102546658D01*
X139842877Y-102616794D01*
X139752554Y-102820136D01*
X139735881Y-102875126D01*
X139862046Y-103050000D01*
X140703000Y-103050000D01*
X140703000Y-103038974D01*
X140718212Y-103042000D01*
X140941788Y-103042000D01*
X140957000Y-103038974D01*
X140957000Y-103050000D01*
X141797954Y-103050000D01*
X141924119Y-102875126D01*
X141907446Y-102820136D01*
X141817123Y-102616794D01*
X141767647Y-102546658D01*
X141835824Y-102444624D01*
X141895841Y-102299731D01*
X142078102Y-102375226D01*
X142278061Y-102415000D01*
X142481939Y-102415000D01*
X142681898Y-102375226D01*
X142870256Y-102297205D01*
X143039774Y-102183937D01*
X143183937Y-102039774D01*
X143297205Y-101870256D01*
X143375226Y-101681898D01*
X143387923Y-101618061D01*
X146105000Y-101618061D01*
X146105000Y-101821939D01*
X146144774Y-102021898D01*
X146222795Y-102210256D01*
X146242673Y-102240006D01*
X146222795Y-102269756D01*
X146144774Y-102458114D01*
X146105000Y-102658073D01*
X146105000Y-102861951D01*
X146144774Y-103061910D01*
X146222795Y-103250268D01*
X146336063Y-103419786D01*
X146480226Y-103563949D01*
X146649744Y-103677217D01*
X146838102Y-103755238D01*
X147038061Y-103795012D01*
X147241939Y-103795012D01*
X147441898Y-103755238D01*
X147630256Y-103677217D01*
X147799774Y-103563949D01*
X147943937Y-103419786D01*
X148057205Y-103250268D01*
X148135226Y-103061910D01*
X148175000Y-102861951D01*
X148175000Y-102658073D01*
X148135226Y-102458114D01*
X148057205Y-102269756D01*
X148037327Y-102240006D01*
X148057205Y-102210256D01*
X148135226Y-102021898D01*
X148135989Y-102018061D01*
X148965000Y-102018061D01*
X148965000Y-102221939D01*
X149004774Y-102421898D01*
X149082795Y-102610256D01*
X149196063Y-102779774D01*
X149340226Y-102923937D01*
X149509744Y-103037205D01*
X149698102Y-103115226D01*
X149898061Y-103155000D01*
X150101939Y-103155000D01*
X150301898Y-103115226D01*
X150490256Y-103037205D01*
X150659774Y-102923937D01*
X150803937Y-102779774D01*
X150917205Y-102610256D01*
X150995226Y-102421898D01*
X151035000Y-102221939D01*
X151035000Y-102018061D01*
X150995226Y-101818102D01*
X150917205Y-101629744D01*
X150803937Y-101460226D01*
X150659774Y-101316063D01*
X150490256Y-101202795D01*
X150301898Y-101124774D01*
X150101939Y-101085000D01*
X149898061Y-101085000D01*
X149698102Y-101124774D01*
X149509744Y-101202795D01*
X149340226Y-101316063D01*
X149196063Y-101460226D01*
X149082795Y-101629744D01*
X149004774Y-101818102D01*
X148965000Y-102018061D01*
X148135989Y-102018061D01*
X148175000Y-101821939D01*
X148175000Y-101618061D01*
X148135226Y-101418102D01*
X148057205Y-101229744D01*
X147943937Y-101060226D01*
X147799774Y-100916063D01*
X147630256Y-100802795D01*
X147441898Y-100724774D01*
X147241939Y-100685000D01*
X147038061Y-100685000D01*
X146838102Y-100724774D01*
X146649744Y-100802795D01*
X146480226Y-100916063D01*
X146336063Y-101060226D01*
X146222795Y-101229744D01*
X146144774Y-101418102D01*
X146105000Y-101618061D01*
X143387923Y-101618061D01*
X143415000Y-101481939D01*
X143415000Y-101278061D01*
X143375226Y-101078102D01*
X143297205Y-100889744D01*
X143183937Y-100720226D01*
X143039774Y-100576063D01*
X142870256Y-100462795D01*
X142681898Y-100384774D01*
X142481939Y-100345000D01*
X142278061Y-100345000D01*
X142078102Y-100384774D01*
X141947801Y-100438747D01*
X141921383Y-100305933D01*
X141835824Y-100099376D01*
X141770759Y-100002000D01*
X141808075Y-99946152D01*
X152663557Y-99946152D01*
X152663557Y-100140180D01*
X152701410Y-100330480D01*
X152775661Y-100509738D01*
X152883458Y-100671067D01*
X153020656Y-100808265D01*
X153181985Y-100916062D01*
X153361243Y-100990313D01*
X153551543Y-101028166D01*
X153745571Y-101028166D01*
X153935871Y-100990313D01*
X154115129Y-100916062D01*
X154276458Y-100808265D01*
X154413656Y-100671067D01*
X154521453Y-100509738D01*
X154595704Y-100330480D01*
X154633557Y-100140180D01*
X154633557Y-99946152D01*
X154595704Y-99755852D01*
X154521453Y-99576594D01*
X154413656Y-99415265D01*
X154381377Y-99382986D01*
X157245000Y-99382986D01*
X157245000Y-99577014D01*
X157282853Y-99767314D01*
X157357104Y-99946572D01*
X157464901Y-100107901D01*
X157602099Y-100245099D01*
X157763428Y-100352896D01*
X157942686Y-100427147D01*
X158132986Y-100465000D01*
X158327014Y-100465000D01*
X158517314Y-100427147D01*
X158696572Y-100352896D01*
X158857901Y-100245099D01*
X158995099Y-100107901D01*
X159102896Y-99946572D01*
X159177147Y-99767314D01*
X159215000Y-99577014D01*
X159215000Y-99572982D01*
X160385000Y-99572982D01*
X160385000Y-99767010D01*
X160422853Y-99957310D01*
X160497104Y-100136568D01*
X160604901Y-100297897D01*
X160742099Y-100435095D01*
X160903428Y-100542892D01*
X161082686Y-100617143D01*
X161272986Y-100654996D01*
X161467014Y-100654996D01*
X161657314Y-100617143D01*
X161836572Y-100542892D01*
X161997901Y-100435095D01*
X162135099Y-100297897D01*
X162242896Y-100136568D01*
X162317147Y-99957310D01*
X162355000Y-99767010D01*
X162355000Y-99572982D01*
X162317147Y-99382682D01*
X162242896Y-99203424D01*
X162135099Y-99042095D01*
X161997901Y-98904897D01*
X161836572Y-98797100D01*
X161657314Y-98722849D01*
X161467014Y-98684996D01*
X161272986Y-98684996D01*
X161082686Y-98722849D01*
X160903428Y-98797100D01*
X160742099Y-98904897D01*
X160604901Y-99042095D01*
X160497104Y-99203424D01*
X160422853Y-99382682D01*
X160385000Y-99572982D01*
X159215000Y-99572982D01*
X159215000Y-99382986D01*
X159177147Y-99192686D01*
X159102896Y-99013428D01*
X158995099Y-98852099D01*
X158857901Y-98714901D01*
X158696572Y-98607104D01*
X158517314Y-98532853D01*
X158327014Y-98495000D01*
X158132986Y-98495000D01*
X157942686Y-98532853D01*
X157763428Y-98607104D01*
X157602099Y-98714901D01*
X157464901Y-98852099D01*
X157357104Y-99013428D01*
X157282853Y-99192686D01*
X157245000Y-99382986D01*
X154381377Y-99382986D01*
X154276458Y-99278067D01*
X154115129Y-99170270D01*
X153935871Y-99096019D01*
X153745571Y-99058166D01*
X153551543Y-99058166D01*
X153361243Y-99096019D01*
X153181985Y-99170270D01*
X153020656Y-99278067D01*
X152883458Y-99415265D01*
X152775661Y-99576594D01*
X152701410Y-99755852D01*
X152663557Y-99946152D01*
X141808075Y-99946152D01*
X141835824Y-99904624D01*
X141921383Y-99698067D01*
X141965000Y-99478788D01*
X141965000Y-99255212D01*
X141921383Y-99035933D01*
X141835824Y-98829376D01*
X141770759Y-98732000D01*
X141835824Y-98634624D01*
X141921383Y-98428067D01*
X141965000Y-98208788D01*
X141965000Y-97985212D01*
X141921807Y-97768061D01*
X148965000Y-97768061D01*
X148965000Y-97971939D01*
X149004774Y-98171898D01*
X149082795Y-98360256D01*
X149196063Y-98529774D01*
X149340226Y-98673937D01*
X149509744Y-98787205D01*
X149698102Y-98865226D01*
X149898061Y-98905000D01*
X150101939Y-98905000D01*
X150301898Y-98865226D01*
X150490256Y-98787205D01*
X150659774Y-98673937D01*
X150803937Y-98529774D01*
X150917205Y-98360256D01*
X150995226Y-98171898D01*
X151035000Y-97971939D01*
X151035000Y-97768061D01*
X150995226Y-97568102D01*
X150917205Y-97379744D01*
X150803937Y-97210226D01*
X150659774Y-97066063D01*
X150490256Y-96952795D01*
X150301898Y-96874774D01*
X150101939Y-96835000D01*
X149898061Y-96835000D01*
X149698102Y-96874774D01*
X149509744Y-96952795D01*
X149340226Y-97066063D01*
X149196063Y-97210226D01*
X149082795Y-97379744D01*
X149004774Y-97568102D01*
X148965000Y-97768061D01*
X141921807Y-97768061D01*
X141921383Y-97765933D01*
X141835824Y-97559376D01*
X141770759Y-97462000D01*
X141835824Y-97364624D01*
X141921383Y-97158067D01*
X141965000Y-96938788D01*
X141965000Y-96792986D01*
X157245000Y-96792986D01*
X157245000Y-96987014D01*
X157282853Y-97177314D01*
X157357104Y-97356572D01*
X157464901Y-97517901D01*
X157602099Y-97655099D01*
X157763428Y-97762896D01*
X157942686Y-97837147D01*
X158132986Y-97875000D01*
X158327014Y-97875000D01*
X158517314Y-97837147D01*
X158696572Y-97762896D01*
X158857901Y-97655099D01*
X158995099Y-97517901D01*
X159102896Y-97356572D01*
X159177147Y-97177314D01*
X159215000Y-96987014D01*
X159215000Y-96792986D01*
X160385000Y-96792986D01*
X160385000Y-96987014D01*
X160422853Y-97177314D01*
X160497104Y-97356572D01*
X160604901Y-97517901D01*
X160742099Y-97655099D01*
X160903428Y-97762896D01*
X161082686Y-97837147D01*
X161272986Y-97875000D01*
X161467014Y-97875000D01*
X161657314Y-97837147D01*
X161836572Y-97762896D01*
X161997901Y-97655099D01*
X162135099Y-97517901D01*
X162242896Y-97356572D01*
X162317147Y-97177314D01*
X162355000Y-96987014D01*
X162355000Y-96792986D01*
X162317147Y-96602686D01*
X162242896Y-96423428D01*
X162135099Y-96262099D01*
X161997901Y-96124901D01*
X161836572Y-96017104D01*
X161657314Y-95942853D01*
X161467014Y-95905000D01*
X161272986Y-95905000D01*
X161082686Y-95942853D01*
X160903428Y-96017104D01*
X160742099Y-96124901D01*
X160604901Y-96262099D01*
X160497104Y-96423428D01*
X160422853Y-96602686D01*
X160385000Y-96792986D01*
X159215000Y-96792986D01*
X159177147Y-96602686D01*
X159102896Y-96423428D01*
X158995099Y-96262099D01*
X158857901Y-96124901D01*
X158696572Y-96017104D01*
X158517314Y-95942853D01*
X158327014Y-95905000D01*
X158132986Y-95905000D01*
X157942686Y-95942853D01*
X157763428Y-96017104D01*
X157602099Y-96124901D01*
X157464901Y-96262099D01*
X157357104Y-96423428D01*
X157282853Y-96602686D01*
X157245000Y-96792986D01*
X141965000Y-96792986D01*
X141965000Y-96715212D01*
X141921383Y-96495933D01*
X141835824Y-96289376D01*
X141770759Y-96192000D01*
X141835824Y-96094624D01*
X141921383Y-95888067D01*
X141965000Y-95668788D01*
X141965000Y-95445212D01*
X141921383Y-95225933D01*
X141835824Y-95019376D01*
X141711612Y-94833480D01*
X141553520Y-94675388D01*
X141367624Y-94551176D01*
X141161067Y-94465617D01*
X140941788Y-94422000D01*
X140718212Y-94422000D01*
X140498933Y-94465617D01*
X140292376Y-94551176D01*
X140106480Y-94675388D01*
X139948388Y-94833480D01*
X139824176Y-95019376D01*
X139738617Y-95225933D01*
X139695000Y-95445212D01*
X125660000Y-95445212D01*
X125660000Y-93617760D01*
X129665000Y-93617760D01*
X129665000Y-93782240D01*
X129697089Y-93943560D01*
X129760033Y-94095521D01*
X129851413Y-94232281D01*
X129967719Y-94348587D01*
X130104479Y-94439967D01*
X130256440Y-94502911D01*
X130417760Y-94535000D01*
X130582240Y-94535000D01*
X130743560Y-94502911D01*
X130895521Y-94439967D01*
X131000000Y-94370156D01*
X131104479Y-94439967D01*
X131256440Y-94502911D01*
X131417760Y-94535000D01*
X131582240Y-94535000D01*
X131743560Y-94502911D01*
X131895521Y-94439967D01*
X132032281Y-94348587D01*
X132148587Y-94232281D01*
X132239967Y-94095521D01*
X132302911Y-93943560D01*
X132335000Y-93782240D01*
X132335000Y-93617760D01*
X132302911Y-93456440D01*
X132239967Y-93304479D01*
X132182024Y-93217760D01*
X132665000Y-93217760D01*
X132665000Y-93382240D01*
X132697089Y-93543560D01*
X132760033Y-93695521D01*
X132851413Y-93832281D01*
X132967719Y-93948587D01*
X133104479Y-94039967D01*
X133256440Y-94102911D01*
X133417760Y-94135000D01*
X133582240Y-94135000D01*
X133743560Y-94102911D01*
X133895521Y-94039967D01*
X134000000Y-93970156D01*
X134104479Y-94039967D01*
X134256440Y-94102911D01*
X134417760Y-94135000D01*
X134582240Y-94135000D01*
X134743560Y-94102911D01*
X134895521Y-94039967D01*
X135032281Y-93948587D01*
X135148587Y-93832281D01*
X135239967Y-93695521D01*
X135302911Y-93543560D01*
X135335000Y-93382240D01*
X135335000Y-93217760D01*
X135315109Y-93117760D01*
X135665000Y-93117760D01*
X135665000Y-93282240D01*
X135697089Y-93443560D01*
X135760033Y-93595521D01*
X135851413Y-93732281D01*
X135967719Y-93848587D01*
X136104479Y-93939967D01*
X136214472Y-93985528D01*
X136260033Y-94095521D01*
X136351413Y-94232281D01*
X136467719Y-94348587D01*
X136604479Y-94439967D01*
X136756440Y-94502911D01*
X136917760Y-94535000D01*
X137082240Y-94535000D01*
X137243560Y-94502911D01*
X137395521Y-94439967D01*
X137500000Y-94370156D01*
X137604479Y-94439967D01*
X137756440Y-94502911D01*
X137917760Y-94535000D01*
X138082240Y-94535000D01*
X138243560Y-94502911D01*
X138395521Y-94439967D01*
X138500000Y-94370156D01*
X138604479Y-94439967D01*
X138756440Y-94502911D01*
X138917760Y-94535000D01*
X139082240Y-94535000D01*
X139243560Y-94502911D01*
X139395521Y-94439967D01*
X139532281Y-94348587D01*
X139648587Y-94232281D01*
X139739967Y-94095521D01*
X139785528Y-93985528D01*
X139895521Y-93939967D01*
X139913451Y-93927986D01*
X149755000Y-93927986D01*
X149755000Y-94122014D01*
X149792853Y-94312314D01*
X149867104Y-94491572D01*
X149974901Y-94652901D01*
X150112099Y-94790099D01*
X150273428Y-94897896D01*
X150452686Y-94972147D01*
X150642986Y-95010000D01*
X150837014Y-95010000D01*
X151027314Y-94972147D01*
X151206572Y-94897896D01*
X151367901Y-94790099D01*
X151490014Y-94667986D01*
X153975000Y-94667986D01*
X153975000Y-94862014D01*
X154012853Y-95052314D01*
X154087104Y-95231572D01*
X154194901Y-95392901D01*
X154332099Y-95530099D01*
X154493428Y-95637896D01*
X154672686Y-95712147D01*
X154862986Y-95750000D01*
X155057014Y-95750000D01*
X155247314Y-95712147D01*
X155426572Y-95637896D01*
X155587901Y-95530099D01*
X155725099Y-95392901D01*
X155832896Y-95231572D01*
X155907147Y-95052314D01*
X155945000Y-94862014D01*
X155945000Y-94667986D01*
X155907147Y-94477686D01*
X155832896Y-94298428D01*
X155725099Y-94137099D01*
X155587901Y-93999901D01*
X155426572Y-93892104D01*
X155247314Y-93817853D01*
X155057014Y-93780000D01*
X154862986Y-93780000D01*
X154672686Y-93817853D01*
X154493428Y-93892104D01*
X154332099Y-93999901D01*
X154194901Y-94137099D01*
X154087104Y-94298428D01*
X154012853Y-94477686D01*
X153975000Y-94667986D01*
X151490014Y-94667986D01*
X151505099Y-94652901D01*
X151612896Y-94491572D01*
X151687147Y-94312314D01*
X151725000Y-94122014D01*
X151725000Y-93927986D01*
X151687147Y-93737686D01*
X151612896Y-93558428D01*
X151505099Y-93397099D01*
X151367901Y-93259901D01*
X151206572Y-93152104D01*
X151027314Y-93077853D01*
X150837014Y-93040000D01*
X150642986Y-93040000D01*
X150452686Y-93077853D01*
X150273428Y-93152104D01*
X150112099Y-93259901D01*
X149974901Y-93397099D01*
X149867104Y-93558428D01*
X149792853Y-93737686D01*
X149755000Y-93927986D01*
X139913451Y-93927986D01*
X140032281Y-93848587D01*
X140148587Y-93732281D01*
X140239967Y-93595521D01*
X140302911Y-93443560D01*
X140335000Y-93282240D01*
X140335000Y-93117760D01*
X140302911Y-92956440D01*
X140239967Y-92804479D01*
X140148587Y-92667719D01*
X140032281Y-92551413D01*
X139895521Y-92460033D01*
X139743560Y-92397089D01*
X139582240Y-92365000D01*
X139417760Y-92365000D01*
X139256440Y-92397089D01*
X139104479Y-92460033D01*
X138967719Y-92551413D01*
X138851413Y-92667719D01*
X138760033Y-92804479D01*
X138714472Y-92914472D01*
X138604479Y-92960033D01*
X138500000Y-93029844D01*
X138395521Y-92960033D01*
X138285528Y-92914472D01*
X138239967Y-92804479D01*
X138148587Y-92667719D01*
X138032281Y-92551413D01*
X137895521Y-92460033D01*
X137743560Y-92397089D01*
X137582240Y-92365000D01*
X137417760Y-92365000D01*
X137256440Y-92397089D01*
X137104479Y-92460033D01*
X137000000Y-92529844D01*
X136895521Y-92460033D01*
X136743560Y-92397089D01*
X136582240Y-92365000D01*
X136417760Y-92365000D01*
X136256440Y-92397089D01*
X136104479Y-92460033D01*
X135967719Y-92551413D01*
X135851413Y-92667719D01*
X135760033Y-92804479D01*
X135697089Y-92956440D01*
X135665000Y-93117760D01*
X135315109Y-93117760D01*
X135302911Y-93056440D01*
X135239967Y-92904479D01*
X135148587Y-92767719D01*
X135032281Y-92651413D01*
X134895521Y-92560033D01*
X134743560Y-92497089D01*
X134582240Y-92465000D01*
X134417760Y-92465000D01*
X134256440Y-92497089D01*
X134104479Y-92560033D01*
X134000000Y-92629844D01*
X133895521Y-92560033D01*
X133743560Y-92497089D01*
X133582240Y-92465000D01*
X133417760Y-92465000D01*
X133256440Y-92497089D01*
X133104479Y-92560033D01*
X132967719Y-92651413D01*
X132851413Y-92767719D01*
X132760033Y-92904479D01*
X132697089Y-93056440D01*
X132665000Y-93217760D01*
X132182024Y-93217760D01*
X132148587Y-93167719D01*
X132032281Y-93051413D01*
X131895521Y-92960033D01*
X131743560Y-92897089D01*
X131582240Y-92865000D01*
X131417760Y-92865000D01*
X131256440Y-92897089D01*
X131104479Y-92960033D01*
X131000000Y-93029844D01*
X130895521Y-92960033D01*
X130743560Y-92897089D01*
X130582240Y-92865000D01*
X130417760Y-92865000D01*
X130256440Y-92897089D01*
X130104479Y-92960033D01*
X129967719Y-93051413D01*
X129851413Y-93167719D01*
X129760033Y-93304479D01*
X129697089Y-93456440D01*
X129665000Y-93617760D01*
X125660000Y-93617760D01*
X125660000Y-92532279D01*
X125698147Y-92143225D01*
X125757070Y-91948061D01*
X150785000Y-91948061D01*
X150785000Y-92151939D01*
X150824774Y-92351898D01*
X150902795Y-92540256D01*
X151016063Y-92709774D01*
X151160226Y-92853937D01*
X151329744Y-92967205D01*
X151518102Y-93045226D01*
X151718061Y-93085000D01*
X151921939Y-93085000D01*
X152121898Y-93045226D01*
X152310256Y-92967205D01*
X152479774Y-92853937D01*
X152623937Y-92709774D01*
X152737205Y-92540256D01*
X152815226Y-92351898D01*
X152855000Y-92151939D01*
X152855000Y-91948061D01*
X152815226Y-91748102D01*
X152737205Y-91559744D01*
X152623937Y-91390226D01*
X152479774Y-91246063D01*
X152310256Y-91132795D01*
X152121898Y-91054774D01*
X151921939Y-91015000D01*
X151718061Y-91015000D01*
X151518102Y-91054774D01*
X151329744Y-91132795D01*
X151160226Y-91246063D01*
X151016063Y-91390226D01*
X150902795Y-91559744D01*
X150824774Y-91748102D01*
X150785000Y-91948061D01*
X125757070Y-91948061D01*
X125801763Y-91800033D01*
X125970062Y-91483511D01*
X126196637Y-91205701D01*
X126472856Y-90977194D01*
X126788197Y-90806690D01*
X127130656Y-90700681D01*
X127517712Y-90660000D01*
X158539893Y-90660000D01*
X158346525Y-90853368D01*
G37*
%TD.AperFunction*%
%TD*%
M02*
