%TF.GenerationSoftware,KiCad,Pcbnew,5.1.10-88a1d61d58~90~ubuntu20.04.1*%
%TF.CreationDate,2021-07-31T15:59:24+02:00*%
%TF.ProjectId,wally,77616c6c-792e-46b6-9963-61645f706362,v1.04*%
%TF.SameCoordinates,Original*%
%TF.FileFunction,Copper,L2,Inr*%
%TF.FilePolarity,Positive*%
%FSLAX46Y46*%
G04 Gerber Fmt 4.6, Leading zero omitted, Abs format (unit mm)*
G04 Created by KiCad (PCBNEW 5.1.10-88a1d61d58~90~ubuntu20.04.1) date 2021-07-31 15:59:24*
%MOMM*%
%LPD*%
G01*
G04 APERTURE LIST*
%TA.AperFunction,ComponentPad*%
%ADD10O,1.700000X1.700000*%
%TD*%
%TA.AperFunction,ComponentPad*%
%ADD11R,1.700000X1.700000*%
%TD*%
%TA.AperFunction,ComponentPad*%
%ADD12O,1.600000X1.000000*%
%TD*%
%TA.AperFunction,ComponentPad*%
%ADD13O,2.100000X1.000000*%
%TD*%
%TA.AperFunction,ComponentPad*%
%ADD14R,1.000000X1.000000*%
%TD*%
%TA.AperFunction,ViaPad*%
%ADD15C,0.800000*%
%TD*%
%TA.AperFunction,ViaPad*%
%ADD16C,0.400000*%
%TD*%
%TA.AperFunction,ViaPad*%
%ADD17C,0.750000*%
%TD*%
%TA.AperFunction,ViaPad*%
%ADD18C,0.700000*%
%TD*%
%TA.AperFunction,Conductor*%
%ADD19C,0.200000*%
%TD*%
%TA.AperFunction,Conductor*%
%ADD20C,0.250000*%
%TD*%
%TA.AperFunction,Conductor*%
%ADD21C,0.500000*%
%TD*%
%TA.AperFunction,Conductor*%
%ADD22C,0.254000*%
%TD*%
%TA.AperFunction,Conductor*%
%ADD23C,0.100000*%
%TD*%
G04 APERTURE END LIST*
D10*
%TO.N,+3V3*%
%TO.C,J4*%
X151880000Y-91800000D03*
%TO.N,+5V*%
X154420000Y-91800000D03*
%TO.N,boot0*%
X156960000Y-91800000D03*
%TO.N,uart_tx*%
X159500000Y-91800000D03*
%TO.N,uart_rx*%
X162040000Y-91800000D03*
%TO.N,GND*%
X164580000Y-91800000D03*
%TO.N,swclk*%
X167120000Y-91800000D03*
%TO.N,swdio*%
X169660000Y-91800000D03*
D11*
%TO.N,GND*%
X172200000Y-91800000D03*
%TD*%
D12*
%TO.N,Net-(J1-PadSH)*%
%TO.C,J1*%
X172650000Y-95680000D03*
X172650000Y-104320000D03*
D13*
X168470000Y-104320000D03*
X168470000Y-95680000D03*
%TD*%
D14*
%TO.N,hdmi_sh*%
%TO.C,J2*%
X126225000Y-107700000D03*
X126225000Y-109000000D03*
X139775000Y-109000000D03*
X139775000Y-107700000D03*
%TD*%
%TO.N,hdmi_sh*%
%TO.C,J3*%
X126225000Y-92300000D03*
X126225000Y-91000000D03*
X139775000Y-91000000D03*
X139775000Y-92300000D03*
%TD*%
D11*
%TO.N,hdmi_cec*%
%TO.C,J5*%
X142400000Y-107620000D03*
D10*
%TO.N,hdmi_utility*%
X142400000Y-105080000D03*
%TO.N,hdmi_scl*%
X142400000Y-102540000D03*
%TO.N,GND*%
X142400000Y-100000000D03*
%TO.N,hdmi_sda*%
X142400000Y-97460000D03*
%TO.N,hdmi_5v*%
X142400000Y-94920000D03*
%TO.N,hdmi_hpd*%
X142400000Y-92380000D03*
%TD*%
D15*
%TO.N,GND*%
X127500000Y-92300000D03*
X138500000Y-92300000D03*
X127500000Y-107700000D03*
X138500000Y-107700000D03*
X149000000Y-90900000D03*
D16*
X129000000Y-106800000D03*
X136500000Y-106300000D03*
X133500000Y-106300000D03*
X132000000Y-106800000D03*
D15*
X168900000Y-106300000D03*
X174000000Y-105300000D03*
X174000000Y-100000000D03*
D16*
X132000000Y-93700000D03*
X129000000Y-93200000D03*
X130500000Y-93200000D03*
D17*
X166600000Y-104865000D03*
D16*
X133500000Y-93200000D03*
X136500000Y-93200000D03*
D15*
X174000000Y-94700000D03*
X126000000Y-100000000D03*
X126000000Y-97000000D03*
X126000000Y-103000000D03*
X145000000Y-109100000D03*
X148000000Y-109100000D03*
X151000000Y-109100000D03*
X154000000Y-109100000D03*
X156970000Y-109100000D03*
X163880000Y-108787500D03*
X144875000Y-99700000D03*
X143960000Y-91305000D03*
X143960000Y-95745000D03*
D16*
X130500000Y-106300000D03*
D15*
X154340000Y-106690000D03*
X157460000Y-94920000D03*
X165200000Y-106300000D03*
X154340000Y-96800000D03*
D18*
X162280000Y-94225000D03*
D15*
X160450000Y-108787500D03*
X138460000Y-104220000D03*
X171800000Y-109100000D03*
X164948427Y-101388706D03*
X163897152Y-100328365D03*
X165003335Y-98578015D03*
X166600000Y-95145000D03*
X166600000Y-96200000D03*
X166600000Y-103800000D03*
X150100000Y-105000000D03*
X160920000Y-101950000D03*
X140800000Y-103820000D03*
X140800000Y-101240000D03*
X140800000Y-98710000D03*
X140800000Y-96200000D03*
X154900000Y-101749979D03*
X140800000Y-94000000D03*
X140800000Y-106300000D03*
%TO.N,+3V3*%
X161350000Y-96700000D03*
X161350000Y-99675000D03*
X158230000Y-96700000D03*
X158230000Y-99675000D03*
X168900000Y-108200000D03*
X158430000Y-108630000D03*
X150000000Y-100950000D03*
X165200000Y-108200000D03*
X155700000Y-104260000D03*
X148710000Y-97520000D03*
%TO.N,+5V*%
X170710000Y-93200000D03*
D16*
%TO.N,hdmi_hpd*%
X137500000Y-106300000D03*
X137500000Y-93200000D03*
%TO.N,hdmi_5v*%
X137000000Y-106800000D03*
X137000000Y-93700000D03*
%TO.N,hdmi_sda*%
X136000000Y-106800000D03*
X136000000Y-93700000D03*
%TO.N,hdmi_scl*%
X135500000Y-106300000D03*
X135500000Y-93200000D03*
%TO.N,hdmi_utility*%
X135000000Y-106800000D03*
X135000000Y-93700000D03*
%TO.N,hdmi_cec*%
X134500000Y-106300000D03*
X134500000Y-93200000D03*
%TO.N,Net-(J2-Pad12)*%
X134000000Y-106800000D03*
%TO.N,Net-(J2-Pad10)*%
X133000000Y-106800000D03*
%TO.N,Net-(J2-Pad9)*%
X132500000Y-93300000D03*
%TO.N,Net-(J2-Pad7)*%
X131500000Y-93300000D03*
%TO.N,Net-(J2-Pad6)*%
X131000000Y-106800000D03*
%TO.N,Net-(J2-Pad4)*%
X130000000Y-106800000D03*
%TO.N,Net-(J2-Pad3)*%
X129500000Y-93700000D03*
%TO.N,Net-(J2-Pad1)*%
X128500000Y-93700000D03*
D15*
%TO.N,hdmi_5v_in*%
X153800000Y-101100000D03*
X147170000Y-97960000D03*
%TO.N,hdmi_hpd_in*%
X153800000Y-100000000D03*
X149620144Y-96400000D03*
%TO.N,hdmi_5v_en*%
X152512500Y-98060000D03*
X152512500Y-101850000D03*
%TO.N,hdmi_hpd_en*%
X150630002Y-96400000D03*
X153450476Y-102853213D03*
%TD*%
D19*
%TO.N,GND*%
X133500000Y-93940002D02*
X133500000Y-93200000D01*
X132000000Y-93950000D02*
X132000000Y-93700000D01*
X132000000Y-106800000D02*
X132000000Y-106059998D01*
X130500000Y-106050000D02*
X130500000Y-106300000D01*
X132000000Y-106059998D02*
X132000000Y-105900000D01*
X130500000Y-105950000D02*
X130500000Y-106050000D01*
X130500000Y-105950000D02*
X130500000Y-105900000D01*
X133500000Y-105900000D02*
X133500000Y-106300000D01*
X136500000Y-105900000D02*
X136500000Y-106300000D01*
X136250000Y-105650000D02*
X136500000Y-105900000D01*
X133750000Y-105650000D02*
X136250000Y-105650000D01*
X133500000Y-105900000D02*
X133750000Y-105650000D01*
X130500000Y-93200000D02*
X130500000Y-94200000D01*
X132000000Y-94200000D02*
X132000000Y-93950000D01*
X131850000Y-94350000D02*
X132000000Y-94200000D01*
X130650000Y-94350000D02*
X131850000Y-94350000D01*
X130500000Y-94200000D02*
X130650000Y-94350000D01*
X133500000Y-94150000D02*
X133500000Y-93940002D01*
X133500000Y-94200000D02*
X133500000Y-94150000D01*
X133350000Y-94350000D02*
X133500000Y-94200000D01*
X132150000Y-94350000D02*
X133350000Y-94350000D01*
X132000000Y-94200000D02*
X132150000Y-94350000D01*
X133650000Y-94350000D02*
X133500000Y-94200000D01*
X136350000Y-94350000D02*
X133650000Y-94350000D01*
X136500000Y-94200000D02*
X136350000Y-94350000D01*
X136500000Y-93200000D02*
X136500000Y-94200000D01*
X130630000Y-105650000D02*
X131750000Y-105650000D01*
X130500000Y-105780000D02*
X130630000Y-105650000D01*
X131750000Y-105650000D02*
X132000000Y-105900000D01*
X130500000Y-105900000D02*
X130500000Y-105780000D01*
X130500000Y-105770000D02*
X130500000Y-105900000D01*
X130380000Y-105650000D02*
X130500000Y-105770000D01*
X129000000Y-105770000D02*
X129120000Y-105650000D01*
X129120000Y-105650000D02*
X130380000Y-105650000D01*
X129000000Y-106800000D02*
X129000000Y-105770000D01*
X133500000Y-105800000D02*
X133500000Y-105900000D01*
X133350000Y-105650000D02*
X133500000Y-105800000D01*
X132250000Y-105650000D02*
X133350000Y-105650000D01*
X132000000Y-105900000D02*
X132250000Y-105650000D01*
X130350000Y-94350000D02*
X130500000Y-94200000D01*
X129000000Y-94200000D02*
X129150000Y-94350000D01*
X129150000Y-94350000D02*
X130350000Y-94350000D01*
X129000000Y-93200000D02*
X129000000Y-94200000D01*
D20*
X140800000Y-101240000D02*
X143290000Y-101240000D01*
X140800000Y-98710000D02*
X143240000Y-98710000D01*
X143240000Y-98710000D02*
X143150000Y-98710000D01*
X140800000Y-96200000D02*
X143320000Y-96200000D01*
X140800000Y-103820000D02*
X143330000Y-103820000D01*
X140800000Y-94000000D02*
X141150000Y-93650000D01*
X141150000Y-93650000D02*
X143380000Y-93650000D01*
X140800000Y-106300000D02*
X143750000Y-106300000D01*
X140800000Y-106640000D02*
X140910000Y-106750000D01*
X140800000Y-106300000D02*
X140800000Y-106640000D01*
X140800000Y-106870000D02*
X140910000Y-106980000D01*
X140800000Y-106300000D02*
X140800000Y-106870000D01*
D21*
%TO.N,hdmi_sh*%
X139775000Y-91000000D02*
X126225000Y-91000000D01*
X138775000Y-109000000D02*
X126225000Y-109000000D01*
X139775000Y-109000000D02*
X138775000Y-109000000D01*
D20*
%TO.N,Net-(J1-PadSH)*%
X168470000Y-104320000D02*
X172650000Y-104320000D01*
X172650000Y-104320000D02*
X172650000Y-95680000D01*
X172650000Y-95680000D02*
X168470000Y-95680000D01*
%TD*%
D22*
%TO.N,GND*%
X150726525Y-90853368D02*
X150564010Y-91096589D01*
X150452068Y-91366842D01*
X150395000Y-91653740D01*
X150395000Y-91946260D01*
X150452068Y-92233158D01*
X150564010Y-92503411D01*
X150726525Y-92746632D01*
X150933368Y-92953475D01*
X151176589Y-93115990D01*
X151446842Y-93227932D01*
X151733740Y-93285000D01*
X152026260Y-93285000D01*
X152313158Y-93227932D01*
X152583411Y-93115990D01*
X152826632Y-92953475D01*
X153033475Y-92746632D01*
X153150000Y-92572240D01*
X153266525Y-92746632D01*
X153473368Y-92953475D01*
X153716589Y-93115990D01*
X153986842Y-93227932D01*
X154273740Y-93285000D01*
X154566260Y-93285000D01*
X154853158Y-93227932D01*
X155123411Y-93115990D01*
X155366632Y-92953475D01*
X155573475Y-92746632D01*
X155690000Y-92572240D01*
X155806525Y-92746632D01*
X156013368Y-92953475D01*
X156256589Y-93115990D01*
X156526842Y-93227932D01*
X156813740Y-93285000D01*
X157106260Y-93285000D01*
X157393158Y-93227932D01*
X157663411Y-93115990D01*
X157906632Y-92953475D01*
X158113475Y-92746632D01*
X158230000Y-92572240D01*
X158346525Y-92746632D01*
X158553368Y-92953475D01*
X158796589Y-93115990D01*
X159066842Y-93227932D01*
X159353740Y-93285000D01*
X159646260Y-93285000D01*
X159933158Y-93227932D01*
X160203411Y-93115990D01*
X160446632Y-92953475D01*
X160653475Y-92746632D01*
X160770000Y-92572240D01*
X160886525Y-92746632D01*
X161093368Y-92953475D01*
X161336589Y-93115990D01*
X161606842Y-93227932D01*
X161893740Y-93285000D01*
X162186260Y-93285000D01*
X162473158Y-93227932D01*
X162743411Y-93115990D01*
X162986632Y-92953475D01*
X163193475Y-92746632D01*
X163315195Y-92564466D01*
X163384822Y-92681355D01*
X163579731Y-92897588D01*
X163813080Y-93071641D01*
X164075901Y-93196825D01*
X164223110Y-93241476D01*
X164453000Y-93120155D01*
X164453000Y-91927000D01*
X164433000Y-91927000D01*
X164433000Y-91673000D01*
X164453000Y-91673000D01*
X164453000Y-91653000D01*
X164707000Y-91653000D01*
X164707000Y-91673000D01*
X164727000Y-91673000D01*
X164727000Y-91927000D01*
X164707000Y-91927000D01*
X164707000Y-93120155D01*
X164936890Y-93241476D01*
X165084099Y-93196825D01*
X165346920Y-93071641D01*
X165580269Y-92897588D01*
X165775178Y-92681355D01*
X165844805Y-92564466D01*
X165966525Y-92746632D01*
X166173368Y-92953475D01*
X166416589Y-93115990D01*
X166686842Y-93227932D01*
X166973740Y-93285000D01*
X167266260Y-93285000D01*
X167553158Y-93227932D01*
X167823411Y-93115990D01*
X168066632Y-92953475D01*
X168273475Y-92746632D01*
X168390000Y-92572240D01*
X168506525Y-92746632D01*
X168713368Y-92953475D01*
X168956589Y-93115990D01*
X169226842Y-93227932D01*
X169513740Y-93285000D01*
X169675000Y-93285000D01*
X169675000Y-93301939D01*
X169714774Y-93501898D01*
X169792795Y-93690256D01*
X169906063Y-93859774D01*
X170050226Y-94003937D01*
X170219744Y-94117205D01*
X170408102Y-94195226D01*
X170608061Y-94235000D01*
X170811939Y-94235000D01*
X171011898Y-94195226D01*
X171200256Y-94117205D01*
X171369774Y-94003937D01*
X171513937Y-93859774D01*
X171627205Y-93690256D01*
X171705226Y-93501898D01*
X171745000Y-93301939D01*
X171745000Y-93285921D01*
X171914250Y-93285000D01*
X172073000Y-93126250D01*
X172073000Y-91927000D01*
X172327000Y-91927000D01*
X172327000Y-93126250D01*
X172485750Y-93285000D01*
X173050000Y-93288072D01*
X173174482Y-93275812D01*
X173294180Y-93239502D01*
X173404494Y-93180537D01*
X173501185Y-93101185D01*
X173580537Y-93004494D01*
X173639502Y-92894180D01*
X173675812Y-92774482D01*
X173688072Y-92650000D01*
X173685000Y-92085750D01*
X173526250Y-91927000D01*
X172327000Y-91927000D01*
X172073000Y-91927000D01*
X172053000Y-91927000D01*
X172053000Y-91673000D01*
X172073000Y-91673000D01*
X172073000Y-91653000D01*
X172327000Y-91653000D01*
X172327000Y-91673000D01*
X173526250Y-91673000D01*
X173685000Y-91514250D01*
X173687205Y-91109294D01*
X173794299Y-91196637D01*
X174022806Y-91472856D01*
X174193310Y-91788197D01*
X174299319Y-92130656D01*
X174340000Y-92517712D01*
X174340001Y-107467711D01*
X174301853Y-107856776D01*
X174198238Y-108199964D01*
X174029939Y-108516489D01*
X173803365Y-108794296D01*
X173527146Y-109022805D01*
X173211803Y-109193310D01*
X172869344Y-109299319D01*
X172482288Y-109340000D01*
X159183711Y-109340000D01*
X159233937Y-109289774D01*
X159347205Y-109120256D01*
X159425226Y-108931898D01*
X159465000Y-108731939D01*
X159465000Y-108528061D01*
X159425226Y-108328102D01*
X159347205Y-108139744D01*
X159319354Y-108098061D01*
X164165000Y-108098061D01*
X164165000Y-108301939D01*
X164204774Y-108501898D01*
X164282795Y-108690256D01*
X164396063Y-108859774D01*
X164540226Y-109003937D01*
X164709744Y-109117205D01*
X164898102Y-109195226D01*
X165098061Y-109235000D01*
X165301939Y-109235000D01*
X165501898Y-109195226D01*
X165690256Y-109117205D01*
X165859774Y-109003937D01*
X166003937Y-108859774D01*
X166117205Y-108690256D01*
X166195226Y-108501898D01*
X166235000Y-108301939D01*
X166235000Y-108098061D01*
X167865000Y-108098061D01*
X167865000Y-108301939D01*
X167904774Y-108501898D01*
X167982795Y-108690256D01*
X168096063Y-108859774D01*
X168240226Y-109003937D01*
X168409744Y-109117205D01*
X168598102Y-109195226D01*
X168798061Y-109235000D01*
X169001939Y-109235000D01*
X169201898Y-109195226D01*
X169390256Y-109117205D01*
X169559774Y-109003937D01*
X169703937Y-108859774D01*
X169817205Y-108690256D01*
X169895226Y-108501898D01*
X169935000Y-108301939D01*
X169935000Y-108098061D01*
X169895226Y-107898102D01*
X169817205Y-107709744D01*
X169703937Y-107540226D01*
X169559774Y-107396063D01*
X169390256Y-107282795D01*
X169201898Y-107204774D01*
X169001939Y-107165000D01*
X168798061Y-107165000D01*
X168598102Y-107204774D01*
X168409744Y-107282795D01*
X168240226Y-107396063D01*
X168096063Y-107540226D01*
X167982795Y-107709744D01*
X167904774Y-107898102D01*
X167865000Y-108098061D01*
X166235000Y-108098061D01*
X166195226Y-107898102D01*
X166117205Y-107709744D01*
X166003937Y-107540226D01*
X165859774Y-107396063D01*
X165690256Y-107282795D01*
X165501898Y-107204774D01*
X165301939Y-107165000D01*
X165098061Y-107165000D01*
X164898102Y-107204774D01*
X164709744Y-107282795D01*
X164540226Y-107396063D01*
X164396063Y-107540226D01*
X164282795Y-107709744D01*
X164204774Y-107898102D01*
X164165000Y-108098061D01*
X159319354Y-108098061D01*
X159233937Y-107970226D01*
X159089774Y-107826063D01*
X158920256Y-107712795D01*
X158731898Y-107634774D01*
X158531939Y-107595000D01*
X158328061Y-107595000D01*
X158128102Y-107634774D01*
X157939744Y-107712795D01*
X157770226Y-107826063D01*
X157626063Y-107970226D01*
X157512795Y-108139744D01*
X157434774Y-108328102D01*
X157395000Y-108528061D01*
X157395000Y-108731939D01*
X157434774Y-108931898D01*
X157512795Y-109120256D01*
X157626063Y-109289774D01*
X157676289Y-109340000D01*
X140913072Y-109340000D01*
X140913072Y-108500000D01*
X140900812Y-108375518D01*
X140893071Y-108350000D01*
X140900812Y-108324482D01*
X140911928Y-108211616D01*
X140911928Y-108470000D01*
X140924188Y-108594482D01*
X140960498Y-108714180D01*
X141019463Y-108824494D01*
X141098815Y-108921185D01*
X141195506Y-109000537D01*
X141305820Y-109059502D01*
X141425518Y-109095812D01*
X141550000Y-109108072D01*
X143250000Y-109108072D01*
X143374482Y-109095812D01*
X143494180Y-109059502D01*
X143604494Y-109000537D01*
X143701185Y-108921185D01*
X143780537Y-108824494D01*
X143839502Y-108714180D01*
X143875812Y-108594482D01*
X143888072Y-108470000D01*
X143888072Y-106770000D01*
X143875812Y-106645518D01*
X143839502Y-106525820D01*
X143780537Y-106415506D01*
X143701185Y-106318815D01*
X143604494Y-106239463D01*
X143494180Y-106180498D01*
X143421620Y-106158487D01*
X143553475Y-106026632D01*
X143715990Y-105783411D01*
X143827932Y-105513158D01*
X143885000Y-105226260D01*
X143885000Y-104933740D01*
X143827932Y-104646842D01*
X143715990Y-104376589D01*
X143569975Y-104158061D01*
X154665000Y-104158061D01*
X154665000Y-104361939D01*
X154704774Y-104561898D01*
X154782795Y-104750256D01*
X154896063Y-104919774D01*
X155040226Y-105063937D01*
X155209744Y-105177205D01*
X155398102Y-105255226D01*
X155598061Y-105295000D01*
X155801939Y-105295000D01*
X156001898Y-105255226D01*
X156190256Y-105177205D01*
X156359774Y-105063937D01*
X156503937Y-104919774D01*
X156617205Y-104750256D01*
X156695226Y-104561898D01*
X156735000Y-104361939D01*
X156735000Y-104158061D01*
X156695226Y-103958102D01*
X156617205Y-103769744D01*
X156503937Y-103600226D01*
X156359774Y-103456063D01*
X156190256Y-103342795D01*
X156001898Y-103264774D01*
X155801939Y-103225000D01*
X155598061Y-103225000D01*
X155398102Y-103264774D01*
X155209744Y-103342795D01*
X155040226Y-103456063D01*
X154896063Y-103600226D01*
X154782795Y-103769744D01*
X154704774Y-103958102D01*
X154665000Y-104158061D01*
X143569975Y-104158061D01*
X143553475Y-104133368D01*
X143346632Y-103926525D01*
X143172240Y-103810000D01*
X143346632Y-103693475D01*
X143553475Y-103486632D01*
X143715990Y-103243411D01*
X143827932Y-102973158D01*
X143885000Y-102686260D01*
X143885000Y-102393740D01*
X143827932Y-102106842D01*
X143715990Y-101836589D01*
X143553475Y-101593368D01*
X143346632Y-101386525D01*
X143164466Y-101264805D01*
X143281355Y-101195178D01*
X143497588Y-101000269D01*
X143611118Y-100848061D01*
X148965000Y-100848061D01*
X148965000Y-101051939D01*
X149004774Y-101251898D01*
X149082795Y-101440256D01*
X149196063Y-101609774D01*
X149340226Y-101753937D01*
X149509744Y-101867205D01*
X149698102Y-101945226D01*
X149898061Y-101985000D01*
X150101939Y-101985000D01*
X150301898Y-101945226D01*
X150490256Y-101867205D01*
X150659774Y-101753937D01*
X150665650Y-101748061D01*
X151477500Y-101748061D01*
X151477500Y-101951939D01*
X151517274Y-102151898D01*
X151595295Y-102340256D01*
X151708563Y-102509774D01*
X151852726Y-102653937D01*
X152022244Y-102767205D01*
X152210602Y-102845226D01*
X152410561Y-102885000D01*
X152415476Y-102885000D01*
X152415476Y-102955152D01*
X152455250Y-103155111D01*
X152533271Y-103343469D01*
X152646539Y-103512987D01*
X152790702Y-103657150D01*
X152960220Y-103770418D01*
X153148578Y-103848439D01*
X153348537Y-103888213D01*
X153552415Y-103888213D01*
X153752374Y-103848439D01*
X153940732Y-103770418D01*
X154110250Y-103657150D01*
X154254413Y-103512987D01*
X154367681Y-103343469D01*
X154445702Y-103155111D01*
X154485476Y-102955152D01*
X154485476Y-102751274D01*
X154445702Y-102551315D01*
X154367681Y-102362957D01*
X154254413Y-102193439D01*
X154140295Y-102079321D01*
X154290256Y-102017205D01*
X154459774Y-101903937D01*
X154603937Y-101759774D01*
X154717205Y-101590256D01*
X154795226Y-101401898D01*
X154835000Y-101201939D01*
X154835000Y-100998061D01*
X154795226Y-100798102D01*
X154717205Y-100609744D01*
X154677285Y-100550000D01*
X154717205Y-100490256D01*
X154795226Y-100301898D01*
X154835000Y-100101939D01*
X154835000Y-99898061D01*
X154795226Y-99698102D01*
X154743432Y-99573061D01*
X157195000Y-99573061D01*
X157195000Y-99776939D01*
X157234774Y-99976898D01*
X157312795Y-100165256D01*
X157426063Y-100334774D01*
X157570226Y-100478937D01*
X157739744Y-100592205D01*
X157928102Y-100670226D01*
X158128061Y-100710000D01*
X158331939Y-100710000D01*
X158531898Y-100670226D01*
X158720256Y-100592205D01*
X158889774Y-100478937D01*
X159033937Y-100334774D01*
X159147205Y-100165256D01*
X159225226Y-99976898D01*
X159265000Y-99776939D01*
X159265000Y-99573061D01*
X160315000Y-99573061D01*
X160315000Y-99776939D01*
X160354774Y-99976898D01*
X160432795Y-100165256D01*
X160546063Y-100334774D01*
X160690226Y-100478937D01*
X160859744Y-100592205D01*
X161048102Y-100670226D01*
X161248061Y-100710000D01*
X161451939Y-100710000D01*
X161651898Y-100670226D01*
X161840256Y-100592205D01*
X162009774Y-100478937D01*
X162153937Y-100334774D01*
X162267205Y-100165256D01*
X162345226Y-99976898D01*
X162385000Y-99776939D01*
X162385000Y-99573061D01*
X162345226Y-99373102D01*
X162267205Y-99184744D01*
X162153937Y-99015226D01*
X162009774Y-98871063D01*
X161840256Y-98757795D01*
X161651898Y-98679774D01*
X161451939Y-98640000D01*
X161248061Y-98640000D01*
X161048102Y-98679774D01*
X160859744Y-98757795D01*
X160690226Y-98871063D01*
X160546063Y-99015226D01*
X160432795Y-99184744D01*
X160354774Y-99373102D01*
X160315000Y-99573061D01*
X159265000Y-99573061D01*
X159225226Y-99373102D01*
X159147205Y-99184744D01*
X159033937Y-99015226D01*
X158889774Y-98871063D01*
X158720256Y-98757795D01*
X158531898Y-98679774D01*
X158331939Y-98640000D01*
X158128061Y-98640000D01*
X157928102Y-98679774D01*
X157739744Y-98757795D01*
X157570226Y-98871063D01*
X157426063Y-99015226D01*
X157312795Y-99184744D01*
X157234774Y-99373102D01*
X157195000Y-99573061D01*
X154743432Y-99573061D01*
X154717205Y-99509744D01*
X154603937Y-99340226D01*
X154459774Y-99196063D01*
X154290256Y-99082795D01*
X154101898Y-99004774D01*
X153901939Y-98965000D01*
X153698061Y-98965000D01*
X153498102Y-99004774D01*
X153309744Y-99082795D01*
X153140226Y-99196063D01*
X152996063Y-99340226D01*
X152882795Y-99509744D01*
X152804774Y-99698102D01*
X152765000Y-99898061D01*
X152765000Y-100101939D01*
X152804774Y-100301898D01*
X152882795Y-100490256D01*
X152922715Y-100550000D01*
X152882795Y-100609744D01*
X152804774Y-100798102D01*
X152794297Y-100850776D01*
X152614439Y-100815000D01*
X152410561Y-100815000D01*
X152210602Y-100854774D01*
X152022244Y-100932795D01*
X151852726Y-101046063D01*
X151708563Y-101190226D01*
X151595295Y-101359744D01*
X151517274Y-101548102D01*
X151477500Y-101748061D01*
X150665650Y-101748061D01*
X150803937Y-101609774D01*
X150917205Y-101440256D01*
X150995226Y-101251898D01*
X151035000Y-101051939D01*
X151035000Y-100848061D01*
X150995226Y-100648102D01*
X150917205Y-100459744D01*
X150803937Y-100290226D01*
X150659774Y-100146063D01*
X150490256Y-100032795D01*
X150301898Y-99954774D01*
X150101939Y-99915000D01*
X149898061Y-99915000D01*
X149698102Y-99954774D01*
X149509744Y-100032795D01*
X149340226Y-100146063D01*
X149196063Y-100290226D01*
X149082795Y-100459744D01*
X149004774Y-100648102D01*
X148965000Y-100848061D01*
X143611118Y-100848061D01*
X143671641Y-100766920D01*
X143796825Y-100504099D01*
X143841476Y-100356890D01*
X143720155Y-100127000D01*
X142527000Y-100127000D01*
X142527000Y-100147000D01*
X142273000Y-100147000D01*
X142273000Y-100127000D01*
X141079845Y-100127000D01*
X140958524Y-100356890D01*
X141003175Y-100504099D01*
X141128359Y-100766920D01*
X141302412Y-101000269D01*
X141518645Y-101195178D01*
X141635534Y-101264805D01*
X141453368Y-101386525D01*
X141246525Y-101593368D01*
X141084010Y-101836589D01*
X140972068Y-102106842D01*
X140915000Y-102393740D01*
X140915000Y-102686260D01*
X140972068Y-102973158D01*
X141084010Y-103243411D01*
X141246525Y-103486632D01*
X141453368Y-103693475D01*
X141627760Y-103810000D01*
X141453368Y-103926525D01*
X141246525Y-104133368D01*
X141084010Y-104376589D01*
X140972068Y-104646842D01*
X140915000Y-104933740D01*
X140915000Y-105226260D01*
X140972068Y-105513158D01*
X141084010Y-105783411D01*
X141246525Y-106026632D01*
X141378380Y-106158487D01*
X141305820Y-106180498D01*
X141195506Y-106239463D01*
X141098815Y-106318815D01*
X141019463Y-106415506D01*
X140960498Y-106525820D01*
X140924188Y-106645518D01*
X140911928Y-106770000D01*
X140911928Y-107188384D01*
X140900812Y-107075518D01*
X140864502Y-106955820D01*
X140805537Y-106845506D01*
X140726185Y-106748815D01*
X140629494Y-106669463D01*
X140519180Y-106610498D01*
X140399482Y-106574188D01*
X140275000Y-106561928D01*
X139275000Y-106561928D01*
X139150518Y-106574188D01*
X139030820Y-106610498D01*
X138920506Y-106669463D01*
X138823815Y-106748815D01*
X138744463Y-106845506D01*
X138685498Y-106955820D01*
X138649188Y-107075518D01*
X138636928Y-107200000D01*
X138636928Y-108115000D01*
X127363072Y-108115000D01*
X127363072Y-107200000D01*
X127350812Y-107075518D01*
X127314502Y-106955820D01*
X127255537Y-106845506D01*
X127176185Y-106748815D01*
X127138345Y-106717760D01*
X129165000Y-106717760D01*
X129165000Y-106882240D01*
X129197089Y-107043560D01*
X129260033Y-107195521D01*
X129351413Y-107332281D01*
X129467719Y-107448587D01*
X129604479Y-107539967D01*
X129756440Y-107602911D01*
X129917760Y-107635000D01*
X130082240Y-107635000D01*
X130243560Y-107602911D01*
X130395521Y-107539967D01*
X130500000Y-107470156D01*
X130604479Y-107539967D01*
X130756440Y-107602911D01*
X130917760Y-107635000D01*
X131082240Y-107635000D01*
X131243560Y-107602911D01*
X131395521Y-107539967D01*
X131532281Y-107448587D01*
X131648587Y-107332281D01*
X131739967Y-107195521D01*
X131802911Y-107043560D01*
X131835000Y-106882240D01*
X131835000Y-106717760D01*
X132165000Y-106717760D01*
X132165000Y-106882240D01*
X132197089Y-107043560D01*
X132260033Y-107195521D01*
X132351413Y-107332281D01*
X132467719Y-107448587D01*
X132604479Y-107539967D01*
X132756440Y-107602911D01*
X132917760Y-107635000D01*
X133082240Y-107635000D01*
X133243560Y-107602911D01*
X133395521Y-107539967D01*
X133500000Y-107470156D01*
X133604479Y-107539967D01*
X133756440Y-107602911D01*
X133917760Y-107635000D01*
X134082240Y-107635000D01*
X134243560Y-107602911D01*
X134395521Y-107539967D01*
X134500000Y-107470156D01*
X134604479Y-107539967D01*
X134756440Y-107602911D01*
X134917760Y-107635000D01*
X135082240Y-107635000D01*
X135243560Y-107602911D01*
X135395521Y-107539967D01*
X135500000Y-107470156D01*
X135604479Y-107539967D01*
X135756440Y-107602911D01*
X135917760Y-107635000D01*
X136082240Y-107635000D01*
X136243560Y-107602911D01*
X136395521Y-107539967D01*
X136500000Y-107470156D01*
X136604479Y-107539967D01*
X136756440Y-107602911D01*
X136917760Y-107635000D01*
X137082240Y-107635000D01*
X137243560Y-107602911D01*
X137395521Y-107539967D01*
X137532281Y-107448587D01*
X137648587Y-107332281D01*
X137739967Y-107195521D01*
X137785528Y-107085528D01*
X137895521Y-107039967D01*
X138032281Y-106948587D01*
X138148587Y-106832281D01*
X138239967Y-106695521D01*
X138302911Y-106543560D01*
X138335000Y-106382240D01*
X138335000Y-106217760D01*
X138302911Y-106056440D01*
X138239967Y-105904479D01*
X138148587Y-105767719D01*
X138032281Y-105651413D01*
X137895521Y-105560033D01*
X137743560Y-105497089D01*
X137582240Y-105465000D01*
X137417760Y-105465000D01*
X137256440Y-105497089D01*
X137104479Y-105560033D01*
X136967719Y-105651413D01*
X136851413Y-105767719D01*
X136760033Y-105904479D01*
X136714472Y-106014472D01*
X136604479Y-106060033D01*
X136500000Y-106129844D01*
X136395521Y-106060033D01*
X136285528Y-106014472D01*
X136239967Y-105904479D01*
X136148587Y-105767719D01*
X136032281Y-105651413D01*
X135895521Y-105560033D01*
X135743560Y-105497089D01*
X135582240Y-105465000D01*
X135417760Y-105465000D01*
X135256440Y-105497089D01*
X135104479Y-105560033D01*
X135000000Y-105629844D01*
X134895521Y-105560033D01*
X134743560Y-105497089D01*
X134582240Y-105465000D01*
X134417760Y-105465000D01*
X134256440Y-105497089D01*
X134104479Y-105560033D01*
X133967719Y-105651413D01*
X133851413Y-105767719D01*
X133760033Y-105904479D01*
X133714472Y-106014472D01*
X133604479Y-106060033D01*
X133500000Y-106129844D01*
X133395521Y-106060033D01*
X133243560Y-105997089D01*
X133082240Y-105965000D01*
X132917760Y-105965000D01*
X132756440Y-105997089D01*
X132604479Y-106060033D01*
X132467719Y-106151413D01*
X132351413Y-106267719D01*
X132260033Y-106404479D01*
X132197089Y-106556440D01*
X132165000Y-106717760D01*
X131835000Y-106717760D01*
X131802911Y-106556440D01*
X131739967Y-106404479D01*
X131648587Y-106267719D01*
X131532281Y-106151413D01*
X131395521Y-106060033D01*
X131243560Y-105997089D01*
X131082240Y-105965000D01*
X130917760Y-105965000D01*
X130756440Y-105997089D01*
X130604479Y-106060033D01*
X130500000Y-106129844D01*
X130395521Y-106060033D01*
X130243560Y-105997089D01*
X130082240Y-105965000D01*
X129917760Y-105965000D01*
X129756440Y-105997089D01*
X129604479Y-106060033D01*
X129467719Y-106151413D01*
X129351413Y-106267719D01*
X129260033Y-106404479D01*
X129197089Y-106556440D01*
X129165000Y-106717760D01*
X127138345Y-106717760D01*
X127079494Y-106669463D01*
X126969180Y-106610498D01*
X126849482Y-106574188D01*
X126725000Y-106561928D01*
X125725000Y-106561928D01*
X125660000Y-106568330D01*
X125660000Y-93617760D01*
X127665000Y-93617760D01*
X127665000Y-93782240D01*
X127697089Y-93943560D01*
X127760033Y-94095521D01*
X127851413Y-94232281D01*
X127967719Y-94348587D01*
X128104479Y-94439967D01*
X128256440Y-94502911D01*
X128417760Y-94535000D01*
X128582240Y-94535000D01*
X128743560Y-94502911D01*
X128895521Y-94439967D01*
X129000000Y-94370156D01*
X129104479Y-94439967D01*
X129256440Y-94502911D01*
X129417760Y-94535000D01*
X129582240Y-94535000D01*
X129743560Y-94502911D01*
X129895521Y-94439967D01*
X130032281Y-94348587D01*
X130148587Y-94232281D01*
X130239967Y-94095521D01*
X130302911Y-93943560D01*
X130335000Y-93782240D01*
X130335000Y-93617760D01*
X130302911Y-93456440D01*
X130239967Y-93304479D01*
X130182024Y-93217760D01*
X130665000Y-93217760D01*
X130665000Y-93382240D01*
X130697089Y-93543560D01*
X130760033Y-93695521D01*
X130851413Y-93832281D01*
X130967719Y-93948587D01*
X131104479Y-94039967D01*
X131256440Y-94102911D01*
X131417760Y-94135000D01*
X131582240Y-94135000D01*
X131743560Y-94102911D01*
X131895521Y-94039967D01*
X132000000Y-93970156D01*
X132104479Y-94039967D01*
X132256440Y-94102911D01*
X132417760Y-94135000D01*
X132582240Y-94135000D01*
X132743560Y-94102911D01*
X132895521Y-94039967D01*
X133032281Y-93948587D01*
X133148587Y-93832281D01*
X133239967Y-93695521D01*
X133302911Y-93543560D01*
X133335000Y-93382240D01*
X133335000Y-93217760D01*
X133315109Y-93117760D01*
X133665000Y-93117760D01*
X133665000Y-93282240D01*
X133697089Y-93443560D01*
X133760033Y-93595521D01*
X133851413Y-93732281D01*
X133967719Y-93848587D01*
X134104479Y-93939967D01*
X134214472Y-93985528D01*
X134260033Y-94095521D01*
X134351413Y-94232281D01*
X134467719Y-94348587D01*
X134604479Y-94439967D01*
X134756440Y-94502911D01*
X134917760Y-94535000D01*
X135082240Y-94535000D01*
X135243560Y-94502911D01*
X135395521Y-94439967D01*
X135500000Y-94370156D01*
X135604479Y-94439967D01*
X135756440Y-94502911D01*
X135917760Y-94535000D01*
X136082240Y-94535000D01*
X136243560Y-94502911D01*
X136395521Y-94439967D01*
X136500000Y-94370156D01*
X136604479Y-94439967D01*
X136756440Y-94502911D01*
X136917760Y-94535000D01*
X137082240Y-94535000D01*
X137243560Y-94502911D01*
X137395521Y-94439967D01*
X137532281Y-94348587D01*
X137648587Y-94232281D01*
X137739967Y-94095521D01*
X137785528Y-93985528D01*
X137895521Y-93939967D01*
X138032281Y-93848587D01*
X138148587Y-93732281D01*
X138239967Y-93595521D01*
X138302911Y-93443560D01*
X138335000Y-93282240D01*
X138335000Y-93117760D01*
X138302911Y-92956440D01*
X138239967Y-92804479D01*
X138148587Y-92667719D01*
X138032281Y-92551413D01*
X137895521Y-92460033D01*
X137743560Y-92397089D01*
X137582240Y-92365000D01*
X137417760Y-92365000D01*
X137256440Y-92397089D01*
X137104479Y-92460033D01*
X136967719Y-92551413D01*
X136851413Y-92667719D01*
X136760033Y-92804479D01*
X136714472Y-92914472D01*
X136604479Y-92960033D01*
X136500000Y-93029844D01*
X136395521Y-92960033D01*
X136285528Y-92914472D01*
X136239967Y-92804479D01*
X136148587Y-92667719D01*
X136032281Y-92551413D01*
X135895521Y-92460033D01*
X135743560Y-92397089D01*
X135582240Y-92365000D01*
X135417760Y-92365000D01*
X135256440Y-92397089D01*
X135104479Y-92460033D01*
X135000000Y-92529844D01*
X134895521Y-92460033D01*
X134743560Y-92397089D01*
X134582240Y-92365000D01*
X134417760Y-92365000D01*
X134256440Y-92397089D01*
X134104479Y-92460033D01*
X133967719Y-92551413D01*
X133851413Y-92667719D01*
X133760033Y-92804479D01*
X133697089Y-92956440D01*
X133665000Y-93117760D01*
X133315109Y-93117760D01*
X133302911Y-93056440D01*
X133239967Y-92904479D01*
X133148587Y-92767719D01*
X133032281Y-92651413D01*
X132895521Y-92560033D01*
X132743560Y-92497089D01*
X132582240Y-92465000D01*
X132417760Y-92465000D01*
X132256440Y-92497089D01*
X132104479Y-92560033D01*
X132000000Y-92629844D01*
X131895521Y-92560033D01*
X131743560Y-92497089D01*
X131582240Y-92465000D01*
X131417760Y-92465000D01*
X131256440Y-92497089D01*
X131104479Y-92560033D01*
X130967719Y-92651413D01*
X130851413Y-92767719D01*
X130760033Y-92904479D01*
X130697089Y-93056440D01*
X130665000Y-93217760D01*
X130182024Y-93217760D01*
X130148587Y-93167719D01*
X130032281Y-93051413D01*
X129895521Y-92960033D01*
X129743560Y-92897089D01*
X129582240Y-92865000D01*
X129417760Y-92865000D01*
X129256440Y-92897089D01*
X129104479Y-92960033D01*
X129000000Y-93029844D01*
X128895521Y-92960033D01*
X128743560Y-92897089D01*
X128582240Y-92865000D01*
X128417760Y-92865000D01*
X128256440Y-92897089D01*
X128104479Y-92960033D01*
X127967719Y-93051413D01*
X127851413Y-93167719D01*
X127760033Y-93304479D01*
X127697089Y-93456440D01*
X127665000Y-93617760D01*
X125660000Y-93617760D01*
X125660000Y-93431670D01*
X125725000Y-93438072D01*
X126725000Y-93438072D01*
X126849482Y-93425812D01*
X126969180Y-93389502D01*
X127079494Y-93330537D01*
X127176185Y-93251185D01*
X127255537Y-93154494D01*
X127314502Y-93044180D01*
X127350812Y-92924482D01*
X127363072Y-92800000D01*
X127363072Y-91885000D01*
X138636928Y-91885000D01*
X138636928Y-92800000D01*
X138649188Y-92924482D01*
X138685498Y-93044180D01*
X138744463Y-93154494D01*
X138823815Y-93251185D01*
X138920506Y-93330537D01*
X139030820Y-93389502D01*
X139150518Y-93425812D01*
X139275000Y-93438072D01*
X140275000Y-93438072D01*
X140399482Y-93425812D01*
X140519180Y-93389502D01*
X140629494Y-93330537D01*
X140726185Y-93251185D01*
X140805537Y-93154494D01*
X140864502Y-93044180D01*
X140900812Y-92924482D01*
X140913072Y-92800000D01*
X140913072Y-92233740D01*
X140915000Y-92233740D01*
X140915000Y-92526260D01*
X140972068Y-92813158D01*
X141084010Y-93083411D01*
X141246525Y-93326632D01*
X141453368Y-93533475D01*
X141627760Y-93650000D01*
X141453368Y-93766525D01*
X141246525Y-93973368D01*
X141084010Y-94216589D01*
X140972068Y-94486842D01*
X140915000Y-94773740D01*
X140915000Y-95066260D01*
X140972068Y-95353158D01*
X141084010Y-95623411D01*
X141246525Y-95866632D01*
X141453368Y-96073475D01*
X141627760Y-96190000D01*
X141453368Y-96306525D01*
X141246525Y-96513368D01*
X141084010Y-96756589D01*
X140972068Y-97026842D01*
X140915000Y-97313740D01*
X140915000Y-97606260D01*
X140972068Y-97893158D01*
X141084010Y-98163411D01*
X141246525Y-98406632D01*
X141453368Y-98613475D01*
X141635534Y-98735195D01*
X141518645Y-98804822D01*
X141302412Y-98999731D01*
X141128359Y-99233080D01*
X141003175Y-99495901D01*
X140958524Y-99643110D01*
X141079845Y-99873000D01*
X142273000Y-99873000D01*
X142273000Y-99853000D01*
X142527000Y-99853000D01*
X142527000Y-99873000D01*
X143720155Y-99873000D01*
X143841476Y-99643110D01*
X143796825Y-99495901D01*
X143671641Y-99233080D01*
X143497588Y-98999731D01*
X143281355Y-98804822D01*
X143164466Y-98735195D01*
X143346632Y-98613475D01*
X143553475Y-98406632D01*
X143715990Y-98163411D01*
X143827932Y-97893158D01*
X143834913Y-97858061D01*
X146135000Y-97858061D01*
X146135000Y-98061939D01*
X146174774Y-98261898D01*
X146252795Y-98450256D01*
X146366063Y-98619774D01*
X146510226Y-98763937D01*
X146679744Y-98877205D01*
X146868102Y-98955226D01*
X147068061Y-98995000D01*
X147271939Y-98995000D01*
X147471898Y-98955226D01*
X147660256Y-98877205D01*
X147829774Y-98763937D01*
X147973937Y-98619774D01*
X148087205Y-98450256D01*
X148120170Y-98370672D01*
X148219744Y-98437205D01*
X148408102Y-98515226D01*
X148608061Y-98555000D01*
X148811939Y-98555000D01*
X149011898Y-98515226D01*
X149200256Y-98437205D01*
X149369774Y-98323937D01*
X149513937Y-98179774D01*
X149627205Y-98010256D01*
X149648825Y-97958061D01*
X151477500Y-97958061D01*
X151477500Y-98161939D01*
X151517274Y-98361898D01*
X151595295Y-98550256D01*
X151708563Y-98719774D01*
X151852726Y-98863937D01*
X152022244Y-98977205D01*
X152210602Y-99055226D01*
X152410561Y-99095000D01*
X152614439Y-99095000D01*
X152814398Y-99055226D01*
X153002756Y-98977205D01*
X153172274Y-98863937D01*
X153316437Y-98719774D01*
X153429705Y-98550256D01*
X153507726Y-98361898D01*
X153547500Y-98161939D01*
X153547500Y-97958061D01*
X153507726Y-97758102D01*
X153429705Y-97569744D01*
X153316437Y-97400226D01*
X153172274Y-97256063D01*
X153002756Y-97142795D01*
X152814398Y-97064774D01*
X152614439Y-97025000D01*
X152410561Y-97025000D01*
X152210602Y-97064774D01*
X152022244Y-97142795D01*
X151852726Y-97256063D01*
X151708563Y-97400226D01*
X151595295Y-97569744D01*
X151517274Y-97758102D01*
X151477500Y-97958061D01*
X149648825Y-97958061D01*
X149705226Y-97821898D01*
X149745000Y-97621939D01*
X149745000Y-97430442D01*
X149922042Y-97395226D01*
X150110400Y-97317205D01*
X150125073Y-97307401D01*
X150139746Y-97317205D01*
X150328104Y-97395226D01*
X150528063Y-97435000D01*
X150731941Y-97435000D01*
X150931900Y-97395226D01*
X151120258Y-97317205D01*
X151289776Y-97203937D01*
X151433939Y-97059774D01*
X151547207Y-96890256D01*
X151625228Y-96701898D01*
X151645882Y-96598061D01*
X157195000Y-96598061D01*
X157195000Y-96801939D01*
X157234774Y-97001898D01*
X157312795Y-97190256D01*
X157426063Y-97359774D01*
X157570226Y-97503937D01*
X157739744Y-97617205D01*
X157928102Y-97695226D01*
X158128061Y-97735000D01*
X158331939Y-97735000D01*
X158531898Y-97695226D01*
X158720256Y-97617205D01*
X158889774Y-97503937D01*
X159033937Y-97359774D01*
X159147205Y-97190256D01*
X159225226Y-97001898D01*
X159265000Y-96801939D01*
X159265000Y-96598061D01*
X160315000Y-96598061D01*
X160315000Y-96801939D01*
X160354774Y-97001898D01*
X160432795Y-97190256D01*
X160546063Y-97359774D01*
X160690226Y-97503937D01*
X160859744Y-97617205D01*
X161048102Y-97695226D01*
X161248061Y-97735000D01*
X161451939Y-97735000D01*
X161651898Y-97695226D01*
X161840256Y-97617205D01*
X162009774Y-97503937D01*
X162153937Y-97359774D01*
X162267205Y-97190256D01*
X162345226Y-97001898D01*
X162385000Y-96801939D01*
X162385000Y-96598061D01*
X162345226Y-96398102D01*
X162267205Y-96209744D01*
X162153937Y-96040226D01*
X162009774Y-95896063D01*
X161840256Y-95782795D01*
X161651898Y-95704774D01*
X161527350Y-95680000D01*
X166779509Y-95680000D01*
X166801423Y-95902499D01*
X166866324Y-96116447D01*
X166971716Y-96313623D01*
X167113551Y-96486449D01*
X167286377Y-96628284D01*
X167483553Y-96733676D01*
X167697501Y-96798577D01*
X167864248Y-96815000D01*
X168083096Y-96815000D01*
X168076892Y-96829978D01*
X168040000Y-97015448D01*
X168040000Y-97204552D01*
X168076892Y-97390022D01*
X168149259Y-97564731D01*
X168254319Y-97721964D01*
X168388036Y-97855681D01*
X168545269Y-97960741D01*
X168719978Y-98033108D01*
X168905448Y-98070000D01*
X169094552Y-98070000D01*
X169280022Y-98033108D01*
X169454731Y-97960741D01*
X169611964Y-97855681D01*
X169745681Y-97721964D01*
X169850741Y-97564731D01*
X169923108Y-97390022D01*
X169960000Y-97204552D01*
X169960000Y-97015448D01*
X169923108Y-96829978D01*
X169850741Y-96655269D01*
X169769285Y-96533362D01*
X169826449Y-96486449D01*
X169864569Y-96440000D01*
X171505431Y-96440000D01*
X171543551Y-96486449D01*
X171716377Y-96628284D01*
X171890001Y-96721087D01*
X171890000Y-103278913D01*
X171716377Y-103371716D01*
X171543551Y-103513551D01*
X171505431Y-103560000D01*
X169864569Y-103560000D01*
X169826449Y-103513551D01*
X169769285Y-103466638D01*
X169850741Y-103344731D01*
X169923108Y-103170022D01*
X169960000Y-102984552D01*
X169960000Y-102795448D01*
X169923108Y-102609978D01*
X169850741Y-102435269D01*
X169745681Y-102278036D01*
X169611964Y-102144319D01*
X169454731Y-102039259D01*
X169280022Y-101966892D01*
X169094552Y-101930000D01*
X168905448Y-101930000D01*
X168719978Y-101966892D01*
X168545269Y-102039259D01*
X168388036Y-102144319D01*
X168254319Y-102278036D01*
X168149259Y-102435269D01*
X168076892Y-102609978D01*
X168040000Y-102795448D01*
X168040000Y-102984552D01*
X168076892Y-103170022D01*
X168083096Y-103185000D01*
X167864248Y-103185000D01*
X167697501Y-103201423D01*
X167483553Y-103266324D01*
X167286377Y-103371716D01*
X167113551Y-103513551D01*
X166971716Y-103686377D01*
X166866324Y-103883553D01*
X166801423Y-104097501D01*
X166779509Y-104320000D01*
X166801423Y-104542499D01*
X166866324Y-104756447D01*
X166971716Y-104953623D01*
X167113551Y-105126449D01*
X167286377Y-105268284D01*
X167483553Y-105373676D01*
X167697501Y-105438577D01*
X167864248Y-105455000D01*
X169075752Y-105455000D01*
X169242499Y-105438577D01*
X169456447Y-105373676D01*
X169653623Y-105268284D01*
X169826449Y-105126449D01*
X169864569Y-105080000D01*
X171505431Y-105080000D01*
X171543551Y-105126449D01*
X171716377Y-105268284D01*
X171913553Y-105373676D01*
X172127501Y-105438577D01*
X172294248Y-105455000D01*
X173005752Y-105455000D01*
X173172499Y-105438577D01*
X173386447Y-105373676D01*
X173583623Y-105268284D01*
X173756449Y-105126449D01*
X173898284Y-104953623D01*
X174003676Y-104756447D01*
X174068577Y-104542499D01*
X174090491Y-104320000D01*
X174068577Y-104097501D01*
X174003676Y-103883553D01*
X173898284Y-103686377D01*
X173756449Y-103513551D01*
X173583623Y-103371716D01*
X173410000Y-103278913D01*
X173410000Y-96721087D01*
X173583623Y-96628284D01*
X173756449Y-96486449D01*
X173898284Y-96313623D01*
X174003676Y-96116447D01*
X174068577Y-95902499D01*
X174090491Y-95680000D01*
X174068577Y-95457501D01*
X174003676Y-95243553D01*
X173898284Y-95046377D01*
X173756449Y-94873551D01*
X173583623Y-94731716D01*
X173386447Y-94626324D01*
X173172499Y-94561423D01*
X173005752Y-94545000D01*
X172294248Y-94545000D01*
X172127501Y-94561423D01*
X171913553Y-94626324D01*
X171716377Y-94731716D01*
X171543551Y-94873551D01*
X171505431Y-94920000D01*
X169864569Y-94920000D01*
X169826449Y-94873551D01*
X169653623Y-94731716D01*
X169456447Y-94626324D01*
X169242499Y-94561423D01*
X169075752Y-94545000D01*
X167864248Y-94545000D01*
X167697501Y-94561423D01*
X167483553Y-94626324D01*
X167286377Y-94731716D01*
X167113551Y-94873551D01*
X166971716Y-95046377D01*
X166866324Y-95243553D01*
X166801423Y-95457501D01*
X166779509Y-95680000D01*
X161527350Y-95680000D01*
X161451939Y-95665000D01*
X161248061Y-95665000D01*
X161048102Y-95704774D01*
X160859744Y-95782795D01*
X160690226Y-95896063D01*
X160546063Y-96040226D01*
X160432795Y-96209744D01*
X160354774Y-96398102D01*
X160315000Y-96598061D01*
X159265000Y-96598061D01*
X159225226Y-96398102D01*
X159147205Y-96209744D01*
X159033937Y-96040226D01*
X158889774Y-95896063D01*
X158720256Y-95782795D01*
X158531898Y-95704774D01*
X158331939Y-95665000D01*
X158128061Y-95665000D01*
X157928102Y-95704774D01*
X157739744Y-95782795D01*
X157570226Y-95896063D01*
X157426063Y-96040226D01*
X157312795Y-96209744D01*
X157234774Y-96398102D01*
X157195000Y-96598061D01*
X151645882Y-96598061D01*
X151665002Y-96501939D01*
X151665002Y-96298061D01*
X151625228Y-96098102D01*
X151547207Y-95909744D01*
X151433939Y-95740226D01*
X151289776Y-95596063D01*
X151120258Y-95482795D01*
X150931900Y-95404774D01*
X150731941Y-95365000D01*
X150528063Y-95365000D01*
X150328104Y-95404774D01*
X150139746Y-95482795D01*
X150125073Y-95492599D01*
X150110400Y-95482795D01*
X149922042Y-95404774D01*
X149722083Y-95365000D01*
X149518205Y-95365000D01*
X149318246Y-95404774D01*
X149129888Y-95482795D01*
X148960370Y-95596063D01*
X148816207Y-95740226D01*
X148702939Y-95909744D01*
X148624918Y-96098102D01*
X148585144Y-96298061D01*
X148585144Y-96489558D01*
X148408102Y-96524774D01*
X148219744Y-96602795D01*
X148050226Y-96716063D01*
X147906063Y-96860226D01*
X147792795Y-97029744D01*
X147759830Y-97109328D01*
X147660256Y-97042795D01*
X147471898Y-96964774D01*
X147271939Y-96925000D01*
X147068061Y-96925000D01*
X146868102Y-96964774D01*
X146679744Y-97042795D01*
X146510226Y-97156063D01*
X146366063Y-97300226D01*
X146252795Y-97469744D01*
X146174774Y-97658102D01*
X146135000Y-97858061D01*
X143834913Y-97858061D01*
X143885000Y-97606260D01*
X143885000Y-97313740D01*
X143827932Y-97026842D01*
X143715990Y-96756589D01*
X143553475Y-96513368D01*
X143346632Y-96306525D01*
X143172240Y-96190000D01*
X143346632Y-96073475D01*
X143553475Y-95866632D01*
X143715990Y-95623411D01*
X143827932Y-95353158D01*
X143885000Y-95066260D01*
X143885000Y-94773740D01*
X143827932Y-94486842D01*
X143715990Y-94216589D01*
X143553475Y-93973368D01*
X143346632Y-93766525D01*
X143172240Y-93650000D01*
X143346632Y-93533475D01*
X143553475Y-93326632D01*
X143715990Y-93083411D01*
X143827932Y-92813158D01*
X143885000Y-92526260D01*
X143885000Y-92233740D01*
X143827932Y-91946842D01*
X143715990Y-91676589D01*
X143553475Y-91433368D01*
X143346632Y-91226525D01*
X143103411Y-91064010D01*
X142833158Y-90952068D01*
X142546260Y-90895000D01*
X142253740Y-90895000D01*
X141966842Y-90952068D01*
X141696589Y-91064010D01*
X141453368Y-91226525D01*
X141246525Y-91433368D01*
X141084010Y-91676589D01*
X140972068Y-91946842D01*
X140915000Y-92233740D01*
X140913072Y-92233740D01*
X140913072Y-91800000D01*
X140900812Y-91675518D01*
X140893071Y-91650000D01*
X140900812Y-91624482D01*
X140913072Y-91500000D01*
X140913072Y-90660000D01*
X150919893Y-90660000D01*
X150726525Y-90853368D01*
%TA.AperFunction,Conductor*%
D23*
G36*
X150726525Y-90853368D02*
G01*
X150564010Y-91096589D01*
X150452068Y-91366842D01*
X150395000Y-91653740D01*
X150395000Y-91946260D01*
X150452068Y-92233158D01*
X150564010Y-92503411D01*
X150726525Y-92746632D01*
X150933368Y-92953475D01*
X151176589Y-93115990D01*
X151446842Y-93227932D01*
X151733740Y-93285000D01*
X152026260Y-93285000D01*
X152313158Y-93227932D01*
X152583411Y-93115990D01*
X152826632Y-92953475D01*
X153033475Y-92746632D01*
X153150000Y-92572240D01*
X153266525Y-92746632D01*
X153473368Y-92953475D01*
X153716589Y-93115990D01*
X153986842Y-93227932D01*
X154273740Y-93285000D01*
X154566260Y-93285000D01*
X154853158Y-93227932D01*
X155123411Y-93115990D01*
X155366632Y-92953475D01*
X155573475Y-92746632D01*
X155690000Y-92572240D01*
X155806525Y-92746632D01*
X156013368Y-92953475D01*
X156256589Y-93115990D01*
X156526842Y-93227932D01*
X156813740Y-93285000D01*
X157106260Y-93285000D01*
X157393158Y-93227932D01*
X157663411Y-93115990D01*
X157906632Y-92953475D01*
X158113475Y-92746632D01*
X158230000Y-92572240D01*
X158346525Y-92746632D01*
X158553368Y-92953475D01*
X158796589Y-93115990D01*
X159066842Y-93227932D01*
X159353740Y-93285000D01*
X159646260Y-93285000D01*
X159933158Y-93227932D01*
X160203411Y-93115990D01*
X160446632Y-92953475D01*
X160653475Y-92746632D01*
X160770000Y-92572240D01*
X160886525Y-92746632D01*
X161093368Y-92953475D01*
X161336589Y-93115990D01*
X161606842Y-93227932D01*
X161893740Y-93285000D01*
X162186260Y-93285000D01*
X162473158Y-93227932D01*
X162743411Y-93115990D01*
X162986632Y-92953475D01*
X163193475Y-92746632D01*
X163315195Y-92564466D01*
X163384822Y-92681355D01*
X163579731Y-92897588D01*
X163813080Y-93071641D01*
X164075901Y-93196825D01*
X164223110Y-93241476D01*
X164453000Y-93120155D01*
X164453000Y-91927000D01*
X164433000Y-91927000D01*
X164433000Y-91673000D01*
X164453000Y-91673000D01*
X164453000Y-91653000D01*
X164707000Y-91653000D01*
X164707000Y-91673000D01*
X164727000Y-91673000D01*
X164727000Y-91927000D01*
X164707000Y-91927000D01*
X164707000Y-93120155D01*
X164936890Y-93241476D01*
X165084099Y-93196825D01*
X165346920Y-93071641D01*
X165580269Y-92897588D01*
X165775178Y-92681355D01*
X165844805Y-92564466D01*
X165966525Y-92746632D01*
X166173368Y-92953475D01*
X166416589Y-93115990D01*
X166686842Y-93227932D01*
X166973740Y-93285000D01*
X167266260Y-93285000D01*
X167553158Y-93227932D01*
X167823411Y-93115990D01*
X168066632Y-92953475D01*
X168273475Y-92746632D01*
X168390000Y-92572240D01*
X168506525Y-92746632D01*
X168713368Y-92953475D01*
X168956589Y-93115990D01*
X169226842Y-93227932D01*
X169513740Y-93285000D01*
X169675000Y-93285000D01*
X169675000Y-93301939D01*
X169714774Y-93501898D01*
X169792795Y-93690256D01*
X169906063Y-93859774D01*
X170050226Y-94003937D01*
X170219744Y-94117205D01*
X170408102Y-94195226D01*
X170608061Y-94235000D01*
X170811939Y-94235000D01*
X171011898Y-94195226D01*
X171200256Y-94117205D01*
X171369774Y-94003937D01*
X171513937Y-93859774D01*
X171627205Y-93690256D01*
X171705226Y-93501898D01*
X171745000Y-93301939D01*
X171745000Y-93285921D01*
X171914250Y-93285000D01*
X172073000Y-93126250D01*
X172073000Y-91927000D01*
X172327000Y-91927000D01*
X172327000Y-93126250D01*
X172485750Y-93285000D01*
X173050000Y-93288072D01*
X173174482Y-93275812D01*
X173294180Y-93239502D01*
X173404494Y-93180537D01*
X173501185Y-93101185D01*
X173580537Y-93004494D01*
X173639502Y-92894180D01*
X173675812Y-92774482D01*
X173688072Y-92650000D01*
X173685000Y-92085750D01*
X173526250Y-91927000D01*
X172327000Y-91927000D01*
X172073000Y-91927000D01*
X172053000Y-91927000D01*
X172053000Y-91673000D01*
X172073000Y-91673000D01*
X172073000Y-91653000D01*
X172327000Y-91653000D01*
X172327000Y-91673000D01*
X173526250Y-91673000D01*
X173685000Y-91514250D01*
X173687205Y-91109294D01*
X173794299Y-91196637D01*
X174022806Y-91472856D01*
X174193310Y-91788197D01*
X174299319Y-92130656D01*
X174340000Y-92517712D01*
X174340001Y-107467711D01*
X174301853Y-107856776D01*
X174198238Y-108199964D01*
X174029939Y-108516489D01*
X173803365Y-108794296D01*
X173527146Y-109022805D01*
X173211803Y-109193310D01*
X172869344Y-109299319D01*
X172482288Y-109340000D01*
X159183711Y-109340000D01*
X159233937Y-109289774D01*
X159347205Y-109120256D01*
X159425226Y-108931898D01*
X159465000Y-108731939D01*
X159465000Y-108528061D01*
X159425226Y-108328102D01*
X159347205Y-108139744D01*
X159319354Y-108098061D01*
X164165000Y-108098061D01*
X164165000Y-108301939D01*
X164204774Y-108501898D01*
X164282795Y-108690256D01*
X164396063Y-108859774D01*
X164540226Y-109003937D01*
X164709744Y-109117205D01*
X164898102Y-109195226D01*
X165098061Y-109235000D01*
X165301939Y-109235000D01*
X165501898Y-109195226D01*
X165690256Y-109117205D01*
X165859774Y-109003937D01*
X166003937Y-108859774D01*
X166117205Y-108690256D01*
X166195226Y-108501898D01*
X166235000Y-108301939D01*
X166235000Y-108098061D01*
X167865000Y-108098061D01*
X167865000Y-108301939D01*
X167904774Y-108501898D01*
X167982795Y-108690256D01*
X168096063Y-108859774D01*
X168240226Y-109003937D01*
X168409744Y-109117205D01*
X168598102Y-109195226D01*
X168798061Y-109235000D01*
X169001939Y-109235000D01*
X169201898Y-109195226D01*
X169390256Y-109117205D01*
X169559774Y-109003937D01*
X169703937Y-108859774D01*
X169817205Y-108690256D01*
X169895226Y-108501898D01*
X169935000Y-108301939D01*
X169935000Y-108098061D01*
X169895226Y-107898102D01*
X169817205Y-107709744D01*
X169703937Y-107540226D01*
X169559774Y-107396063D01*
X169390256Y-107282795D01*
X169201898Y-107204774D01*
X169001939Y-107165000D01*
X168798061Y-107165000D01*
X168598102Y-107204774D01*
X168409744Y-107282795D01*
X168240226Y-107396063D01*
X168096063Y-107540226D01*
X167982795Y-107709744D01*
X167904774Y-107898102D01*
X167865000Y-108098061D01*
X166235000Y-108098061D01*
X166195226Y-107898102D01*
X166117205Y-107709744D01*
X166003937Y-107540226D01*
X165859774Y-107396063D01*
X165690256Y-107282795D01*
X165501898Y-107204774D01*
X165301939Y-107165000D01*
X165098061Y-107165000D01*
X164898102Y-107204774D01*
X164709744Y-107282795D01*
X164540226Y-107396063D01*
X164396063Y-107540226D01*
X164282795Y-107709744D01*
X164204774Y-107898102D01*
X164165000Y-108098061D01*
X159319354Y-108098061D01*
X159233937Y-107970226D01*
X159089774Y-107826063D01*
X158920256Y-107712795D01*
X158731898Y-107634774D01*
X158531939Y-107595000D01*
X158328061Y-107595000D01*
X158128102Y-107634774D01*
X157939744Y-107712795D01*
X157770226Y-107826063D01*
X157626063Y-107970226D01*
X157512795Y-108139744D01*
X157434774Y-108328102D01*
X157395000Y-108528061D01*
X157395000Y-108731939D01*
X157434774Y-108931898D01*
X157512795Y-109120256D01*
X157626063Y-109289774D01*
X157676289Y-109340000D01*
X140913072Y-109340000D01*
X140913072Y-108500000D01*
X140900812Y-108375518D01*
X140893071Y-108350000D01*
X140900812Y-108324482D01*
X140911928Y-108211616D01*
X140911928Y-108470000D01*
X140924188Y-108594482D01*
X140960498Y-108714180D01*
X141019463Y-108824494D01*
X141098815Y-108921185D01*
X141195506Y-109000537D01*
X141305820Y-109059502D01*
X141425518Y-109095812D01*
X141550000Y-109108072D01*
X143250000Y-109108072D01*
X143374482Y-109095812D01*
X143494180Y-109059502D01*
X143604494Y-109000537D01*
X143701185Y-108921185D01*
X143780537Y-108824494D01*
X143839502Y-108714180D01*
X143875812Y-108594482D01*
X143888072Y-108470000D01*
X143888072Y-106770000D01*
X143875812Y-106645518D01*
X143839502Y-106525820D01*
X143780537Y-106415506D01*
X143701185Y-106318815D01*
X143604494Y-106239463D01*
X143494180Y-106180498D01*
X143421620Y-106158487D01*
X143553475Y-106026632D01*
X143715990Y-105783411D01*
X143827932Y-105513158D01*
X143885000Y-105226260D01*
X143885000Y-104933740D01*
X143827932Y-104646842D01*
X143715990Y-104376589D01*
X143569975Y-104158061D01*
X154665000Y-104158061D01*
X154665000Y-104361939D01*
X154704774Y-104561898D01*
X154782795Y-104750256D01*
X154896063Y-104919774D01*
X155040226Y-105063937D01*
X155209744Y-105177205D01*
X155398102Y-105255226D01*
X155598061Y-105295000D01*
X155801939Y-105295000D01*
X156001898Y-105255226D01*
X156190256Y-105177205D01*
X156359774Y-105063937D01*
X156503937Y-104919774D01*
X156617205Y-104750256D01*
X156695226Y-104561898D01*
X156735000Y-104361939D01*
X156735000Y-104158061D01*
X156695226Y-103958102D01*
X156617205Y-103769744D01*
X156503937Y-103600226D01*
X156359774Y-103456063D01*
X156190256Y-103342795D01*
X156001898Y-103264774D01*
X155801939Y-103225000D01*
X155598061Y-103225000D01*
X155398102Y-103264774D01*
X155209744Y-103342795D01*
X155040226Y-103456063D01*
X154896063Y-103600226D01*
X154782795Y-103769744D01*
X154704774Y-103958102D01*
X154665000Y-104158061D01*
X143569975Y-104158061D01*
X143553475Y-104133368D01*
X143346632Y-103926525D01*
X143172240Y-103810000D01*
X143346632Y-103693475D01*
X143553475Y-103486632D01*
X143715990Y-103243411D01*
X143827932Y-102973158D01*
X143885000Y-102686260D01*
X143885000Y-102393740D01*
X143827932Y-102106842D01*
X143715990Y-101836589D01*
X143553475Y-101593368D01*
X143346632Y-101386525D01*
X143164466Y-101264805D01*
X143281355Y-101195178D01*
X143497588Y-101000269D01*
X143611118Y-100848061D01*
X148965000Y-100848061D01*
X148965000Y-101051939D01*
X149004774Y-101251898D01*
X149082795Y-101440256D01*
X149196063Y-101609774D01*
X149340226Y-101753937D01*
X149509744Y-101867205D01*
X149698102Y-101945226D01*
X149898061Y-101985000D01*
X150101939Y-101985000D01*
X150301898Y-101945226D01*
X150490256Y-101867205D01*
X150659774Y-101753937D01*
X150665650Y-101748061D01*
X151477500Y-101748061D01*
X151477500Y-101951939D01*
X151517274Y-102151898D01*
X151595295Y-102340256D01*
X151708563Y-102509774D01*
X151852726Y-102653937D01*
X152022244Y-102767205D01*
X152210602Y-102845226D01*
X152410561Y-102885000D01*
X152415476Y-102885000D01*
X152415476Y-102955152D01*
X152455250Y-103155111D01*
X152533271Y-103343469D01*
X152646539Y-103512987D01*
X152790702Y-103657150D01*
X152960220Y-103770418D01*
X153148578Y-103848439D01*
X153348537Y-103888213D01*
X153552415Y-103888213D01*
X153752374Y-103848439D01*
X153940732Y-103770418D01*
X154110250Y-103657150D01*
X154254413Y-103512987D01*
X154367681Y-103343469D01*
X154445702Y-103155111D01*
X154485476Y-102955152D01*
X154485476Y-102751274D01*
X154445702Y-102551315D01*
X154367681Y-102362957D01*
X154254413Y-102193439D01*
X154140295Y-102079321D01*
X154290256Y-102017205D01*
X154459774Y-101903937D01*
X154603937Y-101759774D01*
X154717205Y-101590256D01*
X154795226Y-101401898D01*
X154835000Y-101201939D01*
X154835000Y-100998061D01*
X154795226Y-100798102D01*
X154717205Y-100609744D01*
X154677285Y-100550000D01*
X154717205Y-100490256D01*
X154795226Y-100301898D01*
X154835000Y-100101939D01*
X154835000Y-99898061D01*
X154795226Y-99698102D01*
X154743432Y-99573061D01*
X157195000Y-99573061D01*
X157195000Y-99776939D01*
X157234774Y-99976898D01*
X157312795Y-100165256D01*
X157426063Y-100334774D01*
X157570226Y-100478937D01*
X157739744Y-100592205D01*
X157928102Y-100670226D01*
X158128061Y-100710000D01*
X158331939Y-100710000D01*
X158531898Y-100670226D01*
X158720256Y-100592205D01*
X158889774Y-100478937D01*
X159033937Y-100334774D01*
X159147205Y-100165256D01*
X159225226Y-99976898D01*
X159265000Y-99776939D01*
X159265000Y-99573061D01*
X160315000Y-99573061D01*
X160315000Y-99776939D01*
X160354774Y-99976898D01*
X160432795Y-100165256D01*
X160546063Y-100334774D01*
X160690226Y-100478937D01*
X160859744Y-100592205D01*
X161048102Y-100670226D01*
X161248061Y-100710000D01*
X161451939Y-100710000D01*
X161651898Y-100670226D01*
X161840256Y-100592205D01*
X162009774Y-100478937D01*
X162153937Y-100334774D01*
X162267205Y-100165256D01*
X162345226Y-99976898D01*
X162385000Y-99776939D01*
X162385000Y-99573061D01*
X162345226Y-99373102D01*
X162267205Y-99184744D01*
X162153937Y-99015226D01*
X162009774Y-98871063D01*
X161840256Y-98757795D01*
X161651898Y-98679774D01*
X161451939Y-98640000D01*
X161248061Y-98640000D01*
X161048102Y-98679774D01*
X160859744Y-98757795D01*
X160690226Y-98871063D01*
X160546063Y-99015226D01*
X160432795Y-99184744D01*
X160354774Y-99373102D01*
X160315000Y-99573061D01*
X159265000Y-99573061D01*
X159225226Y-99373102D01*
X159147205Y-99184744D01*
X159033937Y-99015226D01*
X158889774Y-98871063D01*
X158720256Y-98757795D01*
X158531898Y-98679774D01*
X158331939Y-98640000D01*
X158128061Y-98640000D01*
X157928102Y-98679774D01*
X157739744Y-98757795D01*
X157570226Y-98871063D01*
X157426063Y-99015226D01*
X157312795Y-99184744D01*
X157234774Y-99373102D01*
X157195000Y-99573061D01*
X154743432Y-99573061D01*
X154717205Y-99509744D01*
X154603937Y-99340226D01*
X154459774Y-99196063D01*
X154290256Y-99082795D01*
X154101898Y-99004774D01*
X153901939Y-98965000D01*
X153698061Y-98965000D01*
X153498102Y-99004774D01*
X153309744Y-99082795D01*
X153140226Y-99196063D01*
X152996063Y-99340226D01*
X152882795Y-99509744D01*
X152804774Y-99698102D01*
X152765000Y-99898061D01*
X152765000Y-100101939D01*
X152804774Y-100301898D01*
X152882795Y-100490256D01*
X152922715Y-100550000D01*
X152882795Y-100609744D01*
X152804774Y-100798102D01*
X152794297Y-100850776D01*
X152614439Y-100815000D01*
X152410561Y-100815000D01*
X152210602Y-100854774D01*
X152022244Y-100932795D01*
X151852726Y-101046063D01*
X151708563Y-101190226D01*
X151595295Y-101359744D01*
X151517274Y-101548102D01*
X151477500Y-101748061D01*
X150665650Y-101748061D01*
X150803937Y-101609774D01*
X150917205Y-101440256D01*
X150995226Y-101251898D01*
X151035000Y-101051939D01*
X151035000Y-100848061D01*
X150995226Y-100648102D01*
X150917205Y-100459744D01*
X150803937Y-100290226D01*
X150659774Y-100146063D01*
X150490256Y-100032795D01*
X150301898Y-99954774D01*
X150101939Y-99915000D01*
X149898061Y-99915000D01*
X149698102Y-99954774D01*
X149509744Y-100032795D01*
X149340226Y-100146063D01*
X149196063Y-100290226D01*
X149082795Y-100459744D01*
X149004774Y-100648102D01*
X148965000Y-100848061D01*
X143611118Y-100848061D01*
X143671641Y-100766920D01*
X143796825Y-100504099D01*
X143841476Y-100356890D01*
X143720155Y-100127000D01*
X142527000Y-100127000D01*
X142527000Y-100147000D01*
X142273000Y-100147000D01*
X142273000Y-100127000D01*
X141079845Y-100127000D01*
X140958524Y-100356890D01*
X141003175Y-100504099D01*
X141128359Y-100766920D01*
X141302412Y-101000269D01*
X141518645Y-101195178D01*
X141635534Y-101264805D01*
X141453368Y-101386525D01*
X141246525Y-101593368D01*
X141084010Y-101836589D01*
X140972068Y-102106842D01*
X140915000Y-102393740D01*
X140915000Y-102686260D01*
X140972068Y-102973158D01*
X141084010Y-103243411D01*
X141246525Y-103486632D01*
X141453368Y-103693475D01*
X141627760Y-103810000D01*
X141453368Y-103926525D01*
X141246525Y-104133368D01*
X141084010Y-104376589D01*
X140972068Y-104646842D01*
X140915000Y-104933740D01*
X140915000Y-105226260D01*
X140972068Y-105513158D01*
X141084010Y-105783411D01*
X141246525Y-106026632D01*
X141378380Y-106158487D01*
X141305820Y-106180498D01*
X141195506Y-106239463D01*
X141098815Y-106318815D01*
X141019463Y-106415506D01*
X140960498Y-106525820D01*
X140924188Y-106645518D01*
X140911928Y-106770000D01*
X140911928Y-107188384D01*
X140900812Y-107075518D01*
X140864502Y-106955820D01*
X140805537Y-106845506D01*
X140726185Y-106748815D01*
X140629494Y-106669463D01*
X140519180Y-106610498D01*
X140399482Y-106574188D01*
X140275000Y-106561928D01*
X139275000Y-106561928D01*
X139150518Y-106574188D01*
X139030820Y-106610498D01*
X138920506Y-106669463D01*
X138823815Y-106748815D01*
X138744463Y-106845506D01*
X138685498Y-106955820D01*
X138649188Y-107075518D01*
X138636928Y-107200000D01*
X138636928Y-108115000D01*
X127363072Y-108115000D01*
X127363072Y-107200000D01*
X127350812Y-107075518D01*
X127314502Y-106955820D01*
X127255537Y-106845506D01*
X127176185Y-106748815D01*
X127138345Y-106717760D01*
X129165000Y-106717760D01*
X129165000Y-106882240D01*
X129197089Y-107043560D01*
X129260033Y-107195521D01*
X129351413Y-107332281D01*
X129467719Y-107448587D01*
X129604479Y-107539967D01*
X129756440Y-107602911D01*
X129917760Y-107635000D01*
X130082240Y-107635000D01*
X130243560Y-107602911D01*
X130395521Y-107539967D01*
X130500000Y-107470156D01*
X130604479Y-107539967D01*
X130756440Y-107602911D01*
X130917760Y-107635000D01*
X131082240Y-107635000D01*
X131243560Y-107602911D01*
X131395521Y-107539967D01*
X131532281Y-107448587D01*
X131648587Y-107332281D01*
X131739967Y-107195521D01*
X131802911Y-107043560D01*
X131835000Y-106882240D01*
X131835000Y-106717760D01*
X132165000Y-106717760D01*
X132165000Y-106882240D01*
X132197089Y-107043560D01*
X132260033Y-107195521D01*
X132351413Y-107332281D01*
X132467719Y-107448587D01*
X132604479Y-107539967D01*
X132756440Y-107602911D01*
X132917760Y-107635000D01*
X133082240Y-107635000D01*
X133243560Y-107602911D01*
X133395521Y-107539967D01*
X133500000Y-107470156D01*
X133604479Y-107539967D01*
X133756440Y-107602911D01*
X133917760Y-107635000D01*
X134082240Y-107635000D01*
X134243560Y-107602911D01*
X134395521Y-107539967D01*
X134500000Y-107470156D01*
X134604479Y-107539967D01*
X134756440Y-107602911D01*
X134917760Y-107635000D01*
X135082240Y-107635000D01*
X135243560Y-107602911D01*
X135395521Y-107539967D01*
X135500000Y-107470156D01*
X135604479Y-107539967D01*
X135756440Y-107602911D01*
X135917760Y-107635000D01*
X136082240Y-107635000D01*
X136243560Y-107602911D01*
X136395521Y-107539967D01*
X136500000Y-107470156D01*
X136604479Y-107539967D01*
X136756440Y-107602911D01*
X136917760Y-107635000D01*
X137082240Y-107635000D01*
X137243560Y-107602911D01*
X137395521Y-107539967D01*
X137532281Y-107448587D01*
X137648587Y-107332281D01*
X137739967Y-107195521D01*
X137785528Y-107085528D01*
X137895521Y-107039967D01*
X138032281Y-106948587D01*
X138148587Y-106832281D01*
X138239967Y-106695521D01*
X138302911Y-106543560D01*
X138335000Y-106382240D01*
X138335000Y-106217760D01*
X138302911Y-106056440D01*
X138239967Y-105904479D01*
X138148587Y-105767719D01*
X138032281Y-105651413D01*
X137895521Y-105560033D01*
X137743560Y-105497089D01*
X137582240Y-105465000D01*
X137417760Y-105465000D01*
X137256440Y-105497089D01*
X137104479Y-105560033D01*
X136967719Y-105651413D01*
X136851413Y-105767719D01*
X136760033Y-105904479D01*
X136714472Y-106014472D01*
X136604479Y-106060033D01*
X136500000Y-106129844D01*
X136395521Y-106060033D01*
X136285528Y-106014472D01*
X136239967Y-105904479D01*
X136148587Y-105767719D01*
X136032281Y-105651413D01*
X135895521Y-105560033D01*
X135743560Y-105497089D01*
X135582240Y-105465000D01*
X135417760Y-105465000D01*
X135256440Y-105497089D01*
X135104479Y-105560033D01*
X135000000Y-105629844D01*
X134895521Y-105560033D01*
X134743560Y-105497089D01*
X134582240Y-105465000D01*
X134417760Y-105465000D01*
X134256440Y-105497089D01*
X134104479Y-105560033D01*
X133967719Y-105651413D01*
X133851413Y-105767719D01*
X133760033Y-105904479D01*
X133714472Y-106014472D01*
X133604479Y-106060033D01*
X133500000Y-106129844D01*
X133395521Y-106060033D01*
X133243560Y-105997089D01*
X133082240Y-105965000D01*
X132917760Y-105965000D01*
X132756440Y-105997089D01*
X132604479Y-106060033D01*
X132467719Y-106151413D01*
X132351413Y-106267719D01*
X132260033Y-106404479D01*
X132197089Y-106556440D01*
X132165000Y-106717760D01*
X131835000Y-106717760D01*
X131802911Y-106556440D01*
X131739967Y-106404479D01*
X131648587Y-106267719D01*
X131532281Y-106151413D01*
X131395521Y-106060033D01*
X131243560Y-105997089D01*
X131082240Y-105965000D01*
X130917760Y-105965000D01*
X130756440Y-105997089D01*
X130604479Y-106060033D01*
X130500000Y-106129844D01*
X130395521Y-106060033D01*
X130243560Y-105997089D01*
X130082240Y-105965000D01*
X129917760Y-105965000D01*
X129756440Y-105997089D01*
X129604479Y-106060033D01*
X129467719Y-106151413D01*
X129351413Y-106267719D01*
X129260033Y-106404479D01*
X129197089Y-106556440D01*
X129165000Y-106717760D01*
X127138345Y-106717760D01*
X127079494Y-106669463D01*
X126969180Y-106610498D01*
X126849482Y-106574188D01*
X126725000Y-106561928D01*
X125725000Y-106561928D01*
X125660000Y-106568330D01*
X125660000Y-93617760D01*
X127665000Y-93617760D01*
X127665000Y-93782240D01*
X127697089Y-93943560D01*
X127760033Y-94095521D01*
X127851413Y-94232281D01*
X127967719Y-94348587D01*
X128104479Y-94439967D01*
X128256440Y-94502911D01*
X128417760Y-94535000D01*
X128582240Y-94535000D01*
X128743560Y-94502911D01*
X128895521Y-94439967D01*
X129000000Y-94370156D01*
X129104479Y-94439967D01*
X129256440Y-94502911D01*
X129417760Y-94535000D01*
X129582240Y-94535000D01*
X129743560Y-94502911D01*
X129895521Y-94439967D01*
X130032281Y-94348587D01*
X130148587Y-94232281D01*
X130239967Y-94095521D01*
X130302911Y-93943560D01*
X130335000Y-93782240D01*
X130335000Y-93617760D01*
X130302911Y-93456440D01*
X130239967Y-93304479D01*
X130182024Y-93217760D01*
X130665000Y-93217760D01*
X130665000Y-93382240D01*
X130697089Y-93543560D01*
X130760033Y-93695521D01*
X130851413Y-93832281D01*
X130967719Y-93948587D01*
X131104479Y-94039967D01*
X131256440Y-94102911D01*
X131417760Y-94135000D01*
X131582240Y-94135000D01*
X131743560Y-94102911D01*
X131895521Y-94039967D01*
X132000000Y-93970156D01*
X132104479Y-94039967D01*
X132256440Y-94102911D01*
X132417760Y-94135000D01*
X132582240Y-94135000D01*
X132743560Y-94102911D01*
X132895521Y-94039967D01*
X133032281Y-93948587D01*
X133148587Y-93832281D01*
X133239967Y-93695521D01*
X133302911Y-93543560D01*
X133335000Y-93382240D01*
X133335000Y-93217760D01*
X133315109Y-93117760D01*
X133665000Y-93117760D01*
X133665000Y-93282240D01*
X133697089Y-93443560D01*
X133760033Y-93595521D01*
X133851413Y-93732281D01*
X133967719Y-93848587D01*
X134104479Y-93939967D01*
X134214472Y-93985528D01*
X134260033Y-94095521D01*
X134351413Y-94232281D01*
X134467719Y-94348587D01*
X134604479Y-94439967D01*
X134756440Y-94502911D01*
X134917760Y-94535000D01*
X135082240Y-94535000D01*
X135243560Y-94502911D01*
X135395521Y-94439967D01*
X135500000Y-94370156D01*
X135604479Y-94439967D01*
X135756440Y-94502911D01*
X135917760Y-94535000D01*
X136082240Y-94535000D01*
X136243560Y-94502911D01*
X136395521Y-94439967D01*
X136500000Y-94370156D01*
X136604479Y-94439967D01*
X136756440Y-94502911D01*
X136917760Y-94535000D01*
X137082240Y-94535000D01*
X137243560Y-94502911D01*
X137395521Y-94439967D01*
X137532281Y-94348587D01*
X137648587Y-94232281D01*
X137739967Y-94095521D01*
X137785528Y-93985528D01*
X137895521Y-93939967D01*
X138032281Y-93848587D01*
X138148587Y-93732281D01*
X138239967Y-93595521D01*
X138302911Y-93443560D01*
X138335000Y-93282240D01*
X138335000Y-93117760D01*
X138302911Y-92956440D01*
X138239967Y-92804479D01*
X138148587Y-92667719D01*
X138032281Y-92551413D01*
X137895521Y-92460033D01*
X137743560Y-92397089D01*
X137582240Y-92365000D01*
X137417760Y-92365000D01*
X137256440Y-92397089D01*
X137104479Y-92460033D01*
X136967719Y-92551413D01*
X136851413Y-92667719D01*
X136760033Y-92804479D01*
X136714472Y-92914472D01*
X136604479Y-92960033D01*
X136500000Y-93029844D01*
X136395521Y-92960033D01*
X136285528Y-92914472D01*
X136239967Y-92804479D01*
X136148587Y-92667719D01*
X136032281Y-92551413D01*
X135895521Y-92460033D01*
X135743560Y-92397089D01*
X135582240Y-92365000D01*
X135417760Y-92365000D01*
X135256440Y-92397089D01*
X135104479Y-92460033D01*
X135000000Y-92529844D01*
X134895521Y-92460033D01*
X134743560Y-92397089D01*
X134582240Y-92365000D01*
X134417760Y-92365000D01*
X134256440Y-92397089D01*
X134104479Y-92460033D01*
X133967719Y-92551413D01*
X133851413Y-92667719D01*
X133760033Y-92804479D01*
X133697089Y-92956440D01*
X133665000Y-93117760D01*
X133315109Y-93117760D01*
X133302911Y-93056440D01*
X133239967Y-92904479D01*
X133148587Y-92767719D01*
X133032281Y-92651413D01*
X132895521Y-92560033D01*
X132743560Y-92497089D01*
X132582240Y-92465000D01*
X132417760Y-92465000D01*
X132256440Y-92497089D01*
X132104479Y-92560033D01*
X132000000Y-92629844D01*
X131895521Y-92560033D01*
X131743560Y-92497089D01*
X131582240Y-92465000D01*
X131417760Y-92465000D01*
X131256440Y-92497089D01*
X131104479Y-92560033D01*
X130967719Y-92651413D01*
X130851413Y-92767719D01*
X130760033Y-92904479D01*
X130697089Y-93056440D01*
X130665000Y-93217760D01*
X130182024Y-93217760D01*
X130148587Y-93167719D01*
X130032281Y-93051413D01*
X129895521Y-92960033D01*
X129743560Y-92897089D01*
X129582240Y-92865000D01*
X129417760Y-92865000D01*
X129256440Y-92897089D01*
X129104479Y-92960033D01*
X129000000Y-93029844D01*
X128895521Y-92960033D01*
X128743560Y-92897089D01*
X128582240Y-92865000D01*
X128417760Y-92865000D01*
X128256440Y-92897089D01*
X128104479Y-92960033D01*
X127967719Y-93051413D01*
X127851413Y-93167719D01*
X127760033Y-93304479D01*
X127697089Y-93456440D01*
X127665000Y-93617760D01*
X125660000Y-93617760D01*
X125660000Y-93431670D01*
X125725000Y-93438072D01*
X126725000Y-93438072D01*
X126849482Y-93425812D01*
X126969180Y-93389502D01*
X127079494Y-93330537D01*
X127176185Y-93251185D01*
X127255537Y-93154494D01*
X127314502Y-93044180D01*
X127350812Y-92924482D01*
X127363072Y-92800000D01*
X127363072Y-91885000D01*
X138636928Y-91885000D01*
X138636928Y-92800000D01*
X138649188Y-92924482D01*
X138685498Y-93044180D01*
X138744463Y-93154494D01*
X138823815Y-93251185D01*
X138920506Y-93330537D01*
X139030820Y-93389502D01*
X139150518Y-93425812D01*
X139275000Y-93438072D01*
X140275000Y-93438072D01*
X140399482Y-93425812D01*
X140519180Y-93389502D01*
X140629494Y-93330537D01*
X140726185Y-93251185D01*
X140805537Y-93154494D01*
X140864502Y-93044180D01*
X140900812Y-92924482D01*
X140913072Y-92800000D01*
X140913072Y-92233740D01*
X140915000Y-92233740D01*
X140915000Y-92526260D01*
X140972068Y-92813158D01*
X141084010Y-93083411D01*
X141246525Y-93326632D01*
X141453368Y-93533475D01*
X141627760Y-93650000D01*
X141453368Y-93766525D01*
X141246525Y-93973368D01*
X141084010Y-94216589D01*
X140972068Y-94486842D01*
X140915000Y-94773740D01*
X140915000Y-95066260D01*
X140972068Y-95353158D01*
X141084010Y-95623411D01*
X141246525Y-95866632D01*
X141453368Y-96073475D01*
X141627760Y-96190000D01*
X141453368Y-96306525D01*
X141246525Y-96513368D01*
X141084010Y-96756589D01*
X140972068Y-97026842D01*
X140915000Y-97313740D01*
X140915000Y-97606260D01*
X140972068Y-97893158D01*
X141084010Y-98163411D01*
X141246525Y-98406632D01*
X141453368Y-98613475D01*
X141635534Y-98735195D01*
X141518645Y-98804822D01*
X141302412Y-98999731D01*
X141128359Y-99233080D01*
X141003175Y-99495901D01*
X140958524Y-99643110D01*
X141079845Y-99873000D01*
X142273000Y-99873000D01*
X142273000Y-99853000D01*
X142527000Y-99853000D01*
X142527000Y-99873000D01*
X143720155Y-99873000D01*
X143841476Y-99643110D01*
X143796825Y-99495901D01*
X143671641Y-99233080D01*
X143497588Y-98999731D01*
X143281355Y-98804822D01*
X143164466Y-98735195D01*
X143346632Y-98613475D01*
X143553475Y-98406632D01*
X143715990Y-98163411D01*
X143827932Y-97893158D01*
X143834913Y-97858061D01*
X146135000Y-97858061D01*
X146135000Y-98061939D01*
X146174774Y-98261898D01*
X146252795Y-98450256D01*
X146366063Y-98619774D01*
X146510226Y-98763937D01*
X146679744Y-98877205D01*
X146868102Y-98955226D01*
X147068061Y-98995000D01*
X147271939Y-98995000D01*
X147471898Y-98955226D01*
X147660256Y-98877205D01*
X147829774Y-98763937D01*
X147973937Y-98619774D01*
X148087205Y-98450256D01*
X148120170Y-98370672D01*
X148219744Y-98437205D01*
X148408102Y-98515226D01*
X148608061Y-98555000D01*
X148811939Y-98555000D01*
X149011898Y-98515226D01*
X149200256Y-98437205D01*
X149369774Y-98323937D01*
X149513937Y-98179774D01*
X149627205Y-98010256D01*
X149648825Y-97958061D01*
X151477500Y-97958061D01*
X151477500Y-98161939D01*
X151517274Y-98361898D01*
X151595295Y-98550256D01*
X151708563Y-98719774D01*
X151852726Y-98863937D01*
X152022244Y-98977205D01*
X152210602Y-99055226D01*
X152410561Y-99095000D01*
X152614439Y-99095000D01*
X152814398Y-99055226D01*
X153002756Y-98977205D01*
X153172274Y-98863937D01*
X153316437Y-98719774D01*
X153429705Y-98550256D01*
X153507726Y-98361898D01*
X153547500Y-98161939D01*
X153547500Y-97958061D01*
X153507726Y-97758102D01*
X153429705Y-97569744D01*
X153316437Y-97400226D01*
X153172274Y-97256063D01*
X153002756Y-97142795D01*
X152814398Y-97064774D01*
X152614439Y-97025000D01*
X152410561Y-97025000D01*
X152210602Y-97064774D01*
X152022244Y-97142795D01*
X151852726Y-97256063D01*
X151708563Y-97400226D01*
X151595295Y-97569744D01*
X151517274Y-97758102D01*
X151477500Y-97958061D01*
X149648825Y-97958061D01*
X149705226Y-97821898D01*
X149745000Y-97621939D01*
X149745000Y-97430442D01*
X149922042Y-97395226D01*
X150110400Y-97317205D01*
X150125073Y-97307401D01*
X150139746Y-97317205D01*
X150328104Y-97395226D01*
X150528063Y-97435000D01*
X150731941Y-97435000D01*
X150931900Y-97395226D01*
X151120258Y-97317205D01*
X151289776Y-97203937D01*
X151433939Y-97059774D01*
X151547207Y-96890256D01*
X151625228Y-96701898D01*
X151645882Y-96598061D01*
X157195000Y-96598061D01*
X157195000Y-96801939D01*
X157234774Y-97001898D01*
X157312795Y-97190256D01*
X157426063Y-97359774D01*
X157570226Y-97503937D01*
X157739744Y-97617205D01*
X157928102Y-97695226D01*
X158128061Y-97735000D01*
X158331939Y-97735000D01*
X158531898Y-97695226D01*
X158720256Y-97617205D01*
X158889774Y-97503937D01*
X159033937Y-97359774D01*
X159147205Y-97190256D01*
X159225226Y-97001898D01*
X159265000Y-96801939D01*
X159265000Y-96598061D01*
X160315000Y-96598061D01*
X160315000Y-96801939D01*
X160354774Y-97001898D01*
X160432795Y-97190256D01*
X160546063Y-97359774D01*
X160690226Y-97503937D01*
X160859744Y-97617205D01*
X161048102Y-97695226D01*
X161248061Y-97735000D01*
X161451939Y-97735000D01*
X161651898Y-97695226D01*
X161840256Y-97617205D01*
X162009774Y-97503937D01*
X162153937Y-97359774D01*
X162267205Y-97190256D01*
X162345226Y-97001898D01*
X162385000Y-96801939D01*
X162385000Y-96598061D01*
X162345226Y-96398102D01*
X162267205Y-96209744D01*
X162153937Y-96040226D01*
X162009774Y-95896063D01*
X161840256Y-95782795D01*
X161651898Y-95704774D01*
X161527350Y-95680000D01*
X166779509Y-95680000D01*
X166801423Y-95902499D01*
X166866324Y-96116447D01*
X166971716Y-96313623D01*
X167113551Y-96486449D01*
X167286377Y-96628284D01*
X167483553Y-96733676D01*
X167697501Y-96798577D01*
X167864248Y-96815000D01*
X168083096Y-96815000D01*
X168076892Y-96829978D01*
X168040000Y-97015448D01*
X168040000Y-97204552D01*
X168076892Y-97390022D01*
X168149259Y-97564731D01*
X168254319Y-97721964D01*
X168388036Y-97855681D01*
X168545269Y-97960741D01*
X168719978Y-98033108D01*
X168905448Y-98070000D01*
X169094552Y-98070000D01*
X169280022Y-98033108D01*
X169454731Y-97960741D01*
X169611964Y-97855681D01*
X169745681Y-97721964D01*
X169850741Y-97564731D01*
X169923108Y-97390022D01*
X169960000Y-97204552D01*
X169960000Y-97015448D01*
X169923108Y-96829978D01*
X169850741Y-96655269D01*
X169769285Y-96533362D01*
X169826449Y-96486449D01*
X169864569Y-96440000D01*
X171505431Y-96440000D01*
X171543551Y-96486449D01*
X171716377Y-96628284D01*
X171890001Y-96721087D01*
X171890000Y-103278913D01*
X171716377Y-103371716D01*
X171543551Y-103513551D01*
X171505431Y-103560000D01*
X169864569Y-103560000D01*
X169826449Y-103513551D01*
X169769285Y-103466638D01*
X169850741Y-103344731D01*
X169923108Y-103170022D01*
X169960000Y-102984552D01*
X169960000Y-102795448D01*
X169923108Y-102609978D01*
X169850741Y-102435269D01*
X169745681Y-102278036D01*
X169611964Y-102144319D01*
X169454731Y-102039259D01*
X169280022Y-101966892D01*
X169094552Y-101930000D01*
X168905448Y-101930000D01*
X168719978Y-101966892D01*
X168545269Y-102039259D01*
X168388036Y-102144319D01*
X168254319Y-102278036D01*
X168149259Y-102435269D01*
X168076892Y-102609978D01*
X168040000Y-102795448D01*
X168040000Y-102984552D01*
X168076892Y-103170022D01*
X168083096Y-103185000D01*
X167864248Y-103185000D01*
X167697501Y-103201423D01*
X167483553Y-103266324D01*
X167286377Y-103371716D01*
X167113551Y-103513551D01*
X166971716Y-103686377D01*
X166866324Y-103883553D01*
X166801423Y-104097501D01*
X166779509Y-104320000D01*
X166801423Y-104542499D01*
X166866324Y-104756447D01*
X166971716Y-104953623D01*
X167113551Y-105126449D01*
X167286377Y-105268284D01*
X167483553Y-105373676D01*
X167697501Y-105438577D01*
X167864248Y-105455000D01*
X169075752Y-105455000D01*
X169242499Y-105438577D01*
X169456447Y-105373676D01*
X169653623Y-105268284D01*
X169826449Y-105126449D01*
X169864569Y-105080000D01*
X171505431Y-105080000D01*
X171543551Y-105126449D01*
X171716377Y-105268284D01*
X171913553Y-105373676D01*
X172127501Y-105438577D01*
X172294248Y-105455000D01*
X173005752Y-105455000D01*
X173172499Y-105438577D01*
X173386447Y-105373676D01*
X173583623Y-105268284D01*
X173756449Y-105126449D01*
X173898284Y-104953623D01*
X174003676Y-104756447D01*
X174068577Y-104542499D01*
X174090491Y-104320000D01*
X174068577Y-104097501D01*
X174003676Y-103883553D01*
X173898284Y-103686377D01*
X173756449Y-103513551D01*
X173583623Y-103371716D01*
X173410000Y-103278913D01*
X173410000Y-96721087D01*
X173583623Y-96628284D01*
X173756449Y-96486449D01*
X173898284Y-96313623D01*
X174003676Y-96116447D01*
X174068577Y-95902499D01*
X174090491Y-95680000D01*
X174068577Y-95457501D01*
X174003676Y-95243553D01*
X173898284Y-95046377D01*
X173756449Y-94873551D01*
X173583623Y-94731716D01*
X173386447Y-94626324D01*
X173172499Y-94561423D01*
X173005752Y-94545000D01*
X172294248Y-94545000D01*
X172127501Y-94561423D01*
X171913553Y-94626324D01*
X171716377Y-94731716D01*
X171543551Y-94873551D01*
X171505431Y-94920000D01*
X169864569Y-94920000D01*
X169826449Y-94873551D01*
X169653623Y-94731716D01*
X169456447Y-94626324D01*
X169242499Y-94561423D01*
X169075752Y-94545000D01*
X167864248Y-94545000D01*
X167697501Y-94561423D01*
X167483553Y-94626324D01*
X167286377Y-94731716D01*
X167113551Y-94873551D01*
X166971716Y-95046377D01*
X166866324Y-95243553D01*
X166801423Y-95457501D01*
X166779509Y-95680000D01*
X161527350Y-95680000D01*
X161451939Y-95665000D01*
X161248061Y-95665000D01*
X161048102Y-95704774D01*
X160859744Y-95782795D01*
X160690226Y-95896063D01*
X160546063Y-96040226D01*
X160432795Y-96209744D01*
X160354774Y-96398102D01*
X160315000Y-96598061D01*
X159265000Y-96598061D01*
X159225226Y-96398102D01*
X159147205Y-96209744D01*
X159033937Y-96040226D01*
X158889774Y-95896063D01*
X158720256Y-95782795D01*
X158531898Y-95704774D01*
X158331939Y-95665000D01*
X158128061Y-95665000D01*
X157928102Y-95704774D01*
X157739744Y-95782795D01*
X157570226Y-95896063D01*
X157426063Y-96040226D01*
X157312795Y-96209744D01*
X157234774Y-96398102D01*
X157195000Y-96598061D01*
X151645882Y-96598061D01*
X151665002Y-96501939D01*
X151665002Y-96298061D01*
X151625228Y-96098102D01*
X151547207Y-95909744D01*
X151433939Y-95740226D01*
X151289776Y-95596063D01*
X151120258Y-95482795D01*
X150931900Y-95404774D01*
X150731941Y-95365000D01*
X150528063Y-95365000D01*
X150328104Y-95404774D01*
X150139746Y-95482795D01*
X150125073Y-95492599D01*
X150110400Y-95482795D01*
X149922042Y-95404774D01*
X149722083Y-95365000D01*
X149518205Y-95365000D01*
X149318246Y-95404774D01*
X149129888Y-95482795D01*
X148960370Y-95596063D01*
X148816207Y-95740226D01*
X148702939Y-95909744D01*
X148624918Y-96098102D01*
X148585144Y-96298061D01*
X148585144Y-96489558D01*
X148408102Y-96524774D01*
X148219744Y-96602795D01*
X148050226Y-96716063D01*
X147906063Y-96860226D01*
X147792795Y-97029744D01*
X147759830Y-97109328D01*
X147660256Y-97042795D01*
X147471898Y-96964774D01*
X147271939Y-96925000D01*
X147068061Y-96925000D01*
X146868102Y-96964774D01*
X146679744Y-97042795D01*
X146510226Y-97156063D01*
X146366063Y-97300226D01*
X146252795Y-97469744D01*
X146174774Y-97658102D01*
X146135000Y-97858061D01*
X143834913Y-97858061D01*
X143885000Y-97606260D01*
X143885000Y-97313740D01*
X143827932Y-97026842D01*
X143715990Y-96756589D01*
X143553475Y-96513368D01*
X143346632Y-96306525D01*
X143172240Y-96190000D01*
X143346632Y-96073475D01*
X143553475Y-95866632D01*
X143715990Y-95623411D01*
X143827932Y-95353158D01*
X143885000Y-95066260D01*
X143885000Y-94773740D01*
X143827932Y-94486842D01*
X143715990Y-94216589D01*
X143553475Y-93973368D01*
X143346632Y-93766525D01*
X143172240Y-93650000D01*
X143346632Y-93533475D01*
X143553475Y-93326632D01*
X143715990Y-93083411D01*
X143827932Y-92813158D01*
X143885000Y-92526260D01*
X143885000Y-92233740D01*
X143827932Y-91946842D01*
X143715990Y-91676589D01*
X143553475Y-91433368D01*
X143346632Y-91226525D01*
X143103411Y-91064010D01*
X142833158Y-90952068D01*
X142546260Y-90895000D01*
X142253740Y-90895000D01*
X141966842Y-90952068D01*
X141696589Y-91064010D01*
X141453368Y-91226525D01*
X141246525Y-91433368D01*
X141084010Y-91676589D01*
X140972068Y-91946842D01*
X140915000Y-92233740D01*
X140913072Y-92233740D01*
X140913072Y-91800000D01*
X140900812Y-91675518D01*
X140893071Y-91650000D01*
X140900812Y-91624482D01*
X140913072Y-91500000D01*
X140913072Y-90660000D01*
X150919893Y-90660000D01*
X150726525Y-90853368D01*
G37*
%TD.AperFunction*%
%TD*%
M02*
