%TF.GenerationSoftware,KiCad,Pcbnew,5.1.9-73d0e3b20d~88~ubuntu20.04.1*%
%TF.CreationDate,2021-05-17T23:31:09+02:00*%
%TF.ProjectId,wally,77616c6c-792e-46b6-9963-61645f706362,v1.02*%
%TF.SameCoordinates,Original*%
%TF.FileFunction,Copper,L3,Inr*%
%TF.FilePolarity,Positive*%
%FSLAX46Y46*%
G04 Gerber Fmt 4.6, Leading zero omitted, Abs format (unit mm)*
G04 Created by KiCad (PCBNEW 5.1.9-73d0e3b20d~88~ubuntu20.04.1) date 2021-05-17 23:31:09*
%MOMM*%
%LPD*%
G01*
G04 APERTURE LIST*
%TA.AperFunction,ComponentPad*%
%ADD10O,1.600000X1.000000*%
%TD*%
%TA.AperFunction,ComponentPad*%
%ADD11O,2.100000X1.000000*%
%TD*%
%TA.AperFunction,ComponentPad*%
%ADD12R,1.000000X1.000000*%
%TD*%
%TA.AperFunction,ComponentPad*%
%ADD13O,1.000000X1.000000*%
%TD*%
%TA.AperFunction,ComponentPad*%
%ADD14R,1.700000X1.700000*%
%TD*%
%TA.AperFunction,ComponentPad*%
%ADD15O,1.700000X1.700000*%
%TD*%
%TA.AperFunction,ViaPad*%
%ADD16C,0.400000*%
%TD*%
%TA.AperFunction,ViaPad*%
%ADD17C,0.800000*%
%TD*%
%TA.AperFunction,ViaPad*%
%ADD18C,0.700000*%
%TD*%
%TA.AperFunction,ViaPad*%
%ADD19C,0.750000*%
%TD*%
%TA.AperFunction,ViaPad*%
%ADD20C,0.600000*%
%TD*%
%TA.AperFunction,Conductor*%
%ADD21C,0.500000*%
%TD*%
%TA.AperFunction,Conductor*%
%ADD22C,0.250000*%
%TD*%
%TA.AperFunction,Conductor*%
%ADD23C,0.254000*%
%TD*%
%TA.AperFunction,Conductor*%
%ADD24C,0.100000*%
%TD*%
G04 APERTURE END LIST*
D10*
%TO.N,N/C*%
%TO.C,J1*%
X172650000Y-95680000D03*
X172650000Y-104320000D03*
D11*
X168470000Y-104320000D03*
X168470000Y-95680000D03*
%TD*%
D12*
%TO.N,+5V*%
%TO.C,J5*%
X140830000Y-104447000D03*
D13*
%TO.N,GND*%
X140830000Y-103177000D03*
%TO.N,hdmi_cec*%
X140830000Y-101907000D03*
%TO.N,hdmi_utility*%
X140830000Y-100637000D03*
%TO.N,hdmi_scl*%
X140830000Y-99367000D03*
%TO.N,hdmi_sda*%
X140830000Y-98097000D03*
%TO.N,hdmi_5v*%
X140830000Y-96827000D03*
%TO.N,hdmi_hpd*%
X140830000Y-95557000D03*
%TD*%
D14*
%TO.N,GND*%
%TO.C,J4*%
X172200000Y-91800000D03*
D15*
%TO.N,swdio*%
X169660000Y-91800000D03*
%TO.N,swclk*%
X167120000Y-91800000D03*
%TO.N,GND*%
X164580000Y-91800000D03*
%TO.N,uart_rx*%
X162040000Y-91800000D03*
%TO.N,uart_tx*%
X159500000Y-91800000D03*
%TD*%
D16*
%TO.N,GND*%
X131000000Y-106800000D03*
X138500000Y-106300000D03*
X135500000Y-106300000D03*
X134000000Y-106800000D03*
D17*
X155190000Y-101770000D03*
D18*
X170530000Y-108240000D03*
D17*
X169120000Y-106340000D03*
X156680000Y-94670000D03*
X148180000Y-92050000D03*
X174000000Y-102000000D03*
X174000000Y-98000000D03*
D18*
X162920000Y-94720000D03*
D16*
X134000000Y-93700000D03*
X131000000Y-93200000D03*
X132500000Y-93200000D03*
D17*
X141775000Y-93200000D03*
X128225000Y-93200000D03*
X128225000Y-106800000D03*
X141775000Y-106800000D03*
D19*
X166850000Y-95850000D03*
X166850000Y-104150000D03*
D20*
X165600000Y-101370000D03*
D19*
X166720000Y-104900000D03*
X166720000Y-95100000D03*
D17*
X163990000Y-107240000D03*
X165020000Y-106340000D03*
D16*
X135500000Y-93200000D03*
X138500000Y-93200000D03*
D17*
X174000000Y-94000000D03*
X126000000Y-100000000D03*
X126000000Y-97000000D03*
X126000000Y-94000000D03*
X126000000Y-103000000D03*
X126000000Y-106000000D03*
X150000000Y-91000000D03*
X153000000Y-91000000D03*
X156000000Y-91000000D03*
X144000000Y-109000000D03*
X147000000Y-109000000D03*
X150000000Y-109000000D03*
X153000000Y-109000000D03*
X156000000Y-109000000D03*
X159020000Y-109000000D03*
X164000000Y-108730000D03*
X152110000Y-106770000D03*
X143460000Y-98705000D03*
D18*
X154960000Y-96315000D03*
D17*
X143470000Y-91305000D03*
X143470000Y-95745000D03*
D16*
X132500000Y-106300000D03*
D17*
X164000000Y-100325000D03*
D20*
X165610000Y-98629952D03*
D18*
%TO.N,+3V3*%
X161370000Y-96890000D03*
X158230000Y-96890000D03*
D17*
X165020000Y-108240000D03*
D18*
X158230000Y-99480000D03*
X153648557Y-100043166D03*
X161370000Y-99669996D03*
D17*
X147140000Y-107230000D03*
X147140000Y-102760012D03*
X169110000Y-108250000D03*
X156380000Y-106600000D03*
D18*
%TO.N,+5V*%
X154960000Y-94765000D03*
D17*
X168870000Y-93800002D03*
X147140000Y-101720000D03*
D16*
%TO.N,hdmi_hpd*%
X139500000Y-106300000D03*
X139500000Y-93200000D03*
%TO.N,hdmi_5v*%
X139000000Y-106800000D03*
X139000000Y-93700000D03*
%TO.N,hdmi_sda*%
X138000000Y-106800000D03*
X138000000Y-93700000D03*
D17*
X142380000Y-101380000D03*
D16*
%TO.N,hdmi_scl*%
X137500000Y-106300000D03*
X137500000Y-93200000D03*
%TO.N,hdmi_utility*%
X137000000Y-106800000D03*
X137000000Y-93700000D03*
%TO.N,hdmi_cec*%
X136500000Y-106300000D03*
X136500000Y-93200000D03*
%TO.N,Net-(J2-Pad12)*%
X136000000Y-106800000D03*
%TO.N,Net-(J2-Pad10)*%
X135000000Y-106800000D03*
%TO.N,Net-(J2-Pad9)*%
X134500000Y-93300000D03*
%TO.N,Net-(J2-Pad7)*%
X133500000Y-93300000D03*
%TO.N,Net-(J2-Pad6)*%
X133000000Y-106800000D03*
%TO.N,Net-(J2-Pad4)*%
X132000000Y-106800000D03*
%TO.N,Net-(J2-Pad3)*%
X131500000Y-93700000D03*
%TO.N,Net-(J2-Pad1)*%
X130500000Y-93700000D03*
D17*
%TO.N,hdmi_5v_en*%
X150000000Y-102120000D03*
X150000000Y-97870000D03*
%TO.N,hdmi_hpd_en*%
X151820000Y-92050000D03*
D18*
X150740000Y-94025000D03*
%TD*%
D21*
%TO.N,+5V*%
X155924998Y-93800002D02*
X154960000Y-94765000D01*
X168870000Y-93800002D02*
X155924998Y-93800002D01*
X142733000Y-104447000D02*
X140830000Y-104447000D01*
X145460000Y-101720000D02*
X142733000Y-104447000D01*
X147140000Y-101720000D02*
X145460000Y-101720000D01*
X147140000Y-99410000D02*
X147140000Y-101720000D01*
X151785000Y-94765000D02*
X147140000Y-99410000D01*
X154960000Y-94765000D02*
X151785000Y-94765000D01*
D22*
%TO.N,hdmi_sda*%
X142380000Y-98860000D02*
X142380000Y-101380000D01*
X141617000Y-98097000D02*
X142380000Y-98860000D01*
X140830000Y-98097000D02*
X141617000Y-98097000D01*
%TO.N,hdmi_5v_en*%
X150000000Y-102120000D02*
X150000000Y-97870000D01*
%TO.N,hdmi_hpd_en*%
X150740000Y-93130000D02*
X151820000Y-92050000D01*
X150740000Y-94025000D02*
X150740000Y-93130000D01*
%TD*%
D23*
%TO.N,+3V3*%
X170760498Y-92894180D02*
X170819463Y-93004494D01*
X170898815Y-93101185D01*
X170995506Y-93180537D01*
X171105820Y-93239502D01*
X171225518Y-93275812D01*
X171350000Y-93288072D01*
X173050000Y-93288072D01*
X173174482Y-93275812D01*
X173294180Y-93239502D01*
X173299781Y-93236508D01*
X173196063Y-93340226D01*
X173082795Y-93509744D01*
X173004774Y-93698102D01*
X172965000Y-93898061D01*
X172965000Y-94101939D01*
X173004774Y-94301898D01*
X173082795Y-94490256D01*
X173127378Y-94556979D01*
X173005752Y-94545000D01*
X172294248Y-94545000D01*
X172127501Y-94561423D01*
X171913553Y-94626324D01*
X171716377Y-94731716D01*
X171543551Y-94873551D01*
X171401716Y-95046377D01*
X171296324Y-95243553D01*
X171231423Y-95457501D01*
X171209509Y-95680000D01*
X171231423Y-95902499D01*
X171296324Y-96116447D01*
X171401716Y-96313623D01*
X171543551Y-96486449D01*
X171716377Y-96628284D01*
X171913553Y-96733676D01*
X172127501Y-96798577D01*
X172294248Y-96815000D01*
X173005752Y-96815000D01*
X173172499Y-96798577D01*
X173386447Y-96733676D01*
X173583623Y-96628284D01*
X173756449Y-96486449D01*
X173898284Y-96313623D01*
X174003676Y-96116447D01*
X174068577Y-95902499D01*
X174090491Y-95680000D01*
X174068577Y-95457501D01*
X174003676Y-95243553D01*
X173898284Y-95046377D01*
X173887169Y-95032833D01*
X173898061Y-95035000D01*
X174101939Y-95035000D01*
X174301898Y-94995226D01*
X174340000Y-94979443D01*
X174340000Y-97020557D01*
X174301898Y-97004774D01*
X174101939Y-96965000D01*
X173898061Y-96965000D01*
X173698102Y-97004774D01*
X173509744Y-97082795D01*
X173340226Y-97196063D01*
X173196063Y-97340226D01*
X173082795Y-97509744D01*
X173004774Y-97698102D01*
X172965000Y-97898061D01*
X172965000Y-98101939D01*
X173004774Y-98301898D01*
X173082795Y-98490256D01*
X173196063Y-98659774D01*
X173340226Y-98803937D01*
X173509744Y-98917205D01*
X173698102Y-98995226D01*
X173898061Y-99035000D01*
X174101939Y-99035000D01*
X174301898Y-98995226D01*
X174340000Y-98979443D01*
X174340001Y-101020557D01*
X174301898Y-101004774D01*
X174101939Y-100965000D01*
X173898061Y-100965000D01*
X173698102Y-101004774D01*
X173509744Y-101082795D01*
X173340226Y-101196063D01*
X173196063Y-101340226D01*
X173082795Y-101509744D01*
X173004774Y-101698102D01*
X172965000Y-101898061D01*
X172965000Y-102101939D01*
X173004774Y-102301898D01*
X173082795Y-102490256D01*
X173196063Y-102659774D01*
X173340226Y-102803937D01*
X173509744Y-102917205D01*
X173698102Y-102995226D01*
X173898061Y-103035000D01*
X174101939Y-103035000D01*
X174301898Y-102995226D01*
X174340001Y-102979443D01*
X174340001Y-107467711D01*
X174301853Y-107856776D01*
X174198238Y-108199964D01*
X174029939Y-108516489D01*
X173803365Y-108794296D01*
X173527146Y-109022805D01*
X173211803Y-109193310D01*
X172869344Y-109299319D01*
X172482288Y-109340000D01*
X164837195Y-109340000D01*
X164917205Y-109220256D01*
X164995226Y-109031898D01*
X165035000Y-108831939D01*
X165035000Y-108628061D01*
X164995226Y-108428102D01*
X164917205Y-108239744D01*
X164852554Y-108142986D01*
X169545000Y-108142986D01*
X169545000Y-108337014D01*
X169582853Y-108527314D01*
X169657104Y-108706572D01*
X169764901Y-108867901D01*
X169902099Y-109005099D01*
X170063428Y-109112896D01*
X170242686Y-109187147D01*
X170432986Y-109225000D01*
X170627014Y-109225000D01*
X170817314Y-109187147D01*
X170996572Y-109112896D01*
X171157901Y-109005099D01*
X171295099Y-108867901D01*
X171402896Y-108706572D01*
X171477147Y-108527314D01*
X171515000Y-108337014D01*
X171515000Y-108142986D01*
X171477147Y-107952686D01*
X171402896Y-107773428D01*
X171295099Y-107612099D01*
X171157901Y-107474901D01*
X170996572Y-107367104D01*
X170817314Y-107292853D01*
X170627014Y-107255000D01*
X170432986Y-107255000D01*
X170242686Y-107292853D01*
X170063428Y-107367104D01*
X169902099Y-107474901D01*
X169764901Y-107612099D01*
X169657104Y-107773428D01*
X169582853Y-107952686D01*
X169545000Y-108142986D01*
X164852554Y-108142986D01*
X164803937Y-108070226D01*
X164713711Y-107980000D01*
X164793937Y-107899774D01*
X164907205Y-107730256D01*
X164985226Y-107541898D01*
X165018424Y-107375000D01*
X165121939Y-107375000D01*
X165321898Y-107335226D01*
X165510256Y-107257205D01*
X165679774Y-107143937D01*
X165823937Y-106999774D01*
X165937205Y-106830256D01*
X166015226Y-106641898D01*
X166055000Y-106441939D01*
X166055000Y-106238061D01*
X166015226Y-106038102D01*
X165937205Y-105849744D01*
X165823937Y-105680226D01*
X165679774Y-105536063D01*
X165510256Y-105422795D01*
X165321898Y-105344774D01*
X165121939Y-105305000D01*
X164918061Y-105305000D01*
X164718102Y-105344774D01*
X164529744Y-105422795D01*
X164360226Y-105536063D01*
X164216063Y-105680226D01*
X164102795Y-105849744D01*
X164024774Y-106038102D01*
X163991576Y-106205000D01*
X163888061Y-106205000D01*
X163688102Y-106244774D01*
X163499744Y-106322795D01*
X163330226Y-106436063D01*
X163186063Y-106580226D01*
X163072795Y-106749744D01*
X162994774Y-106938102D01*
X162955000Y-107138061D01*
X162955000Y-107341939D01*
X162994774Y-107541898D01*
X163072795Y-107730256D01*
X163186063Y-107899774D01*
X163276289Y-107990000D01*
X163196063Y-108070226D01*
X163082795Y-108239744D01*
X163004774Y-108428102D01*
X162965000Y-108628061D01*
X162965000Y-108831939D01*
X163004774Y-109031898D01*
X163082795Y-109220256D01*
X163162805Y-109340000D01*
X159999444Y-109340000D01*
X160015226Y-109301898D01*
X160055000Y-109101939D01*
X160055000Y-108898061D01*
X160015226Y-108698102D01*
X159937205Y-108509744D01*
X159823937Y-108340226D01*
X159679774Y-108196063D01*
X159510256Y-108082795D01*
X159321898Y-108004774D01*
X159121939Y-107965000D01*
X158918061Y-107965000D01*
X158718102Y-108004774D01*
X158529744Y-108082795D01*
X158360226Y-108196063D01*
X158216063Y-108340226D01*
X158102795Y-108509744D01*
X158024774Y-108698102D01*
X157985000Y-108898061D01*
X157985000Y-109101939D01*
X158024774Y-109301898D01*
X158040556Y-109340000D01*
X156979444Y-109340000D01*
X156995226Y-109301898D01*
X157035000Y-109101939D01*
X157035000Y-108898061D01*
X156995226Y-108698102D01*
X156917205Y-108509744D01*
X156803937Y-108340226D01*
X156659774Y-108196063D01*
X156490256Y-108082795D01*
X156301898Y-108004774D01*
X156101939Y-107965000D01*
X155898061Y-107965000D01*
X155698102Y-108004774D01*
X155509744Y-108082795D01*
X155340226Y-108196063D01*
X155196063Y-108340226D01*
X155082795Y-108509744D01*
X155004774Y-108698102D01*
X154965000Y-108898061D01*
X154965000Y-109101939D01*
X155004774Y-109301898D01*
X155020556Y-109340000D01*
X153979444Y-109340000D01*
X153995226Y-109301898D01*
X154035000Y-109101939D01*
X154035000Y-108898061D01*
X153995226Y-108698102D01*
X153917205Y-108509744D01*
X153803937Y-108340226D01*
X153659774Y-108196063D01*
X153490256Y-108082795D01*
X153301898Y-108004774D01*
X153101939Y-107965000D01*
X152898061Y-107965000D01*
X152698102Y-108004774D01*
X152509744Y-108082795D01*
X152340226Y-108196063D01*
X152196063Y-108340226D01*
X152082795Y-108509744D01*
X152004774Y-108698102D01*
X151965000Y-108898061D01*
X151965000Y-109101939D01*
X152004774Y-109301898D01*
X152020556Y-109340000D01*
X150979444Y-109340000D01*
X150995226Y-109301898D01*
X151035000Y-109101939D01*
X151035000Y-108898061D01*
X150995226Y-108698102D01*
X150917205Y-108509744D01*
X150803937Y-108340226D01*
X150659774Y-108196063D01*
X150490256Y-108082795D01*
X150301898Y-108004774D01*
X150101939Y-107965000D01*
X149898061Y-107965000D01*
X149698102Y-108004774D01*
X149509744Y-108082795D01*
X149340226Y-108196063D01*
X149196063Y-108340226D01*
X149082795Y-108509744D01*
X149004774Y-108698102D01*
X148965000Y-108898061D01*
X148965000Y-109101939D01*
X149004774Y-109301898D01*
X149020556Y-109340000D01*
X147979444Y-109340000D01*
X147995226Y-109301898D01*
X148035000Y-109101939D01*
X148035000Y-108898061D01*
X147995226Y-108698102D01*
X147917205Y-108509744D01*
X147803937Y-108340226D01*
X147659774Y-108196063D01*
X147490256Y-108082795D01*
X147301898Y-108004774D01*
X147101939Y-107965000D01*
X146898061Y-107965000D01*
X146698102Y-108004774D01*
X146509744Y-108082795D01*
X146340226Y-108196063D01*
X146196063Y-108340226D01*
X146082795Y-108509744D01*
X146004774Y-108698102D01*
X145965000Y-108898061D01*
X145965000Y-109101939D01*
X146004774Y-109301898D01*
X146020556Y-109340000D01*
X144979444Y-109340000D01*
X144995226Y-109301898D01*
X145035000Y-109101939D01*
X145035000Y-108898061D01*
X144995226Y-108698102D01*
X144917205Y-108509744D01*
X144803937Y-108340226D01*
X144659774Y-108196063D01*
X144490256Y-108082795D01*
X144301898Y-108004774D01*
X144101939Y-107965000D01*
X143898061Y-107965000D01*
X143698102Y-108004774D01*
X143509744Y-108082795D01*
X143340226Y-108196063D01*
X143196063Y-108340226D01*
X143127000Y-108443586D01*
X143127000Y-106668061D01*
X151075000Y-106668061D01*
X151075000Y-106871939D01*
X151114774Y-107071898D01*
X151192795Y-107260256D01*
X151306063Y-107429774D01*
X151450226Y-107573937D01*
X151619744Y-107687205D01*
X151808102Y-107765226D01*
X152008061Y-107805000D01*
X152211939Y-107805000D01*
X152411898Y-107765226D01*
X152600256Y-107687205D01*
X152769774Y-107573937D01*
X152913937Y-107429774D01*
X153027205Y-107260256D01*
X153105226Y-107071898D01*
X153145000Y-106871939D01*
X153145000Y-106668061D01*
X153105226Y-106468102D01*
X153027205Y-106279744D01*
X152913937Y-106110226D01*
X152769774Y-105966063D01*
X152600256Y-105852795D01*
X152411898Y-105774774D01*
X152211939Y-105735000D01*
X152008061Y-105735000D01*
X151808102Y-105774774D01*
X151619744Y-105852795D01*
X151450226Y-105966063D01*
X151306063Y-106110226D01*
X151192795Y-106279744D01*
X151114774Y-106468102D01*
X151075000Y-106668061D01*
X143127000Y-106668061D01*
X143127000Y-105239893D01*
X143227059Y-105186411D01*
X143361817Y-105075817D01*
X143389534Y-105042044D01*
X143631054Y-104800524D01*
X165710000Y-104800524D01*
X165710000Y-104999476D01*
X165748814Y-105194606D01*
X165824950Y-105378414D01*
X165935482Y-105543837D01*
X166076163Y-105684518D01*
X166241586Y-105795050D01*
X166425394Y-105871186D01*
X166620524Y-105910000D01*
X166819476Y-105910000D01*
X167014606Y-105871186D01*
X167198414Y-105795050D01*
X167363837Y-105684518D01*
X167504518Y-105543837D01*
X167595521Y-105407641D01*
X167697501Y-105438577D01*
X167864248Y-105455000D01*
X168581546Y-105455000D01*
X168460226Y-105536063D01*
X168316063Y-105680226D01*
X168202795Y-105849744D01*
X168124774Y-106038102D01*
X168085000Y-106238061D01*
X168085000Y-106441939D01*
X168124774Y-106641898D01*
X168202795Y-106830256D01*
X168316063Y-106999774D01*
X168460226Y-107143937D01*
X168629744Y-107257205D01*
X168818102Y-107335226D01*
X169018061Y-107375000D01*
X169221939Y-107375000D01*
X169421898Y-107335226D01*
X169610256Y-107257205D01*
X169779774Y-107143937D01*
X169923937Y-106999774D01*
X170037205Y-106830256D01*
X170115226Y-106641898D01*
X170155000Y-106441939D01*
X170155000Y-106238061D01*
X170115226Y-106038102D01*
X170037205Y-105849744D01*
X169923937Y-105680226D01*
X169779774Y-105536063D01*
X169610256Y-105422795D01*
X169471827Y-105365455D01*
X169653623Y-105268284D01*
X169826449Y-105126449D01*
X169968284Y-104953623D01*
X170073676Y-104756447D01*
X170138577Y-104542499D01*
X170160491Y-104320000D01*
X171209509Y-104320000D01*
X171231423Y-104542499D01*
X171296324Y-104756447D01*
X171401716Y-104953623D01*
X171543551Y-105126449D01*
X171716377Y-105268284D01*
X171913553Y-105373676D01*
X172127501Y-105438577D01*
X172294248Y-105455000D01*
X173005752Y-105455000D01*
X173172499Y-105438577D01*
X173386447Y-105373676D01*
X173583623Y-105268284D01*
X173756449Y-105126449D01*
X173898284Y-104953623D01*
X174003676Y-104756447D01*
X174068577Y-104542499D01*
X174090491Y-104320000D01*
X174068577Y-104097501D01*
X174003676Y-103883553D01*
X173898284Y-103686377D01*
X173756449Y-103513551D01*
X173583623Y-103371716D01*
X173386447Y-103266324D01*
X173172499Y-103201423D01*
X173005752Y-103185000D01*
X172294248Y-103185000D01*
X172127501Y-103201423D01*
X171913553Y-103266324D01*
X171716377Y-103371716D01*
X171543551Y-103513551D01*
X171401716Y-103686377D01*
X171296324Y-103883553D01*
X171231423Y-104097501D01*
X171209509Y-104320000D01*
X170160491Y-104320000D01*
X170138577Y-104097501D01*
X170073676Y-103883553D01*
X169968284Y-103686377D01*
X169826449Y-103513551D01*
X169769285Y-103466638D01*
X169850741Y-103344731D01*
X169923108Y-103170022D01*
X169960000Y-102984552D01*
X169960000Y-102795448D01*
X169923108Y-102609978D01*
X169850741Y-102435269D01*
X169745681Y-102278036D01*
X169611964Y-102144319D01*
X169454731Y-102039259D01*
X169280022Y-101966892D01*
X169094552Y-101930000D01*
X168905448Y-101930000D01*
X168719978Y-101966892D01*
X168545269Y-102039259D01*
X168388036Y-102144319D01*
X168254319Y-102278036D01*
X168149259Y-102435269D01*
X168076892Y-102609978D01*
X168040000Y-102795448D01*
X168040000Y-102984552D01*
X168076892Y-103170022D01*
X168083096Y-103185000D01*
X167864248Y-103185000D01*
X167697501Y-103201423D01*
X167483553Y-103266324D01*
X167406819Y-103307339D01*
X167328414Y-103254950D01*
X167144606Y-103178814D01*
X166949476Y-103140000D01*
X166750524Y-103140000D01*
X166555394Y-103178814D01*
X166371586Y-103254950D01*
X166206163Y-103365482D01*
X166065482Y-103506163D01*
X165954950Y-103671586D01*
X165878814Y-103855394D01*
X165840000Y-104050524D01*
X165840000Y-104249476D01*
X165862929Y-104364747D01*
X165824950Y-104421586D01*
X165748814Y-104605394D01*
X165710000Y-104800524D01*
X143631054Y-104800524D01*
X145826579Y-102605000D01*
X146601546Y-102605000D01*
X146649744Y-102637205D01*
X146838102Y-102715226D01*
X147038061Y-102755000D01*
X147241939Y-102755000D01*
X147441898Y-102715226D01*
X147630256Y-102637205D01*
X147799774Y-102523937D01*
X147943937Y-102379774D01*
X148057205Y-102210256D01*
X148135226Y-102021898D01*
X148175000Y-101821939D01*
X148175000Y-101618061D01*
X148135226Y-101418102D01*
X148057205Y-101229744D01*
X148025000Y-101181546D01*
X148025000Y-99776578D01*
X149233934Y-98567645D01*
X149240001Y-98573712D01*
X149240000Y-101416289D01*
X149196063Y-101460226D01*
X149082795Y-101629744D01*
X149004774Y-101818102D01*
X148965000Y-102018061D01*
X148965000Y-102221939D01*
X149004774Y-102421898D01*
X149082795Y-102610256D01*
X149196063Y-102779774D01*
X149340226Y-102923937D01*
X149509744Y-103037205D01*
X149698102Y-103115226D01*
X149898061Y-103155000D01*
X150101939Y-103155000D01*
X150301898Y-103115226D01*
X150490256Y-103037205D01*
X150659774Y-102923937D01*
X150803937Y-102779774D01*
X150917205Y-102610256D01*
X150995226Y-102421898D01*
X151035000Y-102221939D01*
X151035000Y-102018061D01*
X150995226Y-101818102D01*
X150933077Y-101668061D01*
X154155000Y-101668061D01*
X154155000Y-101871939D01*
X154194774Y-102071898D01*
X154272795Y-102260256D01*
X154386063Y-102429774D01*
X154530226Y-102573937D01*
X154699744Y-102687205D01*
X154888102Y-102765226D01*
X155088061Y-102805000D01*
X155291939Y-102805000D01*
X155491898Y-102765226D01*
X155680256Y-102687205D01*
X155849774Y-102573937D01*
X155993937Y-102429774D01*
X156107205Y-102260256D01*
X156185226Y-102071898D01*
X156225000Y-101871939D01*
X156225000Y-101668061D01*
X156185226Y-101468102D01*
X156107205Y-101279744D01*
X155993937Y-101110226D01*
X155849774Y-100966063D01*
X155680256Y-100852795D01*
X155491898Y-100774774D01*
X155291939Y-100735000D01*
X155088061Y-100735000D01*
X154888102Y-100774774D01*
X154699744Y-100852795D01*
X154530226Y-100966063D01*
X154386063Y-101110226D01*
X154272795Y-101279744D01*
X154194774Y-101468102D01*
X154155000Y-101668061D01*
X150933077Y-101668061D01*
X150917205Y-101629744D01*
X150803937Y-101460226D01*
X150760000Y-101416289D01*
X150760000Y-100223061D01*
X162965000Y-100223061D01*
X162965000Y-100426939D01*
X163004774Y-100626898D01*
X163082795Y-100815256D01*
X163196063Y-100984774D01*
X163340226Y-101128937D01*
X163509744Y-101242205D01*
X163698102Y-101320226D01*
X163898061Y-101360000D01*
X164101939Y-101360000D01*
X164301898Y-101320226D01*
X164490256Y-101242205D01*
X164659774Y-101128937D01*
X164707644Y-101081067D01*
X164700932Y-101097271D01*
X164665000Y-101277911D01*
X164665000Y-101462089D01*
X164700932Y-101642729D01*
X164771414Y-101812889D01*
X164873738Y-101966028D01*
X165003972Y-102096262D01*
X165157111Y-102198586D01*
X165327271Y-102269068D01*
X165507911Y-102305000D01*
X165692089Y-102305000D01*
X165872729Y-102269068D01*
X166042889Y-102198586D01*
X166196028Y-102096262D01*
X166326262Y-101966028D01*
X166428586Y-101812889D01*
X166499068Y-101642729D01*
X166535000Y-101462089D01*
X166535000Y-101277911D01*
X166499068Y-101097271D01*
X166428586Y-100927111D01*
X166326262Y-100773972D01*
X166196028Y-100643738D01*
X166042889Y-100541414D01*
X165872729Y-100470932D01*
X165692089Y-100435000D01*
X165507911Y-100435000D01*
X165327271Y-100470932D01*
X165157111Y-100541414D01*
X165003972Y-100643738D01*
X164977134Y-100670576D01*
X164995226Y-100626898D01*
X165035000Y-100426939D01*
X165035000Y-100223061D01*
X164995226Y-100023102D01*
X164917205Y-99834744D01*
X164803937Y-99665226D01*
X164659774Y-99521063D01*
X164490256Y-99407795D01*
X164301898Y-99329774D01*
X164101939Y-99290000D01*
X163898061Y-99290000D01*
X163698102Y-99329774D01*
X163509744Y-99407795D01*
X163340226Y-99521063D01*
X163196063Y-99665226D01*
X163082795Y-99834744D01*
X163004774Y-100023102D01*
X162965000Y-100223061D01*
X150760000Y-100223061D01*
X150760000Y-98573711D01*
X150795848Y-98537863D01*
X164675000Y-98537863D01*
X164675000Y-98722041D01*
X164710932Y-98902681D01*
X164781414Y-99072841D01*
X164883738Y-99225980D01*
X165013972Y-99356214D01*
X165167111Y-99458538D01*
X165337271Y-99529020D01*
X165517911Y-99564952D01*
X165702089Y-99564952D01*
X165882729Y-99529020D01*
X166052889Y-99458538D01*
X166206028Y-99356214D01*
X166336262Y-99225980D01*
X166438586Y-99072841D01*
X166509068Y-98902681D01*
X166545000Y-98722041D01*
X166545000Y-98537863D01*
X166509068Y-98357223D01*
X166438586Y-98187063D01*
X166336262Y-98033924D01*
X166206028Y-97903690D01*
X166052889Y-97801366D01*
X165882729Y-97730884D01*
X165702089Y-97694952D01*
X165517911Y-97694952D01*
X165337271Y-97730884D01*
X165167111Y-97801366D01*
X165013972Y-97903690D01*
X164883738Y-98033924D01*
X164781414Y-98187063D01*
X164710932Y-98357223D01*
X164675000Y-98537863D01*
X150795848Y-98537863D01*
X150803937Y-98529774D01*
X150917205Y-98360256D01*
X150995226Y-98171898D01*
X151035000Y-97971939D01*
X151035000Y-97768061D01*
X150995226Y-97568102D01*
X150917205Y-97379744D01*
X150803937Y-97210226D01*
X150697645Y-97103934D01*
X152151579Y-95650000D01*
X154232000Y-95650000D01*
X154194901Y-95687099D01*
X154087104Y-95848428D01*
X154012853Y-96027686D01*
X153975000Y-96217986D01*
X153975000Y-96412014D01*
X154012853Y-96602314D01*
X154087104Y-96781572D01*
X154194901Y-96942901D01*
X154332099Y-97080099D01*
X154493428Y-97187896D01*
X154672686Y-97262147D01*
X154862986Y-97300000D01*
X155057014Y-97300000D01*
X155247314Y-97262147D01*
X155426572Y-97187896D01*
X155587901Y-97080099D01*
X155725099Y-96942901D01*
X155832896Y-96781572D01*
X155907147Y-96602314D01*
X155945000Y-96412014D01*
X155945000Y-96217986D01*
X155907147Y-96027686D01*
X155832896Y-95848428D01*
X155725099Y-95687099D01*
X155587901Y-95549901D01*
X155573083Y-95540000D01*
X155587901Y-95530099D01*
X155725099Y-95392901D01*
X155821671Y-95248371D01*
X155876063Y-95329774D01*
X156020226Y-95473937D01*
X156189744Y-95587205D01*
X156378102Y-95665226D01*
X156578061Y-95705000D01*
X156781939Y-95705000D01*
X156981898Y-95665226D01*
X157170256Y-95587205D01*
X157339774Y-95473937D01*
X157483937Y-95329774D01*
X157597205Y-95160256D01*
X157675226Y-94971898D01*
X157715000Y-94771939D01*
X157715000Y-94685002D01*
X161935000Y-94685002D01*
X161935000Y-94817014D01*
X161972853Y-95007314D01*
X162047104Y-95186572D01*
X162154901Y-95347901D01*
X162292099Y-95485099D01*
X162453428Y-95592896D01*
X162632686Y-95667147D01*
X162822986Y-95705000D01*
X163017014Y-95705000D01*
X163207314Y-95667147D01*
X163386572Y-95592896D01*
X163547901Y-95485099D01*
X163685099Y-95347901D01*
X163792896Y-95186572D01*
X163867147Y-95007314D01*
X163905000Y-94817014D01*
X163905000Y-94685002D01*
X165798682Y-94685002D01*
X165748814Y-94805394D01*
X165710000Y-95000524D01*
X165710000Y-95199476D01*
X165748814Y-95394606D01*
X165824950Y-95578414D01*
X165862929Y-95635253D01*
X165840000Y-95750524D01*
X165840000Y-95949476D01*
X165878814Y-96144606D01*
X165954950Y-96328414D01*
X166065482Y-96493837D01*
X166206163Y-96634518D01*
X166371586Y-96745050D01*
X166555394Y-96821186D01*
X166750524Y-96860000D01*
X166949476Y-96860000D01*
X167144606Y-96821186D01*
X167328414Y-96745050D01*
X167406819Y-96692661D01*
X167483553Y-96733676D01*
X167697501Y-96798577D01*
X167864248Y-96815000D01*
X168083096Y-96815000D01*
X168076892Y-96829978D01*
X168040000Y-97015448D01*
X168040000Y-97204552D01*
X168076892Y-97390022D01*
X168149259Y-97564731D01*
X168254319Y-97721964D01*
X168388036Y-97855681D01*
X168545269Y-97960741D01*
X168719978Y-98033108D01*
X168905448Y-98070000D01*
X169094552Y-98070000D01*
X169280022Y-98033108D01*
X169454731Y-97960741D01*
X169611964Y-97855681D01*
X169745681Y-97721964D01*
X169850741Y-97564731D01*
X169923108Y-97390022D01*
X169960000Y-97204552D01*
X169960000Y-97015448D01*
X169923108Y-96829978D01*
X169850741Y-96655269D01*
X169769285Y-96533362D01*
X169826449Y-96486449D01*
X169968284Y-96313623D01*
X170073676Y-96116447D01*
X170138577Y-95902499D01*
X170160491Y-95680000D01*
X170138577Y-95457501D01*
X170073676Y-95243553D01*
X169968284Y-95046377D01*
X169826449Y-94873551D01*
X169653623Y-94731716D01*
X169478573Y-94638150D01*
X169529774Y-94603939D01*
X169673937Y-94459776D01*
X169787205Y-94290258D01*
X169865226Y-94101900D01*
X169905000Y-93901941D01*
X169905000Y-93698063D01*
X169865226Y-93498104D01*
X169787205Y-93309746D01*
X169770670Y-93285000D01*
X169806260Y-93285000D01*
X170093158Y-93227932D01*
X170363411Y-93115990D01*
X170606632Y-92953475D01*
X170738487Y-92821620D01*
X170760498Y-92894180D01*
%TA.AperFunction,Conductor*%
D24*
G36*
X170760498Y-92894180D02*
G01*
X170819463Y-93004494D01*
X170898815Y-93101185D01*
X170995506Y-93180537D01*
X171105820Y-93239502D01*
X171225518Y-93275812D01*
X171350000Y-93288072D01*
X173050000Y-93288072D01*
X173174482Y-93275812D01*
X173294180Y-93239502D01*
X173299781Y-93236508D01*
X173196063Y-93340226D01*
X173082795Y-93509744D01*
X173004774Y-93698102D01*
X172965000Y-93898061D01*
X172965000Y-94101939D01*
X173004774Y-94301898D01*
X173082795Y-94490256D01*
X173127378Y-94556979D01*
X173005752Y-94545000D01*
X172294248Y-94545000D01*
X172127501Y-94561423D01*
X171913553Y-94626324D01*
X171716377Y-94731716D01*
X171543551Y-94873551D01*
X171401716Y-95046377D01*
X171296324Y-95243553D01*
X171231423Y-95457501D01*
X171209509Y-95680000D01*
X171231423Y-95902499D01*
X171296324Y-96116447D01*
X171401716Y-96313623D01*
X171543551Y-96486449D01*
X171716377Y-96628284D01*
X171913553Y-96733676D01*
X172127501Y-96798577D01*
X172294248Y-96815000D01*
X173005752Y-96815000D01*
X173172499Y-96798577D01*
X173386447Y-96733676D01*
X173583623Y-96628284D01*
X173756449Y-96486449D01*
X173898284Y-96313623D01*
X174003676Y-96116447D01*
X174068577Y-95902499D01*
X174090491Y-95680000D01*
X174068577Y-95457501D01*
X174003676Y-95243553D01*
X173898284Y-95046377D01*
X173887169Y-95032833D01*
X173898061Y-95035000D01*
X174101939Y-95035000D01*
X174301898Y-94995226D01*
X174340000Y-94979443D01*
X174340000Y-97020557D01*
X174301898Y-97004774D01*
X174101939Y-96965000D01*
X173898061Y-96965000D01*
X173698102Y-97004774D01*
X173509744Y-97082795D01*
X173340226Y-97196063D01*
X173196063Y-97340226D01*
X173082795Y-97509744D01*
X173004774Y-97698102D01*
X172965000Y-97898061D01*
X172965000Y-98101939D01*
X173004774Y-98301898D01*
X173082795Y-98490256D01*
X173196063Y-98659774D01*
X173340226Y-98803937D01*
X173509744Y-98917205D01*
X173698102Y-98995226D01*
X173898061Y-99035000D01*
X174101939Y-99035000D01*
X174301898Y-98995226D01*
X174340000Y-98979443D01*
X174340001Y-101020557D01*
X174301898Y-101004774D01*
X174101939Y-100965000D01*
X173898061Y-100965000D01*
X173698102Y-101004774D01*
X173509744Y-101082795D01*
X173340226Y-101196063D01*
X173196063Y-101340226D01*
X173082795Y-101509744D01*
X173004774Y-101698102D01*
X172965000Y-101898061D01*
X172965000Y-102101939D01*
X173004774Y-102301898D01*
X173082795Y-102490256D01*
X173196063Y-102659774D01*
X173340226Y-102803937D01*
X173509744Y-102917205D01*
X173698102Y-102995226D01*
X173898061Y-103035000D01*
X174101939Y-103035000D01*
X174301898Y-102995226D01*
X174340001Y-102979443D01*
X174340001Y-107467711D01*
X174301853Y-107856776D01*
X174198238Y-108199964D01*
X174029939Y-108516489D01*
X173803365Y-108794296D01*
X173527146Y-109022805D01*
X173211803Y-109193310D01*
X172869344Y-109299319D01*
X172482288Y-109340000D01*
X164837195Y-109340000D01*
X164917205Y-109220256D01*
X164995226Y-109031898D01*
X165035000Y-108831939D01*
X165035000Y-108628061D01*
X164995226Y-108428102D01*
X164917205Y-108239744D01*
X164852554Y-108142986D01*
X169545000Y-108142986D01*
X169545000Y-108337014D01*
X169582853Y-108527314D01*
X169657104Y-108706572D01*
X169764901Y-108867901D01*
X169902099Y-109005099D01*
X170063428Y-109112896D01*
X170242686Y-109187147D01*
X170432986Y-109225000D01*
X170627014Y-109225000D01*
X170817314Y-109187147D01*
X170996572Y-109112896D01*
X171157901Y-109005099D01*
X171295099Y-108867901D01*
X171402896Y-108706572D01*
X171477147Y-108527314D01*
X171515000Y-108337014D01*
X171515000Y-108142986D01*
X171477147Y-107952686D01*
X171402896Y-107773428D01*
X171295099Y-107612099D01*
X171157901Y-107474901D01*
X170996572Y-107367104D01*
X170817314Y-107292853D01*
X170627014Y-107255000D01*
X170432986Y-107255000D01*
X170242686Y-107292853D01*
X170063428Y-107367104D01*
X169902099Y-107474901D01*
X169764901Y-107612099D01*
X169657104Y-107773428D01*
X169582853Y-107952686D01*
X169545000Y-108142986D01*
X164852554Y-108142986D01*
X164803937Y-108070226D01*
X164713711Y-107980000D01*
X164793937Y-107899774D01*
X164907205Y-107730256D01*
X164985226Y-107541898D01*
X165018424Y-107375000D01*
X165121939Y-107375000D01*
X165321898Y-107335226D01*
X165510256Y-107257205D01*
X165679774Y-107143937D01*
X165823937Y-106999774D01*
X165937205Y-106830256D01*
X166015226Y-106641898D01*
X166055000Y-106441939D01*
X166055000Y-106238061D01*
X166015226Y-106038102D01*
X165937205Y-105849744D01*
X165823937Y-105680226D01*
X165679774Y-105536063D01*
X165510256Y-105422795D01*
X165321898Y-105344774D01*
X165121939Y-105305000D01*
X164918061Y-105305000D01*
X164718102Y-105344774D01*
X164529744Y-105422795D01*
X164360226Y-105536063D01*
X164216063Y-105680226D01*
X164102795Y-105849744D01*
X164024774Y-106038102D01*
X163991576Y-106205000D01*
X163888061Y-106205000D01*
X163688102Y-106244774D01*
X163499744Y-106322795D01*
X163330226Y-106436063D01*
X163186063Y-106580226D01*
X163072795Y-106749744D01*
X162994774Y-106938102D01*
X162955000Y-107138061D01*
X162955000Y-107341939D01*
X162994774Y-107541898D01*
X163072795Y-107730256D01*
X163186063Y-107899774D01*
X163276289Y-107990000D01*
X163196063Y-108070226D01*
X163082795Y-108239744D01*
X163004774Y-108428102D01*
X162965000Y-108628061D01*
X162965000Y-108831939D01*
X163004774Y-109031898D01*
X163082795Y-109220256D01*
X163162805Y-109340000D01*
X159999444Y-109340000D01*
X160015226Y-109301898D01*
X160055000Y-109101939D01*
X160055000Y-108898061D01*
X160015226Y-108698102D01*
X159937205Y-108509744D01*
X159823937Y-108340226D01*
X159679774Y-108196063D01*
X159510256Y-108082795D01*
X159321898Y-108004774D01*
X159121939Y-107965000D01*
X158918061Y-107965000D01*
X158718102Y-108004774D01*
X158529744Y-108082795D01*
X158360226Y-108196063D01*
X158216063Y-108340226D01*
X158102795Y-108509744D01*
X158024774Y-108698102D01*
X157985000Y-108898061D01*
X157985000Y-109101939D01*
X158024774Y-109301898D01*
X158040556Y-109340000D01*
X156979444Y-109340000D01*
X156995226Y-109301898D01*
X157035000Y-109101939D01*
X157035000Y-108898061D01*
X156995226Y-108698102D01*
X156917205Y-108509744D01*
X156803937Y-108340226D01*
X156659774Y-108196063D01*
X156490256Y-108082795D01*
X156301898Y-108004774D01*
X156101939Y-107965000D01*
X155898061Y-107965000D01*
X155698102Y-108004774D01*
X155509744Y-108082795D01*
X155340226Y-108196063D01*
X155196063Y-108340226D01*
X155082795Y-108509744D01*
X155004774Y-108698102D01*
X154965000Y-108898061D01*
X154965000Y-109101939D01*
X155004774Y-109301898D01*
X155020556Y-109340000D01*
X153979444Y-109340000D01*
X153995226Y-109301898D01*
X154035000Y-109101939D01*
X154035000Y-108898061D01*
X153995226Y-108698102D01*
X153917205Y-108509744D01*
X153803937Y-108340226D01*
X153659774Y-108196063D01*
X153490256Y-108082795D01*
X153301898Y-108004774D01*
X153101939Y-107965000D01*
X152898061Y-107965000D01*
X152698102Y-108004774D01*
X152509744Y-108082795D01*
X152340226Y-108196063D01*
X152196063Y-108340226D01*
X152082795Y-108509744D01*
X152004774Y-108698102D01*
X151965000Y-108898061D01*
X151965000Y-109101939D01*
X152004774Y-109301898D01*
X152020556Y-109340000D01*
X150979444Y-109340000D01*
X150995226Y-109301898D01*
X151035000Y-109101939D01*
X151035000Y-108898061D01*
X150995226Y-108698102D01*
X150917205Y-108509744D01*
X150803937Y-108340226D01*
X150659774Y-108196063D01*
X150490256Y-108082795D01*
X150301898Y-108004774D01*
X150101939Y-107965000D01*
X149898061Y-107965000D01*
X149698102Y-108004774D01*
X149509744Y-108082795D01*
X149340226Y-108196063D01*
X149196063Y-108340226D01*
X149082795Y-108509744D01*
X149004774Y-108698102D01*
X148965000Y-108898061D01*
X148965000Y-109101939D01*
X149004774Y-109301898D01*
X149020556Y-109340000D01*
X147979444Y-109340000D01*
X147995226Y-109301898D01*
X148035000Y-109101939D01*
X148035000Y-108898061D01*
X147995226Y-108698102D01*
X147917205Y-108509744D01*
X147803937Y-108340226D01*
X147659774Y-108196063D01*
X147490256Y-108082795D01*
X147301898Y-108004774D01*
X147101939Y-107965000D01*
X146898061Y-107965000D01*
X146698102Y-108004774D01*
X146509744Y-108082795D01*
X146340226Y-108196063D01*
X146196063Y-108340226D01*
X146082795Y-108509744D01*
X146004774Y-108698102D01*
X145965000Y-108898061D01*
X145965000Y-109101939D01*
X146004774Y-109301898D01*
X146020556Y-109340000D01*
X144979444Y-109340000D01*
X144995226Y-109301898D01*
X145035000Y-109101939D01*
X145035000Y-108898061D01*
X144995226Y-108698102D01*
X144917205Y-108509744D01*
X144803937Y-108340226D01*
X144659774Y-108196063D01*
X144490256Y-108082795D01*
X144301898Y-108004774D01*
X144101939Y-107965000D01*
X143898061Y-107965000D01*
X143698102Y-108004774D01*
X143509744Y-108082795D01*
X143340226Y-108196063D01*
X143196063Y-108340226D01*
X143127000Y-108443586D01*
X143127000Y-106668061D01*
X151075000Y-106668061D01*
X151075000Y-106871939D01*
X151114774Y-107071898D01*
X151192795Y-107260256D01*
X151306063Y-107429774D01*
X151450226Y-107573937D01*
X151619744Y-107687205D01*
X151808102Y-107765226D01*
X152008061Y-107805000D01*
X152211939Y-107805000D01*
X152411898Y-107765226D01*
X152600256Y-107687205D01*
X152769774Y-107573937D01*
X152913937Y-107429774D01*
X153027205Y-107260256D01*
X153105226Y-107071898D01*
X153145000Y-106871939D01*
X153145000Y-106668061D01*
X153105226Y-106468102D01*
X153027205Y-106279744D01*
X152913937Y-106110226D01*
X152769774Y-105966063D01*
X152600256Y-105852795D01*
X152411898Y-105774774D01*
X152211939Y-105735000D01*
X152008061Y-105735000D01*
X151808102Y-105774774D01*
X151619744Y-105852795D01*
X151450226Y-105966063D01*
X151306063Y-106110226D01*
X151192795Y-106279744D01*
X151114774Y-106468102D01*
X151075000Y-106668061D01*
X143127000Y-106668061D01*
X143127000Y-105239893D01*
X143227059Y-105186411D01*
X143361817Y-105075817D01*
X143389534Y-105042044D01*
X143631054Y-104800524D01*
X165710000Y-104800524D01*
X165710000Y-104999476D01*
X165748814Y-105194606D01*
X165824950Y-105378414D01*
X165935482Y-105543837D01*
X166076163Y-105684518D01*
X166241586Y-105795050D01*
X166425394Y-105871186D01*
X166620524Y-105910000D01*
X166819476Y-105910000D01*
X167014606Y-105871186D01*
X167198414Y-105795050D01*
X167363837Y-105684518D01*
X167504518Y-105543837D01*
X167595521Y-105407641D01*
X167697501Y-105438577D01*
X167864248Y-105455000D01*
X168581546Y-105455000D01*
X168460226Y-105536063D01*
X168316063Y-105680226D01*
X168202795Y-105849744D01*
X168124774Y-106038102D01*
X168085000Y-106238061D01*
X168085000Y-106441939D01*
X168124774Y-106641898D01*
X168202795Y-106830256D01*
X168316063Y-106999774D01*
X168460226Y-107143937D01*
X168629744Y-107257205D01*
X168818102Y-107335226D01*
X169018061Y-107375000D01*
X169221939Y-107375000D01*
X169421898Y-107335226D01*
X169610256Y-107257205D01*
X169779774Y-107143937D01*
X169923937Y-106999774D01*
X170037205Y-106830256D01*
X170115226Y-106641898D01*
X170155000Y-106441939D01*
X170155000Y-106238061D01*
X170115226Y-106038102D01*
X170037205Y-105849744D01*
X169923937Y-105680226D01*
X169779774Y-105536063D01*
X169610256Y-105422795D01*
X169471827Y-105365455D01*
X169653623Y-105268284D01*
X169826449Y-105126449D01*
X169968284Y-104953623D01*
X170073676Y-104756447D01*
X170138577Y-104542499D01*
X170160491Y-104320000D01*
X171209509Y-104320000D01*
X171231423Y-104542499D01*
X171296324Y-104756447D01*
X171401716Y-104953623D01*
X171543551Y-105126449D01*
X171716377Y-105268284D01*
X171913553Y-105373676D01*
X172127501Y-105438577D01*
X172294248Y-105455000D01*
X173005752Y-105455000D01*
X173172499Y-105438577D01*
X173386447Y-105373676D01*
X173583623Y-105268284D01*
X173756449Y-105126449D01*
X173898284Y-104953623D01*
X174003676Y-104756447D01*
X174068577Y-104542499D01*
X174090491Y-104320000D01*
X174068577Y-104097501D01*
X174003676Y-103883553D01*
X173898284Y-103686377D01*
X173756449Y-103513551D01*
X173583623Y-103371716D01*
X173386447Y-103266324D01*
X173172499Y-103201423D01*
X173005752Y-103185000D01*
X172294248Y-103185000D01*
X172127501Y-103201423D01*
X171913553Y-103266324D01*
X171716377Y-103371716D01*
X171543551Y-103513551D01*
X171401716Y-103686377D01*
X171296324Y-103883553D01*
X171231423Y-104097501D01*
X171209509Y-104320000D01*
X170160491Y-104320000D01*
X170138577Y-104097501D01*
X170073676Y-103883553D01*
X169968284Y-103686377D01*
X169826449Y-103513551D01*
X169769285Y-103466638D01*
X169850741Y-103344731D01*
X169923108Y-103170022D01*
X169960000Y-102984552D01*
X169960000Y-102795448D01*
X169923108Y-102609978D01*
X169850741Y-102435269D01*
X169745681Y-102278036D01*
X169611964Y-102144319D01*
X169454731Y-102039259D01*
X169280022Y-101966892D01*
X169094552Y-101930000D01*
X168905448Y-101930000D01*
X168719978Y-101966892D01*
X168545269Y-102039259D01*
X168388036Y-102144319D01*
X168254319Y-102278036D01*
X168149259Y-102435269D01*
X168076892Y-102609978D01*
X168040000Y-102795448D01*
X168040000Y-102984552D01*
X168076892Y-103170022D01*
X168083096Y-103185000D01*
X167864248Y-103185000D01*
X167697501Y-103201423D01*
X167483553Y-103266324D01*
X167406819Y-103307339D01*
X167328414Y-103254950D01*
X167144606Y-103178814D01*
X166949476Y-103140000D01*
X166750524Y-103140000D01*
X166555394Y-103178814D01*
X166371586Y-103254950D01*
X166206163Y-103365482D01*
X166065482Y-103506163D01*
X165954950Y-103671586D01*
X165878814Y-103855394D01*
X165840000Y-104050524D01*
X165840000Y-104249476D01*
X165862929Y-104364747D01*
X165824950Y-104421586D01*
X165748814Y-104605394D01*
X165710000Y-104800524D01*
X143631054Y-104800524D01*
X145826579Y-102605000D01*
X146601546Y-102605000D01*
X146649744Y-102637205D01*
X146838102Y-102715226D01*
X147038061Y-102755000D01*
X147241939Y-102755000D01*
X147441898Y-102715226D01*
X147630256Y-102637205D01*
X147799774Y-102523937D01*
X147943937Y-102379774D01*
X148057205Y-102210256D01*
X148135226Y-102021898D01*
X148175000Y-101821939D01*
X148175000Y-101618061D01*
X148135226Y-101418102D01*
X148057205Y-101229744D01*
X148025000Y-101181546D01*
X148025000Y-99776578D01*
X149233934Y-98567645D01*
X149240001Y-98573712D01*
X149240000Y-101416289D01*
X149196063Y-101460226D01*
X149082795Y-101629744D01*
X149004774Y-101818102D01*
X148965000Y-102018061D01*
X148965000Y-102221939D01*
X149004774Y-102421898D01*
X149082795Y-102610256D01*
X149196063Y-102779774D01*
X149340226Y-102923937D01*
X149509744Y-103037205D01*
X149698102Y-103115226D01*
X149898061Y-103155000D01*
X150101939Y-103155000D01*
X150301898Y-103115226D01*
X150490256Y-103037205D01*
X150659774Y-102923937D01*
X150803937Y-102779774D01*
X150917205Y-102610256D01*
X150995226Y-102421898D01*
X151035000Y-102221939D01*
X151035000Y-102018061D01*
X150995226Y-101818102D01*
X150933077Y-101668061D01*
X154155000Y-101668061D01*
X154155000Y-101871939D01*
X154194774Y-102071898D01*
X154272795Y-102260256D01*
X154386063Y-102429774D01*
X154530226Y-102573937D01*
X154699744Y-102687205D01*
X154888102Y-102765226D01*
X155088061Y-102805000D01*
X155291939Y-102805000D01*
X155491898Y-102765226D01*
X155680256Y-102687205D01*
X155849774Y-102573937D01*
X155993937Y-102429774D01*
X156107205Y-102260256D01*
X156185226Y-102071898D01*
X156225000Y-101871939D01*
X156225000Y-101668061D01*
X156185226Y-101468102D01*
X156107205Y-101279744D01*
X155993937Y-101110226D01*
X155849774Y-100966063D01*
X155680256Y-100852795D01*
X155491898Y-100774774D01*
X155291939Y-100735000D01*
X155088061Y-100735000D01*
X154888102Y-100774774D01*
X154699744Y-100852795D01*
X154530226Y-100966063D01*
X154386063Y-101110226D01*
X154272795Y-101279744D01*
X154194774Y-101468102D01*
X154155000Y-101668061D01*
X150933077Y-101668061D01*
X150917205Y-101629744D01*
X150803937Y-101460226D01*
X150760000Y-101416289D01*
X150760000Y-100223061D01*
X162965000Y-100223061D01*
X162965000Y-100426939D01*
X163004774Y-100626898D01*
X163082795Y-100815256D01*
X163196063Y-100984774D01*
X163340226Y-101128937D01*
X163509744Y-101242205D01*
X163698102Y-101320226D01*
X163898061Y-101360000D01*
X164101939Y-101360000D01*
X164301898Y-101320226D01*
X164490256Y-101242205D01*
X164659774Y-101128937D01*
X164707644Y-101081067D01*
X164700932Y-101097271D01*
X164665000Y-101277911D01*
X164665000Y-101462089D01*
X164700932Y-101642729D01*
X164771414Y-101812889D01*
X164873738Y-101966028D01*
X165003972Y-102096262D01*
X165157111Y-102198586D01*
X165327271Y-102269068D01*
X165507911Y-102305000D01*
X165692089Y-102305000D01*
X165872729Y-102269068D01*
X166042889Y-102198586D01*
X166196028Y-102096262D01*
X166326262Y-101966028D01*
X166428586Y-101812889D01*
X166499068Y-101642729D01*
X166535000Y-101462089D01*
X166535000Y-101277911D01*
X166499068Y-101097271D01*
X166428586Y-100927111D01*
X166326262Y-100773972D01*
X166196028Y-100643738D01*
X166042889Y-100541414D01*
X165872729Y-100470932D01*
X165692089Y-100435000D01*
X165507911Y-100435000D01*
X165327271Y-100470932D01*
X165157111Y-100541414D01*
X165003972Y-100643738D01*
X164977134Y-100670576D01*
X164995226Y-100626898D01*
X165035000Y-100426939D01*
X165035000Y-100223061D01*
X164995226Y-100023102D01*
X164917205Y-99834744D01*
X164803937Y-99665226D01*
X164659774Y-99521063D01*
X164490256Y-99407795D01*
X164301898Y-99329774D01*
X164101939Y-99290000D01*
X163898061Y-99290000D01*
X163698102Y-99329774D01*
X163509744Y-99407795D01*
X163340226Y-99521063D01*
X163196063Y-99665226D01*
X163082795Y-99834744D01*
X163004774Y-100023102D01*
X162965000Y-100223061D01*
X150760000Y-100223061D01*
X150760000Y-98573711D01*
X150795848Y-98537863D01*
X164675000Y-98537863D01*
X164675000Y-98722041D01*
X164710932Y-98902681D01*
X164781414Y-99072841D01*
X164883738Y-99225980D01*
X165013972Y-99356214D01*
X165167111Y-99458538D01*
X165337271Y-99529020D01*
X165517911Y-99564952D01*
X165702089Y-99564952D01*
X165882729Y-99529020D01*
X166052889Y-99458538D01*
X166206028Y-99356214D01*
X166336262Y-99225980D01*
X166438586Y-99072841D01*
X166509068Y-98902681D01*
X166545000Y-98722041D01*
X166545000Y-98537863D01*
X166509068Y-98357223D01*
X166438586Y-98187063D01*
X166336262Y-98033924D01*
X166206028Y-97903690D01*
X166052889Y-97801366D01*
X165882729Y-97730884D01*
X165702089Y-97694952D01*
X165517911Y-97694952D01*
X165337271Y-97730884D01*
X165167111Y-97801366D01*
X165013972Y-97903690D01*
X164883738Y-98033924D01*
X164781414Y-98187063D01*
X164710932Y-98357223D01*
X164675000Y-98537863D01*
X150795848Y-98537863D01*
X150803937Y-98529774D01*
X150917205Y-98360256D01*
X150995226Y-98171898D01*
X151035000Y-97971939D01*
X151035000Y-97768061D01*
X150995226Y-97568102D01*
X150917205Y-97379744D01*
X150803937Y-97210226D01*
X150697645Y-97103934D01*
X152151579Y-95650000D01*
X154232000Y-95650000D01*
X154194901Y-95687099D01*
X154087104Y-95848428D01*
X154012853Y-96027686D01*
X153975000Y-96217986D01*
X153975000Y-96412014D01*
X154012853Y-96602314D01*
X154087104Y-96781572D01*
X154194901Y-96942901D01*
X154332099Y-97080099D01*
X154493428Y-97187896D01*
X154672686Y-97262147D01*
X154862986Y-97300000D01*
X155057014Y-97300000D01*
X155247314Y-97262147D01*
X155426572Y-97187896D01*
X155587901Y-97080099D01*
X155725099Y-96942901D01*
X155832896Y-96781572D01*
X155907147Y-96602314D01*
X155945000Y-96412014D01*
X155945000Y-96217986D01*
X155907147Y-96027686D01*
X155832896Y-95848428D01*
X155725099Y-95687099D01*
X155587901Y-95549901D01*
X155573083Y-95540000D01*
X155587901Y-95530099D01*
X155725099Y-95392901D01*
X155821671Y-95248371D01*
X155876063Y-95329774D01*
X156020226Y-95473937D01*
X156189744Y-95587205D01*
X156378102Y-95665226D01*
X156578061Y-95705000D01*
X156781939Y-95705000D01*
X156981898Y-95665226D01*
X157170256Y-95587205D01*
X157339774Y-95473937D01*
X157483937Y-95329774D01*
X157597205Y-95160256D01*
X157675226Y-94971898D01*
X157715000Y-94771939D01*
X157715000Y-94685002D01*
X161935000Y-94685002D01*
X161935000Y-94817014D01*
X161972853Y-95007314D01*
X162047104Y-95186572D01*
X162154901Y-95347901D01*
X162292099Y-95485099D01*
X162453428Y-95592896D01*
X162632686Y-95667147D01*
X162822986Y-95705000D01*
X163017014Y-95705000D01*
X163207314Y-95667147D01*
X163386572Y-95592896D01*
X163547901Y-95485099D01*
X163685099Y-95347901D01*
X163792896Y-95186572D01*
X163867147Y-95007314D01*
X163905000Y-94817014D01*
X163905000Y-94685002D01*
X165798682Y-94685002D01*
X165748814Y-94805394D01*
X165710000Y-95000524D01*
X165710000Y-95199476D01*
X165748814Y-95394606D01*
X165824950Y-95578414D01*
X165862929Y-95635253D01*
X165840000Y-95750524D01*
X165840000Y-95949476D01*
X165878814Y-96144606D01*
X165954950Y-96328414D01*
X166065482Y-96493837D01*
X166206163Y-96634518D01*
X166371586Y-96745050D01*
X166555394Y-96821186D01*
X166750524Y-96860000D01*
X166949476Y-96860000D01*
X167144606Y-96821186D01*
X167328414Y-96745050D01*
X167406819Y-96692661D01*
X167483553Y-96733676D01*
X167697501Y-96798577D01*
X167864248Y-96815000D01*
X168083096Y-96815000D01*
X168076892Y-96829978D01*
X168040000Y-97015448D01*
X168040000Y-97204552D01*
X168076892Y-97390022D01*
X168149259Y-97564731D01*
X168254319Y-97721964D01*
X168388036Y-97855681D01*
X168545269Y-97960741D01*
X168719978Y-98033108D01*
X168905448Y-98070000D01*
X169094552Y-98070000D01*
X169280022Y-98033108D01*
X169454731Y-97960741D01*
X169611964Y-97855681D01*
X169745681Y-97721964D01*
X169850741Y-97564731D01*
X169923108Y-97390022D01*
X169960000Y-97204552D01*
X169960000Y-97015448D01*
X169923108Y-96829978D01*
X169850741Y-96655269D01*
X169769285Y-96533362D01*
X169826449Y-96486449D01*
X169968284Y-96313623D01*
X170073676Y-96116447D01*
X170138577Y-95902499D01*
X170160491Y-95680000D01*
X170138577Y-95457501D01*
X170073676Y-95243553D01*
X169968284Y-95046377D01*
X169826449Y-94873551D01*
X169653623Y-94731716D01*
X169478573Y-94638150D01*
X169529774Y-94603939D01*
X169673937Y-94459776D01*
X169787205Y-94290258D01*
X169865226Y-94101900D01*
X169905000Y-93901941D01*
X169905000Y-93698063D01*
X169865226Y-93498104D01*
X169787205Y-93309746D01*
X169770670Y-93285000D01*
X169806260Y-93285000D01*
X170093158Y-93227932D01*
X170363411Y-93115990D01*
X170606632Y-92953475D01*
X170738487Y-92821620D01*
X170760498Y-92894180D01*
G37*
%TD.AperFunction*%
%TD*%
D23*
%TO.N,GND*%
X142123000Y-97529095D02*
X142041276Y-97462026D01*
X141909247Y-97391454D01*
X141833292Y-97368414D01*
X141835824Y-97364624D01*
X141921383Y-97158067D01*
X141965000Y-96938788D01*
X141965000Y-96715212D01*
X141921383Y-96495933D01*
X141835824Y-96289376D01*
X141770759Y-96192000D01*
X141835824Y-96094624D01*
X141921383Y-95888067D01*
X141965000Y-95668788D01*
X141965000Y-95445212D01*
X141921383Y-95225933D01*
X141835824Y-95019376D01*
X141711612Y-94833480D01*
X141553520Y-94675388D01*
X141367624Y-94551176D01*
X141161067Y-94465617D01*
X140941788Y-94422000D01*
X140718212Y-94422000D01*
X140498933Y-94465617D01*
X140292376Y-94551176D01*
X140106480Y-94675388D01*
X139948388Y-94833480D01*
X139824176Y-95019376D01*
X139738617Y-95225933D01*
X139695000Y-95445212D01*
X139695000Y-95668788D01*
X139738617Y-95888067D01*
X139824176Y-96094624D01*
X139889241Y-96192000D01*
X139824176Y-96289376D01*
X139738617Y-96495933D01*
X139695000Y-96715212D01*
X139695000Y-96938788D01*
X139738617Y-97158067D01*
X139824176Y-97364624D01*
X139889241Y-97462000D01*
X139824176Y-97559376D01*
X139738617Y-97765933D01*
X139695000Y-97985212D01*
X139695000Y-98208788D01*
X139738617Y-98428067D01*
X139824176Y-98634624D01*
X139889241Y-98732000D01*
X139824176Y-98829376D01*
X139738617Y-99035933D01*
X139695000Y-99255212D01*
X139695000Y-99478788D01*
X139738617Y-99698067D01*
X139824176Y-99904624D01*
X139889241Y-100002000D01*
X139824176Y-100099376D01*
X139738617Y-100305933D01*
X139695000Y-100525212D01*
X139695000Y-100748788D01*
X139738617Y-100968067D01*
X139824176Y-101174624D01*
X139889241Y-101272000D01*
X139824176Y-101369376D01*
X139738617Y-101575933D01*
X139695000Y-101795212D01*
X139695000Y-102018788D01*
X139738617Y-102238067D01*
X139824176Y-102444624D01*
X139892353Y-102546658D01*
X139842877Y-102616794D01*
X139752554Y-102820136D01*
X139735881Y-102875126D01*
X139862046Y-103050000D01*
X140703000Y-103050000D01*
X140703000Y-103038974D01*
X140718212Y-103042000D01*
X140941788Y-103042000D01*
X140957000Y-103038974D01*
X140957000Y-103050000D01*
X141797954Y-103050000D01*
X141924119Y-102875126D01*
X141907446Y-102820136D01*
X141817123Y-102616794D01*
X141767647Y-102546658D01*
X141835824Y-102444624D01*
X141895841Y-102299731D01*
X142078102Y-102375226D01*
X142123000Y-102384157D01*
X142123000Y-103562000D01*
X141894948Y-103562000D01*
X141907446Y-103533864D01*
X141924119Y-103478874D01*
X141797954Y-103304000D01*
X140957000Y-103304000D01*
X140957000Y-103308928D01*
X140703000Y-103308928D01*
X140703000Y-103304000D01*
X139862046Y-103304000D01*
X139735881Y-103478874D01*
X139752554Y-103533864D01*
X139788070Y-103613820D01*
X139740498Y-103702820D01*
X139704188Y-103822518D01*
X139691928Y-103947000D01*
X139691928Y-104947000D01*
X139704188Y-105071482D01*
X139740498Y-105191180D01*
X139799463Y-105301494D01*
X139878815Y-105398185D01*
X139975506Y-105477537D01*
X140085820Y-105536502D01*
X140205518Y-105572812D01*
X140330000Y-105585072D01*
X141330000Y-105585072D01*
X141454482Y-105572812D01*
X141574180Y-105536502D01*
X141684494Y-105477537D01*
X141781185Y-105398185D01*
X141835501Y-105332000D01*
X142123000Y-105332000D01*
X142123000Y-109340000D01*
X127532279Y-109340000D01*
X127143224Y-109301853D01*
X126800036Y-109198238D01*
X126483511Y-109029939D01*
X126205704Y-108803365D01*
X125977195Y-108527146D01*
X125806690Y-108211803D01*
X125700681Y-107869344D01*
X125660000Y-107482288D01*
X125660000Y-106717760D01*
X131165000Y-106717760D01*
X131165000Y-106882240D01*
X131197089Y-107043560D01*
X131260033Y-107195521D01*
X131351413Y-107332281D01*
X131467719Y-107448587D01*
X131604479Y-107539967D01*
X131756440Y-107602911D01*
X131917760Y-107635000D01*
X132082240Y-107635000D01*
X132243560Y-107602911D01*
X132395521Y-107539967D01*
X132500000Y-107470156D01*
X132604479Y-107539967D01*
X132756440Y-107602911D01*
X132917760Y-107635000D01*
X133082240Y-107635000D01*
X133243560Y-107602911D01*
X133395521Y-107539967D01*
X133532281Y-107448587D01*
X133648587Y-107332281D01*
X133739967Y-107195521D01*
X133802911Y-107043560D01*
X133835000Y-106882240D01*
X133835000Y-106717760D01*
X134165000Y-106717760D01*
X134165000Y-106882240D01*
X134197089Y-107043560D01*
X134260033Y-107195521D01*
X134351413Y-107332281D01*
X134467719Y-107448587D01*
X134604479Y-107539967D01*
X134756440Y-107602911D01*
X134917760Y-107635000D01*
X135082240Y-107635000D01*
X135243560Y-107602911D01*
X135395521Y-107539967D01*
X135500000Y-107470156D01*
X135604479Y-107539967D01*
X135756440Y-107602911D01*
X135917760Y-107635000D01*
X136082240Y-107635000D01*
X136243560Y-107602911D01*
X136395521Y-107539967D01*
X136500000Y-107470156D01*
X136604479Y-107539967D01*
X136756440Y-107602911D01*
X136917760Y-107635000D01*
X137082240Y-107635000D01*
X137243560Y-107602911D01*
X137395521Y-107539967D01*
X137500000Y-107470156D01*
X137604479Y-107539967D01*
X137756440Y-107602911D01*
X137917760Y-107635000D01*
X138082240Y-107635000D01*
X138243560Y-107602911D01*
X138395521Y-107539967D01*
X138500000Y-107470156D01*
X138604479Y-107539967D01*
X138756440Y-107602911D01*
X138917760Y-107635000D01*
X139082240Y-107635000D01*
X139243560Y-107602911D01*
X139395521Y-107539967D01*
X139532281Y-107448587D01*
X139648587Y-107332281D01*
X139739967Y-107195521D01*
X139785528Y-107085528D01*
X139895521Y-107039967D01*
X140032281Y-106948587D01*
X140148587Y-106832281D01*
X140239967Y-106695521D01*
X140302911Y-106543560D01*
X140335000Y-106382240D01*
X140335000Y-106217760D01*
X140302911Y-106056440D01*
X140239967Y-105904479D01*
X140148587Y-105767719D01*
X140032281Y-105651413D01*
X139895521Y-105560033D01*
X139743560Y-105497089D01*
X139582240Y-105465000D01*
X139417760Y-105465000D01*
X139256440Y-105497089D01*
X139104479Y-105560033D01*
X138967719Y-105651413D01*
X138851413Y-105767719D01*
X138760033Y-105904479D01*
X138714472Y-106014472D01*
X138604479Y-106060033D01*
X138500000Y-106129844D01*
X138395521Y-106060033D01*
X138285528Y-106014472D01*
X138239967Y-105904479D01*
X138148587Y-105767719D01*
X138032281Y-105651413D01*
X137895521Y-105560033D01*
X137743560Y-105497089D01*
X137582240Y-105465000D01*
X137417760Y-105465000D01*
X137256440Y-105497089D01*
X137104479Y-105560033D01*
X137000000Y-105629844D01*
X136895521Y-105560033D01*
X136743560Y-105497089D01*
X136582240Y-105465000D01*
X136417760Y-105465000D01*
X136256440Y-105497089D01*
X136104479Y-105560033D01*
X135967719Y-105651413D01*
X135851413Y-105767719D01*
X135760033Y-105904479D01*
X135714472Y-106014472D01*
X135604479Y-106060033D01*
X135500000Y-106129844D01*
X135395521Y-106060033D01*
X135243560Y-105997089D01*
X135082240Y-105965000D01*
X134917760Y-105965000D01*
X134756440Y-105997089D01*
X134604479Y-106060033D01*
X134467719Y-106151413D01*
X134351413Y-106267719D01*
X134260033Y-106404479D01*
X134197089Y-106556440D01*
X134165000Y-106717760D01*
X133835000Y-106717760D01*
X133802911Y-106556440D01*
X133739967Y-106404479D01*
X133648587Y-106267719D01*
X133532281Y-106151413D01*
X133395521Y-106060033D01*
X133243560Y-105997089D01*
X133082240Y-105965000D01*
X132917760Y-105965000D01*
X132756440Y-105997089D01*
X132604479Y-106060033D01*
X132500000Y-106129844D01*
X132395521Y-106060033D01*
X132243560Y-105997089D01*
X132082240Y-105965000D01*
X131917760Y-105965000D01*
X131756440Y-105997089D01*
X131604479Y-106060033D01*
X131467719Y-106151413D01*
X131351413Y-106267719D01*
X131260033Y-106404479D01*
X131197089Y-106556440D01*
X131165000Y-106717760D01*
X125660000Y-106717760D01*
X125660000Y-93617760D01*
X129665000Y-93617760D01*
X129665000Y-93782240D01*
X129697089Y-93943560D01*
X129760033Y-94095521D01*
X129851413Y-94232281D01*
X129967719Y-94348587D01*
X130104479Y-94439967D01*
X130256440Y-94502911D01*
X130417760Y-94535000D01*
X130582240Y-94535000D01*
X130743560Y-94502911D01*
X130895521Y-94439967D01*
X131000000Y-94370156D01*
X131104479Y-94439967D01*
X131256440Y-94502911D01*
X131417760Y-94535000D01*
X131582240Y-94535000D01*
X131743560Y-94502911D01*
X131895521Y-94439967D01*
X132032281Y-94348587D01*
X132148587Y-94232281D01*
X132239967Y-94095521D01*
X132302911Y-93943560D01*
X132335000Y-93782240D01*
X132335000Y-93617760D01*
X132302911Y-93456440D01*
X132239967Y-93304479D01*
X132182024Y-93217760D01*
X132665000Y-93217760D01*
X132665000Y-93382240D01*
X132697089Y-93543560D01*
X132760033Y-93695521D01*
X132851413Y-93832281D01*
X132967719Y-93948587D01*
X133104479Y-94039967D01*
X133256440Y-94102911D01*
X133417760Y-94135000D01*
X133582240Y-94135000D01*
X133743560Y-94102911D01*
X133895521Y-94039967D01*
X134000000Y-93970156D01*
X134104479Y-94039967D01*
X134256440Y-94102911D01*
X134417760Y-94135000D01*
X134582240Y-94135000D01*
X134743560Y-94102911D01*
X134895521Y-94039967D01*
X135032281Y-93948587D01*
X135148587Y-93832281D01*
X135239967Y-93695521D01*
X135302911Y-93543560D01*
X135335000Y-93382240D01*
X135335000Y-93217760D01*
X135315109Y-93117760D01*
X135665000Y-93117760D01*
X135665000Y-93282240D01*
X135697089Y-93443560D01*
X135760033Y-93595521D01*
X135851413Y-93732281D01*
X135967719Y-93848587D01*
X136104479Y-93939967D01*
X136214472Y-93985528D01*
X136260033Y-94095521D01*
X136351413Y-94232281D01*
X136467719Y-94348587D01*
X136604479Y-94439967D01*
X136756440Y-94502911D01*
X136917760Y-94535000D01*
X137082240Y-94535000D01*
X137243560Y-94502911D01*
X137395521Y-94439967D01*
X137500000Y-94370156D01*
X137604479Y-94439967D01*
X137756440Y-94502911D01*
X137917760Y-94535000D01*
X138082240Y-94535000D01*
X138243560Y-94502911D01*
X138395521Y-94439967D01*
X138500000Y-94370156D01*
X138604479Y-94439967D01*
X138756440Y-94502911D01*
X138917760Y-94535000D01*
X139082240Y-94535000D01*
X139243560Y-94502911D01*
X139395521Y-94439967D01*
X139532281Y-94348587D01*
X139648587Y-94232281D01*
X139739967Y-94095521D01*
X139785528Y-93985528D01*
X139895521Y-93939967D01*
X140032281Y-93848587D01*
X140148587Y-93732281D01*
X140239967Y-93595521D01*
X140302911Y-93443560D01*
X140335000Y-93282240D01*
X140335000Y-93117760D01*
X140302911Y-92956440D01*
X140239967Y-92804479D01*
X140148587Y-92667719D01*
X140032281Y-92551413D01*
X139895521Y-92460033D01*
X139743560Y-92397089D01*
X139582240Y-92365000D01*
X139417760Y-92365000D01*
X139256440Y-92397089D01*
X139104479Y-92460033D01*
X138967719Y-92551413D01*
X138851413Y-92667719D01*
X138760033Y-92804479D01*
X138714472Y-92914472D01*
X138604479Y-92960033D01*
X138500000Y-93029844D01*
X138395521Y-92960033D01*
X138285528Y-92914472D01*
X138239967Y-92804479D01*
X138148587Y-92667719D01*
X138032281Y-92551413D01*
X137895521Y-92460033D01*
X137743560Y-92397089D01*
X137582240Y-92365000D01*
X137417760Y-92365000D01*
X137256440Y-92397089D01*
X137104479Y-92460033D01*
X137000000Y-92529844D01*
X136895521Y-92460033D01*
X136743560Y-92397089D01*
X136582240Y-92365000D01*
X136417760Y-92365000D01*
X136256440Y-92397089D01*
X136104479Y-92460033D01*
X135967719Y-92551413D01*
X135851413Y-92667719D01*
X135760033Y-92804479D01*
X135697089Y-92956440D01*
X135665000Y-93117760D01*
X135315109Y-93117760D01*
X135302911Y-93056440D01*
X135239967Y-92904479D01*
X135148587Y-92767719D01*
X135032281Y-92651413D01*
X134895521Y-92560033D01*
X134743560Y-92497089D01*
X134582240Y-92465000D01*
X134417760Y-92465000D01*
X134256440Y-92497089D01*
X134104479Y-92560033D01*
X134000000Y-92629844D01*
X133895521Y-92560033D01*
X133743560Y-92497089D01*
X133582240Y-92465000D01*
X133417760Y-92465000D01*
X133256440Y-92497089D01*
X133104479Y-92560033D01*
X132967719Y-92651413D01*
X132851413Y-92767719D01*
X132760033Y-92904479D01*
X132697089Y-93056440D01*
X132665000Y-93217760D01*
X132182024Y-93217760D01*
X132148587Y-93167719D01*
X132032281Y-93051413D01*
X131895521Y-92960033D01*
X131743560Y-92897089D01*
X131582240Y-92865000D01*
X131417760Y-92865000D01*
X131256440Y-92897089D01*
X131104479Y-92960033D01*
X131000000Y-93029844D01*
X130895521Y-92960033D01*
X130743560Y-92897089D01*
X130582240Y-92865000D01*
X130417760Y-92865000D01*
X130256440Y-92897089D01*
X130104479Y-92960033D01*
X129967719Y-93051413D01*
X129851413Y-93167719D01*
X129760033Y-93304479D01*
X129697089Y-93456440D01*
X129665000Y-93617760D01*
X125660000Y-93617760D01*
X125660000Y-92532279D01*
X125698147Y-92143225D01*
X125801763Y-91800033D01*
X125970062Y-91483511D01*
X126196637Y-91205701D01*
X126472856Y-90977194D01*
X126788197Y-90806690D01*
X127130656Y-90700681D01*
X127517712Y-90660000D01*
X142123000Y-90660000D01*
X142123000Y-97529095D01*
%TA.AperFunction,Conductor*%
D24*
G36*
X142123000Y-97529095D02*
G01*
X142041276Y-97462026D01*
X141909247Y-97391454D01*
X141833292Y-97368414D01*
X141835824Y-97364624D01*
X141921383Y-97158067D01*
X141965000Y-96938788D01*
X141965000Y-96715212D01*
X141921383Y-96495933D01*
X141835824Y-96289376D01*
X141770759Y-96192000D01*
X141835824Y-96094624D01*
X141921383Y-95888067D01*
X141965000Y-95668788D01*
X141965000Y-95445212D01*
X141921383Y-95225933D01*
X141835824Y-95019376D01*
X141711612Y-94833480D01*
X141553520Y-94675388D01*
X141367624Y-94551176D01*
X141161067Y-94465617D01*
X140941788Y-94422000D01*
X140718212Y-94422000D01*
X140498933Y-94465617D01*
X140292376Y-94551176D01*
X140106480Y-94675388D01*
X139948388Y-94833480D01*
X139824176Y-95019376D01*
X139738617Y-95225933D01*
X139695000Y-95445212D01*
X139695000Y-95668788D01*
X139738617Y-95888067D01*
X139824176Y-96094624D01*
X139889241Y-96192000D01*
X139824176Y-96289376D01*
X139738617Y-96495933D01*
X139695000Y-96715212D01*
X139695000Y-96938788D01*
X139738617Y-97158067D01*
X139824176Y-97364624D01*
X139889241Y-97462000D01*
X139824176Y-97559376D01*
X139738617Y-97765933D01*
X139695000Y-97985212D01*
X139695000Y-98208788D01*
X139738617Y-98428067D01*
X139824176Y-98634624D01*
X139889241Y-98732000D01*
X139824176Y-98829376D01*
X139738617Y-99035933D01*
X139695000Y-99255212D01*
X139695000Y-99478788D01*
X139738617Y-99698067D01*
X139824176Y-99904624D01*
X139889241Y-100002000D01*
X139824176Y-100099376D01*
X139738617Y-100305933D01*
X139695000Y-100525212D01*
X139695000Y-100748788D01*
X139738617Y-100968067D01*
X139824176Y-101174624D01*
X139889241Y-101272000D01*
X139824176Y-101369376D01*
X139738617Y-101575933D01*
X139695000Y-101795212D01*
X139695000Y-102018788D01*
X139738617Y-102238067D01*
X139824176Y-102444624D01*
X139892353Y-102546658D01*
X139842877Y-102616794D01*
X139752554Y-102820136D01*
X139735881Y-102875126D01*
X139862046Y-103050000D01*
X140703000Y-103050000D01*
X140703000Y-103038974D01*
X140718212Y-103042000D01*
X140941788Y-103042000D01*
X140957000Y-103038974D01*
X140957000Y-103050000D01*
X141797954Y-103050000D01*
X141924119Y-102875126D01*
X141907446Y-102820136D01*
X141817123Y-102616794D01*
X141767647Y-102546658D01*
X141835824Y-102444624D01*
X141895841Y-102299731D01*
X142078102Y-102375226D01*
X142123000Y-102384157D01*
X142123000Y-103562000D01*
X141894948Y-103562000D01*
X141907446Y-103533864D01*
X141924119Y-103478874D01*
X141797954Y-103304000D01*
X140957000Y-103304000D01*
X140957000Y-103308928D01*
X140703000Y-103308928D01*
X140703000Y-103304000D01*
X139862046Y-103304000D01*
X139735881Y-103478874D01*
X139752554Y-103533864D01*
X139788070Y-103613820D01*
X139740498Y-103702820D01*
X139704188Y-103822518D01*
X139691928Y-103947000D01*
X139691928Y-104947000D01*
X139704188Y-105071482D01*
X139740498Y-105191180D01*
X139799463Y-105301494D01*
X139878815Y-105398185D01*
X139975506Y-105477537D01*
X140085820Y-105536502D01*
X140205518Y-105572812D01*
X140330000Y-105585072D01*
X141330000Y-105585072D01*
X141454482Y-105572812D01*
X141574180Y-105536502D01*
X141684494Y-105477537D01*
X141781185Y-105398185D01*
X141835501Y-105332000D01*
X142123000Y-105332000D01*
X142123000Y-109340000D01*
X127532279Y-109340000D01*
X127143224Y-109301853D01*
X126800036Y-109198238D01*
X126483511Y-109029939D01*
X126205704Y-108803365D01*
X125977195Y-108527146D01*
X125806690Y-108211803D01*
X125700681Y-107869344D01*
X125660000Y-107482288D01*
X125660000Y-106717760D01*
X131165000Y-106717760D01*
X131165000Y-106882240D01*
X131197089Y-107043560D01*
X131260033Y-107195521D01*
X131351413Y-107332281D01*
X131467719Y-107448587D01*
X131604479Y-107539967D01*
X131756440Y-107602911D01*
X131917760Y-107635000D01*
X132082240Y-107635000D01*
X132243560Y-107602911D01*
X132395521Y-107539967D01*
X132500000Y-107470156D01*
X132604479Y-107539967D01*
X132756440Y-107602911D01*
X132917760Y-107635000D01*
X133082240Y-107635000D01*
X133243560Y-107602911D01*
X133395521Y-107539967D01*
X133532281Y-107448587D01*
X133648587Y-107332281D01*
X133739967Y-107195521D01*
X133802911Y-107043560D01*
X133835000Y-106882240D01*
X133835000Y-106717760D01*
X134165000Y-106717760D01*
X134165000Y-106882240D01*
X134197089Y-107043560D01*
X134260033Y-107195521D01*
X134351413Y-107332281D01*
X134467719Y-107448587D01*
X134604479Y-107539967D01*
X134756440Y-107602911D01*
X134917760Y-107635000D01*
X135082240Y-107635000D01*
X135243560Y-107602911D01*
X135395521Y-107539967D01*
X135500000Y-107470156D01*
X135604479Y-107539967D01*
X135756440Y-107602911D01*
X135917760Y-107635000D01*
X136082240Y-107635000D01*
X136243560Y-107602911D01*
X136395521Y-107539967D01*
X136500000Y-107470156D01*
X136604479Y-107539967D01*
X136756440Y-107602911D01*
X136917760Y-107635000D01*
X137082240Y-107635000D01*
X137243560Y-107602911D01*
X137395521Y-107539967D01*
X137500000Y-107470156D01*
X137604479Y-107539967D01*
X137756440Y-107602911D01*
X137917760Y-107635000D01*
X138082240Y-107635000D01*
X138243560Y-107602911D01*
X138395521Y-107539967D01*
X138500000Y-107470156D01*
X138604479Y-107539967D01*
X138756440Y-107602911D01*
X138917760Y-107635000D01*
X139082240Y-107635000D01*
X139243560Y-107602911D01*
X139395521Y-107539967D01*
X139532281Y-107448587D01*
X139648587Y-107332281D01*
X139739967Y-107195521D01*
X139785528Y-107085528D01*
X139895521Y-107039967D01*
X140032281Y-106948587D01*
X140148587Y-106832281D01*
X140239967Y-106695521D01*
X140302911Y-106543560D01*
X140335000Y-106382240D01*
X140335000Y-106217760D01*
X140302911Y-106056440D01*
X140239967Y-105904479D01*
X140148587Y-105767719D01*
X140032281Y-105651413D01*
X139895521Y-105560033D01*
X139743560Y-105497089D01*
X139582240Y-105465000D01*
X139417760Y-105465000D01*
X139256440Y-105497089D01*
X139104479Y-105560033D01*
X138967719Y-105651413D01*
X138851413Y-105767719D01*
X138760033Y-105904479D01*
X138714472Y-106014472D01*
X138604479Y-106060033D01*
X138500000Y-106129844D01*
X138395521Y-106060033D01*
X138285528Y-106014472D01*
X138239967Y-105904479D01*
X138148587Y-105767719D01*
X138032281Y-105651413D01*
X137895521Y-105560033D01*
X137743560Y-105497089D01*
X137582240Y-105465000D01*
X137417760Y-105465000D01*
X137256440Y-105497089D01*
X137104479Y-105560033D01*
X137000000Y-105629844D01*
X136895521Y-105560033D01*
X136743560Y-105497089D01*
X136582240Y-105465000D01*
X136417760Y-105465000D01*
X136256440Y-105497089D01*
X136104479Y-105560033D01*
X135967719Y-105651413D01*
X135851413Y-105767719D01*
X135760033Y-105904479D01*
X135714472Y-106014472D01*
X135604479Y-106060033D01*
X135500000Y-106129844D01*
X135395521Y-106060033D01*
X135243560Y-105997089D01*
X135082240Y-105965000D01*
X134917760Y-105965000D01*
X134756440Y-105997089D01*
X134604479Y-106060033D01*
X134467719Y-106151413D01*
X134351413Y-106267719D01*
X134260033Y-106404479D01*
X134197089Y-106556440D01*
X134165000Y-106717760D01*
X133835000Y-106717760D01*
X133802911Y-106556440D01*
X133739967Y-106404479D01*
X133648587Y-106267719D01*
X133532281Y-106151413D01*
X133395521Y-106060033D01*
X133243560Y-105997089D01*
X133082240Y-105965000D01*
X132917760Y-105965000D01*
X132756440Y-105997089D01*
X132604479Y-106060033D01*
X132500000Y-106129844D01*
X132395521Y-106060033D01*
X132243560Y-105997089D01*
X132082240Y-105965000D01*
X131917760Y-105965000D01*
X131756440Y-105997089D01*
X131604479Y-106060033D01*
X131467719Y-106151413D01*
X131351413Y-106267719D01*
X131260033Y-106404479D01*
X131197089Y-106556440D01*
X131165000Y-106717760D01*
X125660000Y-106717760D01*
X125660000Y-93617760D01*
X129665000Y-93617760D01*
X129665000Y-93782240D01*
X129697089Y-93943560D01*
X129760033Y-94095521D01*
X129851413Y-94232281D01*
X129967719Y-94348587D01*
X130104479Y-94439967D01*
X130256440Y-94502911D01*
X130417760Y-94535000D01*
X130582240Y-94535000D01*
X130743560Y-94502911D01*
X130895521Y-94439967D01*
X131000000Y-94370156D01*
X131104479Y-94439967D01*
X131256440Y-94502911D01*
X131417760Y-94535000D01*
X131582240Y-94535000D01*
X131743560Y-94502911D01*
X131895521Y-94439967D01*
X132032281Y-94348587D01*
X132148587Y-94232281D01*
X132239967Y-94095521D01*
X132302911Y-93943560D01*
X132335000Y-93782240D01*
X132335000Y-93617760D01*
X132302911Y-93456440D01*
X132239967Y-93304479D01*
X132182024Y-93217760D01*
X132665000Y-93217760D01*
X132665000Y-93382240D01*
X132697089Y-93543560D01*
X132760033Y-93695521D01*
X132851413Y-93832281D01*
X132967719Y-93948587D01*
X133104479Y-94039967D01*
X133256440Y-94102911D01*
X133417760Y-94135000D01*
X133582240Y-94135000D01*
X133743560Y-94102911D01*
X133895521Y-94039967D01*
X134000000Y-93970156D01*
X134104479Y-94039967D01*
X134256440Y-94102911D01*
X134417760Y-94135000D01*
X134582240Y-94135000D01*
X134743560Y-94102911D01*
X134895521Y-94039967D01*
X135032281Y-93948587D01*
X135148587Y-93832281D01*
X135239967Y-93695521D01*
X135302911Y-93543560D01*
X135335000Y-93382240D01*
X135335000Y-93217760D01*
X135315109Y-93117760D01*
X135665000Y-93117760D01*
X135665000Y-93282240D01*
X135697089Y-93443560D01*
X135760033Y-93595521D01*
X135851413Y-93732281D01*
X135967719Y-93848587D01*
X136104479Y-93939967D01*
X136214472Y-93985528D01*
X136260033Y-94095521D01*
X136351413Y-94232281D01*
X136467719Y-94348587D01*
X136604479Y-94439967D01*
X136756440Y-94502911D01*
X136917760Y-94535000D01*
X137082240Y-94535000D01*
X137243560Y-94502911D01*
X137395521Y-94439967D01*
X137500000Y-94370156D01*
X137604479Y-94439967D01*
X137756440Y-94502911D01*
X137917760Y-94535000D01*
X138082240Y-94535000D01*
X138243560Y-94502911D01*
X138395521Y-94439967D01*
X138500000Y-94370156D01*
X138604479Y-94439967D01*
X138756440Y-94502911D01*
X138917760Y-94535000D01*
X139082240Y-94535000D01*
X139243560Y-94502911D01*
X139395521Y-94439967D01*
X139532281Y-94348587D01*
X139648587Y-94232281D01*
X139739967Y-94095521D01*
X139785528Y-93985528D01*
X139895521Y-93939967D01*
X140032281Y-93848587D01*
X140148587Y-93732281D01*
X140239967Y-93595521D01*
X140302911Y-93443560D01*
X140335000Y-93282240D01*
X140335000Y-93117760D01*
X140302911Y-92956440D01*
X140239967Y-92804479D01*
X140148587Y-92667719D01*
X140032281Y-92551413D01*
X139895521Y-92460033D01*
X139743560Y-92397089D01*
X139582240Y-92365000D01*
X139417760Y-92365000D01*
X139256440Y-92397089D01*
X139104479Y-92460033D01*
X138967719Y-92551413D01*
X138851413Y-92667719D01*
X138760033Y-92804479D01*
X138714472Y-92914472D01*
X138604479Y-92960033D01*
X138500000Y-93029844D01*
X138395521Y-92960033D01*
X138285528Y-92914472D01*
X138239967Y-92804479D01*
X138148587Y-92667719D01*
X138032281Y-92551413D01*
X137895521Y-92460033D01*
X137743560Y-92397089D01*
X137582240Y-92365000D01*
X137417760Y-92365000D01*
X137256440Y-92397089D01*
X137104479Y-92460033D01*
X137000000Y-92529844D01*
X136895521Y-92460033D01*
X136743560Y-92397089D01*
X136582240Y-92365000D01*
X136417760Y-92365000D01*
X136256440Y-92397089D01*
X136104479Y-92460033D01*
X135967719Y-92551413D01*
X135851413Y-92667719D01*
X135760033Y-92804479D01*
X135697089Y-92956440D01*
X135665000Y-93117760D01*
X135315109Y-93117760D01*
X135302911Y-93056440D01*
X135239967Y-92904479D01*
X135148587Y-92767719D01*
X135032281Y-92651413D01*
X134895521Y-92560033D01*
X134743560Y-92497089D01*
X134582240Y-92465000D01*
X134417760Y-92465000D01*
X134256440Y-92497089D01*
X134104479Y-92560033D01*
X134000000Y-92629844D01*
X133895521Y-92560033D01*
X133743560Y-92497089D01*
X133582240Y-92465000D01*
X133417760Y-92465000D01*
X133256440Y-92497089D01*
X133104479Y-92560033D01*
X132967719Y-92651413D01*
X132851413Y-92767719D01*
X132760033Y-92904479D01*
X132697089Y-93056440D01*
X132665000Y-93217760D01*
X132182024Y-93217760D01*
X132148587Y-93167719D01*
X132032281Y-93051413D01*
X131895521Y-92960033D01*
X131743560Y-92897089D01*
X131582240Y-92865000D01*
X131417760Y-92865000D01*
X131256440Y-92897089D01*
X131104479Y-92960033D01*
X131000000Y-93029844D01*
X130895521Y-92960033D01*
X130743560Y-92897089D01*
X130582240Y-92865000D01*
X130417760Y-92865000D01*
X130256440Y-92897089D01*
X130104479Y-92960033D01*
X129967719Y-93051413D01*
X129851413Y-93167719D01*
X129760033Y-93304479D01*
X129697089Y-93456440D01*
X129665000Y-93617760D01*
X125660000Y-93617760D01*
X125660000Y-92532279D01*
X125698147Y-92143225D01*
X125801763Y-91800033D01*
X125970062Y-91483511D01*
X126196637Y-91205701D01*
X126472856Y-90977194D01*
X126788197Y-90806690D01*
X127130656Y-90700681D01*
X127517712Y-90660000D01*
X142123000Y-90660000D01*
X142123000Y-97529095D01*
G37*
%TD.AperFunction*%
%TD*%
M02*
