%TF.GenerationSoftware,KiCad,Pcbnew,5.1.9-73d0e3b20d~88~ubuntu20.04.1*%
%TF.CreationDate,2021-06-05T19:28:38+02:00*%
%TF.ProjectId,wally,77616c6c-792e-46b6-9963-61645f706362,v1.03*%
%TF.SameCoordinates,Original*%
%TF.FileFunction,Copper,L3,Inr*%
%TF.FilePolarity,Positive*%
%FSLAX46Y46*%
G04 Gerber Fmt 4.6, Leading zero omitted, Abs format (unit mm)*
G04 Created by KiCad (PCBNEW 5.1.9-73d0e3b20d~88~ubuntu20.04.1) date 2021-06-05 19:28:38*
%MOMM*%
%LPD*%
G01*
G04 APERTURE LIST*
%TA.AperFunction,ComponentPad*%
%ADD10O,1.600000X1.000000*%
%TD*%
%TA.AperFunction,ComponentPad*%
%ADD11O,2.100000X1.000000*%
%TD*%
%TA.AperFunction,ComponentPad*%
%ADD12R,1.700000X1.700000*%
%TD*%
%TA.AperFunction,ComponentPad*%
%ADD13O,1.700000X1.700000*%
%TD*%
%TA.AperFunction,ViaPad*%
%ADD14C,0.400000*%
%TD*%
%TA.AperFunction,ViaPad*%
%ADD15C,0.800000*%
%TD*%
%TA.AperFunction,ViaPad*%
%ADD16C,0.700000*%
%TD*%
%TA.AperFunction,ViaPad*%
%ADD17C,0.750000*%
%TD*%
%TA.AperFunction,ViaPad*%
%ADD18C,0.600000*%
%TD*%
%TA.AperFunction,Conductor*%
%ADD19C,0.250000*%
%TD*%
%TA.AperFunction,Conductor*%
%ADD20C,0.500000*%
%TD*%
%TA.AperFunction,Conductor*%
%ADD21C,0.200000*%
%TD*%
%TA.AperFunction,Conductor*%
%ADD22C,0.254000*%
%TD*%
%TA.AperFunction,Conductor*%
%ADD23C,0.100000*%
%TD*%
G04 APERTURE END LIST*
D10*
%TO.N,N/C*%
%TO.C,J1*%
X172650000Y-95680000D03*
X172650000Y-104320000D03*
D11*
X168470000Y-104320000D03*
X168470000Y-95680000D03*
%TD*%
D12*
%TO.N,GND*%
%TO.C,J4*%
X172200000Y-91800000D03*
D13*
%TO.N,swdio*%
X169660000Y-91800000D03*
%TO.N,swclk*%
X167120000Y-91800000D03*
%TO.N,GND*%
X164580000Y-91800000D03*
%TO.N,uart_rx*%
X162040000Y-91800000D03*
%TO.N,uart_tx*%
X159500000Y-91800000D03*
%TD*%
D12*
%TO.N,GND*%
%TO.C,J5*%
X142400000Y-107620000D03*
D13*
%TO.N,hdmi_cec*%
X142400000Y-105080000D03*
%TO.N,hdmi_utility*%
X142400000Y-102540000D03*
%TO.N,hdmi_scl*%
X142400000Y-100000000D03*
%TO.N,hdmi_sda*%
X142400000Y-97460000D03*
%TO.N,hdmi_5v*%
X142400000Y-94920000D03*
%TO.N,hdmi_hpd*%
X142400000Y-92380000D03*
%TD*%
D14*
%TO.N,GND*%
X129000000Y-106800000D03*
X136500000Y-106300000D03*
X133500000Y-106300000D03*
X132000000Y-106800000D03*
D15*
X155190000Y-101770000D03*
D16*
X170530000Y-108240000D03*
D15*
X169120000Y-106340000D03*
X156680000Y-94670000D03*
X149180000Y-92050000D03*
X174000000Y-102000000D03*
X174000000Y-98000000D03*
D16*
X162920000Y-94720000D03*
D14*
X132000000Y-93700000D03*
X129000000Y-93200000D03*
X130500000Y-93200000D03*
D15*
X139775000Y-93200000D03*
X126225000Y-93200000D03*
X126225000Y-106800000D03*
X139775000Y-106800000D03*
D17*
X166850000Y-95850000D03*
X166850000Y-104150000D03*
D18*
X165600000Y-101370000D03*
D17*
X166720000Y-104900000D03*
X166720000Y-95100000D03*
D15*
X163990000Y-107240000D03*
X165020000Y-106340000D03*
D14*
X133500000Y-93200000D03*
X136500000Y-93200000D03*
D15*
X174000000Y-94000000D03*
X126000000Y-100000000D03*
X126000000Y-97000000D03*
X126000000Y-103000000D03*
X151000000Y-91000000D03*
X154000000Y-91000000D03*
X156890000Y-90990000D03*
X145000000Y-109100000D03*
X148000000Y-109100000D03*
X151000000Y-109100000D03*
X154000000Y-109100000D03*
X156970000Y-109100000D03*
X164000000Y-108730000D03*
X153110000Y-106770000D03*
X144460000Y-98705000D03*
D16*
X154290000Y-95975000D03*
D15*
X144470000Y-91305000D03*
X144470000Y-95745000D03*
D14*
X130500000Y-106300000D03*
D15*
X164000000Y-100325000D03*
D18*
X165610000Y-98629952D03*
D15*
X149370000Y-100000000D03*
X149360000Y-97510000D03*
X149370000Y-107500000D03*
X154920000Y-105180000D03*
D16*
%TO.N,+3V3*%
X161370000Y-96890000D03*
X158230000Y-96890000D03*
D15*
X165020000Y-108240000D03*
D16*
X158230000Y-99480000D03*
X161370000Y-99669996D03*
D15*
X169110000Y-108250000D03*
X157060000Y-107820000D03*
X149370000Y-101500000D03*
%TO.N,+5V*%
X168870000Y-93800002D03*
X153000000Y-97500000D03*
X153000000Y-99700000D03*
D14*
%TO.N,hdmi_hpd*%
X137500000Y-106300000D03*
X137500000Y-93200000D03*
%TO.N,hdmi_5v*%
X137000000Y-106800000D03*
X137000000Y-93700000D03*
%TO.N,hdmi_sda*%
X136000000Y-106800000D03*
X136000000Y-93700000D03*
D15*
X144210000Y-100780000D03*
D14*
%TO.N,hdmi_scl*%
X135500000Y-106300000D03*
X135500000Y-93200000D03*
%TO.N,hdmi_utility*%
X135000000Y-106800000D03*
X135000000Y-93700000D03*
%TO.N,hdmi_cec*%
X134500000Y-106300000D03*
X134500000Y-93200000D03*
%TO.N,Net-(J2-Pad12)*%
X134000000Y-106800000D03*
%TO.N,Net-(J2-Pad10)*%
X133000000Y-106800000D03*
%TO.N,Net-(J2-Pad9)*%
X132500000Y-93300000D03*
%TO.N,Net-(J2-Pad7)*%
X131500000Y-93300000D03*
%TO.N,Net-(J2-Pad6)*%
X131000000Y-106800000D03*
%TO.N,Net-(J2-Pad4)*%
X130000000Y-106800000D03*
%TO.N,Net-(J2-Pad3)*%
X129500000Y-93700000D03*
%TO.N,Net-(J2-Pad1)*%
X128500000Y-93700000D03*
D15*
%TO.N,hdmi_5v_en*%
X154000000Y-99700000D03*
X154000000Y-97500000D03*
%TO.N,hdmi_hpd_en*%
X152820000Y-92050000D03*
D16*
X151740000Y-94025000D03*
%TD*%
D19*
%TO.N,+5V*%
X153000000Y-97500000D02*
X153000000Y-99700000D01*
D20*
X155289998Y-93800002D02*
X153000000Y-96090000D01*
X153000000Y-96090000D02*
X153000000Y-97500000D01*
X168870000Y-93800002D02*
X155289998Y-93800002D01*
D21*
%TO.N,hdmi_sda*%
X142400000Y-97681002D02*
X142400000Y-97460000D01*
X144210000Y-99491002D02*
X142400000Y-97681002D01*
X144210000Y-100780000D02*
X144210000Y-99491002D01*
D19*
%TO.N,hdmi_5v_en*%
X154000000Y-97500000D02*
X154000000Y-99700000D01*
%TO.N,hdmi_hpd_en*%
X152820000Y-92945000D02*
X152820000Y-92050000D01*
X151740000Y-94025000D02*
X152820000Y-92945000D01*
%TD*%
D22*
%TO.N,+3V3*%
X150004774Y-90698102D02*
X149965000Y-90898061D01*
X149965000Y-91101939D01*
X150004774Y-91301898D01*
X150082795Y-91490256D01*
X150196063Y-91659774D01*
X150340226Y-91803937D01*
X150509744Y-91917205D01*
X150698102Y-91995226D01*
X150898061Y-92035000D01*
X151101939Y-92035000D01*
X151301898Y-91995226D01*
X151490256Y-91917205D01*
X151659774Y-91803937D01*
X151803937Y-91659774D01*
X151917205Y-91490256D01*
X151995226Y-91301898D01*
X152035000Y-91101939D01*
X152035000Y-90898061D01*
X151995226Y-90698102D01*
X151979444Y-90660000D01*
X153020556Y-90660000D01*
X153004774Y-90698102D01*
X152965000Y-90898061D01*
X152965000Y-91023565D01*
X152921939Y-91015000D01*
X152718061Y-91015000D01*
X152518102Y-91054774D01*
X152329744Y-91132795D01*
X152160226Y-91246063D01*
X152016063Y-91390226D01*
X151902795Y-91559744D01*
X151824774Y-91748102D01*
X151785000Y-91948061D01*
X151785000Y-92151939D01*
X151824774Y-92351898D01*
X151902795Y-92540256D01*
X152001788Y-92688410D01*
X151650199Y-93040000D01*
X151642986Y-93040000D01*
X151452686Y-93077853D01*
X151273428Y-93152104D01*
X151112099Y-93259901D01*
X150974901Y-93397099D01*
X150867104Y-93558428D01*
X150792853Y-93737686D01*
X150755000Y-93927986D01*
X150755000Y-94122014D01*
X150792853Y-94312314D01*
X150867104Y-94491572D01*
X150974901Y-94652901D01*
X151112099Y-94790099D01*
X151273428Y-94897896D01*
X151452686Y-94972147D01*
X151642986Y-95010000D01*
X151837014Y-95010000D01*
X152027314Y-94972147D01*
X152206572Y-94897896D01*
X152367901Y-94790099D01*
X152505099Y-94652901D01*
X152612896Y-94491572D01*
X152687147Y-94312314D01*
X152725000Y-94122014D01*
X152725000Y-94114801D01*
X153331004Y-93508798D01*
X153360001Y-93485001D01*
X153454974Y-93369276D01*
X153525546Y-93237247D01*
X153569003Y-93093986D01*
X153580000Y-92982333D01*
X153580000Y-92982325D01*
X153583676Y-92945000D01*
X153580000Y-92907675D01*
X153580000Y-92753711D01*
X153623937Y-92709774D01*
X153737205Y-92540256D01*
X153815226Y-92351898D01*
X153855000Y-92151939D01*
X153855000Y-92026435D01*
X153898061Y-92035000D01*
X154101939Y-92035000D01*
X154301898Y-91995226D01*
X154490256Y-91917205D01*
X154659774Y-91803937D01*
X154803937Y-91659774D01*
X154917205Y-91490256D01*
X154995226Y-91301898D01*
X155035000Y-91101939D01*
X155035000Y-90898061D01*
X154995226Y-90698102D01*
X154979444Y-90660000D01*
X155906414Y-90660000D01*
X155894774Y-90688102D01*
X155855000Y-90888061D01*
X155855000Y-91091939D01*
X155894774Y-91291898D01*
X155972795Y-91480256D01*
X156086063Y-91649774D01*
X156230226Y-91793937D01*
X156399744Y-91907205D01*
X156588102Y-91985226D01*
X156788061Y-92025000D01*
X156991939Y-92025000D01*
X157191898Y-91985226D01*
X157380256Y-91907205D01*
X157549774Y-91793937D01*
X157693937Y-91649774D01*
X157807205Y-91480256D01*
X157885226Y-91291898D01*
X157925000Y-91091939D01*
X157925000Y-90888061D01*
X157885226Y-90688102D01*
X157873586Y-90660000D01*
X158539893Y-90660000D01*
X158346525Y-90853368D01*
X158184010Y-91096589D01*
X158072068Y-91366842D01*
X158015000Y-91653740D01*
X158015000Y-91946260D01*
X158072068Y-92233158D01*
X158184010Y-92503411D01*
X158346525Y-92746632D01*
X158514895Y-92915002D01*
X155333463Y-92915002D01*
X155289997Y-92910721D01*
X155246531Y-92915002D01*
X155246521Y-92915002D01*
X155116508Y-92927807D01*
X154949685Y-92978413D01*
X154795939Y-93060591D01*
X154795937Y-93060592D01*
X154795938Y-93060592D01*
X154694951Y-93143470D01*
X154694949Y-93143472D01*
X154661181Y-93171185D01*
X154633468Y-93204953D01*
X152404956Y-95433466D01*
X152371183Y-95461183D01*
X152260589Y-95595942D01*
X152178411Y-95749688D01*
X152148910Y-95846939D01*
X152132056Y-95902499D01*
X152127805Y-95916511D01*
X152115000Y-96046524D01*
X152115000Y-96046531D01*
X152110719Y-96090000D01*
X152115000Y-96133470D01*
X152115001Y-96961545D01*
X152082795Y-97009744D01*
X152004774Y-97198102D01*
X151965000Y-97398061D01*
X151965000Y-97601939D01*
X152004774Y-97801898D01*
X152082795Y-97990256D01*
X152196063Y-98159774D01*
X152240000Y-98203711D01*
X152240001Y-98996288D01*
X152196063Y-99040226D01*
X152082795Y-99209744D01*
X152004774Y-99398102D01*
X151965000Y-99598061D01*
X151965000Y-99801939D01*
X152004774Y-100001898D01*
X152082795Y-100190256D01*
X152196063Y-100359774D01*
X152340226Y-100503937D01*
X152509744Y-100617205D01*
X152698102Y-100695226D01*
X152898061Y-100735000D01*
X153101939Y-100735000D01*
X153301898Y-100695226D01*
X153490256Y-100617205D01*
X153500000Y-100610694D01*
X153509744Y-100617205D01*
X153698102Y-100695226D01*
X153898061Y-100735000D01*
X154101939Y-100735000D01*
X154301898Y-100695226D01*
X154490256Y-100617205D01*
X154659774Y-100503937D01*
X154803937Y-100359774D01*
X154895285Y-100223061D01*
X162965000Y-100223061D01*
X162965000Y-100426939D01*
X163004774Y-100626898D01*
X163082795Y-100815256D01*
X163196063Y-100984774D01*
X163340226Y-101128937D01*
X163509744Y-101242205D01*
X163698102Y-101320226D01*
X163898061Y-101360000D01*
X164101939Y-101360000D01*
X164301898Y-101320226D01*
X164490256Y-101242205D01*
X164659774Y-101128937D01*
X164707644Y-101081067D01*
X164700932Y-101097271D01*
X164665000Y-101277911D01*
X164665000Y-101462089D01*
X164700932Y-101642729D01*
X164771414Y-101812889D01*
X164873738Y-101966028D01*
X165003972Y-102096262D01*
X165157111Y-102198586D01*
X165327271Y-102269068D01*
X165507911Y-102305000D01*
X165692089Y-102305000D01*
X165872729Y-102269068D01*
X166042889Y-102198586D01*
X166196028Y-102096262D01*
X166326262Y-101966028D01*
X166428586Y-101812889D01*
X166499068Y-101642729D01*
X166535000Y-101462089D01*
X166535000Y-101277911D01*
X166499068Y-101097271D01*
X166428586Y-100927111D01*
X166326262Y-100773972D01*
X166196028Y-100643738D01*
X166042889Y-100541414D01*
X165872729Y-100470932D01*
X165692089Y-100435000D01*
X165507911Y-100435000D01*
X165327271Y-100470932D01*
X165157111Y-100541414D01*
X165003972Y-100643738D01*
X164977134Y-100670576D01*
X164995226Y-100626898D01*
X165035000Y-100426939D01*
X165035000Y-100223061D01*
X164995226Y-100023102D01*
X164917205Y-99834744D01*
X164803937Y-99665226D01*
X164659774Y-99521063D01*
X164490256Y-99407795D01*
X164301898Y-99329774D01*
X164101939Y-99290000D01*
X163898061Y-99290000D01*
X163698102Y-99329774D01*
X163509744Y-99407795D01*
X163340226Y-99521063D01*
X163196063Y-99665226D01*
X163082795Y-99834744D01*
X163004774Y-100023102D01*
X162965000Y-100223061D01*
X154895285Y-100223061D01*
X154917205Y-100190256D01*
X154995226Y-100001898D01*
X155035000Y-99801939D01*
X155035000Y-99598061D01*
X154995226Y-99398102D01*
X154917205Y-99209744D01*
X154803937Y-99040226D01*
X154760000Y-98996289D01*
X154760000Y-98537863D01*
X164675000Y-98537863D01*
X164675000Y-98722041D01*
X164710932Y-98902681D01*
X164781414Y-99072841D01*
X164883738Y-99225980D01*
X165013972Y-99356214D01*
X165167111Y-99458538D01*
X165337271Y-99529020D01*
X165517911Y-99564952D01*
X165702089Y-99564952D01*
X165882729Y-99529020D01*
X166052889Y-99458538D01*
X166206028Y-99356214D01*
X166336262Y-99225980D01*
X166438586Y-99072841D01*
X166509068Y-98902681D01*
X166545000Y-98722041D01*
X166545000Y-98537863D01*
X166509068Y-98357223D01*
X166438586Y-98187063D01*
X166336262Y-98033924D01*
X166206028Y-97903690D01*
X166052889Y-97801366D01*
X165882729Y-97730884D01*
X165702089Y-97694952D01*
X165517911Y-97694952D01*
X165337271Y-97730884D01*
X165167111Y-97801366D01*
X165013972Y-97903690D01*
X164883738Y-98033924D01*
X164781414Y-98187063D01*
X164710932Y-98357223D01*
X164675000Y-98537863D01*
X154760000Y-98537863D01*
X154760000Y-98203711D01*
X154803937Y-98159774D01*
X154917205Y-97990256D01*
X154995226Y-97801898D01*
X155035000Y-97601939D01*
X155035000Y-97398061D01*
X154995226Y-97198102D01*
X154917205Y-97009744D01*
X154803937Y-96840226D01*
X154789563Y-96825852D01*
X154917901Y-96740099D01*
X155055099Y-96602901D01*
X155162896Y-96441572D01*
X155237147Y-96262314D01*
X155275000Y-96072014D01*
X155275000Y-95877986D01*
X155237147Y-95687686D01*
X155162896Y-95508428D01*
X155055099Y-95347099D01*
X155024789Y-95316789D01*
X155645000Y-94696579D01*
X155645000Y-94771939D01*
X155684774Y-94971898D01*
X155762795Y-95160256D01*
X155876063Y-95329774D01*
X156020226Y-95473937D01*
X156189744Y-95587205D01*
X156378102Y-95665226D01*
X156578061Y-95705000D01*
X156781939Y-95705000D01*
X156981898Y-95665226D01*
X157170256Y-95587205D01*
X157339774Y-95473937D01*
X157483937Y-95329774D01*
X157597205Y-95160256D01*
X157675226Y-94971898D01*
X157715000Y-94771939D01*
X157715000Y-94685002D01*
X161935000Y-94685002D01*
X161935000Y-94817014D01*
X161972853Y-95007314D01*
X162047104Y-95186572D01*
X162154901Y-95347901D01*
X162292099Y-95485099D01*
X162453428Y-95592896D01*
X162632686Y-95667147D01*
X162822986Y-95705000D01*
X163017014Y-95705000D01*
X163207314Y-95667147D01*
X163386572Y-95592896D01*
X163547901Y-95485099D01*
X163685099Y-95347901D01*
X163792896Y-95186572D01*
X163867147Y-95007314D01*
X163905000Y-94817014D01*
X163905000Y-94685002D01*
X165798682Y-94685002D01*
X165748814Y-94805394D01*
X165710000Y-95000524D01*
X165710000Y-95199476D01*
X165748814Y-95394606D01*
X165824950Y-95578414D01*
X165862929Y-95635253D01*
X165840000Y-95750524D01*
X165840000Y-95949476D01*
X165878814Y-96144606D01*
X165954950Y-96328414D01*
X166065482Y-96493837D01*
X166206163Y-96634518D01*
X166371586Y-96745050D01*
X166555394Y-96821186D01*
X166750524Y-96860000D01*
X166949476Y-96860000D01*
X167144606Y-96821186D01*
X167328414Y-96745050D01*
X167406819Y-96692661D01*
X167483553Y-96733676D01*
X167697501Y-96798577D01*
X167864248Y-96815000D01*
X168083096Y-96815000D01*
X168076892Y-96829978D01*
X168040000Y-97015448D01*
X168040000Y-97204552D01*
X168076892Y-97390022D01*
X168149259Y-97564731D01*
X168254319Y-97721964D01*
X168388036Y-97855681D01*
X168545269Y-97960741D01*
X168719978Y-98033108D01*
X168905448Y-98070000D01*
X169094552Y-98070000D01*
X169280022Y-98033108D01*
X169454731Y-97960741D01*
X169611964Y-97855681D01*
X169745681Y-97721964D01*
X169850741Y-97564731D01*
X169923108Y-97390022D01*
X169960000Y-97204552D01*
X169960000Y-97015448D01*
X169923108Y-96829978D01*
X169850741Y-96655269D01*
X169769285Y-96533362D01*
X169826449Y-96486449D01*
X169968284Y-96313623D01*
X170073676Y-96116447D01*
X170138577Y-95902499D01*
X170160491Y-95680000D01*
X170138577Y-95457501D01*
X170073676Y-95243553D01*
X169968284Y-95046377D01*
X169826449Y-94873551D01*
X169653623Y-94731716D01*
X169478573Y-94638150D01*
X169529774Y-94603939D01*
X169673937Y-94459776D01*
X169787205Y-94290258D01*
X169865226Y-94101900D01*
X169905000Y-93901941D01*
X169905000Y-93698063D01*
X169865226Y-93498104D01*
X169787205Y-93309746D01*
X169770670Y-93285000D01*
X169806260Y-93285000D01*
X170093158Y-93227932D01*
X170363411Y-93115990D01*
X170606632Y-92953475D01*
X170738487Y-92821620D01*
X170760498Y-92894180D01*
X170819463Y-93004494D01*
X170898815Y-93101185D01*
X170995506Y-93180537D01*
X171105820Y-93239502D01*
X171225518Y-93275812D01*
X171350000Y-93288072D01*
X173050000Y-93288072D01*
X173174482Y-93275812D01*
X173294180Y-93239502D01*
X173299781Y-93236508D01*
X173196063Y-93340226D01*
X173082795Y-93509744D01*
X173004774Y-93698102D01*
X172965000Y-93898061D01*
X172965000Y-94101939D01*
X173004774Y-94301898D01*
X173082795Y-94490256D01*
X173127378Y-94556979D01*
X173005752Y-94545000D01*
X172294248Y-94545000D01*
X172127501Y-94561423D01*
X171913553Y-94626324D01*
X171716377Y-94731716D01*
X171543551Y-94873551D01*
X171401716Y-95046377D01*
X171296324Y-95243553D01*
X171231423Y-95457501D01*
X171209509Y-95680000D01*
X171231423Y-95902499D01*
X171296324Y-96116447D01*
X171401716Y-96313623D01*
X171543551Y-96486449D01*
X171716377Y-96628284D01*
X171913553Y-96733676D01*
X172127501Y-96798577D01*
X172294248Y-96815000D01*
X173005752Y-96815000D01*
X173172499Y-96798577D01*
X173386447Y-96733676D01*
X173583623Y-96628284D01*
X173756449Y-96486449D01*
X173898284Y-96313623D01*
X174003676Y-96116447D01*
X174068577Y-95902499D01*
X174090491Y-95680000D01*
X174068577Y-95457501D01*
X174003676Y-95243553D01*
X173898284Y-95046377D01*
X173887169Y-95032833D01*
X173898061Y-95035000D01*
X174101939Y-95035000D01*
X174301898Y-94995226D01*
X174340000Y-94979443D01*
X174340000Y-97020557D01*
X174301898Y-97004774D01*
X174101939Y-96965000D01*
X173898061Y-96965000D01*
X173698102Y-97004774D01*
X173509744Y-97082795D01*
X173340226Y-97196063D01*
X173196063Y-97340226D01*
X173082795Y-97509744D01*
X173004774Y-97698102D01*
X172965000Y-97898061D01*
X172965000Y-98101939D01*
X173004774Y-98301898D01*
X173082795Y-98490256D01*
X173196063Y-98659774D01*
X173340226Y-98803937D01*
X173509744Y-98917205D01*
X173698102Y-98995226D01*
X173898061Y-99035000D01*
X174101939Y-99035000D01*
X174301898Y-98995226D01*
X174340000Y-98979443D01*
X174340001Y-101020557D01*
X174301898Y-101004774D01*
X174101939Y-100965000D01*
X173898061Y-100965000D01*
X173698102Y-101004774D01*
X173509744Y-101082795D01*
X173340226Y-101196063D01*
X173196063Y-101340226D01*
X173082795Y-101509744D01*
X173004774Y-101698102D01*
X172965000Y-101898061D01*
X172965000Y-102101939D01*
X173004774Y-102301898D01*
X173082795Y-102490256D01*
X173196063Y-102659774D01*
X173340226Y-102803937D01*
X173509744Y-102917205D01*
X173698102Y-102995226D01*
X173898061Y-103035000D01*
X174101939Y-103035000D01*
X174301898Y-102995226D01*
X174340001Y-102979443D01*
X174340001Y-107467711D01*
X174301853Y-107856776D01*
X174198238Y-108199964D01*
X174029939Y-108516489D01*
X173803365Y-108794296D01*
X173527146Y-109022805D01*
X173211803Y-109193310D01*
X172869344Y-109299319D01*
X172482288Y-109340000D01*
X164837195Y-109340000D01*
X164917205Y-109220256D01*
X164995226Y-109031898D01*
X165035000Y-108831939D01*
X165035000Y-108628061D01*
X164995226Y-108428102D01*
X164917205Y-108239744D01*
X164852554Y-108142986D01*
X169545000Y-108142986D01*
X169545000Y-108337014D01*
X169582853Y-108527314D01*
X169657104Y-108706572D01*
X169764901Y-108867901D01*
X169902099Y-109005099D01*
X170063428Y-109112896D01*
X170242686Y-109187147D01*
X170432986Y-109225000D01*
X170627014Y-109225000D01*
X170817314Y-109187147D01*
X170996572Y-109112896D01*
X171157901Y-109005099D01*
X171295099Y-108867901D01*
X171402896Y-108706572D01*
X171477147Y-108527314D01*
X171515000Y-108337014D01*
X171515000Y-108142986D01*
X171477147Y-107952686D01*
X171402896Y-107773428D01*
X171295099Y-107612099D01*
X171157901Y-107474901D01*
X170996572Y-107367104D01*
X170817314Y-107292853D01*
X170627014Y-107255000D01*
X170432986Y-107255000D01*
X170242686Y-107292853D01*
X170063428Y-107367104D01*
X169902099Y-107474901D01*
X169764901Y-107612099D01*
X169657104Y-107773428D01*
X169582853Y-107952686D01*
X169545000Y-108142986D01*
X164852554Y-108142986D01*
X164803937Y-108070226D01*
X164713711Y-107980000D01*
X164793937Y-107899774D01*
X164907205Y-107730256D01*
X164985226Y-107541898D01*
X165018424Y-107375000D01*
X165121939Y-107375000D01*
X165321898Y-107335226D01*
X165510256Y-107257205D01*
X165679774Y-107143937D01*
X165823937Y-106999774D01*
X165937205Y-106830256D01*
X166015226Y-106641898D01*
X166055000Y-106441939D01*
X166055000Y-106238061D01*
X166015226Y-106038102D01*
X165937205Y-105849744D01*
X165823937Y-105680226D01*
X165679774Y-105536063D01*
X165510256Y-105422795D01*
X165321898Y-105344774D01*
X165121939Y-105305000D01*
X164918061Y-105305000D01*
X164718102Y-105344774D01*
X164529744Y-105422795D01*
X164360226Y-105536063D01*
X164216063Y-105680226D01*
X164102795Y-105849744D01*
X164024774Y-106038102D01*
X163991576Y-106205000D01*
X163888061Y-106205000D01*
X163688102Y-106244774D01*
X163499744Y-106322795D01*
X163330226Y-106436063D01*
X163186063Y-106580226D01*
X163072795Y-106749744D01*
X162994774Y-106938102D01*
X162955000Y-107138061D01*
X162955000Y-107341939D01*
X162994774Y-107541898D01*
X163072795Y-107730256D01*
X163186063Y-107899774D01*
X163276289Y-107990000D01*
X163196063Y-108070226D01*
X163082795Y-108239744D01*
X163004774Y-108428102D01*
X162965000Y-108628061D01*
X162965000Y-108831939D01*
X163004774Y-109031898D01*
X163082795Y-109220256D01*
X163162805Y-109340000D01*
X157977538Y-109340000D01*
X158005000Y-109201939D01*
X158005000Y-108998061D01*
X157965226Y-108798102D01*
X157887205Y-108609744D01*
X157773937Y-108440226D01*
X157629774Y-108296063D01*
X157460256Y-108182795D01*
X157271898Y-108104774D01*
X157071939Y-108065000D01*
X156868061Y-108065000D01*
X156668102Y-108104774D01*
X156479744Y-108182795D01*
X156310226Y-108296063D01*
X156166063Y-108440226D01*
X156052795Y-108609744D01*
X155974774Y-108798102D01*
X155935000Y-108998061D01*
X155935000Y-109201939D01*
X155962462Y-109340000D01*
X155007538Y-109340000D01*
X155035000Y-109201939D01*
X155035000Y-108998061D01*
X154995226Y-108798102D01*
X154917205Y-108609744D01*
X154803937Y-108440226D01*
X154659774Y-108296063D01*
X154490256Y-108182795D01*
X154301898Y-108104774D01*
X154101939Y-108065000D01*
X153898061Y-108065000D01*
X153698102Y-108104774D01*
X153509744Y-108182795D01*
X153340226Y-108296063D01*
X153196063Y-108440226D01*
X153082795Y-108609744D01*
X153004774Y-108798102D01*
X152965000Y-108998061D01*
X152965000Y-109201939D01*
X152992462Y-109340000D01*
X152007538Y-109340000D01*
X152035000Y-109201939D01*
X152035000Y-108998061D01*
X151995226Y-108798102D01*
X151917205Y-108609744D01*
X151803937Y-108440226D01*
X151659774Y-108296063D01*
X151490256Y-108182795D01*
X151301898Y-108104774D01*
X151101939Y-108065000D01*
X150898061Y-108065000D01*
X150698102Y-108104774D01*
X150509744Y-108182795D01*
X150340226Y-108296063D01*
X150196063Y-108440226D01*
X150082795Y-108609744D01*
X150004774Y-108798102D01*
X149965000Y-108998061D01*
X149965000Y-109201939D01*
X149992462Y-109340000D01*
X149007538Y-109340000D01*
X149035000Y-109201939D01*
X149035000Y-108998061D01*
X148995226Y-108798102D01*
X148917205Y-108609744D01*
X148803937Y-108440226D01*
X148659774Y-108296063D01*
X148490256Y-108182795D01*
X148301898Y-108104774D01*
X148101939Y-108065000D01*
X147898061Y-108065000D01*
X147698102Y-108104774D01*
X147509744Y-108182795D01*
X147340226Y-108296063D01*
X147196063Y-108440226D01*
X147082795Y-108609744D01*
X147004774Y-108798102D01*
X146965000Y-108998061D01*
X146965000Y-109201939D01*
X146992462Y-109340000D01*
X146007538Y-109340000D01*
X146035000Y-109201939D01*
X146035000Y-108998061D01*
X145995226Y-108798102D01*
X145917205Y-108609744D01*
X145803937Y-108440226D01*
X145659774Y-108296063D01*
X145490256Y-108182795D01*
X145301898Y-108104774D01*
X145101939Y-108065000D01*
X144898061Y-108065000D01*
X144698102Y-108104774D01*
X144509744Y-108182795D01*
X144340226Y-108296063D01*
X144196063Y-108440226D01*
X144082795Y-108609744D01*
X144004774Y-108798102D01*
X143965000Y-108998061D01*
X143965000Y-109201939D01*
X143992462Y-109340000D01*
X143127000Y-109340000D01*
X143127000Y-109108072D01*
X143250000Y-109108072D01*
X143374482Y-109095812D01*
X143494180Y-109059502D01*
X143604494Y-109000537D01*
X143701185Y-108921185D01*
X143780537Y-108824494D01*
X143839502Y-108714180D01*
X143875812Y-108594482D01*
X143888072Y-108470000D01*
X143888072Y-107398061D01*
X148335000Y-107398061D01*
X148335000Y-107601939D01*
X148374774Y-107801898D01*
X148452795Y-107990256D01*
X148566063Y-108159774D01*
X148710226Y-108303937D01*
X148879744Y-108417205D01*
X149068102Y-108495226D01*
X149268061Y-108535000D01*
X149471939Y-108535000D01*
X149671898Y-108495226D01*
X149860256Y-108417205D01*
X150029774Y-108303937D01*
X150173937Y-108159774D01*
X150287205Y-107990256D01*
X150365226Y-107801898D01*
X150405000Y-107601939D01*
X150405000Y-107398061D01*
X150365226Y-107198102D01*
X150287205Y-107009744D01*
X150173937Y-106840226D01*
X150029774Y-106696063D01*
X149987866Y-106668061D01*
X152075000Y-106668061D01*
X152075000Y-106871939D01*
X152114774Y-107071898D01*
X152192795Y-107260256D01*
X152306063Y-107429774D01*
X152450226Y-107573937D01*
X152619744Y-107687205D01*
X152808102Y-107765226D01*
X153008061Y-107805000D01*
X153211939Y-107805000D01*
X153411898Y-107765226D01*
X153600256Y-107687205D01*
X153769774Y-107573937D01*
X153913937Y-107429774D01*
X154027205Y-107260256D01*
X154105226Y-107071898D01*
X154145000Y-106871939D01*
X154145000Y-106668061D01*
X154105226Y-106468102D01*
X154027205Y-106279744D01*
X153913937Y-106110226D01*
X153769774Y-105966063D01*
X153600256Y-105852795D01*
X153411898Y-105774774D01*
X153211939Y-105735000D01*
X153008061Y-105735000D01*
X152808102Y-105774774D01*
X152619744Y-105852795D01*
X152450226Y-105966063D01*
X152306063Y-106110226D01*
X152192795Y-106279744D01*
X152114774Y-106468102D01*
X152075000Y-106668061D01*
X149987866Y-106668061D01*
X149860256Y-106582795D01*
X149671898Y-106504774D01*
X149471939Y-106465000D01*
X149268061Y-106465000D01*
X149068102Y-106504774D01*
X148879744Y-106582795D01*
X148710226Y-106696063D01*
X148566063Y-106840226D01*
X148452795Y-107009744D01*
X148374774Y-107198102D01*
X148335000Y-107398061D01*
X143888072Y-107398061D01*
X143888072Y-106770000D01*
X143875812Y-106645518D01*
X143839502Y-106525820D01*
X143780537Y-106415506D01*
X143701185Y-106318815D01*
X143604494Y-106239463D01*
X143494180Y-106180498D01*
X143421620Y-106158487D01*
X143553475Y-106026632D01*
X143715990Y-105783411D01*
X143827932Y-105513158D01*
X143885000Y-105226260D01*
X143885000Y-105078061D01*
X153885000Y-105078061D01*
X153885000Y-105281939D01*
X153924774Y-105481898D01*
X154002795Y-105670256D01*
X154116063Y-105839774D01*
X154260226Y-105983937D01*
X154429744Y-106097205D01*
X154618102Y-106175226D01*
X154818061Y-106215000D01*
X155021939Y-106215000D01*
X155221898Y-106175226D01*
X155410256Y-106097205D01*
X155579774Y-105983937D01*
X155723937Y-105839774D01*
X155837205Y-105670256D01*
X155915226Y-105481898D01*
X155955000Y-105281939D01*
X155955000Y-105078061D01*
X155915226Y-104878102D01*
X155883092Y-104800524D01*
X165710000Y-104800524D01*
X165710000Y-104999476D01*
X165748814Y-105194606D01*
X165824950Y-105378414D01*
X165935482Y-105543837D01*
X166076163Y-105684518D01*
X166241586Y-105795050D01*
X166425394Y-105871186D01*
X166620524Y-105910000D01*
X166819476Y-105910000D01*
X167014606Y-105871186D01*
X167198414Y-105795050D01*
X167363837Y-105684518D01*
X167504518Y-105543837D01*
X167595521Y-105407641D01*
X167697501Y-105438577D01*
X167864248Y-105455000D01*
X168581546Y-105455000D01*
X168460226Y-105536063D01*
X168316063Y-105680226D01*
X168202795Y-105849744D01*
X168124774Y-106038102D01*
X168085000Y-106238061D01*
X168085000Y-106441939D01*
X168124774Y-106641898D01*
X168202795Y-106830256D01*
X168316063Y-106999774D01*
X168460226Y-107143937D01*
X168629744Y-107257205D01*
X168818102Y-107335226D01*
X169018061Y-107375000D01*
X169221939Y-107375000D01*
X169421898Y-107335226D01*
X169610256Y-107257205D01*
X169779774Y-107143937D01*
X169923937Y-106999774D01*
X170037205Y-106830256D01*
X170115226Y-106641898D01*
X170155000Y-106441939D01*
X170155000Y-106238061D01*
X170115226Y-106038102D01*
X170037205Y-105849744D01*
X169923937Y-105680226D01*
X169779774Y-105536063D01*
X169610256Y-105422795D01*
X169471827Y-105365455D01*
X169653623Y-105268284D01*
X169826449Y-105126449D01*
X169968284Y-104953623D01*
X170073676Y-104756447D01*
X170138577Y-104542499D01*
X170160491Y-104320000D01*
X171209509Y-104320000D01*
X171231423Y-104542499D01*
X171296324Y-104756447D01*
X171401716Y-104953623D01*
X171543551Y-105126449D01*
X171716377Y-105268284D01*
X171913553Y-105373676D01*
X172127501Y-105438577D01*
X172294248Y-105455000D01*
X173005752Y-105455000D01*
X173172499Y-105438577D01*
X173386447Y-105373676D01*
X173583623Y-105268284D01*
X173756449Y-105126449D01*
X173898284Y-104953623D01*
X174003676Y-104756447D01*
X174068577Y-104542499D01*
X174090491Y-104320000D01*
X174068577Y-104097501D01*
X174003676Y-103883553D01*
X173898284Y-103686377D01*
X173756449Y-103513551D01*
X173583623Y-103371716D01*
X173386447Y-103266324D01*
X173172499Y-103201423D01*
X173005752Y-103185000D01*
X172294248Y-103185000D01*
X172127501Y-103201423D01*
X171913553Y-103266324D01*
X171716377Y-103371716D01*
X171543551Y-103513551D01*
X171401716Y-103686377D01*
X171296324Y-103883553D01*
X171231423Y-104097501D01*
X171209509Y-104320000D01*
X170160491Y-104320000D01*
X170138577Y-104097501D01*
X170073676Y-103883553D01*
X169968284Y-103686377D01*
X169826449Y-103513551D01*
X169769285Y-103466638D01*
X169850741Y-103344731D01*
X169923108Y-103170022D01*
X169960000Y-102984552D01*
X169960000Y-102795448D01*
X169923108Y-102609978D01*
X169850741Y-102435269D01*
X169745681Y-102278036D01*
X169611964Y-102144319D01*
X169454731Y-102039259D01*
X169280022Y-101966892D01*
X169094552Y-101930000D01*
X168905448Y-101930000D01*
X168719978Y-101966892D01*
X168545269Y-102039259D01*
X168388036Y-102144319D01*
X168254319Y-102278036D01*
X168149259Y-102435269D01*
X168076892Y-102609978D01*
X168040000Y-102795448D01*
X168040000Y-102984552D01*
X168076892Y-103170022D01*
X168083096Y-103185000D01*
X167864248Y-103185000D01*
X167697501Y-103201423D01*
X167483553Y-103266324D01*
X167406819Y-103307339D01*
X167328414Y-103254950D01*
X167144606Y-103178814D01*
X166949476Y-103140000D01*
X166750524Y-103140000D01*
X166555394Y-103178814D01*
X166371586Y-103254950D01*
X166206163Y-103365482D01*
X166065482Y-103506163D01*
X165954950Y-103671586D01*
X165878814Y-103855394D01*
X165840000Y-104050524D01*
X165840000Y-104249476D01*
X165862929Y-104364747D01*
X165824950Y-104421586D01*
X165748814Y-104605394D01*
X165710000Y-104800524D01*
X155883092Y-104800524D01*
X155837205Y-104689744D01*
X155723937Y-104520226D01*
X155579774Y-104376063D01*
X155410256Y-104262795D01*
X155221898Y-104184774D01*
X155021939Y-104145000D01*
X154818061Y-104145000D01*
X154618102Y-104184774D01*
X154429744Y-104262795D01*
X154260226Y-104376063D01*
X154116063Y-104520226D01*
X154002795Y-104689744D01*
X153924774Y-104878102D01*
X153885000Y-105078061D01*
X143885000Y-105078061D01*
X143885000Y-104933740D01*
X143827932Y-104646842D01*
X143715990Y-104376589D01*
X143553475Y-104133368D01*
X143346632Y-103926525D01*
X143172240Y-103810000D01*
X143346632Y-103693475D01*
X143553475Y-103486632D01*
X143715990Y-103243411D01*
X143827932Y-102973158D01*
X143885000Y-102686260D01*
X143885000Y-102393740D01*
X143827932Y-102106842D01*
X143715990Y-101836589D01*
X143553475Y-101593368D01*
X143346632Y-101386525D01*
X143172240Y-101270000D01*
X143266579Y-101206965D01*
X143292795Y-101270256D01*
X143406063Y-101439774D01*
X143550226Y-101583937D01*
X143719744Y-101697205D01*
X143908102Y-101775226D01*
X144108061Y-101815000D01*
X144311939Y-101815000D01*
X144511898Y-101775226D01*
X144700256Y-101697205D01*
X144743873Y-101668061D01*
X154155000Y-101668061D01*
X154155000Y-101871939D01*
X154194774Y-102071898D01*
X154272795Y-102260256D01*
X154386063Y-102429774D01*
X154530226Y-102573937D01*
X154699744Y-102687205D01*
X154888102Y-102765226D01*
X155088061Y-102805000D01*
X155291939Y-102805000D01*
X155491898Y-102765226D01*
X155680256Y-102687205D01*
X155849774Y-102573937D01*
X155993937Y-102429774D01*
X156107205Y-102260256D01*
X156185226Y-102071898D01*
X156225000Y-101871939D01*
X156225000Y-101668061D01*
X156185226Y-101468102D01*
X156107205Y-101279744D01*
X155993937Y-101110226D01*
X155849774Y-100966063D01*
X155680256Y-100852795D01*
X155491898Y-100774774D01*
X155291939Y-100735000D01*
X155088061Y-100735000D01*
X154888102Y-100774774D01*
X154699744Y-100852795D01*
X154530226Y-100966063D01*
X154386063Y-101110226D01*
X154272795Y-101279744D01*
X154194774Y-101468102D01*
X154155000Y-101668061D01*
X144743873Y-101668061D01*
X144869774Y-101583937D01*
X145013937Y-101439774D01*
X145127205Y-101270256D01*
X145205226Y-101081898D01*
X145245000Y-100881939D01*
X145245000Y-100678061D01*
X145205226Y-100478102D01*
X145127205Y-100289744D01*
X145013937Y-100120226D01*
X144945000Y-100051289D01*
X144945000Y-99898061D01*
X148335000Y-99898061D01*
X148335000Y-100101939D01*
X148374774Y-100301898D01*
X148452795Y-100490256D01*
X148566063Y-100659774D01*
X148710226Y-100803937D01*
X148879744Y-100917205D01*
X149068102Y-100995226D01*
X149268061Y-101035000D01*
X149471939Y-101035000D01*
X149671898Y-100995226D01*
X149860256Y-100917205D01*
X150029774Y-100803937D01*
X150173937Y-100659774D01*
X150287205Y-100490256D01*
X150365226Y-100301898D01*
X150405000Y-100101939D01*
X150405000Y-99898061D01*
X150365226Y-99698102D01*
X150287205Y-99509744D01*
X150173937Y-99340226D01*
X150029774Y-99196063D01*
X149860256Y-99082795D01*
X149671898Y-99004774D01*
X149471939Y-98965000D01*
X149268061Y-98965000D01*
X149068102Y-99004774D01*
X148879744Y-99082795D01*
X148710226Y-99196063D01*
X148566063Y-99340226D01*
X148452795Y-99509744D01*
X148374774Y-99698102D01*
X148335000Y-99898061D01*
X144945000Y-99898061D01*
X144945000Y-99624382D01*
X144950256Y-99622205D01*
X145119774Y-99508937D01*
X145263937Y-99364774D01*
X145377205Y-99195256D01*
X145455226Y-99006898D01*
X145495000Y-98806939D01*
X145495000Y-98603061D01*
X145455226Y-98403102D01*
X145377205Y-98214744D01*
X145263937Y-98045226D01*
X145119774Y-97901063D01*
X144950256Y-97787795D01*
X144761898Y-97709774D01*
X144561939Y-97670000D01*
X144358061Y-97670000D01*
X144158102Y-97709774D01*
X143969744Y-97787795D01*
X143830365Y-97880925D01*
X143885000Y-97606260D01*
X143885000Y-97408061D01*
X148325000Y-97408061D01*
X148325000Y-97611939D01*
X148364774Y-97811898D01*
X148442795Y-98000256D01*
X148556063Y-98169774D01*
X148700226Y-98313937D01*
X148869744Y-98427205D01*
X149058102Y-98505226D01*
X149258061Y-98545000D01*
X149461939Y-98545000D01*
X149661898Y-98505226D01*
X149850256Y-98427205D01*
X150019774Y-98313937D01*
X150163937Y-98169774D01*
X150277205Y-98000256D01*
X150355226Y-97811898D01*
X150395000Y-97611939D01*
X150395000Y-97408061D01*
X150355226Y-97208102D01*
X150277205Y-97019744D01*
X150163937Y-96850226D01*
X150019774Y-96706063D01*
X149850256Y-96592795D01*
X149661898Y-96514774D01*
X149461939Y-96475000D01*
X149258061Y-96475000D01*
X149058102Y-96514774D01*
X148869744Y-96592795D01*
X148700226Y-96706063D01*
X148556063Y-96850226D01*
X148442795Y-97019744D01*
X148364774Y-97208102D01*
X148325000Y-97408061D01*
X143885000Y-97408061D01*
X143885000Y-97313740D01*
X143827932Y-97026842D01*
X143715990Y-96756589D01*
X143553475Y-96513368D01*
X143346632Y-96306525D01*
X143172240Y-96190000D01*
X143346632Y-96073475D01*
X143457923Y-95962184D01*
X143474774Y-96046898D01*
X143552795Y-96235256D01*
X143666063Y-96404774D01*
X143810226Y-96548937D01*
X143979744Y-96662205D01*
X144168102Y-96740226D01*
X144368061Y-96780000D01*
X144571939Y-96780000D01*
X144771898Y-96740226D01*
X144960256Y-96662205D01*
X145129774Y-96548937D01*
X145273937Y-96404774D01*
X145387205Y-96235256D01*
X145465226Y-96046898D01*
X145505000Y-95846939D01*
X145505000Y-95643061D01*
X145465226Y-95443102D01*
X145387205Y-95254744D01*
X145273937Y-95085226D01*
X145129774Y-94941063D01*
X144960256Y-94827795D01*
X144771898Y-94749774D01*
X144571939Y-94710000D01*
X144368061Y-94710000D01*
X144168102Y-94749774D01*
X143979744Y-94827795D01*
X143885000Y-94891101D01*
X143885000Y-94773740D01*
X143827932Y-94486842D01*
X143715990Y-94216589D01*
X143553475Y-93973368D01*
X143346632Y-93766525D01*
X143172240Y-93650000D01*
X143346632Y-93533475D01*
X143553475Y-93326632D01*
X143715990Y-93083411D01*
X143827932Y-92813158D01*
X143885000Y-92526260D01*
X143885000Y-92233740D01*
X143867831Y-92147427D01*
X143979744Y-92222205D01*
X144168102Y-92300226D01*
X144368061Y-92340000D01*
X144571939Y-92340000D01*
X144771898Y-92300226D01*
X144960256Y-92222205D01*
X145129774Y-92108937D01*
X145273937Y-91964774D01*
X145285104Y-91948061D01*
X148145000Y-91948061D01*
X148145000Y-92151939D01*
X148184774Y-92351898D01*
X148262795Y-92540256D01*
X148376063Y-92709774D01*
X148520226Y-92853937D01*
X148689744Y-92967205D01*
X148878102Y-93045226D01*
X149078061Y-93085000D01*
X149281939Y-93085000D01*
X149481898Y-93045226D01*
X149670256Y-92967205D01*
X149839774Y-92853937D01*
X149983937Y-92709774D01*
X150097205Y-92540256D01*
X150175226Y-92351898D01*
X150215000Y-92151939D01*
X150215000Y-91948061D01*
X150175226Y-91748102D01*
X150097205Y-91559744D01*
X149983937Y-91390226D01*
X149839774Y-91246063D01*
X149670256Y-91132795D01*
X149481898Y-91054774D01*
X149281939Y-91015000D01*
X149078061Y-91015000D01*
X148878102Y-91054774D01*
X148689744Y-91132795D01*
X148520226Y-91246063D01*
X148376063Y-91390226D01*
X148262795Y-91559744D01*
X148184774Y-91748102D01*
X148145000Y-91948061D01*
X145285104Y-91948061D01*
X145387205Y-91795256D01*
X145465226Y-91606898D01*
X145505000Y-91406939D01*
X145505000Y-91203061D01*
X145465226Y-91003102D01*
X145387205Y-90814744D01*
X145283809Y-90660000D01*
X150020556Y-90660000D01*
X150004774Y-90698102D01*
%TA.AperFunction,Conductor*%
D23*
G36*
X150004774Y-90698102D02*
G01*
X149965000Y-90898061D01*
X149965000Y-91101939D01*
X150004774Y-91301898D01*
X150082795Y-91490256D01*
X150196063Y-91659774D01*
X150340226Y-91803937D01*
X150509744Y-91917205D01*
X150698102Y-91995226D01*
X150898061Y-92035000D01*
X151101939Y-92035000D01*
X151301898Y-91995226D01*
X151490256Y-91917205D01*
X151659774Y-91803937D01*
X151803937Y-91659774D01*
X151917205Y-91490256D01*
X151995226Y-91301898D01*
X152035000Y-91101939D01*
X152035000Y-90898061D01*
X151995226Y-90698102D01*
X151979444Y-90660000D01*
X153020556Y-90660000D01*
X153004774Y-90698102D01*
X152965000Y-90898061D01*
X152965000Y-91023565D01*
X152921939Y-91015000D01*
X152718061Y-91015000D01*
X152518102Y-91054774D01*
X152329744Y-91132795D01*
X152160226Y-91246063D01*
X152016063Y-91390226D01*
X151902795Y-91559744D01*
X151824774Y-91748102D01*
X151785000Y-91948061D01*
X151785000Y-92151939D01*
X151824774Y-92351898D01*
X151902795Y-92540256D01*
X152001788Y-92688410D01*
X151650199Y-93040000D01*
X151642986Y-93040000D01*
X151452686Y-93077853D01*
X151273428Y-93152104D01*
X151112099Y-93259901D01*
X150974901Y-93397099D01*
X150867104Y-93558428D01*
X150792853Y-93737686D01*
X150755000Y-93927986D01*
X150755000Y-94122014D01*
X150792853Y-94312314D01*
X150867104Y-94491572D01*
X150974901Y-94652901D01*
X151112099Y-94790099D01*
X151273428Y-94897896D01*
X151452686Y-94972147D01*
X151642986Y-95010000D01*
X151837014Y-95010000D01*
X152027314Y-94972147D01*
X152206572Y-94897896D01*
X152367901Y-94790099D01*
X152505099Y-94652901D01*
X152612896Y-94491572D01*
X152687147Y-94312314D01*
X152725000Y-94122014D01*
X152725000Y-94114801D01*
X153331004Y-93508798D01*
X153360001Y-93485001D01*
X153454974Y-93369276D01*
X153525546Y-93237247D01*
X153569003Y-93093986D01*
X153580000Y-92982333D01*
X153580000Y-92982325D01*
X153583676Y-92945000D01*
X153580000Y-92907675D01*
X153580000Y-92753711D01*
X153623937Y-92709774D01*
X153737205Y-92540256D01*
X153815226Y-92351898D01*
X153855000Y-92151939D01*
X153855000Y-92026435D01*
X153898061Y-92035000D01*
X154101939Y-92035000D01*
X154301898Y-91995226D01*
X154490256Y-91917205D01*
X154659774Y-91803937D01*
X154803937Y-91659774D01*
X154917205Y-91490256D01*
X154995226Y-91301898D01*
X155035000Y-91101939D01*
X155035000Y-90898061D01*
X154995226Y-90698102D01*
X154979444Y-90660000D01*
X155906414Y-90660000D01*
X155894774Y-90688102D01*
X155855000Y-90888061D01*
X155855000Y-91091939D01*
X155894774Y-91291898D01*
X155972795Y-91480256D01*
X156086063Y-91649774D01*
X156230226Y-91793937D01*
X156399744Y-91907205D01*
X156588102Y-91985226D01*
X156788061Y-92025000D01*
X156991939Y-92025000D01*
X157191898Y-91985226D01*
X157380256Y-91907205D01*
X157549774Y-91793937D01*
X157693937Y-91649774D01*
X157807205Y-91480256D01*
X157885226Y-91291898D01*
X157925000Y-91091939D01*
X157925000Y-90888061D01*
X157885226Y-90688102D01*
X157873586Y-90660000D01*
X158539893Y-90660000D01*
X158346525Y-90853368D01*
X158184010Y-91096589D01*
X158072068Y-91366842D01*
X158015000Y-91653740D01*
X158015000Y-91946260D01*
X158072068Y-92233158D01*
X158184010Y-92503411D01*
X158346525Y-92746632D01*
X158514895Y-92915002D01*
X155333463Y-92915002D01*
X155289997Y-92910721D01*
X155246531Y-92915002D01*
X155246521Y-92915002D01*
X155116508Y-92927807D01*
X154949685Y-92978413D01*
X154795939Y-93060591D01*
X154795937Y-93060592D01*
X154795938Y-93060592D01*
X154694951Y-93143470D01*
X154694949Y-93143472D01*
X154661181Y-93171185D01*
X154633468Y-93204953D01*
X152404956Y-95433466D01*
X152371183Y-95461183D01*
X152260589Y-95595942D01*
X152178411Y-95749688D01*
X152148910Y-95846939D01*
X152132056Y-95902499D01*
X152127805Y-95916511D01*
X152115000Y-96046524D01*
X152115000Y-96046531D01*
X152110719Y-96090000D01*
X152115000Y-96133470D01*
X152115001Y-96961545D01*
X152082795Y-97009744D01*
X152004774Y-97198102D01*
X151965000Y-97398061D01*
X151965000Y-97601939D01*
X152004774Y-97801898D01*
X152082795Y-97990256D01*
X152196063Y-98159774D01*
X152240000Y-98203711D01*
X152240001Y-98996288D01*
X152196063Y-99040226D01*
X152082795Y-99209744D01*
X152004774Y-99398102D01*
X151965000Y-99598061D01*
X151965000Y-99801939D01*
X152004774Y-100001898D01*
X152082795Y-100190256D01*
X152196063Y-100359774D01*
X152340226Y-100503937D01*
X152509744Y-100617205D01*
X152698102Y-100695226D01*
X152898061Y-100735000D01*
X153101939Y-100735000D01*
X153301898Y-100695226D01*
X153490256Y-100617205D01*
X153500000Y-100610694D01*
X153509744Y-100617205D01*
X153698102Y-100695226D01*
X153898061Y-100735000D01*
X154101939Y-100735000D01*
X154301898Y-100695226D01*
X154490256Y-100617205D01*
X154659774Y-100503937D01*
X154803937Y-100359774D01*
X154895285Y-100223061D01*
X162965000Y-100223061D01*
X162965000Y-100426939D01*
X163004774Y-100626898D01*
X163082795Y-100815256D01*
X163196063Y-100984774D01*
X163340226Y-101128937D01*
X163509744Y-101242205D01*
X163698102Y-101320226D01*
X163898061Y-101360000D01*
X164101939Y-101360000D01*
X164301898Y-101320226D01*
X164490256Y-101242205D01*
X164659774Y-101128937D01*
X164707644Y-101081067D01*
X164700932Y-101097271D01*
X164665000Y-101277911D01*
X164665000Y-101462089D01*
X164700932Y-101642729D01*
X164771414Y-101812889D01*
X164873738Y-101966028D01*
X165003972Y-102096262D01*
X165157111Y-102198586D01*
X165327271Y-102269068D01*
X165507911Y-102305000D01*
X165692089Y-102305000D01*
X165872729Y-102269068D01*
X166042889Y-102198586D01*
X166196028Y-102096262D01*
X166326262Y-101966028D01*
X166428586Y-101812889D01*
X166499068Y-101642729D01*
X166535000Y-101462089D01*
X166535000Y-101277911D01*
X166499068Y-101097271D01*
X166428586Y-100927111D01*
X166326262Y-100773972D01*
X166196028Y-100643738D01*
X166042889Y-100541414D01*
X165872729Y-100470932D01*
X165692089Y-100435000D01*
X165507911Y-100435000D01*
X165327271Y-100470932D01*
X165157111Y-100541414D01*
X165003972Y-100643738D01*
X164977134Y-100670576D01*
X164995226Y-100626898D01*
X165035000Y-100426939D01*
X165035000Y-100223061D01*
X164995226Y-100023102D01*
X164917205Y-99834744D01*
X164803937Y-99665226D01*
X164659774Y-99521063D01*
X164490256Y-99407795D01*
X164301898Y-99329774D01*
X164101939Y-99290000D01*
X163898061Y-99290000D01*
X163698102Y-99329774D01*
X163509744Y-99407795D01*
X163340226Y-99521063D01*
X163196063Y-99665226D01*
X163082795Y-99834744D01*
X163004774Y-100023102D01*
X162965000Y-100223061D01*
X154895285Y-100223061D01*
X154917205Y-100190256D01*
X154995226Y-100001898D01*
X155035000Y-99801939D01*
X155035000Y-99598061D01*
X154995226Y-99398102D01*
X154917205Y-99209744D01*
X154803937Y-99040226D01*
X154760000Y-98996289D01*
X154760000Y-98537863D01*
X164675000Y-98537863D01*
X164675000Y-98722041D01*
X164710932Y-98902681D01*
X164781414Y-99072841D01*
X164883738Y-99225980D01*
X165013972Y-99356214D01*
X165167111Y-99458538D01*
X165337271Y-99529020D01*
X165517911Y-99564952D01*
X165702089Y-99564952D01*
X165882729Y-99529020D01*
X166052889Y-99458538D01*
X166206028Y-99356214D01*
X166336262Y-99225980D01*
X166438586Y-99072841D01*
X166509068Y-98902681D01*
X166545000Y-98722041D01*
X166545000Y-98537863D01*
X166509068Y-98357223D01*
X166438586Y-98187063D01*
X166336262Y-98033924D01*
X166206028Y-97903690D01*
X166052889Y-97801366D01*
X165882729Y-97730884D01*
X165702089Y-97694952D01*
X165517911Y-97694952D01*
X165337271Y-97730884D01*
X165167111Y-97801366D01*
X165013972Y-97903690D01*
X164883738Y-98033924D01*
X164781414Y-98187063D01*
X164710932Y-98357223D01*
X164675000Y-98537863D01*
X154760000Y-98537863D01*
X154760000Y-98203711D01*
X154803937Y-98159774D01*
X154917205Y-97990256D01*
X154995226Y-97801898D01*
X155035000Y-97601939D01*
X155035000Y-97398061D01*
X154995226Y-97198102D01*
X154917205Y-97009744D01*
X154803937Y-96840226D01*
X154789563Y-96825852D01*
X154917901Y-96740099D01*
X155055099Y-96602901D01*
X155162896Y-96441572D01*
X155237147Y-96262314D01*
X155275000Y-96072014D01*
X155275000Y-95877986D01*
X155237147Y-95687686D01*
X155162896Y-95508428D01*
X155055099Y-95347099D01*
X155024789Y-95316789D01*
X155645000Y-94696579D01*
X155645000Y-94771939D01*
X155684774Y-94971898D01*
X155762795Y-95160256D01*
X155876063Y-95329774D01*
X156020226Y-95473937D01*
X156189744Y-95587205D01*
X156378102Y-95665226D01*
X156578061Y-95705000D01*
X156781939Y-95705000D01*
X156981898Y-95665226D01*
X157170256Y-95587205D01*
X157339774Y-95473937D01*
X157483937Y-95329774D01*
X157597205Y-95160256D01*
X157675226Y-94971898D01*
X157715000Y-94771939D01*
X157715000Y-94685002D01*
X161935000Y-94685002D01*
X161935000Y-94817014D01*
X161972853Y-95007314D01*
X162047104Y-95186572D01*
X162154901Y-95347901D01*
X162292099Y-95485099D01*
X162453428Y-95592896D01*
X162632686Y-95667147D01*
X162822986Y-95705000D01*
X163017014Y-95705000D01*
X163207314Y-95667147D01*
X163386572Y-95592896D01*
X163547901Y-95485099D01*
X163685099Y-95347901D01*
X163792896Y-95186572D01*
X163867147Y-95007314D01*
X163905000Y-94817014D01*
X163905000Y-94685002D01*
X165798682Y-94685002D01*
X165748814Y-94805394D01*
X165710000Y-95000524D01*
X165710000Y-95199476D01*
X165748814Y-95394606D01*
X165824950Y-95578414D01*
X165862929Y-95635253D01*
X165840000Y-95750524D01*
X165840000Y-95949476D01*
X165878814Y-96144606D01*
X165954950Y-96328414D01*
X166065482Y-96493837D01*
X166206163Y-96634518D01*
X166371586Y-96745050D01*
X166555394Y-96821186D01*
X166750524Y-96860000D01*
X166949476Y-96860000D01*
X167144606Y-96821186D01*
X167328414Y-96745050D01*
X167406819Y-96692661D01*
X167483553Y-96733676D01*
X167697501Y-96798577D01*
X167864248Y-96815000D01*
X168083096Y-96815000D01*
X168076892Y-96829978D01*
X168040000Y-97015448D01*
X168040000Y-97204552D01*
X168076892Y-97390022D01*
X168149259Y-97564731D01*
X168254319Y-97721964D01*
X168388036Y-97855681D01*
X168545269Y-97960741D01*
X168719978Y-98033108D01*
X168905448Y-98070000D01*
X169094552Y-98070000D01*
X169280022Y-98033108D01*
X169454731Y-97960741D01*
X169611964Y-97855681D01*
X169745681Y-97721964D01*
X169850741Y-97564731D01*
X169923108Y-97390022D01*
X169960000Y-97204552D01*
X169960000Y-97015448D01*
X169923108Y-96829978D01*
X169850741Y-96655269D01*
X169769285Y-96533362D01*
X169826449Y-96486449D01*
X169968284Y-96313623D01*
X170073676Y-96116447D01*
X170138577Y-95902499D01*
X170160491Y-95680000D01*
X170138577Y-95457501D01*
X170073676Y-95243553D01*
X169968284Y-95046377D01*
X169826449Y-94873551D01*
X169653623Y-94731716D01*
X169478573Y-94638150D01*
X169529774Y-94603939D01*
X169673937Y-94459776D01*
X169787205Y-94290258D01*
X169865226Y-94101900D01*
X169905000Y-93901941D01*
X169905000Y-93698063D01*
X169865226Y-93498104D01*
X169787205Y-93309746D01*
X169770670Y-93285000D01*
X169806260Y-93285000D01*
X170093158Y-93227932D01*
X170363411Y-93115990D01*
X170606632Y-92953475D01*
X170738487Y-92821620D01*
X170760498Y-92894180D01*
X170819463Y-93004494D01*
X170898815Y-93101185D01*
X170995506Y-93180537D01*
X171105820Y-93239502D01*
X171225518Y-93275812D01*
X171350000Y-93288072D01*
X173050000Y-93288072D01*
X173174482Y-93275812D01*
X173294180Y-93239502D01*
X173299781Y-93236508D01*
X173196063Y-93340226D01*
X173082795Y-93509744D01*
X173004774Y-93698102D01*
X172965000Y-93898061D01*
X172965000Y-94101939D01*
X173004774Y-94301898D01*
X173082795Y-94490256D01*
X173127378Y-94556979D01*
X173005752Y-94545000D01*
X172294248Y-94545000D01*
X172127501Y-94561423D01*
X171913553Y-94626324D01*
X171716377Y-94731716D01*
X171543551Y-94873551D01*
X171401716Y-95046377D01*
X171296324Y-95243553D01*
X171231423Y-95457501D01*
X171209509Y-95680000D01*
X171231423Y-95902499D01*
X171296324Y-96116447D01*
X171401716Y-96313623D01*
X171543551Y-96486449D01*
X171716377Y-96628284D01*
X171913553Y-96733676D01*
X172127501Y-96798577D01*
X172294248Y-96815000D01*
X173005752Y-96815000D01*
X173172499Y-96798577D01*
X173386447Y-96733676D01*
X173583623Y-96628284D01*
X173756449Y-96486449D01*
X173898284Y-96313623D01*
X174003676Y-96116447D01*
X174068577Y-95902499D01*
X174090491Y-95680000D01*
X174068577Y-95457501D01*
X174003676Y-95243553D01*
X173898284Y-95046377D01*
X173887169Y-95032833D01*
X173898061Y-95035000D01*
X174101939Y-95035000D01*
X174301898Y-94995226D01*
X174340000Y-94979443D01*
X174340000Y-97020557D01*
X174301898Y-97004774D01*
X174101939Y-96965000D01*
X173898061Y-96965000D01*
X173698102Y-97004774D01*
X173509744Y-97082795D01*
X173340226Y-97196063D01*
X173196063Y-97340226D01*
X173082795Y-97509744D01*
X173004774Y-97698102D01*
X172965000Y-97898061D01*
X172965000Y-98101939D01*
X173004774Y-98301898D01*
X173082795Y-98490256D01*
X173196063Y-98659774D01*
X173340226Y-98803937D01*
X173509744Y-98917205D01*
X173698102Y-98995226D01*
X173898061Y-99035000D01*
X174101939Y-99035000D01*
X174301898Y-98995226D01*
X174340000Y-98979443D01*
X174340001Y-101020557D01*
X174301898Y-101004774D01*
X174101939Y-100965000D01*
X173898061Y-100965000D01*
X173698102Y-101004774D01*
X173509744Y-101082795D01*
X173340226Y-101196063D01*
X173196063Y-101340226D01*
X173082795Y-101509744D01*
X173004774Y-101698102D01*
X172965000Y-101898061D01*
X172965000Y-102101939D01*
X173004774Y-102301898D01*
X173082795Y-102490256D01*
X173196063Y-102659774D01*
X173340226Y-102803937D01*
X173509744Y-102917205D01*
X173698102Y-102995226D01*
X173898061Y-103035000D01*
X174101939Y-103035000D01*
X174301898Y-102995226D01*
X174340001Y-102979443D01*
X174340001Y-107467711D01*
X174301853Y-107856776D01*
X174198238Y-108199964D01*
X174029939Y-108516489D01*
X173803365Y-108794296D01*
X173527146Y-109022805D01*
X173211803Y-109193310D01*
X172869344Y-109299319D01*
X172482288Y-109340000D01*
X164837195Y-109340000D01*
X164917205Y-109220256D01*
X164995226Y-109031898D01*
X165035000Y-108831939D01*
X165035000Y-108628061D01*
X164995226Y-108428102D01*
X164917205Y-108239744D01*
X164852554Y-108142986D01*
X169545000Y-108142986D01*
X169545000Y-108337014D01*
X169582853Y-108527314D01*
X169657104Y-108706572D01*
X169764901Y-108867901D01*
X169902099Y-109005099D01*
X170063428Y-109112896D01*
X170242686Y-109187147D01*
X170432986Y-109225000D01*
X170627014Y-109225000D01*
X170817314Y-109187147D01*
X170996572Y-109112896D01*
X171157901Y-109005099D01*
X171295099Y-108867901D01*
X171402896Y-108706572D01*
X171477147Y-108527314D01*
X171515000Y-108337014D01*
X171515000Y-108142986D01*
X171477147Y-107952686D01*
X171402896Y-107773428D01*
X171295099Y-107612099D01*
X171157901Y-107474901D01*
X170996572Y-107367104D01*
X170817314Y-107292853D01*
X170627014Y-107255000D01*
X170432986Y-107255000D01*
X170242686Y-107292853D01*
X170063428Y-107367104D01*
X169902099Y-107474901D01*
X169764901Y-107612099D01*
X169657104Y-107773428D01*
X169582853Y-107952686D01*
X169545000Y-108142986D01*
X164852554Y-108142986D01*
X164803937Y-108070226D01*
X164713711Y-107980000D01*
X164793937Y-107899774D01*
X164907205Y-107730256D01*
X164985226Y-107541898D01*
X165018424Y-107375000D01*
X165121939Y-107375000D01*
X165321898Y-107335226D01*
X165510256Y-107257205D01*
X165679774Y-107143937D01*
X165823937Y-106999774D01*
X165937205Y-106830256D01*
X166015226Y-106641898D01*
X166055000Y-106441939D01*
X166055000Y-106238061D01*
X166015226Y-106038102D01*
X165937205Y-105849744D01*
X165823937Y-105680226D01*
X165679774Y-105536063D01*
X165510256Y-105422795D01*
X165321898Y-105344774D01*
X165121939Y-105305000D01*
X164918061Y-105305000D01*
X164718102Y-105344774D01*
X164529744Y-105422795D01*
X164360226Y-105536063D01*
X164216063Y-105680226D01*
X164102795Y-105849744D01*
X164024774Y-106038102D01*
X163991576Y-106205000D01*
X163888061Y-106205000D01*
X163688102Y-106244774D01*
X163499744Y-106322795D01*
X163330226Y-106436063D01*
X163186063Y-106580226D01*
X163072795Y-106749744D01*
X162994774Y-106938102D01*
X162955000Y-107138061D01*
X162955000Y-107341939D01*
X162994774Y-107541898D01*
X163072795Y-107730256D01*
X163186063Y-107899774D01*
X163276289Y-107990000D01*
X163196063Y-108070226D01*
X163082795Y-108239744D01*
X163004774Y-108428102D01*
X162965000Y-108628061D01*
X162965000Y-108831939D01*
X163004774Y-109031898D01*
X163082795Y-109220256D01*
X163162805Y-109340000D01*
X157977538Y-109340000D01*
X158005000Y-109201939D01*
X158005000Y-108998061D01*
X157965226Y-108798102D01*
X157887205Y-108609744D01*
X157773937Y-108440226D01*
X157629774Y-108296063D01*
X157460256Y-108182795D01*
X157271898Y-108104774D01*
X157071939Y-108065000D01*
X156868061Y-108065000D01*
X156668102Y-108104774D01*
X156479744Y-108182795D01*
X156310226Y-108296063D01*
X156166063Y-108440226D01*
X156052795Y-108609744D01*
X155974774Y-108798102D01*
X155935000Y-108998061D01*
X155935000Y-109201939D01*
X155962462Y-109340000D01*
X155007538Y-109340000D01*
X155035000Y-109201939D01*
X155035000Y-108998061D01*
X154995226Y-108798102D01*
X154917205Y-108609744D01*
X154803937Y-108440226D01*
X154659774Y-108296063D01*
X154490256Y-108182795D01*
X154301898Y-108104774D01*
X154101939Y-108065000D01*
X153898061Y-108065000D01*
X153698102Y-108104774D01*
X153509744Y-108182795D01*
X153340226Y-108296063D01*
X153196063Y-108440226D01*
X153082795Y-108609744D01*
X153004774Y-108798102D01*
X152965000Y-108998061D01*
X152965000Y-109201939D01*
X152992462Y-109340000D01*
X152007538Y-109340000D01*
X152035000Y-109201939D01*
X152035000Y-108998061D01*
X151995226Y-108798102D01*
X151917205Y-108609744D01*
X151803937Y-108440226D01*
X151659774Y-108296063D01*
X151490256Y-108182795D01*
X151301898Y-108104774D01*
X151101939Y-108065000D01*
X150898061Y-108065000D01*
X150698102Y-108104774D01*
X150509744Y-108182795D01*
X150340226Y-108296063D01*
X150196063Y-108440226D01*
X150082795Y-108609744D01*
X150004774Y-108798102D01*
X149965000Y-108998061D01*
X149965000Y-109201939D01*
X149992462Y-109340000D01*
X149007538Y-109340000D01*
X149035000Y-109201939D01*
X149035000Y-108998061D01*
X148995226Y-108798102D01*
X148917205Y-108609744D01*
X148803937Y-108440226D01*
X148659774Y-108296063D01*
X148490256Y-108182795D01*
X148301898Y-108104774D01*
X148101939Y-108065000D01*
X147898061Y-108065000D01*
X147698102Y-108104774D01*
X147509744Y-108182795D01*
X147340226Y-108296063D01*
X147196063Y-108440226D01*
X147082795Y-108609744D01*
X147004774Y-108798102D01*
X146965000Y-108998061D01*
X146965000Y-109201939D01*
X146992462Y-109340000D01*
X146007538Y-109340000D01*
X146035000Y-109201939D01*
X146035000Y-108998061D01*
X145995226Y-108798102D01*
X145917205Y-108609744D01*
X145803937Y-108440226D01*
X145659774Y-108296063D01*
X145490256Y-108182795D01*
X145301898Y-108104774D01*
X145101939Y-108065000D01*
X144898061Y-108065000D01*
X144698102Y-108104774D01*
X144509744Y-108182795D01*
X144340226Y-108296063D01*
X144196063Y-108440226D01*
X144082795Y-108609744D01*
X144004774Y-108798102D01*
X143965000Y-108998061D01*
X143965000Y-109201939D01*
X143992462Y-109340000D01*
X143127000Y-109340000D01*
X143127000Y-109108072D01*
X143250000Y-109108072D01*
X143374482Y-109095812D01*
X143494180Y-109059502D01*
X143604494Y-109000537D01*
X143701185Y-108921185D01*
X143780537Y-108824494D01*
X143839502Y-108714180D01*
X143875812Y-108594482D01*
X143888072Y-108470000D01*
X143888072Y-107398061D01*
X148335000Y-107398061D01*
X148335000Y-107601939D01*
X148374774Y-107801898D01*
X148452795Y-107990256D01*
X148566063Y-108159774D01*
X148710226Y-108303937D01*
X148879744Y-108417205D01*
X149068102Y-108495226D01*
X149268061Y-108535000D01*
X149471939Y-108535000D01*
X149671898Y-108495226D01*
X149860256Y-108417205D01*
X150029774Y-108303937D01*
X150173937Y-108159774D01*
X150287205Y-107990256D01*
X150365226Y-107801898D01*
X150405000Y-107601939D01*
X150405000Y-107398061D01*
X150365226Y-107198102D01*
X150287205Y-107009744D01*
X150173937Y-106840226D01*
X150029774Y-106696063D01*
X149987866Y-106668061D01*
X152075000Y-106668061D01*
X152075000Y-106871939D01*
X152114774Y-107071898D01*
X152192795Y-107260256D01*
X152306063Y-107429774D01*
X152450226Y-107573937D01*
X152619744Y-107687205D01*
X152808102Y-107765226D01*
X153008061Y-107805000D01*
X153211939Y-107805000D01*
X153411898Y-107765226D01*
X153600256Y-107687205D01*
X153769774Y-107573937D01*
X153913937Y-107429774D01*
X154027205Y-107260256D01*
X154105226Y-107071898D01*
X154145000Y-106871939D01*
X154145000Y-106668061D01*
X154105226Y-106468102D01*
X154027205Y-106279744D01*
X153913937Y-106110226D01*
X153769774Y-105966063D01*
X153600256Y-105852795D01*
X153411898Y-105774774D01*
X153211939Y-105735000D01*
X153008061Y-105735000D01*
X152808102Y-105774774D01*
X152619744Y-105852795D01*
X152450226Y-105966063D01*
X152306063Y-106110226D01*
X152192795Y-106279744D01*
X152114774Y-106468102D01*
X152075000Y-106668061D01*
X149987866Y-106668061D01*
X149860256Y-106582795D01*
X149671898Y-106504774D01*
X149471939Y-106465000D01*
X149268061Y-106465000D01*
X149068102Y-106504774D01*
X148879744Y-106582795D01*
X148710226Y-106696063D01*
X148566063Y-106840226D01*
X148452795Y-107009744D01*
X148374774Y-107198102D01*
X148335000Y-107398061D01*
X143888072Y-107398061D01*
X143888072Y-106770000D01*
X143875812Y-106645518D01*
X143839502Y-106525820D01*
X143780537Y-106415506D01*
X143701185Y-106318815D01*
X143604494Y-106239463D01*
X143494180Y-106180498D01*
X143421620Y-106158487D01*
X143553475Y-106026632D01*
X143715990Y-105783411D01*
X143827932Y-105513158D01*
X143885000Y-105226260D01*
X143885000Y-105078061D01*
X153885000Y-105078061D01*
X153885000Y-105281939D01*
X153924774Y-105481898D01*
X154002795Y-105670256D01*
X154116063Y-105839774D01*
X154260226Y-105983937D01*
X154429744Y-106097205D01*
X154618102Y-106175226D01*
X154818061Y-106215000D01*
X155021939Y-106215000D01*
X155221898Y-106175226D01*
X155410256Y-106097205D01*
X155579774Y-105983937D01*
X155723937Y-105839774D01*
X155837205Y-105670256D01*
X155915226Y-105481898D01*
X155955000Y-105281939D01*
X155955000Y-105078061D01*
X155915226Y-104878102D01*
X155883092Y-104800524D01*
X165710000Y-104800524D01*
X165710000Y-104999476D01*
X165748814Y-105194606D01*
X165824950Y-105378414D01*
X165935482Y-105543837D01*
X166076163Y-105684518D01*
X166241586Y-105795050D01*
X166425394Y-105871186D01*
X166620524Y-105910000D01*
X166819476Y-105910000D01*
X167014606Y-105871186D01*
X167198414Y-105795050D01*
X167363837Y-105684518D01*
X167504518Y-105543837D01*
X167595521Y-105407641D01*
X167697501Y-105438577D01*
X167864248Y-105455000D01*
X168581546Y-105455000D01*
X168460226Y-105536063D01*
X168316063Y-105680226D01*
X168202795Y-105849744D01*
X168124774Y-106038102D01*
X168085000Y-106238061D01*
X168085000Y-106441939D01*
X168124774Y-106641898D01*
X168202795Y-106830256D01*
X168316063Y-106999774D01*
X168460226Y-107143937D01*
X168629744Y-107257205D01*
X168818102Y-107335226D01*
X169018061Y-107375000D01*
X169221939Y-107375000D01*
X169421898Y-107335226D01*
X169610256Y-107257205D01*
X169779774Y-107143937D01*
X169923937Y-106999774D01*
X170037205Y-106830256D01*
X170115226Y-106641898D01*
X170155000Y-106441939D01*
X170155000Y-106238061D01*
X170115226Y-106038102D01*
X170037205Y-105849744D01*
X169923937Y-105680226D01*
X169779774Y-105536063D01*
X169610256Y-105422795D01*
X169471827Y-105365455D01*
X169653623Y-105268284D01*
X169826449Y-105126449D01*
X169968284Y-104953623D01*
X170073676Y-104756447D01*
X170138577Y-104542499D01*
X170160491Y-104320000D01*
X171209509Y-104320000D01*
X171231423Y-104542499D01*
X171296324Y-104756447D01*
X171401716Y-104953623D01*
X171543551Y-105126449D01*
X171716377Y-105268284D01*
X171913553Y-105373676D01*
X172127501Y-105438577D01*
X172294248Y-105455000D01*
X173005752Y-105455000D01*
X173172499Y-105438577D01*
X173386447Y-105373676D01*
X173583623Y-105268284D01*
X173756449Y-105126449D01*
X173898284Y-104953623D01*
X174003676Y-104756447D01*
X174068577Y-104542499D01*
X174090491Y-104320000D01*
X174068577Y-104097501D01*
X174003676Y-103883553D01*
X173898284Y-103686377D01*
X173756449Y-103513551D01*
X173583623Y-103371716D01*
X173386447Y-103266324D01*
X173172499Y-103201423D01*
X173005752Y-103185000D01*
X172294248Y-103185000D01*
X172127501Y-103201423D01*
X171913553Y-103266324D01*
X171716377Y-103371716D01*
X171543551Y-103513551D01*
X171401716Y-103686377D01*
X171296324Y-103883553D01*
X171231423Y-104097501D01*
X171209509Y-104320000D01*
X170160491Y-104320000D01*
X170138577Y-104097501D01*
X170073676Y-103883553D01*
X169968284Y-103686377D01*
X169826449Y-103513551D01*
X169769285Y-103466638D01*
X169850741Y-103344731D01*
X169923108Y-103170022D01*
X169960000Y-102984552D01*
X169960000Y-102795448D01*
X169923108Y-102609978D01*
X169850741Y-102435269D01*
X169745681Y-102278036D01*
X169611964Y-102144319D01*
X169454731Y-102039259D01*
X169280022Y-101966892D01*
X169094552Y-101930000D01*
X168905448Y-101930000D01*
X168719978Y-101966892D01*
X168545269Y-102039259D01*
X168388036Y-102144319D01*
X168254319Y-102278036D01*
X168149259Y-102435269D01*
X168076892Y-102609978D01*
X168040000Y-102795448D01*
X168040000Y-102984552D01*
X168076892Y-103170022D01*
X168083096Y-103185000D01*
X167864248Y-103185000D01*
X167697501Y-103201423D01*
X167483553Y-103266324D01*
X167406819Y-103307339D01*
X167328414Y-103254950D01*
X167144606Y-103178814D01*
X166949476Y-103140000D01*
X166750524Y-103140000D01*
X166555394Y-103178814D01*
X166371586Y-103254950D01*
X166206163Y-103365482D01*
X166065482Y-103506163D01*
X165954950Y-103671586D01*
X165878814Y-103855394D01*
X165840000Y-104050524D01*
X165840000Y-104249476D01*
X165862929Y-104364747D01*
X165824950Y-104421586D01*
X165748814Y-104605394D01*
X165710000Y-104800524D01*
X155883092Y-104800524D01*
X155837205Y-104689744D01*
X155723937Y-104520226D01*
X155579774Y-104376063D01*
X155410256Y-104262795D01*
X155221898Y-104184774D01*
X155021939Y-104145000D01*
X154818061Y-104145000D01*
X154618102Y-104184774D01*
X154429744Y-104262795D01*
X154260226Y-104376063D01*
X154116063Y-104520226D01*
X154002795Y-104689744D01*
X153924774Y-104878102D01*
X153885000Y-105078061D01*
X143885000Y-105078061D01*
X143885000Y-104933740D01*
X143827932Y-104646842D01*
X143715990Y-104376589D01*
X143553475Y-104133368D01*
X143346632Y-103926525D01*
X143172240Y-103810000D01*
X143346632Y-103693475D01*
X143553475Y-103486632D01*
X143715990Y-103243411D01*
X143827932Y-102973158D01*
X143885000Y-102686260D01*
X143885000Y-102393740D01*
X143827932Y-102106842D01*
X143715990Y-101836589D01*
X143553475Y-101593368D01*
X143346632Y-101386525D01*
X143172240Y-101270000D01*
X143266579Y-101206965D01*
X143292795Y-101270256D01*
X143406063Y-101439774D01*
X143550226Y-101583937D01*
X143719744Y-101697205D01*
X143908102Y-101775226D01*
X144108061Y-101815000D01*
X144311939Y-101815000D01*
X144511898Y-101775226D01*
X144700256Y-101697205D01*
X144743873Y-101668061D01*
X154155000Y-101668061D01*
X154155000Y-101871939D01*
X154194774Y-102071898D01*
X154272795Y-102260256D01*
X154386063Y-102429774D01*
X154530226Y-102573937D01*
X154699744Y-102687205D01*
X154888102Y-102765226D01*
X155088061Y-102805000D01*
X155291939Y-102805000D01*
X155491898Y-102765226D01*
X155680256Y-102687205D01*
X155849774Y-102573937D01*
X155993937Y-102429774D01*
X156107205Y-102260256D01*
X156185226Y-102071898D01*
X156225000Y-101871939D01*
X156225000Y-101668061D01*
X156185226Y-101468102D01*
X156107205Y-101279744D01*
X155993937Y-101110226D01*
X155849774Y-100966063D01*
X155680256Y-100852795D01*
X155491898Y-100774774D01*
X155291939Y-100735000D01*
X155088061Y-100735000D01*
X154888102Y-100774774D01*
X154699744Y-100852795D01*
X154530226Y-100966063D01*
X154386063Y-101110226D01*
X154272795Y-101279744D01*
X154194774Y-101468102D01*
X154155000Y-101668061D01*
X144743873Y-101668061D01*
X144869774Y-101583937D01*
X145013937Y-101439774D01*
X145127205Y-101270256D01*
X145205226Y-101081898D01*
X145245000Y-100881939D01*
X145245000Y-100678061D01*
X145205226Y-100478102D01*
X145127205Y-100289744D01*
X145013937Y-100120226D01*
X144945000Y-100051289D01*
X144945000Y-99898061D01*
X148335000Y-99898061D01*
X148335000Y-100101939D01*
X148374774Y-100301898D01*
X148452795Y-100490256D01*
X148566063Y-100659774D01*
X148710226Y-100803937D01*
X148879744Y-100917205D01*
X149068102Y-100995226D01*
X149268061Y-101035000D01*
X149471939Y-101035000D01*
X149671898Y-100995226D01*
X149860256Y-100917205D01*
X150029774Y-100803937D01*
X150173937Y-100659774D01*
X150287205Y-100490256D01*
X150365226Y-100301898D01*
X150405000Y-100101939D01*
X150405000Y-99898061D01*
X150365226Y-99698102D01*
X150287205Y-99509744D01*
X150173937Y-99340226D01*
X150029774Y-99196063D01*
X149860256Y-99082795D01*
X149671898Y-99004774D01*
X149471939Y-98965000D01*
X149268061Y-98965000D01*
X149068102Y-99004774D01*
X148879744Y-99082795D01*
X148710226Y-99196063D01*
X148566063Y-99340226D01*
X148452795Y-99509744D01*
X148374774Y-99698102D01*
X148335000Y-99898061D01*
X144945000Y-99898061D01*
X144945000Y-99624382D01*
X144950256Y-99622205D01*
X145119774Y-99508937D01*
X145263937Y-99364774D01*
X145377205Y-99195256D01*
X145455226Y-99006898D01*
X145495000Y-98806939D01*
X145495000Y-98603061D01*
X145455226Y-98403102D01*
X145377205Y-98214744D01*
X145263937Y-98045226D01*
X145119774Y-97901063D01*
X144950256Y-97787795D01*
X144761898Y-97709774D01*
X144561939Y-97670000D01*
X144358061Y-97670000D01*
X144158102Y-97709774D01*
X143969744Y-97787795D01*
X143830365Y-97880925D01*
X143885000Y-97606260D01*
X143885000Y-97408061D01*
X148325000Y-97408061D01*
X148325000Y-97611939D01*
X148364774Y-97811898D01*
X148442795Y-98000256D01*
X148556063Y-98169774D01*
X148700226Y-98313937D01*
X148869744Y-98427205D01*
X149058102Y-98505226D01*
X149258061Y-98545000D01*
X149461939Y-98545000D01*
X149661898Y-98505226D01*
X149850256Y-98427205D01*
X150019774Y-98313937D01*
X150163937Y-98169774D01*
X150277205Y-98000256D01*
X150355226Y-97811898D01*
X150395000Y-97611939D01*
X150395000Y-97408061D01*
X150355226Y-97208102D01*
X150277205Y-97019744D01*
X150163937Y-96850226D01*
X150019774Y-96706063D01*
X149850256Y-96592795D01*
X149661898Y-96514774D01*
X149461939Y-96475000D01*
X149258061Y-96475000D01*
X149058102Y-96514774D01*
X148869744Y-96592795D01*
X148700226Y-96706063D01*
X148556063Y-96850226D01*
X148442795Y-97019744D01*
X148364774Y-97208102D01*
X148325000Y-97408061D01*
X143885000Y-97408061D01*
X143885000Y-97313740D01*
X143827932Y-97026842D01*
X143715990Y-96756589D01*
X143553475Y-96513368D01*
X143346632Y-96306525D01*
X143172240Y-96190000D01*
X143346632Y-96073475D01*
X143457923Y-95962184D01*
X143474774Y-96046898D01*
X143552795Y-96235256D01*
X143666063Y-96404774D01*
X143810226Y-96548937D01*
X143979744Y-96662205D01*
X144168102Y-96740226D01*
X144368061Y-96780000D01*
X144571939Y-96780000D01*
X144771898Y-96740226D01*
X144960256Y-96662205D01*
X145129774Y-96548937D01*
X145273937Y-96404774D01*
X145387205Y-96235256D01*
X145465226Y-96046898D01*
X145505000Y-95846939D01*
X145505000Y-95643061D01*
X145465226Y-95443102D01*
X145387205Y-95254744D01*
X145273937Y-95085226D01*
X145129774Y-94941063D01*
X144960256Y-94827795D01*
X144771898Y-94749774D01*
X144571939Y-94710000D01*
X144368061Y-94710000D01*
X144168102Y-94749774D01*
X143979744Y-94827795D01*
X143885000Y-94891101D01*
X143885000Y-94773740D01*
X143827932Y-94486842D01*
X143715990Y-94216589D01*
X143553475Y-93973368D01*
X143346632Y-93766525D01*
X143172240Y-93650000D01*
X143346632Y-93533475D01*
X143553475Y-93326632D01*
X143715990Y-93083411D01*
X143827932Y-92813158D01*
X143885000Y-92526260D01*
X143885000Y-92233740D01*
X143867831Y-92147427D01*
X143979744Y-92222205D01*
X144168102Y-92300226D01*
X144368061Y-92340000D01*
X144571939Y-92340000D01*
X144771898Y-92300226D01*
X144960256Y-92222205D01*
X145129774Y-92108937D01*
X145273937Y-91964774D01*
X145285104Y-91948061D01*
X148145000Y-91948061D01*
X148145000Y-92151939D01*
X148184774Y-92351898D01*
X148262795Y-92540256D01*
X148376063Y-92709774D01*
X148520226Y-92853937D01*
X148689744Y-92967205D01*
X148878102Y-93045226D01*
X149078061Y-93085000D01*
X149281939Y-93085000D01*
X149481898Y-93045226D01*
X149670256Y-92967205D01*
X149839774Y-92853937D01*
X149983937Y-92709774D01*
X150097205Y-92540256D01*
X150175226Y-92351898D01*
X150215000Y-92151939D01*
X150215000Y-91948061D01*
X150175226Y-91748102D01*
X150097205Y-91559744D01*
X149983937Y-91390226D01*
X149839774Y-91246063D01*
X149670256Y-91132795D01*
X149481898Y-91054774D01*
X149281939Y-91015000D01*
X149078061Y-91015000D01*
X148878102Y-91054774D01*
X148689744Y-91132795D01*
X148520226Y-91246063D01*
X148376063Y-91390226D01*
X148262795Y-91559744D01*
X148184774Y-91748102D01*
X148145000Y-91948061D01*
X145285104Y-91948061D01*
X145387205Y-91795256D01*
X145465226Y-91606898D01*
X145505000Y-91406939D01*
X145505000Y-91203061D01*
X145465226Y-91003102D01*
X145387205Y-90814744D01*
X145283809Y-90660000D01*
X150020556Y-90660000D01*
X150004774Y-90698102D01*
G37*
%TD.AperFunction*%
%TD*%
D22*
%TO.N,GND*%
X142123000Y-90921006D02*
X141966842Y-90952068D01*
X141696589Y-91064010D01*
X141453368Y-91226525D01*
X141246525Y-91433368D01*
X141084010Y-91676589D01*
X140972068Y-91946842D01*
X140915000Y-92233740D01*
X140915000Y-92526260D01*
X140972068Y-92813158D01*
X141084010Y-93083411D01*
X141246525Y-93326632D01*
X141453368Y-93533475D01*
X141627760Y-93650000D01*
X141453368Y-93766525D01*
X141246525Y-93973368D01*
X141084010Y-94216589D01*
X140972068Y-94486842D01*
X140915000Y-94773740D01*
X140915000Y-95066260D01*
X140972068Y-95353158D01*
X141084010Y-95623411D01*
X141246525Y-95866632D01*
X141453368Y-96073475D01*
X141627760Y-96190000D01*
X141453368Y-96306525D01*
X141246525Y-96513368D01*
X141084010Y-96756589D01*
X140972068Y-97026842D01*
X140915000Y-97313740D01*
X140915000Y-97606260D01*
X140972068Y-97893158D01*
X141084010Y-98163411D01*
X141246525Y-98406632D01*
X141453368Y-98613475D01*
X141627760Y-98730000D01*
X141453368Y-98846525D01*
X141246525Y-99053368D01*
X141084010Y-99296589D01*
X140972068Y-99566842D01*
X140915000Y-99853740D01*
X140915000Y-100146260D01*
X140972068Y-100433158D01*
X141084010Y-100703411D01*
X141246525Y-100946632D01*
X141453368Y-101153475D01*
X141627760Y-101270000D01*
X141453368Y-101386525D01*
X141246525Y-101593368D01*
X141084010Y-101836589D01*
X140972068Y-102106842D01*
X140915000Y-102393740D01*
X140915000Y-102686260D01*
X140972068Y-102973158D01*
X141084010Y-103243411D01*
X141246525Y-103486632D01*
X141453368Y-103693475D01*
X141627760Y-103810000D01*
X141453368Y-103926525D01*
X141246525Y-104133368D01*
X141084010Y-104376589D01*
X140972068Y-104646842D01*
X140915000Y-104933740D01*
X140915000Y-105226260D01*
X140972068Y-105513158D01*
X141084010Y-105783411D01*
X141246525Y-106026632D01*
X141378380Y-106158487D01*
X141305820Y-106180498D01*
X141195506Y-106239463D01*
X141098815Y-106318815D01*
X141019463Y-106415506D01*
X140960498Y-106525820D01*
X140924188Y-106645518D01*
X140911928Y-106770000D01*
X140915000Y-107334250D01*
X141073750Y-107493000D01*
X142123000Y-107493000D01*
X142123000Y-107747000D01*
X141073750Y-107747000D01*
X140915000Y-107905750D01*
X140911928Y-108470000D01*
X140924188Y-108594482D01*
X140960498Y-108714180D01*
X141019463Y-108824494D01*
X141098815Y-108921185D01*
X141195506Y-109000537D01*
X141305820Y-109059502D01*
X141425518Y-109095812D01*
X141550000Y-109108072D01*
X142114250Y-109105000D01*
X142123000Y-109096250D01*
X142123000Y-109340000D01*
X125660000Y-109340000D01*
X125660000Y-106717760D01*
X129165000Y-106717760D01*
X129165000Y-106882240D01*
X129197089Y-107043560D01*
X129260033Y-107195521D01*
X129351413Y-107332281D01*
X129467719Y-107448587D01*
X129604479Y-107539967D01*
X129756440Y-107602911D01*
X129917760Y-107635000D01*
X130082240Y-107635000D01*
X130243560Y-107602911D01*
X130395521Y-107539967D01*
X130500000Y-107470156D01*
X130604479Y-107539967D01*
X130756440Y-107602911D01*
X130917760Y-107635000D01*
X131082240Y-107635000D01*
X131243560Y-107602911D01*
X131395521Y-107539967D01*
X131532281Y-107448587D01*
X131648587Y-107332281D01*
X131739967Y-107195521D01*
X131802911Y-107043560D01*
X131835000Y-106882240D01*
X131835000Y-106717760D01*
X132165000Y-106717760D01*
X132165000Y-106882240D01*
X132197089Y-107043560D01*
X132260033Y-107195521D01*
X132351413Y-107332281D01*
X132467719Y-107448587D01*
X132604479Y-107539967D01*
X132756440Y-107602911D01*
X132917760Y-107635000D01*
X133082240Y-107635000D01*
X133243560Y-107602911D01*
X133395521Y-107539967D01*
X133500000Y-107470156D01*
X133604479Y-107539967D01*
X133756440Y-107602911D01*
X133917760Y-107635000D01*
X134082240Y-107635000D01*
X134243560Y-107602911D01*
X134395521Y-107539967D01*
X134500000Y-107470156D01*
X134604479Y-107539967D01*
X134756440Y-107602911D01*
X134917760Y-107635000D01*
X135082240Y-107635000D01*
X135243560Y-107602911D01*
X135395521Y-107539967D01*
X135500000Y-107470156D01*
X135604479Y-107539967D01*
X135756440Y-107602911D01*
X135917760Y-107635000D01*
X136082240Y-107635000D01*
X136243560Y-107602911D01*
X136395521Y-107539967D01*
X136500000Y-107470156D01*
X136604479Y-107539967D01*
X136756440Y-107602911D01*
X136917760Y-107635000D01*
X137082240Y-107635000D01*
X137243560Y-107602911D01*
X137395521Y-107539967D01*
X137532281Y-107448587D01*
X137648587Y-107332281D01*
X137739967Y-107195521D01*
X137785528Y-107085528D01*
X137895521Y-107039967D01*
X138032281Y-106948587D01*
X138148587Y-106832281D01*
X138239967Y-106695521D01*
X138302911Y-106543560D01*
X138335000Y-106382240D01*
X138335000Y-106217760D01*
X138302911Y-106056440D01*
X138239967Y-105904479D01*
X138148587Y-105767719D01*
X138032281Y-105651413D01*
X137895521Y-105560033D01*
X137743560Y-105497089D01*
X137582240Y-105465000D01*
X137417760Y-105465000D01*
X137256440Y-105497089D01*
X137104479Y-105560033D01*
X136967719Y-105651413D01*
X136851413Y-105767719D01*
X136760033Y-105904479D01*
X136714472Y-106014472D01*
X136604479Y-106060033D01*
X136500000Y-106129844D01*
X136395521Y-106060033D01*
X136285528Y-106014472D01*
X136239967Y-105904479D01*
X136148587Y-105767719D01*
X136032281Y-105651413D01*
X135895521Y-105560033D01*
X135743560Y-105497089D01*
X135582240Y-105465000D01*
X135417760Y-105465000D01*
X135256440Y-105497089D01*
X135104479Y-105560033D01*
X135000000Y-105629844D01*
X134895521Y-105560033D01*
X134743560Y-105497089D01*
X134582240Y-105465000D01*
X134417760Y-105465000D01*
X134256440Y-105497089D01*
X134104479Y-105560033D01*
X133967719Y-105651413D01*
X133851413Y-105767719D01*
X133760033Y-105904479D01*
X133714472Y-106014472D01*
X133604479Y-106060033D01*
X133500000Y-106129844D01*
X133395521Y-106060033D01*
X133243560Y-105997089D01*
X133082240Y-105965000D01*
X132917760Y-105965000D01*
X132756440Y-105997089D01*
X132604479Y-106060033D01*
X132467719Y-106151413D01*
X132351413Y-106267719D01*
X132260033Y-106404479D01*
X132197089Y-106556440D01*
X132165000Y-106717760D01*
X131835000Y-106717760D01*
X131802911Y-106556440D01*
X131739967Y-106404479D01*
X131648587Y-106267719D01*
X131532281Y-106151413D01*
X131395521Y-106060033D01*
X131243560Y-105997089D01*
X131082240Y-105965000D01*
X130917760Y-105965000D01*
X130756440Y-105997089D01*
X130604479Y-106060033D01*
X130500000Y-106129844D01*
X130395521Y-106060033D01*
X130243560Y-105997089D01*
X130082240Y-105965000D01*
X129917760Y-105965000D01*
X129756440Y-105997089D01*
X129604479Y-106060033D01*
X129467719Y-106151413D01*
X129351413Y-106267719D01*
X129260033Y-106404479D01*
X129197089Y-106556440D01*
X129165000Y-106717760D01*
X125660000Y-106717760D01*
X125660000Y-93617760D01*
X127665000Y-93617760D01*
X127665000Y-93782240D01*
X127697089Y-93943560D01*
X127760033Y-94095521D01*
X127851413Y-94232281D01*
X127967719Y-94348587D01*
X128104479Y-94439967D01*
X128256440Y-94502911D01*
X128417760Y-94535000D01*
X128582240Y-94535000D01*
X128743560Y-94502911D01*
X128895521Y-94439967D01*
X129000000Y-94370156D01*
X129104479Y-94439967D01*
X129256440Y-94502911D01*
X129417760Y-94535000D01*
X129582240Y-94535000D01*
X129743560Y-94502911D01*
X129895521Y-94439967D01*
X130032281Y-94348587D01*
X130148587Y-94232281D01*
X130239967Y-94095521D01*
X130302911Y-93943560D01*
X130335000Y-93782240D01*
X130335000Y-93617760D01*
X130302911Y-93456440D01*
X130239967Y-93304479D01*
X130182024Y-93217760D01*
X130665000Y-93217760D01*
X130665000Y-93382240D01*
X130697089Y-93543560D01*
X130760033Y-93695521D01*
X130851413Y-93832281D01*
X130967719Y-93948587D01*
X131104479Y-94039967D01*
X131256440Y-94102911D01*
X131417760Y-94135000D01*
X131582240Y-94135000D01*
X131743560Y-94102911D01*
X131895521Y-94039967D01*
X132000000Y-93970156D01*
X132104479Y-94039967D01*
X132256440Y-94102911D01*
X132417760Y-94135000D01*
X132582240Y-94135000D01*
X132743560Y-94102911D01*
X132895521Y-94039967D01*
X133032281Y-93948587D01*
X133148587Y-93832281D01*
X133239967Y-93695521D01*
X133302911Y-93543560D01*
X133335000Y-93382240D01*
X133335000Y-93217760D01*
X133315109Y-93117760D01*
X133665000Y-93117760D01*
X133665000Y-93282240D01*
X133697089Y-93443560D01*
X133760033Y-93595521D01*
X133851413Y-93732281D01*
X133967719Y-93848587D01*
X134104479Y-93939967D01*
X134214472Y-93985528D01*
X134260033Y-94095521D01*
X134351413Y-94232281D01*
X134467719Y-94348587D01*
X134604479Y-94439967D01*
X134756440Y-94502911D01*
X134917760Y-94535000D01*
X135082240Y-94535000D01*
X135243560Y-94502911D01*
X135395521Y-94439967D01*
X135500000Y-94370156D01*
X135604479Y-94439967D01*
X135756440Y-94502911D01*
X135917760Y-94535000D01*
X136082240Y-94535000D01*
X136243560Y-94502911D01*
X136395521Y-94439967D01*
X136500000Y-94370156D01*
X136604479Y-94439967D01*
X136756440Y-94502911D01*
X136917760Y-94535000D01*
X137082240Y-94535000D01*
X137243560Y-94502911D01*
X137395521Y-94439967D01*
X137532281Y-94348587D01*
X137648587Y-94232281D01*
X137739967Y-94095521D01*
X137785528Y-93985528D01*
X137895521Y-93939967D01*
X138032281Y-93848587D01*
X138148587Y-93732281D01*
X138239967Y-93595521D01*
X138302911Y-93443560D01*
X138335000Y-93282240D01*
X138335000Y-93117760D01*
X138302911Y-92956440D01*
X138239967Y-92804479D01*
X138148587Y-92667719D01*
X138032281Y-92551413D01*
X137895521Y-92460033D01*
X137743560Y-92397089D01*
X137582240Y-92365000D01*
X137417760Y-92365000D01*
X137256440Y-92397089D01*
X137104479Y-92460033D01*
X136967719Y-92551413D01*
X136851413Y-92667719D01*
X136760033Y-92804479D01*
X136714472Y-92914472D01*
X136604479Y-92960033D01*
X136500000Y-93029844D01*
X136395521Y-92960033D01*
X136285528Y-92914472D01*
X136239967Y-92804479D01*
X136148587Y-92667719D01*
X136032281Y-92551413D01*
X135895521Y-92460033D01*
X135743560Y-92397089D01*
X135582240Y-92365000D01*
X135417760Y-92365000D01*
X135256440Y-92397089D01*
X135104479Y-92460033D01*
X135000000Y-92529844D01*
X134895521Y-92460033D01*
X134743560Y-92397089D01*
X134582240Y-92365000D01*
X134417760Y-92365000D01*
X134256440Y-92397089D01*
X134104479Y-92460033D01*
X133967719Y-92551413D01*
X133851413Y-92667719D01*
X133760033Y-92804479D01*
X133697089Y-92956440D01*
X133665000Y-93117760D01*
X133315109Y-93117760D01*
X133302911Y-93056440D01*
X133239967Y-92904479D01*
X133148587Y-92767719D01*
X133032281Y-92651413D01*
X132895521Y-92560033D01*
X132743560Y-92497089D01*
X132582240Y-92465000D01*
X132417760Y-92465000D01*
X132256440Y-92497089D01*
X132104479Y-92560033D01*
X132000000Y-92629844D01*
X131895521Y-92560033D01*
X131743560Y-92497089D01*
X131582240Y-92465000D01*
X131417760Y-92465000D01*
X131256440Y-92497089D01*
X131104479Y-92560033D01*
X130967719Y-92651413D01*
X130851413Y-92767719D01*
X130760033Y-92904479D01*
X130697089Y-93056440D01*
X130665000Y-93217760D01*
X130182024Y-93217760D01*
X130148587Y-93167719D01*
X130032281Y-93051413D01*
X129895521Y-92960033D01*
X129743560Y-92897089D01*
X129582240Y-92865000D01*
X129417760Y-92865000D01*
X129256440Y-92897089D01*
X129104479Y-92960033D01*
X129000000Y-93029844D01*
X128895521Y-92960033D01*
X128743560Y-92897089D01*
X128582240Y-92865000D01*
X128417760Y-92865000D01*
X128256440Y-92897089D01*
X128104479Y-92960033D01*
X127967719Y-93051413D01*
X127851413Y-93167719D01*
X127760033Y-93304479D01*
X127697089Y-93456440D01*
X127665000Y-93617760D01*
X125660000Y-93617760D01*
X125660000Y-90660000D01*
X142123000Y-90660000D01*
X142123000Y-90921006D01*
%TA.AperFunction,Conductor*%
D23*
G36*
X142123000Y-90921006D02*
G01*
X141966842Y-90952068D01*
X141696589Y-91064010D01*
X141453368Y-91226525D01*
X141246525Y-91433368D01*
X141084010Y-91676589D01*
X140972068Y-91946842D01*
X140915000Y-92233740D01*
X140915000Y-92526260D01*
X140972068Y-92813158D01*
X141084010Y-93083411D01*
X141246525Y-93326632D01*
X141453368Y-93533475D01*
X141627760Y-93650000D01*
X141453368Y-93766525D01*
X141246525Y-93973368D01*
X141084010Y-94216589D01*
X140972068Y-94486842D01*
X140915000Y-94773740D01*
X140915000Y-95066260D01*
X140972068Y-95353158D01*
X141084010Y-95623411D01*
X141246525Y-95866632D01*
X141453368Y-96073475D01*
X141627760Y-96190000D01*
X141453368Y-96306525D01*
X141246525Y-96513368D01*
X141084010Y-96756589D01*
X140972068Y-97026842D01*
X140915000Y-97313740D01*
X140915000Y-97606260D01*
X140972068Y-97893158D01*
X141084010Y-98163411D01*
X141246525Y-98406632D01*
X141453368Y-98613475D01*
X141627760Y-98730000D01*
X141453368Y-98846525D01*
X141246525Y-99053368D01*
X141084010Y-99296589D01*
X140972068Y-99566842D01*
X140915000Y-99853740D01*
X140915000Y-100146260D01*
X140972068Y-100433158D01*
X141084010Y-100703411D01*
X141246525Y-100946632D01*
X141453368Y-101153475D01*
X141627760Y-101270000D01*
X141453368Y-101386525D01*
X141246525Y-101593368D01*
X141084010Y-101836589D01*
X140972068Y-102106842D01*
X140915000Y-102393740D01*
X140915000Y-102686260D01*
X140972068Y-102973158D01*
X141084010Y-103243411D01*
X141246525Y-103486632D01*
X141453368Y-103693475D01*
X141627760Y-103810000D01*
X141453368Y-103926525D01*
X141246525Y-104133368D01*
X141084010Y-104376589D01*
X140972068Y-104646842D01*
X140915000Y-104933740D01*
X140915000Y-105226260D01*
X140972068Y-105513158D01*
X141084010Y-105783411D01*
X141246525Y-106026632D01*
X141378380Y-106158487D01*
X141305820Y-106180498D01*
X141195506Y-106239463D01*
X141098815Y-106318815D01*
X141019463Y-106415506D01*
X140960498Y-106525820D01*
X140924188Y-106645518D01*
X140911928Y-106770000D01*
X140915000Y-107334250D01*
X141073750Y-107493000D01*
X142123000Y-107493000D01*
X142123000Y-107747000D01*
X141073750Y-107747000D01*
X140915000Y-107905750D01*
X140911928Y-108470000D01*
X140924188Y-108594482D01*
X140960498Y-108714180D01*
X141019463Y-108824494D01*
X141098815Y-108921185D01*
X141195506Y-109000537D01*
X141305820Y-109059502D01*
X141425518Y-109095812D01*
X141550000Y-109108072D01*
X142114250Y-109105000D01*
X142123000Y-109096250D01*
X142123000Y-109340000D01*
X125660000Y-109340000D01*
X125660000Y-106717760D01*
X129165000Y-106717760D01*
X129165000Y-106882240D01*
X129197089Y-107043560D01*
X129260033Y-107195521D01*
X129351413Y-107332281D01*
X129467719Y-107448587D01*
X129604479Y-107539967D01*
X129756440Y-107602911D01*
X129917760Y-107635000D01*
X130082240Y-107635000D01*
X130243560Y-107602911D01*
X130395521Y-107539967D01*
X130500000Y-107470156D01*
X130604479Y-107539967D01*
X130756440Y-107602911D01*
X130917760Y-107635000D01*
X131082240Y-107635000D01*
X131243560Y-107602911D01*
X131395521Y-107539967D01*
X131532281Y-107448587D01*
X131648587Y-107332281D01*
X131739967Y-107195521D01*
X131802911Y-107043560D01*
X131835000Y-106882240D01*
X131835000Y-106717760D01*
X132165000Y-106717760D01*
X132165000Y-106882240D01*
X132197089Y-107043560D01*
X132260033Y-107195521D01*
X132351413Y-107332281D01*
X132467719Y-107448587D01*
X132604479Y-107539967D01*
X132756440Y-107602911D01*
X132917760Y-107635000D01*
X133082240Y-107635000D01*
X133243560Y-107602911D01*
X133395521Y-107539967D01*
X133500000Y-107470156D01*
X133604479Y-107539967D01*
X133756440Y-107602911D01*
X133917760Y-107635000D01*
X134082240Y-107635000D01*
X134243560Y-107602911D01*
X134395521Y-107539967D01*
X134500000Y-107470156D01*
X134604479Y-107539967D01*
X134756440Y-107602911D01*
X134917760Y-107635000D01*
X135082240Y-107635000D01*
X135243560Y-107602911D01*
X135395521Y-107539967D01*
X135500000Y-107470156D01*
X135604479Y-107539967D01*
X135756440Y-107602911D01*
X135917760Y-107635000D01*
X136082240Y-107635000D01*
X136243560Y-107602911D01*
X136395521Y-107539967D01*
X136500000Y-107470156D01*
X136604479Y-107539967D01*
X136756440Y-107602911D01*
X136917760Y-107635000D01*
X137082240Y-107635000D01*
X137243560Y-107602911D01*
X137395521Y-107539967D01*
X137532281Y-107448587D01*
X137648587Y-107332281D01*
X137739967Y-107195521D01*
X137785528Y-107085528D01*
X137895521Y-107039967D01*
X138032281Y-106948587D01*
X138148587Y-106832281D01*
X138239967Y-106695521D01*
X138302911Y-106543560D01*
X138335000Y-106382240D01*
X138335000Y-106217760D01*
X138302911Y-106056440D01*
X138239967Y-105904479D01*
X138148587Y-105767719D01*
X138032281Y-105651413D01*
X137895521Y-105560033D01*
X137743560Y-105497089D01*
X137582240Y-105465000D01*
X137417760Y-105465000D01*
X137256440Y-105497089D01*
X137104479Y-105560033D01*
X136967719Y-105651413D01*
X136851413Y-105767719D01*
X136760033Y-105904479D01*
X136714472Y-106014472D01*
X136604479Y-106060033D01*
X136500000Y-106129844D01*
X136395521Y-106060033D01*
X136285528Y-106014472D01*
X136239967Y-105904479D01*
X136148587Y-105767719D01*
X136032281Y-105651413D01*
X135895521Y-105560033D01*
X135743560Y-105497089D01*
X135582240Y-105465000D01*
X135417760Y-105465000D01*
X135256440Y-105497089D01*
X135104479Y-105560033D01*
X135000000Y-105629844D01*
X134895521Y-105560033D01*
X134743560Y-105497089D01*
X134582240Y-105465000D01*
X134417760Y-105465000D01*
X134256440Y-105497089D01*
X134104479Y-105560033D01*
X133967719Y-105651413D01*
X133851413Y-105767719D01*
X133760033Y-105904479D01*
X133714472Y-106014472D01*
X133604479Y-106060033D01*
X133500000Y-106129844D01*
X133395521Y-106060033D01*
X133243560Y-105997089D01*
X133082240Y-105965000D01*
X132917760Y-105965000D01*
X132756440Y-105997089D01*
X132604479Y-106060033D01*
X132467719Y-106151413D01*
X132351413Y-106267719D01*
X132260033Y-106404479D01*
X132197089Y-106556440D01*
X132165000Y-106717760D01*
X131835000Y-106717760D01*
X131802911Y-106556440D01*
X131739967Y-106404479D01*
X131648587Y-106267719D01*
X131532281Y-106151413D01*
X131395521Y-106060033D01*
X131243560Y-105997089D01*
X131082240Y-105965000D01*
X130917760Y-105965000D01*
X130756440Y-105997089D01*
X130604479Y-106060033D01*
X130500000Y-106129844D01*
X130395521Y-106060033D01*
X130243560Y-105997089D01*
X130082240Y-105965000D01*
X129917760Y-105965000D01*
X129756440Y-105997089D01*
X129604479Y-106060033D01*
X129467719Y-106151413D01*
X129351413Y-106267719D01*
X129260033Y-106404479D01*
X129197089Y-106556440D01*
X129165000Y-106717760D01*
X125660000Y-106717760D01*
X125660000Y-93617760D01*
X127665000Y-93617760D01*
X127665000Y-93782240D01*
X127697089Y-93943560D01*
X127760033Y-94095521D01*
X127851413Y-94232281D01*
X127967719Y-94348587D01*
X128104479Y-94439967D01*
X128256440Y-94502911D01*
X128417760Y-94535000D01*
X128582240Y-94535000D01*
X128743560Y-94502911D01*
X128895521Y-94439967D01*
X129000000Y-94370156D01*
X129104479Y-94439967D01*
X129256440Y-94502911D01*
X129417760Y-94535000D01*
X129582240Y-94535000D01*
X129743560Y-94502911D01*
X129895521Y-94439967D01*
X130032281Y-94348587D01*
X130148587Y-94232281D01*
X130239967Y-94095521D01*
X130302911Y-93943560D01*
X130335000Y-93782240D01*
X130335000Y-93617760D01*
X130302911Y-93456440D01*
X130239967Y-93304479D01*
X130182024Y-93217760D01*
X130665000Y-93217760D01*
X130665000Y-93382240D01*
X130697089Y-93543560D01*
X130760033Y-93695521D01*
X130851413Y-93832281D01*
X130967719Y-93948587D01*
X131104479Y-94039967D01*
X131256440Y-94102911D01*
X131417760Y-94135000D01*
X131582240Y-94135000D01*
X131743560Y-94102911D01*
X131895521Y-94039967D01*
X132000000Y-93970156D01*
X132104479Y-94039967D01*
X132256440Y-94102911D01*
X132417760Y-94135000D01*
X132582240Y-94135000D01*
X132743560Y-94102911D01*
X132895521Y-94039967D01*
X133032281Y-93948587D01*
X133148587Y-93832281D01*
X133239967Y-93695521D01*
X133302911Y-93543560D01*
X133335000Y-93382240D01*
X133335000Y-93217760D01*
X133315109Y-93117760D01*
X133665000Y-93117760D01*
X133665000Y-93282240D01*
X133697089Y-93443560D01*
X133760033Y-93595521D01*
X133851413Y-93732281D01*
X133967719Y-93848587D01*
X134104479Y-93939967D01*
X134214472Y-93985528D01*
X134260033Y-94095521D01*
X134351413Y-94232281D01*
X134467719Y-94348587D01*
X134604479Y-94439967D01*
X134756440Y-94502911D01*
X134917760Y-94535000D01*
X135082240Y-94535000D01*
X135243560Y-94502911D01*
X135395521Y-94439967D01*
X135500000Y-94370156D01*
X135604479Y-94439967D01*
X135756440Y-94502911D01*
X135917760Y-94535000D01*
X136082240Y-94535000D01*
X136243560Y-94502911D01*
X136395521Y-94439967D01*
X136500000Y-94370156D01*
X136604479Y-94439967D01*
X136756440Y-94502911D01*
X136917760Y-94535000D01*
X137082240Y-94535000D01*
X137243560Y-94502911D01*
X137395521Y-94439967D01*
X137532281Y-94348587D01*
X137648587Y-94232281D01*
X137739967Y-94095521D01*
X137785528Y-93985528D01*
X137895521Y-93939967D01*
X138032281Y-93848587D01*
X138148587Y-93732281D01*
X138239967Y-93595521D01*
X138302911Y-93443560D01*
X138335000Y-93282240D01*
X138335000Y-93117760D01*
X138302911Y-92956440D01*
X138239967Y-92804479D01*
X138148587Y-92667719D01*
X138032281Y-92551413D01*
X137895521Y-92460033D01*
X137743560Y-92397089D01*
X137582240Y-92365000D01*
X137417760Y-92365000D01*
X137256440Y-92397089D01*
X137104479Y-92460033D01*
X136967719Y-92551413D01*
X136851413Y-92667719D01*
X136760033Y-92804479D01*
X136714472Y-92914472D01*
X136604479Y-92960033D01*
X136500000Y-93029844D01*
X136395521Y-92960033D01*
X136285528Y-92914472D01*
X136239967Y-92804479D01*
X136148587Y-92667719D01*
X136032281Y-92551413D01*
X135895521Y-92460033D01*
X135743560Y-92397089D01*
X135582240Y-92365000D01*
X135417760Y-92365000D01*
X135256440Y-92397089D01*
X135104479Y-92460033D01*
X135000000Y-92529844D01*
X134895521Y-92460033D01*
X134743560Y-92397089D01*
X134582240Y-92365000D01*
X134417760Y-92365000D01*
X134256440Y-92397089D01*
X134104479Y-92460033D01*
X133967719Y-92551413D01*
X133851413Y-92667719D01*
X133760033Y-92804479D01*
X133697089Y-92956440D01*
X133665000Y-93117760D01*
X133315109Y-93117760D01*
X133302911Y-93056440D01*
X133239967Y-92904479D01*
X133148587Y-92767719D01*
X133032281Y-92651413D01*
X132895521Y-92560033D01*
X132743560Y-92497089D01*
X132582240Y-92465000D01*
X132417760Y-92465000D01*
X132256440Y-92497089D01*
X132104479Y-92560033D01*
X132000000Y-92629844D01*
X131895521Y-92560033D01*
X131743560Y-92497089D01*
X131582240Y-92465000D01*
X131417760Y-92465000D01*
X131256440Y-92497089D01*
X131104479Y-92560033D01*
X130967719Y-92651413D01*
X130851413Y-92767719D01*
X130760033Y-92904479D01*
X130697089Y-93056440D01*
X130665000Y-93217760D01*
X130182024Y-93217760D01*
X130148587Y-93167719D01*
X130032281Y-93051413D01*
X129895521Y-92960033D01*
X129743560Y-92897089D01*
X129582240Y-92865000D01*
X129417760Y-92865000D01*
X129256440Y-92897089D01*
X129104479Y-92960033D01*
X129000000Y-93029844D01*
X128895521Y-92960033D01*
X128743560Y-92897089D01*
X128582240Y-92865000D01*
X128417760Y-92865000D01*
X128256440Y-92897089D01*
X128104479Y-92960033D01*
X127967719Y-93051413D01*
X127851413Y-93167719D01*
X127760033Y-93304479D01*
X127697089Y-93456440D01*
X127665000Y-93617760D01*
X125660000Y-93617760D01*
X125660000Y-90660000D01*
X142123000Y-90660000D01*
X142123000Y-90921006D01*
G37*
%TD.AperFunction*%
%TD*%
M02*
