%TF.GenerationSoftware,KiCad,Pcbnew,5.1.10-88a1d61d58~90~ubuntu20.04.1*%
%TF.CreationDate,2021-07-31T15:59:24+02:00*%
%TF.ProjectId,wally,77616c6c-792e-46b6-9963-61645f706362,v1.04*%
%TF.SameCoordinates,Original*%
%TF.FileFunction,Soldermask,Top*%
%TF.FilePolarity,Negative*%
%FSLAX46Y46*%
G04 Gerber Fmt 4.6, Leading zero omitted, Abs format (unit mm)*
G04 Created by KiCad (PCBNEW 5.1.10-88a1d61d58~90~ubuntu20.04.1) date 2021-07-31 15:59:24*
%MOMM*%
%LPD*%
G01*
G04 APERTURE LIST*
%ADD10O,1.700000X1.700000*%
%ADD11R,1.700000X1.700000*%
%ADD12O,1.600000X1.000000*%
%ADD13C,0.650000*%
%ADD14O,2.100000X1.000000*%
%ADD15R,1.450000X0.300000*%
%ADD16R,1.450000X0.600000*%
%ADD17R,1.000000X1.000000*%
%ADD18R,1.000000X2.600000*%
%ADD19R,0.500000X2.800000*%
%ADD20R,0.900000X0.800000*%
%ADD21R,0.700000X0.600000*%
%ADD22R,1.000000X0.700000*%
G04 APERTURE END LIST*
D10*
%TO.C,J4*%
X151880000Y-91800000D03*
X154420000Y-91800000D03*
X156960000Y-91800000D03*
X159500000Y-91800000D03*
X162040000Y-91800000D03*
X164580000Y-91800000D03*
X167120000Y-91800000D03*
X169660000Y-91800000D03*
D11*
X172200000Y-91800000D03*
%TD*%
D12*
%TO.C,J1*%
X172650000Y-95680000D03*
D13*
X169000000Y-97110000D03*
D12*
X172650000Y-104320000D03*
D13*
X169000000Y-102890000D03*
D14*
X168470000Y-104320000D03*
X168470000Y-95680000D03*
D15*
X167555000Y-100250000D03*
X167555000Y-98250000D03*
X167555000Y-98750000D03*
X167555000Y-99250000D03*
X167555000Y-99750000D03*
X167555000Y-100750000D03*
X167555000Y-101250000D03*
X167555000Y-101750000D03*
D16*
X167555000Y-96750000D03*
X167555000Y-97550000D03*
X167555000Y-102450000D03*
X167555000Y-103250000D03*
X167555000Y-103250000D03*
X167555000Y-102450000D03*
X167555000Y-97550000D03*
X167555000Y-96750000D03*
%TD*%
D17*
%TO.C,J2*%
X126225000Y-107700000D03*
X126225000Y-109000000D03*
X139775000Y-109000000D03*
X139775000Y-107700000D03*
D18*
X139775000Y-108500000D03*
X126225000Y-108500000D03*
D19*
X137000000Y-108600000D03*
X136000000Y-108600000D03*
X135000000Y-108600000D03*
X134000000Y-108600000D03*
X133000000Y-108600000D03*
X132000000Y-108600000D03*
X131000000Y-108600000D03*
X130000000Y-108600000D03*
X129000000Y-108600000D03*
%TD*%
D17*
%TO.C,J3*%
X126225000Y-92300000D03*
X126225000Y-91000000D03*
X139775000Y-91000000D03*
X139775000Y-92300000D03*
D18*
X139775000Y-91500000D03*
X126225000Y-91500000D03*
D19*
X137500000Y-91400000D03*
X136500000Y-91400000D03*
X135500000Y-91400000D03*
X134500000Y-91400000D03*
X133500000Y-91400000D03*
X132500000Y-91400000D03*
X131500000Y-91400000D03*
X130500000Y-91400000D03*
X129500000Y-91400000D03*
X128500000Y-91400000D03*
%TD*%
%TO.C,R17*%
G36*
G01*
X146925000Y-105465000D02*
X146925000Y-106015000D01*
G75*
G02*
X146725000Y-106215000I-200000J0D01*
G01*
X146325000Y-106215000D01*
G75*
G02*
X146125000Y-106015000I0J200000D01*
G01*
X146125000Y-105465000D01*
G75*
G02*
X146325000Y-105265000I200000J0D01*
G01*
X146725000Y-105265000D01*
G75*
G02*
X146925000Y-105465000I0J-200000D01*
G01*
G37*
G36*
G01*
X145275000Y-105465000D02*
X145275000Y-106015000D01*
G75*
G02*
X145075000Y-106215000I-200000J0D01*
G01*
X144675000Y-106215000D01*
G75*
G02*
X144475000Y-106015000I0J200000D01*
G01*
X144475000Y-105465000D01*
G75*
G02*
X144675000Y-105265000I200000J0D01*
G01*
X145075000Y-105265000D01*
G75*
G02*
X145275000Y-105465000I0J-200000D01*
G01*
G37*
%TD*%
D20*
%TO.C,Q4*%
X158430000Y-107730000D03*
X158430000Y-105830000D03*
X156430000Y-106780000D03*
%TD*%
%TO.C,C4*%
G36*
G01*
X172275000Y-106800000D02*
X171325000Y-106800000D01*
G75*
G02*
X171075000Y-106550000I0J250000D01*
G01*
X171075000Y-106050000D01*
G75*
G02*
X171325000Y-105800000I250000J0D01*
G01*
X172275000Y-105800000D01*
G75*
G02*
X172525000Y-106050000I0J-250000D01*
G01*
X172525000Y-106550000D01*
G75*
G02*
X172275000Y-106800000I-250000J0D01*
G01*
G37*
G36*
G01*
X172275000Y-108700000D02*
X171325000Y-108700000D01*
G75*
G02*
X171075000Y-108450000I0J250000D01*
G01*
X171075000Y-107950000D01*
G75*
G02*
X171325000Y-107700000I250000J0D01*
G01*
X172275000Y-107700000D01*
G75*
G02*
X172525000Y-107950000I0J-250000D01*
G01*
X172525000Y-108450000D01*
G75*
G02*
X172275000Y-108700000I-250000J0D01*
G01*
G37*
%TD*%
%TO.C,C5*%
G36*
G01*
X166815000Y-108700000D02*
X165865000Y-108700000D01*
G75*
G02*
X165615000Y-108450000I0J250000D01*
G01*
X165615000Y-107950000D01*
G75*
G02*
X165865000Y-107700000I250000J0D01*
G01*
X166815000Y-107700000D01*
G75*
G02*
X167065000Y-107950000I0J-250000D01*
G01*
X167065000Y-108450000D01*
G75*
G02*
X166815000Y-108700000I-250000J0D01*
G01*
G37*
G36*
G01*
X166815000Y-106800000D02*
X165865000Y-106800000D01*
G75*
G02*
X165615000Y-106550000I0J250000D01*
G01*
X165615000Y-106050000D01*
G75*
G02*
X165865000Y-105800000I250000J0D01*
G01*
X166815000Y-105800000D01*
G75*
G02*
X167065000Y-106050000I0J-250000D01*
G01*
X167065000Y-106550000D01*
G75*
G02*
X166815000Y-106800000I-250000J0D01*
G01*
G37*
%TD*%
%TO.C,U1*%
G36*
G01*
X161925000Y-97175000D02*
X161925000Y-96975000D01*
G75*
G02*
X162025000Y-96875000I100000J0D01*
G01*
X163300000Y-96875000D01*
G75*
G02*
X163400000Y-96975000I0J-100000D01*
G01*
X163400000Y-97175000D01*
G75*
G02*
X163300000Y-97275000I-100000J0D01*
G01*
X162025000Y-97275000D01*
G75*
G02*
X161925000Y-97175000I0J100000D01*
G01*
G37*
G36*
G01*
X161925000Y-97825000D02*
X161925000Y-97625000D01*
G75*
G02*
X162025000Y-97525000I100000J0D01*
G01*
X163300000Y-97525000D01*
G75*
G02*
X163400000Y-97625000I0J-100000D01*
G01*
X163400000Y-97825000D01*
G75*
G02*
X163300000Y-97925000I-100000J0D01*
G01*
X162025000Y-97925000D01*
G75*
G02*
X161925000Y-97825000I0J100000D01*
G01*
G37*
G36*
G01*
X161925000Y-98475000D02*
X161925000Y-98275000D01*
G75*
G02*
X162025000Y-98175000I100000J0D01*
G01*
X163300000Y-98175000D01*
G75*
G02*
X163400000Y-98275000I0J-100000D01*
G01*
X163400000Y-98475000D01*
G75*
G02*
X163300000Y-98575000I-100000J0D01*
G01*
X162025000Y-98575000D01*
G75*
G02*
X161925000Y-98475000I0J100000D01*
G01*
G37*
G36*
G01*
X161925000Y-99125000D02*
X161925000Y-98925000D01*
G75*
G02*
X162025000Y-98825000I100000J0D01*
G01*
X163300000Y-98825000D01*
G75*
G02*
X163400000Y-98925000I0J-100000D01*
G01*
X163400000Y-99125000D01*
G75*
G02*
X163300000Y-99225000I-100000J0D01*
G01*
X162025000Y-99225000D01*
G75*
G02*
X161925000Y-99125000I0J100000D01*
G01*
G37*
G36*
G01*
X161925000Y-99775000D02*
X161925000Y-99575000D01*
G75*
G02*
X162025000Y-99475000I100000J0D01*
G01*
X163300000Y-99475000D01*
G75*
G02*
X163400000Y-99575000I0J-100000D01*
G01*
X163400000Y-99775000D01*
G75*
G02*
X163300000Y-99875000I-100000J0D01*
G01*
X162025000Y-99875000D01*
G75*
G02*
X161925000Y-99775000I0J100000D01*
G01*
G37*
G36*
G01*
X161925000Y-100425000D02*
X161925000Y-100225000D01*
G75*
G02*
X162025000Y-100125000I100000J0D01*
G01*
X163300000Y-100125000D01*
G75*
G02*
X163400000Y-100225000I0J-100000D01*
G01*
X163400000Y-100425000D01*
G75*
G02*
X163300000Y-100525000I-100000J0D01*
G01*
X162025000Y-100525000D01*
G75*
G02*
X161925000Y-100425000I0J100000D01*
G01*
G37*
G36*
G01*
X161925000Y-101075000D02*
X161925000Y-100875000D01*
G75*
G02*
X162025000Y-100775000I100000J0D01*
G01*
X163300000Y-100775000D01*
G75*
G02*
X163400000Y-100875000I0J-100000D01*
G01*
X163400000Y-101075000D01*
G75*
G02*
X163300000Y-101175000I-100000J0D01*
G01*
X162025000Y-101175000D01*
G75*
G02*
X161925000Y-101075000I0J100000D01*
G01*
G37*
G36*
G01*
X161925000Y-101725000D02*
X161925000Y-101525000D01*
G75*
G02*
X162025000Y-101425000I100000J0D01*
G01*
X163300000Y-101425000D01*
G75*
G02*
X163400000Y-101525000I0J-100000D01*
G01*
X163400000Y-101725000D01*
G75*
G02*
X163300000Y-101825000I-100000J0D01*
G01*
X162025000Y-101825000D01*
G75*
G02*
X161925000Y-101725000I0J100000D01*
G01*
G37*
G36*
G01*
X161925000Y-102375000D02*
X161925000Y-102175000D01*
G75*
G02*
X162025000Y-102075000I100000J0D01*
G01*
X163300000Y-102075000D01*
G75*
G02*
X163400000Y-102175000I0J-100000D01*
G01*
X163400000Y-102375000D01*
G75*
G02*
X163300000Y-102475000I-100000J0D01*
G01*
X162025000Y-102475000D01*
G75*
G02*
X161925000Y-102375000I0J100000D01*
G01*
G37*
G36*
G01*
X161925000Y-103025000D02*
X161925000Y-102825000D01*
G75*
G02*
X162025000Y-102725000I100000J0D01*
G01*
X163300000Y-102725000D01*
G75*
G02*
X163400000Y-102825000I0J-100000D01*
G01*
X163400000Y-103025000D01*
G75*
G02*
X163300000Y-103125000I-100000J0D01*
G01*
X162025000Y-103125000D01*
G75*
G02*
X161925000Y-103025000I0J100000D01*
G01*
G37*
G36*
G01*
X156200000Y-103025000D02*
X156200000Y-102825000D01*
G75*
G02*
X156300000Y-102725000I100000J0D01*
G01*
X157575000Y-102725000D01*
G75*
G02*
X157675000Y-102825000I0J-100000D01*
G01*
X157675000Y-103025000D01*
G75*
G02*
X157575000Y-103125000I-100000J0D01*
G01*
X156300000Y-103125000D01*
G75*
G02*
X156200000Y-103025000I0J100000D01*
G01*
G37*
G36*
G01*
X156200000Y-102375000D02*
X156200000Y-102175000D01*
G75*
G02*
X156300000Y-102075000I100000J0D01*
G01*
X157575000Y-102075000D01*
G75*
G02*
X157675000Y-102175000I0J-100000D01*
G01*
X157675000Y-102375000D01*
G75*
G02*
X157575000Y-102475000I-100000J0D01*
G01*
X156300000Y-102475000D01*
G75*
G02*
X156200000Y-102375000I0J100000D01*
G01*
G37*
G36*
G01*
X156200000Y-101725000D02*
X156200000Y-101525000D01*
G75*
G02*
X156300000Y-101425000I100000J0D01*
G01*
X157575000Y-101425000D01*
G75*
G02*
X157675000Y-101525000I0J-100000D01*
G01*
X157675000Y-101725000D01*
G75*
G02*
X157575000Y-101825000I-100000J0D01*
G01*
X156300000Y-101825000D01*
G75*
G02*
X156200000Y-101725000I0J100000D01*
G01*
G37*
G36*
G01*
X156200000Y-101075000D02*
X156200000Y-100875000D01*
G75*
G02*
X156300000Y-100775000I100000J0D01*
G01*
X157575000Y-100775000D01*
G75*
G02*
X157675000Y-100875000I0J-100000D01*
G01*
X157675000Y-101075000D01*
G75*
G02*
X157575000Y-101175000I-100000J0D01*
G01*
X156300000Y-101175000D01*
G75*
G02*
X156200000Y-101075000I0J100000D01*
G01*
G37*
G36*
G01*
X156200000Y-100425000D02*
X156200000Y-100225000D01*
G75*
G02*
X156300000Y-100125000I100000J0D01*
G01*
X157575000Y-100125000D01*
G75*
G02*
X157675000Y-100225000I0J-100000D01*
G01*
X157675000Y-100425000D01*
G75*
G02*
X157575000Y-100525000I-100000J0D01*
G01*
X156300000Y-100525000D01*
G75*
G02*
X156200000Y-100425000I0J100000D01*
G01*
G37*
G36*
G01*
X156200000Y-99775000D02*
X156200000Y-99575000D01*
G75*
G02*
X156300000Y-99475000I100000J0D01*
G01*
X157575000Y-99475000D01*
G75*
G02*
X157675000Y-99575000I0J-100000D01*
G01*
X157675000Y-99775000D01*
G75*
G02*
X157575000Y-99875000I-100000J0D01*
G01*
X156300000Y-99875000D01*
G75*
G02*
X156200000Y-99775000I0J100000D01*
G01*
G37*
G36*
G01*
X156200000Y-99125000D02*
X156200000Y-98925000D01*
G75*
G02*
X156300000Y-98825000I100000J0D01*
G01*
X157575000Y-98825000D01*
G75*
G02*
X157675000Y-98925000I0J-100000D01*
G01*
X157675000Y-99125000D01*
G75*
G02*
X157575000Y-99225000I-100000J0D01*
G01*
X156300000Y-99225000D01*
G75*
G02*
X156200000Y-99125000I0J100000D01*
G01*
G37*
G36*
G01*
X156200000Y-98475000D02*
X156200000Y-98275000D01*
G75*
G02*
X156300000Y-98175000I100000J0D01*
G01*
X157575000Y-98175000D01*
G75*
G02*
X157675000Y-98275000I0J-100000D01*
G01*
X157675000Y-98475000D01*
G75*
G02*
X157575000Y-98575000I-100000J0D01*
G01*
X156300000Y-98575000D01*
G75*
G02*
X156200000Y-98475000I0J100000D01*
G01*
G37*
G36*
G01*
X156200000Y-97825000D02*
X156200000Y-97625000D01*
G75*
G02*
X156300000Y-97525000I100000J0D01*
G01*
X157575000Y-97525000D01*
G75*
G02*
X157675000Y-97625000I0J-100000D01*
G01*
X157675000Y-97825000D01*
G75*
G02*
X157575000Y-97925000I-100000J0D01*
G01*
X156300000Y-97925000D01*
G75*
G02*
X156200000Y-97825000I0J100000D01*
G01*
G37*
G36*
G01*
X156200000Y-97175000D02*
X156200000Y-96975000D01*
G75*
G02*
X156300000Y-96875000I100000J0D01*
G01*
X157575000Y-96875000D01*
G75*
G02*
X157675000Y-96975000I0J-100000D01*
G01*
X157675000Y-97175000D01*
G75*
G02*
X157575000Y-97275000I-100000J0D01*
G01*
X156300000Y-97275000D01*
G75*
G02*
X156200000Y-97175000I0J100000D01*
G01*
G37*
%TD*%
%TO.C,U2*%
X170070000Y-107250000D03*
X168070000Y-108200000D03*
X168070000Y-106300000D03*
%TD*%
D21*
%TO.C,D3*%
X165600000Y-98030000D03*
X165600000Y-99430000D03*
%TD*%
%TO.C,D4*%
X165600000Y-100570000D03*
X165600000Y-101970000D03*
%TD*%
%TO.C,D5*%
X173510000Y-107950000D03*
X173510000Y-106550000D03*
%TD*%
%TO.C,D6*%
X136540000Y-103900000D03*
X136540000Y-102500000D03*
%TD*%
%TO.C,D7*%
X135110000Y-103900000D03*
X135110000Y-102500000D03*
%TD*%
%TO.C,D9*%
X132240000Y-102500000D03*
X132240000Y-103900000D03*
%TD*%
%TO.C,D8*%
X133680000Y-103900000D03*
X133680000Y-102500000D03*
%TD*%
%TO.C,D10*%
X130800000Y-102500000D03*
X130800000Y-103900000D03*
%TD*%
%TO.C,U3*%
G36*
G01*
X149100000Y-95875000D02*
X149100000Y-96075000D01*
G75*
G02*
X149000000Y-96175000I-100000J0D01*
G01*
X147575000Y-96175000D01*
G75*
G02*
X147475000Y-96075000I0J100000D01*
G01*
X147475000Y-95875000D01*
G75*
G02*
X147575000Y-95775000I100000J0D01*
G01*
X149000000Y-95775000D01*
G75*
G02*
X149100000Y-95875000I0J-100000D01*
G01*
G37*
G36*
G01*
X149100000Y-95225000D02*
X149100000Y-95425000D01*
G75*
G02*
X149000000Y-95525000I-100000J0D01*
G01*
X147575000Y-95525000D01*
G75*
G02*
X147475000Y-95425000I0J100000D01*
G01*
X147475000Y-95225000D01*
G75*
G02*
X147575000Y-95125000I100000J0D01*
G01*
X149000000Y-95125000D01*
G75*
G02*
X149100000Y-95225000I0J-100000D01*
G01*
G37*
G36*
G01*
X149100000Y-94575000D02*
X149100000Y-94775000D01*
G75*
G02*
X149000000Y-94875000I-100000J0D01*
G01*
X147575000Y-94875000D01*
G75*
G02*
X147475000Y-94775000I0J100000D01*
G01*
X147475000Y-94575000D01*
G75*
G02*
X147575000Y-94475000I100000J0D01*
G01*
X149000000Y-94475000D01*
G75*
G02*
X149100000Y-94575000I0J-100000D01*
G01*
G37*
G36*
G01*
X149100000Y-93925000D02*
X149100000Y-94125000D01*
G75*
G02*
X149000000Y-94225000I-100000J0D01*
G01*
X147575000Y-94225000D01*
G75*
G02*
X147475000Y-94125000I0J100000D01*
G01*
X147475000Y-93925000D01*
G75*
G02*
X147575000Y-93825000I100000J0D01*
G01*
X149000000Y-93825000D01*
G75*
G02*
X149100000Y-93925000I0J-100000D01*
G01*
G37*
G36*
G01*
X153325000Y-93925000D02*
X153325000Y-94125000D01*
G75*
G02*
X153225000Y-94225000I-100000J0D01*
G01*
X151800000Y-94225000D01*
G75*
G02*
X151700000Y-94125000I0J100000D01*
G01*
X151700000Y-93925000D01*
G75*
G02*
X151800000Y-93825000I100000J0D01*
G01*
X153225000Y-93825000D01*
G75*
G02*
X153325000Y-93925000I0J-100000D01*
G01*
G37*
G36*
G01*
X153325000Y-94575000D02*
X153325000Y-94775000D01*
G75*
G02*
X153225000Y-94875000I-100000J0D01*
G01*
X151800000Y-94875000D01*
G75*
G02*
X151700000Y-94775000I0J100000D01*
G01*
X151700000Y-94575000D01*
G75*
G02*
X151800000Y-94475000I100000J0D01*
G01*
X153225000Y-94475000D01*
G75*
G02*
X153325000Y-94575000I0J-100000D01*
G01*
G37*
G36*
G01*
X153325000Y-95225000D02*
X153325000Y-95425000D01*
G75*
G02*
X153225000Y-95525000I-100000J0D01*
G01*
X151800000Y-95525000D01*
G75*
G02*
X151700000Y-95425000I0J100000D01*
G01*
X151700000Y-95225000D01*
G75*
G02*
X151800000Y-95125000I100000J0D01*
G01*
X153225000Y-95125000D01*
G75*
G02*
X153325000Y-95225000I0J-100000D01*
G01*
G37*
G36*
G01*
X153325000Y-95875000D02*
X153325000Y-96075000D01*
G75*
G02*
X153225000Y-96175000I-100000J0D01*
G01*
X151800000Y-96175000D01*
G75*
G02*
X151700000Y-96075000I0J100000D01*
G01*
X151700000Y-95875000D01*
G75*
G02*
X151800000Y-95775000I100000J0D01*
G01*
X153225000Y-95775000D01*
G75*
G02*
X153325000Y-95875000I0J-100000D01*
G01*
G37*
%TD*%
%TO.C,U4*%
G36*
G01*
X153325000Y-105875000D02*
X153325000Y-106075000D01*
G75*
G02*
X153225000Y-106175000I-100000J0D01*
G01*
X151800000Y-106175000D01*
G75*
G02*
X151700000Y-106075000I0J100000D01*
G01*
X151700000Y-105875000D01*
G75*
G02*
X151800000Y-105775000I100000J0D01*
G01*
X153225000Y-105775000D01*
G75*
G02*
X153325000Y-105875000I0J-100000D01*
G01*
G37*
G36*
G01*
X153325000Y-105225000D02*
X153325000Y-105425000D01*
G75*
G02*
X153225000Y-105525000I-100000J0D01*
G01*
X151800000Y-105525000D01*
G75*
G02*
X151700000Y-105425000I0J100000D01*
G01*
X151700000Y-105225000D01*
G75*
G02*
X151800000Y-105125000I100000J0D01*
G01*
X153225000Y-105125000D01*
G75*
G02*
X153325000Y-105225000I0J-100000D01*
G01*
G37*
G36*
G01*
X153325000Y-104575000D02*
X153325000Y-104775000D01*
G75*
G02*
X153225000Y-104875000I-100000J0D01*
G01*
X151800000Y-104875000D01*
G75*
G02*
X151700000Y-104775000I0J100000D01*
G01*
X151700000Y-104575000D01*
G75*
G02*
X151800000Y-104475000I100000J0D01*
G01*
X153225000Y-104475000D01*
G75*
G02*
X153325000Y-104575000I0J-100000D01*
G01*
G37*
G36*
G01*
X153325000Y-103925000D02*
X153325000Y-104125000D01*
G75*
G02*
X153225000Y-104225000I-100000J0D01*
G01*
X151800000Y-104225000D01*
G75*
G02*
X151700000Y-104125000I0J100000D01*
G01*
X151700000Y-103925000D01*
G75*
G02*
X151800000Y-103825000I100000J0D01*
G01*
X153225000Y-103825000D01*
G75*
G02*
X153325000Y-103925000I0J-100000D01*
G01*
G37*
G36*
G01*
X149100000Y-103925000D02*
X149100000Y-104125000D01*
G75*
G02*
X149000000Y-104225000I-100000J0D01*
G01*
X147575000Y-104225000D01*
G75*
G02*
X147475000Y-104125000I0J100000D01*
G01*
X147475000Y-103925000D01*
G75*
G02*
X147575000Y-103825000I100000J0D01*
G01*
X149000000Y-103825000D01*
G75*
G02*
X149100000Y-103925000I0J-100000D01*
G01*
G37*
G36*
G01*
X149100000Y-104575000D02*
X149100000Y-104775000D01*
G75*
G02*
X149000000Y-104875000I-100000J0D01*
G01*
X147575000Y-104875000D01*
G75*
G02*
X147475000Y-104775000I0J100000D01*
G01*
X147475000Y-104575000D01*
G75*
G02*
X147575000Y-104475000I100000J0D01*
G01*
X149000000Y-104475000D01*
G75*
G02*
X149100000Y-104575000I0J-100000D01*
G01*
G37*
G36*
G01*
X149100000Y-105225000D02*
X149100000Y-105425000D01*
G75*
G02*
X149000000Y-105525000I-100000J0D01*
G01*
X147575000Y-105525000D01*
G75*
G02*
X147475000Y-105425000I0J100000D01*
G01*
X147475000Y-105225000D01*
G75*
G02*
X147575000Y-105125000I100000J0D01*
G01*
X149000000Y-105125000D01*
G75*
G02*
X149100000Y-105225000I0J-100000D01*
G01*
G37*
G36*
G01*
X149100000Y-105875000D02*
X149100000Y-106075000D01*
G75*
G02*
X149000000Y-106175000I-100000J0D01*
G01*
X147575000Y-106175000D01*
G75*
G02*
X147475000Y-106075000I0J100000D01*
G01*
X147475000Y-105875000D01*
G75*
G02*
X147575000Y-105775000I100000J0D01*
G01*
X149000000Y-105775000D01*
G75*
G02*
X149100000Y-105875000I0J-100000D01*
G01*
G37*
%TD*%
%TO.C,C1*%
G36*
G01*
X155150000Y-101225000D02*
X154650000Y-101225000D01*
G75*
G02*
X154425000Y-101000000I0J225000D01*
G01*
X154425000Y-100550000D01*
G75*
G02*
X154650000Y-100325000I225000J0D01*
G01*
X155150000Y-100325000D01*
G75*
G02*
X155375000Y-100550000I0J-225000D01*
G01*
X155375000Y-101000000D01*
G75*
G02*
X155150000Y-101225000I-225000J0D01*
G01*
G37*
G36*
G01*
X155150000Y-99675000D02*
X154650000Y-99675000D01*
G75*
G02*
X154425000Y-99450000I0J225000D01*
G01*
X154425000Y-99000000D01*
G75*
G02*
X154650000Y-98775000I225000J0D01*
G01*
X155150000Y-98775000D01*
G75*
G02*
X155375000Y-99000000I0J-225000D01*
G01*
X155375000Y-99450000D01*
G75*
G02*
X155150000Y-99675000I-225000J0D01*
G01*
G37*
%TD*%
%TO.C,C2*%
G36*
G01*
X158020000Y-95325000D02*
X158520000Y-95325000D01*
G75*
G02*
X158745000Y-95550000I0J-225000D01*
G01*
X158745000Y-96000000D01*
G75*
G02*
X158520000Y-96225000I-225000J0D01*
G01*
X158020000Y-96225000D01*
G75*
G02*
X157795000Y-96000000I0J225000D01*
G01*
X157795000Y-95550000D01*
G75*
G02*
X158020000Y-95325000I225000J0D01*
G01*
G37*
G36*
G01*
X158020000Y-93775000D02*
X158520000Y-93775000D01*
G75*
G02*
X158745000Y-94000000I0J-225000D01*
G01*
X158745000Y-94450000D01*
G75*
G02*
X158520000Y-94675000I-225000J0D01*
G01*
X158020000Y-94675000D01*
G75*
G02*
X157795000Y-94450000I0J225000D01*
G01*
X157795000Y-94000000D01*
G75*
G02*
X158020000Y-93775000I225000J0D01*
G01*
G37*
%TD*%
%TO.C,C3*%
G36*
G01*
X161100000Y-93775000D02*
X161600000Y-93775000D01*
G75*
G02*
X161825000Y-94000000I0J-225000D01*
G01*
X161825000Y-94450000D01*
G75*
G02*
X161600000Y-94675000I-225000J0D01*
G01*
X161100000Y-94675000D01*
G75*
G02*
X160875000Y-94450000I0J225000D01*
G01*
X160875000Y-94000000D01*
G75*
G02*
X161100000Y-93775000I225000J0D01*
G01*
G37*
G36*
G01*
X161100000Y-95325000D02*
X161600000Y-95325000D01*
G75*
G02*
X161825000Y-95550000I0J-225000D01*
G01*
X161825000Y-96000000D01*
G75*
G02*
X161600000Y-96225000I-225000J0D01*
G01*
X161100000Y-96225000D01*
G75*
G02*
X160875000Y-96000000I0J225000D01*
G01*
X160875000Y-95550000D01*
G75*
G02*
X161100000Y-95325000I225000J0D01*
G01*
G37*
%TD*%
%TO.C,C6*%
G36*
G01*
X154590000Y-94675000D02*
X154090000Y-94675000D01*
G75*
G02*
X153865000Y-94450000I0J225000D01*
G01*
X153865000Y-94000000D01*
G75*
G02*
X154090000Y-93775000I225000J0D01*
G01*
X154590000Y-93775000D01*
G75*
G02*
X154815000Y-94000000I0J-225000D01*
G01*
X154815000Y-94450000D01*
G75*
G02*
X154590000Y-94675000I-225000J0D01*
G01*
G37*
G36*
G01*
X154590000Y-96225000D02*
X154090000Y-96225000D01*
G75*
G02*
X153865000Y-96000000I0J225000D01*
G01*
X153865000Y-95550000D01*
G75*
G02*
X154090000Y-95325000I225000J0D01*
G01*
X154590000Y-95325000D01*
G75*
G02*
X154815000Y-95550000I0J-225000D01*
G01*
X154815000Y-96000000D01*
G75*
G02*
X154590000Y-96225000I-225000J0D01*
G01*
G37*
%TD*%
%TO.C,C7*%
G36*
G01*
X154590000Y-104675000D02*
X154090000Y-104675000D01*
G75*
G02*
X153865000Y-104450000I0J225000D01*
G01*
X153865000Y-104000000D01*
G75*
G02*
X154090000Y-103775000I225000J0D01*
G01*
X154590000Y-103775000D01*
G75*
G02*
X154815000Y-104000000I0J-225000D01*
G01*
X154815000Y-104450000D01*
G75*
G02*
X154590000Y-104675000I-225000J0D01*
G01*
G37*
G36*
G01*
X154590000Y-106225000D02*
X154090000Y-106225000D01*
G75*
G02*
X153865000Y-106000000I0J225000D01*
G01*
X153865000Y-105550000D01*
G75*
G02*
X154090000Y-105325000I225000J0D01*
G01*
X154590000Y-105325000D01*
G75*
G02*
X154815000Y-105550000I0J-225000D01*
G01*
X154815000Y-106000000D01*
G75*
G02*
X154590000Y-106225000I-225000J0D01*
G01*
G37*
%TD*%
%TO.C,C8*%
G36*
G01*
X145375000Y-95495000D02*
X145375000Y-95995000D01*
G75*
G02*
X145150000Y-96220000I-225000J0D01*
G01*
X144700000Y-96220000D01*
G75*
G02*
X144475000Y-95995000I0J225000D01*
G01*
X144475000Y-95495000D01*
G75*
G02*
X144700000Y-95270000I225000J0D01*
G01*
X145150000Y-95270000D01*
G75*
G02*
X145375000Y-95495000I0J-225000D01*
G01*
G37*
G36*
G01*
X146925000Y-95495000D02*
X146925000Y-95995000D01*
G75*
G02*
X146700000Y-96220000I-225000J0D01*
G01*
X146250000Y-96220000D01*
G75*
G02*
X146025000Y-95995000I0J225000D01*
G01*
X146025000Y-95495000D01*
G75*
G02*
X146250000Y-95270000I225000J0D01*
G01*
X146700000Y-95270000D01*
G75*
G02*
X146925000Y-95495000I0J-225000D01*
G01*
G37*
%TD*%
%TO.C,D2*%
G36*
G01*
X163176250Y-107650000D02*
X162663750Y-107650000D01*
G75*
G02*
X162445000Y-107431250I0J218750D01*
G01*
X162445000Y-106993750D01*
G75*
G02*
X162663750Y-106775000I218750J0D01*
G01*
X163176250Y-106775000D01*
G75*
G02*
X163395000Y-106993750I0J-218750D01*
G01*
X163395000Y-107431250D01*
G75*
G02*
X163176250Y-107650000I-218750J0D01*
G01*
G37*
G36*
G01*
X163176250Y-109225000D02*
X162663750Y-109225000D01*
G75*
G02*
X162445000Y-109006250I0J218750D01*
G01*
X162445000Y-108568750D01*
G75*
G02*
X162663750Y-108350000I218750J0D01*
G01*
X163176250Y-108350000D01*
G75*
G02*
X163395000Y-108568750I0J-218750D01*
G01*
X163395000Y-109006250D01*
G75*
G02*
X163176250Y-109225000I-218750J0D01*
G01*
G37*
%TD*%
%TO.C,D1*%
G36*
G01*
X161676250Y-109225000D02*
X161163750Y-109225000D01*
G75*
G02*
X160945000Y-109006250I0J218750D01*
G01*
X160945000Y-108568750D01*
G75*
G02*
X161163750Y-108350000I218750J0D01*
G01*
X161676250Y-108350000D01*
G75*
G02*
X161895000Y-108568750I0J-218750D01*
G01*
X161895000Y-109006250D01*
G75*
G02*
X161676250Y-109225000I-218750J0D01*
G01*
G37*
G36*
G01*
X161676250Y-107650000D02*
X161163750Y-107650000D01*
G75*
G02*
X160945000Y-107431250I0J218750D01*
G01*
X160945000Y-106993750D01*
G75*
G02*
X161163750Y-106775000I218750J0D01*
G01*
X161676250Y-106775000D01*
G75*
G02*
X161895000Y-106993750I0J-218750D01*
G01*
X161895000Y-107431250D01*
G75*
G02*
X161676250Y-107650000I-218750J0D01*
G01*
G37*
%TD*%
%TO.C,R1*%
G36*
G01*
X165825000Y-103615000D02*
X165275000Y-103615000D01*
G75*
G02*
X165075000Y-103415000I0J200000D01*
G01*
X165075000Y-103015000D01*
G75*
G02*
X165275000Y-102815000I200000J0D01*
G01*
X165825000Y-102815000D01*
G75*
G02*
X166025000Y-103015000I0J-200000D01*
G01*
X166025000Y-103415000D01*
G75*
G02*
X165825000Y-103615000I-200000J0D01*
G01*
G37*
G36*
G01*
X165825000Y-105265000D02*
X165275000Y-105265000D01*
G75*
G02*
X165075000Y-105065000I0J200000D01*
G01*
X165075000Y-104665000D01*
G75*
G02*
X165275000Y-104465000I200000J0D01*
G01*
X165825000Y-104465000D01*
G75*
G02*
X166025000Y-104665000I0J-200000D01*
G01*
X166025000Y-105065000D01*
G75*
G02*
X165825000Y-105265000I-200000J0D01*
G01*
G37*
%TD*%
%TO.C,R2*%
G36*
G01*
X165295000Y-94745000D02*
X165845000Y-94745000D01*
G75*
G02*
X166045000Y-94945000I0J-200000D01*
G01*
X166045000Y-95345000D01*
G75*
G02*
X165845000Y-95545000I-200000J0D01*
G01*
X165295000Y-95545000D01*
G75*
G02*
X165095000Y-95345000I0J200000D01*
G01*
X165095000Y-94945000D01*
G75*
G02*
X165295000Y-94745000I200000J0D01*
G01*
G37*
G36*
G01*
X165295000Y-96395000D02*
X165845000Y-96395000D01*
G75*
G02*
X166045000Y-96595000I0J-200000D01*
G01*
X166045000Y-96995000D01*
G75*
G02*
X165845000Y-97195000I-200000J0D01*
G01*
X165295000Y-97195000D01*
G75*
G02*
X165095000Y-96995000I0J200000D01*
G01*
X165095000Y-96595000D01*
G75*
G02*
X165295000Y-96395000I200000J0D01*
G01*
G37*
%TD*%
%TO.C,R3*%
G36*
G01*
X157035000Y-96225000D02*
X156485000Y-96225000D01*
G75*
G02*
X156285000Y-96025000I0J200000D01*
G01*
X156285000Y-95625000D01*
G75*
G02*
X156485000Y-95425000I200000J0D01*
G01*
X157035000Y-95425000D01*
G75*
G02*
X157235000Y-95625000I0J-200000D01*
G01*
X157235000Y-96025000D01*
G75*
G02*
X157035000Y-96225000I-200000J0D01*
G01*
G37*
G36*
G01*
X157035000Y-94575000D02*
X156485000Y-94575000D01*
G75*
G02*
X156285000Y-94375000I0J200000D01*
G01*
X156285000Y-93975000D01*
G75*
G02*
X156485000Y-93775000I200000J0D01*
G01*
X157035000Y-93775000D01*
G75*
G02*
X157235000Y-93975000I0J-200000D01*
G01*
X157235000Y-94375000D01*
G75*
G02*
X157035000Y-94575000I-200000J0D01*
G01*
G37*
%TD*%
%TO.C,R8*%
G36*
G01*
X162645000Y-103785000D02*
X163195000Y-103785000D01*
G75*
G02*
X163395000Y-103985000I0J-200000D01*
G01*
X163395000Y-104385000D01*
G75*
G02*
X163195000Y-104585000I-200000J0D01*
G01*
X162645000Y-104585000D01*
G75*
G02*
X162445000Y-104385000I0J200000D01*
G01*
X162445000Y-103985000D01*
G75*
G02*
X162645000Y-103785000I200000J0D01*
G01*
G37*
G36*
G01*
X162645000Y-105435000D02*
X163195000Y-105435000D01*
G75*
G02*
X163395000Y-105635000I0J-200000D01*
G01*
X163395000Y-106035000D01*
G75*
G02*
X163195000Y-106235000I-200000J0D01*
G01*
X162645000Y-106235000D01*
G75*
G02*
X162445000Y-106035000I0J200000D01*
G01*
X162445000Y-105635000D01*
G75*
G02*
X162645000Y-105435000I200000J0D01*
G01*
G37*
%TD*%
%TO.C,R9*%
G36*
G01*
X146925000Y-93980000D02*
X146925000Y-94530000D01*
G75*
G02*
X146725000Y-94730000I-200000J0D01*
G01*
X146325000Y-94730000D01*
G75*
G02*
X146125000Y-94530000I0J200000D01*
G01*
X146125000Y-93980000D01*
G75*
G02*
X146325000Y-93780000I200000J0D01*
G01*
X146725000Y-93780000D01*
G75*
G02*
X146925000Y-93980000I0J-200000D01*
G01*
G37*
G36*
G01*
X145275000Y-93980000D02*
X145275000Y-94530000D01*
G75*
G02*
X145075000Y-94730000I-200000J0D01*
G01*
X144675000Y-94730000D01*
G75*
G02*
X144475000Y-94530000I0J200000D01*
G01*
X144475000Y-93980000D01*
G75*
G02*
X144675000Y-93780000I200000J0D01*
G01*
X145075000Y-93780000D01*
G75*
G02*
X145275000Y-93980000I0J-200000D01*
G01*
G37*
%TD*%
%TO.C,R10*%
G36*
G01*
X144475000Y-97500000D02*
X144475000Y-96950000D01*
G75*
G02*
X144675000Y-96750000I200000J0D01*
G01*
X145075000Y-96750000D01*
G75*
G02*
X145275000Y-96950000I0J-200000D01*
G01*
X145275000Y-97500000D01*
G75*
G02*
X145075000Y-97700000I-200000J0D01*
G01*
X144675000Y-97700000D01*
G75*
G02*
X144475000Y-97500000I0J200000D01*
G01*
G37*
G36*
G01*
X146125000Y-97500000D02*
X146125000Y-96950000D01*
G75*
G02*
X146325000Y-96750000I200000J0D01*
G01*
X146725000Y-96750000D01*
G75*
G02*
X146925000Y-96950000I0J-200000D01*
G01*
X146925000Y-97500000D01*
G75*
G02*
X146725000Y-97700000I-200000J0D01*
G01*
X146325000Y-97700000D01*
G75*
G02*
X146125000Y-97500000I0J200000D01*
G01*
G37*
%TD*%
%TO.C,R11*%
G36*
G01*
X145275000Y-98425000D02*
X145275000Y-98975000D01*
G75*
G02*
X145075000Y-99175000I-200000J0D01*
G01*
X144675000Y-99175000D01*
G75*
G02*
X144475000Y-98975000I0J200000D01*
G01*
X144475000Y-98425000D01*
G75*
G02*
X144675000Y-98225000I200000J0D01*
G01*
X145075000Y-98225000D01*
G75*
G02*
X145275000Y-98425000I0J-200000D01*
G01*
G37*
G36*
G01*
X146925000Y-98425000D02*
X146925000Y-98975000D01*
G75*
G02*
X146725000Y-99175000I-200000J0D01*
G01*
X146325000Y-99175000D01*
G75*
G02*
X146125000Y-98975000I0J200000D01*
G01*
X146125000Y-98425000D01*
G75*
G02*
X146325000Y-98225000I200000J0D01*
G01*
X146725000Y-98225000D01*
G75*
G02*
X146925000Y-98425000I0J-200000D01*
G01*
G37*
%TD*%
%TO.C,R12*%
G36*
G01*
X161145000Y-103785000D02*
X161695000Y-103785000D01*
G75*
G02*
X161895000Y-103985000I0J-200000D01*
G01*
X161895000Y-104385000D01*
G75*
G02*
X161695000Y-104585000I-200000J0D01*
G01*
X161145000Y-104585000D01*
G75*
G02*
X160945000Y-104385000I0J200000D01*
G01*
X160945000Y-103985000D01*
G75*
G02*
X161145000Y-103785000I200000J0D01*
G01*
G37*
G36*
G01*
X161145000Y-105435000D02*
X161695000Y-105435000D01*
G75*
G02*
X161895000Y-105635000I0J-200000D01*
G01*
X161895000Y-106035000D01*
G75*
G02*
X161695000Y-106235000I-200000J0D01*
G01*
X161145000Y-106235000D01*
G75*
G02*
X160945000Y-106035000I0J200000D01*
G01*
X160945000Y-105635000D01*
G75*
G02*
X161145000Y-105435000I200000J0D01*
G01*
G37*
%TD*%
%TO.C,R14*%
G36*
G01*
X157855000Y-104535000D02*
X157855000Y-103985000D01*
G75*
G02*
X158055000Y-103785000I200000J0D01*
G01*
X158455000Y-103785000D01*
G75*
G02*
X158655000Y-103985000I0J-200000D01*
G01*
X158655000Y-104535000D01*
G75*
G02*
X158455000Y-104735000I-200000J0D01*
G01*
X158055000Y-104735000D01*
G75*
G02*
X157855000Y-104535000I0J200000D01*
G01*
G37*
G36*
G01*
X156205000Y-104535000D02*
X156205000Y-103985000D01*
G75*
G02*
X156405000Y-103785000I200000J0D01*
G01*
X156805000Y-103785000D01*
G75*
G02*
X157005000Y-103985000I0J-200000D01*
G01*
X157005000Y-104535000D01*
G75*
G02*
X156805000Y-104735000I-200000J0D01*
G01*
X156405000Y-104735000D01*
G75*
G02*
X156205000Y-104535000I0J200000D01*
G01*
G37*
%TD*%
%TO.C,R15*%
G36*
G01*
X144475000Y-93050000D02*
X144475000Y-92500000D01*
G75*
G02*
X144675000Y-92300000I200000J0D01*
G01*
X145075000Y-92300000D01*
G75*
G02*
X145275000Y-92500000I0J-200000D01*
G01*
X145275000Y-93050000D01*
G75*
G02*
X145075000Y-93250000I-200000J0D01*
G01*
X144675000Y-93250000D01*
G75*
G02*
X144475000Y-93050000I0J200000D01*
G01*
G37*
G36*
G01*
X146125000Y-93050000D02*
X146125000Y-92500000D01*
G75*
G02*
X146325000Y-92300000I200000J0D01*
G01*
X146725000Y-92300000D01*
G75*
G02*
X146925000Y-92500000I0J-200000D01*
G01*
X146925000Y-93050000D01*
G75*
G02*
X146725000Y-93250000I-200000J0D01*
G01*
X146325000Y-93250000D01*
G75*
G02*
X146125000Y-93050000I0J200000D01*
G01*
G37*
%TD*%
%TO.C,R16*%
G36*
G01*
X145275000Y-91030000D02*
X145275000Y-91580000D01*
G75*
G02*
X145075000Y-91780000I-200000J0D01*
G01*
X144675000Y-91780000D01*
G75*
G02*
X144475000Y-91580000I0J200000D01*
G01*
X144475000Y-91030000D01*
G75*
G02*
X144675000Y-90830000I200000J0D01*
G01*
X145075000Y-90830000D01*
G75*
G02*
X145275000Y-91030000I0J-200000D01*
G01*
G37*
G36*
G01*
X146925000Y-91030000D02*
X146925000Y-91580000D01*
G75*
G02*
X146725000Y-91780000I-200000J0D01*
G01*
X146325000Y-91780000D01*
G75*
G02*
X146125000Y-91580000I0J200000D01*
G01*
X146125000Y-91030000D01*
G75*
G02*
X146325000Y-90830000I200000J0D01*
G01*
X146725000Y-90830000D01*
G75*
G02*
X146925000Y-91030000I0J-200000D01*
G01*
G37*
%TD*%
%TO.C,R18*%
G36*
G01*
X145275000Y-103975000D02*
X145275000Y-104525000D01*
G75*
G02*
X145075000Y-104725000I-200000J0D01*
G01*
X144675000Y-104725000D01*
G75*
G02*
X144475000Y-104525000I0J200000D01*
G01*
X144475000Y-103975000D01*
G75*
G02*
X144675000Y-103775000I200000J0D01*
G01*
X145075000Y-103775000D01*
G75*
G02*
X145275000Y-103975000I0J-200000D01*
G01*
G37*
G36*
G01*
X146925000Y-103975000D02*
X146925000Y-104525000D01*
G75*
G02*
X146725000Y-104725000I-200000J0D01*
G01*
X146325000Y-104725000D01*
G75*
G02*
X146125000Y-104525000I0J200000D01*
G01*
X146125000Y-103975000D01*
G75*
G02*
X146325000Y-103775000I200000J0D01*
G01*
X146725000Y-103775000D01*
G75*
G02*
X146925000Y-103975000I0J-200000D01*
G01*
G37*
%TD*%
D11*
%TO.C,J5*%
X142400000Y-107620000D03*
D10*
X142400000Y-105080000D03*
X142400000Y-102540000D03*
X142400000Y-100000000D03*
X142400000Y-97460000D03*
X142400000Y-94920000D03*
X142400000Y-92380000D03*
%TD*%
D22*
%TO.C,Q1*%
X149100000Y-99050000D03*
X149100000Y-100000000D03*
X149100000Y-100950000D03*
X151700000Y-100950000D03*
X151700000Y-99050000D03*
X151700000Y-100000000D03*
%TD*%
%TO.C,R4*%
G36*
G01*
X150825000Y-102755000D02*
X150825000Y-102205000D01*
G75*
G02*
X151025000Y-102005000I200000J0D01*
G01*
X151425000Y-102005000D01*
G75*
G02*
X151625000Y-102205000I0J-200000D01*
G01*
X151625000Y-102755000D01*
G75*
G02*
X151425000Y-102955000I-200000J0D01*
G01*
X151025000Y-102955000D01*
G75*
G02*
X150825000Y-102755000I0J200000D01*
G01*
G37*
G36*
G01*
X149175000Y-102755000D02*
X149175000Y-102205000D01*
G75*
G02*
X149375000Y-102005000I200000J0D01*
G01*
X149775000Y-102005000D01*
G75*
G02*
X149975000Y-102205000I0J-200000D01*
G01*
X149975000Y-102755000D01*
G75*
G02*
X149775000Y-102955000I-200000J0D01*
G01*
X149375000Y-102955000D01*
G75*
G02*
X149175000Y-102755000I0J200000D01*
G01*
G37*
%TD*%
%TO.C,R5*%
G36*
G01*
X149175000Y-97795000D02*
X149175000Y-97245000D01*
G75*
G02*
X149375000Y-97045000I200000J0D01*
G01*
X149775000Y-97045000D01*
G75*
G02*
X149975000Y-97245000I0J-200000D01*
G01*
X149975000Y-97795000D01*
G75*
G02*
X149775000Y-97995000I-200000J0D01*
G01*
X149375000Y-97995000D01*
G75*
G02*
X149175000Y-97795000I0J200000D01*
G01*
G37*
G36*
G01*
X150825000Y-97795000D02*
X150825000Y-97245000D01*
G75*
G02*
X151025000Y-97045000I200000J0D01*
G01*
X151425000Y-97045000D01*
G75*
G02*
X151625000Y-97245000I0J-200000D01*
G01*
X151625000Y-97795000D01*
G75*
G02*
X151425000Y-97995000I-200000J0D01*
G01*
X151025000Y-97995000D01*
G75*
G02*
X150825000Y-97795000I0J200000D01*
G01*
G37*
%TD*%
%TO.C,R6*%
G36*
G01*
X144475000Y-107525000D02*
X144475000Y-106975000D01*
G75*
G02*
X144675000Y-106775000I200000J0D01*
G01*
X145075000Y-106775000D01*
G75*
G02*
X145275000Y-106975000I0J-200000D01*
G01*
X145275000Y-107525000D01*
G75*
G02*
X145075000Y-107725000I-200000J0D01*
G01*
X144675000Y-107725000D01*
G75*
G02*
X144475000Y-107525000I0J200000D01*
G01*
G37*
G36*
G01*
X146125000Y-107525000D02*
X146125000Y-106975000D01*
G75*
G02*
X146325000Y-106775000I200000J0D01*
G01*
X146725000Y-106775000D01*
G75*
G02*
X146925000Y-106975000I0J-200000D01*
G01*
X146925000Y-107525000D01*
G75*
G02*
X146725000Y-107725000I-200000J0D01*
G01*
X146325000Y-107725000D01*
G75*
G02*
X146125000Y-107525000I0J200000D01*
G01*
G37*
%TD*%
%TO.C,R7*%
G36*
G01*
X146125000Y-103025000D02*
X146125000Y-102475000D01*
G75*
G02*
X146325000Y-102275000I200000J0D01*
G01*
X146725000Y-102275000D01*
G75*
G02*
X146925000Y-102475000I0J-200000D01*
G01*
X146925000Y-103025000D01*
G75*
G02*
X146725000Y-103225000I-200000J0D01*
G01*
X146325000Y-103225000D01*
G75*
G02*
X146125000Y-103025000I0J200000D01*
G01*
G37*
G36*
G01*
X144475000Y-103025000D02*
X144475000Y-102475000D01*
G75*
G02*
X144675000Y-102275000I200000J0D01*
G01*
X145075000Y-102275000D01*
G75*
G02*
X145275000Y-102475000I0J-200000D01*
G01*
X145275000Y-103025000D01*
G75*
G02*
X145075000Y-103225000I-200000J0D01*
G01*
X144675000Y-103225000D01*
G75*
G02*
X144475000Y-103025000I0J200000D01*
G01*
G37*
%TD*%
D21*
%TO.C,D11*%
X129360000Y-102500000D03*
X129360000Y-103900000D03*
%TD*%
M02*
