%TF.GenerationSoftware,KiCad,Pcbnew,5.1.9-73d0e3b20d~88~ubuntu20.04.1*%
%TF.CreationDate,2021-04-24T16:55:14+02:00*%
%TF.ProjectId,wally,77616c6c-792e-46b6-9963-61645f706362,v1.01*%
%TF.SameCoordinates,Original*%
%TF.FileFunction,Copper,L3,Inr*%
%TF.FilePolarity,Positive*%
%FSLAX46Y46*%
G04 Gerber Fmt 4.6, Leading zero omitted, Abs format (unit mm)*
G04 Created by KiCad (PCBNEW 5.1.9-73d0e3b20d~88~ubuntu20.04.1) date 2021-04-24 16:55:14*
%MOMM*%
%LPD*%
G01*
G04 APERTURE LIST*
%TA.AperFunction,ComponentPad*%
%ADD10O,1.600000X1.000000*%
%TD*%
%TA.AperFunction,ComponentPad*%
%ADD11O,2.100000X1.000000*%
%TD*%
%TA.AperFunction,ComponentPad*%
%ADD12R,1.000000X1.000000*%
%TD*%
%TA.AperFunction,ComponentPad*%
%ADD13O,1.000000X1.000000*%
%TD*%
%TA.AperFunction,ComponentPad*%
%ADD14R,1.700000X1.700000*%
%TD*%
%TA.AperFunction,ComponentPad*%
%ADD15O,1.700000X1.700000*%
%TD*%
%TA.AperFunction,ViaPad*%
%ADD16C,0.400000*%
%TD*%
%TA.AperFunction,ViaPad*%
%ADD17C,0.800000*%
%TD*%
%TA.AperFunction,ViaPad*%
%ADD18C,0.700000*%
%TD*%
%TA.AperFunction,ViaPad*%
%ADD19C,0.750000*%
%TD*%
%TA.AperFunction,ViaPad*%
%ADD20C,0.600000*%
%TD*%
%TA.AperFunction,Conductor*%
%ADD21C,0.400000*%
%TD*%
%TA.AperFunction,Conductor*%
%ADD22C,0.250000*%
%TD*%
%TA.AperFunction,Conductor*%
%ADD23C,0.254000*%
%TD*%
%TA.AperFunction,Conductor*%
%ADD24C,0.100000*%
%TD*%
G04 APERTURE END LIST*
D10*
%TO.N,N/C*%
%TO.C,J1*%
X172650000Y-95680000D03*
X172650000Y-104320000D03*
D11*
X168470000Y-104320000D03*
X168470000Y-95680000D03*
%TD*%
D12*
%TO.N,+5V*%
%TO.C,J5*%
X140830000Y-104447000D03*
D13*
%TO.N,GND*%
X140830000Y-103177000D03*
%TO.N,hdmi_cec*%
X140830000Y-101907000D03*
%TO.N,hdmi_utility*%
X140830000Y-100637000D03*
%TO.N,hdmi_scl*%
X140830000Y-99367000D03*
%TO.N,hdmi_sda*%
X140830000Y-98097000D03*
%TO.N,hdmi_5v*%
X140830000Y-96827000D03*
%TO.N,hdmi_hpd*%
X140830000Y-95557000D03*
%TD*%
D14*
%TO.N,GND*%
%TO.C,J4*%
X172200000Y-91800000D03*
D15*
%TO.N,swdio*%
X169660000Y-91800000D03*
%TO.N,swclk*%
X167120000Y-91800000D03*
%TO.N,GND*%
X164580000Y-91800000D03*
%TO.N,uart_rx*%
X162040000Y-91800000D03*
%TO.N,uart_tx*%
X159500000Y-91800000D03*
%TD*%
D16*
%TO.N,GND*%
X131000000Y-106800000D03*
X138500000Y-106300000D03*
X135500000Y-106300000D03*
X134000000Y-106800000D03*
D17*
X144500000Y-92400000D03*
X156570000Y-100860000D03*
D18*
X170530000Y-109040000D03*
D17*
X169120000Y-107140000D03*
X159330000Y-94200000D03*
X158037500Y-94200000D03*
X174000000Y-102000000D03*
X174000000Y-98000000D03*
D18*
X162470000Y-94200000D03*
D16*
X134000000Y-93700000D03*
X131000000Y-93700000D03*
X132500000Y-106300000D03*
X132500000Y-93200000D03*
D17*
X141775000Y-93200000D03*
X128225000Y-93200000D03*
X128225000Y-106800000D03*
X141775000Y-106800000D03*
D19*
X166850000Y-95850000D03*
X166850000Y-104150000D03*
D20*
X165600000Y-96900000D03*
X165600000Y-103100000D03*
D19*
X166720000Y-104900000D03*
X166720000Y-95100000D03*
D17*
X169570000Y-105820000D03*
X169580000Y-94170000D03*
X165020000Y-107140000D03*
D16*
X135500000Y-93200000D03*
X138500000Y-93200000D03*
D17*
X174000000Y-106000000D03*
X174000000Y-94000000D03*
X126000000Y-100000000D03*
X126000000Y-97000000D03*
X126000000Y-94000000D03*
X126000000Y-103000000D03*
X126000000Y-106000000D03*
X150000000Y-91000000D03*
X153000000Y-91000000D03*
X156000000Y-91000000D03*
X144000000Y-109000000D03*
X147000000Y-109000000D03*
X150000000Y-109000000D03*
X153000000Y-109000000D03*
X156000000Y-109000000D03*
X159020000Y-109000000D03*
X162000000Y-109000000D03*
D18*
X162470000Y-100520000D03*
D17*
X154560000Y-106130000D03*
X144500000Y-97265000D03*
D18*
X154530000Y-96320000D03*
D17*
X147000000Y-91000000D03*
X144000000Y-91000000D03*
X144500000Y-95325000D03*
D18*
%TO.N,+3V3*%
X152560000Y-100000000D03*
X162470000Y-96890000D03*
X159330000Y-96890000D03*
D17*
X165020000Y-109040000D03*
D18*
X159330000Y-99480000D03*
X162470000Y-99480000D03*
D17*
X160960000Y-106640000D03*
%TO.N,+5V*%
X170710000Y-93260000D03*
D18*
X154530000Y-95360000D03*
D17*
X146390000Y-102620000D03*
D16*
%TO.N,hdmi_hpd*%
X139500000Y-106300000D03*
X139500000Y-93200000D03*
%TO.N,hdmi_5v*%
X139000000Y-106800000D03*
X139000000Y-93700000D03*
%TO.N,hdmi_sda*%
X138000000Y-106800000D03*
X138000000Y-93700000D03*
D17*
X146080000Y-100540000D03*
X147600000Y-99050000D03*
D16*
%TO.N,hdmi_scl*%
X137500000Y-106300000D03*
X137500000Y-93200000D03*
%TO.N,hdmi_utility*%
X137000000Y-93700000D03*
%TO.N,hdmi_cec*%
X136500000Y-106300000D03*
X136500000Y-93200000D03*
%TO.N,Net-(J2-Pad12)*%
X136000000Y-93700000D03*
%TO.N,Net-(J2-Pad10)*%
X135000000Y-93700000D03*
%TO.N,Net-(J2-Pad9)*%
X134500000Y-106300000D03*
%TO.N,Net-(J2-Pad7)*%
X133500000Y-106300000D03*
%TO.N,Net-(J2-Pad6)*%
X133000000Y-93700000D03*
%TO.N,Net-(J2-Pad4)*%
X132000000Y-93700000D03*
%TO.N,Net-(J2-Pad3)*%
X131500000Y-106300000D03*
%TO.N,Net-(J2-Pad1)*%
X130500000Y-106300000D03*
D17*
%TO.N,hdmi_5v_en*%
X155400000Y-99100000D03*
X155400000Y-97000000D03*
D18*
%TO.N,Net-(R12-Pad1)*%
X164975010Y-94170000D03*
X162480000Y-101620000D03*
%TD*%
D21*
%TO.N,+5V*%
X144563000Y-104447000D02*
X146390000Y-102620000D01*
X140830000Y-104447000D02*
X144563000Y-104447000D01*
X156630000Y-93260000D02*
X154530000Y-95360000D01*
X170710000Y-93260000D02*
X156630000Y-93260000D01*
D22*
%TO.N,hdmi_sda*%
X147570000Y-99050000D02*
X146080000Y-100540000D01*
X147600000Y-99050000D02*
X147570000Y-99050000D01*
%TO.N,hdmi_5v_en*%
X155400000Y-97000000D02*
X155400000Y-99100000D01*
%TO.N,Net-(R12-Pad1)*%
X164120000Y-101620000D02*
X162480000Y-101620000D01*
X164910000Y-100830000D02*
X164120000Y-101620000D01*
X164910000Y-94235010D02*
X164910000Y-100830000D01*
X164975010Y-94170000D02*
X164910000Y-94235010D01*
%TD*%
D23*
%TO.N,+3V3*%
X146004774Y-90698102D02*
X145965000Y-90898061D01*
X145965000Y-91101939D01*
X146004774Y-91301898D01*
X146082795Y-91490256D01*
X146196063Y-91659774D01*
X146340226Y-91803937D01*
X146509744Y-91917205D01*
X146698102Y-91995226D01*
X146898061Y-92035000D01*
X147101939Y-92035000D01*
X147301898Y-91995226D01*
X147490256Y-91917205D01*
X147659774Y-91803937D01*
X147803937Y-91659774D01*
X147917205Y-91490256D01*
X147995226Y-91301898D01*
X148035000Y-91101939D01*
X148035000Y-90898061D01*
X147995226Y-90698102D01*
X147979444Y-90660000D01*
X149020556Y-90660000D01*
X149004774Y-90698102D01*
X148965000Y-90898061D01*
X148965000Y-91101939D01*
X149004774Y-91301898D01*
X149082795Y-91490256D01*
X149196063Y-91659774D01*
X149340226Y-91803937D01*
X149509744Y-91917205D01*
X149698102Y-91995226D01*
X149898061Y-92035000D01*
X150101939Y-92035000D01*
X150301898Y-91995226D01*
X150490256Y-91917205D01*
X150659774Y-91803937D01*
X150803937Y-91659774D01*
X150917205Y-91490256D01*
X150995226Y-91301898D01*
X151035000Y-91101939D01*
X151035000Y-90898061D01*
X150995226Y-90698102D01*
X150979444Y-90660000D01*
X152020556Y-90660000D01*
X152004774Y-90698102D01*
X151965000Y-90898061D01*
X151965000Y-91101939D01*
X152004774Y-91301898D01*
X152082795Y-91490256D01*
X152196063Y-91659774D01*
X152340226Y-91803937D01*
X152509744Y-91917205D01*
X152698102Y-91995226D01*
X152898061Y-92035000D01*
X153101939Y-92035000D01*
X153301898Y-91995226D01*
X153490256Y-91917205D01*
X153659774Y-91803937D01*
X153803937Y-91659774D01*
X153917205Y-91490256D01*
X153995226Y-91301898D01*
X154035000Y-91101939D01*
X154035000Y-90898061D01*
X153995226Y-90698102D01*
X153979444Y-90660000D01*
X155020556Y-90660000D01*
X155004774Y-90698102D01*
X154965000Y-90898061D01*
X154965000Y-91101939D01*
X155004774Y-91301898D01*
X155082795Y-91490256D01*
X155196063Y-91659774D01*
X155340226Y-91803937D01*
X155509744Y-91917205D01*
X155698102Y-91995226D01*
X155898061Y-92035000D01*
X156101939Y-92035000D01*
X156301898Y-91995226D01*
X156490256Y-91917205D01*
X156659774Y-91803937D01*
X156803937Y-91659774D01*
X156917205Y-91490256D01*
X156995226Y-91301898D01*
X157035000Y-91101939D01*
X157035000Y-90898061D01*
X156995226Y-90698102D01*
X156979444Y-90660000D01*
X158539893Y-90660000D01*
X158346525Y-90853368D01*
X158184010Y-91096589D01*
X158072068Y-91366842D01*
X158015000Y-91653740D01*
X158015000Y-91946260D01*
X158072068Y-92233158D01*
X158151531Y-92425000D01*
X156671007Y-92425000D01*
X156629999Y-92420961D01*
X156588991Y-92425000D01*
X156588981Y-92425000D01*
X156466311Y-92437082D01*
X156308913Y-92484828D01*
X156163854Y-92562364D01*
X156036709Y-92666709D01*
X156010559Y-92698573D01*
X154309587Y-94399546D01*
X154242686Y-94412853D01*
X154063428Y-94487104D01*
X153902099Y-94594901D01*
X153764901Y-94732099D01*
X153657104Y-94893428D01*
X153582853Y-95072686D01*
X153545000Y-95262986D01*
X153545000Y-95457014D01*
X153582853Y-95647314D01*
X153657104Y-95826572D01*
X153666076Y-95840000D01*
X153657104Y-95853428D01*
X153582853Y-96032686D01*
X153545000Y-96222986D01*
X153545000Y-96417014D01*
X153582853Y-96607314D01*
X153657104Y-96786572D01*
X153764901Y-96947901D01*
X153902099Y-97085099D01*
X154063428Y-97192896D01*
X154242686Y-97267147D01*
X154404254Y-97299285D01*
X154404774Y-97301898D01*
X154482795Y-97490256D01*
X154596063Y-97659774D01*
X154640000Y-97703711D01*
X154640001Y-98396288D01*
X154596063Y-98440226D01*
X154482795Y-98609744D01*
X154404774Y-98798102D01*
X154365000Y-98998061D01*
X154365000Y-99201939D01*
X154404774Y-99401898D01*
X154482795Y-99590256D01*
X154596063Y-99759774D01*
X154740226Y-99903937D01*
X154909744Y-100017205D01*
X155098102Y-100095226D01*
X155298061Y-100135000D01*
X155501939Y-100135000D01*
X155701898Y-100095226D01*
X155890256Y-100017205D01*
X156059774Y-99903937D01*
X156203937Y-99759774D01*
X156317205Y-99590256D01*
X156395226Y-99401898D01*
X156435000Y-99201939D01*
X156435000Y-98998061D01*
X156395226Y-98798102D01*
X156317205Y-98609744D01*
X156203937Y-98440226D01*
X156160000Y-98396289D01*
X156160000Y-97703711D01*
X156203937Y-97659774D01*
X156317205Y-97490256D01*
X156395226Y-97301898D01*
X156435000Y-97101939D01*
X156435000Y-96898061D01*
X156395226Y-96698102D01*
X156317205Y-96509744D01*
X156203937Y-96340226D01*
X156059774Y-96196063D01*
X155890256Y-96082795D01*
X155701898Y-96004774D01*
X155501939Y-95965000D01*
X155449111Y-95965000D01*
X155402896Y-95853428D01*
X155393924Y-95840000D01*
X155402896Y-95826572D01*
X155477147Y-95647314D01*
X155490454Y-95580413D01*
X156975868Y-94095000D01*
X157003109Y-94095000D01*
X157002500Y-94098061D01*
X157002500Y-94301939D01*
X157042274Y-94501898D01*
X157120295Y-94690256D01*
X157233563Y-94859774D01*
X157377726Y-95003937D01*
X157547244Y-95117205D01*
X157735602Y-95195226D01*
X157935561Y-95235000D01*
X158139439Y-95235000D01*
X158339398Y-95195226D01*
X158527756Y-95117205D01*
X158683750Y-95012973D01*
X158839744Y-95117205D01*
X159028102Y-95195226D01*
X159228061Y-95235000D01*
X159431939Y-95235000D01*
X159631898Y-95195226D01*
X159820256Y-95117205D01*
X159989774Y-95003937D01*
X160133937Y-94859774D01*
X160247205Y-94690256D01*
X160325226Y-94501898D01*
X160365000Y-94301939D01*
X160365000Y-94098061D01*
X160364391Y-94095000D01*
X161486589Y-94095000D01*
X161485000Y-94102986D01*
X161485000Y-94297014D01*
X161522853Y-94487314D01*
X161597104Y-94666572D01*
X161704901Y-94827901D01*
X161842099Y-94965099D01*
X162003428Y-95072896D01*
X162182686Y-95147147D01*
X162372986Y-95185000D01*
X162567014Y-95185000D01*
X162757314Y-95147147D01*
X162936572Y-95072896D01*
X163097901Y-94965099D01*
X163235099Y-94827901D01*
X163342896Y-94666572D01*
X163417147Y-94487314D01*
X163455000Y-94297014D01*
X163455000Y-94102986D01*
X163453411Y-94095000D01*
X163990010Y-94095000D01*
X163990010Y-94267014D01*
X164027863Y-94457314D01*
X164102114Y-94636572D01*
X164150000Y-94708238D01*
X164150001Y-100515197D01*
X163805199Y-100860000D01*
X163395324Y-100860000D01*
X163417147Y-100807314D01*
X163455000Y-100617014D01*
X163455000Y-100422986D01*
X163417147Y-100232686D01*
X163342896Y-100053428D01*
X163235099Y-99892099D01*
X163097901Y-99754901D01*
X162936572Y-99647104D01*
X162757314Y-99572853D01*
X162567014Y-99535000D01*
X162372986Y-99535000D01*
X162182686Y-99572853D01*
X162003428Y-99647104D01*
X161842099Y-99754901D01*
X161704901Y-99892099D01*
X161597104Y-100053428D01*
X161522853Y-100232686D01*
X161485000Y-100422986D01*
X161485000Y-100617014D01*
X161522853Y-100807314D01*
X161597104Y-100986572D01*
X161657849Y-101077483D01*
X161607104Y-101153428D01*
X161532853Y-101332686D01*
X161495000Y-101522986D01*
X161495000Y-101717014D01*
X161532853Y-101907314D01*
X161607104Y-102086572D01*
X161714901Y-102247901D01*
X161852099Y-102385099D01*
X162013428Y-102492896D01*
X162192686Y-102567147D01*
X162382986Y-102605000D01*
X162577014Y-102605000D01*
X162767314Y-102567147D01*
X162946572Y-102492896D01*
X163107901Y-102385099D01*
X163113000Y-102380000D01*
X164082678Y-102380000D01*
X164120000Y-102383676D01*
X164157322Y-102380000D01*
X164157333Y-102380000D01*
X164268986Y-102369003D01*
X164412247Y-102325546D01*
X164544276Y-102254974D01*
X164660001Y-102160001D01*
X164683803Y-102130998D01*
X165421002Y-101393799D01*
X165450001Y-101370001D01*
X165544974Y-101254276D01*
X165615546Y-101122247D01*
X165659003Y-100978986D01*
X165670000Y-100867333D01*
X165670000Y-100867325D01*
X165673676Y-100830000D01*
X165670000Y-100792675D01*
X165670000Y-97835000D01*
X165692089Y-97835000D01*
X165872729Y-97799068D01*
X166042889Y-97728586D01*
X166196028Y-97626262D01*
X166326262Y-97496028D01*
X166428586Y-97342889D01*
X166499068Y-97172729D01*
X166535000Y-96992089D01*
X166535000Y-96812739D01*
X166555394Y-96821186D01*
X166750524Y-96860000D01*
X166949476Y-96860000D01*
X167144606Y-96821186D01*
X167328414Y-96745050D01*
X167406819Y-96692661D01*
X167483553Y-96733676D01*
X167697501Y-96798577D01*
X167864248Y-96815000D01*
X168083096Y-96815000D01*
X168076892Y-96829978D01*
X168040000Y-97015448D01*
X168040000Y-97204552D01*
X168076892Y-97390022D01*
X168149259Y-97564731D01*
X168254319Y-97721964D01*
X168388036Y-97855681D01*
X168545269Y-97960741D01*
X168719978Y-98033108D01*
X168905448Y-98070000D01*
X169094552Y-98070000D01*
X169280022Y-98033108D01*
X169454731Y-97960741D01*
X169611964Y-97855681D01*
X169745681Y-97721964D01*
X169850741Y-97564731D01*
X169923108Y-97390022D01*
X169960000Y-97204552D01*
X169960000Y-97015448D01*
X169923108Y-96829978D01*
X169850741Y-96655269D01*
X169769285Y-96533362D01*
X169826449Y-96486449D01*
X169968284Y-96313623D01*
X170073676Y-96116447D01*
X170138577Y-95902499D01*
X170160491Y-95680000D01*
X170138577Y-95457501D01*
X170073676Y-95243553D01*
X170004635Y-95114386D01*
X170070256Y-95087205D01*
X170239774Y-94973937D01*
X170383937Y-94829774D01*
X170497205Y-94660256D01*
X170575226Y-94471898D01*
X170610413Y-94295000D01*
X170811939Y-94295000D01*
X171011898Y-94255226D01*
X171200256Y-94177205D01*
X171369774Y-94063937D01*
X171513937Y-93919774D01*
X171627205Y-93750256D01*
X171705226Y-93561898D01*
X171745000Y-93361939D01*
X171745000Y-93288072D01*
X173050000Y-93288072D01*
X173174482Y-93275812D01*
X173294180Y-93239502D01*
X173299781Y-93236508D01*
X173196063Y-93340226D01*
X173082795Y-93509744D01*
X173004774Y-93698102D01*
X172965000Y-93898061D01*
X172965000Y-94101939D01*
X173004774Y-94301898D01*
X173082795Y-94490256D01*
X173127378Y-94556979D01*
X173005752Y-94545000D01*
X172294248Y-94545000D01*
X172127501Y-94561423D01*
X171913553Y-94626324D01*
X171716377Y-94731716D01*
X171543551Y-94873551D01*
X171401716Y-95046377D01*
X171296324Y-95243553D01*
X171231423Y-95457501D01*
X171209509Y-95680000D01*
X171231423Y-95902499D01*
X171296324Y-96116447D01*
X171401716Y-96313623D01*
X171543551Y-96486449D01*
X171716377Y-96628284D01*
X171913553Y-96733676D01*
X172127501Y-96798577D01*
X172294248Y-96815000D01*
X173005752Y-96815000D01*
X173172499Y-96798577D01*
X173386447Y-96733676D01*
X173583623Y-96628284D01*
X173756449Y-96486449D01*
X173898284Y-96313623D01*
X174003676Y-96116447D01*
X174068577Y-95902499D01*
X174090491Y-95680000D01*
X174068577Y-95457501D01*
X174003676Y-95243553D01*
X173898284Y-95046377D01*
X173887169Y-95032833D01*
X173898061Y-95035000D01*
X174101939Y-95035000D01*
X174301898Y-94995226D01*
X174340000Y-94979443D01*
X174340000Y-97020557D01*
X174301898Y-97004774D01*
X174101939Y-96965000D01*
X173898061Y-96965000D01*
X173698102Y-97004774D01*
X173509744Y-97082795D01*
X173340226Y-97196063D01*
X173196063Y-97340226D01*
X173082795Y-97509744D01*
X173004774Y-97698102D01*
X172965000Y-97898061D01*
X172965000Y-98101939D01*
X173004774Y-98301898D01*
X173082795Y-98490256D01*
X173196063Y-98659774D01*
X173340226Y-98803937D01*
X173509744Y-98917205D01*
X173698102Y-98995226D01*
X173898061Y-99035000D01*
X174101939Y-99035000D01*
X174301898Y-98995226D01*
X174340000Y-98979443D01*
X174340001Y-101020557D01*
X174301898Y-101004774D01*
X174101939Y-100965000D01*
X173898061Y-100965000D01*
X173698102Y-101004774D01*
X173509744Y-101082795D01*
X173340226Y-101196063D01*
X173196063Y-101340226D01*
X173082795Y-101509744D01*
X173004774Y-101698102D01*
X172965000Y-101898061D01*
X172965000Y-102101939D01*
X173004774Y-102301898D01*
X173082795Y-102490256D01*
X173196063Y-102659774D01*
X173340226Y-102803937D01*
X173509744Y-102917205D01*
X173698102Y-102995226D01*
X173898061Y-103035000D01*
X174101939Y-103035000D01*
X174301898Y-102995226D01*
X174340001Y-102979443D01*
X174340001Y-105020557D01*
X174301898Y-105004774D01*
X174101939Y-104965000D01*
X173898061Y-104965000D01*
X173887169Y-104967167D01*
X173898284Y-104953623D01*
X174003676Y-104756447D01*
X174068577Y-104542499D01*
X174090491Y-104320000D01*
X174068577Y-104097501D01*
X174003676Y-103883553D01*
X173898284Y-103686377D01*
X173756449Y-103513551D01*
X173583623Y-103371716D01*
X173386447Y-103266324D01*
X173172499Y-103201423D01*
X173005752Y-103185000D01*
X172294248Y-103185000D01*
X172127501Y-103201423D01*
X171913553Y-103266324D01*
X171716377Y-103371716D01*
X171543551Y-103513551D01*
X171401716Y-103686377D01*
X171296324Y-103883553D01*
X171231423Y-104097501D01*
X171209509Y-104320000D01*
X171231423Y-104542499D01*
X171296324Y-104756447D01*
X171401716Y-104953623D01*
X171543551Y-105126449D01*
X171716377Y-105268284D01*
X171913553Y-105373676D01*
X172127501Y-105438577D01*
X172294248Y-105455000D01*
X173005752Y-105455000D01*
X173127378Y-105443021D01*
X173082795Y-105509744D01*
X173004774Y-105698102D01*
X172965000Y-105898061D01*
X172965000Y-106101939D01*
X173004774Y-106301898D01*
X173082795Y-106490256D01*
X173196063Y-106659774D01*
X173340226Y-106803937D01*
X173509744Y-106917205D01*
X173698102Y-106995226D01*
X173898061Y-107035000D01*
X174101939Y-107035000D01*
X174301898Y-106995226D01*
X174340001Y-106979443D01*
X174340001Y-107467711D01*
X174301853Y-107856776D01*
X174198238Y-108199964D01*
X174029939Y-108516489D01*
X173803365Y-108794296D01*
X173527146Y-109022805D01*
X173211803Y-109193310D01*
X172869344Y-109299319D01*
X172482288Y-109340000D01*
X171471892Y-109340000D01*
X171477147Y-109327314D01*
X171515000Y-109137014D01*
X171515000Y-108942986D01*
X171477147Y-108752686D01*
X171402896Y-108573428D01*
X171295099Y-108412099D01*
X171157901Y-108274901D01*
X170996572Y-108167104D01*
X170817314Y-108092853D01*
X170627014Y-108055000D01*
X170432986Y-108055000D01*
X170242686Y-108092853D01*
X170063428Y-108167104D01*
X169902099Y-108274901D01*
X169764901Y-108412099D01*
X169657104Y-108573428D01*
X169582853Y-108752686D01*
X169545000Y-108942986D01*
X169545000Y-109137014D01*
X169582853Y-109327314D01*
X169588108Y-109340000D01*
X162979444Y-109340000D01*
X162995226Y-109301898D01*
X163035000Y-109101939D01*
X163035000Y-108898061D01*
X162995226Y-108698102D01*
X162917205Y-108509744D01*
X162803937Y-108340226D01*
X162659774Y-108196063D01*
X162490256Y-108082795D01*
X162301898Y-108004774D01*
X162101939Y-107965000D01*
X161898061Y-107965000D01*
X161698102Y-108004774D01*
X161509744Y-108082795D01*
X161340226Y-108196063D01*
X161196063Y-108340226D01*
X161082795Y-108509744D01*
X161004774Y-108698102D01*
X160965000Y-108898061D01*
X160965000Y-109101939D01*
X161004774Y-109301898D01*
X161020556Y-109340000D01*
X159999444Y-109340000D01*
X160015226Y-109301898D01*
X160055000Y-109101939D01*
X160055000Y-108898061D01*
X160015226Y-108698102D01*
X159937205Y-108509744D01*
X159823937Y-108340226D01*
X159679774Y-108196063D01*
X159510256Y-108082795D01*
X159321898Y-108004774D01*
X159121939Y-107965000D01*
X158918061Y-107965000D01*
X158718102Y-108004774D01*
X158529744Y-108082795D01*
X158360226Y-108196063D01*
X158216063Y-108340226D01*
X158102795Y-108509744D01*
X158024774Y-108698102D01*
X157985000Y-108898061D01*
X157985000Y-109101939D01*
X158024774Y-109301898D01*
X158040556Y-109340000D01*
X156979444Y-109340000D01*
X156995226Y-109301898D01*
X157035000Y-109101939D01*
X157035000Y-108898061D01*
X156995226Y-108698102D01*
X156917205Y-108509744D01*
X156803937Y-108340226D01*
X156659774Y-108196063D01*
X156490256Y-108082795D01*
X156301898Y-108004774D01*
X156101939Y-107965000D01*
X155898061Y-107965000D01*
X155698102Y-108004774D01*
X155509744Y-108082795D01*
X155340226Y-108196063D01*
X155196063Y-108340226D01*
X155082795Y-108509744D01*
X155004774Y-108698102D01*
X154965000Y-108898061D01*
X154965000Y-109101939D01*
X155004774Y-109301898D01*
X155020556Y-109340000D01*
X153979444Y-109340000D01*
X153995226Y-109301898D01*
X154035000Y-109101939D01*
X154035000Y-108898061D01*
X153995226Y-108698102D01*
X153917205Y-108509744D01*
X153803937Y-108340226D01*
X153659774Y-108196063D01*
X153490256Y-108082795D01*
X153301898Y-108004774D01*
X153101939Y-107965000D01*
X152898061Y-107965000D01*
X152698102Y-108004774D01*
X152509744Y-108082795D01*
X152340226Y-108196063D01*
X152196063Y-108340226D01*
X152082795Y-108509744D01*
X152004774Y-108698102D01*
X151965000Y-108898061D01*
X151965000Y-109101939D01*
X152004774Y-109301898D01*
X152020556Y-109340000D01*
X150979444Y-109340000D01*
X150995226Y-109301898D01*
X151035000Y-109101939D01*
X151035000Y-108898061D01*
X150995226Y-108698102D01*
X150917205Y-108509744D01*
X150803937Y-108340226D01*
X150659774Y-108196063D01*
X150490256Y-108082795D01*
X150301898Y-108004774D01*
X150101939Y-107965000D01*
X149898061Y-107965000D01*
X149698102Y-108004774D01*
X149509744Y-108082795D01*
X149340226Y-108196063D01*
X149196063Y-108340226D01*
X149082795Y-108509744D01*
X149004774Y-108698102D01*
X148965000Y-108898061D01*
X148965000Y-109101939D01*
X149004774Y-109301898D01*
X149020556Y-109340000D01*
X147979444Y-109340000D01*
X147995226Y-109301898D01*
X148035000Y-109101939D01*
X148035000Y-108898061D01*
X147995226Y-108698102D01*
X147917205Y-108509744D01*
X147803937Y-108340226D01*
X147659774Y-108196063D01*
X147490256Y-108082795D01*
X147301898Y-108004774D01*
X147101939Y-107965000D01*
X146898061Y-107965000D01*
X146698102Y-108004774D01*
X146509744Y-108082795D01*
X146340226Y-108196063D01*
X146196063Y-108340226D01*
X146082795Y-108509744D01*
X146004774Y-108698102D01*
X145965000Y-108898061D01*
X145965000Y-109101939D01*
X146004774Y-109301898D01*
X146020556Y-109340000D01*
X144979444Y-109340000D01*
X144995226Y-109301898D01*
X145035000Y-109101939D01*
X145035000Y-108898061D01*
X144995226Y-108698102D01*
X144917205Y-108509744D01*
X144803937Y-108340226D01*
X144659774Y-108196063D01*
X144490256Y-108082795D01*
X144301898Y-108004774D01*
X144101939Y-107965000D01*
X143898061Y-107965000D01*
X143698102Y-108004774D01*
X143509744Y-108082795D01*
X143340226Y-108196063D01*
X143196063Y-108340226D01*
X143127000Y-108443586D01*
X143127000Y-106028061D01*
X153525000Y-106028061D01*
X153525000Y-106231939D01*
X153564774Y-106431898D01*
X153642795Y-106620256D01*
X153756063Y-106789774D01*
X153900226Y-106933937D01*
X154069744Y-107047205D01*
X154258102Y-107125226D01*
X154458061Y-107165000D01*
X154661939Y-107165000D01*
X154861898Y-107125226D01*
X155050256Y-107047205D01*
X155063941Y-107038061D01*
X163985000Y-107038061D01*
X163985000Y-107241939D01*
X164024774Y-107441898D01*
X164102795Y-107630256D01*
X164216063Y-107799774D01*
X164360226Y-107943937D01*
X164529744Y-108057205D01*
X164718102Y-108135226D01*
X164918061Y-108175000D01*
X165121939Y-108175000D01*
X165321898Y-108135226D01*
X165510256Y-108057205D01*
X165679774Y-107943937D01*
X165823937Y-107799774D01*
X165937205Y-107630256D01*
X166015226Y-107441898D01*
X166055000Y-107241939D01*
X166055000Y-107038061D01*
X166015226Y-106838102D01*
X165937205Y-106649744D01*
X165823937Y-106480226D01*
X165679774Y-106336063D01*
X165510256Y-106222795D01*
X165321898Y-106144774D01*
X165121939Y-106105000D01*
X164918061Y-106105000D01*
X164718102Y-106144774D01*
X164529744Y-106222795D01*
X164360226Y-106336063D01*
X164216063Y-106480226D01*
X164102795Y-106649744D01*
X164024774Y-106838102D01*
X163985000Y-107038061D01*
X155063941Y-107038061D01*
X155219774Y-106933937D01*
X155363937Y-106789774D01*
X155477205Y-106620256D01*
X155555226Y-106431898D01*
X155595000Y-106231939D01*
X155595000Y-106028061D01*
X155555226Y-105828102D01*
X155477205Y-105639744D01*
X155363937Y-105470226D01*
X155219774Y-105326063D01*
X155050256Y-105212795D01*
X154861898Y-105134774D01*
X154661939Y-105095000D01*
X154458061Y-105095000D01*
X154258102Y-105134774D01*
X154069744Y-105212795D01*
X153900226Y-105326063D01*
X153756063Y-105470226D01*
X153642795Y-105639744D01*
X153564774Y-105828102D01*
X153525000Y-106028061D01*
X143127000Y-106028061D01*
X143127000Y-105282000D01*
X144521982Y-105282000D01*
X144563000Y-105286040D01*
X144604018Y-105282000D01*
X144604019Y-105282000D01*
X144726689Y-105269918D01*
X144884087Y-105222172D01*
X145029146Y-105144636D01*
X145156291Y-105040291D01*
X145182446Y-105008421D01*
X146546775Y-103644092D01*
X146691898Y-103615226D01*
X146880256Y-103537205D01*
X147049774Y-103423937D01*
X147193937Y-103279774D01*
X147307205Y-103110256D01*
X147349597Y-103007911D01*
X164665000Y-103007911D01*
X164665000Y-103192089D01*
X164700932Y-103372729D01*
X164771414Y-103542889D01*
X164873738Y-103696028D01*
X165003972Y-103826262D01*
X165157111Y-103928586D01*
X165327271Y-103999068D01*
X165507911Y-104035000D01*
X165692089Y-104035000D01*
X165849309Y-104003727D01*
X165840000Y-104050524D01*
X165840000Y-104249476D01*
X165862929Y-104364747D01*
X165824950Y-104421586D01*
X165748814Y-104605394D01*
X165710000Y-104800524D01*
X165710000Y-104999476D01*
X165748814Y-105194606D01*
X165824950Y-105378414D01*
X165935482Y-105543837D01*
X166076163Y-105684518D01*
X166241586Y-105795050D01*
X166425394Y-105871186D01*
X166620524Y-105910000D01*
X166819476Y-105910000D01*
X167014606Y-105871186D01*
X167198414Y-105795050D01*
X167363837Y-105684518D01*
X167504518Y-105543837D01*
X167595521Y-105407641D01*
X167697501Y-105438577D01*
X167864248Y-105455000D01*
X168600912Y-105455000D01*
X168574774Y-105518102D01*
X168535000Y-105718061D01*
X168535000Y-105921939D01*
X168574774Y-106121898D01*
X168619424Y-106229691D01*
X168460226Y-106336063D01*
X168316063Y-106480226D01*
X168202795Y-106649744D01*
X168124774Y-106838102D01*
X168085000Y-107038061D01*
X168085000Y-107241939D01*
X168124774Y-107441898D01*
X168202795Y-107630256D01*
X168316063Y-107799774D01*
X168460226Y-107943937D01*
X168629744Y-108057205D01*
X168818102Y-108135226D01*
X169018061Y-108175000D01*
X169221939Y-108175000D01*
X169421898Y-108135226D01*
X169610256Y-108057205D01*
X169779774Y-107943937D01*
X169923937Y-107799774D01*
X170037205Y-107630256D01*
X170115226Y-107441898D01*
X170155000Y-107241939D01*
X170155000Y-107038061D01*
X170115226Y-106838102D01*
X170070576Y-106730309D01*
X170229774Y-106623937D01*
X170373937Y-106479774D01*
X170487205Y-106310256D01*
X170565226Y-106121898D01*
X170605000Y-105921939D01*
X170605000Y-105718061D01*
X170565226Y-105518102D01*
X170487205Y-105329744D01*
X170373937Y-105160226D01*
X170229774Y-105016063D01*
X170060256Y-104902795D01*
X170007199Y-104880818D01*
X170073676Y-104756447D01*
X170138577Y-104542499D01*
X170160491Y-104320000D01*
X170138577Y-104097501D01*
X170073676Y-103883553D01*
X169968284Y-103686377D01*
X169826449Y-103513551D01*
X169769285Y-103466638D01*
X169850741Y-103344731D01*
X169923108Y-103170022D01*
X169960000Y-102984552D01*
X169960000Y-102795448D01*
X169923108Y-102609978D01*
X169850741Y-102435269D01*
X169745681Y-102278036D01*
X169611964Y-102144319D01*
X169454731Y-102039259D01*
X169280022Y-101966892D01*
X169094552Y-101930000D01*
X168905448Y-101930000D01*
X168719978Y-101966892D01*
X168545269Y-102039259D01*
X168388036Y-102144319D01*
X168254319Y-102278036D01*
X168149259Y-102435269D01*
X168076892Y-102609978D01*
X168040000Y-102795448D01*
X168040000Y-102984552D01*
X168076892Y-103170022D01*
X168083096Y-103185000D01*
X167864248Y-103185000D01*
X167697501Y-103201423D01*
X167483553Y-103266324D01*
X167406819Y-103307339D01*
X167328414Y-103254950D01*
X167144606Y-103178814D01*
X166949476Y-103140000D01*
X166750524Y-103140000D01*
X166555394Y-103178814D01*
X166535000Y-103187261D01*
X166535000Y-103007911D01*
X166499068Y-102827271D01*
X166428586Y-102657111D01*
X166326262Y-102503972D01*
X166196028Y-102373738D01*
X166042889Y-102271414D01*
X165872729Y-102200932D01*
X165692089Y-102165000D01*
X165507911Y-102165000D01*
X165327271Y-102200932D01*
X165157111Y-102271414D01*
X165003972Y-102373738D01*
X164873738Y-102503972D01*
X164771414Y-102657111D01*
X164700932Y-102827271D01*
X164665000Y-103007911D01*
X147349597Y-103007911D01*
X147385226Y-102921898D01*
X147425000Y-102721939D01*
X147425000Y-102518061D01*
X147385226Y-102318102D01*
X147307205Y-102129744D01*
X147193937Y-101960226D01*
X147049774Y-101816063D01*
X146880256Y-101702795D01*
X146691898Y-101624774D01*
X146491939Y-101585000D01*
X146288061Y-101585000D01*
X146088102Y-101624774D01*
X145899744Y-101702795D01*
X145730226Y-101816063D01*
X145586063Y-101960226D01*
X145472795Y-102129744D01*
X145394774Y-102318102D01*
X145365908Y-102463225D01*
X144217133Y-103612000D01*
X143127000Y-103612000D01*
X143127000Y-100438061D01*
X145045000Y-100438061D01*
X145045000Y-100641939D01*
X145084774Y-100841898D01*
X145162795Y-101030256D01*
X145276063Y-101199774D01*
X145420226Y-101343937D01*
X145589744Y-101457205D01*
X145778102Y-101535226D01*
X145978061Y-101575000D01*
X146181939Y-101575000D01*
X146381898Y-101535226D01*
X146570256Y-101457205D01*
X146739774Y-101343937D01*
X146883937Y-101199774D01*
X146997205Y-101030256D01*
X147075226Y-100841898D01*
X147091902Y-100758061D01*
X155535000Y-100758061D01*
X155535000Y-100961939D01*
X155574774Y-101161898D01*
X155652795Y-101350256D01*
X155766063Y-101519774D01*
X155910226Y-101663937D01*
X156079744Y-101777205D01*
X156268102Y-101855226D01*
X156468061Y-101895000D01*
X156671939Y-101895000D01*
X156871898Y-101855226D01*
X157060256Y-101777205D01*
X157229774Y-101663937D01*
X157373937Y-101519774D01*
X157487205Y-101350256D01*
X157565226Y-101161898D01*
X157605000Y-100961939D01*
X157605000Y-100758061D01*
X157565226Y-100558102D01*
X157487205Y-100369744D01*
X157373937Y-100200226D01*
X157229774Y-100056063D01*
X157060256Y-99942795D01*
X156871898Y-99864774D01*
X156671939Y-99825000D01*
X156468061Y-99825000D01*
X156268102Y-99864774D01*
X156079744Y-99942795D01*
X155910226Y-100056063D01*
X155766063Y-100200226D01*
X155652795Y-100369744D01*
X155574774Y-100558102D01*
X155535000Y-100758061D01*
X147091902Y-100758061D01*
X147115000Y-100641939D01*
X147115000Y-100579801D01*
X147609802Y-100085000D01*
X147701939Y-100085000D01*
X147901898Y-100045226D01*
X148090256Y-99967205D01*
X148259774Y-99853937D01*
X148403937Y-99709774D01*
X148517205Y-99540256D01*
X148595226Y-99351898D01*
X148635000Y-99151939D01*
X148635000Y-98948061D01*
X148595226Y-98748102D01*
X148517205Y-98559744D01*
X148403937Y-98390226D01*
X148259774Y-98246063D01*
X148090256Y-98132795D01*
X147901898Y-98054774D01*
X147701939Y-98015000D01*
X147498061Y-98015000D01*
X147298102Y-98054774D01*
X147109744Y-98132795D01*
X146940226Y-98246063D01*
X146796063Y-98390226D01*
X146682795Y-98559744D01*
X146604774Y-98748102D01*
X146565000Y-98948061D01*
X146565000Y-98980198D01*
X146040199Y-99505000D01*
X145978061Y-99505000D01*
X145778102Y-99544774D01*
X145589744Y-99622795D01*
X145420226Y-99736063D01*
X145276063Y-99880226D01*
X145162795Y-100049744D01*
X145084774Y-100238102D01*
X145045000Y-100438061D01*
X143127000Y-100438061D01*
X143127000Y-95223061D01*
X143465000Y-95223061D01*
X143465000Y-95426939D01*
X143504774Y-95626898D01*
X143582795Y-95815256D01*
X143696063Y-95984774D01*
X143840226Y-96128937D01*
X144009744Y-96242205D01*
X144137201Y-96295000D01*
X144009744Y-96347795D01*
X143840226Y-96461063D01*
X143696063Y-96605226D01*
X143582795Y-96774744D01*
X143504774Y-96963102D01*
X143465000Y-97163061D01*
X143465000Y-97366939D01*
X143504774Y-97566898D01*
X143582795Y-97755256D01*
X143696063Y-97924774D01*
X143840226Y-98068937D01*
X144009744Y-98182205D01*
X144198102Y-98260226D01*
X144398061Y-98300000D01*
X144601939Y-98300000D01*
X144801898Y-98260226D01*
X144990256Y-98182205D01*
X145159774Y-98068937D01*
X145303937Y-97924774D01*
X145417205Y-97755256D01*
X145495226Y-97566898D01*
X145535000Y-97366939D01*
X145535000Y-97163061D01*
X145495226Y-96963102D01*
X145417205Y-96774744D01*
X145303937Y-96605226D01*
X145159774Y-96461063D01*
X144990256Y-96347795D01*
X144862799Y-96295000D01*
X144990256Y-96242205D01*
X145159774Y-96128937D01*
X145303937Y-95984774D01*
X145417205Y-95815256D01*
X145495226Y-95626898D01*
X145535000Y-95426939D01*
X145535000Y-95223061D01*
X145495226Y-95023102D01*
X145417205Y-94834744D01*
X145303937Y-94665226D01*
X145159774Y-94521063D01*
X144990256Y-94407795D01*
X144801898Y-94329774D01*
X144601939Y-94290000D01*
X144398061Y-94290000D01*
X144198102Y-94329774D01*
X144009744Y-94407795D01*
X143840226Y-94521063D01*
X143696063Y-94665226D01*
X143582795Y-94834744D01*
X143504774Y-95023102D01*
X143465000Y-95223061D01*
X143127000Y-95223061D01*
X143127000Y-91556414D01*
X143196063Y-91659774D01*
X143340226Y-91803937D01*
X143509744Y-91917205D01*
X143569459Y-91941940D01*
X143504774Y-92098102D01*
X143465000Y-92298061D01*
X143465000Y-92501939D01*
X143504774Y-92701898D01*
X143582795Y-92890256D01*
X143696063Y-93059774D01*
X143840226Y-93203937D01*
X144009744Y-93317205D01*
X144198102Y-93395226D01*
X144398061Y-93435000D01*
X144601939Y-93435000D01*
X144801898Y-93395226D01*
X144990256Y-93317205D01*
X145159774Y-93203937D01*
X145303937Y-93059774D01*
X145417205Y-92890256D01*
X145495226Y-92701898D01*
X145535000Y-92501939D01*
X145535000Y-92298061D01*
X145495226Y-92098102D01*
X145417205Y-91909744D01*
X145303937Y-91740226D01*
X145159774Y-91596063D01*
X144990256Y-91482795D01*
X144930541Y-91458060D01*
X144995226Y-91301898D01*
X145035000Y-91101939D01*
X145035000Y-90898061D01*
X144995226Y-90698102D01*
X144979444Y-90660000D01*
X146020556Y-90660000D01*
X146004774Y-90698102D01*
%TA.AperFunction,Conductor*%
D24*
G36*
X146004774Y-90698102D02*
G01*
X145965000Y-90898061D01*
X145965000Y-91101939D01*
X146004774Y-91301898D01*
X146082795Y-91490256D01*
X146196063Y-91659774D01*
X146340226Y-91803937D01*
X146509744Y-91917205D01*
X146698102Y-91995226D01*
X146898061Y-92035000D01*
X147101939Y-92035000D01*
X147301898Y-91995226D01*
X147490256Y-91917205D01*
X147659774Y-91803937D01*
X147803937Y-91659774D01*
X147917205Y-91490256D01*
X147995226Y-91301898D01*
X148035000Y-91101939D01*
X148035000Y-90898061D01*
X147995226Y-90698102D01*
X147979444Y-90660000D01*
X149020556Y-90660000D01*
X149004774Y-90698102D01*
X148965000Y-90898061D01*
X148965000Y-91101939D01*
X149004774Y-91301898D01*
X149082795Y-91490256D01*
X149196063Y-91659774D01*
X149340226Y-91803937D01*
X149509744Y-91917205D01*
X149698102Y-91995226D01*
X149898061Y-92035000D01*
X150101939Y-92035000D01*
X150301898Y-91995226D01*
X150490256Y-91917205D01*
X150659774Y-91803937D01*
X150803937Y-91659774D01*
X150917205Y-91490256D01*
X150995226Y-91301898D01*
X151035000Y-91101939D01*
X151035000Y-90898061D01*
X150995226Y-90698102D01*
X150979444Y-90660000D01*
X152020556Y-90660000D01*
X152004774Y-90698102D01*
X151965000Y-90898061D01*
X151965000Y-91101939D01*
X152004774Y-91301898D01*
X152082795Y-91490256D01*
X152196063Y-91659774D01*
X152340226Y-91803937D01*
X152509744Y-91917205D01*
X152698102Y-91995226D01*
X152898061Y-92035000D01*
X153101939Y-92035000D01*
X153301898Y-91995226D01*
X153490256Y-91917205D01*
X153659774Y-91803937D01*
X153803937Y-91659774D01*
X153917205Y-91490256D01*
X153995226Y-91301898D01*
X154035000Y-91101939D01*
X154035000Y-90898061D01*
X153995226Y-90698102D01*
X153979444Y-90660000D01*
X155020556Y-90660000D01*
X155004774Y-90698102D01*
X154965000Y-90898061D01*
X154965000Y-91101939D01*
X155004774Y-91301898D01*
X155082795Y-91490256D01*
X155196063Y-91659774D01*
X155340226Y-91803937D01*
X155509744Y-91917205D01*
X155698102Y-91995226D01*
X155898061Y-92035000D01*
X156101939Y-92035000D01*
X156301898Y-91995226D01*
X156490256Y-91917205D01*
X156659774Y-91803937D01*
X156803937Y-91659774D01*
X156917205Y-91490256D01*
X156995226Y-91301898D01*
X157035000Y-91101939D01*
X157035000Y-90898061D01*
X156995226Y-90698102D01*
X156979444Y-90660000D01*
X158539893Y-90660000D01*
X158346525Y-90853368D01*
X158184010Y-91096589D01*
X158072068Y-91366842D01*
X158015000Y-91653740D01*
X158015000Y-91946260D01*
X158072068Y-92233158D01*
X158151531Y-92425000D01*
X156671007Y-92425000D01*
X156629999Y-92420961D01*
X156588991Y-92425000D01*
X156588981Y-92425000D01*
X156466311Y-92437082D01*
X156308913Y-92484828D01*
X156163854Y-92562364D01*
X156036709Y-92666709D01*
X156010559Y-92698573D01*
X154309587Y-94399546D01*
X154242686Y-94412853D01*
X154063428Y-94487104D01*
X153902099Y-94594901D01*
X153764901Y-94732099D01*
X153657104Y-94893428D01*
X153582853Y-95072686D01*
X153545000Y-95262986D01*
X153545000Y-95457014D01*
X153582853Y-95647314D01*
X153657104Y-95826572D01*
X153666076Y-95840000D01*
X153657104Y-95853428D01*
X153582853Y-96032686D01*
X153545000Y-96222986D01*
X153545000Y-96417014D01*
X153582853Y-96607314D01*
X153657104Y-96786572D01*
X153764901Y-96947901D01*
X153902099Y-97085099D01*
X154063428Y-97192896D01*
X154242686Y-97267147D01*
X154404254Y-97299285D01*
X154404774Y-97301898D01*
X154482795Y-97490256D01*
X154596063Y-97659774D01*
X154640000Y-97703711D01*
X154640001Y-98396288D01*
X154596063Y-98440226D01*
X154482795Y-98609744D01*
X154404774Y-98798102D01*
X154365000Y-98998061D01*
X154365000Y-99201939D01*
X154404774Y-99401898D01*
X154482795Y-99590256D01*
X154596063Y-99759774D01*
X154740226Y-99903937D01*
X154909744Y-100017205D01*
X155098102Y-100095226D01*
X155298061Y-100135000D01*
X155501939Y-100135000D01*
X155701898Y-100095226D01*
X155890256Y-100017205D01*
X156059774Y-99903937D01*
X156203937Y-99759774D01*
X156317205Y-99590256D01*
X156395226Y-99401898D01*
X156435000Y-99201939D01*
X156435000Y-98998061D01*
X156395226Y-98798102D01*
X156317205Y-98609744D01*
X156203937Y-98440226D01*
X156160000Y-98396289D01*
X156160000Y-97703711D01*
X156203937Y-97659774D01*
X156317205Y-97490256D01*
X156395226Y-97301898D01*
X156435000Y-97101939D01*
X156435000Y-96898061D01*
X156395226Y-96698102D01*
X156317205Y-96509744D01*
X156203937Y-96340226D01*
X156059774Y-96196063D01*
X155890256Y-96082795D01*
X155701898Y-96004774D01*
X155501939Y-95965000D01*
X155449111Y-95965000D01*
X155402896Y-95853428D01*
X155393924Y-95840000D01*
X155402896Y-95826572D01*
X155477147Y-95647314D01*
X155490454Y-95580413D01*
X156975868Y-94095000D01*
X157003109Y-94095000D01*
X157002500Y-94098061D01*
X157002500Y-94301939D01*
X157042274Y-94501898D01*
X157120295Y-94690256D01*
X157233563Y-94859774D01*
X157377726Y-95003937D01*
X157547244Y-95117205D01*
X157735602Y-95195226D01*
X157935561Y-95235000D01*
X158139439Y-95235000D01*
X158339398Y-95195226D01*
X158527756Y-95117205D01*
X158683750Y-95012973D01*
X158839744Y-95117205D01*
X159028102Y-95195226D01*
X159228061Y-95235000D01*
X159431939Y-95235000D01*
X159631898Y-95195226D01*
X159820256Y-95117205D01*
X159989774Y-95003937D01*
X160133937Y-94859774D01*
X160247205Y-94690256D01*
X160325226Y-94501898D01*
X160365000Y-94301939D01*
X160365000Y-94098061D01*
X160364391Y-94095000D01*
X161486589Y-94095000D01*
X161485000Y-94102986D01*
X161485000Y-94297014D01*
X161522853Y-94487314D01*
X161597104Y-94666572D01*
X161704901Y-94827901D01*
X161842099Y-94965099D01*
X162003428Y-95072896D01*
X162182686Y-95147147D01*
X162372986Y-95185000D01*
X162567014Y-95185000D01*
X162757314Y-95147147D01*
X162936572Y-95072896D01*
X163097901Y-94965099D01*
X163235099Y-94827901D01*
X163342896Y-94666572D01*
X163417147Y-94487314D01*
X163455000Y-94297014D01*
X163455000Y-94102986D01*
X163453411Y-94095000D01*
X163990010Y-94095000D01*
X163990010Y-94267014D01*
X164027863Y-94457314D01*
X164102114Y-94636572D01*
X164150000Y-94708238D01*
X164150001Y-100515197D01*
X163805199Y-100860000D01*
X163395324Y-100860000D01*
X163417147Y-100807314D01*
X163455000Y-100617014D01*
X163455000Y-100422986D01*
X163417147Y-100232686D01*
X163342896Y-100053428D01*
X163235099Y-99892099D01*
X163097901Y-99754901D01*
X162936572Y-99647104D01*
X162757314Y-99572853D01*
X162567014Y-99535000D01*
X162372986Y-99535000D01*
X162182686Y-99572853D01*
X162003428Y-99647104D01*
X161842099Y-99754901D01*
X161704901Y-99892099D01*
X161597104Y-100053428D01*
X161522853Y-100232686D01*
X161485000Y-100422986D01*
X161485000Y-100617014D01*
X161522853Y-100807314D01*
X161597104Y-100986572D01*
X161657849Y-101077483D01*
X161607104Y-101153428D01*
X161532853Y-101332686D01*
X161495000Y-101522986D01*
X161495000Y-101717014D01*
X161532853Y-101907314D01*
X161607104Y-102086572D01*
X161714901Y-102247901D01*
X161852099Y-102385099D01*
X162013428Y-102492896D01*
X162192686Y-102567147D01*
X162382986Y-102605000D01*
X162577014Y-102605000D01*
X162767314Y-102567147D01*
X162946572Y-102492896D01*
X163107901Y-102385099D01*
X163113000Y-102380000D01*
X164082678Y-102380000D01*
X164120000Y-102383676D01*
X164157322Y-102380000D01*
X164157333Y-102380000D01*
X164268986Y-102369003D01*
X164412247Y-102325546D01*
X164544276Y-102254974D01*
X164660001Y-102160001D01*
X164683803Y-102130998D01*
X165421002Y-101393799D01*
X165450001Y-101370001D01*
X165544974Y-101254276D01*
X165615546Y-101122247D01*
X165659003Y-100978986D01*
X165670000Y-100867333D01*
X165670000Y-100867325D01*
X165673676Y-100830000D01*
X165670000Y-100792675D01*
X165670000Y-97835000D01*
X165692089Y-97835000D01*
X165872729Y-97799068D01*
X166042889Y-97728586D01*
X166196028Y-97626262D01*
X166326262Y-97496028D01*
X166428586Y-97342889D01*
X166499068Y-97172729D01*
X166535000Y-96992089D01*
X166535000Y-96812739D01*
X166555394Y-96821186D01*
X166750524Y-96860000D01*
X166949476Y-96860000D01*
X167144606Y-96821186D01*
X167328414Y-96745050D01*
X167406819Y-96692661D01*
X167483553Y-96733676D01*
X167697501Y-96798577D01*
X167864248Y-96815000D01*
X168083096Y-96815000D01*
X168076892Y-96829978D01*
X168040000Y-97015448D01*
X168040000Y-97204552D01*
X168076892Y-97390022D01*
X168149259Y-97564731D01*
X168254319Y-97721964D01*
X168388036Y-97855681D01*
X168545269Y-97960741D01*
X168719978Y-98033108D01*
X168905448Y-98070000D01*
X169094552Y-98070000D01*
X169280022Y-98033108D01*
X169454731Y-97960741D01*
X169611964Y-97855681D01*
X169745681Y-97721964D01*
X169850741Y-97564731D01*
X169923108Y-97390022D01*
X169960000Y-97204552D01*
X169960000Y-97015448D01*
X169923108Y-96829978D01*
X169850741Y-96655269D01*
X169769285Y-96533362D01*
X169826449Y-96486449D01*
X169968284Y-96313623D01*
X170073676Y-96116447D01*
X170138577Y-95902499D01*
X170160491Y-95680000D01*
X170138577Y-95457501D01*
X170073676Y-95243553D01*
X170004635Y-95114386D01*
X170070256Y-95087205D01*
X170239774Y-94973937D01*
X170383937Y-94829774D01*
X170497205Y-94660256D01*
X170575226Y-94471898D01*
X170610413Y-94295000D01*
X170811939Y-94295000D01*
X171011898Y-94255226D01*
X171200256Y-94177205D01*
X171369774Y-94063937D01*
X171513937Y-93919774D01*
X171627205Y-93750256D01*
X171705226Y-93561898D01*
X171745000Y-93361939D01*
X171745000Y-93288072D01*
X173050000Y-93288072D01*
X173174482Y-93275812D01*
X173294180Y-93239502D01*
X173299781Y-93236508D01*
X173196063Y-93340226D01*
X173082795Y-93509744D01*
X173004774Y-93698102D01*
X172965000Y-93898061D01*
X172965000Y-94101939D01*
X173004774Y-94301898D01*
X173082795Y-94490256D01*
X173127378Y-94556979D01*
X173005752Y-94545000D01*
X172294248Y-94545000D01*
X172127501Y-94561423D01*
X171913553Y-94626324D01*
X171716377Y-94731716D01*
X171543551Y-94873551D01*
X171401716Y-95046377D01*
X171296324Y-95243553D01*
X171231423Y-95457501D01*
X171209509Y-95680000D01*
X171231423Y-95902499D01*
X171296324Y-96116447D01*
X171401716Y-96313623D01*
X171543551Y-96486449D01*
X171716377Y-96628284D01*
X171913553Y-96733676D01*
X172127501Y-96798577D01*
X172294248Y-96815000D01*
X173005752Y-96815000D01*
X173172499Y-96798577D01*
X173386447Y-96733676D01*
X173583623Y-96628284D01*
X173756449Y-96486449D01*
X173898284Y-96313623D01*
X174003676Y-96116447D01*
X174068577Y-95902499D01*
X174090491Y-95680000D01*
X174068577Y-95457501D01*
X174003676Y-95243553D01*
X173898284Y-95046377D01*
X173887169Y-95032833D01*
X173898061Y-95035000D01*
X174101939Y-95035000D01*
X174301898Y-94995226D01*
X174340000Y-94979443D01*
X174340000Y-97020557D01*
X174301898Y-97004774D01*
X174101939Y-96965000D01*
X173898061Y-96965000D01*
X173698102Y-97004774D01*
X173509744Y-97082795D01*
X173340226Y-97196063D01*
X173196063Y-97340226D01*
X173082795Y-97509744D01*
X173004774Y-97698102D01*
X172965000Y-97898061D01*
X172965000Y-98101939D01*
X173004774Y-98301898D01*
X173082795Y-98490256D01*
X173196063Y-98659774D01*
X173340226Y-98803937D01*
X173509744Y-98917205D01*
X173698102Y-98995226D01*
X173898061Y-99035000D01*
X174101939Y-99035000D01*
X174301898Y-98995226D01*
X174340000Y-98979443D01*
X174340001Y-101020557D01*
X174301898Y-101004774D01*
X174101939Y-100965000D01*
X173898061Y-100965000D01*
X173698102Y-101004774D01*
X173509744Y-101082795D01*
X173340226Y-101196063D01*
X173196063Y-101340226D01*
X173082795Y-101509744D01*
X173004774Y-101698102D01*
X172965000Y-101898061D01*
X172965000Y-102101939D01*
X173004774Y-102301898D01*
X173082795Y-102490256D01*
X173196063Y-102659774D01*
X173340226Y-102803937D01*
X173509744Y-102917205D01*
X173698102Y-102995226D01*
X173898061Y-103035000D01*
X174101939Y-103035000D01*
X174301898Y-102995226D01*
X174340001Y-102979443D01*
X174340001Y-105020557D01*
X174301898Y-105004774D01*
X174101939Y-104965000D01*
X173898061Y-104965000D01*
X173887169Y-104967167D01*
X173898284Y-104953623D01*
X174003676Y-104756447D01*
X174068577Y-104542499D01*
X174090491Y-104320000D01*
X174068577Y-104097501D01*
X174003676Y-103883553D01*
X173898284Y-103686377D01*
X173756449Y-103513551D01*
X173583623Y-103371716D01*
X173386447Y-103266324D01*
X173172499Y-103201423D01*
X173005752Y-103185000D01*
X172294248Y-103185000D01*
X172127501Y-103201423D01*
X171913553Y-103266324D01*
X171716377Y-103371716D01*
X171543551Y-103513551D01*
X171401716Y-103686377D01*
X171296324Y-103883553D01*
X171231423Y-104097501D01*
X171209509Y-104320000D01*
X171231423Y-104542499D01*
X171296324Y-104756447D01*
X171401716Y-104953623D01*
X171543551Y-105126449D01*
X171716377Y-105268284D01*
X171913553Y-105373676D01*
X172127501Y-105438577D01*
X172294248Y-105455000D01*
X173005752Y-105455000D01*
X173127378Y-105443021D01*
X173082795Y-105509744D01*
X173004774Y-105698102D01*
X172965000Y-105898061D01*
X172965000Y-106101939D01*
X173004774Y-106301898D01*
X173082795Y-106490256D01*
X173196063Y-106659774D01*
X173340226Y-106803937D01*
X173509744Y-106917205D01*
X173698102Y-106995226D01*
X173898061Y-107035000D01*
X174101939Y-107035000D01*
X174301898Y-106995226D01*
X174340001Y-106979443D01*
X174340001Y-107467711D01*
X174301853Y-107856776D01*
X174198238Y-108199964D01*
X174029939Y-108516489D01*
X173803365Y-108794296D01*
X173527146Y-109022805D01*
X173211803Y-109193310D01*
X172869344Y-109299319D01*
X172482288Y-109340000D01*
X171471892Y-109340000D01*
X171477147Y-109327314D01*
X171515000Y-109137014D01*
X171515000Y-108942986D01*
X171477147Y-108752686D01*
X171402896Y-108573428D01*
X171295099Y-108412099D01*
X171157901Y-108274901D01*
X170996572Y-108167104D01*
X170817314Y-108092853D01*
X170627014Y-108055000D01*
X170432986Y-108055000D01*
X170242686Y-108092853D01*
X170063428Y-108167104D01*
X169902099Y-108274901D01*
X169764901Y-108412099D01*
X169657104Y-108573428D01*
X169582853Y-108752686D01*
X169545000Y-108942986D01*
X169545000Y-109137014D01*
X169582853Y-109327314D01*
X169588108Y-109340000D01*
X162979444Y-109340000D01*
X162995226Y-109301898D01*
X163035000Y-109101939D01*
X163035000Y-108898061D01*
X162995226Y-108698102D01*
X162917205Y-108509744D01*
X162803937Y-108340226D01*
X162659774Y-108196063D01*
X162490256Y-108082795D01*
X162301898Y-108004774D01*
X162101939Y-107965000D01*
X161898061Y-107965000D01*
X161698102Y-108004774D01*
X161509744Y-108082795D01*
X161340226Y-108196063D01*
X161196063Y-108340226D01*
X161082795Y-108509744D01*
X161004774Y-108698102D01*
X160965000Y-108898061D01*
X160965000Y-109101939D01*
X161004774Y-109301898D01*
X161020556Y-109340000D01*
X159999444Y-109340000D01*
X160015226Y-109301898D01*
X160055000Y-109101939D01*
X160055000Y-108898061D01*
X160015226Y-108698102D01*
X159937205Y-108509744D01*
X159823937Y-108340226D01*
X159679774Y-108196063D01*
X159510256Y-108082795D01*
X159321898Y-108004774D01*
X159121939Y-107965000D01*
X158918061Y-107965000D01*
X158718102Y-108004774D01*
X158529744Y-108082795D01*
X158360226Y-108196063D01*
X158216063Y-108340226D01*
X158102795Y-108509744D01*
X158024774Y-108698102D01*
X157985000Y-108898061D01*
X157985000Y-109101939D01*
X158024774Y-109301898D01*
X158040556Y-109340000D01*
X156979444Y-109340000D01*
X156995226Y-109301898D01*
X157035000Y-109101939D01*
X157035000Y-108898061D01*
X156995226Y-108698102D01*
X156917205Y-108509744D01*
X156803937Y-108340226D01*
X156659774Y-108196063D01*
X156490256Y-108082795D01*
X156301898Y-108004774D01*
X156101939Y-107965000D01*
X155898061Y-107965000D01*
X155698102Y-108004774D01*
X155509744Y-108082795D01*
X155340226Y-108196063D01*
X155196063Y-108340226D01*
X155082795Y-108509744D01*
X155004774Y-108698102D01*
X154965000Y-108898061D01*
X154965000Y-109101939D01*
X155004774Y-109301898D01*
X155020556Y-109340000D01*
X153979444Y-109340000D01*
X153995226Y-109301898D01*
X154035000Y-109101939D01*
X154035000Y-108898061D01*
X153995226Y-108698102D01*
X153917205Y-108509744D01*
X153803937Y-108340226D01*
X153659774Y-108196063D01*
X153490256Y-108082795D01*
X153301898Y-108004774D01*
X153101939Y-107965000D01*
X152898061Y-107965000D01*
X152698102Y-108004774D01*
X152509744Y-108082795D01*
X152340226Y-108196063D01*
X152196063Y-108340226D01*
X152082795Y-108509744D01*
X152004774Y-108698102D01*
X151965000Y-108898061D01*
X151965000Y-109101939D01*
X152004774Y-109301898D01*
X152020556Y-109340000D01*
X150979444Y-109340000D01*
X150995226Y-109301898D01*
X151035000Y-109101939D01*
X151035000Y-108898061D01*
X150995226Y-108698102D01*
X150917205Y-108509744D01*
X150803937Y-108340226D01*
X150659774Y-108196063D01*
X150490256Y-108082795D01*
X150301898Y-108004774D01*
X150101939Y-107965000D01*
X149898061Y-107965000D01*
X149698102Y-108004774D01*
X149509744Y-108082795D01*
X149340226Y-108196063D01*
X149196063Y-108340226D01*
X149082795Y-108509744D01*
X149004774Y-108698102D01*
X148965000Y-108898061D01*
X148965000Y-109101939D01*
X149004774Y-109301898D01*
X149020556Y-109340000D01*
X147979444Y-109340000D01*
X147995226Y-109301898D01*
X148035000Y-109101939D01*
X148035000Y-108898061D01*
X147995226Y-108698102D01*
X147917205Y-108509744D01*
X147803937Y-108340226D01*
X147659774Y-108196063D01*
X147490256Y-108082795D01*
X147301898Y-108004774D01*
X147101939Y-107965000D01*
X146898061Y-107965000D01*
X146698102Y-108004774D01*
X146509744Y-108082795D01*
X146340226Y-108196063D01*
X146196063Y-108340226D01*
X146082795Y-108509744D01*
X146004774Y-108698102D01*
X145965000Y-108898061D01*
X145965000Y-109101939D01*
X146004774Y-109301898D01*
X146020556Y-109340000D01*
X144979444Y-109340000D01*
X144995226Y-109301898D01*
X145035000Y-109101939D01*
X145035000Y-108898061D01*
X144995226Y-108698102D01*
X144917205Y-108509744D01*
X144803937Y-108340226D01*
X144659774Y-108196063D01*
X144490256Y-108082795D01*
X144301898Y-108004774D01*
X144101939Y-107965000D01*
X143898061Y-107965000D01*
X143698102Y-108004774D01*
X143509744Y-108082795D01*
X143340226Y-108196063D01*
X143196063Y-108340226D01*
X143127000Y-108443586D01*
X143127000Y-106028061D01*
X153525000Y-106028061D01*
X153525000Y-106231939D01*
X153564774Y-106431898D01*
X153642795Y-106620256D01*
X153756063Y-106789774D01*
X153900226Y-106933937D01*
X154069744Y-107047205D01*
X154258102Y-107125226D01*
X154458061Y-107165000D01*
X154661939Y-107165000D01*
X154861898Y-107125226D01*
X155050256Y-107047205D01*
X155063941Y-107038061D01*
X163985000Y-107038061D01*
X163985000Y-107241939D01*
X164024774Y-107441898D01*
X164102795Y-107630256D01*
X164216063Y-107799774D01*
X164360226Y-107943937D01*
X164529744Y-108057205D01*
X164718102Y-108135226D01*
X164918061Y-108175000D01*
X165121939Y-108175000D01*
X165321898Y-108135226D01*
X165510256Y-108057205D01*
X165679774Y-107943937D01*
X165823937Y-107799774D01*
X165937205Y-107630256D01*
X166015226Y-107441898D01*
X166055000Y-107241939D01*
X166055000Y-107038061D01*
X166015226Y-106838102D01*
X165937205Y-106649744D01*
X165823937Y-106480226D01*
X165679774Y-106336063D01*
X165510256Y-106222795D01*
X165321898Y-106144774D01*
X165121939Y-106105000D01*
X164918061Y-106105000D01*
X164718102Y-106144774D01*
X164529744Y-106222795D01*
X164360226Y-106336063D01*
X164216063Y-106480226D01*
X164102795Y-106649744D01*
X164024774Y-106838102D01*
X163985000Y-107038061D01*
X155063941Y-107038061D01*
X155219774Y-106933937D01*
X155363937Y-106789774D01*
X155477205Y-106620256D01*
X155555226Y-106431898D01*
X155595000Y-106231939D01*
X155595000Y-106028061D01*
X155555226Y-105828102D01*
X155477205Y-105639744D01*
X155363937Y-105470226D01*
X155219774Y-105326063D01*
X155050256Y-105212795D01*
X154861898Y-105134774D01*
X154661939Y-105095000D01*
X154458061Y-105095000D01*
X154258102Y-105134774D01*
X154069744Y-105212795D01*
X153900226Y-105326063D01*
X153756063Y-105470226D01*
X153642795Y-105639744D01*
X153564774Y-105828102D01*
X153525000Y-106028061D01*
X143127000Y-106028061D01*
X143127000Y-105282000D01*
X144521982Y-105282000D01*
X144563000Y-105286040D01*
X144604018Y-105282000D01*
X144604019Y-105282000D01*
X144726689Y-105269918D01*
X144884087Y-105222172D01*
X145029146Y-105144636D01*
X145156291Y-105040291D01*
X145182446Y-105008421D01*
X146546775Y-103644092D01*
X146691898Y-103615226D01*
X146880256Y-103537205D01*
X147049774Y-103423937D01*
X147193937Y-103279774D01*
X147307205Y-103110256D01*
X147349597Y-103007911D01*
X164665000Y-103007911D01*
X164665000Y-103192089D01*
X164700932Y-103372729D01*
X164771414Y-103542889D01*
X164873738Y-103696028D01*
X165003972Y-103826262D01*
X165157111Y-103928586D01*
X165327271Y-103999068D01*
X165507911Y-104035000D01*
X165692089Y-104035000D01*
X165849309Y-104003727D01*
X165840000Y-104050524D01*
X165840000Y-104249476D01*
X165862929Y-104364747D01*
X165824950Y-104421586D01*
X165748814Y-104605394D01*
X165710000Y-104800524D01*
X165710000Y-104999476D01*
X165748814Y-105194606D01*
X165824950Y-105378414D01*
X165935482Y-105543837D01*
X166076163Y-105684518D01*
X166241586Y-105795050D01*
X166425394Y-105871186D01*
X166620524Y-105910000D01*
X166819476Y-105910000D01*
X167014606Y-105871186D01*
X167198414Y-105795050D01*
X167363837Y-105684518D01*
X167504518Y-105543837D01*
X167595521Y-105407641D01*
X167697501Y-105438577D01*
X167864248Y-105455000D01*
X168600912Y-105455000D01*
X168574774Y-105518102D01*
X168535000Y-105718061D01*
X168535000Y-105921939D01*
X168574774Y-106121898D01*
X168619424Y-106229691D01*
X168460226Y-106336063D01*
X168316063Y-106480226D01*
X168202795Y-106649744D01*
X168124774Y-106838102D01*
X168085000Y-107038061D01*
X168085000Y-107241939D01*
X168124774Y-107441898D01*
X168202795Y-107630256D01*
X168316063Y-107799774D01*
X168460226Y-107943937D01*
X168629744Y-108057205D01*
X168818102Y-108135226D01*
X169018061Y-108175000D01*
X169221939Y-108175000D01*
X169421898Y-108135226D01*
X169610256Y-108057205D01*
X169779774Y-107943937D01*
X169923937Y-107799774D01*
X170037205Y-107630256D01*
X170115226Y-107441898D01*
X170155000Y-107241939D01*
X170155000Y-107038061D01*
X170115226Y-106838102D01*
X170070576Y-106730309D01*
X170229774Y-106623937D01*
X170373937Y-106479774D01*
X170487205Y-106310256D01*
X170565226Y-106121898D01*
X170605000Y-105921939D01*
X170605000Y-105718061D01*
X170565226Y-105518102D01*
X170487205Y-105329744D01*
X170373937Y-105160226D01*
X170229774Y-105016063D01*
X170060256Y-104902795D01*
X170007199Y-104880818D01*
X170073676Y-104756447D01*
X170138577Y-104542499D01*
X170160491Y-104320000D01*
X170138577Y-104097501D01*
X170073676Y-103883553D01*
X169968284Y-103686377D01*
X169826449Y-103513551D01*
X169769285Y-103466638D01*
X169850741Y-103344731D01*
X169923108Y-103170022D01*
X169960000Y-102984552D01*
X169960000Y-102795448D01*
X169923108Y-102609978D01*
X169850741Y-102435269D01*
X169745681Y-102278036D01*
X169611964Y-102144319D01*
X169454731Y-102039259D01*
X169280022Y-101966892D01*
X169094552Y-101930000D01*
X168905448Y-101930000D01*
X168719978Y-101966892D01*
X168545269Y-102039259D01*
X168388036Y-102144319D01*
X168254319Y-102278036D01*
X168149259Y-102435269D01*
X168076892Y-102609978D01*
X168040000Y-102795448D01*
X168040000Y-102984552D01*
X168076892Y-103170022D01*
X168083096Y-103185000D01*
X167864248Y-103185000D01*
X167697501Y-103201423D01*
X167483553Y-103266324D01*
X167406819Y-103307339D01*
X167328414Y-103254950D01*
X167144606Y-103178814D01*
X166949476Y-103140000D01*
X166750524Y-103140000D01*
X166555394Y-103178814D01*
X166535000Y-103187261D01*
X166535000Y-103007911D01*
X166499068Y-102827271D01*
X166428586Y-102657111D01*
X166326262Y-102503972D01*
X166196028Y-102373738D01*
X166042889Y-102271414D01*
X165872729Y-102200932D01*
X165692089Y-102165000D01*
X165507911Y-102165000D01*
X165327271Y-102200932D01*
X165157111Y-102271414D01*
X165003972Y-102373738D01*
X164873738Y-102503972D01*
X164771414Y-102657111D01*
X164700932Y-102827271D01*
X164665000Y-103007911D01*
X147349597Y-103007911D01*
X147385226Y-102921898D01*
X147425000Y-102721939D01*
X147425000Y-102518061D01*
X147385226Y-102318102D01*
X147307205Y-102129744D01*
X147193937Y-101960226D01*
X147049774Y-101816063D01*
X146880256Y-101702795D01*
X146691898Y-101624774D01*
X146491939Y-101585000D01*
X146288061Y-101585000D01*
X146088102Y-101624774D01*
X145899744Y-101702795D01*
X145730226Y-101816063D01*
X145586063Y-101960226D01*
X145472795Y-102129744D01*
X145394774Y-102318102D01*
X145365908Y-102463225D01*
X144217133Y-103612000D01*
X143127000Y-103612000D01*
X143127000Y-100438061D01*
X145045000Y-100438061D01*
X145045000Y-100641939D01*
X145084774Y-100841898D01*
X145162795Y-101030256D01*
X145276063Y-101199774D01*
X145420226Y-101343937D01*
X145589744Y-101457205D01*
X145778102Y-101535226D01*
X145978061Y-101575000D01*
X146181939Y-101575000D01*
X146381898Y-101535226D01*
X146570256Y-101457205D01*
X146739774Y-101343937D01*
X146883937Y-101199774D01*
X146997205Y-101030256D01*
X147075226Y-100841898D01*
X147091902Y-100758061D01*
X155535000Y-100758061D01*
X155535000Y-100961939D01*
X155574774Y-101161898D01*
X155652795Y-101350256D01*
X155766063Y-101519774D01*
X155910226Y-101663937D01*
X156079744Y-101777205D01*
X156268102Y-101855226D01*
X156468061Y-101895000D01*
X156671939Y-101895000D01*
X156871898Y-101855226D01*
X157060256Y-101777205D01*
X157229774Y-101663937D01*
X157373937Y-101519774D01*
X157487205Y-101350256D01*
X157565226Y-101161898D01*
X157605000Y-100961939D01*
X157605000Y-100758061D01*
X157565226Y-100558102D01*
X157487205Y-100369744D01*
X157373937Y-100200226D01*
X157229774Y-100056063D01*
X157060256Y-99942795D01*
X156871898Y-99864774D01*
X156671939Y-99825000D01*
X156468061Y-99825000D01*
X156268102Y-99864774D01*
X156079744Y-99942795D01*
X155910226Y-100056063D01*
X155766063Y-100200226D01*
X155652795Y-100369744D01*
X155574774Y-100558102D01*
X155535000Y-100758061D01*
X147091902Y-100758061D01*
X147115000Y-100641939D01*
X147115000Y-100579801D01*
X147609802Y-100085000D01*
X147701939Y-100085000D01*
X147901898Y-100045226D01*
X148090256Y-99967205D01*
X148259774Y-99853937D01*
X148403937Y-99709774D01*
X148517205Y-99540256D01*
X148595226Y-99351898D01*
X148635000Y-99151939D01*
X148635000Y-98948061D01*
X148595226Y-98748102D01*
X148517205Y-98559744D01*
X148403937Y-98390226D01*
X148259774Y-98246063D01*
X148090256Y-98132795D01*
X147901898Y-98054774D01*
X147701939Y-98015000D01*
X147498061Y-98015000D01*
X147298102Y-98054774D01*
X147109744Y-98132795D01*
X146940226Y-98246063D01*
X146796063Y-98390226D01*
X146682795Y-98559744D01*
X146604774Y-98748102D01*
X146565000Y-98948061D01*
X146565000Y-98980198D01*
X146040199Y-99505000D01*
X145978061Y-99505000D01*
X145778102Y-99544774D01*
X145589744Y-99622795D01*
X145420226Y-99736063D01*
X145276063Y-99880226D01*
X145162795Y-100049744D01*
X145084774Y-100238102D01*
X145045000Y-100438061D01*
X143127000Y-100438061D01*
X143127000Y-95223061D01*
X143465000Y-95223061D01*
X143465000Y-95426939D01*
X143504774Y-95626898D01*
X143582795Y-95815256D01*
X143696063Y-95984774D01*
X143840226Y-96128937D01*
X144009744Y-96242205D01*
X144137201Y-96295000D01*
X144009744Y-96347795D01*
X143840226Y-96461063D01*
X143696063Y-96605226D01*
X143582795Y-96774744D01*
X143504774Y-96963102D01*
X143465000Y-97163061D01*
X143465000Y-97366939D01*
X143504774Y-97566898D01*
X143582795Y-97755256D01*
X143696063Y-97924774D01*
X143840226Y-98068937D01*
X144009744Y-98182205D01*
X144198102Y-98260226D01*
X144398061Y-98300000D01*
X144601939Y-98300000D01*
X144801898Y-98260226D01*
X144990256Y-98182205D01*
X145159774Y-98068937D01*
X145303937Y-97924774D01*
X145417205Y-97755256D01*
X145495226Y-97566898D01*
X145535000Y-97366939D01*
X145535000Y-97163061D01*
X145495226Y-96963102D01*
X145417205Y-96774744D01*
X145303937Y-96605226D01*
X145159774Y-96461063D01*
X144990256Y-96347795D01*
X144862799Y-96295000D01*
X144990256Y-96242205D01*
X145159774Y-96128937D01*
X145303937Y-95984774D01*
X145417205Y-95815256D01*
X145495226Y-95626898D01*
X145535000Y-95426939D01*
X145535000Y-95223061D01*
X145495226Y-95023102D01*
X145417205Y-94834744D01*
X145303937Y-94665226D01*
X145159774Y-94521063D01*
X144990256Y-94407795D01*
X144801898Y-94329774D01*
X144601939Y-94290000D01*
X144398061Y-94290000D01*
X144198102Y-94329774D01*
X144009744Y-94407795D01*
X143840226Y-94521063D01*
X143696063Y-94665226D01*
X143582795Y-94834744D01*
X143504774Y-95023102D01*
X143465000Y-95223061D01*
X143127000Y-95223061D01*
X143127000Y-91556414D01*
X143196063Y-91659774D01*
X143340226Y-91803937D01*
X143509744Y-91917205D01*
X143569459Y-91941940D01*
X143504774Y-92098102D01*
X143465000Y-92298061D01*
X143465000Y-92501939D01*
X143504774Y-92701898D01*
X143582795Y-92890256D01*
X143696063Y-93059774D01*
X143840226Y-93203937D01*
X144009744Y-93317205D01*
X144198102Y-93395226D01*
X144398061Y-93435000D01*
X144601939Y-93435000D01*
X144801898Y-93395226D01*
X144990256Y-93317205D01*
X145159774Y-93203937D01*
X145303937Y-93059774D01*
X145417205Y-92890256D01*
X145495226Y-92701898D01*
X145535000Y-92501939D01*
X145535000Y-92298061D01*
X145495226Y-92098102D01*
X145417205Y-91909744D01*
X145303937Y-91740226D01*
X145159774Y-91596063D01*
X144990256Y-91482795D01*
X144930541Y-91458060D01*
X144995226Y-91301898D01*
X145035000Y-91101939D01*
X145035000Y-90898061D01*
X144995226Y-90698102D01*
X144979444Y-90660000D01*
X146020556Y-90660000D01*
X146004774Y-90698102D01*
G37*
%TD.AperFunction*%
%TD*%
D23*
%TO.N,GND*%
X142123000Y-103612000D02*
X141872739Y-103612000D01*
X141907446Y-103533864D01*
X141924119Y-103478874D01*
X141797954Y-103304000D01*
X140957000Y-103304000D01*
X140957000Y-103308928D01*
X140703000Y-103308928D01*
X140703000Y-103304000D01*
X139862046Y-103304000D01*
X139735881Y-103478874D01*
X139752554Y-103533864D01*
X139788070Y-103613820D01*
X139740498Y-103702820D01*
X139704188Y-103822518D01*
X139691928Y-103947000D01*
X139691928Y-104947000D01*
X139704188Y-105071482D01*
X139740498Y-105191180D01*
X139799463Y-105301494D01*
X139878815Y-105398185D01*
X139975506Y-105477537D01*
X140085820Y-105536502D01*
X140205518Y-105572812D01*
X140330000Y-105585072D01*
X141330000Y-105585072D01*
X141454482Y-105572812D01*
X141574180Y-105536502D01*
X141684494Y-105477537D01*
X141781185Y-105398185D01*
X141860537Y-105301494D01*
X141870957Y-105282000D01*
X142123000Y-105282000D01*
X142123000Y-109340000D01*
X127532279Y-109340000D01*
X127143224Y-109301853D01*
X126800036Y-109198238D01*
X126483511Y-109029939D01*
X126205704Y-108803365D01*
X125977195Y-108527146D01*
X125806690Y-108211803D01*
X125700681Y-107869344D01*
X125660000Y-107482288D01*
X125660000Y-106217760D01*
X129665000Y-106217760D01*
X129665000Y-106382240D01*
X129697089Y-106543560D01*
X129760033Y-106695521D01*
X129851413Y-106832281D01*
X129967719Y-106948587D01*
X130104479Y-107039967D01*
X130256440Y-107102911D01*
X130417760Y-107135000D01*
X130582240Y-107135000D01*
X130743560Y-107102911D01*
X130895521Y-107039967D01*
X131000000Y-106970156D01*
X131104479Y-107039967D01*
X131256440Y-107102911D01*
X131417760Y-107135000D01*
X131582240Y-107135000D01*
X131743560Y-107102911D01*
X131895521Y-107039967D01*
X132032281Y-106948587D01*
X132148587Y-106832281D01*
X132239967Y-106695521D01*
X132302911Y-106543560D01*
X132335000Y-106382240D01*
X132335000Y-106217760D01*
X132665000Y-106217760D01*
X132665000Y-106382240D01*
X132697089Y-106543560D01*
X132760033Y-106695521D01*
X132851413Y-106832281D01*
X132967719Y-106948587D01*
X133104479Y-107039967D01*
X133256440Y-107102911D01*
X133417760Y-107135000D01*
X133582240Y-107135000D01*
X133743560Y-107102911D01*
X133895521Y-107039967D01*
X134000000Y-106970156D01*
X134104479Y-107039967D01*
X134256440Y-107102911D01*
X134417760Y-107135000D01*
X134582240Y-107135000D01*
X134743560Y-107102911D01*
X134895521Y-107039967D01*
X135032281Y-106948587D01*
X135148587Y-106832281D01*
X135239967Y-106695521D01*
X135302911Y-106543560D01*
X135335000Y-106382240D01*
X135335000Y-106217760D01*
X135665000Y-106217760D01*
X135665000Y-106382240D01*
X135697089Y-106543560D01*
X135760033Y-106695521D01*
X135851413Y-106832281D01*
X135967719Y-106948587D01*
X136104479Y-107039967D01*
X136256440Y-107102911D01*
X136417760Y-107135000D01*
X136582240Y-107135000D01*
X136743560Y-107102911D01*
X136895521Y-107039967D01*
X137000000Y-106970156D01*
X137104479Y-107039967D01*
X137214472Y-107085528D01*
X137260033Y-107195521D01*
X137351413Y-107332281D01*
X137467719Y-107448587D01*
X137604479Y-107539967D01*
X137756440Y-107602911D01*
X137917760Y-107635000D01*
X138082240Y-107635000D01*
X138243560Y-107602911D01*
X138395521Y-107539967D01*
X138500000Y-107470156D01*
X138604479Y-107539967D01*
X138756440Y-107602911D01*
X138917760Y-107635000D01*
X139082240Y-107635000D01*
X139243560Y-107602911D01*
X139395521Y-107539967D01*
X139532281Y-107448587D01*
X139648587Y-107332281D01*
X139739967Y-107195521D01*
X139785528Y-107085528D01*
X139895521Y-107039967D01*
X140032281Y-106948587D01*
X140148587Y-106832281D01*
X140239967Y-106695521D01*
X140302911Y-106543560D01*
X140335000Y-106382240D01*
X140335000Y-106217760D01*
X140302911Y-106056440D01*
X140239967Y-105904479D01*
X140148587Y-105767719D01*
X140032281Y-105651413D01*
X139895521Y-105560033D01*
X139743560Y-105497089D01*
X139582240Y-105465000D01*
X139417760Y-105465000D01*
X139256440Y-105497089D01*
X139104479Y-105560033D01*
X138967719Y-105651413D01*
X138851413Y-105767719D01*
X138760033Y-105904479D01*
X138714472Y-106014472D01*
X138604479Y-106060033D01*
X138500000Y-106129844D01*
X138395521Y-106060033D01*
X138285528Y-106014472D01*
X138239967Y-105904479D01*
X138148587Y-105767719D01*
X138032281Y-105651413D01*
X137895521Y-105560033D01*
X137743560Y-105497089D01*
X137582240Y-105465000D01*
X137417760Y-105465000D01*
X137256440Y-105497089D01*
X137104479Y-105560033D01*
X137000000Y-105629844D01*
X136895521Y-105560033D01*
X136743560Y-105497089D01*
X136582240Y-105465000D01*
X136417760Y-105465000D01*
X136256440Y-105497089D01*
X136104479Y-105560033D01*
X135967719Y-105651413D01*
X135851413Y-105767719D01*
X135760033Y-105904479D01*
X135697089Y-106056440D01*
X135665000Y-106217760D01*
X135335000Y-106217760D01*
X135302911Y-106056440D01*
X135239967Y-105904479D01*
X135148587Y-105767719D01*
X135032281Y-105651413D01*
X134895521Y-105560033D01*
X134743560Y-105497089D01*
X134582240Y-105465000D01*
X134417760Y-105465000D01*
X134256440Y-105497089D01*
X134104479Y-105560033D01*
X134000000Y-105629844D01*
X133895521Y-105560033D01*
X133743560Y-105497089D01*
X133582240Y-105465000D01*
X133417760Y-105465000D01*
X133256440Y-105497089D01*
X133104479Y-105560033D01*
X132967719Y-105651413D01*
X132851413Y-105767719D01*
X132760033Y-105904479D01*
X132697089Y-106056440D01*
X132665000Y-106217760D01*
X132335000Y-106217760D01*
X132302911Y-106056440D01*
X132239967Y-105904479D01*
X132148587Y-105767719D01*
X132032281Y-105651413D01*
X131895521Y-105560033D01*
X131743560Y-105497089D01*
X131582240Y-105465000D01*
X131417760Y-105465000D01*
X131256440Y-105497089D01*
X131104479Y-105560033D01*
X131000000Y-105629844D01*
X130895521Y-105560033D01*
X130743560Y-105497089D01*
X130582240Y-105465000D01*
X130417760Y-105465000D01*
X130256440Y-105497089D01*
X130104479Y-105560033D01*
X129967719Y-105651413D01*
X129851413Y-105767719D01*
X129760033Y-105904479D01*
X129697089Y-106056440D01*
X129665000Y-106217760D01*
X125660000Y-106217760D01*
X125660000Y-95445212D01*
X139695000Y-95445212D01*
X139695000Y-95668788D01*
X139738617Y-95888067D01*
X139824176Y-96094624D01*
X139889241Y-96192000D01*
X139824176Y-96289376D01*
X139738617Y-96495933D01*
X139695000Y-96715212D01*
X139695000Y-96938788D01*
X139738617Y-97158067D01*
X139824176Y-97364624D01*
X139889241Y-97462000D01*
X139824176Y-97559376D01*
X139738617Y-97765933D01*
X139695000Y-97985212D01*
X139695000Y-98208788D01*
X139738617Y-98428067D01*
X139824176Y-98634624D01*
X139889241Y-98732000D01*
X139824176Y-98829376D01*
X139738617Y-99035933D01*
X139695000Y-99255212D01*
X139695000Y-99478788D01*
X139738617Y-99698067D01*
X139824176Y-99904624D01*
X139889241Y-100002000D01*
X139824176Y-100099376D01*
X139738617Y-100305933D01*
X139695000Y-100525212D01*
X139695000Y-100748788D01*
X139738617Y-100968067D01*
X139824176Y-101174624D01*
X139889241Y-101272000D01*
X139824176Y-101369376D01*
X139738617Y-101575933D01*
X139695000Y-101795212D01*
X139695000Y-102018788D01*
X139738617Y-102238067D01*
X139824176Y-102444624D01*
X139892353Y-102546658D01*
X139842877Y-102616794D01*
X139752554Y-102820136D01*
X139735881Y-102875126D01*
X139862046Y-103050000D01*
X140703000Y-103050000D01*
X140703000Y-103038974D01*
X140718212Y-103042000D01*
X140941788Y-103042000D01*
X140957000Y-103038974D01*
X140957000Y-103050000D01*
X141797954Y-103050000D01*
X141924119Y-102875126D01*
X141907446Y-102820136D01*
X141817123Y-102616794D01*
X141767647Y-102546658D01*
X141835824Y-102444624D01*
X141921383Y-102238067D01*
X141965000Y-102018788D01*
X141965000Y-101795212D01*
X141921383Y-101575933D01*
X141835824Y-101369376D01*
X141770759Y-101272000D01*
X141835824Y-101174624D01*
X141921383Y-100968067D01*
X141965000Y-100748788D01*
X141965000Y-100525212D01*
X141921383Y-100305933D01*
X141835824Y-100099376D01*
X141770759Y-100002000D01*
X141835824Y-99904624D01*
X141921383Y-99698067D01*
X141965000Y-99478788D01*
X141965000Y-99255212D01*
X141921383Y-99035933D01*
X141835824Y-98829376D01*
X141770759Y-98732000D01*
X141835824Y-98634624D01*
X141921383Y-98428067D01*
X141965000Y-98208788D01*
X141965000Y-97985212D01*
X141921383Y-97765933D01*
X141835824Y-97559376D01*
X141770759Y-97462000D01*
X141835824Y-97364624D01*
X141921383Y-97158067D01*
X141965000Y-96938788D01*
X141965000Y-96715212D01*
X141921383Y-96495933D01*
X141835824Y-96289376D01*
X141770759Y-96192000D01*
X141835824Y-96094624D01*
X141921383Y-95888067D01*
X141965000Y-95668788D01*
X141965000Y-95445212D01*
X141921383Y-95225933D01*
X141835824Y-95019376D01*
X141711612Y-94833480D01*
X141553520Y-94675388D01*
X141367624Y-94551176D01*
X141161067Y-94465617D01*
X140941788Y-94422000D01*
X140718212Y-94422000D01*
X140498933Y-94465617D01*
X140292376Y-94551176D01*
X140106480Y-94675388D01*
X139948388Y-94833480D01*
X139824176Y-95019376D01*
X139738617Y-95225933D01*
X139695000Y-95445212D01*
X125660000Y-95445212D01*
X125660000Y-93617760D01*
X131165000Y-93617760D01*
X131165000Y-93782240D01*
X131197089Y-93943560D01*
X131260033Y-94095521D01*
X131351413Y-94232281D01*
X131467719Y-94348587D01*
X131604479Y-94439967D01*
X131756440Y-94502911D01*
X131917760Y-94535000D01*
X132082240Y-94535000D01*
X132243560Y-94502911D01*
X132395521Y-94439967D01*
X132500000Y-94370156D01*
X132604479Y-94439967D01*
X132756440Y-94502911D01*
X132917760Y-94535000D01*
X133082240Y-94535000D01*
X133243560Y-94502911D01*
X133395521Y-94439967D01*
X133532281Y-94348587D01*
X133648587Y-94232281D01*
X133739967Y-94095521D01*
X133802911Y-93943560D01*
X133835000Y-93782240D01*
X133835000Y-93617760D01*
X134165000Y-93617760D01*
X134165000Y-93782240D01*
X134197089Y-93943560D01*
X134260033Y-94095521D01*
X134351413Y-94232281D01*
X134467719Y-94348587D01*
X134604479Y-94439967D01*
X134756440Y-94502911D01*
X134917760Y-94535000D01*
X135082240Y-94535000D01*
X135243560Y-94502911D01*
X135395521Y-94439967D01*
X135500000Y-94370156D01*
X135604479Y-94439967D01*
X135756440Y-94502911D01*
X135917760Y-94535000D01*
X136082240Y-94535000D01*
X136243560Y-94502911D01*
X136395521Y-94439967D01*
X136500000Y-94370156D01*
X136604479Y-94439967D01*
X136756440Y-94502911D01*
X136917760Y-94535000D01*
X137082240Y-94535000D01*
X137243560Y-94502911D01*
X137395521Y-94439967D01*
X137500000Y-94370156D01*
X137604479Y-94439967D01*
X137756440Y-94502911D01*
X137917760Y-94535000D01*
X138082240Y-94535000D01*
X138243560Y-94502911D01*
X138395521Y-94439967D01*
X138500000Y-94370156D01*
X138604479Y-94439967D01*
X138756440Y-94502911D01*
X138917760Y-94535000D01*
X139082240Y-94535000D01*
X139243560Y-94502911D01*
X139395521Y-94439967D01*
X139532281Y-94348587D01*
X139648587Y-94232281D01*
X139739967Y-94095521D01*
X139785528Y-93985528D01*
X139895521Y-93939967D01*
X140032281Y-93848587D01*
X140148587Y-93732281D01*
X140239967Y-93595521D01*
X140302911Y-93443560D01*
X140335000Y-93282240D01*
X140335000Y-93117760D01*
X140302911Y-92956440D01*
X140239967Y-92804479D01*
X140148587Y-92667719D01*
X140032281Y-92551413D01*
X139895521Y-92460033D01*
X139743560Y-92397089D01*
X139582240Y-92365000D01*
X139417760Y-92365000D01*
X139256440Y-92397089D01*
X139104479Y-92460033D01*
X138967719Y-92551413D01*
X138851413Y-92667719D01*
X138760033Y-92804479D01*
X138714472Y-92914472D01*
X138604479Y-92960033D01*
X138500000Y-93029844D01*
X138395521Y-92960033D01*
X138285528Y-92914472D01*
X138239967Y-92804479D01*
X138148587Y-92667719D01*
X138032281Y-92551413D01*
X137895521Y-92460033D01*
X137743560Y-92397089D01*
X137582240Y-92365000D01*
X137417760Y-92365000D01*
X137256440Y-92397089D01*
X137104479Y-92460033D01*
X137000000Y-92529844D01*
X136895521Y-92460033D01*
X136743560Y-92397089D01*
X136582240Y-92365000D01*
X136417760Y-92365000D01*
X136256440Y-92397089D01*
X136104479Y-92460033D01*
X135967719Y-92551413D01*
X135851413Y-92667719D01*
X135760033Y-92804479D01*
X135714472Y-92914472D01*
X135604479Y-92960033D01*
X135500000Y-93029844D01*
X135395521Y-92960033D01*
X135243560Y-92897089D01*
X135082240Y-92865000D01*
X134917760Y-92865000D01*
X134756440Y-92897089D01*
X134604479Y-92960033D01*
X134467719Y-93051413D01*
X134351413Y-93167719D01*
X134260033Y-93304479D01*
X134197089Y-93456440D01*
X134165000Y-93617760D01*
X133835000Y-93617760D01*
X133802911Y-93456440D01*
X133739967Y-93304479D01*
X133648587Y-93167719D01*
X133532281Y-93051413D01*
X133395521Y-92960033D01*
X133243560Y-92897089D01*
X133082240Y-92865000D01*
X132917760Y-92865000D01*
X132756440Y-92897089D01*
X132604479Y-92960033D01*
X132500000Y-93029844D01*
X132395521Y-92960033D01*
X132243560Y-92897089D01*
X132082240Y-92865000D01*
X131917760Y-92865000D01*
X131756440Y-92897089D01*
X131604479Y-92960033D01*
X131467719Y-93051413D01*
X131351413Y-93167719D01*
X131260033Y-93304479D01*
X131197089Y-93456440D01*
X131165000Y-93617760D01*
X125660000Y-93617760D01*
X125660000Y-92532279D01*
X125698147Y-92143225D01*
X125801763Y-91800033D01*
X125970062Y-91483511D01*
X126196637Y-91205701D01*
X126472856Y-90977194D01*
X126788197Y-90806690D01*
X127130656Y-90700681D01*
X127517712Y-90660000D01*
X142123000Y-90660000D01*
X142123000Y-103612000D01*
%TA.AperFunction,Conductor*%
D24*
G36*
X142123000Y-103612000D02*
G01*
X141872739Y-103612000D01*
X141907446Y-103533864D01*
X141924119Y-103478874D01*
X141797954Y-103304000D01*
X140957000Y-103304000D01*
X140957000Y-103308928D01*
X140703000Y-103308928D01*
X140703000Y-103304000D01*
X139862046Y-103304000D01*
X139735881Y-103478874D01*
X139752554Y-103533864D01*
X139788070Y-103613820D01*
X139740498Y-103702820D01*
X139704188Y-103822518D01*
X139691928Y-103947000D01*
X139691928Y-104947000D01*
X139704188Y-105071482D01*
X139740498Y-105191180D01*
X139799463Y-105301494D01*
X139878815Y-105398185D01*
X139975506Y-105477537D01*
X140085820Y-105536502D01*
X140205518Y-105572812D01*
X140330000Y-105585072D01*
X141330000Y-105585072D01*
X141454482Y-105572812D01*
X141574180Y-105536502D01*
X141684494Y-105477537D01*
X141781185Y-105398185D01*
X141860537Y-105301494D01*
X141870957Y-105282000D01*
X142123000Y-105282000D01*
X142123000Y-109340000D01*
X127532279Y-109340000D01*
X127143224Y-109301853D01*
X126800036Y-109198238D01*
X126483511Y-109029939D01*
X126205704Y-108803365D01*
X125977195Y-108527146D01*
X125806690Y-108211803D01*
X125700681Y-107869344D01*
X125660000Y-107482288D01*
X125660000Y-106217760D01*
X129665000Y-106217760D01*
X129665000Y-106382240D01*
X129697089Y-106543560D01*
X129760033Y-106695521D01*
X129851413Y-106832281D01*
X129967719Y-106948587D01*
X130104479Y-107039967D01*
X130256440Y-107102911D01*
X130417760Y-107135000D01*
X130582240Y-107135000D01*
X130743560Y-107102911D01*
X130895521Y-107039967D01*
X131000000Y-106970156D01*
X131104479Y-107039967D01*
X131256440Y-107102911D01*
X131417760Y-107135000D01*
X131582240Y-107135000D01*
X131743560Y-107102911D01*
X131895521Y-107039967D01*
X132032281Y-106948587D01*
X132148587Y-106832281D01*
X132239967Y-106695521D01*
X132302911Y-106543560D01*
X132335000Y-106382240D01*
X132335000Y-106217760D01*
X132665000Y-106217760D01*
X132665000Y-106382240D01*
X132697089Y-106543560D01*
X132760033Y-106695521D01*
X132851413Y-106832281D01*
X132967719Y-106948587D01*
X133104479Y-107039967D01*
X133256440Y-107102911D01*
X133417760Y-107135000D01*
X133582240Y-107135000D01*
X133743560Y-107102911D01*
X133895521Y-107039967D01*
X134000000Y-106970156D01*
X134104479Y-107039967D01*
X134256440Y-107102911D01*
X134417760Y-107135000D01*
X134582240Y-107135000D01*
X134743560Y-107102911D01*
X134895521Y-107039967D01*
X135032281Y-106948587D01*
X135148587Y-106832281D01*
X135239967Y-106695521D01*
X135302911Y-106543560D01*
X135335000Y-106382240D01*
X135335000Y-106217760D01*
X135665000Y-106217760D01*
X135665000Y-106382240D01*
X135697089Y-106543560D01*
X135760033Y-106695521D01*
X135851413Y-106832281D01*
X135967719Y-106948587D01*
X136104479Y-107039967D01*
X136256440Y-107102911D01*
X136417760Y-107135000D01*
X136582240Y-107135000D01*
X136743560Y-107102911D01*
X136895521Y-107039967D01*
X137000000Y-106970156D01*
X137104479Y-107039967D01*
X137214472Y-107085528D01*
X137260033Y-107195521D01*
X137351413Y-107332281D01*
X137467719Y-107448587D01*
X137604479Y-107539967D01*
X137756440Y-107602911D01*
X137917760Y-107635000D01*
X138082240Y-107635000D01*
X138243560Y-107602911D01*
X138395521Y-107539967D01*
X138500000Y-107470156D01*
X138604479Y-107539967D01*
X138756440Y-107602911D01*
X138917760Y-107635000D01*
X139082240Y-107635000D01*
X139243560Y-107602911D01*
X139395521Y-107539967D01*
X139532281Y-107448587D01*
X139648587Y-107332281D01*
X139739967Y-107195521D01*
X139785528Y-107085528D01*
X139895521Y-107039967D01*
X140032281Y-106948587D01*
X140148587Y-106832281D01*
X140239967Y-106695521D01*
X140302911Y-106543560D01*
X140335000Y-106382240D01*
X140335000Y-106217760D01*
X140302911Y-106056440D01*
X140239967Y-105904479D01*
X140148587Y-105767719D01*
X140032281Y-105651413D01*
X139895521Y-105560033D01*
X139743560Y-105497089D01*
X139582240Y-105465000D01*
X139417760Y-105465000D01*
X139256440Y-105497089D01*
X139104479Y-105560033D01*
X138967719Y-105651413D01*
X138851413Y-105767719D01*
X138760033Y-105904479D01*
X138714472Y-106014472D01*
X138604479Y-106060033D01*
X138500000Y-106129844D01*
X138395521Y-106060033D01*
X138285528Y-106014472D01*
X138239967Y-105904479D01*
X138148587Y-105767719D01*
X138032281Y-105651413D01*
X137895521Y-105560033D01*
X137743560Y-105497089D01*
X137582240Y-105465000D01*
X137417760Y-105465000D01*
X137256440Y-105497089D01*
X137104479Y-105560033D01*
X137000000Y-105629844D01*
X136895521Y-105560033D01*
X136743560Y-105497089D01*
X136582240Y-105465000D01*
X136417760Y-105465000D01*
X136256440Y-105497089D01*
X136104479Y-105560033D01*
X135967719Y-105651413D01*
X135851413Y-105767719D01*
X135760033Y-105904479D01*
X135697089Y-106056440D01*
X135665000Y-106217760D01*
X135335000Y-106217760D01*
X135302911Y-106056440D01*
X135239967Y-105904479D01*
X135148587Y-105767719D01*
X135032281Y-105651413D01*
X134895521Y-105560033D01*
X134743560Y-105497089D01*
X134582240Y-105465000D01*
X134417760Y-105465000D01*
X134256440Y-105497089D01*
X134104479Y-105560033D01*
X134000000Y-105629844D01*
X133895521Y-105560033D01*
X133743560Y-105497089D01*
X133582240Y-105465000D01*
X133417760Y-105465000D01*
X133256440Y-105497089D01*
X133104479Y-105560033D01*
X132967719Y-105651413D01*
X132851413Y-105767719D01*
X132760033Y-105904479D01*
X132697089Y-106056440D01*
X132665000Y-106217760D01*
X132335000Y-106217760D01*
X132302911Y-106056440D01*
X132239967Y-105904479D01*
X132148587Y-105767719D01*
X132032281Y-105651413D01*
X131895521Y-105560033D01*
X131743560Y-105497089D01*
X131582240Y-105465000D01*
X131417760Y-105465000D01*
X131256440Y-105497089D01*
X131104479Y-105560033D01*
X131000000Y-105629844D01*
X130895521Y-105560033D01*
X130743560Y-105497089D01*
X130582240Y-105465000D01*
X130417760Y-105465000D01*
X130256440Y-105497089D01*
X130104479Y-105560033D01*
X129967719Y-105651413D01*
X129851413Y-105767719D01*
X129760033Y-105904479D01*
X129697089Y-106056440D01*
X129665000Y-106217760D01*
X125660000Y-106217760D01*
X125660000Y-95445212D01*
X139695000Y-95445212D01*
X139695000Y-95668788D01*
X139738617Y-95888067D01*
X139824176Y-96094624D01*
X139889241Y-96192000D01*
X139824176Y-96289376D01*
X139738617Y-96495933D01*
X139695000Y-96715212D01*
X139695000Y-96938788D01*
X139738617Y-97158067D01*
X139824176Y-97364624D01*
X139889241Y-97462000D01*
X139824176Y-97559376D01*
X139738617Y-97765933D01*
X139695000Y-97985212D01*
X139695000Y-98208788D01*
X139738617Y-98428067D01*
X139824176Y-98634624D01*
X139889241Y-98732000D01*
X139824176Y-98829376D01*
X139738617Y-99035933D01*
X139695000Y-99255212D01*
X139695000Y-99478788D01*
X139738617Y-99698067D01*
X139824176Y-99904624D01*
X139889241Y-100002000D01*
X139824176Y-100099376D01*
X139738617Y-100305933D01*
X139695000Y-100525212D01*
X139695000Y-100748788D01*
X139738617Y-100968067D01*
X139824176Y-101174624D01*
X139889241Y-101272000D01*
X139824176Y-101369376D01*
X139738617Y-101575933D01*
X139695000Y-101795212D01*
X139695000Y-102018788D01*
X139738617Y-102238067D01*
X139824176Y-102444624D01*
X139892353Y-102546658D01*
X139842877Y-102616794D01*
X139752554Y-102820136D01*
X139735881Y-102875126D01*
X139862046Y-103050000D01*
X140703000Y-103050000D01*
X140703000Y-103038974D01*
X140718212Y-103042000D01*
X140941788Y-103042000D01*
X140957000Y-103038974D01*
X140957000Y-103050000D01*
X141797954Y-103050000D01*
X141924119Y-102875126D01*
X141907446Y-102820136D01*
X141817123Y-102616794D01*
X141767647Y-102546658D01*
X141835824Y-102444624D01*
X141921383Y-102238067D01*
X141965000Y-102018788D01*
X141965000Y-101795212D01*
X141921383Y-101575933D01*
X141835824Y-101369376D01*
X141770759Y-101272000D01*
X141835824Y-101174624D01*
X141921383Y-100968067D01*
X141965000Y-100748788D01*
X141965000Y-100525212D01*
X141921383Y-100305933D01*
X141835824Y-100099376D01*
X141770759Y-100002000D01*
X141835824Y-99904624D01*
X141921383Y-99698067D01*
X141965000Y-99478788D01*
X141965000Y-99255212D01*
X141921383Y-99035933D01*
X141835824Y-98829376D01*
X141770759Y-98732000D01*
X141835824Y-98634624D01*
X141921383Y-98428067D01*
X141965000Y-98208788D01*
X141965000Y-97985212D01*
X141921383Y-97765933D01*
X141835824Y-97559376D01*
X141770759Y-97462000D01*
X141835824Y-97364624D01*
X141921383Y-97158067D01*
X141965000Y-96938788D01*
X141965000Y-96715212D01*
X141921383Y-96495933D01*
X141835824Y-96289376D01*
X141770759Y-96192000D01*
X141835824Y-96094624D01*
X141921383Y-95888067D01*
X141965000Y-95668788D01*
X141965000Y-95445212D01*
X141921383Y-95225933D01*
X141835824Y-95019376D01*
X141711612Y-94833480D01*
X141553520Y-94675388D01*
X141367624Y-94551176D01*
X141161067Y-94465617D01*
X140941788Y-94422000D01*
X140718212Y-94422000D01*
X140498933Y-94465617D01*
X140292376Y-94551176D01*
X140106480Y-94675388D01*
X139948388Y-94833480D01*
X139824176Y-95019376D01*
X139738617Y-95225933D01*
X139695000Y-95445212D01*
X125660000Y-95445212D01*
X125660000Y-93617760D01*
X131165000Y-93617760D01*
X131165000Y-93782240D01*
X131197089Y-93943560D01*
X131260033Y-94095521D01*
X131351413Y-94232281D01*
X131467719Y-94348587D01*
X131604479Y-94439967D01*
X131756440Y-94502911D01*
X131917760Y-94535000D01*
X132082240Y-94535000D01*
X132243560Y-94502911D01*
X132395521Y-94439967D01*
X132500000Y-94370156D01*
X132604479Y-94439967D01*
X132756440Y-94502911D01*
X132917760Y-94535000D01*
X133082240Y-94535000D01*
X133243560Y-94502911D01*
X133395521Y-94439967D01*
X133532281Y-94348587D01*
X133648587Y-94232281D01*
X133739967Y-94095521D01*
X133802911Y-93943560D01*
X133835000Y-93782240D01*
X133835000Y-93617760D01*
X134165000Y-93617760D01*
X134165000Y-93782240D01*
X134197089Y-93943560D01*
X134260033Y-94095521D01*
X134351413Y-94232281D01*
X134467719Y-94348587D01*
X134604479Y-94439967D01*
X134756440Y-94502911D01*
X134917760Y-94535000D01*
X135082240Y-94535000D01*
X135243560Y-94502911D01*
X135395521Y-94439967D01*
X135500000Y-94370156D01*
X135604479Y-94439967D01*
X135756440Y-94502911D01*
X135917760Y-94535000D01*
X136082240Y-94535000D01*
X136243560Y-94502911D01*
X136395521Y-94439967D01*
X136500000Y-94370156D01*
X136604479Y-94439967D01*
X136756440Y-94502911D01*
X136917760Y-94535000D01*
X137082240Y-94535000D01*
X137243560Y-94502911D01*
X137395521Y-94439967D01*
X137500000Y-94370156D01*
X137604479Y-94439967D01*
X137756440Y-94502911D01*
X137917760Y-94535000D01*
X138082240Y-94535000D01*
X138243560Y-94502911D01*
X138395521Y-94439967D01*
X138500000Y-94370156D01*
X138604479Y-94439967D01*
X138756440Y-94502911D01*
X138917760Y-94535000D01*
X139082240Y-94535000D01*
X139243560Y-94502911D01*
X139395521Y-94439967D01*
X139532281Y-94348587D01*
X139648587Y-94232281D01*
X139739967Y-94095521D01*
X139785528Y-93985528D01*
X139895521Y-93939967D01*
X140032281Y-93848587D01*
X140148587Y-93732281D01*
X140239967Y-93595521D01*
X140302911Y-93443560D01*
X140335000Y-93282240D01*
X140335000Y-93117760D01*
X140302911Y-92956440D01*
X140239967Y-92804479D01*
X140148587Y-92667719D01*
X140032281Y-92551413D01*
X139895521Y-92460033D01*
X139743560Y-92397089D01*
X139582240Y-92365000D01*
X139417760Y-92365000D01*
X139256440Y-92397089D01*
X139104479Y-92460033D01*
X138967719Y-92551413D01*
X138851413Y-92667719D01*
X138760033Y-92804479D01*
X138714472Y-92914472D01*
X138604479Y-92960033D01*
X138500000Y-93029844D01*
X138395521Y-92960033D01*
X138285528Y-92914472D01*
X138239967Y-92804479D01*
X138148587Y-92667719D01*
X138032281Y-92551413D01*
X137895521Y-92460033D01*
X137743560Y-92397089D01*
X137582240Y-92365000D01*
X137417760Y-92365000D01*
X137256440Y-92397089D01*
X137104479Y-92460033D01*
X137000000Y-92529844D01*
X136895521Y-92460033D01*
X136743560Y-92397089D01*
X136582240Y-92365000D01*
X136417760Y-92365000D01*
X136256440Y-92397089D01*
X136104479Y-92460033D01*
X135967719Y-92551413D01*
X135851413Y-92667719D01*
X135760033Y-92804479D01*
X135714472Y-92914472D01*
X135604479Y-92960033D01*
X135500000Y-93029844D01*
X135395521Y-92960033D01*
X135243560Y-92897089D01*
X135082240Y-92865000D01*
X134917760Y-92865000D01*
X134756440Y-92897089D01*
X134604479Y-92960033D01*
X134467719Y-93051413D01*
X134351413Y-93167719D01*
X134260033Y-93304479D01*
X134197089Y-93456440D01*
X134165000Y-93617760D01*
X133835000Y-93617760D01*
X133802911Y-93456440D01*
X133739967Y-93304479D01*
X133648587Y-93167719D01*
X133532281Y-93051413D01*
X133395521Y-92960033D01*
X133243560Y-92897089D01*
X133082240Y-92865000D01*
X132917760Y-92865000D01*
X132756440Y-92897089D01*
X132604479Y-92960033D01*
X132500000Y-93029844D01*
X132395521Y-92960033D01*
X132243560Y-92897089D01*
X132082240Y-92865000D01*
X131917760Y-92865000D01*
X131756440Y-92897089D01*
X131604479Y-92960033D01*
X131467719Y-93051413D01*
X131351413Y-93167719D01*
X131260033Y-93304479D01*
X131197089Y-93456440D01*
X131165000Y-93617760D01*
X125660000Y-93617760D01*
X125660000Y-92532279D01*
X125698147Y-92143225D01*
X125801763Y-91800033D01*
X125970062Y-91483511D01*
X126196637Y-91205701D01*
X126472856Y-90977194D01*
X126788197Y-90806690D01*
X127130656Y-90700681D01*
X127517712Y-90660000D01*
X142123000Y-90660000D01*
X142123000Y-103612000D01*
G37*
%TD.AperFunction*%
%TD*%
M02*
