%TF.GenerationSoftware,KiCad,Pcbnew,5.1.9-73d0e3b20d~88~ubuntu20.04.1*%
%TF.CreationDate,2021-04-10T19:31:35+02:00*%
%TF.ProjectId,wally,77616c6c-792e-46b6-9963-61645f706362,v1.00*%
%TF.SameCoordinates,Original*%
%TF.FileFunction,Legend,Top*%
%TF.FilePolarity,Positive*%
%FSLAX46Y46*%
G04 Gerber Fmt 4.6, Leading zero omitted, Abs format (unit mm)*
G04 Created by KiCad (PCBNEW 5.1.9-73d0e3b20d~88~ubuntu20.04.1) date 2021-04-10 19:31:35*
%MOMM*%
%LPD*%
G01*
G04 APERTURE LIST*
%ADD10C,0.250000*%
%ADD11C,0.300000*%
%ADD12C,0.120000*%
%ADD13C,0.127000*%
%ADD14C,0.100000*%
%ADD15C,0.150000*%
G04 APERTURE END LIST*
D10*
X139119047Y-88047619D02*
X139119047Y-87333333D01*
X139166666Y-87190476D01*
X139261904Y-87095238D01*
X139404761Y-87047619D01*
X139500000Y-87047619D01*
X138166666Y-87047619D02*
X138642857Y-87047619D01*
X138642857Y-88047619D01*
X137261904Y-87142857D02*
X137309523Y-87095238D01*
X137452380Y-87047619D01*
X137547619Y-87047619D01*
X137690476Y-87095238D01*
X137785714Y-87190476D01*
X137833333Y-87285714D01*
X137880952Y-87476190D01*
X137880952Y-87619047D01*
X137833333Y-87809523D01*
X137785714Y-87904761D01*
X137690476Y-88000000D01*
X137547619Y-88047619D01*
X137452380Y-88047619D01*
X137309523Y-88000000D01*
X137261904Y-87952380D01*
X136547619Y-88047619D02*
X136547619Y-87333333D01*
X136595238Y-87190476D01*
X136690476Y-87095238D01*
X136833333Y-87047619D01*
X136928571Y-87047619D01*
X135595238Y-87047619D02*
X136071428Y-87047619D01*
X136071428Y-88047619D01*
X134690476Y-87142857D02*
X134738095Y-87095238D01*
X134880952Y-87047619D01*
X134976190Y-87047619D01*
X135119047Y-87095238D01*
X135214285Y-87190476D01*
X135261904Y-87285714D01*
X135309523Y-87476190D01*
X135309523Y-87619047D01*
X135261904Y-87809523D01*
X135214285Y-87904761D01*
X135119047Y-88000000D01*
X134976190Y-88047619D01*
X134880952Y-88047619D01*
X134738095Y-88000000D01*
X134690476Y-87952380D01*
X133976190Y-88047619D02*
X133976190Y-87333333D01*
X134023809Y-87190476D01*
X134119047Y-87095238D01*
X134261904Y-87047619D01*
X134357142Y-87047619D01*
X133023809Y-87047619D02*
X133500000Y-87047619D01*
X133500000Y-88047619D01*
X132119047Y-87142857D02*
X132166666Y-87095238D01*
X132309523Y-87047619D01*
X132404761Y-87047619D01*
X132547619Y-87095238D01*
X132642857Y-87190476D01*
X132690476Y-87285714D01*
X132738095Y-87476190D01*
X132738095Y-87619047D01*
X132690476Y-87809523D01*
X132642857Y-87904761D01*
X132547619Y-88000000D01*
X132404761Y-88047619D01*
X132309523Y-88047619D01*
X132166666Y-88000000D01*
X132119047Y-87952380D01*
X131404761Y-88047619D02*
X131404761Y-87333333D01*
X131452380Y-87190476D01*
X131547619Y-87095238D01*
X131690476Y-87047619D01*
X131785714Y-87047619D01*
X130452380Y-87047619D02*
X130928571Y-87047619D01*
X130928571Y-88047619D01*
X129547619Y-87142857D02*
X129595238Y-87095238D01*
X129738095Y-87047619D01*
X129833333Y-87047619D01*
X129976190Y-87095238D01*
X130071428Y-87190476D01*
X130119047Y-87285714D01*
X130166666Y-87476190D01*
X130166666Y-87619047D01*
X130119047Y-87809523D01*
X130071428Y-87904761D01*
X129976190Y-88000000D01*
X129833333Y-88047619D01*
X129738095Y-88047619D01*
X129595238Y-88000000D01*
X129547619Y-87952380D01*
D11*
X127500000Y-101178571D02*
X127785714Y-102178571D01*
X128071428Y-101464285D01*
X128357142Y-102178571D01*
X128642857Y-101178571D01*
X129071428Y-101178571D02*
X129357142Y-102178571D01*
X129642857Y-101464285D01*
X129928571Y-102178571D01*
X130214285Y-101178571D01*
X130642857Y-101178571D02*
X130928571Y-102178571D01*
X131214285Y-101464285D01*
X131500000Y-102178571D01*
X131785714Y-101178571D01*
X132357142Y-102035714D02*
X132428571Y-102107142D01*
X132357142Y-102178571D01*
X132285714Y-102107142D01*
X132357142Y-102035714D01*
X132357142Y-102178571D01*
X133000000Y-100821428D02*
X133071428Y-100750000D01*
X133214285Y-100678571D01*
X133571428Y-100678571D01*
X133714285Y-100750000D01*
X133785714Y-100821428D01*
X133857142Y-100964285D01*
X133857142Y-101107142D01*
X133785714Y-101321428D01*
X132928571Y-102178571D01*
X133857142Y-102178571D01*
X134500000Y-101607142D02*
X135642857Y-101607142D01*
X136642857Y-100678571D02*
X136785714Y-100678571D01*
X136928571Y-100750000D01*
X137000000Y-100821428D01*
X137071428Y-100964285D01*
X137142857Y-101250000D01*
X137142857Y-101607142D01*
X137071428Y-101892857D01*
X137000000Y-102035714D01*
X136928571Y-102107142D01*
X136785714Y-102178571D01*
X136642857Y-102178571D01*
X136500000Y-102107142D01*
X136428571Y-102035714D01*
X136357142Y-101892857D01*
X136285714Y-101607142D01*
X136285714Y-101250000D01*
X136357142Y-100964285D01*
X136428571Y-100821428D01*
X136500000Y-100750000D01*
X136642857Y-100678571D01*
X137785714Y-102035714D02*
X137857142Y-102107142D01*
X137785714Y-102178571D01*
X137714285Y-102107142D01*
X137785714Y-102035714D01*
X137785714Y-102178571D01*
X139142857Y-102178571D02*
X139142857Y-100678571D01*
X139142857Y-102107142D02*
X139000000Y-102178571D01*
X138714285Y-102178571D01*
X138571428Y-102107142D01*
X138500000Y-102035714D01*
X138428571Y-101892857D01*
X138428571Y-101464285D01*
X138500000Y-101321428D01*
X138571428Y-101250000D01*
X138714285Y-101178571D01*
X139000000Y-101178571D01*
X139142857Y-101250000D01*
X139857142Y-102178571D02*
X139857142Y-100678571D01*
X140000000Y-101607142D02*
X140428571Y-102178571D01*
X140428571Y-101178571D02*
X139857142Y-101750000D01*
X127678571Y-97678571D02*
X128035714Y-99178571D01*
X128321428Y-98107142D01*
X128607142Y-99178571D01*
X128964285Y-97678571D01*
X130178571Y-99178571D02*
X130178571Y-98392857D01*
X130107142Y-98250000D01*
X129964285Y-98178571D01*
X129678571Y-98178571D01*
X129535714Y-98250000D01*
X130178571Y-99107142D02*
X130035714Y-99178571D01*
X129678571Y-99178571D01*
X129535714Y-99107142D01*
X129464285Y-98964285D01*
X129464285Y-98821428D01*
X129535714Y-98678571D01*
X129678571Y-98607142D01*
X130035714Y-98607142D01*
X130178571Y-98535714D01*
X131107142Y-99178571D02*
X130964285Y-99107142D01*
X130892857Y-98964285D01*
X130892857Y-97678571D01*
X131892857Y-99178571D02*
X131750000Y-99107142D01*
X131678571Y-98964285D01*
X131678571Y-97678571D01*
X132321428Y-98178571D02*
X132678571Y-99178571D01*
X133035714Y-98178571D02*
X132678571Y-99178571D01*
X132535714Y-99535714D01*
X132464285Y-99607142D01*
X132321428Y-99678571D01*
X134607142Y-98178571D02*
X134964285Y-99178571D01*
X135321428Y-98178571D01*
X136678571Y-99178571D02*
X135821428Y-99178571D01*
X136250000Y-99178571D02*
X136250000Y-97678571D01*
X136107142Y-97892857D01*
X135964285Y-98035714D01*
X135821428Y-98107142D01*
X137321428Y-99035714D02*
X137392857Y-99107142D01*
X137321428Y-99178571D01*
X137250000Y-99107142D01*
X137321428Y-99035714D01*
X137321428Y-99178571D01*
X138321428Y-97678571D02*
X138464285Y-97678571D01*
X138607142Y-97750000D01*
X138678571Y-97821428D01*
X138750000Y-97964285D01*
X138821428Y-98250000D01*
X138821428Y-98607142D01*
X138750000Y-98892857D01*
X138678571Y-99035714D01*
X138607142Y-99107142D01*
X138464285Y-99178571D01*
X138321428Y-99178571D01*
X138178571Y-99107142D01*
X138107142Y-99035714D01*
X138035714Y-98892857D01*
X137964285Y-98607142D01*
X137964285Y-98250000D01*
X138035714Y-97964285D01*
X138107142Y-97821428D01*
X138178571Y-97750000D01*
X138321428Y-97678571D01*
X139750000Y-97678571D02*
X139892857Y-97678571D01*
X140035714Y-97750000D01*
X140107142Y-97821428D01*
X140178571Y-97964285D01*
X140250000Y-98250000D01*
X140250000Y-98607142D01*
X140178571Y-98892857D01*
X140107142Y-99035714D01*
X140035714Y-99107142D01*
X139892857Y-99178571D01*
X139750000Y-99178571D01*
X139607142Y-99107142D01*
X139535714Y-99035714D01*
X139464285Y-98892857D01*
X139392857Y-98607142D01*
X139392857Y-98250000D01*
X139464285Y-97964285D01*
X139535714Y-97821428D01*
X139607142Y-97750000D01*
X139750000Y-97678571D01*
D12*
%TO.C,U3*%
X165300000Y-98390000D02*
X162850000Y-98390000D01*
X163500000Y-101610000D02*
X165300000Y-101610000D01*
%TO.C,J1*%
X175500000Y-104700000D02*
X175500000Y-95300000D01*
X169700000Y-95300000D02*
X171700000Y-95300000D01*
X173600000Y-95300000D02*
X175500000Y-95300000D01*
X169700000Y-104700000D02*
X171700000Y-104700000D01*
X173600000Y-104700000D02*
X175500000Y-104700000D01*
D13*
%TO.C,J3*%
X140425000Y-95150000D02*
X138925000Y-95150000D01*
X128625000Y-95150000D02*
X127525000Y-95150000D01*
X126575000Y-92380000D02*
X126575000Y-90190000D01*
X126575000Y-87480000D02*
X126575000Y-86250000D01*
X126575000Y-86250000D02*
X141575000Y-86250000D01*
X141575000Y-86250000D02*
X141575000Y-87480000D01*
X141575000Y-90190000D02*
X141575000Y-92380000D01*
D14*
X129599000Y-96790000D02*
G75*
G03*
X129599000Y-96790000I-254000J0D01*
G01*
D12*
%TO.C,C2*%
X153900000Y-101120580D02*
X153900000Y-100839420D01*
X152880000Y-101120580D02*
X152880000Y-100839420D01*
%TO.C,C1*%
X153900000Y-97839420D02*
X153900000Y-98120580D01*
X152880000Y-97839420D02*
X152880000Y-98120580D01*
%TO.C,R3*%
X158522500Y-108562742D02*
X158522500Y-109037258D01*
X157477500Y-108562742D02*
X157477500Y-109037258D01*
%TO.C,R8*%
X148762742Y-95022500D02*
X149237258Y-95022500D01*
X148762742Y-93977500D02*
X149237258Y-93977500D01*
%TO.C,R14*%
X144727742Y-107722500D02*
X145202258Y-107722500D01*
X144727742Y-106677500D02*
X145202258Y-106677500D01*
%TO.C,Q4*%
X146580000Y-103940000D02*
X146580000Y-105400000D01*
X143420000Y-103940000D02*
X143420000Y-106100000D01*
X143420000Y-103940000D02*
X144350000Y-103940000D01*
X146580000Y-103940000D02*
X145650000Y-103940000D01*
%TO.C,Q3*%
X147880000Y-111410000D02*
X148810000Y-111410000D01*
X151040000Y-111410000D02*
X150110000Y-111410000D01*
X151040000Y-111410000D02*
X151040000Y-109250000D01*
X147880000Y-111410000D02*
X147880000Y-109950000D01*
%TO.C,C3*%
X157859420Y-103740000D02*
X158140580Y-103740000D01*
X157859420Y-104760000D02*
X158140580Y-104760000D01*
%TO.C,C4*%
X170665000Y-90458748D02*
X170665000Y-90981252D01*
X169195000Y-90458748D02*
X169195000Y-90981252D01*
%TO.C,C5*%
X165265000Y-90981252D02*
X165265000Y-90458748D01*
X163795000Y-90981252D02*
X163795000Y-90458748D01*
%TO.C,Q1*%
X147420000Y-97760000D02*
X148350000Y-97760000D01*
X150580000Y-97760000D02*
X149650000Y-97760000D01*
X150580000Y-97760000D02*
X150580000Y-95600000D01*
X147420000Y-97760000D02*
X147420000Y-96300000D01*
%TO.C,Q2*%
X143420000Y-97760000D02*
X143420000Y-96300000D01*
X146580000Y-97760000D02*
X146580000Y-95600000D01*
X146580000Y-97760000D02*
X145650000Y-97760000D01*
X143420000Y-97760000D02*
X144350000Y-97760000D01*
%TO.C,R1*%
X165882500Y-103527258D02*
X165882500Y-103052742D01*
X164837500Y-103527258D02*
X164837500Y-103052742D01*
%TO.C,R2*%
X165872500Y-96462742D02*
X165872500Y-96937258D01*
X164827500Y-96462742D02*
X164827500Y-96937258D01*
%TO.C,R4*%
X150222500Y-102962742D02*
X150222500Y-103437258D01*
X149177500Y-102962742D02*
X149177500Y-103437258D01*
%TO.C,R5*%
X148722500Y-102962742D02*
X148722500Y-103437258D01*
X147677500Y-102962742D02*
X147677500Y-103437258D01*
%TO.C,R6*%
X149177500Y-99962742D02*
X149177500Y-100437258D01*
X150222500Y-99962742D02*
X150222500Y-100437258D01*
%TO.C,R7*%
X147677500Y-99962742D02*
X147677500Y-100437258D01*
X148722500Y-99962742D02*
X148722500Y-100437258D01*
%TO.C,R9*%
X151437500Y-110887258D02*
X151437500Y-110412742D01*
X152482500Y-110887258D02*
X152482500Y-110412742D01*
%TO.C,R10*%
X144762742Y-98977500D02*
X145237258Y-98977500D01*
X144762742Y-100022500D02*
X145237258Y-100022500D01*
%TO.C,R11*%
X145237258Y-101522500D02*
X144762742Y-101522500D01*
X145237258Y-100477500D02*
X144762742Y-100477500D01*
%TO.C,R12*%
X144762742Y-95022500D02*
X145237258Y-95022500D01*
X144762742Y-93977500D02*
X145237258Y-93977500D01*
%TO.C,R13*%
X146437500Y-110412742D02*
X146437500Y-110887258D01*
X147482500Y-110412742D02*
X147482500Y-110887258D01*
%TO.C,R15*%
X152937500Y-110412742D02*
X152937500Y-110887258D01*
X153982500Y-110412742D02*
X153982500Y-110887258D01*
%TO.C,R16*%
X154437500Y-110887258D02*
X154437500Y-110412742D01*
X155482500Y-110887258D02*
X155482500Y-110412742D01*
%TO.C,U1*%
X158000000Y-103385000D02*
X160200000Y-103385000D01*
X158000000Y-103385000D02*
X155800000Y-103385000D01*
X158000000Y-96615000D02*
X160200000Y-96615000D01*
X158000000Y-96615000D02*
X154400000Y-96615000D01*
%TO.C,U2*%
X167990000Y-92300000D02*
X167990000Y-91370000D01*
X167990000Y-89140000D02*
X167990000Y-90070000D01*
X167990000Y-89140000D02*
X165830000Y-89140000D01*
X167990000Y-92300000D02*
X166530000Y-92300000D01*
%TO.C,D1*%
X135215000Y-108100000D02*
X135215000Y-110550000D01*
X138435000Y-109900000D02*
X138435000Y-108100000D01*
%TO.C,D2*%
X162495000Y-113835000D02*
X164780000Y-113835000D01*
X162495000Y-112365000D02*
X162495000Y-113835000D01*
X164780000Y-112365000D02*
X162495000Y-112365000D01*
%TO.C,R17*%
X164217258Y-111067500D02*
X163742742Y-111067500D01*
X164217258Y-112112500D02*
X163742742Y-112112500D01*
D15*
%TO.C,SW1*%
X159100000Y-107000000D02*
X168900000Y-107000000D01*
X168900000Y-110600000D02*
X159100000Y-110600000D01*
X168900000Y-107000000D02*
X168900000Y-110600000D01*
X159100000Y-110600000D02*
X159100000Y-107000000D01*
D12*
%TO.C,J4*%
X161538000Y-85470000D02*
X161538000Y-86800000D01*
X160208000Y-85470000D02*
X161538000Y-85470000D01*
X161538000Y-88070000D02*
X161538000Y-90670000D01*
X158938000Y-88070000D02*
X161538000Y-88070000D01*
X158938000Y-85470000D02*
X158938000Y-88070000D01*
X161538000Y-90670000D02*
X143638000Y-90670000D01*
X158938000Y-85470000D02*
X143638000Y-85470000D01*
X143638000Y-85470000D02*
X143638000Y-90670000D01*
%TO.C,U3*%
D15*
X162279285Y-98031428D02*
X162886428Y-98031428D01*
X162957857Y-97995714D01*
X162993571Y-97960000D01*
X163029285Y-97888571D01*
X163029285Y-97745714D01*
X162993571Y-97674285D01*
X162957857Y-97638571D01*
X162886428Y-97602857D01*
X162279285Y-97602857D01*
X162279285Y-97317142D02*
X162279285Y-96852857D01*
X162565000Y-97102857D01*
X162565000Y-96995714D01*
X162600714Y-96924285D01*
X162636428Y-96888571D01*
X162707857Y-96852857D01*
X162886428Y-96852857D01*
X162957857Y-96888571D01*
X162993571Y-96924285D01*
X163029285Y-96995714D01*
X163029285Y-97210000D01*
X162993571Y-97281428D01*
X162957857Y-97317142D01*
%TO.C,J1*%
X171350000Y-105469285D02*
X171350000Y-106005000D01*
X171314285Y-106112142D01*
X171242857Y-106183571D01*
X171135714Y-106219285D01*
X171064285Y-106219285D01*
X172100000Y-106219285D02*
X171671428Y-106219285D01*
X171885714Y-106219285D02*
X171885714Y-105469285D01*
X171814285Y-105576428D01*
X171742857Y-105647857D01*
X171671428Y-105683571D01*
%TO.C,J3*%
X125589285Y-92250000D02*
X126125000Y-92250000D01*
X126232142Y-92285714D01*
X126303571Y-92357142D01*
X126339285Y-92464285D01*
X126339285Y-92535714D01*
X125589285Y-91964285D02*
X125589285Y-91500000D01*
X125875000Y-91750000D01*
X125875000Y-91642857D01*
X125910714Y-91571428D01*
X125946428Y-91535714D01*
X126017857Y-91500000D01*
X126196428Y-91500000D01*
X126267857Y-91535714D01*
X126303571Y-91571428D01*
X126339285Y-91642857D01*
X126339285Y-91857142D01*
X126303571Y-91928571D01*
X126267857Y-91964285D01*
%TO.C,C2*%
X152477857Y-101115000D02*
X152513571Y-101150714D01*
X152549285Y-101257857D01*
X152549285Y-101329285D01*
X152513571Y-101436428D01*
X152442142Y-101507857D01*
X152370714Y-101543571D01*
X152227857Y-101579285D01*
X152120714Y-101579285D01*
X151977857Y-101543571D01*
X151906428Y-101507857D01*
X151835000Y-101436428D01*
X151799285Y-101329285D01*
X151799285Y-101257857D01*
X151835000Y-101150714D01*
X151870714Y-101115000D01*
X151870714Y-100829285D02*
X151835000Y-100793571D01*
X151799285Y-100722142D01*
X151799285Y-100543571D01*
X151835000Y-100472142D01*
X151870714Y-100436428D01*
X151942142Y-100400714D01*
X152013571Y-100400714D01*
X152120714Y-100436428D01*
X152549285Y-100865000D01*
X152549285Y-100400714D01*
%TO.C,C1*%
X152467857Y-98135000D02*
X152503571Y-98170714D01*
X152539285Y-98277857D01*
X152539285Y-98349285D01*
X152503571Y-98456428D01*
X152432142Y-98527857D01*
X152360714Y-98563571D01*
X152217857Y-98599285D01*
X152110714Y-98599285D01*
X151967857Y-98563571D01*
X151896428Y-98527857D01*
X151825000Y-98456428D01*
X151789285Y-98349285D01*
X151789285Y-98277857D01*
X151825000Y-98170714D01*
X151860714Y-98135000D01*
X152539285Y-97420714D02*
X152539285Y-97849285D01*
X152539285Y-97635000D02*
X151789285Y-97635000D01*
X151896428Y-97706428D01*
X151967857Y-97777857D01*
X152003571Y-97849285D01*
%TO.C,R3*%
X158339285Y-111145000D02*
X157982142Y-111395000D01*
X158339285Y-111573571D02*
X157589285Y-111573571D01*
X157589285Y-111287857D01*
X157625000Y-111216428D01*
X157660714Y-111180714D01*
X157732142Y-111145000D01*
X157839285Y-111145000D01*
X157910714Y-111180714D01*
X157946428Y-111216428D01*
X157982142Y-111287857D01*
X157982142Y-111573571D01*
X157589285Y-110895000D02*
X157589285Y-110430714D01*
X157875000Y-110680714D01*
X157875000Y-110573571D01*
X157910714Y-110502142D01*
X157946428Y-110466428D01*
X158017857Y-110430714D01*
X158196428Y-110430714D01*
X158267857Y-110466428D01*
X158303571Y-110502142D01*
X158339285Y-110573571D01*
X158339285Y-110787857D01*
X158303571Y-110859285D01*
X158267857Y-110895000D01*
%TO.C,R8*%
X148875000Y-92519285D02*
X148625000Y-92162142D01*
X148446428Y-92519285D02*
X148446428Y-91769285D01*
X148732142Y-91769285D01*
X148803571Y-91805000D01*
X148839285Y-91840714D01*
X148875000Y-91912142D01*
X148875000Y-92019285D01*
X148839285Y-92090714D01*
X148803571Y-92126428D01*
X148732142Y-92162142D01*
X148446428Y-92162142D01*
X149303571Y-92090714D02*
X149232142Y-92055000D01*
X149196428Y-92019285D01*
X149160714Y-91947857D01*
X149160714Y-91912142D01*
X149196428Y-91840714D01*
X149232142Y-91805000D01*
X149303571Y-91769285D01*
X149446428Y-91769285D01*
X149517857Y-91805000D01*
X149553571Y-91840714D01*
X149589285Y-91912142D01*
X149589285Y-91947857D01*
X149553571Y-92019285D01*
X149517857Y-92055000D01*
X149446428Y-92090714D01*
X149303571Y-92090714D01*
X149232142Y-92126428D01*
X149196428Y-92162142D01*
X149160714Y-92233571D01*
X149160714Y-92376428D01*
X149196428Y-92447857D01*
X149232142Y-92483571D01*
X149303571Y-92519285D01*
X149446428Y-92519285D01*
X149517857Y-92483571D01*
X149553571Y-92447857D01*
X149589285Y-92376428D01*
X149589285Y-92233571D01*
X149553571Y-92162142D01*
X149517857Y-92126428D01*
X149446428Y-92090714D01*
%TO.C,R14*%
X144497857Y-109819285D02*
X144247857Y-109462142D01*
X144069285Y-109819285D02*
X144069285Y-109069285D01*
X144355000Y-109069285D01*
X144426428Y-109105000D01*
X144462142Y-109140714D01*
X144497857Y-109212142D01*
X144497857Y-109319285D01*
X144462142Y-109390714D01*
X144426428Y-109426428D01*
X144355000Y-109462142D01*
X144069285Y-109462142D01*
X145212142Y-109819285D02*
X144783571Y-109819285D01*
X144997857Y-109819285D02*
X144997857Y-109069285D01*
X144926428Y-109176428D01*
X144855000Y-109247857D01*
X144783571Y-109283571D01*
X145855000Y-109319285D02*
X145855000Y-109819285D01*
X145676428Y-109033571D02*
X145497857Y-109569285D01*
X145962142Y-109569285D01*
%TO.C,Q4*%
X144928571Y-108880714D02*
X144857142Y-108845000D01*
X144785714Y-108773571D01*
X144678571Y-108666428D01*
X144607142Y-108630714D01*
X144535714Y-108630714D01*
X144571428Y-108809285D02*
X144500000Y-108773571D01*
X144428571Y-108702142D01*
X144392857Y-108559285D01*
X144392857Y-108309285D01*
X144428571Y-108166428D01*
X144500000Y-108095000D01*
X144571428Y-108059285D01*
X144714285Y-108059285D01*
X144785714Y-108095000D01*
X144857142Y-108166428D01*
X144892857Y-108309285D01*
X144892857Y-108559285D01*
X144857142Y-108702142D01*
X144785714Y-108773571D01*
X144714285Y-108809285D01*
X144571428Y-108809285D01*
X145535714Y-108309285D02*
X145535714Y-108809285D01*
X145357142Y-108023571D02*
X145178571Y-108559285D01*
X145642857Y-108559285D01*
%TO.C,Q3*%
X149870714Y-113301428D02*
X149835000Y-113372857D01*
X149763571Y-113444285D01*
X149656428Y-113551428D01*
X149620714Y-113622857D01*
X149620714Y-113694285D01*
X149799285Y-113658571D02*
X149763571Y-113730000D01*
X149692142Y-113801428D01*
X149549285Y-113837142D01*
X149299285Y-113837142D01*
X149156428Y-113801428D01*
X149085000Y-113730000D01*
X149049285Y-113658571D01*
X149049285Y-113515714D01*
X149085000Y-113444285D01*
X149156428Y-113372857D01*
X149299285Y-113337142D01*
X149549285Y-113337142D01*
X149692142Y-113372857D01*
X149763571Y-113444285D01*
X149799285Y-113515714D01*
X149799285Y-113658571D01*
X149049285Y-113087142D02*
X149049285Y-112622857D01*
X149335000Y-112872857D01*
X149335000Y-112765714D01*
X149370714Y-112694285D01*
X149406428Y-112658571D01*
X149477857Y-112622857D01*
X149656428Y-112622857D01*
X149727857Y-112658571D01*
X149763571Y-112694285D01*
X149799285Y-112765714D01*
X149799285Y-112980000D01*
X149763571Y-113051428D01*
X149727857Y-113087142D01*
%TO.C,C3*%
X157875000Y-105747857D02*
X157839285Y-105783571D01*
X157732142Y-105819285D01*
X157660714Y-105819285D01*
X157553571Y-105783571D01*
X157482142Y-105712142D01*
X157446428Y-105640714D01*
X157410714Y-105497857D01*
X157410714Y-105390714D01*
X157446428Y-105247857D01*
X157482142Y-105176428D01*
X157553571Y-105105000D01*
X157660714Y-105069285D01*
X157732142Y-105069285D01*
X157839285Y-105105000D01*
X157875000Y-105140714D01*
X158125000Y-105069285D02*
X158589285Y-105069285D01*
X158339285Y-105355000D01*
X158446428Y-105355000D01*
X158517857Y-105390714D01*
X158553571Y-105426428D01*
X158589285Y-105497857D01*
X158589285Y-105676428D01*
X158553571Y-105747857D01*
X158517857Y-105783571D01*
X158446428Y-105819285D01*
X158232142Y-105819285D01*
X158160714Y-105783571D01*
X158125000Y-105747857D01*
%TO.C,C4*%
X171787857Y-90845000D02*
X171823571Y-90880714D01*
X171859285Y-90987857D01*
X171859285Y-91059285D01*
X171823571Y-91166428D01*
X171752142Y-91237857D01*
X171680714Y-91273571D01*
X171537857Y-91309285D01*
X171430714Y-91309285D01*
X171287857Y-91273571D01*
X171216428Y-91237857D01*
X171145000Y-91166428D01*
X171109285Y-91059285D01*
X171109285Y-90987857D01*
X171145000Y-90880714D01*
X171180714Y-90845000D01*
X171359285Y-90202142D02*
X171859285Y-90202142D01*
X171073571Y-90380714D02*
X171609285Y-90559285D01*
X171609285Y-90095000D01*
%TO.C,C5*%
X163347857Y-90845000D02*
X163383571Y-90880714D01*
X163419285Y-90987857D01*
X163419285Y-91059285D01*
X163383571Y-91166428D01*
X163312142Y-91237857D01*
X163240714Y-91273571D01*
X163097857Y-91309285D01*
X162990714Y-91309285D01*
X162847857Y-91273571D01*
X162776428Y-91237857D01*
X162705000Y-91166428D01*
X162669285Y-91059285D01*
X162669285Y-90987857D01*
X162705000Y-90880714D01*
X162740714Y-90845000D01*
X162669285Y-90166428D02*
X162669285Y-90523571D01*
X163026428Y-90559285D01*
X162990714Y-90523571D01*
X162955000Y-90452142D01*
X162955000Y-90273571D01*
X162990714Y-90202142D01*
X163026428Y-90166428D01*
X163097857Y-90130714D01*
X163276428Y-90130714D01*
X163347857Y-90166428D01*
X163383571Y-90202142D01*
X163419285Y-90273571D01*
X163419285Y-90452142D01*
X163383571Y-90523571D01*
X163347857Y-90559285D01*
%TO.C,Q1*%
X148928571Y-93640714D02*
X148857142Y-93605000D01*
X148785714Y-93533571D01*
X148678571Y-93426428D01*
X148607142Y-93390714D01*
X148535714Y-93390714D01*
X148571428Y-93569285D02*
X148500000Y-93533571D01*
X148428571Y-93462142D01*
X148392857Y-93319285D01*
X148392857Y-93069285D01*
X148428571Y-92926428D01*
X148500000Y-92855000D01*
X148571428Y-92819285D01*
X148714285Y-92819285D01*
X148785714Y-92855000D01*
X148857142Y-92926428D01*
X148892857Y-93069285D01*
X148892857Y-93319285D01*
X148857142Y-93462142D01*
X148785714Y-93533571D01*
X148714285Y-93569285D01*
X148571428Y-93569285D01*
X149607142Y-93569285D02*
X149178571Y-93569285D01*
X149392857Y-93569285D02*
X149392857Y-92819285D01*
X149321428Y-92926428D01*
X149250000Y-92997857D01*
X149178571Y-93033571D01*
%TO.C,Q2*%
X144928571Y-93640714D02*
X144857142Y-93605000D01*
X144785714Y-93533571D01*
X144678571Y-93426428D01*
X144607142Y-93390714D01*
X144535714Y-93390714D01*
X144571428Y-93569285D02*
X144500000Y-93533571D01*
X144428571Y-93462142D01*
X144392857Y-93319285D01*
X144392857Y-93069285D01*
X144428571Y-92926428D01*
X144500000Y-92855000D01*
X144571428Y-92819285D01*
X144714285Y-92819285D01*
X144785714Y-92855000D01*
X144857142Y-92926428D01*
X144892857Y-93069285D01*
X144892857Y-93319285D01*
X144857142Y-93462142D01*
X144785714Y-93533571D01*
X144714285Y-93569285D01*
X144571428Y-93569285D01*
X145178571Y-92890714D02*
X145214285Y-92855000D01*
X145285714Y-92819285D01*
X145464285Y-92819285D01*
X145535714Y-92855000D01*
X145571428Y-92890714D01*
X145607142Y-92962142D01*
X145607142Y-93033571D01*
X145571428Y-93140714D01*
X145142857Y-93569285D01*
X145607142Y-93569285D01*
%TO.C,R1*%
X164499285Y-103415000D02*
X164142142Y-103665000D01*
X164499285Y-103843571D02*
X163749285Y-103843571D01*
X163749285Y-103557857D01*
X163785000Y-103486428D01*
X163820714Y-103450714D01*
X163892142Y-103415000D01*
X163999285Y-103415000D01*
X164070714Y-103450714D01*
X164106428Y-103486428D01*
X164142142Y-103557857D01*
X164142142Y-103843571D01*
X164499285Y-102700714D02*
X164499285Y-103129285D01*
X164499285Y-102915000D02*
X163749285Y-102915000D01*
X163856428Y-102986428D01*
X163927857Y-103057857D01*
X163963571Y-103129285D01*
%TO.C,R2*%
X164489285Y-96825000D02*
X164132142Y-97075000D01*
X164489285Y-97253571D02*
X163739285Y-97253571D01*
X163739285Y-96967857D01*
X163775000Y-96896428D01*
X163810714Y-96860714D01*
X163882142Y-96825000D01*
X163989285Y-96825000D01*
X164060714Y-96860714D01*
X164096428Y-96896428D01*
X164132142Y-96967857D01*
X164132142Y-97253571D01*
X163810714Y-96539285D02*
X163775000Y-96503571D01*
X163739285Y-96432142D01*
X163739285Y-96253571D01*
X163775000Y-96182142D01*
X163810714Y-96146428D01*
X163882142Y-96110714D01*
X163953571Y-96110714D01*
X164060714Y-96146428D01*
X164489285Y-96575000D01*
X164489285Y-96110714D01*
%TO.C,R4*%
X150049285Y-105505000D02*
X149692142Y-105755000D01*
X150049285Y-105933571D02*
X149299285Y-105933571D01*
X149299285Y-105647857D01*
X149335000Y-105576428D01*
X149370714Y-105540714D01*
X149442142Y-105505000D01*
X149549285Y-105505000D01*
X149620714Y-105540714D01*
X149656428Y-105576428D01*
X149692142Y-105647857D01*
X149692142Y-105933571D01*
X149549285Y-104862142D02*
X150049285Y-104862142D01*
X149263571Y-105040714D02*
X149799285Y-105219285D01*
X149799285Y-104755000D01*
%TO.C,R5*%
X148539285Y-105535000D02*
X148182142Y-105785000D01*
X148539285Y-105963571D02*
X147789285Y-105963571D01*
X147789285Y-105677857D01*
X147825000Y-105606428D01*
X147860714Y-105570714D01*
X147932142Y-105535000D01*
X148039285Y-105535000D01*
X148110714Y-105570714D01*
X148146428Y-105606428D01*
X148182142Y-105677857D01*
X148182142Y-105963571D01*
X147789285Y-104856428D02*
X147789285Y-105213571D01*
X148146428Y-105249285D01*
X148110714Y-105213571D01*
X148075000Y-105142142D01*
X148075000Y-104963571D01*
X148110714Y-104892142D01*
X148146428Y-104856428D01*
X148217857Y-104820714D01*
X148396428Y-104820714D01*
X148467857Y-104856428D01*
X148503571Y-104892142D01*
X148539285Y-104963571D01*
X148539285Y-105142142D01*
X148503571Y-105213571D01*
X148467857Y-105249285D01*
%TO.C,R6*%
X151319285Y-100325000D02*
X150962142Y-100575000D01*
X151319285Y-100753571D02*
X150569285Y-100753571D01*
X150569285Y-100467857D01*
X150605000Y-100396428D01*
X150640714Y-100360714D01*
X150712142Y-100325000D01*
X150819285Y-100325000D01*
X150890714Y-100360714D01*
X150926428Y-100396428D01*
X150962142Y-100467857D01*
X150962142Y-100753571D01*
X150569285Y-99682142D02*
X150569285Y-99825000D01*
X150605000Y-99896428D01*
X150640714Y-99932142D01*
X150747857Y-100003571D01*
X150890714Y-100039285D01*
X151176428Y-100039285D01*
X151247857Y-100003571D01*
X151283571Y-99967857D01*
X151319285Y-99896428D01*
X151319285Y-99753571D01*
X151283571Y-99682142D01*
X151247857Y-99646428D01*
X151176428Y-99610714D01*
X150997857Y-99610714D01*
X150926428Y-99646428D01*
X150890714Y-99682142D01*
X150855000Y-99753571D01*
X150855000Y-99896428D01*
X150890714Y-99967857D01*
X150926428Y-100003571D01*
X150997857Y-100039285D01*
%TO.C,R7*%
X147339285Y-100305000D02*
X146982142Y-100555000D01*
X147339285Y-100733571D02*
X146589285Y-100733571D01*
X146589285Y-100447857D01*
X146625000Y-100376428D01*
X146660714Y-100340714D01*
X146732142Y-100305000D01*
X146839285Y-100305000D01*
X146910714Y-100340714D01*
X146946428Y-100376428D01*
X146982142Y-100447857D01*
X146982142Y-100733571D01*
X146589285Y-100055000D02*
X146589285Y-99555000D01*
X147339285Y-99876428D01*
%TO.C,R9*%
X152309285Y-113045000D02*
X151952142Y-113295000D01*
X152309285Y-113473571D02*
X151559285Y-113473571D01*
X151559285Y-113187857D01*
X151595000Y-113116428D01*
X151630714Y-113080714D01*
X151702142Y-113045000D01*
X151809285Y-113045000D01*
X151880714Y-113080714D01*
X151916428Y-113116428D01*
X151952142Y-113187857D01*
X151952142Y-113473571D01*
X152309285Y-112687857D02*
X152309285Y-112545000D01*
X152273571Y-112473571D01*
X152237857Y-112437857D01*
X152130714Y-112366428D01*
X151987857Y-112330714D01*
X151702142Y-112330714D01*
X151630714Y-112366428D01*
X151595000Y-112402142D01*
X151559285Y-112473571D01*
X151559285Y-112616428D01*
X151595000Y-112687857D01*
X151630714Y-112723571D01*
X151702142Y-112759285D01*
X151880714Y-112759285D01*
X151952142Y-112723571D01*
X151987857Y-112687857D01*
X152023571Y-112616428D01*
X152023571Y-112473571D01*
X151987857Y-112402142D01*
X151952142Y-112366428D01*
X151880714Y-112330714D01*
%TO.C,R10*%
X143339285Y-99982142D02*
X142982142Y-100232142D01*
X143339285Y-100410714D02*
X142589285Y-100410714D01*
X142589285Y-100125000D01*
X142625000Y-100053571D01*
X142660714Y-100017857D01*
X142732142Y-99982142D01*
X142839285Y-99982142D01*
X142910714Y-100017857D01*
X142946428Y-100053571D01*
X142982142Y-100125000D01*
X142982142Y-100410714D01*
X143339285Y-99267857D02*
X143339285Y-99696428D01*
X143339285Y-99482142D02*
X142589285Y-99482142D01*
X142696428Y-99553571D01*
X142767857Y-99625000D01*
X142803571Y-99696428D01*
X142589285Y-98803571D02*
X142589285Y-98732142D01*
X142625000Y-98660714D01*
X142660714Y-98625000D01*
X142732142Y-98589285D01*
X142875000Y-98553571D01*
X143053571Y-98553571D01*
X143196428Y-98589285D01*
X143267857Y-98625000D01*
X143303571Y-98660714D01*
X143339285Y-98732142D01*
X143339285Y-98803571D01*
X143303571Y-98875000D01*
X143267857Y-98910714D01*
X143196428Y-98946428D01*
X143053571Y-98982142D01*
X142875000Y-98982142D01*
X142732142Y-98946428D01*
X142660714Y-98910714D01*
X142625000Y-98875000D01*
X142589285Y-98803571D01*
%TO.C,R11*%
X144517857Y-102539285D02*
X144267857Y-102182142D01*
X144089285Y-102539285D02*
X144089285Y-101789285D01*
X144375000Y-101789285D01*
X144446428Y-101825000D01*
X144482142Y-101860714D01*
X144517857Y-101932142D01*
X144517857Y-102039285D01*
X144482142Y-102110714D01*
X144446428Y-102146428D01*
X144375000Y-102182142D01*
X144089285Y-102182142D01*
X145232142Y-102539285D02*
X144803571Y-102539285D01*
X145017857Y-102539285D02*
X145017857Y-101789285D01*
X144946428Y-101896428D01*
X144875000Y-101967857D01*
X144803571Y-102003571D01*
X145946428Y-102539285D02*
X145517857Y-102539285D01*
X145732142Y-102539285D02*
X145732142Y-101789285D01*
X145660714Y-101896428D01*
X145589285Y-101967857D01*
X145517857Y-102003571D01*
%TO.C,R12*%
X144517857Y-92539285D02*
X144267857Y-92182142D01*
X144089285Y-92539285D02*
X144089285Y-91789285D01*
X144375000Y-91789285D01*
X144446428Y-91825000D01*
X144482142Y-91860714D01*
X144517857Y-91932142D01*
X144517857Y-92039285D01*
X144482142Y-92110714D01*
X144446428Y-92146428D01*
X144375000Y-92182142D01*
X144089285Y-92182142D01*
X145232142Y-92539285D02*
X144803571Y-92539285D01*
X145017857Y-92539285D02*
X145017857Y-91789285D01*
X144946428Y-91896428D01*
X144875000Y-91967857D01*
X144803571Y-92003571D01*
X145517857Y-91860714D02*
X145553571Y-91825000D01*
X145625000Y-91789285D01*
X145803571Y-91789285D01*
X145875000Y-91825000D01*
X145910714Y-91860714D01*
X145946428Y-91932142D01*
X145946428Y-92003571D01*
X145910714Y-92110714D01*
X145482142Y-92539285D01*
X145946428Y-92539285D01*
%TO.C,R13*%
X147299285Y-113752142D02*
X146942142Y-114002142D01*
X147299285Y-114180714D02*
X146549285Y-114180714D01*
X146549285Y-113895000D01*
X146585000Y-113823571D01*
X146620714Y-113787857D01*
X146692142Y-113752142D01*
X146799285Y-113752142D01*
X146870714Y-113787857D01*
X146906428Y-113823571D01*
X146942142Y-113895000D01*
X146942142Y-114180714D01*
X147299285Y-113037857D02*
X147299285Y-113466428D01*
X147299285Y-113252142D02*
X146549285Y-113252142D01*
X146656428Y-113323571D01*
X146727857Y-113395000D01*
X146763571Y-113466428D01*
X146549285Y-112787857D02*
X146549285Y-112323571D01*
X146835000Y-112573571D01*
X146835000Y-112466428D01*
X146870714Y-112395000D01*
X146906428Y-112359285D01*
X146977857Y-112323571D01*
X147156428Y-112323571D01*
X147227857Y-112359285D01*
X147263571Y-112395000D01*
X147299285Y-112466428D01*
X147299285Y-112680714D01*
X147263571Y-112752142D01*
X147227857Y-112787857D01*
%TO.C,R15*%
X153799285Y-113722142D02*
X153442142Y-113972142D01*
X153799285Y-114150714D02*
X153049285Y-114150714D01*
X153049285Y-113865000D01*
X153085000Y-113793571D01*
X153120714Y-113757857D01*
X153192142Y-113722142D01*
X153299285Y-113722142D01*
X153370714Y-113757857D01*
X153406428Y-113793571D01*
X153442142Y-113865000D01*
X153442142Y-114150714D01*
X153799285Y-113007857D02*
X153799285Y-113436428D01*
X153799285Y-113222142D02*
X153049285Y-113222142D01*
X153156428Y-113293571D01*
X153227857Y-113365000D01*
X153263571Y-113436428D01*
X153049285Y-112329285D02*
X153049285Y-112686428D01*
X153406428Y-112722142D01*
X153370714Y-112686428D01*
X153335000Y-112615000D01*
X153335000Y-112436428D01*
X153370714Y-112365000D01*
X153406428Y-112329285D01*
X153477857Y-112293571D01*
X153656428Y-112293571D01*
X153727857Y-112329285D01*
X153763571Y-112365000D01*
X153799285Y-112436428D01*
X153799285Y-112615000D01*
X153763571Y-112686428D01*
X153727857Y-112722142D01*
%TO.C,R16*%
X155299285Y-113692142D02*
X154942142Y-113942142D01*
X155299285Y-114120714D02*
X154549285Y-114120714D01*
X154549285Y-113835000D01*
X154585000Y-113763571D01*
X154620714Y-113727857D01*
X154692142Y-113692142D01*
X154799285Y-113692142D01*
X154870714Y-113727857D01*
X154906428Y-113763571D01*
X154942142Y-113835000D01*
X154942142Y-114120714D01*
X155299285Y-112977857D02*
X155299285Y-113406428D01*
X155299285Y-113192142D02*
X154549285Y-113192142D01*
X154656428Y-113263571D01*
X154727857Y-113335000D01*
X154763571Y-113406428D01*
X154549285Y-112335000D02*
X154549285Y-112477857D01*
X154585000Y-112549285D01*
X154620714Y-112585000D01*
X154727857Y-112656428D01*
X154870714Y-112692142D01*
X155156428Y-112692142D01*
X155227857Y-112656428D01*
X155263571Y-112620714D01*
X155299285Y-112549285D01*
X155299285Y-112406428D01*
X155263571Y-112335000D01*
X155227857Y-112299285D01*
X155156428Y-112263571D01*
X154977857Y-112263571D01*
X154906428Y-112299285D01*
X154870714Y-112335000D01*
X154835000Y-112406428D01*
X154835000Y-112549285D01*
X154870714Y-112620714D01*
X154906428Y-112656428D01*
X154977857Y-112692142D01*
%TO.C,U1*%
X158400714Y-95188571D02*
X157793571Y-95188571D01*
X157722142Y-95224285D01*
X157686428Y-95260000D01*
X157650714Y-95331428D01*
X157650714Y-95474285D01*
X157686428Y-95545714D01*
X157722142Y-95581428D01*
X157793571Y-95617142D01*
X158400714Y-95617142D01*
X157650714Y-96367142D02*
X157650714Y-95938571D01*
X157650714Y-96152857D02*
X158400714Y-96152857D01*
X158293571Y-96081428D01*
X158222142Y-96010000D01*
X158186428Y-95938571D01*
%TO.C,U2*%
X166819285Y-88811428D02*
X167426428Y-88811428D01*
X167497857Y-88775714D01*
X167533571Y-88740000D01*
X167569285Y-88668571D01*
X167569285Y-88525714D01*
X167533571Y-88454285D01*
X167497857Y-88418571D01*
X167426428Y-88382857D01*
X166819285Y-88382857D01*
X166890714Y-88061428D02*
X166855000Y-88025714D01*
X166819285Y-87954285D01*
X166819285Y-87775714D01*
X166855000Y-87704285D01*
X166890714Y-87668571D01*
X166962142Y-87632857D01*
X167033571Y-87632857D01*
X167140714Y-87668571D01*
X167569285Y-88097142D01*
X167569285Y-87632857D01*
%TO.C,D1*%
X134789285Y-109543571D02*
X134039285Y-109543571D01*
X134039285Y-109365000D01*
X134075000Y-109257857D01*
X134146428Y-109186428D01*
X134217857Y-109150714D01*
X134360714Y-109115000D01*
X134467857Y-109115000D01*
X134610714Y-109150714D01*
X134682142Y-109186428D01*
X134753571Y-109257857D01*
X134789285Y-109365000D01*
X134789285Y-109543571D01*
X134789285Y-108400714D02*
X134789285Y-108829285D01*
X134789285Y-108615000D02*
X134039285Y-108615000D01*
X134146428Y-108686428D01*
X134217857Y-108757857D01*
X134253571Y-108829285D01*
%TO.C,D2*%
X161136428Y-113439285D02*
X161136428Y-112689285D01*
X161315000Y-112689285D01*
X161422142Y-112725000D01*
X161493571Y-112796428D01*
X161529285Y-112867857D01*
X161565000Y-113010714D01*
X161565000Y-113117857D01*
X161529285Y-113260714D01*
X161493571Y-113332142D01*
X161422142Y-113403571D01*
X161315000Y-113439285D01*
X161136428Y-113439285D01*
X161850714Y-112760714D02*
X161886428Y-112725000D01*
X161957857Y-112689285D01*
X162136428Y-112689285D01*
X162207857Y-112725000D01*
X162243571Y-112760714D01*
X162279285Y-112832142D01*
X162279285Y-112903571D01*
X162243571Y-113010714D01*
X161815000Y-113439285D01*
X162279285Y-113439285D01*
%TO.C,R17*%
X160837857Y-111929285D02*
X160587857Y-111572142D01*
X160409285Y-111929285D02*
X160409285Y-111179285D01*
X160695000Y-111179285D01*
X160766428Y-111215000D01*
X160802142Y-111250714D01*
X160837857Y-111322142D01*
X160837857Y-111429285D01*
X160802142Y-111500714D01*
X160766428Y-111536428D01*
X160695000Y-111572142D01*
X160409285Y-111572142D01*
X161552142Y-111929285D02*
X161123571Y-111929285D01*
X161337857Y-111929285D02*
X161337857Y-111179285D01*
X161266428Y-111286428D01*
X161195000Y-111357857D01*
X161123571Y-111393571D01*
X161802142Y-111179285D02*
X162302142Y-111179285D01*
X161980714Y-111929285D01*
%TO.C,SW1*%
X170223571Y-109800000D02*
X170259285Y-109692857D01*
X170259285Y-109514285D01*
X170223571Y-109442857D01*
X170187857Y-109407142D01*
X170116428Y-109371428D01*
X170045000Y-109371428D01*
X169973571Y-109407142D01*
X169937857Y-109442857D01*
X169902142Y-109514285D01*
X169866428Y-109657142D01*
X169830714Y-109728571D01*
X169795000Y-109764285D01*
X169723571Y-109800000D01*
X169652142Y-109800000D01*
X169580714Y-109764285D01*
X169545000Y-109728571D01*
X169509285Y-109657142D01*
X169509285Y-109478571D01*
X169545000Y-109371428D01*
X169509285Y-109121428D02*
X170259285Y-108942857D01*
X169723571Y-108800000D01*
X170259285Y-108657142D01*
X169509285Y-108478571D01*
X170259285Y-107800000D02*
X170259285Y-108228571D01*
X170259285Y-108014285D02*
X169509285Y-108014285D01*
X169616428Y-108085714D01*
X169687857Y-108157142D01*
X169723571Y-108228571D01*
%TO.C,J4*%
X161990380Y-88403333D02*
X162704666Y-88403333D01*
X162847523Y-88450952D01*
X162942761Y-88546190D01*
X162990380Y-88689047D01*
X162990380Y-88784285D01*
X162323714Y-87498571D02*
X162990380Y-87498571D01*
X161942761Y-87736666D02*
X162657047Y-87974761D01*
X162657047Y-87355714D01*
%TD*%
M02*
