%TF.GenerationSoftware,KiCad,Pcbnew,5.1.9-73d0e3b20d~88~ubuntu20.04.1*%
%TF.CreationDate,2021-06-05T19:28:38+02:00*%
%TF.ProjectId,wally,77616c6c-792e-46b6-9963-61645f706362,v1.03*%
%TF.SameCoordinates,Original*%
%TF.FileFunction,Copper,L2,Inr*%
%TF.FilePolarity,Positive*%
%FSLAX46Y46*%
G04 Gerber Fmt 4.6, Leading zero omitted, Abs format (unit mm)*
G04 Created by KiCad (PCBNEW 5.1.9-73d0e3b20d~88~ubuntu20.04.1) date 2021-06-05 19:28:38*
%MOMM*%
%LPD*%
G01*
G04 APERTURE LIST*
%TA.AperFunction,ComponentPad*%
%ADD10O,1.600000X1.000000*%
%TD*%
%TA.AperFunction,ComponentPad*%
%ADD11O,2.100000X1.000000*%
%TD*%
%TA.AperFunction,ComponentPad*%
%ADD12R,1.700000X1.700000*%
%TD*%
%TA.AperFunction,ComponentPad*%
%ADD13O,1.700000X1.700000*%
%TD*%
%TA.AperFunction,ViaPad*%
%ADD14C,0.400000*%
%TD*%
%TA.AperFunction,ViaPad*%
%ADD15C,0.800000*%
%TD*%
%TA.AperFunction,ViaPad*%
%ADD16C,0.700000*%
%TD*%
%TA.AperFunction,ViaPad*%
%ADD17C,0.750000*%
%TD*%
%TA.AperFunction,ViaPad*%
%ADD18C,0.600000*%
%TD*%
%TA.AperFunction,Conductor*%
%ADD19C,0.200000*%
%TD*%
%TA.AperFunction,Conductor*%
%ADD20C,0.254000*%
%TD*%
%TA.AperFunction,Conductor*%
%ADD21C,0.100000*%
%TD*%
G04 APERTURE END LIST*
D10*
%TO.N,N/C*%
%TO.C,J1*%
X172650000Y-95680000D03*
X172650000Y-104320000D03*
D11*
X168470000Y-104320000D03*
X168470000Y-95680000D03*
%TD*%
D12*
%TO.N,GND*%
%TO.C,J4*%
X172200000Y-91800000D03*
D13*
%TO.N,swdio*%
X169660000Y-91800000D03*
%TO.N,swclk*%
X167120000Y-91800000D03*
%TO.N,GND*%
X164580000Y-91800000D03*
%TO.N,uart_rx*%
X162040000Y-91800000D03*
%TO.N,uart_tx*%
X159500000Y-91800000D03*
%TD*%
D12*
%TO.N,GND*%
%TO.C,J5*%
X142400000Y-107620000D03*
D13*
%TO.N,hdmi_cec*%
X142400000Y-105080000D03*
%TO.N,hdmi_utility*%
X142400000Y-102540000D03*
%TO.N,hdmi_scl*%
X142400000Y-100000000D03*
%TO.N,hdmi_sda*%
X142400000Y-97460000D03*
%TO.N,hdmi_5v*%
X142400000Y-94920000D03*
%TO.N,hdmi_hpd*%
X142400000Y-92380000D03*
%TD*%
D14*
%TO.N,GND*%
X129000000Y-106800000D03*
X136500000Y-106300000D03*
X133500000Y-106300000D03*
X132000000Y-106800000D03*
D15*
X155190000Y-101770000D03*
D16*
X170530000Y-108240000D03*
D15*
X169120000Y-106340000D03*
X156680000Y-94670000D03*
X149180000Y-92050000D03*
X174000000Y-102000000D03*
X174000000Y-98000000D03*
D16*
X162920000Y-94720000D03*
D14*
X132000000Y-93700000D03*
X129000000Y-93200000D03*
X130500000Y-93200000D03*
D15*
X139775000Y-93200000D03*
X126225000Y-93200000D03*
X126225000Y-106800000D03*
X139775000Y-106800000D03*
D17*
X166850000Y-95850000D03*
X166850000Y-104150000D03*
D18*
X165600000Y-101370000D03*
D17*
X166720000Y-104900000D03*
X166720000Y-95100000D03*
D15*
X163990000Y-107240000D03*
X165020000Y-106340000D03*
D14*
X133500000Y-93200000D03*
X136500000Y-93200000D03*
D15*
X174000000Y-94000000D03*
X126000000Y-100000000D03*
X126000000Y-97000000D03*
X126000000Y-103000000D03*
X151000000Y-91000000D03*
X154000000Y-91000000D03*
X156890000Y-90990000D03*
X145000000Y-109100000D03*
X148000000Y-109100000D03*
X151000000Y-109100000D03*
X154000000Y-109100000D03*
X156970000Y-109100000D03*
X164000000Y-108730000D03*
X153110000Y-106770000D03*
X144460000Y-98705000D03*
D16*
X154290000Y-95975000D03*
D15*
X144470000Y-91305000D03*
X144470000Y-95745000D03*
D14*
X130500000Y-106300000D03*
D15*
X164000000Y-100325000D03*
D18*
X165610000Y-98629952D03*
D15*
X149370000Y-100000000D03*
X149360000Y-97510000D03*
X149370000Y-107500000D03*
X154920000Y-105180000D03*
D16*
%TO.N,+3V3*%
X161370000Y-96890000D03*
X158230000Y-96890000D03*
D15*
X165020000Y-108240000D03*
D16*
X158230000Y-99480000D03*
X161370000Y-99669996D03*
D15*
X169110000Y-108250000D03*
X157060000Y-107820000D03*
X149370000Y-101500000D03*
%TO.N,+5V*%
X168870000Y-93800002D03*
X153000000Y-97500000D03*
X153000000Y-99700000D03*
D14*
%TO.N,hdmi_hpd*%
X137500000Y-106300000D03*
X137500000Y-93200000D03*
%TO.N,hdmi_5v*%
X137000000Y-106800000D03*
X137000000Y-93700000D03*
%TO.N,hdmi_sda*%
X136000000Y-106800000D03*
X136000000Y-93700000D03*
D15*
X144210000Y-100780000D03*
D14*
%TO.N,hdmi_scl*%
X135500000Y-106300000D03*
X135500000Y-93200000D03*
%TO.N,hdmi_utility*%
X135000000Y-106800000D03*
X135000000Y-93700000D03*
%TO.N,hdmi_cec*%
X134500000Y-106300000D03*
X134500000Y-93200000D03*
%TO.N,Net-(J2-Pad12)*%
X134000000Y-106800000D03*
%TO.N,Net-(J2-Pad10)*%
X133000000Y-106800000D03*
%TO.N,Net-(J2-Pad9)*%
X132500000Y-93300000D03*
%TO.N,Net-(J2-Pad7)*%
X131500000Y-93300000D03*
%TO.N,Net-(J2-Pad6)*%
X131000000Y-106800000D03*
%TO.N,Net-(J2-Pad4)*%
X130000000Y-106800000D03*
%TO.N,Net-(J2-Pad3)*%
X129500000Y-93700000D03*
%TO.N,Net-(J2-Pad1)*%
X128500000Y-93700000D03*
D15*
%TO.N,hdmi_5v_en*%
X154000000Y-99700000D03*
X154000000Y-97500000D03*
%TO.N,hdmi_hpd_en*%
X152820000Y-92050000D03*
D16*
X151740000Y-94025000D03*
%TD*%
D19*
%TO.N,GND*%
X133500000Y-93940002D02*
X133500000Y-93200000D01*
X132000000Y-93950000D02*
X132000000Y-93700000D01*
X132000000Y-106800000D02*
X132000000Y-106059998D01*
X130500000Y-106050000D02*
X130500000Y-106300000D01*
X132000000Y-106059998D02*
X132000000Y-105900000D01*
X130500000Y-105950000D02*
X130500000Y-106050000D01*
X130500000Y-105950000D02*
X130500000Y-105900000D01*
X133500000Y-105900000D02*
X133500000Y-106300000D01*
X136500000Y-105900000D02*
X136500000Y-106300000D01*
X136250000Y-105650000D02*
X136500000Y-105900000D01*
X133750000Y-105650000D02*
X136250000Y-105650000D01*
X133500000Y-105900000D02*
X133750000Y-105650000D01*
X130500000Y-93200000D02*
X130500000Y-94200000D01*
X132000000Y-94200000D02*
X132000000Y-93950000D01*
X131850000Y-94350000D02*
X132000000Y-94200000D01*
X130650000Y-94350000D02*
X131850000Y-94350000D01*
X130500000Y-94200000D02*
X130650000Y-94350000D01*
X133500000Y-94150000D02*
X133500000Y-93940002D01*
X133500000Y-94200000D02*
X133500000Y-94150000D01*
X133350000Y-94350000D02*
X133500000Y-94200000D01*
X132150000Y-94350000D02*
X133350000Y-94350000D01*
X132000000Y-94200000D02*
X132150000Y-94350000D01*
X133650000Y-94350000D02*
X133500000Y-94200000D01*
X136350000Y-94350000D02*
X133650000Y-94350000D01*
X136500000Y-94200000D02*
X136350000Y-94350000D01*
X136500000Y-93200000D02*
X136500000Y-94200000D01*
X130630000Y-105650000D02*
X131750000Y-105650000D01*
X130500000Y-105780000D02*
X130630000Y-105650000D01*
X131750000Y-105650000D02*
X132000000Y-105900000D01*
X130500000Y-105900000D02*
X130500000Y-105780000D01*
X130500000Y-105770000D02*
X130500000Y-105900000D01*
X130380000Y-105650000D02*
X130500000Y-105770000D01*
X129000000Y-105770000D02*
X129120000Y-105650000D01*
X129120000Y-105650000D02*
X130380000Y-105650000D01*
X129000000Y-106800000D02*
X129000000Y-105770000D01*
X133500000Y-105800000D02*
X133500000Y-105900000D01*
X133350000Y-105650000D02*
X133500000Y-105800000D01*
X132250000Y-105650000D02*
X133350000Y-105650000D01*
X132000000Y-105900000D02*
X132250000Y-105650000D01*
X130350000Y-94350000D02*
X130500000Y-94200000D01*
X129000000Y-94200000D02*
X129150000Y-94350000D01*
X129150000Y-94350000D02*
X130350000Y-94350000D01*
X129000000Y-93200000D02*
X129000000Y-94200000D01*
%TD*%
D20*
%TO.N,GND*%
X158346525Y-90853368D02*
X158184010Y-91096589D01*
X158072068Y-91366842D01*
X158015000Y-91653740D01*
X158015000Y-91946260D01*
X158072068Y-92233158D01*
X158184010Y-92503411D01*
X158346525Y-92746632D01*
X158553368Y-92953475D01*
X158796589Y-93115990D01*
X159066842Y-93227932D01*
X159353740Y-93285000D01*
X159646260Y-93285000D01*
X159933158Y-93227932D01*
X160203411Y-93115990D01*
X160446632Y-92953475D01*
X160653475Y-92746632D01*
X160770000Y-92572240D01*
X160886525Y-92746632D01*
X161093368Y-92953475D01*
X161336589Y-93115990D01*
X161606842Y-93227932D01*
X161893740Y-93285000D01*
X162186260Y-93285000D01*
X162473158Y-93227932D01*
X162743411Y-93115990D01*
X162986632Y-92953475D01*
X163193475Y-92746632D01*
X163315195Y-92564466D01*
X163384822Y-92681355D01*
X163579731Y-92897588D01*
X163813080Y-93071641D01*
X164075901Y-93196825D01*
X164223110Y-93241476D01*
X164453000Y-93120155D01*
X164453000Y-91927000D01*
X164433000Y-91927000D01*
X164433000Y-91673000D01*
X164453000Y-91673000D01*
X164453000Y-91653000D01*
X164707000Y-91653000D01*
X164707000Y-91673000D01*
X164727000Y-91673000D01*
X164727000Y-91927000D01*
X164707000Y-91927000D01*
X164707000Y-93120155D01*
X164936890Y-93241476D01*
X165084099Y-93196825D01*
X165346920Y-93071641D01*
X165580269Y-92897588D01*
X165775178Y-92681355D01*
X165844805Y-92564466D01*
X165966525Y-92746632D01*
X166173368Y-92953475D01*
X166416589Y-93115990D01*
X166686842Y-93227932D01*
X166973740Y-93285000D01*
X167266260Y-93285000D01*
X167553158Y-93227932D01*
X167823411Y-93115990D01*
X168066632Y-92953475D01*
X168273475Y-92746632D01*
X168390000Y-92572240D01*
X168506525Y-92746632D01*
X168565675Y-92805782D01*
X168379744Y-92882797D01*
X168210226Y-92996065D01*
X168066063Y-93140228D01*
X167952795Y-93309746D01*
X167874774Y-93498104D01*
X167835000Y-93698063D01*
X167835000Y-93901941D01*
X167874774Y-94101900D01*
X167952795Y-94290258D01*
X168066063Y-94459776D01*
X168151287Y-94545000D01*
X167864248Y-94545000D01*
X167697501Y-94561423D01*
X167483553Y-94626324D01*
X167286377Y-94731716D01*
X167113551Y-94873551D01*
X166971716Y-95046377D01*
X166866324Y-95243553D01*
X166801423Y-95457501D01*
X166779509Y-95680000D01*
X166801423Y-95902499D01*
X166866324Y-96116447D01*
X166971716Y-96313623D01*
X167113551Y-96486449D01*
X167286377Y-96628284D01*
X167483553Y-96733676D01*
X167697501Y-96798577D01*
X167864248Y-96815000D01*
X168083096Y-96815000D01*
X168076892Y-96829978D01*
X168040000Y-97015448D01*
X168040000Y-97204552D01*
X168076892Y-97390022D01*
X168149259Y-97564731D01*
X168254319Y-97721964D01*
X168388036Y-97855681D01*
X168545269Y-97960741D01*
X168719978Y-98033108D01*
X168905448Y-98070000D01*
X169094552Y-98070000D01*
X169280022Y-98033108D01*
X169454731Y-97960741D01*
X169611964Y-97855681D01*
X169745681Y-97721964D01*
X169850741Y-97564731D01*
X169923108Y-97390022D01*
X169960000Y-97204552D01*
X169960000Y-97015448D01*
X169923108Y-96829978D01*
X169850741Y-96655269D01*
X169769285Y-96533362D01*
X169826449Y-96486449D01*
X169968284Y-96313623D01*
X170073676Y-96116447D01*
X170138577Y-95902499D01*
X170160491Y-95680000D01*
X171209509Y-95680000D01*
X171231423Y-95902499D01*
X171296324Y-96116447D01*
X171401716Y-96313623D01*
X171543551Y-96486449D01*
X171716377Y-96628284D01*
X171913553Y-96733676D01*
X172127501Y-96798577D01*
X172294248Y-96815000D01*
X173005752Y-96815000D01*
X173172499Y-96798577D01*
X173386447Y-96733676D01*
X173583623Y-96628284D01*
X173756449Y-96486449D01*
X173898284Y-96313623D01*
X174003676Y-96116447D01*
X174068577Y-95902499D01*
X174090491Y-95680000D01*
X174068577Y-95457501D01*
X174003676Y-95243553D01*
X173898284Y-95046377D01*
X173756449Y-94873551D01*
X173583623Y-94731716D01*
X173386447Y-94626324D01*
X173172499Y-94561423D01*
X173005752Y-94545000D01*
X172294248Y-94545000D01*
X172127501Y-94561423D01*
X171913553Y-94626324D01*
X171716377Y-94731716D01*
X171543551Y-94873551D01*
X171401716Y-95046377D01*
X171296324Y-95243553D01*
X171231423Y-95457501D01*
X171209509Y-95680000D01*
X170160491Y-95680000D01*
X170138577Y-95457501D01*
X170073676Y-95243553D01*
X169968284Y-95046377D01*
X169826449Y-94873551D01*
X169653623Y-94731716D01*
X169478573Y-94638150D01*
X169529774Y-94603939D01*
X169673937Y-94459776D01*
X169787205Y-94290258D01*
X169865226Y-94101900D01*
X169905000Y-93901941D01*
X169905000Y-93698063D01*
X169865226Y-93498104D01*
X169787205Y-93309746D01*
X169770670Y-93285000D01*
X169806260Y-93285000D01*
X170093158Y-93227932D01*
X170363411Y-93115990D01*
X170606632Y-92953475D01*
X170738487Y-92821620D01*
X170760498Y-92894180D01*
X170819463Y-93004494D01*
X170898815Y-93101185D01*
X170995506Y-93180537D01*
X171105820Y-93239502D01*
X171225518Y-93275812D01*
X171350000Y-93288072D01*
X171914250Y-93285000D01*
X172073000Y-93126250D01*
X172073000Y-91927000D01*
X172327000Y-91927000D01*
X172327000Y-93126250D01*
X172485750Y-93285000D01*
X173050000Y-93288072D01*
X173174482Y-93275812D01*
X173294180Y-93239502D01*
X173404494Y-93180537D01*
X173501185Y-93101185D01*
X173580537Y-93004494D01*
X173639502Y-92894180D01*
X173675812Y-92774482D01*
X173688072Y-92650000D01*
X173685000Y-92085750D01*
X173526250Y-91927000D01*
X172327000Y-91927000D01*
X172073000Y-91927000D01*
X172053000Y-91927000D01*
X172053000Y-91673000D01*
X172073000Y-91673000D01*
X172073000Y-91653000D01*
X172327000Y-91653000D01*
X172327000Y-91673000D01*
X173526250Y-91673000D01*
X173685000Y-91514250D01*
X173687205Y-91109294D01*
X173794299Y-91196637D01*
X174022806Y-91472856D01*
X174193310Y-91788197D01*
X174299319Y-92130656D01*
X174340000Y-92517712D01*
X174340001Y-107467711D01*
X174301853Y-107856776D01*
X174198238Y-108199964D01*
X174029939Y-108516489D01*
X173803365Y-108794296D01*
X173527146Y-109022805D01*
X173211803Y-109193310D01*
X172869344Y-109299319D01*
X172482288Y-109340000D01*
X125660000Y-109340000D01*
X125660000Y-108470000D01*
X140911928Y-108470000D01*
X140924188Y-108594482D01*
X140960498Y-108714180D01*
X141019463Y-108824494D01*
X141098815Y-108921185D01*
X141195506Y-109000537D01*
X141305820Y-109059502D01*
X141425518Y-109095812D01*
X141550000Y-109108072D01*
X142114250Y-109105000D01*
X142273000Y-108946250D01*
X142273000Y-107747000D01*
X142527000Y-107747000D01*
X142527000Y-108946250D01*
X142685750Y-109105000D01*
X143250000Y-109108072D01*
X143374482Y-109095812D01*
X143494180Y-109059502D01*
X143604494Y-109000537D01*
X143701185Y-108921185D01*
X143780537Y-108824494D01*
X143839502Y-108714180D01*
X143875812Y-108594482D01*
X143888072Y-108470000D01*
X143885000Y-107905750D01*
X143726250Y-107747000D01*
X142527000Y-107747000D01*
X142273000Y-107747000D01*
X141073750Y-107747000D01*
X140915000Y-107905750D01*
X140911928Y-108470000D01*
X125660000Y-108470000D01*
X125660000Y-107718061D01*
X156025000Y-107718061D01*
X156025000Y-107921939D01*
X156064774Y-108121898D01*
X156142795Y-108310256D01*
X156256063Y-108479774D01*
X156400226Y-108623937D01*
X156569744Y-108737205D01*
X156758102Y-108815226D01*
X156958061Y-108855000D01*
X157161939Y-108855000D01*
X157361898Y-108815226D01*
X157550256Y-108737205D01*
X157719774Y-108623937D01*
X157863937Y-108479774D01*
X157977205Y-108310256D01*
X158048531Y-108138061D01*
X163985000Y-108138061D01*
X163985000Y-108341939D01*
X164024774Y-108541898D01*
X164102795Y-108730256D01*
X164216063Y-108899774D01*
X164360226Y-109043937D01*
X164529744Y-109157205D01*
X164718102Y-109235226D01*
X164918061Y-109275000D01*
X165121939Y-109275000D01*
X165321898Y-109235226D01*
X165510256Y-109157205D01*
X165679774Y-109043937D01*
X165823937Y-108899774D01*
X165937205Y-108730256D01*
X166015226Y-108541898D01*
X166055000Y-108341939D01*
X166055000Y-108148061D01*
X168075000Y-108148061D01*
X168075000Y-108351939D01*
X168114774Y-108551898D01*
X168192795Y-108740256D01*
X168306063Y-108909774D01*
X168450226Y-109053937D01*
X168619744Y-109167205D01*
X168808102Y-109245226D01*
X169008061Y-109285000D01*
X169211939Y-109285000D01*
X169411898Y-109245226D01*
X169600256Y-109167205D01*
X169769774Y-109053937D01*
X169913937Y-108909774D01*
X170027205Y-108740256D01*
X170105226Y-108551898D01*
X170145000Y-108351939D01*
X170145000Y-108148061D01*
X170105226Y-107948102D01*
X170027205Y-107759744D01*
X169913937Y-107590226D01*
X169769774Y-107446063D01*
X169600256Y-107332795D01*
X169411898Y-107254774D01*
X169211939Y-107215000D01*
X169008061Y-107215000D01*
X168808102Y-107254774D01*
X168619744Y-107332795D01*
X168450226Y-107446063D01*
X168306063Y-107590226D01*
X168192795Y-107759744D01*
X168114774Y-107948102D01*
X168075000Y-108148061D01*
X166055000Y-108148061D01*
X166055000Y-108138061D01*
X166015226Y-107938102D01*
X165937205Y-107749744D01*
X165823937Y-107580226D01*
X165679774Y-107436063D01*
X165510256Y-107322795D01*
X165321898Y-107244774D01*
X165121939Y-107205000D01*
X164918061Y-107205000D01*
X164718102Y-107244774D01*
X164529744Y-107322795D01*
X164360226Y-107436063D01*
X164216063Y-107580226D01*
X164102795Y-107749744D01*
X164024774Y-107938102D01*
X163985000Y-108138061D01*
X158048531Y-108138061D01*
X158055226Y-108121898D01*
X158095000Y-107921939D01*
X158095000Y-107718061D01*
X158055226Y-107518102D01*
X157977205Y-107329744D01*
X157863937Y-107160226D01*
X157719774Y-107016063D01*
X157550256Y-106902795D01*
X157361898Y-106824774D01*
X157161939Y-106785000D01*
X156958061Y-106785000D01*
X156758102Y-106824774D01*
X156569744Y-106902795D01*
X156400226Y-107016063D01*
X156256063Y-107160226D01*
X156142795Y-107329744D01*
X156064774Y-107518102D01*
X156025000Y-107718061D01*
X125660000Y-107718061D01*
X125660000Y-106717760D01*
X129165000Y-106717760D01*
X129165000Y-106882240D01*
X129197089Y-107043560D01*
X129260033Y-107195521D01*
X129351413Y-107332281D01*
X129467719Y-107448587D01*
X129604479Y-107539967D01*
X129756440Y-107602911D01*
X129917760Y-107635000D01*
X130082240Y-107635000D01*
X130243560Y-107602911D01*
X130395521Y-107539967D01*
X130500000Y-107470156D01*
X130604479Y-107539967D01*
X130756440Y-107602911D01*
X130917760Y-107635000D01*
X131082240Y-107635000D01*
X131243560Y-107602911D01*
X131395521Y-107539967D01*
X131532281Y-107448587D01*
X131648587Y-107332281D01*
X131739967Y-107195521D01*
X131802911Y-107043560D01*
X131835000Y-106882240D01*
X131835000Y-106717760D01*
X132165000Y-106717760D01*
X132165000Y-106882240D01*
X132197089Y-107043560D01*
X132260033Y-107195521D01*
X132351413Y-107332281D01*
X132467719Y-107448587D01*
X132604479Y-107539967D01*
X132756440Y-107602911D01*
X132917760Y-107635000D01*
X133082240Y-107635000D01*
X133243560Y-107602911D01*
X133395521Y-107539967D01*
X133500000Y-107470156D01*
X133604479Y-107539967D01*
X133756440Y-107602911D01*
X133917760Y-107635000D01*
X134082240Y-107635000D01*
X134243560Y-107602911D01*
X134395521Y-107539967D01*
X134500000Y-107470156D01*
X134604479Y-107539967D01*
X134756440Y-107602911D01*
X134917760Y-107635000D01*
X135082240Y-107635000D01*
X135243560Y-107602911D01*
X135395521Y-107539967D01*
X135500000Y-107470156D01*
X135604479Y-107539967D01*
X135756440Y-107602911D01*
X135917760Y-107635000D01*
X136082240Y-107635000D01*
X136243560Y-107602911D01*
X136395521Y-107539967D01*
X136500000Y-107470156D01*
X136604479Y-107539967D01*
X136756440Y-107602911D01*
X136917760Y-107635000D01*
X137082240Y-107635000D01*
X137243560Y-107602911D01*
X137395521Y-107539967D01*
X137532281Y-107448587D01*
X137648587Y-107332281D01*
X137739967Y-107195521D01*
X137785528Y-107085528D01*
X137895521Y-107039967D01*
X138032281Y-106948587D01*
X138148587Y-106832281D01*
X138190201Y-106770000D01*
X140911928Y-106770000D01*
X140915000Y-107334250D01*
X141073750Y-107493000D01*
X142273000Y-107493000D01*
X142273000Y-107473000D01*
X142527000Y-107473000D01*
X142527000Y-107493000D01*
X143726250Y-107493000D01*
X143885000Y-107334250D01*
X143888072Y-106770000D01*
X143875812Y-106645518D01*
X143839502Y-106525820D01*
X143780537Y-106415506D01*
X143701185Y-106318815D01*
X143604494Y-106239463D01*
X143494180Y-106180498D01*
X143421620Y-106158487D01*
X143553475Y-106026632D01*
X143715990Y-105783411D01*
X143827932Y-105513158D01*
X143885000Y-105226260D01*
X143885000Y-104933740D01*
X143827932Y-104646842D01*
X143715990Y-104376589D01*
X143678179Y-104320000D01*
X166779509Y-104320000D01*
X166801423Y-104542499D01*
X166866324Y-104756447D01*
X166971716Y-104953623D01*
X167113551Y-105126449D01*
X167286377Y-105268284D01*
X167483553Y-105373676D01*
X167697501Y-105438577D01*
X167864248Y-105455000D01*
X169075752Y-105455000D01*
X169242499Y-105438577D01*
X169456447Y-105373676D01*
X169653623Y-105268284D01*
X169826449Y-105126449D01*
X169968284Y-104953623D01*
X170073676Y-104756447D01*
X170138577Y-104542499D01*
X170160491Y-104320000D01*
X171209509Y-104320000D01*
X171231423Y-104542499D01*
X171296324Y-104756447D01*
X171401716Y-104953623D01*
X171543551Y-105126449D01*
X171716377Y-105268284D01*
X171913553Y-105373676D01*
X172127501Y-105438577D01*
X172294248Y-105455000D01*
X173005752Y-105455000D01*
X173172499Y-105438577D01*
X173386447Y-105373676D01*
X173583623Y-105268284D01*
X173756449Y-105126449D01*
X173898284Y-104953623D01*
X174003676Y-104756447D01*
X174068577Y-104542499D01*
X174090491Y-104320000D01*
X174068577Y-104097501D01*
X174003676Y-103883553D01*
X173898284Y-103686377D01*
X173756449Y-103513551D01*
X173583623Y-103371716D01*
X173386447Y-103266324D01*
X173172499Y-103201423D01*
X173005752Y-103185000D01*
X172294248Y-103185000D01*
X172127501Y-103201423D01*
X171913553Y-103266324D01*
X171716377Y-103371716D01*
X171543551Y-103513551D01*
X171401716Y-103686377D01*
X171296324Y-103883553D01*
X171231423Y-104097501D01*
X171209509Y-104320000D01*
X170160491Y-104320000D01*
X170138577Y-104097501D01*
X170073676Y-103883553D01*
X169968284Y-103686377D01*
X169826449Y-103513551D01*
X169769285Y-103466638D01*
X169850741Y-103344731D01*
X169923108Y-103170022D01*
X169960000Y-102984552D01*
X169960000Y-102795448D01*
X169923108Y-102609978D01*
X169850741Y-102435269D01*
X169745681Y-102278036D01*
X169611964Y-102144319D01*
X169454731Y-102039259D01*
X169280022Y-101966892D01*
X169094552Y-101930000D01*
X168905448Y-101930000D01*
X168719978Y-101966892D01*
X168545269Y-102039259D01*
X168388036Y-102144319D01*
X168254319Y-102278036D01*
X168149259Y-102435269D01*
X168076892Y-102609978D01*
X168040000Y-102795448D01*
X168040000Y-102984552D01*
X168076892Y-103170022D01*
X168083096Y-103185000D01*
X167864248Y-103185000D01*
X167697501Y-103201423D01*
X167483553Y-103266324D01*
X167286377Y-103371716D01*
X167113551Y-103513551D01*
X166971716Y-103686377D01*
X166866324Y-103883553D01*
X166801423Y-104097501D01*
X166779509Y-104320000D01*
X143678179Y-104320000D01*
X143553475Y-104133368D01*
X143346632Y-103926525D01*
X143172240Y-103810000D01*
X143346632Y-103693475D01*
X143553475Y-103486632D01*
X143715990Y-103243411D01*
X143827932Y-102973158D01*
X143885000Y-102686260D01*
X143885000Y-102393740D01*
X143827932Y-102106842D01*
X143715990Y-101836589D01*
X143553475Y-101593368D01*
X143346632Y-101386525D01*
X143172240Y-101270000D01*
X143266579Y-101206965D01*
X143292795Y-101270256D01*
X143406063Y-101439774D01*
X143550226Y-101583937D01*
X143719744Y-101697205D01*
X143908102Y-101775226D01*
X144108061Y-101815000D01*
X144311939Y-101815000D01*
X144511898Y-101775226D01*
X144700256Y-101697205D01*
X144869774Y-101583937D01*
X145013937Y-101439774D01*
X145041808Y-101398061D01*
X148335000Y-101398061D01*
X148335000Y-101601939D01*
X148374774Y-101801898D01*
X148452795Y-101990256D01*
X148566063Y-102159774D01*
X148710226Y-102303937D01*
X148879744Y-102417205D01*
X149068102Y-102495226D01*
X149268061Y-102535000D01*
X149471939Y-102535000D01*
X149671898Y-102495226D01*
X149860256Y-102417205D01*
X150029774Y-102303937D01*
X150173937Y-102159774D01*
X150287205Y-101990256D01*
X150365226Y-101801898D01*
X150405000Y-101601939D01*
X150405000Y-101398061D01*
X150365226Y-101198102D01*
X150287205Y-101009744D01*
X150173937Y-100840226D01*
X150029774Y-100696063D01*
X149860256Y-100582795D01*
X149671898Y-100504774D01*
X149471939Y-100465000D01*
X149268061Y-100465000D01*
X149068102Y-100504774D01*
X148879744Y-100582795D01*
X148710226Y-100696063D01*
X148566063Y-100840226D01*
X148452795Y-101009744D01*
X148374774Y-101198102D01*
X148335000Y-101398061D01*
X145041808Y-101398061D01*
X145127205Y-101270256D01*
X145205226Y-101081898D01*
X145245000Y-100881939D01*
X145245000Y-100678061D01*
X145205226Y-100478102D01*
X145127205Y-100289744D01*
X145013937Y-100120226D01*
X144869774Y-99976063D01*
X144700256Y-99862795D01*
X144511898Y-99784774D01*
X144311939Y-99745000D01*
X144108061Y-99745000D01*
X143908102Y-99784774D01*
X143874085Y-99798865D01*
X143834142Y-99598061D01*
X151965000Y-99598061D01*
X151965000Y-99801939D01*
X152004774Y-100001898D01*
X152082795Y-100190256D01*
X152196063Y-100359774D01*
X152340226Y-100503937D01*
X152509744Y-100617205D01*
X152698102Y-100695226D01*
X152898061Y-100735000D01*
X153101939Y-100735000D01*
X153301898Y-100695226D01*
X153490256Y-100617205D01*
X153500000Y-100610694D01*
X153509744Y-100617205D01*
X153698102Y-100695226D01*
X153898061Y-100735000D01*
X154101939Y-100735000D01*
X154301898Y-100695226D01*
X154490256Y-100617205D01*
X154659774Y-100503937D01*
X154803937Y-100359774D01*
X154917205Y-100190256D01*
X154995226Y-100001898D01*
X155035000Y-99801939D01*
X155035000Y-99598061D01*
X154995226Y-99398102D01*
X154988965Y-99382986D01*
X157245000Y-99382986D01*
X157245000Y-99577014D01*
X157282853Y-99767314D01*
X157357104Y-99946572D01*
X157464901Y-100107901D01*
X157602099Y-100245099D01*
X157763428Y-100352896D01*
X157942686Y-100427147D01*
X158132986Y-100465000D01*
X158327014Y-100465000D01*
X158517314Y-100427147D01*
X158696572Y-100352896D01*
X158857901Y-100245099D01*
X158995099Y-100107901D01*
X159102896Y-99946572D01*
X159177147Y-99767314D01*
X159215000Y-99577014D01*
X159215000Y-99572982D01*
X160385000Y-99572982D01*
X160385000Y-99767010D01*
X160422853Y-99957310D01*
X160497104Y-100136568D01*
X160604901Y-100297897D01*
X160742099Y-100435095D01*
X160903428Y-100542892D01*
X161082686Y-100617143D01*
X161272986Y-100654996D01*
X161467014Y-100654996D01*
X161657314Y-100617143D01*
X161836572Y-100542892D01*
X161997901Y-100435095D01*
X162135099Y-100297897D01*
X162242896Y-100136568D01*
X162317147Y-99957310D01*
X162355000Y-99767010D01*
X162355000Y-99572982D01*
X162317147Y-99382682D01*
X162242896Y-99203424D01*
X162135099Y-99042095D01*
X161997901Y-98904897D01*
X161836572Y-98797100D01*
X161657314Y-98722849D01*
X161467014Y-98684996D01*
X161272986Y-98684996D01*
X161082686Y-98722849D01*
X160903428Y-98797100D01*
X160742099Y-98904897D01*
X160604901Y-99042095D01*
X160497104Y-99203424D01*
X160422853Y-99382682D01*
X160385000Y-99572982D01*
X159215000Y-99572982D01*
X159215000Y-99382986D01*
X159177147Y-99192686D01*
X159102896Y-99013428D01*
X158995099Y-98852099D01*
X158857901Y-98714901D01*
X158696572Y-98607104D01*
X158517314Y-98532853D01*
X158327014Y-98495000D01*
X158132986Y-98495000D01*
X157942686Y-98532853D01*
X157763428Y-98607104D01*
X157602099Y-98714901D01*
X157464901Y-98852099D01*
X157357104Y-99013428D01*
X157282853Y-99192686D01*
X157245000Y-99382986D01*
X154988965Y-99382986D01*
X154917205Y-99209744D01*
X154803937Y-99040226D01*
X154659774Y-98896063D01*
X154490256Y-98782795D01*
X154301898Y-98704774D01*
X154101939Y-98665000D01*
X153898061Y-98665000D01*
X153698102Y-98704774D01*
X153509744Y-98782795D01*
X153500000Y-98789306D01*
X153490256Y-98782795D01*
X153301898Y-98704774D01*
X153101939Y-98665000D01*
X152898061Y-98665000D01*
X152698102Y-98704774D01*
X152509744Y-98782795D01*
X152340226Y-98896063D01*
X152196063Y-99040226D01*
X152082795Y-99209744D01*
X152004774Y-99398102D01*
X151965000Y-99598061D01*
X143834142Y-99598061D01*
X143827932Y-99566842D01*
X143715990Y-99296589D01*
X143553475Y-99053368D01*
X143346632Y-98846525D01*
X143172240Y-98730000D01*
X143346632Y-98613475D01*
X143553475Y-98406632D01*
X143715990Y-98163411D01*
X143827932Y-97893158D01*
X143885000Y-97606260D01*
X143885000Y-97398061D01*
X151965000Y-97398061D01*
X151965000Y-97601939D01*
X152004774Y-97801898D01*
X152082795Y-97990256D01*
X152196063Y-98159774D01*
X152340226Y-98303937D01*
X152509744Y-98417205D01*
X152698102Y-98495226D01*
X152898061Y-98535000D01*
X153101939Y-98535000D01*
X153301898Y-98495226D01*
X153490256Y-98417205D01*
X153500000Y-98410694D01*
X153509744Y-98417205D01*
X153698102Y-98495226D01*
X153898061Y-98535000D01*
X154101939Y-98535000D01*
X154301898Y-98495226D01*
X154490256Y-98417205D01*
X154659774Y-98303937D01*
X154803937Y-98159774D01*
X154917205Y-97990256D01*
X154995226Y-97801898D01*
X155035000Y-97601939D01*
X155035000Y-97398061D01*
X154995226Y-97198102D01*
X154917205Y-97009744D01*
X154803937Y-96840226D01*
X154756697Y-96792986D01*
X157245000Y-96792986D01*
X157245000Y-96987014D01*
X157282853Y-97177314D01*
X157357104Y-97356572D01*
X157464901Y-97517901D01*
X157602099Y-97655099D01*
X157763428Y-97762896D01*
X157942686Y-97837147D01*
X158132986Y-97875000D01*
X158327014Y-97875000D01*
X158517314Y-97837147D01*
X158696572Y-97762896D01*
X158857901Y-97655099D01*
X158995099Y-97517901D01*
X159102896Y-97356572D01*
X159177147Y-97177314D01*
X159215000Y-96987014D01*
X159215000Y-96792986D01*
X160385000Y-96792986D01*
X160385000Y-96987014D01*
X160422853Y-97177314D01*
X160497104Y-97356572D01*
X160604901Y-97517901D01*
X160742099Y-97655099D01*
X160903428Y-97762896D01*
X161082686Y-97837147D01*
X161272986Y-97875000D01*
X161467014Y-97875000D01*
X161657314Y-97837147D01*
X161836572Y-97762896D01*
X161997901Y-97655099D01*
X162135099Y-97517901D01*
X162242896Y-97356572D01*
X162317147Y-97177314D01*
X162355000Y-96987014D01*
X162355000Y-96792986D01*
X162317147Y-96602686D01*
X162242896Y-96423428D01*
X162135099Y-96262099D01*
X161997901Y-96124901D01*
X161836572Y-96017104D01*
X161657314Y-95942853D01*
X161467014Y-95905000D01*
X161272986Y-95905000D01*
X161082686Y-95942853D01*
X160903428Y-96017104D01*
X160742099Y-96124901D01*
X160604901Y-96262099D01*
X160497104Y-96423428D01*
X160422853Y-96602686D01*
X160385000Y-96792986D01*
X159215000Y-96792986D01*
X159177147Y-96602686D01*
X159102896Y-96423428D01*
X158995099Y-96262099D01*
X158857901Y-96124901D01*
X158696572Y-96017104D01*
X158517314Y-95942853D01*
X158327014Y-95905000D01*
X158132986Y-95905000D01*
X157942686Y-95942853D01*
X157763428Y-96017104D01*
X157602099Y-96124901D01*
X157464901Y-96262099D01*
X157357104Y-96423428D01*
X157282853Y-96602686D01*
X157245000Y-96792986D01*
X154756697Y-96792986D01*
X154659774Y-96696063D01*
X154490256Y-96582795D01*
X154301898Y-96504774D01*
X154101939Y-96465000D01*
X153898061Y-96465000D01*
X153698102Y-96504774D01*
X153509744Y-96582795D01*
X153500000Y-96589306D01*
X153490256Y-96582795D01*
X153301898Y-96504774D01*
X153101939Y-96465000D01*
X152898061Y-96465000D01*
X152698102Y-96504774D01*
X152509744Y-96582795D01*
X152340226Y-96696063D01*
X152196063Y-96840226D01*
X152082795Y-97009744D01*
X152004774Y-97198102D01*
X151965000Y-97398061D01*
X143885000Y-97398061D01*
X143885000Y-97313740D01*
X143827932Y-97026842D01*
X143715990Y-96756589D01*
X143553475Y-96513368D01*
X143346632Y-96306525D01*
X143172240Y-96190000D01*
X143346632Y-96073475D01*
X143553475Y-95866632D01*
X143715990Y-95623411D01*
X143827932Y-95353158D01*
X143885000Y-95066260D01*
X143885000Y-94773740D01*
X143827932Y-94486842D01*
X143715990Y-94216589D01*
X143553475Y-93973368D01*
X143508093Y-93927986D01*
X150755000Y-93927986D01*
X150755000Y-94122014D01*
X150792853Y-94312314D01*
X150867104Y-94491572D01*
X150974901Y-94652901D01*
X151112099Y-94790099D01*
X151273428Y-94897896D01*
X151452686Y-94972147D01*
X151642986Y-95010000D01*
X151837014Y-95010000D01*
X152027314Y-94972147D01*
X152206572Y-94897896D01*
X152367901Y-94790099D01*
X152505099Y-94652901D01*
X152612896Y-94491572D01*
X152687147Y-94312314D01*
X152725000Y-94122014D01*
X152725000Y-93927986D01*
X152687147Y-93737686D01*
X152612896Y-93558428D01*
X152505099Y-93397099D01*
X152367901Y-93259901D01*
X152206572Y-93152104D01*
X152027314Y-93077853D01*
X151837014Y-93040000D01*
X151642986Y-93040000D01*
X151452686Y-93077853D01*
X151273428Y-93152104D01*
X151112099Y-93259901D01*
X150974901Y-93397099D01*
X150867104Y-93558428D01*
X150792853Y-93737686D01*
X150755000Y-93927986D01*
X143508093Y-93927986D01*
X143346632Y-93766525D01*
X143172240Y-93650000D01*
X143346632Y-93533475D01*
X143553475Y-93326632D01*
X143715990Y-93083411D01*
X143827932Y-92813158D01*
X143885000Y-92526260D01*
X143885000Y-92233740D01*
X143828175Y-91948061D01*
X151785000Y-91948061D01*
X151785000Y-92151939D01*
X151824774Y-92351898D01*
X151902795Y-92540256D01*
X152016063Y-92709774D01*
X152160226Y-92853937D01*
X152329744Y-92967205D01*
X152518102Y-93045226D01*
X152718061Y-93085000D01*
X152921939Y-93085000D01*
X153121898Y-93045226D01*
X153310256Y-92967205D01*
X153479774Y-92853937D01*
X153623937Y-92709774D01*
X153737205Y-92540256D01*
X153815226Y-92351898D01*
X153855000Y-92151939D01*
X153855000Y-91948061D01*
X153815226Y-91748102D01*
X153737205Y-91559744D01*
X153623937Y-91390226D01*
X153479774Y-91246063D01*
X153310256Y-91132795D01*
X153121898Y-91054774D01*
X152921939Y-91015000D01*
X152718061Y-91015000D01*
X152518102Y-91054774D01*
X152329744Y-91132795D01*
X152160226Y-91246063D01*
X152016063Y-91390226D01*
X151902795Y-91559744D01*
X151824774Y-91748102D01*
X151785000Y-91948061D01*
X143828175Y-91948061D01*
X143827932Y-91946842D01*
X143715990Y-91676589D01*
X143553475Y-91433368D01*
X143346632Y-91226525D01*
X143103411Y-91064010D01*
X142833158Y-90952068D01*
X142546260Y-90895000D01*
X142253740Y-90895000D01*
X141966842Y-90952068D01*
X141696589Y-91064010D01*
X141453368Y-91226525D01*
X141246525Y-91433368D01*
X141084010Y-91676589D01*
X140972068Y-91946842D01*
X140915000Y-92233740D01*
X140915000Y-92526260D01*
X140972068Y-92813158D01*
X141084010Y-93083411D01*
X141246525Y-93326632D01*
X141453368Y-93533475D01*
X141627760Y-93650000D01*
X141453368Y-93766525D01*
X141246525Y-93973368D01*
X141084010Y-94216589D01*
X140972068Y-94486842D01*
X140915000Y-94773740D01*
X140915000Y-95066260D01*
X140972068Y-95353158D01*
X141084010Y-95623411D01*
X141246525Y-95866632D01*
X141453368Y-96073475D01*
X141627760Y-96190000D01*
X141453368Y-96306525D01*
X141246525Y-96513368D01*
X141084010Y-96756589D01*
X140972068Y-97026842D01*
X140915000Y-97313740D01*
X140915000Y-97606260D01*
X140972068Y-97893158D01*
X141084010Y-98163411D01*
X141246525Y-98406632D01*
X141453368Y-98613475D01*
X141627760Y-98730000D01*
X141453368Y-98846525D01*
X141246525Y-99053368D01*
X141084010Y-99296589D01*
X140972068Y-99566842D01*
X140915000Y-99853740D01*
X140915000Y-100146260D01*
X140972068Y-100433158D01*
X141084010Y-100703411D01*
X141246525Y-100946632D01*
X141453368Y-101153475D01*
X141627760Y-101270000D01*
X141453368Y-101386525D01*
X141246525Y-101593368D01*
X141084010Y-101836589D01*
X140972068Y-102106842D01*
X140915000Y-102393740D01*
X140915000Y-102686260D01*
X140972068Y-102973158D01*
X141084010Y-103243411D01*
X141246525Y-103486632D01*
X141453368Y-103693475D01*
X141627760Y-103810000D01*
X141453368Y-103926525D01*
X141246525Y-104133368D01*
X141084010Y-104376589D01*
X140972068Y-104646842D01*
X140915000Y-104933740D01*
X140915000Y-105226260D01*
X140972068Y-105513158D01*
X141084010Y-105783411D01*
X141246525Y-106026632D01*
X141378380Y-106158487D01*
X141305820Y-106180498D01*
X141195506Y-106239463D01*
X141098815Y-106318815D01*
X141019463Y-106415506D01*
X140960498Y-106525820D01*
X140924188Y-106645518D01*
X140911928Y-106770000D01*
X138190201Y-106770000D01*
X138239967Y-106695521D01*
X138302911Y-106543560D01*
X138335000Y-106382240D01*
X138335000Y-106217760D01*
X138302911Y-106056440D01*
X138239967Y-105904479D01*
X138148587Y-105767719D01*
X138032281Y-105651413D01*
X137895521Y-105560033D01*
X137743560Y-105497089D01*
X137582240Y-105465000D01*
X137417760Y-105465000D01*
X137256440Y-105497089D01*
X137104479Y-105560033D01*
X136967719Y-105651413D01*
X136851413Y-105767719D01*
X136760033Y-105904479D01*
X136714472Y-106014472D01*
X136604479Y-106060033D01*
X136500000Y-106129844D01*
X136395521Y-106060033D01*
X136285528Y-106014472D01*
X136239967Y-105904479D01*
X136148587Y-105767719D01*
X136032281Y-105651413D01*
X135895521Y-105560033D01*
X135743560Y-105497089D01*
X135582240Y-105465000D01*
X135417760Y-105465000D01*
X135256440Y-105497089D01*
X135104479Y-105560033D01*
X135000000Y-105629844D01*
X134895521Y-105560033D01*
X134743560Y-105497089D01*
X134582240Y-105465000D01*
X134417760Y-105465000D01*
X134256440Y-105497089D01*
X134104479Y-105560033D01*
X133967719Y-105651413D01*
X133851413Y-105767719D01*
X133760033Y-105904479D01*
X133714472Y-106014472D01*
X133604479Y-106060033D01*
X133500000Y-106129844D01*
X133395521Y-106060033D01*
X133243560Y-105997089D01*
X133082240Y-105965000D01*
X132917760Y-105965000D01*
X132756440Y-105997089D01*
X132604479Y-106060033D01*
X132467719Y-106151413D01*
X132351413Y-106267719D01*
X132260033Y-106404479D01*
X132197089Y-106556440D01*
X132165000Y-106717760D01*
X131835000Y-106717760D01*
X131802911Y-106556440D01*
X131739967Y-106404479D01*
X131648587Y-106267719D01*
X131532281Y-106151413D01*
X131395521Y-106060033D01*
X131243560Y-105997089D01*
X131082240Y-105965000D01*
X130917760Y-105965000D01*
X130756440Y-105997089D01*
X130604479Y-106060033D01*
X130500000Y-106129844D01*
X130395521Y-106060033D01*
X130243560Y-105997089D01*
X130082240Y-105965000D01*
X129917760Y-105965000D01*
X129756440Y-105997089D01*
X129604479Y-106060033D01*
X129467719Y-106151413D01*
X129351413Y-106267719D01*
X129260033Y-106404479D01*
X129197089Y-106556440D01*
X129165000Y-106717760D01*
X125660000Y-106717760D01*
X125660000Y-93617760D01*
X127665000Y-93617760D01*
X127665000Y-93782240D01*
X127697089Y-93943560D01*
X127760033Y-94095521D01*
X127851413Y-94232281D01*
X127967719Y-94348587D01*
X128104479Y-94439967D01*
X128256440Y-94502911D01*
X128417760Y-94535000D01*
X128582240Y-94535000D01*
X128743560Y-94502911D01*
X128895521Y-94439967D01*
X129000000Y-94370156D01*
X129104479Y-94439967D01*
X129256440Y-94502911D01*
X129417760Y-94535000D01*
X129582240Y-94535000D01*
X129743560Y-94502911D01*
X129895521Y-94439967D01*
X130032281Y-94348587D01*
X130148587Y-94232281D01*
X130239967Y-94095521D01*
X130302911Y-93943560D01*
X130335000Y-93782240D01*
X130335000Y-93617760D01*
X130302911Y-93456440D01*
X130239967Y-93304479D01*
X130182024Y-93217760D01*
X130665000Y-93217760D01*
X130665000Y-93382240D01*
X130697089Y-93543560D01*
X130760033Y-93695521D01*
X130851413Y-93832281D01*
X130967719Y-93948587D01*
X131104479Y-94039967D01*
X131256440Y-94102911D01*
X131417760Y-94135000D01*
X131582240Y-94135000D01*
X131743560Y-94102911D01*
X131895521Y-94039967D01*
X132000000Y-93970156D01*
X132104479Y-94039967D01*
X132256440Y-94102911D01*
X132417760Y-94135000D01*
X132582240Y-94135000D01*
X132743560Y-94102911D01*
X132895521Y-94039967D01*
X133032281Y-93948587D01*
X133148587Y-93832281D01*
X133239967Y-93695521D01*
X133302911Y-93543560D01*
X133335000Y-93382240D01*
X133335000Y-93217760D01*
X133315109Y-93117760D01*
X133665000Y-93117760D01*
X133665000Y-93282240D01*
X133697089Y-93443560D01*
X133760033Y-93595521D01*
X133851413Y-93732281D01*
X133967719Y-93848587D01*
X134104479Y-93939967D01*
X134214472Y-93985528D01*
X134260033Y-94095521D01*
X134351413Y-94232281D01*
X134467719Y-94348587D01*
X134604479Y-94439967D01*
X134756440Y-94502911D01*
X134917760Y-94535000D01*
X135082240Y-94535000D01*
X135243560Y-94502911D01*
X135395521Y-94439967D01*
X135500000Y-94370156D01*
X135604479Y-94439967D01*
X135756440Y-94502911D01*
X135917760Y-94535000D01*
X136082240Y-94535000D01*
X136243560Y-94502911D01*
X136395521Y-94439967D01*
X136500000Y-94370156D01*
X136604479Y-94439967D01*
X136756440Y-94502911D01*
X136917760Y-94535000D01*
X137082240Y-94535000D01*
X137243560Y-94502911D01*
X137395521Y-94439967D01*
X137532281Y-94348587D01*
X137648587Y-94232281D01*
X137739967Y-94095521D01*
X137785528Y-93985528D01*
X137895521Y-93939967D01*
X138032281Y-93848587D01*
X138148587Y-93732281D01*
X138239967Y-93595521D01*
X138302911Y-93443560D01*
X138335000Y-93282240D01*
X138335000Y-93117760D01*
X138302911Y-92956440D01*
X138239967Y-92804479D01*
X138148587Y-92667719D01*
X138032281Y-92551413D01*
X137895521Y-92460033D01*
X137743560Y-92397089D01*
X137582240Y-92365000D01*
X137417760Y-92365000D01*
X137256440Y-92397089D01*
X137104479Y-92460033D01*
X136967719Y-92551413D01*
X136851413Y-92667719D01*
X136760033Y-92804479D01*
X136714472Y-92914472D01*
X136604479Y-92960033D01*
X136500000Y-93029844D01*
X136395521Y-92960033D01*
X136285528Y-92914472D01*
X136239967Y-92804479D01*
X136148587Y-92667719D01*
X136032281Y-92551413D01*
X135895521Y-92460033D01*
X135743560Y-92397089D01*
X135582240Y-92365000D01*
X135417760Y-92365000D01*
X135256440Y-92397089D01*
X135104479Y-92460033D01*
X135000000Y-92529844D01*
X134895521Y-92460033D01*
X134743560Y-92397089D01*
X134582240Y-92365000D01*
X134417760Y-92365000D01*
X134256440Y-92397089D01*
X134104479Y-92460033D01*
X133967719Y-92551413D01*
X133851413Y-92667719D01*
X133760033Y-92804479D01*
X133697089Y-92956440D01*
X133665000Y-93117760D01*
X133315109Y-93117760D01*
X133302911Y-93056440D01*
X133239967Y-92904479D01*
X133148587Y-92767719D01*
X133032281Y-92651413D01*
X132895521Y-92560033D01*
X132743560Y-92497089D01*
X132582240Y-92465000D01*
X132417760Y-92465000D01*
X132256440Y-92497089D01*
X132104479Y-92560033D01*
X132000000Y-92629844D01*
X131895521Y-92560033D01*
X131743560Y-92497089D01*
X131582240Y-92465000D01*
X131417760Y-92465000D01*
X131256440Y-92497089D01*
X131104479Y-92560033D01*
X130967719Y-92651413D01*
X130851413Y-92767719D01*
X130760033Y-92904479D01*
X130697089Y-93056440D01*
X130665000Y-93217760D01*
X130182024Y-93217760D01*
X130148587Y-93167719D01*
X130032281Y-93051413D01*
X129895521Y-92960033D01*
X129743560Y-92897089D01*
X129582240Y-92865000D01*
X129417760Y-92865000D01*
X129256440Y-92897089D01*
X129104479Y-92960033D01*
X129000000Y-93029844D01*
X128895521Y-92960033D01*
X128743560Y-92897089D01*
X128582240Y-92865000D01*
X128417760Y-92865000D01*
X128256440Y-92897089D01*
X128104479Y-92960033D01*
X127967719Y-93051413D01*
X127851413Y-93167719D01*
X127760033Y-93304479D01*
X127697089Y-93456440D01*
X127665000Y-93617760D01*
X125660000Y-93617760D01*
X125660000Y-90660000D01*
X158539893Y-90660000D01*
X158346525Y-90853368D01*
%TA.AperFunction,Conductor*%
D21*
G36*
X158346525Y-90853368D02*
G01*
X158184010Y-91096589D01*
X158072068Y-91366842D01*
X158015000Y-91653740D01*
X158015000Y-91946260D01*
X158072068Y-92233158D01*
X158184010Y-92503411D01*
X158346525Y-92746632D01*
X158553368Y-92953475D01*
X158796589Y-93115990D01*
X159066842Y-93227932D01*
X159353740Y-93285000D01*
X159646260Y-93285000D01*
X159933158Y-93227932D01*
X160203411Y-93115990D01*
X160446632Y-92953475D01*
X160653475Y-92746632D01*
X160770000Y-92572240D01*
X160886525Y-92746632D01*
X161093368Y-92953475D01*
X161336589Y-93115990D01*
X161606842Y-93227932D01*
X161893740Y-93285000D01*
X162186260Y-93285000D01*
X162473158Y-93227932D01*
X162743411Y-93115990D01*
X162986632Y-92953475D01*
X163193475Y-92746632D01*
X163315195Y-92564466D01*
X163384822Y-92681355D01*
X163579731Y-92897588D01*
X163813080Y-93071641D01*
X164075901Y-93196825D01*
X164223110Y-93241476D01*
X164453000Y-93120155D01*
X164453000Y-91927000D01*
X164433000Y-91927000D01*
X164433000Y-91673000D01*
X164453000Y-91673000D01*
X164453000Y-91653000D01*
X164707000Y-91653000D01*
X164707000Y-91673000D01*
X164727000Y-91673000D01*
X164727000Y-91927000D01*
X164707000Y-91927000D01*
X164707000Y-93120155D01*
X164936890Y-93241476D01*
X165084099Y-93196825D01*
X165346920Y-93071641D01*
X165580269Y-92897588D01*
X165775178Y-92681355D01*
X165844805Y-92564466D01*
X165966525Y-92746632D01*
X166173368Y-92953475D01*
X166416589Y-93115990D01*
X166686842Y-93227932D01*
X166973740Y-93285000D01*
X167266260Y-93285000D01*
X167553158Y-93227932D01*
X167823411Y-93115990D01*
X168066632Y-92953475D01*
X168273475Y-92746632D01*
X168390000Y-92572240D01*
X168506525Y-92746632D01*
X168565675Y-92805782D01*
X168379744Y-92882797D01*
X168210226Y-92996065D01*
X168066063Y-93140228D01*
X167952795Y-93309746D01*
X167874774Y-93498104D01*
X167835000Y-93698063D01*
X167835000Y-93901941D01*
X167874774Y-94101900D01*
X167952795Y-94290258D01*
X168066063Y-94459776D01*
X168151287Y-94545000D01*
X167864248Y-94545000D01*
X167697501Y-94561423D01*
X167483553Y-94626324D01*
X167286377Y-94731716D01*
X167113551Y-94873551D01*
X166971716Y-95046377D01*
X166866324Y-95243553D01*
X166801423Y-95457501D01*
X166779509Y-95680000D01*
X166801423Y-95902499D01*
X166866324Y-96116447D01*
X166971716Y-96313623D01*
X167113551Y-96486449D01*
X167286377Y-96628284D01*
X167483553Y-96733676D01*
X167697501Y-96798577D01*
X167864248Y-96815000D01*
X168083096Y-96815000D01*
X168076892Y-96829978D01*
X168040000Y-97015448D01*
X168040000Y-97204552D01*
X168076892Y-97390022D01*
X168149259Y-97564731D01*
X168254319Y-97721964D01*
X168388036Y-97855681D01*
X168545269Y-97960741D01*
X168719978Y-98033108D01*
X168905448Y-98070000D01*
X169094552Y-98070000D01*
X169280022Y-98033108D01*
X169454731Y-97960741D01*
X169611964Y-97855681D01*
X169745681Y-97721964D01*
X169850741Y-97564731D01*
X169923108Y-97390022D01*
X169960000Y-97204552D01*
X169960000Y-97015448D01*
X169923108Y-96829978D01*
X169850741Y-96655269D01*
X169769285Y-96533362D01*
X169826449Y-96486449D01*
X169968284Y-96313623D01*
X170073676Y-96116447D01*
X170138577Y-95902499D01*
X170160491Y-95680000D01*
X171209509Y-95680000D01*
X171231423Y-95902499D01*
X171296324Y-96116447D01*
X171401716Y-96313623D01*
X171543551Y-96486449D01*
X171716377Y-96628284D01*
X171913553Y-96733676D01*
X172127501Y-96798577D01*
X172294248Y-96815000D01*
X173005752Y-96815000D01*
X173172499Y-96798577D01*
X173386447Y-96733676D01*
X173583623Y-96628284D01*
X173756449Y-96486449D01*
X173898284Y-96313623D01*
X174003676Y-96116447D01*
X174068577Y-95902499D01*
X174090491Y-95680000D01*
X174068577Y-95457501D01*
X174003676Y-95243553D01*
X173898284Y-95046377D01*
X173756449Y-94873551D01*
X173583623Y-94731716D01*
X173386447Y-94626324D01*
X173172499Y-94561423D01*
X173005752Y-94545000D01*
X172294248Y-94545000D01*
X172127501Y-94561423D01*
X171913553Y-94626324D01*
X171716377Y-94731716D01*
X171543551Y-94873551D01*
X171401716Y-95046377D01*
X171296324Y-95243553D01*
X171231423Y-95457501D01*
X171209509Y-95680000D01*
X170160491Y-95680000D01*
X170138577Y-95457501D01*
X170073676Y-95243553D01*
X169968284Y-95046377D01*
X169826449Y-94873551D01*
X169653623Y-94731716D01*
X169478573Y-94638150D01*
X169529774Y-94603939D01*
X169673937Y-94459776D01*
X169787205Y-94290258D01*
X169865226Y-94101900D01*
X169905000Y-93901941D01*
X169905000Y-93698063D01*
X169865226Y-93498104D01*
X169787205Y-93309746D01*
X169770670Y-93285000D01*
X169806260Y-93285000D01*
X170093158Y-93227932D01*
X170363411Y-93115990D01*
X170606632Y-92953475D01*
X170738487Y-92821620D01*
X170760498Y-92894180D01*
X170819463Y-93004494D01*
X170898815Y-93101185D01*
X170995506Y-93180537D01*
X171105820Y-93239502D01*
X171225518Y-93275812D01*
X171350000Y-93288072D01*
X171914250Y-93285000D01*
X172073000Y-93126250D01*
X172073000Y-91927000D01*
X172327000Y-91927000D01*
X172327000Y-93126250D01*
X172485750Y-93285000D01*
X173050000Y-93288072D01*
X173174482Y-93275812D01*
X173294180Y-93239502D01*
X173404494Y-93180537D01*
X173501185Y-93101185D01*
X173580537Y-93004494D01*
X173639502Y-92894180D01*
X173675812Y-92774482D01*
X173688072Y-92650000D01*
X173685000Y-92085750D01*
X173526250Y-91927000D01*
X172327000Y-91927000D01*
X172073000Y-91927000D01*
X172053000Y-91927000D01*
X172053000Y-91673000D01*
X172073000Y-91673000D01*
X172073000Y-91653000D01*
X172327000Y-91653000D01*
X172327000Y-91673000D01*
X173526250Y-91673000D01*
X173685000Y-91514250D01*
X173687205Y-91109294D01*
X173794299Y-91196637D01*
X174022806Y-91472856D01*
X174193310Y-91788197D01*
X174299319Y-92130656D01*
X174340000Y-92517712D01*
X174340001Y-107467711D01*
X174301853Y-107856776D01*
X174198238Y-108199964D01*
X174029939Y-108516489D01*
X173803365Y-108794296D01*
X173527146Y-109022805D01*
X173211803Y-109193310D01*
X172869344Y-109299319D01*
X172482288Y-109340000D01*
X125660000Y-109340000D01*
X125660000Y-108470000D01*
X140911928Y-108470000D01*
X140924188Y-108594482D01*
X140960498Y-108714180D01*
X141019463Y-108824494D01*
X141098815Y-108921185D01*
X141195506Y-109000537D01*
X141305820Y-109059502D01*
X141425518Y-109095812D01*
X141550000Y-109108072D01*
X142114250Y-109105000D01*
X142273000Y-108946250D01*
X142273000Y-107747000D01*
X142527000Y-107747000D01*
X142527000Y-108946250D01*
X142685750Y-109105000D01*
X143250000Y-109108072D01*
X143374482Y-109095812D01*
X143494180Y-109059502D01*
X143604494Y-109000537D01*
X143701185Y-108921185D01*
X143780537Y-108824494D01*
X143839502Y-108714180D01*
X143875812Y-108594482D01*
X143888072Y-108470000D01*
X143885000Y-107905750D01*
X143726250Y-107747000D01*
X142527000Y-107747000D01*
X142273000Y-107747000D01*
X141073750Y-107747000D01*
X140915000Y-107905750D01*
X140911928Y-108470000D01*
X125660000Y-108470000D01*
X125660000Y-107718061D01*
X156025000Y-107718061D01*
X156025000Y-107921939D01*
X156064774Y-108121898D01*
X156142795Y-108310256D01*
X156256063Y-108479774D01*
X156400226Y-108623937D01*
X156569744Y-108737205D01*
X156758102Y-108815226D01*
X156958061Y-108855000D01*
X157161939Y-108855000D01*
X157361898Y-108815226D01*
X157550256Y-108737205D01*
X157719774Y-108623937D01*
X157863937Y-108479774D01*
X157977205Y-108310256D01*
X158048531Y-108138061D01*
X163985000Y-108138061D01*
X163985000Y-108341939D01*
X164024774Y-108541898D01*
X164102795Y-108730256D01*
X164216063Y-108899774D01*
X164360226Y-109043937D01*
X164529744Y-109157205D01*
X164718102Y-109235226D01*
X164918061Y-109275000D01*
X165121939Y-109275000D01*
X165321898Y-109235226D01*
X165510256Y-109157205D01*
X165679774Y-109043937D01*
X165823937Y-108899774D01*
X165937205Y-108730256D01*
X166015226Y-108541898D01*
X166055000Y-108341939D01*
X166055000Y-108148061D01*
X168075000Y-108148061D01*
X168075000Y-108351939D01*
X168114774Y-108551898D01*
X168192795Y-108740256D01*
X168306063Y-108909774D01*
X168450226Y-109053937D01*
X168619744Y-109167205D01*
X168808102Y-109245226D01*
X169008061Y-109285000D01*
X169211939Y-109285000D01*
X169411898Y-109245226D01*
X169600256Y-109167205D01*
X169769774Y-109053937D01*
X169913937Y-108909774D01*
X170027205Y-108740256D01*
X170105226Y-108551898D01*
X170145000Y-108351939D01*
X170145000Y-108148061D01*
X170105226Y-107948102D01*
X170027205Y-107759744D01*
X169913937Y-107590226D01*
X169769774Y-107446063D01*
X169600256Y-107332795D01*
X169411898Y-107254774D01*
X169211939Y-107215000D01*
X169008061Y-107215000D01*
X168808102Y-107254774D01*
X168619744Y-107332795D01*
X168450226Y-107446063D01*
X168306063Y-107590226D01*
X168192795Y-107759744D01*
X168114774Y-107948102D01*
X168075000Y-108148061D01*
X166055000Y-108148061D01*
X166055000Y-108138061D01*
X166015226Y-107938102D01*
X165937205Y-107749744D01*
X165823937Y-107580226D01*
X165679774Y-107436063D01*
X165510256Y-107322795D01*
X165321898Y-107244774D01*
X165121939Y-107205000D01*
X164918061Y-107205000D01*
X164718102Y-107244774D01*
X164529744Y-107322795D01*
X164360226Y-107436063D01*
X164216063Y-107580226D01*
X164102795Y-107749744D01*
X164024774Y-107938102D01*
X163985000Y-108138061D01*
X158048531Y-108138061D01*
X158055226Y-108121898D01*
X158095000Y-107921939D01*
X158095000Y-107718061D01*
X158055226Y-107518102D01*
X157977205Y-107329744D01*
X157863937Y-107160226D01*
X157719774Y-107016063D01*
X157550256Y-106902795D01*
X157361898Y-106824774D01*
X157161939Y-106785000D01*
X156958061Y-106785000D01*
X156758102Y-106824774D01*
X156569744Y-106902795D01*
X156400226Y-107016063D01*
X156256063Y-107160226D01*
X156142795Y-107329744D01*
X156064774Y-107518102D01*
X156025000Y-107718061D01*
X125660000Y-107718061D01*
X125660000Y-106717760D01*
X129165000Y-106717760D01*
X129165000Y-106882240D01*
X129197089Y-107043560D01*
X129260033Y-107195521D01*
X129351413Y-107332281D01*
X129467719Y-107448587D01*
X129604479Y-107539967D01*
X129756440Y-107602911D01*
X129917760Y-107635000D01*
X130082240Y-107635000D01*
X130243560Y-107602911D01*
X130395521Y-107539967D01*
X130500000Y-107470156D01*
X130604479Y-107539967D01*
X130756440Y-107602911D01*
X130917760Y-107635000D01*
X131082240Y-107635000D01*
X131243560Y-107602911D01*
X131395521Y-107539967D01*
X131532281Y-107448587D01*
X131648587Y-107332281D01*
X131739967Y-107195521D01*
X131802911Y-107043560D01*
X131835000Y-106882240D01*
X131835000Y-106717760D01*
X132165000Y-106717760D01*
X132165000Y-106882240D01*
X132197089Y-107043560D01*
X132260033Y-107195521D01*
X132351413Y-107332281D01*
X132467719Y-107448587D01*
X132604479Y-107539967D01*
X132756440Y-107602911D01*
X132917760Y-107635000D01*
X133082240Y-107635000D01*
X133243560Y-107602911D01*
X133395521Y-107539967D01*
X133500000Y-107470156D01*
X133604479Y-107539967D01*
X133756440Y-107602911D01*
X133917760Y-107635000D01*
X134082240Y-107635000D01*
X134243560Y-107602911D01*
X134395521Y-107539967D01*
X134500000Y-107470156D01*
X134604479Y-107539967D01*
X134756440Y-107602911D01*
X134917760Y-107635000D01*
X135082240Y-107635000D01*
X135243560Y-107602911D01*
X135395521Y-107539967D01*
X135500000Y-107470156D01*
X135604479Y-107539967D01*
X135756440Y-107602911D01*
X135917760Y-107635000D01*
X136082240Y-107635000D01*
X136243560Y-107602911D01*
X136395521Y-107539967D01*
X136500000Y-107470156D01*
X136604479Y-107539967D01*
X136756440Y-107602911D01*
X136917760Y-107635000D01*
X137082240Y-107635000D01*
X137243560Y-107602911D01*
X137395521Y-107539967D01*
X137532281Y-107448587D01*
X137648587Y-107332281D01*
X137739967Y-107195521D01*
X137785528Y-107085528D01*
X137895521Y-107039967D01*
X138032281Y-106948587D01*
X138148587Y-106832281D01*
X138190201Y-106770000D01*
X140911928Y-106770000D01*
X140915000Y-107334250D01*
X141073750Y-107493000D01*
X142273000Y-107493000D01*
X142273000Y-107473000D01*
X142527000Y-107473000D01*
X142527000Y-107493000D01*
X143726250Y-107493000D01*
X143885000Y-107334250D01*
X143888072Y-106770000D01*
X143875812Y-106645518D01*
X143839502Y-106525820D01*
X143780537Y-106415506D01*
X143701185Y-106318815D01*
X143604494Y-106239463D01*
X143494180Y-106180498D01*
X143421620Y-106158487D01*
X143553475Y-106026632D01*
X143715990Y-105783411D01*
X143827932Y-105513158D01*
X143885000Y-105226260D01*
X143885000Y-104933740D01*
X143827932Y-104646842D01*
X143715990Y-104376589D01*
X143678179Y-104320000D01*
X166779509Y-104320000D01*
X166801423Y-104542499D01*
X166866324Y-104756447D01*
X166971716Y-104953623D01*
X167113551Y-105126449D01*
X167286377Y-105268284D01*
X167483553Y-105373676D01*
X167697501Y-105438577D01*
X167864248Y-105455000D01*
X169075752Y-105455000D01*
X169242499Y-105438577D01*
X169456447Y-105373676D01*
X169653623Y-105268284D01*
X169826449Y-105126449D01*
X169968284Y-104953623D01*
X170073676Y-104756447D01*
X170138577Y-104542499D01*
X170160491Y-104320000D01*
X171209509Y-104320000D01*
X171231423Y-104542499D01*
X171296324Y-104756447D01*
X171401716Y-104953623D01*
X171543551Y-105126449D01*
X171716377Y-105268284D01*
X171913553Y-105373676D01*
X172127501Y-105438577D01*
X172294248Y-105455000D01*
X173005752Y-105455000D01*
X173172499Y-105438577D01*
X173386447Y-105373676D01*
X173583623Y-105268284D01*
X173756449Y-105126449D01*
X173898284Y-104953623D01*
X174003676Y-104756447D01*
X174068577Y-104542499D01*
X174090491Y-104320000D01*
X174068577Y-104097501D01*
X174003676Y-103883553D01*
X173898284Y-103686377D01*
X173756449Y-103513551D01*
X173583623Y-103371716D01*
X173386447Y-103266324D01*
X173172499Y-103201423D01*
X173005752Y-103185000D01*
X172294248Y-103185000D01*
X172127501Y-103201423D01*
X171913553Y-103266324D01*
X171716377Y-103371716D01*
X171543551Y-103513551D01*
X171401716Y-103686377D01*
X171296324Y-103883553D01*
X171231423Y-104097501D01*
X171209509Y-104320000D01*
X170160491Y-104320000D01*
X170138577Y-104097501D01*
X170073676Y-103883553D01*
X169968284Y-103686377D01*
X169826449Y-103513551D01*
X169769285Y-103466638D01*
X169850741Y-103344731D01*
X169923108Y-103170022D01*
X169960000Y-102984552D01*
X169960000Y-102795448D01*
X169923108Y-102609978D01*
X169850741Y-102435269D01*
X169745681Y-102278036D01*
X169611964Y-102144319D01*
X169454731Y-102039259D01*
X169280022Y-101966892D01*
X169094552Y-101930000D01*
X168905448Y-101930000D01*
X168719978Y-101966892D01*
X168545269Y-102039259D01*
X168388036Y-102144319D01*
X168254319Y-102278036D01*
X168149259Y-102435269D01*
X168076892Y-102609978D01*
X168040000Y-102795448D01*
X168040000Y-102984552D01*
X168076892Y-103170022D01*
X168083096Y-103185000D01*
X167864248Y-103185000D01*
X167697501Y-103201423D01*
X167483553Y-103266324D01*
X167286377Y-103371716D01*
X167113551Y-103513551D01*
X166971716Y-103686377D01*
X166866324Y-103883553D01*
X166801423Y-104097501D01*
X166779509Y-104320000D01*
X143678179Y-104320000D01*
X143553475Y-104133368D01*
X143346632Y-103926525D01*
X143172240Y-103810000D01*
X143346632Y-103693475D01*
X143553475Y-103486632D01*
X143715990Y-103243411D01*
X143827932Y-102973158D01*
X143885000Y-102686260D01*
X143885000Y-102393740D01*
X143827932Y-102106842D01*
X143715990Y-101836589D01*
X143553475Y-101593368D01*
X143346632Y-101386525D01*
X143172240Y-101270000D01*
X143266579Y-101206965D01*
X143292795Y-101270256D01*
X143406063Y-101439774D01*
X143550226Y-101583937D01*
X143719744Y-101697205D01*
X143908102Y-101775226D01*
X144108061Y-101815000D01*
X144311939Y-101815000D01*
X144511898Y-101775226D01*
X144700256Y-101697205D01*
X144869774Y-101583937D01*
X145013937Y-101439774D01*
X145041808Y-101398061D01*
X148335000Y-101398061D01*
X148335000Y-101601939D01*
X148374774Y-101801898D01*
X148452795Y-101990256D01*
X148566063Y-102159774D01*
X148710226Y-102303937D01*
X148879744Y-102417205D01*
X149068102Y-102495226D01*
X149268061Y-102535000D01*
X149471939Y-102535000D01*
X149671898Y-102495226D01*
X149860256Y-102417205D01*
X150029774Y-102303937D01*
X150173937Y-102159774D01*
X150287205Y-101990256D01*
X150365226Y-101801898D01*
X150405000Y-101601939D01*
X150405000Y-101398061D01*
X150365226Y-101198102D01*
X150287205Y-101009744D01*
X150173937Y-100840226D01*
X150029774Y-100696063D01*
X149860256Y-100582795D01*
X149671898Y-100504774D01*
X149471939Y-100465000D01*
X149268061Y-100465000D01*
X149068102Y-100504774D01*
X148879744Y-100582795D01*
X148710226Y-100696063D01*
X148566063Y-100840226D01*
X148452795Y-101009744D01*
X148374774Y-101198102D01*
X148335000Y-101398061D01*
X145041808Y-101398061D01*
X145127205Y-101270256D01*
X145205226Y-101081898D01*
X145245000Y-100881939D01*
X145245000Y-100678061D01*
X145205226Y-100478102D01*
X145127205Y-100289744D01*
X145013937Y-100120226D01*
X144869774Y-99976063D01*
X144700256Y-99862795D01*
X144511898Y-99784774D01*
X144311939Y-99745000D01*
X144108061Y-99745000D01*
X143908102Y-99784774D01*
X143874085Y-99798865D01*
X143834142Y-99598061D01*
X151965000Y-99598061D01*
X151965000Y-99801939D01*
X152004774Y-100001898D01*
X152082795Y-100190256D01*
X152196063Y-100359774D01*
X152340226Y-100503937D01*
X152509744Y-100617205D01*
X152698102Y-100695226D01*
X152898061Y-100735000D01*
X153101939Y-100735000D01*
X153301898Y-100695226D01*
X153490256Y-100617205D01*
X153500000Y-100610694D01*
X153509744Y-100617205D01*
X153698102Y-100695226D01*
X153898061Y-100735000D01*
X154101939Y-100735000D01*
X154301898Y-100695226D01*
X154490256Y-100617205D01*
X154659774Y-100503937D01*
X154803937Y-100359774D01*
X154917205Y-100190256D01*
X154995226Y-100001898D01*
X155035000Y-99801939D01*
X155035000Y-99598061D01*
X154995226Y-99398102D01*
X154988965Y-99382986D01*
X157245000Y-99382986D01*
X157245000Y-99577014D01*
X157282853Y-99767314D01*
X157357104Y-99946572D01*
X157464901Y-100107901D01*
X157602099Y-100245099D01*
X157763428Y-100352896D01*
X157942686Y-100427147D01*
X158132986Y-100465000D01*
X158327014Y-100465000D01*
X158517314Y-100427147D01*
X158696572Y-100352896D01*
X158857901Y-100245099D01*
X158995099Y-100107901D01*
X159102896Y-99946572D01*
X159177147Y-99767314D01*
X159215000Y-99577014D01*
X159215000Y-99572982D01*
X160385000Y-99572982D01*
X160385000Y-99767010D01*
X160422853Y-99957310D01*
X160497104Y-100136568D01*
X160604901Y-100297897D01*
X160742099Y-100435095D01*
X160903428Y-100542892D01*
X161082686Y-100617143D01*
X161272986Y-100654996D01*
X161467014Y-100654996D01*
X161657314Y-100617143D01*
X161836572Y-100542892D01*
X161997901Y-100435095D01*
X162135099Y-100297897D01*
X162242896Y-100136568D01*
X162317147Y-99957310D01*
X162355000Y-99767010D01*
X162355000Y-99572982D01*
X162317147Y-99382682D01*
X162242896Y-99203424D01*
X162135099Y-99042095D01*
X161997901Y-98904897D01*
X161836572Y-98797100D01*
X161657314Y-98722849D01*
X161467014Y-98684996D01*
X161272986Y-98684996D01*
X161082686Y-98722849D01*
X160903428Y-98797100D01*
X160742099Y-98904897D01*
X160604901Y-99042095D01*
X160497104Y-99203424D01*
X160422853Y-99382682D01*
X160385000Y-99572982D01*
X159215000Y-99572982D01*
X159215000Y-99382986D01*
X159177147Y-99192686D01*
X159102896Y-99013428D01*
X158995099Y-98852099D01*
X158857901Y-98714901D01*
X158696572Y-98607104D01*
X158517314Y-98532853D01*
X158327014Y-98495000D01*
X158132986Y-98495000D01*
X157942686Y-98532853D01*
X157763428Y-98607104D01*
X157602099Y-98714901D01*
X157464901Y-98852099D01*
X157357104Y-99013428D01*
X157282853Y-99192686D01*
X157245000Y-99382986D01*
X154988965Y-99382986D01*
X154917205Y-99209744D01*
X154803937Y-99040226D01*
X154659774Y-98896063D01*
X154490256Y-98782795D01*
X154301898Y-98704774D01*
X154101939Y-98665000D01*
X153898061Y-98665000D01*
X153698102Y-98704774D01*
X153509744Y-98782795D01*
X153500000Y-98789306D01*
X153490256Y-98782795D01*
X153301898Y-98704774D01*
X153101939Y-98665000D01*
X152898061Y-98665000D01*
X152698102Y-98704774D01*
X152509744Y-98782795D01*
X152340226Y-98896063D01*
X152196063Y-99040226D01*
X152082795Y-99209744D01*
X152004774Y-99398102D01*
X151965000Y-99598061D01*
X143834142Y-99598061D01*
X143827932Y-99566842D01*
X143715990Y-99296589D01*
X143553475Y-99053368D01*
X143346632Y-98846525D01*
X143172240Y-98730000D01*
X143346632Y-98613475D01*
X143553475Y-98406632D01*
X143715990Y-98163411D01*
X143827932Y-97893158D01*
X143885000Y-97606260D01*
X143885000Y-97398061D01*
X151965000Y-97398061D01*
X151965000Y-97601939D01*
X152004774Y-97801898D01*
X152082795Y-97990256D01*
X152196063Y-98159774D01*
X152340226Y-98303937D01*
X152509744Y-98417205D01*
X152698102Y-98495226D01*
X152898061Y-98535000D01*
X153101939Y-98535000D01*
X153301898Y-98495226D01*
X153490256Y-98417205D01*
X153500000Y-98410694D01*
X153509744Y-98417205D01*
X153698102Y-98495226D01*
X153898061Y-98535000D01*
X154101939Y-98535000D01*
X154301898Y-98495226D01*
X154490256Y-98417205D01*
X154659774Y-98303937D01*
X154803937Y-98159774D01*
X154917205Y-97990256D01*
X154995226Y-97801898D01*
X155035000Y-97601939D01*
X155035000Y-97398061D01*
X154995226Y-97198102D01*
X154917205Y-97009744D01*
X154803937Y-96840226D01*
X154756697Y-96792986D01*
X157245000Y-96792986D01*
X157245000Y-96987014D01*
X157282853Y-97177314D01*
X157357104Y-97356572D01*
X157464901Y-97517901D01*
X157602099Y-97655099D01*
X157763428Y-97762896D01*
X157942686Y-97837147D01*
X158132986Y-97875000D01*
X158327014Y-97875000D01*
X158517314Y-97837147D01*
X158696572Y-97762896D01*
X158857901Y-97655099D01*
X158995099Y-97517901D01*
X159102896Y-97356572D01*
X159177147Y-97177314D01*
X159215000Y-96987014D01*
X159215000Y-96792986D01*
X160385000Y-96792986D01*
X160385000Y-96987014D01*
X160422853Y-97177314D01*
X160497104Y-97356572D01*
X160604901Y-97517901D01*
X160742099Y-97655099D01*
X160903428Y-97762896D01*
X161082686Y-97837147D01*
X161272986Y-97875000D01*
X161467014Y-97875000D01*
X161657314Y-97837147D01*
X161836572Y-97762896D01*
X161997901Y-97655099D01*
X162135099Y-97517901D01*
X162242896Y-97356572D01*
X162317147Y-97177314D01*
X162355000Y-96987014D01*
X162355000Y-96792986D01*
X162317147Y-96602686D01*
X162242896Y-96423428D01*
X162135099Y-96262099D01*
X161997901Y-96124901D01*
X161836572Y-96017104D01*
X161657314Y-95942853D01*
X161467014Y-95905000D01*
X161272986Y-95905000D01*
X161082686Y-95942853D01*
X160903428Y-96017104D01*
X160742099Y-96124901D01*
X160604901Y-96262099D01*
X160497104Y-96423428D01*
X160422853Y-96602686D01*
X160385000Y-96792986D01*
X159215000Y-96792986D01*
X159177147Y-96602686D01*
X159102896Y-96423428D01*
X158995099Y-96262099D01*
X158857901Y-96124901D01*
X158696572Y-96017104D01*
X158517314Y-95942853D01*
X158327014Y-95905000D01*
X158132986Y-95905000D01*
X157942686Y-95942853D01*
X157763428Y-96017104D01*
X157602099Y-96124901D01*
X157464901Y-96262099D01*
X157357104Y-96423428D01*
X157282853Y-96602686D01*
X157245000Y-96792986D01*
X154756697Y-96792986D01*
X154659774Y-96696063D01*
X154490256Y-96582795D01*
X154301898Y-96504774D01*
X154101939Y-96465000D01*
X153898061Y-96465000D01*
X153698102Y-96504774D01*
X153509744Y-96582795D01*
X153500000Y-96589306D01*
X153490256Y-96582795D01*
X153301898Y-96504774D01*
X153101939Y-96465000D01*
X152898061Y-96465000D01*
X152698102Y-96504774D01*
X152509744Y-96582795D01*
X152340226Y-96696063D01*
X152196063Y-96840226D01*
X152082795Y-97009744D01*
X152004774Y-97198102D01*
X151965000Y-97398061D01*
X143885000Y-97398061D01*
X143885000Y-97313740D01*
X143827932Y-97026842D01*
X143715990Y-96756589D01*
X143553475Y-96513368D01*
X143346632Y-96306525D01*
X143172240Y-96190000D01*
X143346632Y-96073475D01*
X143553475Y-95866632D01*
X143715990Y-95623411D01*
X143827932Y-95353158D01*
X143885000Y-95066260D01*
X143885000Y-94773740D01*
X143827932Y-94486842D01*
X143715990Y-94216589D01*
X143553475Y-93973368D01*
X143508093Y-93927986D01*
X150755000Y-93927986D01*
X150755000Y-94122014D01*
X150792853Y-94312314D01*
X150867104Y-94491572D01*
X150974901Y-94652901D01*
X151112099Y-94790099D01*
X151273428Y-94897896D01*
X151452686Y-94972147D01*
X151642986Y-95010000D01*
X151837014Y-95010000D01*
X152027314Y-94972147D01*
X152206572Y-94897896D01*
X152367901Y-94790099D01*
X152505099Y-94652901D01*
X152612896Y-94491572D01*
X152687147Y-94312314D01*
X152725000Y-94122014D01*
X152725000Y-93927986D01*
X152687147Y-93737686D01*
X152612896Y-93558428D01*
X152505099Y-93397099D01*
X152367901Y-93259901D01*
X152206572Y-93152104D01*
X152027314Y-93077853D01*
X151837014Y-93040000D01*
X151642986Y-93040000D01*
X151452686Y-93077853D01*
X151273428Y-93152104D01*
X151112099Y-93259901D01*
X150974901Y-93397099D01*
X150867104Y-93558428D01*
X150792853Y-93737686D01*
X150755000Y-93927986D01*
X143508093Y-93927986D01*
X143346632Y-93766525D01*
X143172240Y-93650000D01*
X143346632Y-93533475D01*
X143553475Y-93326632D01*
X143715990Y-93083411D01*
X143827932Y-92813158D01*
X143885000Y-92526260D01*
X143885000Y-92233740D01*
X143828175Y-91948061D01*
X151785000Y-91948061D01*
X151785000Y-92151939D01*
X151824774Y-92351898D01*
X151902795Y-92540256D01*
X152016063Y-92709774D01*
X152160226Y-92853937D01*
X152329744Y-92967205D01*
X152518102Y-93045226D01*
X152718061Y-93085000D01*
X152921939Y-93085000D01*
X153121898Y-93045226D01*
X153310256Y-92967205D01*
X153479774Y-92853937D01*
X153623937Y-92709774D01*
X153737205Y-92540256D01*
X153815226Y-92351898D01*
X153855000Y-92151939D01*
X153855000Y-91948061D01*
X153815226Y-91748102D01*
X153737205Y-91559744D01*
X153623937Y-91390226D01*
X153479774Y-91246063D01*
X153310256Y-91132795D01*
X153121898Y-91054774D01*
X152921939Y-91015000D01*
X152718061Y-91015000D01*
X152518102Y-91054774D01*
X152329744Y-91132795D01*
X152160226Y-91246063D01*
X152016063Y-91390226D01*
X151902795Y-91559744D01*
X151824774Y-91748102D01*
X151785000Y-91948061D01*
X143828175Y-91948061D01*
X143827932Y-91946842D01*
X143715990Y-91676589D01*
X143553475Y-91433368D01*
X143346632Y-91226525D01*
X143103411Y-91064010D01*
X142833158Y-90952068D01*
X142546260Y-90895000D01*
X142253740Y-90895000D01*
X141966842Y-90952068D01*
X141696589Y-91064010D01*
X141453368Y-91226525D01*
X141246525Y-91433368D01*
X141084010Y-91676589D01*
X140972068Y-91946842D01*
X140915000Y-92233740D01*
X140915000Y-92526260D01*
X140972068Y-92813158D01*
X141084010Y-93083411D01*
X141246525Y-93326632D01*
X141453368Y-93533475D01*
X141627760Y-93650000D01*
X141453368Y-93766525D01*
X141246525Y-93973368D01*
X141084010Y-94216589D01*
X140972068Y-94486842D01*
X140915000Y-94773740D01*
X140915000Y-95066260D01*
X140972068Y-95353158D01*
X141084010Y-95623411D01*
X141246525Y-95866632D01*
X141453368Y-96073475D01*
X141627760Y-96190000D01*
X141453368Y-96306525D01*
X141246525Y-96513368D01*
X141084010Y-96756589D01*
X140972068Y-97026842D01*
X140915000Y-97313740D01*
X140915000Y-97606260D01*
X140972068Y-97893158D01*
X141084010Y-98163411D01*
X141246525Y-98406632D01*
X141453368Y-98613475D01*
X141627760Y-98730000D01*
X141453368Y-98846525D01*
X141246525Y-99053368D01*
X141084010Y-99296589D01*
X140972068Y-99566842D01*
X140915000Y-99853740D01*
X140915000Y-100146260D01*
X140972068Y-100433158D01*
X141084010Y-100703411D01*
X141246525Y-100946632D01*
X141453368Y-101153475D01*
X141627760Y-101270000D01*
X141453368Y-101386525D01*
X141246525Y-101593368D01*
X141084010Y-101836589D01*
X140972068Y-102106842D01*
X140915000Y-102393740D01*
X140915000Y-102686260D01*
X140972068Y-102973158D01*
X141084010Y-103243411D01*
X141246525Y-103486632D01*
X141453368Y-103693475D01*
X141627760Y-103810000D01*
X141453368Y-103926525D01*
X141246525Y-104133368D01*
X141084010Y-104376589D01*
X140972068Y-104646842D01*
X140915000Y-104933740D01*
X140915000Y-105226260D01*
X140972068Y-105513158D01*
X141084010Y-105783411D01*
X141246525Y-106026632D01*
X141378380Y-106158487D01*
X141305820Y-106180498D01*
X141195506Y-106239463D01*
X141098815Y-106318815D01*
X141019463Y-106415506D01*
X140960498Y-106525820D01*
X140924188Y-106645518D01*
X140911928Y-106770000D01*
X138190201Y-106770000D01*
X138239967Y-106695521D01*
X138302911Y-106543560D01*
X138335000Y-106382240D01*
X138335000Y-106217760D01*
X138302911Y-106056440D01*
X138239967Y-105904479D01*
X138148587Y-105767719D01*
X138032281Y-105651413D01*
X137895521Y-105560033D01*
X137743560Y-105497089D01*
X137582240Y-105465000D01*
X137417760Y-105465000D01*
X137256440Y-105497089D01*
X137104479Y-105560033D01*
X136967719Y-105651413D01*
X136851413Y-105767719D01*
X136760033Y-105904479D01*
X136714472Y-106014472D01*
X136604479Y-106060033D01*
X136500000Y-106129844D01*
X136395521Y-106060033D01*
X136285528Y-106014472D01*
X136239967Y-105904479D01*
X136148587Y-105767719D01*
X136032281Y-105651413D01*
X135895521Y-105560033D01*
X135743560Y-105497089D01*
X135582240Y-105465000D01*
X135417760Y-105465000D01*
X135256440Y-105497089D01*
X135104479Y-105560033D01*
X135000000Y-105629844D01*
X134895521Y-105560033D01*
X134743560Y-105497089D01*
X134582240Y-105465000D01*
X134417760Y-105465000D01*
X134256440Y-105497089D01*
X134104479Y-105560033D01*
X133967719Y-105651413D01*
X133851413Y-105767719D01*
X133760033Y-105904479D01*
X133714472Y-106014472D01*
X133604479Y-106060033D01*
X133500000Y-106129844D01*
X133395521Y-106060033D01*
X133243560Y-105997089D01*
X133082240Y-105965000D01*
X132917760Y-105965000D01*
X132756440Y-105997089D01*
X132604479Y-106060033D01*
X132467719Y-106151413D01*
X132351413Y-106267719D01*
X132260033Y-106404479D01*
X132197089Y-106556440D01*
X132165000Y-106717760D01*
X131835000Y-106717760D01*
X131802911Y-106556440D01*
X131739967Y-106404479D01*
X131648587Y-106267719D01*
X131532281Y-106151413D01*
X131395521Y-106060033D01*
X131243560Y-105997089D01*
X131082240Y-105965000D01*
X130917760Y-105965000D01*
X130756440Y-105997089D01*
X130604479Y-106060033D01*
X130500000Y-106129844D01*
X130395521Y-106060033D01*
X130243560Y-105997089D01*
X130082240Y-105965000D01*
X129917760Y-105965000D01*
X129756440Y-105997089D01*
X129604479Y-106060033D01*
X129467719Y-106151413D01*
X129351413Y-106267719D01*
X129260033Y-106404479D01*
X129197089Y-106556440D01*
X129165000Y-106717760D01*
X125660000Y-106717760D01*
X125660000Y-93617760D01*
X127665000Y-93617760D01*
X127665000Y-93782240D01*
X127697089Y-93943560D01*
X127760033Y-94095521D01*
X127851413Y-94232281D01*
X127967719Y-94348587D01*
X128104479Y-94439967D01*
X128256440Y-94502911D01*
X128417760Y-94535000D01*
X128582240Y-94535000D01*
X128743560Y-94502911D01*
X128895521Y-94439967D01*
X129000000Y-94370156D01*
X129104479Y-94439967D01*
X129256440Y-94502911D01*
X129417760Y-94535000D01*
X129582240Y-94535000D01*
X129743560Y-94502911D01*
X129895521Y-94439967D01*
X130032281Y-94348587D01*
X130148587Y-94232281D01*
X130239967Y-94095521D01*
X130302911Y-93943560D01*
X130335000Y-93782240D01*
X130335000Y-93617760D01*
X130302911Y-93456440D01*
X130239967Y-93304479D01*
X130182024Y-93217760D01*
X130665000Y-93217760D01*
X130665000Y-93382240D01*
X130697089Y-93543560D01*
X130760033Y-93695521D01*
X130851413Y-93832281D01*
X130967719Y-93948587D01*
X131104479Y-94039967D01*
X131256440Y-94102911D01*
X131417760Y-94135000D01*
X131582240Y-94135000D01*
X131743560Y-94102911D01*
X131895521Y-94039967D01*
X132000000Y-93970156D01*
X132104479Y-94039967D01*
X132256440Y-94102911D01*
X132417760Y-94135000D01*
X132582240Y-94135000D01*
X132743560Y-94102911D01*
X132895521Y-94039967D01*
X133032281Y-93948587D01*
X133148587Y-93832281D01*
X133239967Y-93695521D01*
X133302911Y-93543560D01*
X133335000Y-93382240D01*
X133335000Y-93217760D01*
X133315109Y-93117760D01*
X133665000Y-93117760D01*
X133665000Y-93282240D01*
X133697089Y-93443560D01*
X133760033Y-93595521D01*
X133851413Y-93732281D01*
X133967719Y-93848587D01*
X134104479Y-93939967D01*
X134214472Y-93985528D01*
X134260033Y-94095521D01*
X134351413Y-94232281D01*
X134467719Y-94348587D01*
X134604479Y-94439967D01*
X134756440Y-94502911D01*
X134917760Y-94535000D01*
X135082240Y-94535000D01*
X135243560Y-94502911D01*
X135395521Y-94439967D01*
X135500000Y-94370156D01*
X135604479Y-94439967D01*
X135756440Y-94502911D01*
X135917760Y-94535000D01*
X136082240Y-94535000D01*
X136243560Y-94502911D01*
X136395521Y-94439967D01*
X136500000Y-94370156D01*
X136604479Y-94439967D01*
X136756440Y-94502911D01*
X136917760Y-94535000D01*
X137082240Y-94535000D01*
X137243560Y-94502911D01*
X137395521Y-94439967D01*
X137532281Y-94348587D01*
X137648587Y-94232281D01*
X137739967Y-94095521D01*
X137785528Y-93985528D01*
X137895521Y-93939967D01*
X138032281Y-93848587D01*
X138148587Y-93732281D01*
X138239967Y-93595521D01*
X138302911Y-93443560D01*
X138335000Y-93282240D01*
X138335000Y-93117760D01*
X138302911Y-92956440D01*
X138239967Y-92804479D01*
X138148587Y-92667719D01*
X138032281Y-92551413D01*
X137895521Y-92460033D01*
X137743560Y-92397089D01*
X137582240Y-92365000D01*
X137417760Y-92365000D01*
X137256440Y-92397089D01*
X137104479Y-92460033D01*
X136967719Y-92551413D01*
X136851413Y-92667719D01*
X136760033Y-92804479D01*
X136714472Y-92914472D01*
X136604479Y-92960033D01*
X136500000Y-93029844D01*
X136395521Y-92960033D01*
X136285528Y-92914472D01*
X136239967Y-92804479D01*
X136148587Y-92667719D01*
X136032281Y-92551413D01*
X135895521Y-92460033D01*
X135743560Y-92397089D01*
X135582240Y-92365000D01*
X135417760Y-92365000D01*
X135256440Y-92397089D01*
X135104479Y-92460033D01*
X135000000Y-92529844D01*
X134895521Y-92460033D01*
X134743560Y-92397089D01*
X134582240Y-92365000D01*
X134417760Y-92365000D01*
X134256440Y-92397089D01*
X134104479Y-92460033D01*
X133967719Y-92551413D01*
X133851413Y-92667719D01*
X133760033Y-92804479D01*
X133697089Y-92956440D01*
X133665000Y-93117760D01*
X133315109Y-93117760D01*
X133302911Y-93056440D01*
X133239967Y-92904479D01*
X133148587Y-92767719D01*
X133032281Y-92651413D01*
X132895521Y-92560033D01*
X132743560Y-92497089D01*
X132582240Y-92465000D01*
X132417760Y-92465000D01*
X132256440Y-92497089D01*
X132104479Y-92560033D01*
X132000000Y-92629844D01*
X131895521Y-92560033D01*
X131743560Y-92497089D01*
X131582240Y-92465000D01*
X131417760Y-92465000D01*
X131256440Y-92497089D01*
X131104479Y-92560033D01*
X130967719Y-92651413D01*
X130851413Y-92767719D01*
X130760033Y-92904479D01*
X130697089Y-93056440D01*
X130665000Y-93217760D01*
X130182024Y-93217760D01*
X130148587Y-93167719D01*
X130032281Y-93051413D01*
X129895521Y-92960033D01*
X129743560Y-92897089D01*
X129582240Y-92865000D01*
X129417760Y-92865000D01*
X129256440Y-92897089D01*
X129104479Y-92960033D01*
X129000000Y-93029844D01*
X128895521Y-92960033D01*
X128743560Y-92897089D01*
X128582240Y-92865000D01*
X128417760Y-92865000D01*
X128256440Y-92897089D01*
X128104479Y-92960033D01*
X127967719Y-93051413D01*
X127851413Y-93167719D01*
X127760033Y-93304479D01*
X127697089Y-93456440D01*
X127665000Y-93617760D01*
X125660000Y-93617760D01*
X125660000Y-90660000D01*
X158539893Y-90660000D01*
X158346525Y-90853368D01*
G37*
%TD.AperFunction*%
%TD*%
M02*
