M48
; DRILL file {KiCad 5.1.9-73d0e3b20d~88~ubuntu20.04.1} date Sat Apr 24 16:55:13 2021
; FORMAT={-:-/ absolute / inch / decimal}
; #@! TF.CreationDate,2021-04-24T16:55:13+02:00
; #@! TF.GenerationSoftware,Kicad,Pcbnew,5.1.9-73d0e3b20d~88~ubuntu20.04.1
; #@! TF.FileFunction,Plated,1,4,PTH
FMAT,2
INCH
T1C0.0098
T2C0.0118
T3C0.0157
T4C0.0236
T5C0.0256
T6C0.0394
%
G90
G05
T1
X5.1378Y-4.185
X5.1575Y-3.689
X5.1575Y-4.2047
X5.1772Y-4.185
X5.1969Y-3.689
X5.2165Y-3.6693
X5.2165Y-4.185
X5.2362Y-3.689
X5.2559Y-4.185
X5.2756Y-3.689
X5.2756Y-4.2047
X5.2953Y-4.185
X5.315Y-3.689
X5.3346Y-3.6693
X5.3346Y-4.185
X5.3543Y-3.689
X5.374Y-3.6693
X5.374Y-4.185
X5.3937Y-3.689
X5.4134Y-3.6693
X5.4134Y-4.185
X5.4331Y-3.689
X5.4331Y-4.2047
X5.4528Y-3.6693
X5.4528Y-4.185
X5.4724Y-3.689
X5.4724Y-4.2047
X5.4921Y-3.6693
X5.4921Y-4.185
T2
X6.5197Y-3.815
X6.5197Y-4.0591
T3
X4.9606Y-3.7008
X4.9606Y-3.8189
X4.9606Y-3.937
X4.9606Y-4.0551
X4.9606Y-4.1732
X5.0482Y-3.6693
X5.0482Y-4.2047
X5.5817Y-3.6693
X5.5817Y-4.2047
X5.6693Y-3.5827
X5.6693Y-4.2913
X5.689Y-3.6378
X5.689Y-3.753
X5.689Y-3.8293
X5.7512Y-3.9583
X5.7634Y-4.0402
X5.7874Y-3.5827
X5.7874Y-4.2913
X5.811Y-3.8996
X5.9055Y-3.5827
X5.9055Y-4.2913
X6.0063Y-3.937
X6.0236Y-3.5827
X6.0236Y-4.2913
X6.0839Y-3.7543
X6.0839Y-3.7921
X6.085Y-4.1783
X6.1181Y-3.8189
X6.1181Y-3.9016
X6.1417Y-3.5827
X6.1417Y-4.2913
X6.1642Y-3.9709
X6.2219Y-3.7087
X6.2606Y-4.2913
X6.2728Y-3.7087
X6.2728Y-3.8146
X6.2728Y-3.9165
X6.337Y-4.1984
X6.378Y-4.2913
X6.3965Y-3.7087
X6.3965Y-3.8146
X6.3965Y-3.9165
X6.3965Y-3.9575
X6.3969Y-4.0008
X6.4951Y-3.7075
X6.4969Y-4.2181
X6.4969Y-4.2929
X6.5638Y-3.7441
X6.5638Y-4.1299
X6.5689Y-3.7736
X6.5689Y-4.1004
X6.6583Y-4.2181
X6.676Y-4.1661
X6.6764Y-3.7075
X6.7138Y-4.2929
X6.7209Y-3.6717
X6.8504Y-3.7008
X6.8504Y-3.8583
X6.8504Y-4.0157
X6.8504Y-4.1732
T5
X5.5445Y-3.7621
X5.5445Y-3.8121
X5.5445Y-3.8621
X5.5445Y-3.9121
X5.5445Y-3.9621
X5.5445Y-4.0121
X5.5445Y-4.0621
X5.5445Y-4.1121
T6
X6.2795Y-3.6142
X6.3795Y-3.6142
X6.4795Y-3.6142
X6.5795Y-3.6142
X6.6795Y-3.6142
X6.7795Y-3.6142
T4
G00X6.611Y-3.7669
M15
G01X6.6543Y-3.7669
M16
G05
G00X6.611Y-4.1071
M15
G01X6.6543Y-4.1071
M16
G05
G00X6.7854Y-3.7669
M15
G01X6.8091Y-3.7669
M16
G05
G00X6.7854Y-4.1071
M15
G01X6.8091Y-4.1071
M16
G05
T0
M30
