%TF.GenerationSoftware,KiCad,Pcbnew,5.1.10-88a1d61d58~90~ubuntu20.04.1*%
%TF.CreationDate,2021-07-31T15:59:24+02:00*%
%TF.ProjectId,wally,77616c6c-792e-46b6-9963-61645f706362,v1.04*%
%TF.SameCoordinates,Original*%
%TF.FileFunction,Legend,Bot*%
%TF.FilePolarity,Positive*%
%FSLAX46Y46*%
G04 Gerber Fmt 4.6, Leading zero omitted, Abs format (unit mm)*
G04 Created by KiCad (PCBNEW 5.1.10-88a1d61d58~90~ubuntu20.04.1) date 2021-07-31 15:59:24*
%MOMM*%
%LPD*%
G01*
G04 APERTURE LIST*
%ADD10C,0.150000*%
%ADD11C,0.120000*%
G04 APERTURE END LIST*
D10*
X143522857Y-107358571D02*
X143522857Y-107958571D01*
X143522857Y-107672857D02*
X143865714Y-107672857D01*
X143865714Y-107358571D02*
X143865714Y-107958571D01*
X144151428Y-107358571D02*
X144151428Y-107958571D01*
X144294285Y-107958571D01*
X144380000Y-107930000D01*
X144437142Y-107872857D01*
X144465714Y-107815714D01*
X144494285Y-107701428D01*
X144494285Y-107615714D01*
X144465714Y-107501428D01*
X144437142Y-107444285D01*
X144380000Y-107387142D01*
X144294285Y-107358571D01*
X144151428Y-107358571D01*
X144751428Y-107358571D02*
X144751428Y-107958571D01*
X144951428Y-107530000D01*
X145151428Y-107958571D01*
X145151428Y-107358571D01*
X145437142Y-107358571D02*
X145437142Y-107958571D01*
X146522857Y-107415714D02*
X146494285Y-107387142D01*
X146408571Y-107358571D01*
X146351428Y-107358571D01*
X146265714Y-107387142D01*
X146208571Y-107444285D01*
X146180000Y-107501428D01*
X146151428Y-107615714D01*
X146151428Y-107701428D01*
X146180000Y-107815714D01*
X146208571Y-107872857D01*
X146265714Y-107930000D01*
X146351428Y-107958571D01*
X146408571Y-107958571D01*
X146494285Y-107930000D01*
X146522857Y-107901428D01*
X146780000Y-107672857D02*
X146980000Y-107672857D01*
X147065714Y-107358571D02*
X146780000Y-107358571D01*
X146780000Y-107958571D01*
X147065714Y-107958571D01*
X147665714Y-107415714D02*
X147637142Y-107387142D01*
X147551428Y-107358571D01*
X147494285Y-107358571D01*
X147408571Y-107387142D01*
X147351428Y-107444285D01*
X147322857Y-107501428D01*
X147294285Y-107615714D01*
X147294285Y-107701428D01*
X147322857Y-107815714D01*
X147351428Y-107872857D01*
X147408571Y-107930000D01*
X147494285Y-107958571D01*
X147551428Y-107958571D01*
X147637142Y-107930000D01*
X147665714Y-107901428D01*
X143527142Y-104818571D02*
X143527142Y-105418571D01*
X143527142Y-105132857D02*
X143870000Y-105132857D01*
X143870000Y-104818571D02*
X143870000Y-105418571D01*
X144155714Y-104818571D02*
X144155714Y-105418571D01*
X144298571Y-105418571D01*
X144384285Y-105390000D01*
X144441428Y-105332857D01*
X144470000Y-105275714D01*
X144498571Y-105161428D01*
X144498571Y-105075714D01*
X144470000Y-104961428D01*
X144441428Y-104904285D01*
X144384285Y-104847142D01*
X144298571Y-104818571D01*
X144155714Y-104818571D01*
X144755714Y-104818571D02*
X144755714Y-105418571D01*
X144955714Y-104990000D01*
X145155714Y-105418571D01*
X145155714Y-104818571D01*
X145441428Y-104818571D02*
X145441428Y-105418571D01*
X146184285Y-105418571D02*
X146184285Y-104932857D01*
X146212857Y-104875714D01*
X146241428Y-104847142D01*
X146298571Y-104818571D01*
X146412857Y-104818571D01*
X146470000Y-104847142D01*
X146498571Y-104875714D01*
X146527142Y-104932857D01*
X146527142Y-105418571D01*
X146727142Y-105418571D02*
X147070000Y-105418571D01*
X146898571Y-104818571D02*
X146898571Y-105418571D01*
X147270000Y-104818571D02*
X147270000Y-105418571D01*
X147841428Y-104818571D02*
X147555714Y-104818571D01*
X147555714Y-105418571D01*
X148041428Y-104818571D02*
X148041428Y-105418571D01*
X148241428Y-105418571D02*
X148584285Y-105418571D01*
X148412857Y-104818571D02*
X148412857Y-105418571D01*
X148898571Y-105104285D02*
X148898571Y-104818571D01*
X148698571Y-105418571D02*
X148898571Y-105104285D01*
X149098571Y-105418571D01*
X143505714Y-102248571D02*
X143505714Y-102848571D01*
X143505714Y-102562857D02*
X143848571Y-102562857D01*
X143848571Y-102248571D02*
X143848571Y-102848571D01*
X144134285Y-102248571D02*
X144134285Y-102848571D01*
X144277142Y-102848571D01*
X144362857Y-102820000D01*
X144420000Y-102762857D01*
X144448571Y-102705714D01*
X144477142Y-102591428D01*
X144477142Y-102505714D01*
X144448571Y-102391428D01*
X144420000Y-102334285D01*
X144362857Y-102277142D01*
X144277142Y-102248571D01*
X144134285Y-102248571D01*
X144734285Y-102248571D02*
X144734285Y-102848571D01*
X144934285Y-102420000D01*
X145134285Y-102848571D01*
X145134285Y-102248571D01*
X145420000Y-102248571D02*
X145420000Y-102848571D01*
X146134285Y-102277142D02*
X146220000Y-102248571D01*
X146362857Y-102248571D01*
X146420000Y-102277142D01*
X146448571Y-102305714D01*
X146477142Y-102362857D01*
X146477142Y-102420000D01*
X146448571Y-102477142D01*
X146420000Y-102505714D01*
X146362857Y-102534285D01*
X146248571Y-102562857D01*
X146191428Y-102591428D01*
X146162857Y-102620000D01*
X146134285Y-102677142D01*
X146134285Y-102734285D01*
X146162857Y-102791428D01*
X146191428Y-102820000D01*
X146248571Y-102848571D01*
X146391428Y-102848571D01*
X146477142Y-102820000D01*
X147077142Y-102305714D02*
X147048571Y-102277142D01*
X146962857Y-102248571D01*
X146905714Y-102248571D01*
X146820000Y-102277142D01*
X146762857Y-102334285D01*
X146734285Y-102391428D01*
X146705714Y-102505714D01*
X146705714Y-102591428D01*
X146734285Y-102705714D01*
X146762857Y-102762857D01*
X146820000Y-102820000D01*
X146905714Y-102848571D01*
X146962857Y-102848571D01*
X147048571Y-102820000D01*
X147077142Y-102791428D01*
X147620000Y-102248571D02*
X147334285Y-102248571D01*
X147334285Y-102848571D01*
X143520000Y-92108571D02*
X143520000Y-92708571D01*
X143520000Y-92422857D02*
X143862857Y-92422857D01*
X143862857Y-92108571D02*
X143862857Y-92708571D01*
X144148571Y-92108571D02*
X144148571Y-92708571D01*
X144291428Y-92708571D01*
X144377142Y-92680000D01*
X144434285Y-92622857D01*
X144462857Y-92565714D01*
X144491428Y-92451428D01*
X144491428Y-92365714D01*
X144462857Y-92251428D01*
X144434285Y-92194285D01*
X144377142Y-92137142D01*
X144291428Y-92108571D01*
X144148571Y-92108571D01*
X144748571Y-92108571D02*
X144748571Y-92708571D01*
X144948571Y-92280000D01*
X145148571Y-92708571D01*
X145148571Y-92108571D01*
X145434285Y-92108571D02*
X145434285Y-92708571D01*
X146177142Y-92108571D02*
X146177142Y-92708571D01*
X146177142Y-92422857D02*
X146520000Y-92422857D01*
X146520000Y-92108571D02*
X146520000Y-92708571D01*
X146805714Y-92108571D02*
X146805714Y-92708571D01*
X147034285Y-92708571D01*
X147091428Y-92680000D01*
X147120000Y-92651428D01*
X147148571Y-92594285D01*
X147148571Y-92508571D01*
X147120000Y-92451428D01*
X147091428Y-92422857D01*
X147034285Y-92394285D01*
X146805714Y-92394285D01*
X147405714Y-92108571D02*
X147405714Y-92708571D01*
X147548571Y-92708571D01*
X147634285Y-92680000D01*
X147691428Y-92622857D01*
X147720000Y-92565714D01*
X147748571Y-92451428D01*
X147748571Y-92365714D01*
X147720000Y-92251428D01*
X147691428Y-92194285D01*
X147634285Y-92137142D01*
X147548571Y-92108571D01*
X147405714Y-92108571D01*
X143528571Y-94658571D02*
X143528571Y-95258571D01*
X143528571Y-94972857D02*
X143871428Y-94972857D01*
X143871428Y-94658571D02*
X143871428Y-95258571D01*
X144157142Y-94658571D02*
X144157142Y-95258571D01*
X144300000Y-95258571D01*
X144385714Y-95230000D01*
X144442857Y-95172857D01*
X144471428Y-95115714D01*
X144500000Y-95001428D01*
X144500000Y-94915714D01*
X144471428Y-94801428D01*
X144442857Y-94744285D01*
X144385714Y-94687142D01*
X144300000Y-94658571D01*
X144157142Y-94658571D01*
X144757142Y-94658571D02*
X144757142Y-95258571D01*
X144957142Y-94830000D01*
X145157142Y-95258571D01*
X145157142Y-94658571D01*
X145442857Y-94658571D02*
X145442857Y-95258571D01*
X146185714Y-94887142D02*
X146642857Y-94887142D01*
X146414285Y-94658571D02*
X146414285Y-95115714D01*
X147214285Y-95258571D02*
X146928571Y-95258571D01*
X146900000Y-94972857D01*
X146928571Y-95001428D01*
X146985714Y-95030000D01*
X147128571Y-95030000D01*
X147185714Y-95001428D01*
X147214285Y-94972857D01*
X147242857Y-94915714D01*
X147242857Y-94772857D01*
X147214285Y-94715714D01*
X147185714Y-94687142D01*
X147128571Y-94658571D01*
X146985714Y-94658571D01*
X146928571Y-94687142D01*
X146900000Y-94715714D01*
X147442857Y-95058571D02*
X147585714Y-94658571D01*
X147728571Y-95058571D01*
X143511428Y-97188571D02*
X143511428Y-97788571D01*
X143511428Y-97502857D02*
X143854285Y-97502857D01*
X143854285Y-97188571D02*
X143854285Y-97788571D01*
X144140000Y-97188571D02*
X144140000Y-97788571D01*
X144282857Y-97788571D01*
X144368571Y-97760000D01*
X144425714Y-97702857D01*
X144454285Y-97645714D01*
X144482857Y-97531428D01*
X144482857Y-97445714D01*
X144454285Y-97331428D01*
X144425714Y-97274285D01*
X144368571Y-97217142D01*
X144282857Y-97188571D01*
X144140000Y-97188571D01*
X144740000Y-97188571D02*
X144740000Y-97788571D01*
X144940000Y-97360000D01*
X145140000Y-97788571D01*
X145140000Y-97188571D01*
X145425714Y-97188571D02*
X145425714Y-97788571D01*
X146140000Y-97217142D02*
X146225714Y-97188571D01*
X146368571Y-97188571D01*
X146425714Y-97217142D01*
X146454285Y-97245714D01*
X146482857Y-97302857D01*
X146482857Y-97360000D01*
X146454285Y-97417142D01*
X146425714Y-97445714D01*
X146368571Y-97474285D01*
X146254285Y-97502857D01*
X146197142Y-97531428D01*
X146168571Y-97560000D01*
X146140000Y-97617142D01*
X146140000Y-97674285D01*
X146168571Y-97731428D01*
X146197142Y-97760000D01*
X146254285Y-97788571D01*
X146397142Y-97788571D01*
X146482857Y-97760000D01*
X146740000Y-97188571D02*
X146740000Y-97788571D01*
X146882857Y-97788571D01*
X146968571Y-97760000D01*
X147025714Y-97702857D01*
X147054285Y-97645714D01*
X147082857Y-97531428D01*
X147082857Y-97445714D01*
X147054285Y-97331428D01*
X147025714Y-97274285D01*
X146968571Y-97217142D01*
X146882857Y-97188571D01*
X146740000Y-97188571D01*
X147311428Y-97360000D02*
X147597142Y-97360000D01*
X147254285Y-97188571D02*
X147454285Y-97788571D01*
X147654285Y-97188571D01*
X143842857Y-100300000D02*
X143785714Y-100328571D01*
X143700000Y-100328571D01*
X143614285Y-100300000D01*
X143557142Y-100242857D01*
X143528571Y-100185714D01*
X143500000Y-100071428D01*
X143500000Y-99985714D01*
X143528571Y-99871428D01*
X143557142Y-99814285D01*
X143614285Y-99757142D01*
X143700000Y-99728571D01*
X143757142Y-99728571D01*
X143842857Y-99757142D01*
X143871428Y-99785714D01*
X143871428Y-99985714D01*
X143757142Y-99985714D01*
X144128571Y-99728571D02*
X144128571Y-100328571D01*
X144471428Y-99728571D01*
X144471428Y-100328571D01*
X144757142Y-99728571D02*
X144757142Y-100328571D01*
X144900000Y-100328571D01*
X144985714Y-100300000D01*
X145042857Y-100242857D01*
X145071428Y-100185714D01*
X145100000Y-100071428D01*
X145100000Y-99985714D01*
X145071428Y-99871428D01*
X145042857Y-99814285D01*
X144985714Y-99757142D01*
X144900000Y-99728571D01*
X144757142Y-99728571D01*
X151922857Y-92848571D02*
X151922857Y-93305714D01*
X152151428Y-93077142D02*
X151694285Y-93077142D01*
X151551428Y-93534285D02*
X151551428Y-93905714D01*
X151780000Y-93705714D01*
X151780000Y-93791428D01*
X151808571Y-93848571D01*
X151837142Y-93877142D01*
X151894285Y-93905714D01*
X152037142Y-93905714D01*
X152094285Y-93877142D01*
X152122857Y-93848571D01*
X152151428Y-93791428D01*
X152151428Y-93620000D01*
X152122857Y-93562857D01*
X152094285Y-93534285D01*
X152094285Y-94162857D02*
X152122857Y-94191428D01*
X152151428Y-94162857D01*
X152122857Y-94134285D01*
X152094285Y-94162857D01*
X152151428Y-94162857D01*
X151551428Y-94391428D02*
X151551428Y-94762857D01*
X151780000Y-94562857D01*
X151780000Y-94648571D01*
X151808571Y-94705714D01*
X151837142Y-94734285D01*
X151894285Y-94762857D01*
X152037142Y-94762857D01*
X152094285Y-94734285D01*
X152122857Y-94705714D01*
X152151428Y-94648571D01*
X152151428Y-94477142D01*
X152122857Y-94420000D01*
X152094285Y-94391428D01*
X151751428Y-94962857D02*
X152151428Y-95105714D01*
X151751428Y-95248571D01*
X154432857Y-92927142D02*
X154432857Y-93384285D01*
X154661428Y-93155714D02*
X154204285Y-93155714D01*
X154061428Y-93955714D02*
X154061428Y-93670000D01*
X154347142Y-93641428D01*
X154318571Y-93670000D01*
X154290000Y-93727142D01*
X154290000Y-93870000D01*
X154318571Y-93927142D01*
X154347142Y-93955714D01*
X154404285Y-93984285D01*
X154547142Y-93984285D01*
X154604285Y-93955714D01*
X154632857Y-93927142D01*
X154661428Y-93870000D01*
X154661428Y-93727142D01*
X154632857Y-93670000D01*
X154604285Y-93641428D01*
X154261428Y-94184285D02*
X154661428Y-94327142D01*
X154261428Y-94470000D01*
X156897142Y-93090000D02*
X156925714Y-93175714D01*
X156954285Y-93204285D01*
X157011428Y-93232857D01*
X157097142Y-93232857D01*
X157154285Y-93204285D01*
X157182857Y-93175714D01*
X157211428Y-93118571D01*
X157211428Y-92890000D01*
X156611428Y-92890000D01*
X156611428Y-93090000D01*
X156640000Y-93147142D01*
X156668571Y-93175714D01*
X156725714Y-93204285D01*
X156782857Y-93204285D01*
X156840000Y-93175714D01*
X156868571Y-93147142D01*
X156897142Y-93090000D01*
X156897142Y-92890000D01*
X156611428Y-93604285D02*
X156611428Y-93718571D01*
X156640000Y-93775714D01*
X156697142Y-93832857D01*
X156811428Y-93861428D01*
X157011428Y-93861428D01*
X157125714Y-93832857D01*
X157182857Y-93775714D01*
X157211428Y-93718571D01*
X157211428Y-93604285D01*
X157182857Y-93547142D01*
X157125714Y-93490000D01*
X157011428Y-93461428D01*
X156811428Y-93461428D01*
X156697142Y-93490000D01*
X156640000Y-93547142D01*
X156611428Y-93604285D01*
X156611428Y-94232857D02*
X156611428Y-94347142D01*
X156640000Y-94404285D01*
X156697142Y-94461428D01*
X156811428Y-94490000D01*
X157011428Y-94490000D01*
X157125714Y-94461428D01*
X157182857Y-94404285D01*
X157211428Y-94347142D01*
X157211428Y-94232857D01*
X157182857Y-94175714D01*
X157125714Y-94118571D01*
X157011428Y-94090000D01*
X156811428Y-94090000D01*
X156697142Y-94118571D01*
X156640000Y-94175714D01*
X156611428Y-94232857D01*
X156611428Y-94661428D02*
X156611428Y-95004285D01*
X157211428Y-94832857D02*
X156611428Y-94832857D01*
X156611428Y-95318571D02*
X156611428Y-95375714D01*
X156640000Y-95432857D01*
X156668571Y-95461428D01*
X156725714Y-95490000D01*
X156840000Y-95518571D01*
X156982857Y-95518571D01*
X157097142Y-95490000D01*
X157154285Y-95461428D01*
X157182857Y-95432857D01*
X157211428Y-95375714D01*
X157211428Y-95318571D01*
X157182857Y-95261428D01*
X157154285Y-95232857D01*
X157097142Y-95204285D01*
X156982857Y-95175714D01*
X156840000Y-95175714D01*
X156725714Y-95204285D01*
X156668571Y-95232857D01*
X156640000Y-95261428D01*
X156611428Y-95318571D01*
X159181428Y-92892857D02*
X159181428Y-93235714D01*
X159781428Y-93064285D02*
X159181428Y-93064285D01*
X159181428Y-93378571D02*
X159781428Y-93778571D01*
X159181428Y-93778571D02*
X159781428Y-93378571D01*
X162331428Y-93240000D02*
X162045714Y-93040000D01*
X162331428Y-92897142D02*
X161731428Y-92897142D01*
X161731428Y-93125714D01*
X161760000Y-93182857D01*
X161788571Y-93211428D01*
X161845714Y-93240000D01*
X161931428Y-93240000D01*
X161988571Y-93211428D01*
X162017142Y-93182857D01*
X162045714Y-93125714D01*
X162045714Y-92897142D01*
X161731428Y-93440000D02*
X162331428Y-93840000D01*
X161731428Y-93840000D02*
X162331428Y-93440000D01*
X164290000Y-93252857D02*
X164261428Y-93195714D01*
X164261428Y-93110000D01*
X164290000Y-93024285D01*
X164347142Y-92967142D01*
X164404285Y-92938571D01*
X164518571Y-92910000D01*
X164604285Y-92910000D01*
X164718571Y-92938571D01*
X164775714Y-92967142D01*
X164832857Y-93024285D01*
X164861428Y-93110000D01*
X164861428Y-93167142D01*
X164832857Y-93252857D01*
X164804285Y-93281428D01*
X164604285Y-93281428D01*
X164604285Y-93167142D01*
X164861428Y-93538571D02*
X164261428Y-93538571D01*
X164861428Y-93881428D01*
X164261428Y-93881428D01*
X164861428Y-94167142D02*
X164261428Y-94167142D01*
X164261428Y-94310000D01*
X164290000Y-94395714D01*
X164347142Y-94452857D01*
X164404285Y-94481428D01*
X164518571Y-94510000D01*
X164604285Y-94510000D01*
X164718571Y-94481428D01*
X164775714Y-94452857D01*
X164832857Y-94395714D01*
X164861428Y-94310000D01*
X164861428Y-94167142D01*
X167352857Y-92882857D02*
X167381428Y-92968571D01*
X167381428Y-93111428D01*
X167352857Y-93168571D01*
X167324285Y-93197142D01*
X167267142Y-93225714D01*
X167210000Y-93225714D01*
X167152857Y-93197142D01*
X167124285Y-93168571D01*
X167095714Y-93111428D01*
X167067142Y-92997142D01*
X167038571Y-92940000D01*
X167010000Y-92911428D01*
X166952857Y-92882857D01*
X166895714Y-92882857D01*
X166838571Y-92911428D01*
X166810000Y-92940000D01*
X166781428Y-92997142D01*
X166781428Y-93140000D01*
X166810000Y-93225714D01*
X166781428Y-93425714D02*
X167381428Y-93568571D01*
X166952857Y-93682857D01*
X167381428Y-93797142D01*
X166781428Y-93940000D01*
X167324285Y-94511428D02*
X167352857Y-94482857D01*
X167381428Y-94397142D01*
X167381428Y-94340000D01*
X167352857Y-94254285D01*
X167295714Y-94197142D01*
X167238571Y-94168571D01*
X167124285Y-94140000D01*
X167038571Y-94140000D01*
X166924285Y-94168571D01*
X166867142Y-94197142D01*
X166810000Y-94254285D01*
X166781428Y-94340000D01*
X166781428Y-94397142D01*
X166810000Y-94482857D01*
X166838571Y-94511428D01*
X167381428Y-95054285D02*
X167381428Y-94768571D01*
X166781428Y-94768571D01*
X167381428Y-95254285D02*
X166781428Y-95254285D01*
X167381428Y-95597142D02*
X167038571Y-95340000D01*
X166781428Y-95597142D02*
X167124285Y-95254285D01*
X169912857Y-92878571D02*
X169941428Y-92964285D01*
X169941428Y-93107142D01*
X169912857Y-93164285D01*
X169884285Y-93192857D01*
X169827142Y-93221428D01*
X169770000Y-93221428D01*
X169712857Y-93192857D01*
X169684285Y-93164285D01*
X169655714Y-93107142D01*
X169627142Y-92992857D01*
X169598571Y-92935714D01*
X169570000Y-92907142D01*
X169512857Y-92878571D01*
X169455714Y-92878571D01*
X169398571Y-92907142D01*
X169370000Y-92935714D01*
X169341428Y-92992857D01*
X169341428Y-93135714D01*
X169370000Y-93221428D01*
X169341428Y-93421428D02*
X169941428Y-93564285D01*
X169512857Y-93678571D01*
X169941428Y-93792857D01*
X169341428Y-93935714D01*
X169941428Y-94164285D02*
X169341428Y-94164285D01*
X169341428Y-94307142D01*
X169370000Y-94392857D01*
X169427142Y-94450000D01*
X169484285Y-94478571D01*
X169598571Y-94507142D01*
X169684285Y-94507142D01*
X169798571Y-94478571D01*
X169855714Y-94450000D01*
X169912857Y-94392857D01*
X169941428Y-94307142D01*
X169941428Y-94164285D01*
X169941428Y-94764285D02*
X169341428Y-94764285D01*
X169341428Y-95164285D02*
X169341428Y-95278571D01*
X169370000Y-95335714D01*
X169427142Y-95392857D01*
X169541428Y-95421428D01*
X169741428Y-95421428D01*
X169855714Y-95392857D01*
X169912857Y-95335714D01*
X169941428Y-95278571D01*
X169941428Y-95164285D01*
X169912857Y-95107142D01*
X169855714Y-95050000D01*
X169741428Y-95021428D01*
X169541428Y-95021428D01*
X169427142Y-95050000D01*
X169370000Y-95107142D01*
X169341428Y-95164285D01*
X171930000Y-93222857D02*
X171901428Y-93165714D01*
X171901428Y-93080000D01*
X171930000Y-92994285D01*
X171987142Y-92937142D01*
X172044285Y-92908571D01*
X172158571Y-92880000D01*
X172244285Y-92880000D01*
X172358571Y-92908571D01*
X172415714Y-92937142D01*
X172472857Y-92994285D01*
X172501428Y-93080000D01*
X172501428Y-93137142D01*
X172472857Y-93222857D01*
X172444285Y-93251428D01*
X172244285Y-93251428D01*
X172244285Y-93137142D01*
X172501428Y-93508571D02*
X171901428Y-93508571D01*
X172501428Y-93851428D01*
X171901428Y-93851428D01*
X172501428Y-94137142D02*
X171901428Y-94137142D01*
X171901428Y-94280000D01*
X171930000Y-94365714D01*
X171987142Y-94422857D01*
X172044285Y-94451428D01*
X172158571Y-94480000D01*
X172244285Y-94480000D01*
X172358571Y-94451428D01*
X172415714Y-94422857D01*
X172472857Y-94365714D01*
X172501428Y-94280000D01*
X172501428Y-94137142D01*
D11*
%TO.C,J2*%
X127990000Y-109890000D02*
X127990000Y-107260000D01*
X139210000Y-109890000D02*
X138010000Y-109890000D01*
X139210000Y-107140000D02*
X139210000Y-109890000D01*
X125660000Y-107140000D02*
X126790000Y-107140000D01*
X140340000Y-109890000D02*
X140340000Y-107140000D01*
X125660000Y-109890000D02*
X125660000Y-107140000D01*
X140340000Y-107140000D02*
X139210000Y-107140000D01*
X126790000Y-107140000D02*
X126790000Y-109890000D01*
X126790000Y-109890000D02*
X127990000Y-109890000D01*
%TO.C,J3*%
X125660000Y-90110000D02*
X125660000Y-92860000D01*
X125660000Y-92860000D02*
X126790000Y-92860000D01*
X126790000Y-92860000D02*
X126790000Y-90110000D01*
X126790000Y-90110000D02*
X127990000Y-90110000D01*
X139210000Y-90110000D02*
X138010000Y-90110000D01*
X139210000Y-92860000D02*
X139210000Y-90110000D01*
X140340000Y-90110000D02*
X140340000Y-92860000D01*
X140340000Y-92860000D02*
X139210000Y-92860000D01*
X127990000Y-90110000D02*
X127990000Y-92740000D01*
%TD*%
M02*
