%TF.GenerationSoftware,KiCad,Pcbnew,5.1.9-73d0e3b20d~88~ubuntu20.04.1*%
%TF.CreationDate,2021-05-17T23:31:10+02:00*%
%TF.ProjectId,wally,77616c6c-792e-46b6-9963-61645f706362,v1.02*%
%TF.SameCoordinates,Original*%
%TF.FileFunction,Legend,Top*%
%TF.FilePolarity,Positive*%
%FSLAX46Y46*%
G04 Gerber Fmt 4.6, Leading zero omitted, Abs format (unit mm)*
G04 Created by KiCad (PCBNEW 5.1.9-73d0e3b20d~88~ubuntu20.04.1) date 2021-05-17 23:31:10*
%MOMM*%
%LPD*%
G01*
G04 APERTURE LIST*
%ADD10C,0.187500*%
%ADD11C,0.300000*%
%ADD12C,0.120000*%
%ADD13C,0.150000*%
G04 APERTURE END LIST*
D10*
X170589285Y-103464285D02*
X171125000Y-103464285D01*
X171232142Y-103500000D01*
X171303571Y-103571428D01*
X171339285Y-103678571D01*
X171339285Y-103750000D01*
X171339285Y-102750000D02*
X171339285Y-103107142D01*
X170589285Y-103107142D01*
X171267857Y-102071428D02*
X171303571Y-102107142D01*
X171339285Y-102214285D01*
X171339285Y-102285714D01*
X171303571Y-102392857D01*
X171232142Y-102464285D01*
X171160714Y-102500000D01*
X171017857Y-102535714D01*
X170910714Y-102535714D01*
X170767857Y-102500000D01*
X170696428Y-102464285D01*
X170625000Y-102392857D01*
X170589285Y-102285714D01*
X170589285Y-102214285D01*
X170625000Y-102107142D01*
X170660714Y-102071428D01*
X170589285Y-101535714D02*
X171125000Y-101535714D01*
X171232142Y-101571428D01*
X171303571Y-101642857D01*
X171339285Y-101750000D01*
X171339285Y-101821428D01*
X171339285Y-100821428D02*
X171339285Y-101178571D01*
X170589285Y-101178571D01*
X171267857Y-100142857D02*
X171303571Y-100178571D01*
X171339285Y-100285714D01*
X171339285Y-100357142D01*
X171303571Y-100464285D01*
X171232142Y-100535714D01*
X171160714Y-100571428D01*
X171017857Y-100607142D01*
X170910714Y-100607142D01*
X170767857Y-100571428D01*
X170696428Y-100535714D01*
X170625000Y-100464285D01*
X170589285Y-100357142D01*
X170589285Y-100285714D01*
X170625000Y-100178571D01*
X170660714Y-100142857D01*
X170589285Y-99607142D02*
X171125000Y-99607142D01*
X171232142Y-99642857D01*
X171303571Y-99714285D01*
X171339285Y-99821428D01*
X171339285Y-99892857D01*
X171339285Y-98892857D02*
X171339285Y-99250000D01*
X170589285Y-99250000D01*
X171267857Y-98214285D02*
X171303571Y-98250000D01*
X171339285Y-98357142D01*
X171339285Y-98428571D01*
X171303571Y-98535714D01*
X171232142Y-98607142D01*
X171160714Y-98642857D01*
X171017857Y-98678571D01*
X170910714Y-98678571D01*
X170767857Y-98642857D01*
X170696428Y-98607142D01*
X170625000Y-98535714D01*
X170589285Y-98428571D01*
X170589285Y-98357142D01*
X170625000Y-98250000D01*
X170660714Y-98214285D01*
X170589285Y-97678571D02*
X171125000Y-97678571D01*
X171232142Y-97714285D01*
X171303571Y-97785714D01*
X171339285Y-97892857D01*
X171339285Y-97964285D01*
X171339285Y-96964285D02*
X171339285Y-97321428D01*
X170589285Y-97321428D01*
X171267857Y-96285714D02*
X171303571Y-96321428D01*
X171339285Y-96428571D01*
X171339285Y-96500000D01*
X171303571Y-96607142D01*
X171232142Y-96678571D01*
X171160714Y-96714285D01*
X171017857Y-96750000D01*
X170910714Y-96750000D01*
X170767857Y-96714285D01*
X170696428Y-96678571D01*
X170625000Y-96607142D01*
X170589285Y-96500000D01*
X170589285Y-96428571D01*
X170625000Y-96321428D01*
X170660714Y-96285714D01*
D11*
X126500000Y-100678571D02*
X126785714Y-101678571D01*
X127071428Y-100964285D01*
X127357142Y-101678571D01*
X127642857Y-100678571D01*
X128071428Y-100678571D02*
X128357142Y-101678571D01*
X128642857Y-100964285D01*
X128928571Y-101678571D01*
X129214285Y-100678571D01*
X129642857Y-100678571D02*
X129928571Y-101678571D01*
X130214285Y-100964285D01*
X130500000Y-101678571D01*
X130785714Y-100678571D01*
X131357142Y-101535714D02*
X131428571Y-101607142D01*
X131357142Y-101678571D01*
X131285714Y-101607142D01*
X131357142Y-101535714D01*
X131357142Y-101678571D01*
X132000000Y-100321428D02*
X132071428Y-100250000D01*
X132214285Y-100178571D01*
X132571428Y-100178571D01*
X132714285Y-100250000D01*
X132785714Y-100321428D01*
X132857142Y-100464285D01*
X132857142Y-100607142D01*
X132785714Y-100821428D01*
X131928571Y-101678571D01*
X132857142Y-101678571D01*
X133500000Y-101107142D02*
X134642857Y-101107142D01*
X135642857Y-100178571D02*
X135785714Y-100178571D01*
X135928571Y-100250000D01*
X136000000Y-100321428D01*
X136071428Y-100464285D01*
X136142857Y-100750000D01*
X136142857Y-101107142D01*
X136071428Y-101392857D01*
X136000000Y-101535714D01*
X135928571Y-101607142D01*
X135785714Y-101678571D01*
X135642857Y-101678571D01*
X135500000Y-101607142D01*
X135428571Y-101535714D01*
X135357142Y-101392857D01*
X135285714Y-101107142D01*
X135285714Y-100750000D01*
X135357142Y-100464285D01*
X135428571Y-100321428D01*
X135500000Y-100250000D01*
X135642857Y-100178571D01*
X136785714Y-101535714D02*
X136857142Y-101607142D01*
X136785714Y-101678571D01*
X136714285Y-101607142D01*
X136785714Y-101535714D01*
X136785714Y-101678571D01*
X138142857Y-101678571D02*
X138142857Y-100178571D01*
X138142857Y-101607142D02*
X138000000Y-101678571D01*
X137714285Y-101678571D01*
X137571428Y-101607142D01*
X137500000Y-101535714D01*
X137428571Y-101392857D01*
X137428571Y-100964285D01*
X137500000Y-100821428D01*
X137571428Y-100750000D01*
X137714285Y-100678571D01*
X138000000Y-100678571D01*
X138142857Y-100750000D01*
X138857142Y-101678571D02*
X138857142Y-100178571D01*
X139000000Y-101107142D02*
X139428571Y-101678571D01*
X139428571Y-100678571D02*
X138857142Y-101250000D01*
X126678571Y-97178571D02*
X127035714Y-98678571D01*
X127321428Y-97607142D01*
X127607142Y-98678571D01*
X127964285Y-97178571D01*
X129178571Y-98678571D02*
X129178571Y-97892857D01*
X129107142Y-97750000D01*
X128964285Y-97678571D01*
X128678571Y-97678571D01*
X128535714Y-97750000D01*
X129178571Y-98607142D02*
X129035714Y-98678571D01*
X128678571Y-98678571D01*
X128535714Y-98607142D01*
X128464285Y-98464285D01*
X128464285Y-98321428D01*
X128535714Y-98178571D01*
X128678571Y-98107142D01*
X129035714Y-98107142D01*
X129178571Y-98035714D01*
X130107142Y-98678571D02*
X129964285Y-98607142D01*
X129892857Y-98464285D01*
X129892857Y-97178571D01*
X130892857Y-98678571D02*
X130750000Y-98607142D01*
X130678571Y-98464285D01*
X130678571Y-97178571D01*
X131321428Y-97678571D02*
X131678571Y-98678571D01*
X132035714Y-97678571D02*
X131678571Y-98678571D01*
X131535714Y-99035714D01*
X131464285Y-99107142D01*
X131321428Y-99178571D01*
X133607142Y-97678571D02*
X133964285Y-98678571D01*
X134321428Y-97678571D01*
X135678571Y-98678571D02*
X134821428Y-98678571D01*
X135250000Y-98678571D02*
X135250000Y-97178571D01*
X135107142Y-97392857D01*
X134964285Y-97535714D01*
X134821428Y-97607142D01*
X136321428Y-98535714D02*
X136392857Y-98607142D01*
X136321428Y-98678571D01*
X136250000Y-98607142D01*
X136321428Y-98535714D01*
X136321428Y-98678571D01*
X137321428Y-97178571D02*
X137464285Y-97178571D01*
X137607142Y-97250000D01*
X137678571Y-97321428D01*
X137750000Y-97464285D01*
X137821428Y-97750000D01*
X137821428Y-98107142D01*
X137750000Y-98392857D01*
X137678571Y-98535714D01*
X137607142Y-98607142D01*
X137464285Y-98678571D01*
X137321428Y-98678571D01*
X137178571Y-98607142D01*
X137107142Y-98535714D01*
X137035714Y-98392857D01*
X136964285Y-98107142D01*
X136964285Y-97750000D01*
X137035714Y-97464285D01*
X137107142Y-97321428D01*
X137178571Y-97250000D01*
X137321428Y-97178571D01*
X138392857Y-97321428D02*
X138464285Y-97250000D01*
X138607142Y-97178571D01*
X138964285Y-97178571D01*
X139107142Y-97250000D01*
X139178571Y-97321428D01*
X139250000Y-97464285D01*
X139250000Y-97607142D01*
X139178571Y-97821428D01*
X138321428Y-98678571D01*
X139250000Y-98678571D01*
D12*
%TO.C,J1*%
X173600000Y-104700000D02*
X175500000Y-104700000D01*
X169700000Y-104700000D02*
X171700000Y-104700000D01*
X173600000Y-95300000D02*
X175500000Y-95300000D01*
X169700000Y-95300000D02*
X171700000Y-95300000D01*
X175500000Y-104700000D02*
X175500000Y-95300000D01*
%TO.C,Q4*%
X155670000Y-104070000D02*
X157130000Y-104070000D01*
X155670000Y-107230000D02*
X157830000Y-107230000D01*
X155670000Y-107230000D02*
X155670000Y-106300000D01*
X155670000Y-104070000D02*
X155670000Y-105000000D01*
%TO.C,J2*%
X142340000Y-110060000D02*
X141210000Y-110060000D01*
X142340000Y-107310000D02*
X142340000Y-110060000D01*
X141210000Y-110060000D02*
X141210000Y-107310000D01*
X141210000Y-107310000D02*
X140010000Y-107310000D01*
X128790000Y-107310000D02*
X129990000Y-107310000D01*
X128790000Y-110060000D02*
X128790000Y-107310000D01*
X127660000Y-110060000D02*
X128790000Y-110060000D01*
X127660000Y-107310000D02*
X127660000Y-110060000D01*
%TO.C,J3*%
X129990000Y-92690000D02*
X129990000Y-90060000D01*
X141210000Y-92690000D02*
X140010000Y-92690000D01*
X141210000Y-89940000D02*
X141210000Y-92690000D01*
X127660000Y-89940000D02*
X128790000Y-89940000D01*
X142340000Y-92690000D02*
X142340000Y-89940000D01*
X127660000Y-92690000D02*
X127660000Y-89940000D01*
X142340000Y-89940000D02*
X141210000Y-89940000D01*
X128790000Y-89940000D02*
X128790000Y-92690000D01*
X128790000Y-92690000D02*
X129990000Y-92690000D01*
%TO.C,C4*%
X171065000Y-107551252D02*
X171065000Y-107028748D01*
X172535000Y-107551252D02*
X172535000Y-107028748D01*
%TO.C,C5*%
X167075000Y-107551252D02*
X167075000Y-107028748D01*
X165605000Y-107551252D02*
X165605000Y-107028748D01*
%TO.C,U1*%
X159800000Y-103385000D02*
X162000000Y-103385000D01*
X159800000Y-103385000D02*
X157600000Y-103385000D01*
X159800000Y-96615000D02*
X162000000Y-96615000D01*
X159800000Y-96615000D02*
X156200000Y-96615000D01*
%TO.C,U2*%
X169830000Y-108870000D02*
X169830000Y-107940000D01*
X169830000Y-105710000D02*
X169830000Y-106640000D01*
X169830000Y-105710000D02*
X167670000Y-105710000D01*
X169830000Y-108870000D02*
X168370000Y-108870000D01*
%TO.C,J5*%
X141940000Y-105207000D02*
X140830000Y-105207000D01*
X141940000Y-104447000D02*
X141940000Y-105207000D01*
X140266529Y-103687000D02*
X139720000Y-103687000D01*
X141940000Y-103687000D02*
X141393471Y-103687000D01*
X139720000Y-103687000D02*
X139720000Y-94862000D01*
X141940000Y-103687000D02*
X141940000Y-94862000D01*
X140522470Y-94862000D02*
X139720000Y-94862000D01*
X141940000Y-94862000D02*
X141137530Y-94862000D01*
%TO.C,D2*%
X166200000Y-98030000D02*
X166200000Y-99880000D01*
X165000000Y-98030000D02*
X165000000Y-99880000D01*
X165000000Y-99880000D02*
X166200000Y-99880000D01*
%TO.C,D3*%
X166200000Y-100120000D02*
X165000000Y-100120000D01*
X166200000Y-101970000D02*
X166200000Y-100120000D01*
X165000000Y-101970000D02*
X165000000Y-100120000D01*
%TO.C,D5*%
X174110000Y-106140000D02*
X172910000Y-106140000D01*
X174110000Y-107990000D02*
X174110000Y-106140000D01*
X172910000Y-107990000D02*
X172910000Y-106140000D01*
%TO.C,J4*%
X158170000Y-90470000D02*
X158170000Y-93130000D01*
X170930000Y-90470000D02*
X158170000Y-90470000D01*
X170930000Y-93130000D02*
X158170000Y-93130000D01*
X170930000Y-90470000D02*
X170930000Y-93130000D01*
X172200000Y-90470000D02*
X173530000Y-90470000D01*
X173530000Y-90470000D02*
X173530000Y-91800000D01*
%TO.C,D1*%
X137940000Y-104746000D02*
X139140000Y-104746000D01*
X137940000Y-102896000D02*
X137940000Y-104746000D01*
X139140000Y-102896000D02*
X139140000Y-104746000D01*
%TO.C,D7*%
X136510000Y-104746000D02*
X137710000Y-104746000D01*
X136510000Y-102896000D02*
X136510000Y-104746000D01*
X137710000Y-102896000D02*
X137710000Y-104746000D01*
%TO.C,D8*%
X134840000Y-102896000D02*
X134840000Y-104746000D01*
X133640000Y-102896000D02*
X133640000Y-104746000D01*
X133640000Y-104746000D02*
X134840000Y-104746000D01*
%TO.C,D9*%
X135080000Y-104746000D02*
X136280000Y-104746000D01*
X135080000Y-102896000D02*
X135080000Y-104746000D01*
X136280000Y-102896000D02*
X136280000Y-104746000D01*
%TO.C,D10*%
X133410000Y-102896000D02*
X133410000Y-104746000D01*
X132210000Y-102896000D02*
X132210000Y-104746000D01*
X132210000Y-104746000D02*
X133410000Y-104746000D01*
%TO.C,Q1*%
X149150000Y-98400000D02*
X150850000Y-98400000D01*
X149150000Y-101600000D02*
X151750000Y-101600000D01*
%TO.C,U3*%
X149990000Y-93390000D02*
X148490000Y-93390000D01*
X149990000Y-93390000D02*
X151490000Y-93390000D01*
X149990000Y-96610000D02*
X148490000Y-96610000D01*
X149990000Y-96610000D02*
X152915000Y-96610000D01*
%TO.C,U4*%
X150000000Y-106610000D02*
X152925000Y-106610000D01*
X150000000Y-106610000D02*
X148500000Y-106610000D01*
X150000000Y-103390000D02*
X151500000Y-103390000D01*
X150000000Y-103390000D02*
X148500000Y-103390000D01*
%TO.C,C1*%
X154680000Y-100085580D02*
X154680000Y-99804420D01*
X155700000Y-100085580D02*
X155700000Y-99804420D01*
%TO.C,C2*%
X157314420Y-96260000D02*
X157595580Y-96260000D01*
X157314420Y-95240000D02*
X157595580Y-95240000D01*
%TO.C,C3*%
X162285580Y-96260000D02*
X162004420Y-96260000D01*
X162285580Y-95240000D02*
X162004420Y-95240000D01*
%TO.C,C6*%
X154440000Y-95680580D02*
X154440000Y-95399420D01*
X153420000Y-95680580D02*
X153420000Y-95399420D01*
%TO.C,C7*%
X153450000Y-105790580D02*
X153450000Y-105509420D01*
X154470000Y-105790580D02*
X154470000Y-105509420D01*
%TO.C,C8*%
X145430580Y-95235000D02*
X145149420Y-95235000D01*
X145430580Y-96255000D02*
X145149420Y-96255000D01*
%TO.C,D4*%
X163655000Y-107995000D02*
X161370000Y-107995000D01*
X163655000Y-109465000D02*
X163655000Y-107995000D01*
X161370000Y-109465000D02*
X163655000Y-109465000D01*
%TO.C,D6*%
X161370000Y-107975000D02*
X163655000Y-107975000D01*
X163655000Y-107975000D02*
X163655000Y-106505000D01*
X163655000Y-106505000D02*
X161370000Y-106505000D01*
%TO.C,R1*%
X166072500Y-104277258D02*
X166072500Y-103802742D01*
X165027500Y-104277258D02*
X165027500Y-103802742D01*
%TO.C,R2*%
X166092500Y-95732742D02*
X166092500Y-96207258D01*
X165047500Y-95732742D02*
X165047500Y-96207258D01*
%TO.C,R3*%
X150237258Y-92572500D02*
X149762742Y-92572500D01*
X150237258Y-91527500D02*
X149762742Y-91527500D01*
%TO.C,R4*%
X153332500Y-101252742D02*
X153332500Y-101727258D01*
X152287500Y-101252742D02*
X152287500Y-101727258D01*
%TO.C,R5*%
X153332500Y-98747258D02*
X153332500Y-98272742D01*
X152287500Y-98747258D02*
X152287500Y-98272742D01*
%TO.C,R6*%
X145557258Y-102227500D02*
X145082742Y-102227500D01*
X145557258Y-103272500D02*
X145082742Y-103272500D01*
%TO.C,R7*%
X145557258Y-106707500D02*
X145082742Y-106707500D01*
X145557258Y-107752500D02*
X145082742Y-107752500D01*
%TO.C,R8*%
X162407258Y-104782500D02*
X161932742Y-104782500D01*
X162407258Y-103737500D02*
X161932742Y-103737500D01*
%TO.C,R9*%
X145527258Y-94777500D02*
X145052742Y-94777500D01*
X145527258Y-93732500D02*
X145052742Y-93732500D01*
%TO.C,R10*%
X145052742Y-96702500D02*
X145527258Y-96702500D01*
X145052742Y-97747500D02*
X145527258Y-97747500D01*
%TO.C,R11*%
X145527258Y-98182500D02*
X145052742Y-98182500D01*
X145527258Y-99227500D02*
X145052742Y-99227500D01*
%TO.C,R12*%
X162407258Y-106272500D02*
X161932742Y-106272500D01*
X162407258Y-105227500D02*
X161932742Y-105227500D01*
%TO.C,R14*%
X159422500Y-105887258D02*
X159422500Y-105412742D01*
X158377500Y-105887258D02*
X158377500Y-105412742D01*
%TO.C,R15*%
X145052742Y-92252500D02*
X145527258Y-92252500D01*
X145052742Y-93297500D02*
X145527258Y-93297500D01*
%TO.C,R16*%
X145527258Y-90782500D02*
X145052742Y-90782500D01*
X145527258Y-91827500D02*
X145052742Y-91827500D01*
%TO.C,R17*%
X145557258Y-106262500D02*
X145082742Y-106262500D01*
X145557258Y-105217500D02*
X145082742Y-105217500D01*
%TO.C,R18*%
X145557258Y-103727500D02*
X145082742Y-103727500D01*
X145557258Y-104772500D02*
X145082742Y-104772500D01*
%TO.C,J1*%
D13*
X171340000Y-93719285D02*
X171340000Y-94255000D01*
X171304285Y-94362142D01*
X171232857Y-94433571D01*
X171125714Y-94469285D01*
X171054285Y-94469285D01*
X172090000Y-94469285D02*
X171661428Y-94469285D01*
X171875714Y-94469285D02*
X171875714Y-93719285D01*
X171804285Y-93826428D01*
X171732857Y-93897857D01*
X171661428Y-93933571D01*
%TO.C,Q4*%
X156358571Y-108320714D02*
X156287142Y-108285000D01*
X156215714Y-108213571D01*
X156108571Y-108106428D01*
X156037142Y-108070714D01*
X155965714Y-108070714D01*
X156001428Y-108249285D02*
X155930000Y-108213571D01*
X155858571Y-108142142D01*
X155822857Y-107999285D01*
X155822857Y-107749285D01*
X155858571Y-107606428D01*
X155930000Y-107535000D01*
X156001428Y-107499285D01*
X156144285Y-107499285D01*
X156215714Y-107535000D01*
X156287142Y-107606428D01*
X156322857Y-107749285D01*
X156322857Y-107999285D01*
X156287142Y-108142142D01*
X156215714Y-108213571D01*
X156144285Y-108249285D01*
X156001428Y-108249285D01*
X156965714Y-107749285D02*
X156965714Y-108249285D01*
X156787142Y-107463571D02*
X156608571Y-107999285D01*
X157072857Y-107999285D01*
%TO.C,C4*%
X171675000Y-109777857D02*
X171639285Y-109813571D01*
X171532142Y-109849285D01*
X171460714Y-109849285D01*
X171353571Y-109813571D01*
X171282142Y-109742142D01*
X171246428Y-109670714D01*
X171210714Y-109527857D01*
X171210714Y-109420714D01*
X171246428Y-109277857D01*
X171282142Y-109206428D01*
X171353571Y-109135000D01*
X171460714Y-109099285D01*
X171532142Y-109099285D01*
X171639285Y-109135000D01*
X171675000Y-109170714D01*
X172317857Y-109349285D02*
X172317857Y-109849285D01*
X172139285Y-109063571D02*
X171960714Y-109599285D01*
X172425000Y-109599285D01*
%TO.C,C5*%
X166225000Y-109737857D02*
X166189285Y-109773571D01*
X166082142Y-109809285D01*
X166010714Y-109809285D01*
X165903571Y-109773571D01*
X165832142Y-109702142D01*
X165796428Y-109630714D01*
X165760714Y-109487857D01*
X165760714Y-109380714D01*
X165796428Y-109237857D01*
X165832142Y-109166428D01*
X165903571Y-109095000D01*
X166010714Y-109059285D01*
X166082142Y-109059285D01*
X166189285Y-109095000D01*
X166225000Y-109130714D01*
X166903571Y-109059285D02*
X166546428Y-109059285D01*
X166510714Y-109416428D01*
X166546428Y-109380714D01*
X166617857Y-109345000D01*
X166796428Y-109345000D01*
X166867857Y-109380714D01*
X166903571Y-109416428D01*
X166939285Y-109487857D01*
X166939285Y-109666428D01*
X166903571Y-109737857D01*
X166867857Y-109773571D01*
X166796428Y-109809285D01*
X166617857Y-109809285D01*
X166546428Y-109773571D01*
X166510714Y-109737857D01*
%TO.C,U1*%
X159228571Y-95589285D02*
X159228571Y-96196428D01*
X159264285Y-96267857D01*
X159300000Y-96303571D01*
X159371428Y-96339285D01*
X159514285Y-96339285D01*
X159585714Y-96303571D01*
X159621428Y-96267857D01*
X159657142Y-96196428D01*
X159657142Y-95589285D01*
X160407142Y-96339285D02*
X159978571Y-96339285D01*
X160192857Y-96339285D02*
X160192857Y-95589285D01*
X160121428Y-95696428D01*
X160050000Y-95767857D01*
X159978571Y-95803571D01*
%TO.C,U2*%
X168478571Y-109089285D02*
X168478571Y-109696428D01*
X168514285Y-109767857D01*
X168550000Y-109803571D01*
X168621428Y-109839285D01*
X168764285Y-109839285D01*
X168835714Y-109803571D01*
X168871428Y-109767857D01*
X168907142Y-109696428D01*
X168907142Y-109089285D01*
X169228571Y-109160714D02*
X169264285Y-109125000D01*
X169335714Y-109089285D01*
X169514285Y-109089285D01*
X169585714Y-109125000D01*
X169621428Y-109160714D01*
X169657142Y-109232142D01*
X169657142Y-109303571D01*
X169621428Y-109410714D01*
X169192857Y-109839285D01*
X169657142Y-109839285D01*
%TO.C,J5*%
X140576666Y-93322380D02*
X140576666Y-94036666D01*
X140529047Y-94179523D01*
X140433809Y-94274761D01*
X140290952Y-94322380D01*
X140195714Y-94322380D01*
X141529047Y-93322380D02*
X141052857Y-93322380D01*
X141005238Y-93798571D01*
X141052857Y-93750952D01*
X141148095Y-93703333D01*
X141386190Y-93703333D01*
X141481428Y-93750952D01*
X141529047Y-93798571D01*
X141576666Y-93893809D01*
X141576666Y-94131904D01*
X141529047Y-94227142D01*
X141481428Y-94274761D01*
X141386190Y-94322380D01*
X141148095Y-94322380D01*
X141052857Y-94274761D01*
X141005238Y-94227142D01*
%TO.C,D2*%
X164749285Y-99283571D02*
X163999285Y-99283571D01*
X163999285Y-99105000D01*
X164035000Y-98997857D01*
X164106428Y-98926428D01*
X164177857Y-98890714D01*
X164320714Y-98855000D01*
X164427857Y-98855000D01*
X164570714Y-98890714D01*
X164642142Y-98926428D01*
X164713571Y-98997857D01*
X164749285Y-99105000D01*
X164749285Y-99283571D01*
X164070714Y-98569285D02*
X164035000Y-98533571D01*
X163999285Y-98462142D01*
X163999285Y-98283571D01*
X164035000Y-98212142D01*
X164070714Y-98176428D01*
X164142142Y-98140714D01*
X164213571Y-98140714D01*
X164320714Y-98176428D01*
X164749285Y-98605000D01*
X164749285Y-98140714D01*
%TO.C,D3*%
X164749285Y-101823571D02*
X163999285Y-101823571D01*
X163999285Y-101645000D01*
X164035000Y-101537857D01*
X164106428Y-101466428D01*
X164177857Y-101430714D01*
X164320714Y-101395000D01*
X164427857Y-101395000D01*
X164570714Y-101430714D01*
X164642142Y-101466428D01*
X164713571Y-101537857D01*
X164749285Y-101645000D01*
X164749285Y-101823571D01*
X163999285Y-101145000D02*
X163999285Y-100680714D01*
X164285000Y-100930714D01*
X164285000Y-100823571D01*
X164320714Y-100752142D01*
X164356428Y-100716428D01*
X164427857Y-100680714D01*
X164606428Y-100680714D01*
X164677857Y-100716428D01*
X164713571Y-100752142D01*
X164749285Y-100823571D01*
X164749285Y-101037857D01*
X164713571Y-101109285D01*
X164677857Y-101145000D01*
%TO.C,D5*%
X172946428Y-109409285D02*
X172946428Y-108659285D01*
X173125000Y-108659285D01*
X173232142Y-108695000D01*
X173303571Y-108766428D01*
X173339285Y-108837857D01*
X173375000Y-108980714D01*
X173375000Y-109087857D01*
X173339285Y-109230714D01*
X173303571Y-109302142D01*
X173232142Y-109373571D01*
X173125000Y-109409285D01*
X172946428Y-109409285D01*
X174053571Y-108659285D02*
X173696428Y-108659285D01*
X173660714Y-109016428D01*
X173696428Y-108980714D01*
X173767857Y-108945000D01*
X173946428Y-108945000D01*
X174017857Y-108980714D01*
X174053571Y-109016428D01*
X174089285Y-109087857D01*
X174089285Y-109266428D01*
X174053571Y-109337857D01*
X174017857Y-109373571D01*
X173946428Y-109409285D01*
X173767857Y-109409285D01*
X173696428Y-109373571D01*
X173660714Y-109337857D01*
%TO.C,J4*%
X156669285Y-92070000D02*
X157205000Y-92070000D01*
X157312142Y-92105714D01*
X157383571Y-92177142D01*
X157419285Y-92284285D01*
X157419285Y-92355714D01*
X156919285Y-91391428D02*
X157419285Y-91391428D01*
X156633571Y-91570000D02*
X157169285Y-91748571D01*
X157169285Y-91284285D01*
%TO.C,D1*%
X138839285Y-106853571D02*
X138089285Y-106853571D01*
X138089285Y-106675000D01*
X138125000Y-106567857D01*
X138196428Y-106496428D01*
X138267857Y-106460714D01*
X138410714Y-106425000D01*
X138517857Y-106425000D01*
X138660714Y-106460714D01*
X138732142Y-106496428D01*
X138803571Y-106567857D01*
X138839285Y-106675000D01*
X138839285Y-106853571D01*
X138839285Y-105710714D02*
X138839285Y-106139285D01*
X138839285Y-105925000D02*
X138089285Y-105925000D01*
X138196428Y-105996428D01*
X138267857Y-106067857D01*
X138303571Y-106139285D01*
%TO.C,D7*%
X137359285Y-106853571D02*
X136609285Y-106853571D01*
X136609285Y-106675000D01*
X136645000Y-106567857D01*
X136716428Y-106496428D01*
X136787857Y-106460714D01*
X136930714Y-106425000D01*
X137037857Y-106425000D01*
X137180714Y-106460714D01*
X137252142Y-106496428D01*
X137323571Y-106567857D01*
X137359285Y-106675000D01*
X137359285Y-106853571D01*
X136609285Y-106175000D02*
X136609285Y-105675000D01*
X137359285Y-105996428D01*
%TO.C,D8*%
X134589285Y-106853571D02*
X133839285Y-106853571D01*
X133839285Y-106675000D01*
X133875000Y-106567857D01*
X133946428Y-106496428D01*
X134017857Y-106460714D01*
X134160714Y-106425000D01*
X134267857Y-106425000D01*
X134410714Y-106460714D01*
X134482142Y-106496428D01*
X134553571Y-106567857D01*
X134589285Y-106675000D01*
X134589285Y-106853571D01*
X134160714Y-105996428D02*
X134125000Y-106067857D01*
X134089285Y-106103571D01*
X134017857Y-106139285D01*
X133982142Y-106139285D01*
X133910714Y-106103571D01*
X133875000Y-106067857D01*
X133839285Y-105996428D01*
X133839285Y-105853571D01*
X133875000Y-105782142D01*
X133910714Y-105746428D01*
X133982142Y-105710714D01*
X134017857Y-105710714D01*
X134089285Y-105746428D01*
X134125000Y-105782142D01*
X134160714Y-105853571D01*
X134160714Y-105996428D01*
X134196428Y-106067857D01*
X134232142Y-106103571D01*
X134303571Y-106139285D01*
X134446428Y-106139285D01*
X134517857Y-106103571D01*
X134553571Y-106067857D01*
X134589285Y-105996428D01*
X134589285Y-105853571D01*
X134553571Y-105782142D01*
X134517857Y-105746428D01*
X134446428Y-105710714D01*
X134303571Y-105710714D01*
X134232142Y-105746428D01*
X134196428Y-105782142D01*
X134160714Y-105853571D01*
%TO.C,D9*%
X136019285Y-106853571D02*
X135269285Y-106853571D01*
X135269285Y-106675000D01*
X135305000Y-106567857D01*
X135376428Y-106496428D01*
X135447857Y-106460714D01*
X135590714Y-106425000D01*
X135697857Y-106425000D01*
X135840714Y-106460714D01*
X135912142Y-106496428D01*
X135983571Y-106567857D01*
X136019285Y-106675000D01*
X136019285Y-106853571D01*
X136019285Y-106067857D02*
X136019285Y-105925000D01*
X135983571Y-105853571D01*
X135947857Y-105817857D01*
X135840714Y-105746428D01*
X135697857Y-105710714D01*
X135412142Y-105710714D01*
X135340714Y-105746428D01*
X135305000Y-105782142D01*
X135269285Y-105853571D01*
X135269285Y-105996428D01*
X135305000Y-106067857D01*
X135340714Y-106103571D01*
X135412142Y-106139285D01*
X135590714Y-106139285D01*
X135662142Y-106103571D01*
X135697857Y-106067857D01*
X135733571Y-105996428D01*
X135733571Y-105853571D01*
X135697857Y-105782142D01*
X135662142Y-105746428D01*
X135590714Y-105710714D01*
%TO.C,D10*%
X133149285Y-106860714D02*
X132399285Y-106860714D01*
X132399285Y-106682142D01*
X132435000Y-106575000D01*
X132506428Y-106503571D01*
X132577857Y-106467857D01*
X132720714Y-106432142D01*
X132827857Y-106432142D01*
X132970714Y-106467857D01*
X133042142Y-106503571D01*
X133113571Y-106575000D01*
X133149285Y-106682142D01*
X133149285Y-106860714D01*
X133149285Y-105717857D02*
X133149285Y-106146428D01*
X133149285Y-105932142D02*
X132399285Y-105932142D01*
X132506428Y-106003571D01*
X132577857Y-106075000D01*
X132613571Y-106146428D01*
X132399285Y-105253571D02*
X132399285Y-105182142D01*
X132435000Y-105110714D01*
X132470714Y-105075000D01*
X132542142Y-105039285D01*
X132685000Y-105003571D01*
X132863571Y-105003571D01*
X133006428Y-105039285D01*
X133077857Y-105075000D01*
X133113571Y-105110714D01*
X133149285Y-105182142D01*
X133149285Y-105253571D01*
X133113571Y-105325000D01*
X133077857Y-105360714D01*
X133006428Y-105396428D01*
X132863571Y-105432142D01*
X132685000Y-105432142D01*
X132542142Y-105396428D01*
X132470714Y-105360714D01*
X132435000Y-105325000D01*
X132399285Y-105253571D01*
%TO.C,Q1*%
X149908571Y-102810714D02*
X149837142Y-102775000D01*
X149765714Y-102703571D01*
X149658571Y-102596428D01*
X149587142Y-102560714D01*
X149515714Y-102560714D01*
X149551428Y-102739285D02*
X149480000Y-102703571D01*
X149408571Y-102632142D01*
X149372857Y-102489285D01*
X149372857Y-102239285D01*
X149408571Y-102096428D01*
X149480000Y-102025000D01*
X149551428Y-101989285D01*
X149694285Y-101989285D01*
X149765714Y-102025000D01*
X149837142Y-102096428D01*
X149872857Y-102239285D01*
X149872857Y-102489285D01*
X149837142Y-102632142D01*
X149765714Y-102703571D01*
X149694285Y-102739285D01*
X149551428Y-102739285D01*
X150587142Y-102739285D02*
X150158571Y-102739285D01*
X150372857Y-102739285D02*
X150372857Y-101989285D01*
X150301428Y-102096428D01*
X150230000Y-102167857D01*
X150158571Y-102203571D01*
%TO.C,U3*%
X149418571Y-97039285D02*
X149418571Y-97646428D01*
X149454285Y-97717857D01*
X149490000Y-97753571D01*
X149561428Y-97789285D01*
X149704285Y-97789285D01*
X149775714Y-97753571D01*
X149811428Y-97717857D01*
X149847142Y-97646428D01*
X149847142Y-97039285D01*
X150132857Y-97039285D02*
X150597142Y-97039285D01*
X150347142Y-97325000D01*
X150454285Y-97325000D01*
X150525714Y-97360714D01*
X150561428Y-97396428D01*
X150597142Y-97467857D01*
X150597142Y-97646428D01*
X150561428Y-97717857D01*
X150525714Y-97753571D01*
X150454285Y-97789285D01*
X150240000Y-97789285D01*
X150168571Y-97753571D01*
X150132857Y-97717857D01*
%TO.C,U4*%
X149428571Y-107039285D02*
X149428571Y-107646428D01*
X149464285Y-107717857D01*
X149500000Y-107753571D01*
X149571428Y-107789285D01*
X149714285Y-107789285D01*
X149785714Y-107753571D01*
X149821428Y-107717857D01*
X149857142Y-107646428D01*
X149857142Y-107039285D01*
X150535714Y-107289285D02*
X150535714Y-107789285D01*
X150357142Y-107003571D02*
X150178571Y-107539285D01*
X150642857Y-107539285D01*
%TO.C,C1*%
X155065000Y-102217857D02*
X155029285Y-102253571D01*
X154922142Y-102289285D01*
X154850714Y-102289285D01*
X154743571Y-102253571D01*
X154672142Y-102182142D01*
X154636428Y-102110714D01*
X154600714Y-101967857D01*
X154600714Y-101860714D01*
X154636428Y-101717857D01*
X154672142Y-101646428D01*
X154743571Y-101575000D01*
X154850714Y-101539285D01*
X154922142Y-101539285D01*
X155029285Y-101575000D01*
X155065000Y-101610714D01*
X155779285Y-102289285D02*
X155350714Y-102289285D01*
X155565000Y-102289285D02*
X155565000Y-101539285D01*
X155493571Y-101646428D01*
X155422142Y-101717857D01*
X155350714Y-101753571D01*
%TO.C,C2*%
X157345000Y-94677857D02*
X157309285Y-94713571D01*
X157202142Y-94749285D01*
X157130714Y-94749285D01*
X157023571Y-94713571D01*
X156952142Y-94642142D01*
X156916428Y-94570714D01*
X156880714Y-94427857D01*
X156880714Y-94320714D01*
X156916428Y-94177857D01*
X156952142Y-94106428D01*
X157023571Y-94035000D01*
X157130714Y-93999285D01*
X157202142Y-93999285D01*
X157309285Y-94035000D01*
X157345000Y-94070714D01*
X157630714Y-94070714D02*
X157666428Y-94035000D01*
X157737857Y-93999285D01*
X157916428Y-93999285D01*
X157987857Y-94035000D01*
X158023571Y-94070714D01*
X158059285Y-94142142D01*
X158059285Y-94213571D01*
X158023571Y-94320714D01*
X157595000Y-94749285D01*
X158059285Y-94749285D01*
%TO.C,C3*%
X162025000Y-94697857D02*
X161989285Y-94733571D01*
X161882142Y-94769285D01*
X161810714Y-94769285D01*
X161703571Y-94733571D01*
X161632142Y-94662142D01*
X161596428Y-94590714D01*
X161560714Y-94447857D01*
X161560714Y-94340714D01*
X161596428Y-94197857D01*
X161632142Y-94126428D01*
X161703571Y-94055000D01*
X161810714Y-94019285D01*
X161882142Y-94019285D01*
X161989285Y-94055000D01*
X162025000Y-94090714D01*
X162275000Y-94019285D02*
X162739285Y-94019285D01*
X162489285Y-94305000D01*
X162596428Y-94305000D01*
X162667857Y-94340714D01*
X162703571Y-94376428D01*
X162739285Y-94447857D01*
X162739285Y-94626428D01*
X162703571Y-94697857D01*
X162667857Y-94733571D01*
X162596428Y-94769285D01*
X162382142Y-94769285D01*
X162310714Y-94733571D01*
X162275000Y-94697857D01*
%TO.C,C6*%
X153795000Y-93857857D02*
X153759285Y-93893571D01*
X153652142Y-93929285D01*
X153580714Y-93929285D01*
X153473571Y-93893571D01*
X153402142Y-93822142D01*
X153366428Y-93750714D01*
X153330714Y-93607857D01*
X153330714Y-93500714D01*
X153366428Y-93357857D01*
X153402142Y-93286428D01*
X153473571Y-93215000D01*
X153580714Y-93179285D01*
X153652142Y-93179285D01*
X153759285Y-93215000D01*
X153795000Y-93250714D01*
X154437857Y-93179285D02*
X154295000Y-93179285D01*
X154223571Y-93215000D01*
X154187857Y-93250714D01*
X154116428Y-93357857D01*
X154080714Y-93500714D01*
X154080714Y-93786428D01*
X154116428Y-93857857D01*
X154152142Y-93893571D01*
X154223571Y-93929285D01*
X154366428Y-93929285D01*
X154437857Y-93893571D01*
X154473571Y-93857857D01*
X154509285Y-93786428D01*
X154509285Y-93607857D01*
X154473571Y-93536428D01*
X154437857Y-93500714D01*
X154366428Y-93465000D01*
X154223571Y-93465000D01*
X154152142Y-93500714D01*
X154116428Y-93536428D01*
X154080714Y-93607857D01*
%TO.C,C7*%
X153765000Y-108177857D02*
X153729285Y-108213571D01*
X153622142Y-108249285D01*
X153550714Y-108249285D01*
X153443571Y-108213571D01*
X153372142Y-108142142D01*
X153336428Y-108070714D01*
X153300714Y-107927857D01*
X153300714Y-107820714D01*
X153336428Y-107677857D01*
X153372142Y-107606428D01*
X153443571Y-107535000D01*
X153550714Y-107499285D01*
X153622142Y-107499285D01*
X153729285Y-107535000D01*
X153765000Y-107570714D01*
X154015000Y-107499285D02*
X154515000Y-107499285D01*
X154193571Y-108249285D01*
%TO.C,C8*%
X143557857Y-95865000D02*
X143593571Y-95900714D01*
X143629285Y-96007857D01*
X143629285Y-96079285D01*
X143593571Y-96186428D01*
X143522142Y-96257857D01*
X143450714Y-96293571D01*
X143307857Y-96329285D01*
X143200714Y-96329285D01*
X143057857Y-96293571D01*
X142986428Y-96257857D01*
X142915000Y-96186428D01*
X142879285Y-96079285D01*
X142879285Y-96007857D01*
X142915000Y-95900714D01*
X142950714Y-95865000D01*
X143200714Y-95436428D02*
X143165000Y-95507857D01*
X143129285Y-95543571D01*
X143057857Y-95579285D01*
X143022142Y-95579285D01*
X142950714Y-95543571D01*
X142915000Y-95507857D01*
X142879285Y-95436428D01*
X142879285Y-95293571D01*
X142915000Y-95222142D01*
X142950714Y-95186428D01*
X143022142Y-95150714D01*
X143057857Y-95150714D01*
X143129285Y-95186428D01*
X143165000Y-95222142D01*
X143200714Y-95293571D01*
X143200714Y-95436428D01*
X143236428Y-95507857D01*
X143272142Y-95543571D01*
X143343571Y-95579285D01*
X143486428Y-95579285D01*
X143557857Y-95543571D01*
X143593571Y-95507857D01*
X143629285Y-95436428D01*
X143629285Y-95293571D01*
X143593571Y-95222142D01*
X143557857Y-95186428D01*
X143486428Y-95150714D01*
X143343571Y-95150714D01*
X143272142Y-95186428D01*
X143236428Y-95222142D01*
X143200714Y-95293571D01*
%TO.C,D4*%
X164649285Y-109283571D02*
X163899285Y-109283571D01*
X163899285Y-109105000D01*
X163935000Y-108997857D01*
X164006428Y-108926428D01*
X164077857Y-108890714D01*
X164220714Y-108855000D01*
X164327857Y-108855000D01*
X164470714Y-108890714D01*
X164542142Y-108926428D01*
X164613571Y-108997857D01*
X164649285Y-109105000D01*
X164649285Y-109283571D01*
X164149285Y-108212142D02*
X164649285Y-108212142D01*
X163863571Y-108390714D02*
X164399285Y-108569285D01*
X164399285Y-108105000D01*
%TO.C,D6*%
X164639285Y-107793571D02*
X163889285Y-107793571D01*
X163889285Y-107615000D01*
X163925000Y-107507857D01*
X163996428Y-107436428D01*
X164067857Y-107400714D01*
X164210714Y-107365000D01*
X164317857Y-107365000D01*
X164460714Y-107400714D01*
X164532142Y-107436428D01*
X164603571Y-107507857D01*
X164639285Y-107615000D01*
X164639285Y-107793571D01*
X163889285Y-106722142D02*
X163889285Y-106865000D01*
X163925000Y-106936428D01*
X163960714Y-106972142D01*
X164067857Y-107043571D01*
X164210714Y-107079285D01*
X164496428Y-107079285D01*
X164567857Y-107043571D01*
X164603571Y-107007857D01*
X164639285Y-106936428D01*
X164639285Y-106793571D01*
X164603571Y-106722142D01*
X164567857Y-106686428D01*
X164496428Y-106650714D01*
X164317857Y-106650714D01*
X164246428Y-106686428D01*
X164210714Y-106722142D01*
X164175000Y-106793571D01*
X164175000Y-106936428D01*
X164210714Y-107007857D01*
X164246428Y-107043571D01*
X164317857Y-107079285D01*
%TO.C,R1*%
X164619285Y-104165000D02*
X164262142Y-104415000D01*
X164619285Y-104593571D02*
X163869285Y-104593571D01*
X163869285Y-104307857D01*
X163905000Y-104236428D01*
X163940714Y-104200714D01*
X164012142Y-104165000D01*
X164119285Y-104165000D01*
X164190714Y-104200714D01*
X164226428Y-104236428D01*
X164262142Y-104307857D01*
X164262142Y-104593571D01*
X164619285Y-103450714D02*
X164619285Y-103879285D01*
X164619285Y-103665000D02*
X163869285Y-103665000D01*
X163976428Y-103736428D01*
X164047857Y-103807857D01*
X164083571Y-103879285D01*
%TO.C,R2*%
X164619285Y-96105000D02*
X164262142Y-96355000D01*
X164619285Y-96533571D02*
X163869285Y-96533571D01*
X163869285Y-96247857D01*
X163905000Y-96176428D01*
X163940714Y-96140714D01*
X164012142Y-96105000D01*
X164119285Y-96105000D01*
X164190714Y-96140714D01*
X164226428Y-96176428D01*
X164262142Y-96247857D01*
X164262142Y-96533571D01*
X163940714Y-95819285D02*
X163905000Y-95783571D01*
X163869285Y-95712142D01*
X163869285Y-95533571D01*
X163905000Y-95462142D01*
X163940714Y-95426428D01*
X164012142Y-95390714D01*
X164083571Y-95390714D01*
X164190714Y-95426428D01*
X164619285Y-95855000D01*
X164619285Y-95390714D01*
%TO.C,R3*%
X149875000Y-91179285D02*
X149625000Y-90822142D01*
X149446428Y-91179285D02*
X149446428Y-90429285D01*
X149732142Y-90429285D01*
X149803571Y-90465000D01*
X149839285Y-90500714D01*
X149875000Y-90572142D01*
X149875000Y-90679285D01*
X149839285Y-90750714D01*
X149803571Y-90786428D01*
X149732142Y-90822142D01*
X149446428Y-90822142D01*
X150125000Y-90429285D02*
X150589285Y-90429285D01*
X150339285Y-90715000D01*
X150446428Y-90715000D01*
X150517857Y-90750714D01*
X150553571Y-90786428D01*
X150589285Y-90857857D01*
X150589285Y-91036428D01*
X150553571Y-91107857D01*
X150517857Y-91143571D01*
X150446428Y-91179285D01*
X150232142Y-91179285D01*
X150160714Y-91143571D01*
X150125000Y-91107857D01*
%TO.C,R4*%
X151939285Y-102565000D02*
X151582142Y-102815000D01*
X151939285Y-102993571D02*
X151189285Y-102993571D01*
X151189285Y-102707857D01*
X151225000Y-102636428D01*
X151260714Y-102600714D01*
X151332142Y-102565000D01*
X151439285Y-102565000D01*
X151510714Y-102600714D01*
X151546428Y-102636428D01*
X151582142Y-102707857D01*
X151582142Y-102993571D01*
X151439285Y-101922142D02*
X151939285Y-101922142D01*
X151153571Y-102100714D02*
X151689285Y-102279285D01*
X151689285Y-101815000D01*
%TO.C,R5*%
X151939285Y-97715000D02*
X151582142Y-97965000D01*
X151939285Y-98143571D02*
X151189285Y-98143571D01*
X151189285Y-97857857D01*
X151225000Y-97786428D01*
X151260714Y-97750714D01*
X151332142Y-97715000D01*
X151439285Y-97715000D01*
X151510714Y-97750714D01*
X151546428Y-97786428D01*
X151582142Y-97857857D01*
X151582142Y-98143571D01*
X151189285Y-97036428D02*
X151189285Y-97393571D01*
X151546428Y-97429285D01*
X151510714Y-97393571D01*
X151475000Y-97322142D01*
X151475000Y-97143571D01*
X151510714Y-97072142D01*
X151546428Y-97036428D01*
X151617857Y-97000714D01*
X151796428Y-97000714D01*
X151867857Y-97036428D01*
X151903571Y-97072142D01*
X151939285Y-97143571D01*
X151939285Y-97322142D01*
X151903571Y-97393571D01*
X151867857Y-97429285D01*
%TO.C,R6*%
X145175000Y-101889285D02*
X144925000Y-101532142D01*
X144746428Y-101889285D02*
X144746428Y-101139285D01*
X145032142Y-101139285D01*
X145103571Y-101175000D01*
X145139285Y-101210714D01*
X145175000Y-101282142D01*
X145175000Y-101389285D01*
X145139285Y-101460714D01*
X145103571Y-101496428D01*
X145032142Y-101532142D01*
X144746428Y-101532142D01*
X145817857Y-101139285D02*
X145675000Y-101139285D01*
X145603571Y-101175000D01*
X145567857Y-101210714D01*
X145496428Y-101317857D01*
X145460714Y-101460714D01*
X145460714Y-101746428D01*
X145496428Y-101817857D01*
X145532142Y-101853571D01*
X145603571Y-101889285D01*
X145746428Y-101889285D01*
X145817857Y-101853571D01*
X145853571Y-101817857D01*
X145889285Y-101746428D01*
X145889285Y-101567857D01*
X145853571Y-101496428D01*
X145817857Y-101460714D01*
X145746428Y-101425000D01*
X145603571Y-101425000D01*
X145532142Y-101460714D01*
X145496428Y-101496428D01*
X145460714Y-101567857D01*
%TO.C,R7*%
X145195000Y-108999285D02*
X144945000Y-108642142D01*
X144766428Y-108999285D02*
X144766428Y-108249285D01*
X145052142Y-108249285D01*
X145123571Y-108285000D01*
X145159285Y-108320714D01*
X145195000Y-108392142D01*
X145195000Y-108499285D01*
X145159285Y-108570714D01*
X145123571Y-108606428D01*
X145052142Y-108642142D01*
X144766428Y-108642142D01*
X145445000Y-108249285D02*
X145945000Y-108249285D01*
X145623571Y-108999285D01*
%TO.C,R8*%
X160549285Y-104385000D02*
X160192142Y-104635000D01*
X160549285Y-104813571D02*
X159799285Y-104813571D01*
X159799285Y-104527857D01*
X159835000Y-104456428D01*
X159870714Y-104420714D01*
X159942142Y-104385000D01*
X160049285Y-104385000D01*
X160120714Y-104420714D01*
X160156428Y-104456428D01*
X160192142Y-104527857D01*
X160192142Y-104813571D01*
X160120714Y-103956428D02*
X160085000Y-104027857D01*
X160049285Y-104063571D01*
X159977857Y-104099285D01*
X159942142Y-104099285D01*
X159870714Y-104063571D01*
X159835000Y-104027857D01*
X159799285Y-103956428D01*
X159799285Y-103813571D01*
X159835000Y-103742142D01*
X159870714Y-103706428D01*
X159942142Y-103670714D01*
X159977857Y-103670714D01*
X160049285Y-103706428D01*
X160085000Y-103742142D01*
X160120714Y-103813571D01*
X160120714Y-103956428D01*
X160156428Y-104027857D01*
X160192142Y-104063571D01*
X160263571Y-104099285D01*
X160406428Y-104099285D01*
X160477857Y-104063571D01*
X160513571Y-104027857D01*
X160549285Y-103956428D01*
X160549285Y-103813571D01*
X160513571Y-103742142D01*
X160477857Y-103706428D01*
X160406428Y-103670714D01*
X160263571Y-103670714D01*
X160192142Y-103706428D01*
X160156428Y-103742142D01*
X160120714Y-103813571D01*
%TO.C,R9*%
X143619285Y-94375000D02*
X143262142Y-94625000D01*
X143619285Y-94803571D02*
X142869285Y-94803571D01*
X142869285Y-94517857D01*
X142905000Y-94446428D01*
X142940714Y-94410714D01*
X143012142Y-94375000D01*
X143119285Y-94375000D01*
X143190714Y-94410714D01*
X143226428Y-94446428D01*
X143262142Y-94517857D01*
X143262142Y-94803571D01*
X143619285Y-94017857D02*
X143619285Y-93875000D01*
X143583571Y-93803571D01*
X143547857Y-93767857D01*
X143440714Y-93696428D01*
X143297857Y-93660714D01*
X143012142Y-93660714D01*
X142940714Y-93696428D01*
X142905000Y-93732142D01*
X142869285Y-93803571D01*
X142869285Y-93946428D01*
X142905000Y-94017857D01*
X142940714Y-94053571D01*
X143012142Y-94089285D01*
X143190714Y-94089285D01*
X143262142Y-94053571D01*
X143297857Y-94017857D01*
X143333571Y-93946428D01*
X143333571Y-93803571D01*
X143297857Y-93732142D01*
X143262142Y-93696428D01*
X143190714Y-93660714D01*
%TO.C,R10*%
X143609285Y-98162142D02*
X143252142Y-98412142D01*
X143609285Y-98590714D02*
X142859285Y-98590714D01*
X142859285Y-98305000D01*
X142895000Y-98233571D01*
X142930714Y-98197857D01*
X143002142Y-98162142D01*
X143109285Y-98162142D01*
X143180714Y-98197857D01*
X143216428Y-98233571D01*
X143252142Y-98305000D01*
X143252142Y-98590714D01*
X143609285Y-97447857D02*
X143609285Y-97876428D01*
X143609285Y-97662142D02*
X142859285Y-97662142D01*
X142966428Y-97733571D01*
X143037857Y-97805000D01*
X143073571Y-97876428D01*
X142859285Y-96983571D02*
X142859285Y-96912142D01*
X142895000Y-96840714D01*
X142930714Y-96805000D01*
X143002142Y-96769285D01*
X143145000Y-96733571D01*
X143323571Y-96733571D01*
X143466428Y-96769285D01*
X143537857Y-96805000D01*
X143573571Y-96840714D01*
X143609285Y-96912142D01*
X143609285Y-96983571D01*
X143573571Y-97055000D01*
X143537857Y-97090714D01*
X143466428Y-97126428D01*
X143323571Y-97162142D01*
X143145000Y-97162142D01*
X143002142Y-97126428D01*
X142930714Y-97090714D01*
X142895000Y-97055000D01*
X142859285Y-96983571D01*
%TO.C,R11*%
X147639285Y-99162142D02*
X147282142Y-99412142D01*
X147639285Y-99590714D02*
X146889285Y-99590714D01*
X146889285Y-99305000D01*
X146925000Y-99233571D01*
X146960714Y-99197857D01*
X147032142Y-99162142D01*
X147139285Y-99162142D01*
X147210714Y-99197857D01*
X147246428Y-99233571D01*
X147282142Y-99305000D01*
X147282142Y-99590714D01*
X147639285Y-98447857D02*
X147639285Y-98876428D01*
X147639285Y-98662142D02*
X146889285Y-98662142D01*
X146996428Y-98733571D01*
X147067857Y-98805000D01*
X147103571Y-98876428D01*
X147639285Y-97733571D02*
X147639285Y-98162142D01*
X147639285Y-97947857D02*
X146889285Y-97947857D01*
X146996428Y-98019285D01*
X147067857Y-98090714D01*
X147103571Y-98162142D01*
%TO.C,R12*%
X160549285Y-106772142D02*
X160192142Y-107022142D01*
X160549285Y-107200714D02*
X159799285Y-107200714D01*
X159799285Y-106915000D01*
X159835000Y-106843571D01*
X159870714Y-106807857D01*
X159942142Y-106772142D01*
X160049285Y-106772142D01*
X160120714Y-106807857D01*
X160156428Y-106843571D01*
X160192142Y-106915000D01*
X160192142Y-107200714D01*
X160549285Y-106057857D02*
X160549285Y-106486428D01*
X160549285Y-106272142D02*
X159799285Y-106272142D01*
X159906428Y-106343571D01*
X159977857Y-106415000D01*
X160013571Y-106486428D01*
X159870714Y-105772142D02*
X159835000Y-105736428D01*
X159799285Y-105665000D01*
X159799285Y-105486428D01*
X159835000Y-105415000D01*
X159870714Y-105379285D01*
X159942142Y-105343571D01*
X160013571Y-105343571D01*
X160120714Y-105379285D01*
X160549285Y-105807857D01*
X160549285Y-105343571D01*
%TO.C,R14*%
X158417857Y-108389285D02*
X158167857Y-108032142D01*
X157989285Y-108389285D02*
X157989285Y-107639285D01*
X158275000Y-107639285D01*
X158346428Y-107675000D01*
X158382142Y-107710714D01*
X158417857Y-107782142D01*
X158417857Y-107889285D01*
X158382142Y-107960714D01*
X158346428Y-107996428D01*
X158275000Y-108032142D01*
X157989285Y-108032142D01*
X159132142Y-108389285D02*
X158703571Y-108389285D01*
X158917857Y-108389285D02*
X158917857Y-107639285D01*
X158846428Y-107746428D01*
X158775000Y-107817857D01*
X158703571Y-107853571D01*
X159775000Y-107889285D02*
X159775000Y-108389285D01*
X159596428Y-107603571D02*
X159417857Y-108139285D01*
X159882142Y-108139285D01*
%TO.C,R15*%
X143569285Y-92402142D02*
X143212142Y-92652142D01*
X143569285Y-92830714D02*
X142819285Y-92830714D01*
X142819285Y-92545000D01*
X142855000Y-92473571D01*
X142890714Y-92437857D01*
X142962142Y-92402142D01*
X143069285Y-92402142D01*
X143140714Y-92437857D01*
X143176428Y-92473571D01*
X143212142Y-92545000D01*
X143212142Y-92830714D01*
X143569285Y-91687857D02*
X143569285Y-92116428D01*
X143569285Y-91902142D02*
X142819285Y-91902142D01*
X142926428Y-91973571D01*
X142997857Y-92045000D01*
X143033571Y-92116428D01*
X142819285Y-91009285D02*
X142819285Y-91366428D01*
X143176428Y-91402142D01*
X143140714Y-91366428D01*
X143105000Y-91295000D01*
X143105000Y-91116428D01*
X143140714Y-91045000D01*
X143176428Y-91009285D01*
X143247857Y-90973571D01*
X143426428Y-90973571D01*
X143497857Y-91009285D01*
X143533571Y-91045000D01*
X143569285Y-91116428D01*
X143569285Y-91295000D01*
X143533571Y-91366428D01*
X143497857Y-91402142D01*
%TO.C,R16*%
X147629285Y-91782142D02*
X147272142Y-92032142D01*
X147629285Y-92210714D02*
X146879285Y-92210714D01*
X146879285Y-91925000D01*
X146915000Y-91853571D01*
X146950714Y-91817857D01*
X147022142Y-91782142D01*
X147129285Y-91782142D01*
X147200714Y-91817857D01*
X147236428Y-91853571D01*
X147272142Y-91925000D01*
X147272142Y-92210714D01*
X147629285Y-91067857D02*
X147629285Y-91496428D01*
X147629285Y-91282142D02*
X146879285Y-91282142D01*
X146986428Y-91353571D01*
X147057857Y-91425000D01*
X147093571Y-91496428D01*
X146879285Y-90425000D02*
X146879285Y-90567857D01*
X146915000Y-90639285D01*
X146950714Y-90675000D01*
X147057857Y-90746428D01*
X147200714Y-90782142D01*
X147486428Y-90782142D01*
X147557857Y-90746428D01*
X147593571Y-90710714D01*
X147629285Y-90639285D01*
X147629285Y-90496428D01*
X147593571Y-90425000D01*
X147557857Y-90389285D01*
X147486428Y-90353571D01*
X147307857Y-90353571D01*
X147236428Y-90389285D01*
X147200714Y-90425000D01*
X147165000Y-90496428D01*
X147165000Y-90639285D01*
X147200714Y-90710714D01*
X147236428Y-90746428D01*
X147307857Y-90782142D01*
%TO.C,R17*%
X143719285Y-106702142D02*
X143362142Y-106952142D01*
X143719285Y-107130714D02*
X142969285Y-107130714D01*
X142969285Y-106845000D01*
X143005000Y-106773571D01*
X143040714Y-106737857D01*
X143112142Y-106702142D01*
X143219285Y-106702142D01*
X143290714Y-106737857D01*
X143326428Y-106773571D01*
X143362142Y-106845000D01*
X143362142Y-107130714D01*
X143719285Y-105987857D02*
X143719285Y-106416428D01*
X143719285Y-106202142D02*
X142969285Y-106202142D01*
X143076428Y-106273571D01*
X143147857Y-106345000D01*
X143183571Y-106416428D01*
X142969285Y-105737857D02*
X142969285Y-105237857D01*
X143719285Y-105559285D01*
%TO.C,R18*%
X143659285Y-104182142D02*
X143302142Y-104432142D01*
X143659285Y-104610714D02*
X142909285Y-104610714D01*
X142909285Y-104325000D01*
X142945000Y-104253571D01*
X142980714Y-104217857D01*
X143052142Y-104182142D01*
X143159285Y-104182142D01*
X143230714Y-104217857D01*
X143266428Y-104253571D01*
X143302142Y-104325000D01*
X143302142Y-104610714D01*
X143659285Y-103467857D02*
X143659285Y-103896428D01*
X143659285Y-103682142D02*
X142909285Y-103682142D01*
X143016428Y-103753571D01*
X143087857Y-103825000D01*
X143123571Y-103896428D01*
X143230714Y-103039285D02*
X143195000Y-103110714D01*
X143159285Y-103146428D01*
X143087857Y-103182142D01*
X143052142Y-103182142D01*
X142980714Y-103146428D01*
X142945000Y-103110714D01*
X142909285Y-103039285D01*
X142909285Y-102896428D01*
X142945000Y-102825000D01*
X142980714Y-102789285D01*
X143052142Y-102753571D01*
X143087857Y-102753571D01*
X143159285Y-102789285D01*
X143195000Y-102825000D01*
X143230714Y-102896428D01*
X143230714Y-103039285D01*
X143266428Y-103110714D01*
X143302142Y-103146428D01*
X143373571Y-103182142D01*
X143516428Y-103182142D01*
X143587857Y-103146428D01*
X143623571Y-103110714D01*
X143659285Y-103039285D01*
X143659285Y-102896428D01*
X143623571Y-102825000D01*
X143587857Y-102789285D01*
X143516428Y-102753571D01*
X143373571Y-102753571D01*
X143302142Y-102789285D01*
X143266428Y-102825000D01*
X143230714Y-102896428D01*
%TD*%
M02*
